<svg width="167" height="143" viewBox="0 0 167 143" fill="none" xmlns="http://www.w3.org/2000/svg">
<path d="M124.104 120.032C91.2531 135.515 32.7615 126.039 15.4023 89.2062C8.34854 38.0119 57.7934 55.4609 65.6426 36.8914C78.142 7.32036 120.136 2.94879 134.365 33.139C160.349 75.4141 156.954 104.55 124.104 120.032Z" fill="#80C4E0" fill-opacity="0.25"/>
<path fill-rule="evenodd" clip-rule="evenodd" d="M85.7226 31.7058C75.5594 31.7058 67.3667 39.5652 67.3667 49.2054C67.3667 58.8456 75.5594 66.705 85.7226 66.705C95.8858 66.705 104.078 58.8456 104.078 49.2054C104.078 39.5652 95.8858 31.7058 85.7226 31.7058ZM63.3413 49.2054C63.3413 37.3648 73.3873 27.8105 85.7226 27.8105C98.0578 27.8105 108.104 37.3648 108.104 49.2054C108.104 61.046 98.0578 70.6003 85.7226 70.6003C73.3873 70.6003 63.3413 61.046 63.3413 49.2054Z" fill="white"/>
<path fill-rule="evenodd" clip-rule="evenodd" d="M65.068 77.8934H106.377C107.566 77.801 108.763 77.9489 109.888 78.328C111.044 78.718 112.097 79.3435 112.97 80.1616C113.842 80.9797 114.513 81.9703 114.932 83.0633C115.34 84.1251 115.499 85.257 115.4 86.382V98.5344C115.4 99.6048 114.487 100.473 113.36 100.473C112.234 100.473 111.321 99.6048 111.321 98.5344V86.2953C111.321 86.2332 111.324 86.171 111.33 86.1091C111.389 85.5279 111.311 84.9413 111.1 84.3908C110.888 83.8401 110.549 83.3379 110.104 82.9209C109.66 82.5038 109.12 82.1824 108.524 81.9813C107.927 81.7801 107.29 81.7048 106.657 81.7613C106.594 81.767 106.53 81.7698 106.466 81.7698H64.979C64.9152 81.7698 64.8515 81.767 64.7881 81.7613C64.1557 81.7048 63.5182 81.7801 62.9217 81.9813C62.3252 82.1824 61.7857 82.5038 61.3408 82.9209C60.8961 83.3379 60.5569 83.8401 60.3457 84.3908C60.1345 84.9413 60.056 85.5279 60.115 86.1091C60.1213 86.171 60.1245 86.2332 60.1245 86.2953V98.5344C60.1245 99.6048 59.2113 100.473 58.0848 100.473C56.9583 100.473 56.0451 99.6048 56.0451 98.5344V86.382C55.9461 85.257 56.1057 84.1252 56.513 83.0633C56.9322 81.9703 57.6031 80.9797 58.4757 80.1616C59.3482 79.3435 60.4009 78.718 61.5576 78.328C62.6821 77.9489 63.8791 77.801 65.068 77.8934Z" fill="white"/>
<path fill-rule="evenodd" clip-rule="evenodd" d="M83.5068 31.7058C73.3435 31.7058 65.1509 39.5652 65.1509 49.2054C65.1509 58.8456 73.3435 66.705 83.5068 66.705C93.67 66.705 101.863 58.8456 101.863 49.2054C101.863 39.5652 93.67 31.7058 83.5068 31.7058ZM61.1255 49.2054C61.1255 37.3648 71.1715 27.8105 83.5068 27.8105C95.842 27.8105 105.888 37.3648 105.888 49.2054C105.888 61.046 95.842 70.6003 83.5068 70.6003C71.1715 70.6003 61.1255 61.046 61.1255 49.2054Z" fill="#333333"/>
<path fill-rule="evenodd" clip-rule="evenodd" d="M62.8527 77.8934H104.162C105.351 77.801 106.548 77.9489 107.672 78.328C108.829 78.718 109.882 79.3435 110.754 80.1616C111.627 80.9797 112.298 81.9703 112.717 83.0633C113.124 84.1251 113.284 85.257 113.185 86.382V98.5344C113.185 99.6048 112.272 100.473 111.145 100.473C110.019 100.473 109.105 99.6048 109.105 98.5344V86.2953C109.105 86.2332 109.109 86.171 109.115 86.1091C109.174 85.5279 109.095 84.9413 108.884 84.3908C108.673 83.8401 108.334 83.3379 107.889 82.9209C107.444 82.5038 106.905 82.1824 106.308 81.9813C105.712 81.7801 105.074 81.7048 104.442 81.7613C104.378 81.767 104.315 81.7698 104.251 81.7698H62.7636C62.6999 81.7698 62.6362 81.767 62.5728 81.7613C61.9404 81.7048 61.3029 81.7801 60.7064 81.9813C60.1099 82.1824 59.5704 82.5038 59.1255 82.9209C58.6807 83.3379 58.3416 83.8401 58.1304 84.3908C57.9192 84.9413 57.8407 85.5279 57.8997 86.1091C57.906 86.171 57.9092 86.2332 57.9092 86.2953V98.5344C57.9092 99.6048 56.996 100.473 55.8695 100.473C54.743 100.473 53.8298 99.6048 53.8298 98.5344V86.382C53.7308 85.257 53.8904 84.1252 54.2976 83.0633C54.7169 81.9703 55.3878 80.9797 56.2604 80.1616C57.1329 79.3435 58.1856 78.718 59.3422 78.328C60.4668 77.9489 61.6638 77.801 62.8527 77.8934Z" fill="#333333"/>
<path d="M131.723 99.2042C131.723 106.593 125.685 112.583 118.236 112.583C110.788 112.583 104.75 106.593 104.75 99.2042C104.75 91.8152 110.788 85.8252 118.236 85.8252C125.685 85.8252 131.723 91.8152 131.723 99.2042Z" fill="#2055C0"/>
<path fill-rule="evenodd" clip-rule="evenodd" d="M118.235 90.2847C118.732 90.2847 119.134 90.684 119.134 91.1766V107.231C119.134 107.724 118.732 108.123 118.235 108.123C117.739 108.123 117.336 107.724 117.336 107.231V91.1766C117.336 90.684 117.739 90.2847 118.235 90.2847Z" fill="white"/>
<path fill-rule="evenodd" clip-rule="evenodd" d="M127.228 99.2043C127.228 99.6969 126.825 100.096 126.329 100.096H110.145C109.648 100.096 109.246 99.6969 109.246 99.2043C109.246 98.7117 109.648 98.3123 110.145 98.3123H126.329C126.825 98.3123 127.228 98.7117 127.228 99.2043Z" fill="white"/>
<path d="M167 49.8045C167 58.3303 160.033 65.2418 151.438 65.2418C142.844 65.2418 135.876 58.3303 135.876 49.8045C135.876 41.2787 142.844 34.3672 151.438 34.3672C160.033 34.3672 167 41.2787 167 49.8045Z" fill="#2055C0"/>
<path fill-rule="evenodd" clip-rule="evenodd" d="M151.438 39.5127C152.011 39.5127 152.476 39.9735 152.476 40.5418V59.0666C152.476 59.635 152.011 60.0958 151.438 60.0958C150.865 60.0958 150.401 59.635 150.401 59.0666V40.5418C150.401 39.9735 150.865 39.5127 151.438 39.5127Z" fill="white"/>
<path fill-rule="evenodd" clip-rule="evenodd" d="M161.813 49.8043C161.813 50.3727 161.349 50.8335 160.776 50.8335H142.101C141.528 50.8335 141.064 50.3727 141.064 49.8043C141.064 49.236 141.528 48.7752 142.101 48.7752H160.776C161.349 48.7752 161.813 49.236 161.813 49.8043Z" fill="white"/>
<path d="M47.6908 78.1059C47.6908 84.074 42.8137 88.912 36.7976 88.912C30.7814 88.912 25.9043 84.074 25.9043 78.1059C25.9043 72.1379 30.7814 67.2998 36.7976 67.2998C42.8137 67.2998 47.6908 72.1379 47.6908 78.1059Z" fill="#2055C0"/>
<path fill-rule="evenodd" clip-rule="evenodd" d="M36.7967 70.9019C37.1978 70.9019 37.5229 71.2244 37.5229 71.6223V84.5896C37.5229 84.9875 37.1978 85.31 36.7967 85.31C36.3957 85.31 36.0705 84.9875 36.0705 84.5896V71.6223C36.0705 71.2244 36.3957 70.9019 36.7967 70.9019Z" fill="white"/>
<path fill-rule="evenodd" clip-rule="evenodd" d="M44.0615 78.1063C44.0615 78.5041 43.7364 78.8267 43.3353 78.8267H30.2634C29.8623 78.8267 29.5372 78.5041 29.5372 78.1063C29.5372 77.7084 29.8623 77.3858 30.2634 77.3858H43.3353C43.7364 77.3858 44.0615 77.7084 44.0615 78.1063Z" fill="white"/>
<path d="M121.35 64.2125C121.35 67.6228 118.563 70.3874 115.125 70.3874C111.687 70.3874 108.9 67.6228 108.9 64.2125C108.9 60.8022 111.687 58.0376 115.125 58.0376C118.563 58.0376 121.35 60.8022 121.35 64.2125Z" fill="#2055C0"/>
<path fill-rule="evenodd" clip-rule="evenodd" d="M115.125 60.0957C115.354 60.0957 115.54 60.28 115.54 60.5074V67.9173C115.54 68.1446 115.354 68.3289 115.125 68.3289C114.896 68.3289 114.71 68.1446 114.71 67.9173V60.5074C114.71 60.28 114.896 60.0957 115.125 60.0957Z" fill="white"/>
<path fill-rule="evenodd" clip-rule="evenodd" d="M119.275 64.2124C119.275 64.4397 119.09 64.624 118.86 64.624H111.391C111.162 64.624 110.976 64.4397 110.976 64.2124C110.976 63.985 111.162 63.8007 111.391 63.8007H118.86C119.09 63.8007 119.275 63.985 119.275 64.2124Z" fill="white"/>
<path d="M64.2902 28.7066C64.2902 34.1063 59.8776 38.4836 54.4344 38.4836C48.9912 38.4836 44.5786 34.1063 44.5786 28.7066C44.5786 23.307 48.9912 18.9297 54.4344 18.9297C59.8776 18.9297 64.2902 23.307 64.2902 28.7066Z" fill="#2055C0"/>
<path fill-rule="evenodd" clip-rule="evenodd" d="M54.4338 22.1885C54.7966 22.1885 55.0908 22.4803 55.0908 22.8403V34.5726C55.0908 34.9326 54.7966 35.2244 54.4338 35.2244C54.0709 35.2244 53.7767 34.9326 53.7767 34.5726V22.8403C53.7767 22.4803 54.0709 22.1885 54.4338 22.1885Z" fill="white"/>
<path fill-rule="evenodd" clip-rule="evenodd" d="M61.0049 28.7066C61.0049 29.0666 60.7107 29.3584 60.3478 29.3584H48.5209C48.158 29.3584 47.8638 29.0666 47.8638 28.7066C47.8638 28.3466 48.158 28.0548 48.5209 28.0548H60.3478C60.7107 28.0548 61.0049 28.3466 61.0049 28.7066Z" fill="white"/>
</svg>
