<svg width="183" height="106" viewBox="0 0 183 106" fill="none" xmlns="http://www.w3.org/2000/svg">
<rect width="183" height="106" rx="5" fill="#59B7B3"/>
<ellipse cx="92" cy="94" rx="32" ry="3" fill="#107C8A"/>
<path d="M109.226 77.016H68.0777C66.7823 77.0113 65.5416 76.4933 64.6273 75.5757C63.7131 74.658 63.1997 73.4154 63.1997 72.12V30.72C63.1991 29.5271 63.6341 28.375 64.4229 27.4801C65.2117 26.5852 66.3001 26.0091 67.4837 25.86C67.6285 24.7957 68.1193 23.8086 68.8804 23.0507C69.6416 22.2928 70.6308 21.8063 71.6957 21.666C71.8485 20.4888 72.4237 19.4072 73.3144 18.6224C74.2051 17.8377 75.3506 17.4033 76.5377 17.4H117.686C118.329 17.3977 118.966 17.522 119.561 17.7658C120.156 18.0097 120.697 18.3683 121.153 18.8213C121.609 19.2743 121.972 19.8127 122.22 20.4058C122.468 20.9989 122.597 21.6351 122.6 22.278V63.786C122.596 64.9731 122.162 66.1186 121.377 67.0093C120.593 67.9 119.511 68.4753 118.334 68.628C118.192 69.703 117.698 70.7007 116.929 71.4658C116.161 72.2309 115.161 72.7204 114.086 72.858C113.912 74.0202 113.325 75.0808 112.432 75.8447C111.539 76.6086 110.401 77.0246 109.226 77.016ZM106.184 69.6H70.3997C70.1625 69.5954 69.9362 69.4991 69.7684 69.3313C69.6006 69.1635 69.5043 68.9373 69.4997 68.7C69.4997 68.4613 69.5945 68.2324 69.7633 68.0636C69.9321 67.8948 70.161 67.8 70.3997 67.8H106.184C106.422 67.8 106.651 67.8948 106.82 68.0636C106.989 68.2324 107.084 68.4613 107.084 68.7C107.084 68.9387 106.989 69.1676 106.82 69.3364C106.651 69.5052 106.422 69.6 106.184 69.6ZM106.184 63.966H70.3997C70.1625 63.9614 69.9362 63.8651 69.7684 63.6973C69.6006 63.5295 69.5043 63.3033 69.4997 63.066C69.4997 62.8273 69.5945 62.5984 69.7633 62.4296C69.9321 62.2608 70.161 62.166 70.3997 62.166H106.184C106.422 62.166 106.651 62.2608 106.82 62.4296C106.989 62.5984 107.084 62.8273 107.084 63.066C107.094 63.1901 107.078 63.3149 107.037 63.4326C106.996 63.5502 106.932 63.6581 106.847 63.7495C106.762 63.8409 106.66 63.9137 106.546 63.9633C106.431 64.013 106.308 64.0384 106.184 64.038V63.966ZM105.608 58.314H70.3997C70.161 58.314 69.9321 58.2192 69.7633 58.0504C69.5945 57.8816 69.4997 57.6527 69.4997 57.414C69.5043 57.1768 69.6006 56.9505 69.7684 56.7827C69.9362 56.6149 70.1625 56.5186 70.3997 56.514H105.608C105.845 56.5186 106.071 56.6149 106.239 56.7827C106.407 56.9505 106.503 57.1768 106.508 57.414C106.518 57.5381 106.502 57.6629 106.461 57.7806C106.42 57.8982 106.356 58.0061 106.271 58.0975C106.186 58.1889 106.084 58.2617 105.97 58.3113C105.855 58.361 105.732 58.3864 105.608 58.386V58.314ZM105.608 52.698H70.3997C70.161 52.698 69.9321 52.6032 69.7633 52.4344C69.5945 52.2656 69.4997 52.0367 69.4997 51.798C69.5043 51.5608 69.6006 51.3345 69.7684 51.1667C69.9362 50.9989 70.1625 50.9026 70.3997 50.898H105.608C105.845 50.9026 106.071 50.9989 106.239 51.1667C106.407 51.3345 106.503 51.5608 106.508 51.798C106.518 51.9221 106.502 52.0469 106.461 52.1646C106.42 52.2822 106.356 52.3901 106.271 52.4815C106.186 52.5728 106.084 52.6457 105.97 52.6953C105.855 52.745 105.732 52.7704 105.608 52.77V52.698ZM105.608 47.064H70.3997C70.161 47.064 69.9321 46.9692 69.7633 46.8004C69.5945 46.6316 69.4997 46.4027 69.4997 46.164C69.5043 45.9268 69.6006 45.7005 69.7684 45.5327C69.9362 45.3649 70.1625 45.2686 70.3997 45.264H105.608C105.845 45.2686 106.071 45.3649 106.239 45.5327C106.407 45.7005 106.503 45.9268 106.508 46.164C106.518 46.2881 106.502 46.4129 106.461 46.5306C106.42 46.6482 106.356 46.7561 106.271 46.8475C106.186 46.9389 106.084 47.0117 105.97 47.0613C105.855 47.111 105.732 47.1364 105.608 47.136V47.064ZM94.1237 41.214H70.3997C70.161 41.214 69.9321 41.1192 69.7633 40.9504C69.5945 40.7816 69.4997 40.5527 69.4997 40.314C69.5043 40.0768 69.6006 39.8505 69.7684 39.6827C69.9362 39.5149 70.1625 39.4186 70.3997 39.414H94.1237C94.3624 39.414 94.5913 39.5088 94.7601 39.6776C94.9289 39.8464 95.0237 40.0753 95.0237 40.314C95.0337 40.4381 95.0178 40.5629 94.977 40.6806C94.9363 40.7982 94.8716 40.9061 94.787 40.9975C94.7024 41.0889 94.5998 41.1617 94.4856 41.2113C94.3714 41.261 94.2482 41.2864 94.1237 41.286V41.214ZM94.1237 35.814H70.3997C70.1625 35.8094 69.9362 35.7131 69.7684 35.5453C69.6006 35.3775 69.5043 35.1513 69.4997 34.914C69.4997 34.6753 69.5945 34.4464 69.7633 34.2776C69.9321 34.1088 70.161 34.014 70.3997 34.014H94.1237C94.3624 34.014 94.5913 34.1088 94.7601 34.2776C94.9289 34.4464 95.0237 34.6753 95.0237 34.914C95.0337 35.0381 95.0178 35.1629 94.977 35.2806C94.9363 35.3982 94.8716 35.5061 94.787 35.5975C94.7024 35.6889 94.5998 35.7617 94.4856 35.8113C94.3714 35.861 94.2482 35.8864 94.1237 35.886V35.814Z" fill="white"/>
<path d="M65.9001 28.4472C66.4769 27.8671 67.2597 27.5388 68.0777 27.534H99.6677V35.778C99.6677 40.404 103.79 40.404 106.256 40.404H112.304V72.03C112.304 72.848 111.98 73.6328 111.403 74.2129C110.827 74.793 110.044 75.1213 109.226 75.126H68.0777C67.2597 75.1213 66.4769 74.793 65.9001 74.2129C65.3234 73.6328 64.9997 72.848 64.9997 72.03M70.4193 24.0705C70.9602 23.6534 71.6246 23.4281 72.3077 23.43H113.366C114.181 23.4348 114.961 23.7606 115.537 24.3368C116.113 24.913 116.439 25.6931 116.444 26.508V68.016C116.44 68.7184 116.197 69.3986 115.755 69.9448C115.314 70.4911 114.7 70.8709 114.014 71.022V39.198C114.015 38.9632 113.925 38.7371 113.762 38.568L101.162 25.968C101 25.8186 100.788 25.7351 100.568 25.734M113.456 21.63C114.748 21.6348 115.986 22.1502 116.9 23.064C117.814 23.9778 118.329 25.2158 118.334 26.508V66.792C119.028 66.6512 119.652 66.2753 120.101 65.7277C120.551 65.1801 120.797 64.4943 120.8 63.786V22.278C120.797 21.8715 120.715 21.4693 120.557 21.0946C120.399 20.7199 120.169 20.3799 119.88 20.0941C119.591 19.8083 119.248 19.5822 118.872 19.4288C118.495 19.2754 118.092 19.1977 117.686 19.2H76.5377C75.8331 19.2032 75.1504 19.4452 74.6011 19.8866M101.468 35.796C101.468 38.01 102.494 38.622 106.256 38.622H111.242M109.226 77.016H68.0777C66.7823 77.0113 65.5416 76.4933 64.6273 75.5757C63.7131 74.658 63.1997 73.4154 63.1997 72.12V30.72C63.1991 29.5271 63.6341 28.375 64.4229 27.4801C65.2117 26.5852 66.3001 26.0091 67.4837 25.86C67.6285 24.7957 68.1193 23.8086 68.8804 23.0507C69.6416 22.2928 70.6308 21.8063 71.6957 21.666C71.8485 20.4888 72.4237 19.4072 73.3144 18.6224C74.2051 17.8377 75.3506 17.4033 76.5377 17.4H117.686C118.329 17.3977 118.966 17.522 119.561 17.7658C120.156 18.0097 120.697 18.3683 121.153 18.8213C121.609 19.2743 121.972 19.8127 122.22 20.4058C122.468 20.9989 122.597 21.6351 122.6 22.278V63.786C122.596 64.9731 122.162 66.1186 121.377 67.0093C120.593 67.9 119.511 68.4753 118.334 68.628C118.192 69.703 117.698 70.7007 116.929 71.4658C116.161 72.2309 115.161 72.7204 114.086 72.858C113.912 74.0202 113.325 75.0808 112.432 75.8447C111.539 76.6086 110.401 77.0246 109.226 77.016ZM106.184 69.6H70.3997C70.1625 69.5954 69.9362 69.4991 69.7684 69.3313C69.6006 69.1635 69.5043 68.9373 69.4997 68.7C69.4997 68.4613 69.5945 68.2324 69.7633 68.0636C69.9321 67.8948 70.161 67.8 70.3997 67.8H106.184C106.422 67.8 106.651 67.8948 106.82 68.0636C106.989 68.2324 107.084 68.4613 107.084 68.7C107.084 68.9387 106.989 69.1676 106.82 69.3364C106.651 69.5052 106.422 69.6 106.184 69.6ZM106.184 63.966H70.3997C70.1625 63.9614 69.9362 63.8651 69.7684 63.6973C69.6006 63.5295 69.5043 63.3033 69.4997 63.066C69.4997 62.8273 69.5945 62.5984 69.7633 62.4296C69.9321 62.2608 70.161 62.166 70.3997 62.166H106.184C106.422 62.166 106.651 62.2608 106.82 62.4296C106.989 62.5984 107.084 62.8273 107.084 63.066C107.094 63.1901 107.078 63.3149 107.037 63.4326C106.996 63.5502 106.932 63.6581 106.847 63.7495C106.762 63.8409 106.66 63.9137 106.546 63.9633C106.431 64.013 106.308 64.0384 106.184 64.038V63.966ZM105.608 58.314H70.3997C70.161 58.314 69.9321 58.2192 69.7633 58.0504C69.5945 57.8816 69.4997 57.6527 69.4997 57.414C69.5043 57.1768 69.6006 56.9505 69.7684 56.7827C69.9362 56.6149 70.1625 56.5186 70.3997 56.514H105.608C105.845 56.5186 106.071 56.6149 106.239 56.7827C106.407 56.9505 106.503 57.1768 106.508 57.414C106.518 57.5381 106.502 57.6629 106.461 57.7806C106.42 57.8982 106.356 58.0061 106.271 58.0975C106.186 58.1888 106.084 58.2617 105.97 58.3113C105.855 58.361 105.732 58.3864 105.608 58.386V58.314ZM105.608 52.698H70.3997C70.161 52.698 69.9321 52.6032 69.7633 52.4344C69.5945 52.2656 69.4997 52.0367 69.4997 51.798C69.5043 51.5608 69.6006 51.3345 69.7684 51.1667C69.9362 50.9989 70.1625 50.9026 70.3997 50.898H105.608C105.845 50.9026 106.071 50.9989 106.239 51.1667C106.407 51.3345 106.503 51.5608 106.508 51.798C106.518 51.9221 106.502 52.0469 106.461 52.1646C106.42 52.2822 106.356 52.3901 106.271 52.4815C106.186 52.5728 106.084 52.6457 105.97 52.6953C105.855 52.745 105.732 52.7704 105.608 52.77V52.698ZM105.608 47.064H70.3997C70.161 47.064 69.9321 46.9692 69.7633 46.8004C69.5945 46.6316 69.4997 46.4027 69.4997 46.164C69.5043 45.9268 69.6006 45.7005 69.7684 45.5327C69.9362 45.3649 70.1625 45.2686 70.3997 45.264H105.608C105.845 45.2686 106.071 45.3649 106.239 45.5327C106.407 45.7005 106.503 45.9268 106.508 46.164C106.518 46.2881 106.502 46.4129 106.461 46.5306C106.42 46.6482 106.356 46.7561 106.271 46.8475C106.186 46.9389 106.084 47.0117 105.97 47.0613C105.855 47.111 105.732 47.1364 105.608 47.136V47.064ZM94.1237 41.214H70.3997C70.161 41.214 69.9321 41.1192 69.7633 40.9504C69.5945 40.7816 69.4997 40.5527 69.4997 40.314C69.5043 40.0768 69.6006 39.8505 69.7684 39.6827C69.9362 39.5149 70.1625 39.4186 70.3997 39.414H94.1237C94.3624 39.414 94.5913 39.5088 94.7601 39.6776C94.9289 39.8464 95.0237 40.0753 95.0237 40.314C95.0337 40.4381 95.0178 40.5629 94.977 40.6806C94.9363 40.7982 94.8716 40.9061 94.787 40.9975C94.7024 41.0889 94.5998 41.1617 94.4856 41.2113C94.3714 41.261 94.2482 41.2864 94.1237 41.286V41.214ZM94.1237 35.814H70.3997C70.1625 35.8094 69.9362 35.7131 69.7684 35.5453C69.6006 35.3775 69.5043 35.1513 69.4997 34.914C69.4997 34.6753 69.5945 34.4464 69.7633 34.2776C69.9321 34.1088 70.161 34.014 70.3997 34.014H94.1237C94.3624 34.014 94.5913 34.1088 94.7601 34.2776C94.9289 34.4464 95.0237 34.6753 95.0237 34.914C95.0337 35.0381 95.0178 35.1629 94.977 35.2806C94.9363 35.3982 94.8716 35.5061 94.787 35.5975C94.7024 35.6889 94.5998 35.7617 94.4856 35.8113C94.3714 35.861 94.2482 35.8864 94.1237 35.886V35.814Z" stroke="#333333" stroke-width="0.5"/>
<path d="M109.226 77.016H68.0777C66.7823 77.0113 65.5416 76.4933 64.6273 75.5757C63.7131 74.658 63.1997 73.4154 63.1997 72.12V30.72C63.1991 29.5271 63.6341 28.375 64.4229 27.4801C65.2117 26.5852 66.3001 26.0091 67.4837 25.86C67.6285 24.7957 68.1193 23.8086 68.8804 23.0507C69.6416 22.2928 70.6308 21.8063 71.6957 21.666C71.8485 20.4888 72.4237 19.4072 73.3144 18.6224C74.2051 17.8377 75.3506 17.4033 76.5377 17.4H117.686C118.329 17.3977 118.966 17.522 119.561 17.7658C120.156 18.0097 120.697 18.3683 121.153 18.8213C121.609 19.2743 121.972 19.8127 122.22 20.4058C122.468 20.9989 122.597 21.6351 122.6 22.278V63.786C122.596 64.9731 122.162 66.1186 121.377 67.0093C120.593 67.9 119.511 68.4753 118.334 68.628C118.192 69.703 117.698 70.7007 116.929 71.4658C116.161 72.2309 115.161 72.7204 114.086 72.858C113.912 74.0202 113.325 75.0808 112.432 75.8447C111.539 76.6086 110.401 77.0246 109.226 77.016ZM68.0777 27.534C67.2597 27.5388 66.4769 27.8671 65.9001 28.4472C65.3234 29.0273 64.9997 29.812 64.9997 30.63V72.03C64.9997 72.848 65.3234 73.6328 65.9001 74.2129C66.4769 74.793 67.2597 75.1213 68.0777 75.126H109.226C110.044 75.1213 110.827 74.793 111.403 74.2129C111.98 73.6328 112.304 72.848 112.304 72.03V40.404H106.256C103.79 40.404 99.6677 40.404 99.6677 35.778V27.534H68.0777ZM101.162 25.968L113.762 38.568C113.925 38.7371 114.015 38.9632 114.014 39.198V71.022C114.7 70.8709 115.314 70.4911 115.755 69.9448C116.197 69.3986 116.44 68.7184 116.444 68.016V26.508C116.439 25.6931 116.113 24.913 115.537 24.3368C114.961 23.7606 114.181 23.4348 113.366 23.43H72.3077C71.6246 23.4281 70.9602 23.6534 70.4193 24.0705C69.8783 24.4876 69.4915 25.0729 69.3197 25.734H100.568C100.788 25.7351 101 25.8186 101.162 25.968ZM73.5137 21.63H113.456C114.748 21.6348 115.986 22.1502 116.9 23.064C117.814 23.9778 118.329 25.2158 118.334 26.508V66.792C119.028 66.6512 119.652 66.2753 120.101 65.7277C120.551 65.1801 120.797 64.4943 120.8 63.786V22.278C120.797 21.8715 120.715 21.4693 120.557 21.0946C120.399 20.7199 120.169 20.3799 119.88 20.0941C119.591 19.8083 119.248 19.5822 118.872 19.4288C118.495 19.2754 118.092 19.1977 117.686 19.2H76.5377C75.8331 19.2032 75.1504 19.4452 74.6011 19.8866C74.0518 20.328 73.6685 20.9426 73.5137 21.63ZM101.468 28.83V35.796C101.468 38.01 102.494 38.622 106.256 38.622H111.242L101.468 28.83ZM106.184 69.6H70.3997C70.1625 69.5954 69.9362 69.4991 69.7684 69.3313C69.6006 69.1635 69.5043 68.9373 69.4997 68.7C69.4997 68.4613 69.5945 68.2324 69.7633 68.0636C69.9321 67.8948 70.161 67.8 70.3997 67.8H106.184C106.422 67.8 106.651 67.8948 106.82 68.0636C106.989 68.2324 107.084 68.4613 107.084 68.7C107.084 68.9387 106.989 69.1676 106.82 69.3364C106.651 69.5052 106.422 69.6 106.184 69.6ZM106.184 63.966H70.3997C70.1625 63.9614 69.9362 63.8651 69.7684 63.6973C69.6006 63.5295 69.5043 63.3033 69.4997 63.066C69.4997 62.8273 69.5945 62.5984 69.7633 62.4296C69.9321 62.2608 70.161 62.166 70.3997 62.166H106.184C106.422 62.166 106.651 62.2608 106.82 62.4296C106.989 62.5984 107.084 62.8273 107.084 63.066C107.094 63.1901 107.078 63.3149 107.037 63.4326C106.996 63.5502 106.932 63.6581 106.847 63.7495C106.762 63.8409 106.66 63.9137 106.546 63.9633C106.431 64.013 106.308 64.0384 106.184 64.038V63.966ZM105.608 58.314H70.3997C70.161 58.314 69.9321 58.2192 69.7633 58.0504C69.5945 57.8816 69.4997 57.6527 69.4997 57.414C69.5043 57.1768 69.6006 56.9505 69.7684 56.7827C69.9362 56.6149 70.1625 56.5186 70.3997 56.514H105.608C105.845 56.5186 106.071 56.6149 106.239 56.7827C106.407 56.9505 106.503 57.1768 106.508 57.414C106.518 57.5381 106.502 57.6629 106.461 57.7806C106.42 57.8982 106.356 58.0061 106.271 58.0975C106.186 58.1889 106.084 58.2617 105.97 58.3113C105.855 58.361 105.732 58.3864 105.608 58.386V58.314ZM105.608 52.698H70.3997C70.161 52.698 69.9321 52.6032 69.7633 52.4344C69.5945 52.2656 69.4997 52.0367 69.4997 51.798C69.5043 51.5608 69.6006 51.3345 69.7684 51.1667C69.9362 50.9989 70.1625 50.9026 70.3997 50.898H105.608C105.845 50.9026 106.071 50.9989 106.239 51.1667C106.407 51.3345 106.503 51.5608 106.508 51.798C106.518 51.9221 106.502 52.0469 106.461 52.1646C106.42 52.2822 106.356 52.3901 106.271 52.4815C106.186 52.5728 106.084 52.6457 105.97 52.6953C105.855 52.745 105.732 52.7704 105.608 52.77V52.698ZM105.608 47.064H70.3997C70.161 47.064 69.9321 46.9692 69.7633 46.8004C69.5945 46.6316 69.4997 46.4027 69.4997 46.164C69.5043 45.9268 69.6006 45.7005 69.7684 45.5327C69.9362 45.3649 70.1625 45.2686 70.3997 45.264H105.608C105.845 45.2686 106.071 45.3649 106.239 45.5327C106.407 45.7005 106.503 45.9268 106.508 46.164C106.518 46.2881 106.502 46.4129 106.461 46.5306C106.42 46.6482 106.356 46.7561 106.271 46.8475C106.186 46.9389 106.084 47.0117 105.97 47.0613C105.855 47.111 105.732 47.1364 105.608 47.136V47.064ZM94.1237 41.214H70.3997C70.161 41.214 69.9321 41.1192 69.7633 40.9504C69.5945 40.7816 69.4997 40.5527 69.4997 40.314C69.5043 40.0768 69.6006 39.8505 69.7684 39.6827C69.9362 39.5149 70.1625 39.4186 70.3997 39.414H94.1237C94.3624 39.414 94.5913 39.5088 94.7601 39.6776C94.9289 39.8464 95.0237 40.0753 95.0237 40.314C95.0337 40.4381 95.0178 40.5629 94.977 40.6806C94.9363 40.7982 94.8716 40.9061 94.787 40.9975C94.7024 41.0889 94.5998 41.1617 94.4856 41.2113C94.3714 41.261 94.2482 41.2864 94.1237 41.286V41.214ZM94.1237 35.814H70.3997C70.1625 35.8094 69.9362 35.7131 69.7684 35.5453C69.6006 35.3775 69.5043 35.1513 69.4997 34.914C69.4997 34.6753 69.5945 34.4464 69.7633 34.2776C69.9321 34.1088 70.161 34.014 70.3997 34.014H94.1237C94.3624 34.014 94.5913 34.1088 94.7601 34.2776C94.9289 34.4464 95.0237 34.6753 95.0237 34.914C95.0337 35.0381 95.0178 35.1629 94.977 35.2806C94.9363 35.3982 94.8716 35.5061 94.787 35.5975C94.7024 35.6889 94.5998 35.7617 94.4856 35.8113C94.3714 35.861 94.2482 35.8864 94.1237 35.886V35.814Z" fill="#0B3C61" stroke="#0B3C61" stroke-width="0.5"/>
<path fill-rule="evenodd" clip-rule="evenodd" d="M70.373 25.5H99.7416C100.547 25.5 101.318 25.8236 101.882 26.3979L113.829 38.5624C114.104 38.8428 114.258 39.2203 114.258 39.6134V70.975C114.72 70.4473 115 69.7564 115 69V39.1109C115 38.7193 114.847 38.3431 114.573 38.0629L102.699 25.9039C102.134 25.3259 101.36 25 100.552 25H72.032C71.4183 25 70.848 25.1842 70.373 25.5Z" fill="#79B0DE"/>
<path fill-rule="evenodd" clip-rule="evenodd" d="M74.6875 21.5657C74.9519 21.5225 75.2232 21.5 75.4998 21.5H113.5C116.261 21.5 118.5 23.7386 118.5 26.5V65.1821C118.82 64.5227 119 63.7823 119 63V26C119 23.2386 116.761 21 114 21H76.9998C76.1656 21 75.379 21.2043 74.6875 21.5657Z" fill="#79B0DE"/>
</svg>
