<svg width="75" height="75" viewBox="0 0 75 75" fill="none" xmlns="http://www.w3.org/2000/svg">
<g clip-path="url(#clip0_1940_6622)">
<rect width="75" height="75" rx="5" fill="#92C83E"/>
<path d="M30.1604 38.784L33.0874 38.0625L37.987 42.5093L37.293 45.0937C35.043 47.3437 29.9805 52.125 28.8555 53.25C27.4492 54.0937 25.7618 54.6562 23.6786 53.39C21.3619 51.9819 21.7673 48.4388 22.4321 46.4583L30.1604 38.784Z" fill="#79B0DE"/>
<path d="M28.7659 37.6994L31.8219 36.9375L36.9374 41.6332L36.6561 44.5312C34.4003 47.0583 28.7138 52.4954 27.4644 53.1228C25.9027 53.9071 24.8438 55.2315 21.9984 53.1228C18.3749 50.4375 20.0029 47.8945 20.697 45.8032L28.7659 37.6994Z" fill="white"/>
<path fill-rule="evenodd" clip-rule="evenodd" d="M30.2474 41.6773C30.4078 41.8464 30.4008 42.1134 30.2318 42.2738L23.9659 48.2186C23.7968 48.379 23.5298 48.372 23.3695 48.203C23.2091 48.0339 23.2161 47.7669 23.3851 47.6065L29.651 41.6617C29.82 41.5013 30.0871 41.5083 30.2474 41.6773Z" fill="#0B3C61"/>
<path fill-rule="evenodd" clip-rule="evenodd" d="M32.5262 43.4537C32.6865 43.6228 32.6793 43.8898 32.5102 44.0501L26.0778 50.1476C25.9087 50.3079 25.6417 50.3008 25.4814 50.1317C25.3211 49.9626 25.3282 49.6955 25.4973 49.5352L31.9298 43.4377C32.0988 43.2774 32.3659 43.2846 32.5262 43.4537Z" fill="#0B3C61"/>
<path fill-rule="evenodd" clip-rule="evenodd" d="M20.7914 45.8501C20.7818 45.8643 20.7705 45.8814 20.7578 45.9012C20.7057 45.9819 20.6302 46.1065 20.5463 46.269C20.3775 46.5956 20.1803 47.064 20.0664 47.6272C19.8446 48.7239 19.9234 50.2328 21.2857 51.846C22.6152 53.4204 24.0882 53.6184 25.2453 53.4556C25.8419 53.3717 26.3629 53.1882 26.7368 53.0233C26.9223 52.9414 27.0679 52.8658 27.1639 52.8126C27.1913 52.7975 27.2145 52.7842 27.2334 52.7732L36.149 44.4176L36.6511 42.2387L31.4308 37.2854L29.1772 37.9724L20.7914 45.8501ZM28.7498 37.2162L20.1475 45.2973C20.1475 45.2973 17.5348 48.7467 20.625 52.4062C23.7152 56.0657 27.7434 53.4517 27.7434 53.4517L36.9231 44.8485L37.5935 41.939L31.6761 36.3242L28.7498 37.2162ZM20.8273 45.7984L20.8274 45.7984L20.8282 45.7972L20.8283 45.7971C20.8283 45.7971 20.828 45.7975 20.8273 45.7984Z" fill="#0B3C61"/>
<path fill-rule="evenodd" clip-rule="evenodd" d="M52.6266 20.1393C52.9043 20.0038 53.2458 20.0507 53.4682 20.2549L55.8529 22.4444C56.076 22.6492 56.1266 22.9639 55.9776 23.2191L53.2018 27.9747C53.0944 28.1587 52.8981 28.2849 52.673 28.3146L50.1228 28.6514L42.2114 35.8978C42.1956 35.9123 42.1791 35.9261 42.1621 35.939L42.1739 35.9498L41.7108 36.375L40.699 35.4461L40.7078 35.438L38.8305 33.6865C38.5554 33.4299 38.5567 33.0177 38.8334 32.7624L46.7171 25.49L47.0839 23.1482C47.1164 22.9407 47.2548 22.76 47.4564 22.6616L52.6266 20.1393Z" fill="white"/>
<path fill-rule="evenodd" clip-rule="evenodd" d="M52.6266 20.1393C52.9043 20.0038 53.2458 20.0507 53.4682 20.2549L55.8529 22.4444C56.076 22.6492 56.1266 22.9639 55.9776 23.2191L53.2018 27.9747C53.0944 28.1587 52.8981 28.2849 52.673 28.3146L50.1228 28.6514L42.2114 35.8978C42.1956 35.9123 42.1791 35.9261 42.1621 35.939L42.1739 35.9498L41.7108 36.375L40.699 35.4461L40.7078 35.438L38.8305 33.6865C38.5554 33.4299 38.5567 33.0177 38.8334 32.7624L46.7171 25.49L47.0839 23.1482C47.1164 22.9407 47.2548 22.76 47.4564 22.6616L52.6266 20.1393Z" fill="url(#paint0_linear_1940_6622)"/>
<path fill-rule="evenodd" clip-rule="evenodd" d="M52.4416 19.7602C52.8703 19.551 53.3994 19.619 53.7535 19.9441L53.4682 20.2549L53.7535 19.9441L56.1383 22.1336C56.5022 22.4678 56.5945 22.9992 56.342 23.4318L53.5661 28.1874C53.3881 28.4923 53.0728 28.6874 52.7283 28.7329L50.3098 29.0523L42.5266 36.1812C42.5077 36.2101 42.4851 36.2368 42.4592 36.2606L41.9961 36.6858C41.8347 36.8339 41.5868 36.8339 41.4255 36.6858L40.4137 35.7568C40.3879 35.7331 40.3654 35.7065 40.3465 35.6778L39.916 35.2762L39.9065 35.2864L38.5427 34.0141L38.5522 34.0039L38.5427 33.995C38.088 33.5708 38.0904 32.8739 38.5473 32.4524L46.323 25.2795L46.6671 23.0829C46.7226 22.7286 46.9559 22.4364 47.2714 22.2825L52.4416 19.7602ZM41.0585 35.2034L41.7108 35.8023L41.8029 35.7177C41.8299 35.6739 41.865 35.6349 41.9069 35.603C41.9138 35.5978 41.9203 35.5924 41.9265 35.5867C41.9265 35.5867 41.9265 35.5867 41.9265 35.5867L49.8379 28.3403C49.9016 28.2819 49.9818 28.2445 50.0676 28.2332L52.6178 27.8964C52.7234 27.8824 52.8006 27.8252 52.8374 27.7621L53.1521 27.9458L52.8374 27.7621L55.6133 23.0065L55.9776 23.2191L55.6133 23.0065C55.6587 22.9286 55.6497 22.8305 55.5676 22.7552L55.8529 22.4444L55.5676 22.7552L53.1828 20.5657C53.0922 20.4825 52.9382 20.4567 52.8115 20.5185L47.6413 23.0408C47.5537 23.0835 47.5102 23.1528 47.5007 23.2135L47.1339 25.5553C47.1191 25.6493 47.073 25.7356 47.0031 25.8001L39.1194 33.0725C39.023 33.1615 39.0228 33.289 39.1183 33.3781L40.9956 35.1295C41.0196 35.1518 41.0406 35.1767 41.0585 35.2034Z" fill="#0B3C61"/>
<path d="M30.7321 34.9346L49.8777 52.2088C52.3417 53.5314 54.0227 52.2538 54.9245 50.9245C55.846 49.3294 55.255 47.77 54.8444 47.1898L36.206 29.9047C36.3289 25.9447 34.3214 22.5644 31.964 21.3989C29.6687 20.264 25.6135 21.0438 25.3757 21.7858L30.5478 26.3417L27.573 29.5986L22.6986 25.2941C22.4327 25.0593 22.015 25.1694 21.9257 25.5127C21.26 28.0742 21.7114 30.9404 23.3197 32.3917C25.1846 34.0746 29.1978 35.1768 30.7321 34.9346Z" fill="#79B0DE"/>
<path d="M28.7736 27.109L25.9688 29.6929C25.2569 29.6929 25.5108 29.4058 25.5108 29.4058C24.2254 28.066 21.5954 25.6359 21.3581 25.4062C21.1208 25.1766 20.2705 25.0036 19.875 25.0993C19.3807 26.3434 18.9852 29.5206 21.3581 32.2768C23.7311 35.0329 27.8837 35.3392 29.6634 35.1478L49.5368 53.5221C50.5256 53.9049 52.859 54.2112 54.2827 52.3737C55.7065 50.5363 54.4805 48.3543 53.6895 47.493C48.7459 42.8037 38.0874 32.6787 35.0026 29.6929C35.8924 25.0993 32.0364 21.9412 29.96 21.0799C27.8837 20.2186 24.3243 20.7928 24.0277 21.0799C23.7904 21.3096 23.9288 21.7498 24.0277 21.9412C25.5107 23.281 28.5363 26.018 28.7736 26.2477C29.0108 26.4774 28.8724 26.9176 28.7736 27.109Z" fill="white"/>
<path fill-rule="evenodd" clip-rule="evenodd" d="M35.0343 29.4287C35.1753 28.86 35.25 28.2666 35.25 27.6562C35.25 23.4623 31.7242 20.0625 27.375 20.0625C26.1491 20.0625 24.9886 20.3326 23.9541 20.8145C23.8799 20.849 23.8064 20.8847 23.7335 20.9214C23.4438 21.0673 23.3982 21.4516 23.628 21.6805L28.5816 26.6136C28.6918 26.7234 28.692 26.9018 28.582 27.0118L26.1644 29.4294C26.0558 29.5379 25.8803 29.5394 25.7699 29.4326L20.8392 24.6609C20.6002 24.4296 20.2058 24.4922 20.0766 24.7988C20.0466 24.8698 20.0178 24.9413 19.9901 25.0133C19.6732 25.8364 19.5 26.7268 19.5 27.6562C19.5 31.8502 23.0258 35.25 27.375 35.25C28.0046 35.25 28.617 35.1787 29.2039 35.0441L48.5792 53.3639C50.1812 54.8787 52.6979 54.8429 54.2562 53.2832C55.8789 51.6591 55.8385 49.0153 54.1669 47.4416L35.0343 29.4287ZM20.6566 25.6584C20.4532 26.2896 20.3438 26.9603 20.3438 27.6562C20.3438 31.3555 23.4626 34.4062 27.375 34.4062C27.9408 34.4062 28.4899 34.3422 29.0153 34.2217L29.4555 34.1208L49.1589 52.7508C50.4289 53.9516 52.424 53.9233 53.6593 52.6869C54.9457 51.3994 54.9137 49.3035 53.5886 48.0559L34.0966 29.7047L34.2154 29.2256C34.3401 28.7228 34.4062 28.1975 34.4062 27.6562C34.4062 23.957 31.2874 20.9062 27.375 20.9062C26.3863 20.9062 25.4472 21.1018 24.596 21.4538L29.1769 26.0158C29.6178 26.4549 29.6186 27.1684 29.1786 27.6084L26.761 30.026C26.3268 30.4602 25.6245 30.466 25.1832 30.0389L20.6566 25.6584Z" fill="#0B3C61"/>
<ellipse cx="37.3407" cy="61.7547" rx="19.3407" ry="1.75472" fill="#82B337"/>
</g>
<defs>
<linearGradient id="paint0_linear_1940_6622" x1="6.19735" y1="22.3536" x2="6.19735" y2="55.1927" gradientUnits="userSpaceOnUse">
<stop stop-color="white"/>
<stop offset="1" stop-color="white" stop-opacity="0"/>
</linearGradient>
<clipPath id="clip0_1940_6622">
<rect width="75" height="75" fill="white"/>
</clipPath>
</defs>
</svg>
