<svg width="290" height="172" viewBox="0 0 290 172" fill="none" xmlns="http://www.w3.org/2000/svg">
<mask id="mask0_644_6962" style="mask-type:alpha" maskUnits="userSpaceOnUse" x="0" y="0" width="290" height="172">
<rect width="290" height="172" rx="5" fill="#43B4E4"/>
</mask>
<g mask="url(#mask0_644_6962)">
<rect width="290" height="172" rx="5" fill="#FFD262"/>
<path d="M135.381 136.967C134.808 137.835 134.946 138.825 134.974 139.771C135.011 140.883 134.568 141.256 133.456 141.256C128.239 141.256 123.045 140.692 117.836 140.64C110.122 140.558 102.46 139.803 94.7578 139.929C93.8983 139.941 93.041 139.84 92.2079 139.629C92.4069 139.166 92.5774 138.687 92.817 138.245C96.8163 130.847 99.7194 123.071 100.958 114.707C102.07 107.304 101.319 100.263 96.995 93.92C95.2612 91.3795 93.1743 89.05 91.6192 86.4202C86.3003 77.4066 86.0567 67.9223 89.5363 58.2351C91.423 52.9981 94.4553 48.248 98.412 44.3312C103.719 39.031 110.069 35.7235 117.536 34.6399C121.673 34.0352 125.823 34.1407 129.98 34.4086C135.202 34.7495 140.358 35.4353 145.348 37.1114C151.686 39.238 156.827 42.9108 160.558 48.5316C163.871 53.5152 166.303 58.9006 167.461 64.7325C168.005 67.5205 168.463 70.5724 167.054 73.3726C166.461 74.4961 166.144 75.7449 166.13 77.0153C166.116 78.2858 166.405 79.5413 166.973 80.6776C168.942 84.9551 171.602 88.8146 174.237 92.6944C175.281 94.2325 174.996 95.6164 173.384 96.6025C172.86 96.906 172.318 97.177 171.76 97.4142C169.657 98.3598 168.597 100.219 169.706 102.203C171.034 104.589 169.771 105.856 168.358 107.252C168.106 107.499 167.879 107.771 167.611 108.006C166.925 108.611 166.831 109.118 167.745 109.63C168.922 110.271 168.914 111.184 168.183 112.162C167.672 112.844 167.018 113.432 166.559 114.155C165.463 115.957 165.52 117.872 166.056 119.873C166.827 122.714 165.508 124.435 162.56 124.52C161.496 124.548 160.428 124.52 159.364 124.475C155.264 124.321 151.175 123.984 147.09 123.574C145.627 123.384 144.14 123.566 142.766 124.103C141.392 124.64 140.176 125.515 139.23 126.646C136.623 129.585 135.677 133.156 135.381 136.967ZM118.937 91.5783C118.989 95.2065 123.334 97.7592 126.306 96.0425C127.662 95.2308 128.437 95.5433 128.917 97.0368C129.286 98.2056 129.692 99.3013 130.926 99.902C134.097 101.444 137.208 100.133 138.174 96.7973C138.58 95.4459 139.457 95.0888 140.695 95.7949C141.507 96.2657 142.287 96.8379 143.339 96.7608C146.753 96.5011 149.08 92.183 147.346 89.2854C146.534 87.9096 146.802 87.2156 148.333 86.7205C149.181 86.4445 150.083 86.3755 150.769 85.5923C151.335 84.9638 151.731 84.2016 151.92 83.3775C152.11 82.5534 152.086 81.6947 151.851 80.8824C151.616 80.0701 151.178 79.331 150.578 78.7349C149.978 78.1389 149.236 77.7055 148.422 77.4756C146.798 76.9886 146.453 76.0633 147.468 74.6916C147.794 74.2688 148.023 73.7796 148.14 73.2587C148.256 72.7377 148.257 72.1976 148.142 71.6763C147.98 70.8996 147.635 70.1726 147.136 69.5552C146.638 68.9377 146 68.4475 145.275 68.1249C144.549 67.8023 143.758 67.6566 142.965 67.6996C142.173 67.7427 141.402 67.9734 140.716 68.3728C139.498 69.0952 138.56 68.7096 138.28 67.346C138.193 66.6425 137.938 65.9702 137.537 65.3858C136.432 64.0101 133.825 63.3567 131.698 63.9817C130.679 64.2779 130.013 63.6651 130.277 62.6343C130.39 62.2981 130.539 61.9756 130.723 61.6725C131.535 60.0491 131.28 58.9128 129.712 57.3706C128.245 55.9313 126.794 55.5823 125.36 56.3236C123.841 57.1109 123.695 57.0541 123.151 55.4713C122.51 53.6045 121.312 52.9714 118.632 53.085C116.906 53.1581 115.713 54.0428 115.384 55.7189C115.124 57.0987 114.515 57.1352 113.504 56.49C112.692 55.9664 111.799 55.4997 110.824 55.7514C108.347 56.4007 106.898 59.7691 108.075 62.0905C108.599 63.1253 108.461 63.6164 107.231 63.8721C105.168 64.3063 104.669 65.256 104.62 68.3038C104.596 70.0042 105.465 71.38 107.056 71.6641C108.648 71.9482 108.538 72.63 107.913 73.7338C107.06 75.2476 107.275 76.5747 108.51 77.8449C110.325 79.7483 111.449 80.0486 113.268 79.1923C113.829 78.9285 114.369 78.3806 115.091 78.8717C115.814 79.3627 115.42 80.0567 115.376 80.6614C115.051 84.7522 115.343 85.2067 119.209 86.7976C120.106 87.1669 120.471 87.796 120.041 88.8511C119.659 89.7927 118.717 90.5313 118.937 91.5783Z" fill="#FDFEFC"/>
<path d="M135.38 136.967C135.676 133.156 136.622 129.585 139.217 126.63C140.163 125.499 141.379 124.624 142.753 124.087C144.127 123.55 145.615 123.368 147.078 123.558C151.162 123.964 155.251 124.305 159.352 124.459C160.415 124.5 161.483 124.532 162.547 124.504C165.495 124.418 166.814 122.714 166.043 119.857C165.507 117.856 165.45 115.941 166.546 114.139C166.989 113.416 167.643 112.828 168.171 112.146C168.901 111.168 168.909 110.255 167.732 109.614C166.818 109.114 166.92 108.607 167.598 107.99C167.866 107.755 168.093 107.483 168.345 107.235C169.758 105.819 171.021 104.573 169.693 102.187C168.585 100.202 169.644 98.3436 171.748 97.398C172.305 97.1608 172.847 96.8897 173.372 96.5863C174.996 95.6001 175.268 94.2163 174.224 92.6781C171.589 88.7984 168.946 84.9389 166.961 80.6614C166.392 79.525 166.103 78.2695 166.117 76.9991C166.131 75.7287 166.448 74.4799 167.042 73.3564C168.459 70.5562 168 67.5043 167.448 64.7162C166.303 58.8844 163.871 53.499 160.545 48.5154C156.814 42.8946 151.674 39.2218 145.336 37.0952C140.346 35.4191 135.185 34.7333 129.968 34.3924C125.81 34.1245 121.66 34.019 117.523 34.6237C110.056 35.7073 103.718 39.0148 98.3993 44.315C94.4426 48.2318 91.4103 52.9819 89.5236 58.2188C86.0439 67.9061 86.2754 77.3904 91.6065 86.404C93.1616 89.0419 95.2607 91.3632 96.9822 93.9038C101.306 100.247 102.058 107.296 100.945 114.691C99.6904 123.039 96.8036 130.814 92.8042 138.229C92.5647 138.671 92.3982 139.15 92.1952 139.613C91.2086 141.443 90.4899 139.56 89.6819 139.386C88.8739 139.211 88.8699 138.675 89.2962 137.896C92.5444 132.02 95.1633 125.867 96.7305 119.341C98.0744 113.761 99.0083 108.116 97.3436 102.398C96.2149 98.5262 94.0954 95.1821 91.6268 92.1019C87.9351 87.6248 85.4823 82.2585 84.5132 76.5382C83.1693 68.4702 84.5132 60.8243 87.9766 53.4828C90.9557 47.0682 95.5991 41.568 101.424 37.5538C107.039 33.6578 113.284 31.3811 120.126 31.101C126.817 30.8291 133.524 31.0645 140.114 32.3185C152.059 34.5912 161.146 40.7477 166.372 51.9812C167.842 55.1467 169.275 58.3325 170.128 61.7212C170.803 64.5305 171.108 67.4162 171.033 70.3046C171.033 71.2583 170.952 72.1917 171.593 73.0602C172.141 73.8069 171.496 74.2208 170.895 74.5902C169.007 75.7346 168.942 78.9366 170.81 80.2069C171.496 80.6695 172.028 81.0429 171.715 82.0128C171.484 82.7555 172.044 83.3724 172.422 83.9487C174.017 86.4121 175.67 88.8552 177.294 91.2902C178.861 93.6116 178.26 97.1626 175.95 98.8103C175.241 99.2992 174.491 99.7256 173.709 100.085C172.832 100.49 172.552 101.132 173.075 101.911C174.468 103.972 173.778 105.778 172.446 107.475C172.165 107.787 171.965 108.163 171.864 108.571C171.762 108.979 171.763 109.405 171.865 109.812C172.271 111.842 171.484 113.599 170.087 115.088C168.962 116.273 168.759 117.499 169.238 119.106C170.639 123.814 167.878 127.572 162.925 127.758C158.161 127.872 153.397 127.601 148.677 126.947C143.846 126.334 141.235 127.848 139.493 132.811C138.662 135.107 138.303 137.548 138.437 139.986C138.539 141.565 137.512 141.443 136.456 141.516C135.238 141.597 135.144 140.92 135.218 140.002C135.287 138.984 135.323 137.957 135.38 136.967Z" fill="#EC8D25"/>
<path d="M175.486 72.7113C174.837 72.7113 174.329 72.6463 174.171 72.0254C174.037 71.4938 174.118 70.9905 174.658 70.7349C175.608 70.2844 176.566 69.8461 177.553 69.4768C177.667 69.4201 177.792 69.3878 177.92 69.3819C178.047 69.3759 178.174 69.3965 178.294 69.4423C178.413 69.488 178.521 69.558 178.611 69.6478C178.702 69.7376 178.773 69.8452 178.82 69.9638C178.945 70.1891 178.981 70.4529 178.922 70.7035C178.863 70.9542 178.712 71.1738 178.499 71.3193C177.573 71.9355 176.556 72.405 175.486 72.7113Z" fill="#EC8D25"/>
<path d="M185.962 87.8C185.922 88.7253 185.288 88.9769 184.521 88.709C183.588 88.3506 182.683 87.9247 181.813 87.4347C181.576 87.3346 181.385 87.1509 181.276 86.9188C181.167 86.6867 181.147 86.4225 181.22 86.1766C181.386 85.5638 181.902 85.4786 182.438 85.5273C183.615 85.645 184.586 86.3106 185.613 86.8178C185.962 86.9924 185.962 87.386 185.962 87.8Z" fill="#EC8D25"/>
<path d="M178.934 84.5127C178.78 85.3244 178.37 85.8925 177.582 85.6044C176.55 85.189 175.549 84.7008 174.586 84.1434C174.386 84.026 174.236 83.8411 174.161 83.6221C174.087 83.4032 174.093 83.1648 174.18 82.9502C174.219 82.7462 174.336 82.5651 174.505 82.4443C174.674 82.3235 174.883 82.2721 175.089 82.3009C176.384 82.5382 177.603 83.0839 178.642 83.8918C178.8 84.0338 178.849 84.326 178.934 84.5127Z" fill="#EC8D25"/>
<path d="M191.806 91.8542C190.734 91.5052 189.711 91.0225 188.761 90.4176C188.578 90.2792 188.453 90.0788 188.409 89.8544C188.365 89.6299 188.405 89.3971 188.521 89.2001C188.623 88.9935 188.794 88.8296 189.005 88.7375C189.217 88.6454 189.453 88.631 189.674 88.6968C190.787 89.0057 191.847 89.4775 192.821 90.097C193.021 90.2199 193.165 90.4153 193.224 90.6421C193.283 90.869 193.252 91.1099 193.138 91.3145C192.951 91.7893 192.5 91.8704 191.806 91.8542Z" fill="#EC8D25"/>
<path d="M189.739 66.2625C189.044 66.3072 188.646 66.1408 188.48 65.6254C188.387 65.4401 188.368 65.2264 188.428 65.028C188.488 64.8295 188.621 64.6614 188.801 64.558C189.783 64.0426 190.782 63.5394 191.805 63.1092C191.919 63.0478 192.044 63.0107 192.173 63.0001C192.301 62.9895 192.431 63.0057 192.553 63.0476C192.675 63.0896 192.787 63.1564 192.882 63.2438C192.977 63.3313 193.053 63.4374 193.105 63.5556C193.176 63.6777 193.22 63.8141 193.233 63.955C193.245 64.096 193.227 64.2379 193.178 64.3709C193.13 64.5038 193.053 64.6245 192.952 64.7241C192.852 64.8238 192.73 64.9001 192.597 64.9476C191.598 65.4224 190.583 65.877 189.739 66.2625Z" fill="#EC8D25"/>
<path d="M199.037 94.9386C197.957 94.7844 196.95 94.1878 195.955 93.5912C195.78 93.4801 195.65 93.3109 195.588 93.1135C195.526 92.9161 195.535 92.703 195.614 92.5117C195.662 92.3104 195.784 92.1348 195.957 92.0209C196.13 91.907 196.34 91.8634 196.544 91.8989C197.856 92.0622 199.089 92.6149 200.084 93.4857C200.227 93.5983 200.329 93.7545 200.374 93.9304C200.42 94.1063 200.406 94.2922 200.336 94.4597C200.101 94.9833 199.601 94.9386 199.037 94.9386Z" fill="#EC8D25"/>
<path d="M200.4 60.8486C200.393 61.0297 200.335 61.2052 200.233 61.3551C200.131 61.505 199.99 61.6234 199.824 61.6968C198.866 62.1392 197.915 62.6099 196.949 63.032C196.847 63.0857 196.736 63.1178 196.621 63.1263C196.506 63.1348 196.391 63.1195 196.282 63.0814C196.173 63.0433 196.074 62.9832 195.989 62.9049C195.905 62.8265 195.838 62.7317 195.792 62.6262C195.581 62.1594 195.52 61.5507 196.056 61.2707C197.075 60.7431 198.066 60.0897 199.255 59.9842C199.889 59.9233 200.331 60.183 200.4 60.8486Z" fill="#EC8D25"/>
<path d="M182.714 69.3712C182.004 69.3712 181.496 69.3712 181.31 68.7341C181.123 68.0969 181.431 67.7885 181.947 67.549C182.861 67.1432 183.762 66.6968 184.675 66.2828C184.773 66.2228 184.882 66.184 184.995 66.1689C185.108 66.1539 185.224 66.1629 185.333 66.1955C185.443 66.2281 185.545 66.2834 185.631 66.3579C185.718 66.4324 185.788 66.5244 185.837 66.6278C186.064 67.0336 186.145 67.618 185.751 67.8778C184.745 68.5596 183.754 69.282 182.714 69.3712Z" fill="#EC8D25"/>
<path d="M204.1 95.0157C204.802 95.3851 205.972 95.381 206 96.6675C206 97.3533 205.558 97.7511 204.92 97.5563C204.023 97.2843 202.776 97.3209 202.744 95.9329C202.728 95.1375 203.292 94.9386 204.1 95.0157Z" fill="#EC8D25"/>
<path d="M203.949 59.8989C203.247 59.8989 202.772 59.7244 202.731 59.002C202.69 58.2797 204.091 57.2732 204.972 57.3219C205.606 57.3584 206.048 57.679 205.979 58.373C205.857 59.6595 204.737 59.6027 203.949 59.8989Z" fill="#EC8D25"/>
<path d="M118.936 91.5783C118.717 90.5312 119.659 89.7926 120.036 88.8551C120.467 87.8 120.101 87.1709 119.204 86.8016C115.338 85.2108 115.046 84.7725 115.371 80.6654C115.416 80.0607 115.858 79.3749 115.087 78.8757C114.315 78.3765 113.824 78.9325 113.264 79.1963C111.445 80.0526 110.32 79.7523 108.505 77.8489C107.287 76.5625 107.056 75.2516 107.908 73.7379C108.534 72.634 108.651 71.9481 107.052 71.6681C105.452 71.3881 104.575 70.0083 104.615 68.3078C104.664 65.26 105.163 64.3104 107.226 63.8761C108.444 63.6204 108.594 63.1294 108.071 62.0945C106.893 59.7731 108.343 56.4128 110.819 55.7554C111.794 55.5038 112.687 55.9705 113.499 56.494C114.51 57.1393 115.123 57.1027 115.379 55.7229C115.7 54.0468 116.894 53.1621 118.627 53.0891C121.307 52.9754 122.505 53.6085 123.146 55.4754C123.69 57.0581 123.837 57.0987 125.355 56.3276C126.787 55.5809 128.238 55.9299 129.708 57.3747C131.275 58.9168 131.543 60.0653 130.719 61.6765C130.535 61.9796 130.385 62.3022 130.272 62.6383C130.008 63.6691 130.678 64.2819 131.693 63.9857C133.821 63.3688 136.427 64.0141 137.532 65.3899C137.933 65.9742 138.188 66.6465 138.275 67.35C138.571 68.7136 139.525 69.0992 140.711 68.3768C141.397 67.9775 142.168 67.7468 142.961 67.7037C143.753 67.6606 144.545 67.8063 145.27 68.1289C145.995 68.4515 146.633 68.9418 147.132 69.5592C147.63 70.1766 147.975 70.9036 148.137 71.6803C148.252 72.2016 148.251 72.7417 148.135 73.2627C148.018 73.7837 147.789 74.2728 147.463 74.6956C146.448 76.0673 146.789 76.9926 148.417 77.4796C149.231 77.7095 149.973 78.1429 150.573 78.739C151.173 79.3351 151.611 80.0741 151.846 80.8864C152.081 81.6987 152.105 82.5574 151.916 83.3815C151.726 84.2056 151.33 84.9678 150.764 85.5963C150.09 86.3796 149.189 86.4486 148.328 86.7245C146.797 87.2196 146.517 87.9136 147.341 89.2894C149.075 92.187 146.749 96.5051 143.334 96.7648C142.282 96.8419 141.515 96.2697 140.691 95.799C139.452 95.0928 138.563 95.4499 138.169 96.8014C137.203 100.137 134.109 101.448 130.922 99.906C129.704 99.3054 129.298 98.2096 128.912 97.0408C128.433 95.5473 127.657 95.2551 126.301 96.0465C123.333 97.7794 118.989 95.2064 118.936 91.5783ZM146.505 72.4635C146.351 71.0796 145.226 70.2436 144.215 69.4969C143.204 68.7502 142.124 69.4604 141.162 70.0772C139.408 71.1973 136.976 70.1787 136.647 68.2185C136.265 65.9418 135.835 65.6212 133.248 65.609C131.328 65.609 130.845 66.0636 130.483 68.2388C130.171 70.1462 127.466 71.2623 125.948 70.0651C125.091 69.3954 124.198 69.0058 123.138 69.3589C122.644 69.4995 122.191 69.7579 121.818 70.1118C121.446 70.4658 121.164 70.9048 120.999 71.3912C120.833 71.8775 120.788 72.3968 120.867 72.9045C120.946 73.4122 121.147 73.8931 121.453 74.306C121.774 74.7459 121.97 75.264 122.021 75.8057C122.071 76.3475 121.975 76.893 121.742 77.3847C121.509 77.8765 121.148 78.2963 120.696 78.6001C120.244 78.9039 119.719 79.0804 119.175 79.1111C118.558 79.172 118.01 79.2572 117.576 79.8091C116.057 81.749 117.17 84.7562 119.569 85.1296C120.211 85.2311 120.909 85.1824 121.246 85.9413C121.916 87.4226 122.671 88.8714 121.161 90.3446C120.835 90.6456 120.634 91.0587 120.6 91.5011C120.565 91.9436 120.699 92.3827 120.974 92.7309C122.468 94.7397 123.646 95.9775 125.997 94.0823C127.495 92.8648 130.276 94.2487 130.52 96.1683C130.763 98.0879 131.36 98.652 133.398 98.6439C135.717 98.6439 136.366 98.1325 136.59 96.148C136.667 95.4865 136.679 94.8534 137.402 94.4638C138.9 93.6521 140.374 93.1164 141.828 94.5043C142.101 94.7729 142.45 94.9521 142.828 95.018C143.205 95.084 143.594 95.0336 143.943 94.8737C146.225 93.9768 146.903 91.7041 145.567 89.6506C144.507 88.0273 145.591 85.503 147.475 85.1864C149.615 84.8415 150.131 84.3017 150.127 82.4349C150.127 79.7604 149.859 79.4276 147.544 79.0786C145.514 78.7742 144.398 76.1039 145.587 74.4278C145.957 73.8353 146.424 73.2914 146.505 72.4635V72.4635ZM119.334 63.2836C120.333 63.17 121.526 63.5109 122.05 64.3834C123.171 66.2381 125.213 66.3273 126.776 67.3013C127.093 67.5002 127.564 67.7275 127.665 67.3013C127.941 66.0838 129.143 65.0327 128.542 63.7462C128.108 62.8209 128.323 62.2203 128.863 61.5629C129.781 60.4549 129.395 59.5337 128.502 58.649C127.609 57.7643 126.756 57.3462 125.566 58.1376C123.788 59.3186 122.03 58.6003 121.612 56.4575C121.327 55.0086 120.471 54.7733 119.216 54.7611C117.961 54.7489 117.243 55.102 116.954 56.4169C116.467 58.6611 114.725 59.3714 112.866 58.1011C111.554 57.2083 110.787 57.8617 109.886 58.7626C108.984 59.6636 108.883 60.4265 109.565 61.433C110.807 63.2633 110.101 65.0165 107.892 65.4548C106.641 65.7024 106.268 66.4288 106.215 67.5854C106.162 68.7421 106.337 69.7445 107.758 70.1056C110.194 70.7266 110.791 72.2444 109.492 74.3182C109.086 74.9878 108.87 75.7346 109.423 76.2784C110.133 76.9764 110.681 78.3075 111.94 77.9017C113.3 77.4309 114.482 76.2784 116.053 77.297C116.134 77.3498 116.366 77.2564 116.459 77.1672C117.149 76.5949 118.323 76.806 118.773 76.1485C119.33 75.3368 118.059 74.7281 118.018 73.888C117.961 72.6421 117.332 71.8589 116.305 71.1486C115.613 70.6254 115.106 69.8965 114.855 69.0666C114.604 68.2368 114.622 67.3488 114.908 66.5303C115.635 64.4727 117.174 63.3079 119.334 63.2836ZM116.459 67.695C116.414 69.0708 117.097 69.8621 118.173 70.4019C119.248 70.9417 119.821 70.2112 120.41 69.4847C120.705 69.1399 121.039 68.8295 121.404 68.5594C122.428 67.7478 122.123 66.863 121.498 66.0554C120.617 64.9232 119.415 64.704 118.099 65.1869C117.579 65.3537 117.132 65.6944 116.833 66.1519C116.534 66.6094 116.402 67.1557 116.459 67.6991V67.695Z" fill="#EC8D25"/>
<path d="M146.505 72.4636C146.424 73.2752 145.957 73.8312 145.547 74.4116C144.357 76.0876 145.49 78.758 147.504 79.0624C149.818 79.4114 150.074 79.7442 150.086 82.4186C150.086 84.2855 149.575 84.8252 147.435 85.1702C145.551 85.4746 144.467 88.011 145.527 89.6344C146.883 91.6879 146.205 93.9606 143.902 94.8574C143.554 95.0174 143.165 95.0678 142.787 95.0018C142.409 94.9359 142.061 94.7567 141.787 94.4881C140.334 93.1002 138.86 93.6156 137.361 94.4476C136.659 94.8534 136.647 95.4703 136.549 96.1318C136.326 98.1163 135.676 98.6155 133.358 98.6276C131.328 98.6276 130.735 98.1325 130.479 96.1521C130.223 94.1716 127.454 92.8648 125.956 94.0661C123.605 95.9532 122.428 94.7235 120.934 92.7146C120.658 92.3665 120.525 91.9273 120.559 91.4849C120.594 91.0425 120.794 90.6294 121.12 90.3283C122.631 88.8552 121.876 87.4063 121.206 85.925C120.869 85.1743 120.17 85.223 119.529 85.1134C117.125 84.74 116.017 81.7328 117.535 79.7929C117.97 79.241 118.518 79.1558 119.135 79.0949C119.675 79.0619 120.197 78.8849 120.645 78.5822C121.094 78.2795 121.453 77.8623 121.685 77.3738C121.918 76.8854 122.015 76.3436 121.967 75.8048C121.919 75.266 121.728 74.7499 121.413 74.3101C121.109 73.8946 120.911 73.4115 120.835 72.9025C120.759 72.3934 120.809 71.8737 120.978 71.3878C121.148 70.902 121.433 70.4646 121.81 70.1133C122.186 69.762 122.642 69.5073 123.138 69.3711C124.198 69.018 125.091 69.4076 125.948 70.0773C127.467 71.2745 130.171 70.1584 130.483 68.251C130.845 66.0757 131.328 65.6131 133.248 65.6212C135.851 65.6212 136.265 65.954 136.647 68.2307C136.976 70.1909 139.408 71.2095 141.162 70.0894C142.124 69.4726 143.192 68.7421 144.215 69.5091C145.238 70.2761 146.351 71.0797 146.505 72.4636ZM133.512 87.7188C136.838 87.7188 139.253 85.3488 139.274 82.0372C139.291 80.5303 138.709 79.0783 137.655 78.0006C136.601 76.9229 135.162 76.3078 133.654 76.2906C132.147 76.2733 130.694 76.8554 129.616 77.9088C128.538 78.9621 127.922 80.4004 127.905 81.9073C127.808 85.223 130.211 87.7067 133.496 87.7188H133.512Z" fill="#FDFEFC"/>
<path d="M119.334 63.2837C117.174 63.304 115.635 64.4687 114.912 66.5304C114.63 67.3481 114.614 68.2341 114.867 69.0614C115.119 69.8888 115.627 70.6152 116.317 71.1366C117.344 71.8549 117.974 72.6301 118.031 73.876C118.071 74.716 119.342 75.3248 118.786 76.1364C118.335 76.7939 117.162 76.5829 116.471 77.1551C116.366 77.2444 116.134 77.3377 116.065 77.285C114.502 76.2704 113.284 77.4148 111.94 77.8937C110.682 78.3239 110.133 76.9846 109.423 76.2704C108.871 75.7266 109.074 74.9798 109.492 74.3102C110.791 72.2364 110.19 70.7186 107.758 70.0976C106.337 69.7365 106.175 68.7868 106.215 67.5774C106.256 66.368 106.642 65.6944 107.892 65.4468C110.101 65.0085 110.807 63.2553 109.565 61.425C108.883 60.4185 109.021 59.6231 109.886 58.7546C110.751 57.8861 111.554 57.2003 112.866 58.0931C114.726 59.3634 116.467 58.6531 116.955 56.4089C117.243 55.094 117.974 54.7369 119.216 54.7531C120.459 54.7693 121.327 55.0006 121.612 56.4495C122.018 58.5923 123.788 59.2903 125.566 58.1296C126.756 57.3382 127.625 57.7603 128.502 58.641C129.379 59.5216 129.781 60.4469 128.863 61.5549C128.323 62.2123 128.108 62.8129 128.543 63.7382C129.143 65.0247 127.942 66.0921 127.666 67.2933C127.564 67.7235 127.093 67.4963 126.776 67.2933C125.213 66.3193 123.171 66.2301 122.05 64.3754C121.526 63.515 120.333 63.1741 119.334 63.2837Z" fill="#FDFEFC"/>
<path d="M116.459 67.699C116.402 67.1584 116.532 66.6147 116.828 66.1583C117.123 65.7019 117.566 65.3606 118.083 65.191C119.399 64.7081 120.601 64.9272 121.482 66.0595C122.107 66.8711 122.411 67.7559 121.388 68.5635C121.029 68.8345 120.7 69.1449 120.41 69.4888C119.821 70.2152 119.277 70.9619 118.173 70.406C117.068 69.85 116.414 69.0748 116.459 67.699Z" fill="#FDFEFC"/>
<path d="M133.496 87.7188C130.211 87.7188 127.812 85.223 127.872 81.9032C127.89 80.3964 128.505 78.9581 129.583 77.9047C130.662 76.8514 132.114 76.2693 133.622 76.2865C135.129 76.3037 136.568 76.9188 137.622 77.9965C138.676 79.0742 139.258 80.5262 139.241 82.0331C139.237 85.3488 136.833 87.7351 133.496 87.7188ZM137.593 81.9519C137.546 80.8839 137.087 79.8756 136.313 79.138C135.538 78.4004 134.509 77.9909 133.439 77.9951C131.409 78.0438 129.493 80.0242 129.513 82.0534C129.514 82.5967 129.624 83.1343 129.835 83.6349C130.046 84.1356 130.354 84.5894 130.742 84.9699C131.13 85.3505 131.59 85.6503 132.095 85.8518C132.599 86.0534 133.139 86.1528 133.683 86.1442C135.814 86.1036 137.613 84.18 137.593 81.9519Z" fill="#EC8D25"/>
<path d="M137.593 81.9521C137.614 84.1801 135.815 86.1037 133.683 86.1362C133.141 86.1432 132.602 86.0426 132.099 85.8403C131.596 85.638 131.137 85.338 130.751 84.9576C130.364 84.5772 130.057 84.1239 129.847 83.6241C129.636 83.1242 129.527 82.5876 129.526 82.0454C129.505 80.0365 131.438 78.0439 133.452 77.9871C134.521 77.9861 135.548 78.3982 136.32 79.1372C137.092 79.8761 137.548 80.8847 137.593 81.9521V81.9521Z" fill="#FDFEFC"/>
</g>
</svg>
