<svg width="65" height="65" viewBox="0 0 65 65" fill="none" xmlns="http://www.w3.org/2000/svg">
<circle cx="32.5" cy="32.5" r="32.5" fill="#E9E9E9"/>
<ellipse cx="32.5003" cy="32.5003" rx="25.473" ry="25.473" fill="white"/>
<!-- <svg width="31" height="33" viewBox="0 0 31 33" fill="none" xmlns="http://www.w3.org/2000/svg"> -->
<path d="M28.4187 20.3588C27.9711 20.3647 27.532 20.2358 27.1587 19.9888L22.1587 16.4988C20.5775 17.8634 18.5864 18.6619 16.5005 18.7679C14.4145 18.8739 12.3528 18.2815 10.6413 17.0842C8.92988 15.887 7.66645 14.1533 7.05087 12.1575C6.4353 10.1616 6.50273 8.01748 7.24248 6.06424C7.98224 4.11099 9.35211 2.46014 11.1354 1.3728C12.9187 0.285464 15.0136 -0.176282 17.0888 0.0606002C19.1639 0.297483 21.1009 1.21947 22.5932 2.68073C24.0856 4.14198 25.0482 6.05909 25.3287 8.12881C25.5649 9.89679 25.298 11.6955 24.5587 13.3188C24.5002 13.4383 24.3981 13.5308 24.2735 13.5773C24.1489 13.6238 24.0112 13.6207 23.8887 13.5688C23.8287 13.5409 23.7748 13.5014 23.7301 13.4525C23.6855 13.4036 23.651 13.3463 23.6287 13.284C23.6063 13.2216 23.5966 13.1555 23.6001 13.0894C23.6035 13.0233 23.62 12.9585 23.6487 12.8988C24.1853 11.7305 24.4462 10.4545 24.4113 9.16938C24.3765 7.88423 24.0467 6.62428 23.4475 5.48682C22.8483 4.34935 21.9958 3.3648 20.9557 2.60917C19.9155 1.85354 18.7157 1.34705 17.4487 1.1288C16.0394 0.885412 14.5913 1.00631 13.2419 1.48002C11.8924 1.95372 10.6865 2.76451 9.73856 3.83539C8.79063 4.90627 8.13217 6.20169 7.82572 7.59863C7.51927 8.99557 7.575 10.4477 7.98762 11.817C8.40023 13.1863 9.15603 14.4275 10.1833 15.4226C11.2105 16.4176 12.475 17.1336 13.8568 17.5025C15.2385 17.8714 16.6917 17.881 18.0782 17.5303C19.4647 17.1796 20.7385 16.4803 21.7787 15.4988C21.8628 15.4209 21.9707 15.3735 22.085 15.3645C22.1993 15.3554 22.3134 15.3851 22.4087 15.4488L27.7087 19.1688C27.9739 19.3518 28.301 19.4219 28.6179 19.3638C28.9348 19.3057 29.2157 19.124 29.3987 18.8588C29.5817 18.5936 29.6519 18.2665 29.5937 17.9496C29.5356 17.6327 29.3539 17.3518 29.0887 17.1688L25.3687 14.5688C25.2616 14.4906 25.1892 14.3738 25.1668 14.2431C25.1444 14.1125 25.1738 13.9782 25.2487 13.8688C25.2866 13.8147 25.3348 13.7687 25.3906 13.7334C25.4464 13.698 25.5086 13.6741 25.5737 13.6629C25.6388 13.6518 25.7054 13.6536 25.7698 13.6684C25.8342 13.6831 25.895 13.7104 25.9487 13.7488L29.6687 16.3488C29.9052 16.5141 30.1066 16.7248 30.2611 16.9686C30.4156 17.2123 30.5201 17.4843 30.5687 17.7688C30.6675 18.3447 30.5384 18.9364 30.2087 19.4188C30.0066 19.7066 29.7388 19.942 29.4275 20.1055C29.1162 20.269 28.7703 20.3558 28.4187 20.3588Z" fill="#333333"/>
<path d="M9.87877 16.2991C9.76008 16.3003 9.64498 16.2584 9.55486 16.1812C9.46474 16.1039 9.40572 15.9966 9.38877 15.8791C9.36539 15.7492 9.39432 15.6153 9.46926 15.5067C9.54419 15.398 9.65904 15.3234 9.78877 15.2991C10.0882 15.2347 10.3824 15.1478 10.6688 15.0391C10.9588 14.9391 11.6688 13.5991 11.9388 11.7991C12.1488 10.6191 11.8488 3.8791 11.7088 1.3791C11.7061 1.31342 11.7164 1.24787 11.7391 1.18618C11.7617 1.12448 11.7964 1.06787 11.8409 1.01957C11.8855 0.971276 11.9392 0.932243 11.9989 0.904707C12.0586 0.877171 12.1231 0.861672 12.1888 0.859098C12.2542 0.853612 12.3202 0.861629 12.3824 0.882654C12.4447 0.903678 12.5019 0.937261 12.5507 0.981323C12.5994 1.02538 12.6386 1.07899 12.6658 1.13881C12.693 1.19863 12.7076 1.2634 12.7088 1.3291C12.7088 1.6991 13.1988 10.4391 12.9288 11.9691C12.8588 12.3391 12.2588 15.5591 10.9888 15.9691C10.661 16.0869 10.3272 16.187 9.98877 16.2691L9.87877 16.2991Z" fill="#333333"/>
<path d="M7.16869 10.3888C7.10078 10.3891 7.03358 10.375 6.97152 10.3474C6.90946 10.3198 6.85397 10.2794 6.80869 10.2288C6.76213 10.1832 6.72514 10.1287 6.69988 10.0686C6.67463 10.0085 6.66162 9.94398 6.66162 9.87879C6.66162 9.81361 6.67463 9.74907 6.69988 9.68897C6.72514 9.62887 6.76213 9.57442 6.80869 9.52879C7.28976 9.06483 7.84381 8.68307 8.44869 8.39879C9.10223 8.06799 9.85857 8.00347 10.5587 8.21879C11.1487 8.41879 12.5587 8.74879 12.6187 8.74879C12.7513 8.77797 12.8669 8.85863 12.94 8.97302C13.0132 9.08742 13.0379 9.22619 13.0087 9.35879C12.9795 9.4914 12.8989 9.60699 12.7845 9.68013C12.6701 9.75327 12.5313 9.77797 12.3987 9.74879C12.3287 9.74879 10.8787 9.40879 10.2387 9.18879C10.0034 9.11885 9.75638 9.09698 9.51243 9.12446C9.26848 9.15195 9.03255 9.22824 8.81869 9.34879C8.34085 9.5922 7.89982 9.90193 7.50869 10.2688C7.41473 10.3506 7.29316 10.3935 7.16869 10.3888Z" fill="#333333"/>
<path d="M11.899 14.388C11.8037 14.3848 11.7108 14.3573 11.629 14.308C10.8743 13.8527 10.1525 13.3447 9.46905 12.788C9.32876 12.6051 9.22715 12.3954 9.17042 12.172C9.11369 11.9485 9.10302 11.7158 9.13905 11.488C9.14758 11.4224 9.16897 11.359 9.20198 11.3016C9.235 11.2442 9.27899 11.1939 9.33146 11.1535C9.38392 11.1131 9.44383 11.0835 9.50776 11.0662C9.57169 11.049 9.63839 11.0445 9.70405 11.053C9.76971 11.0616 9.83305 11.083 9.89044 11.116C9.94784 11.149 9.99817 11.193 10.0386 11.2454C10.079 11.2979 10.1086 11.3578 10.1259 11.4217C10.1431 11.4857 10.1476 11.5524 10.139 11.618C10.1124 11.7857 10.1404 11.9575 10.219 12.108C10.8569 12.6024 11.5248 13.0566 12.219 13.468C12.3303 13.5398 12.4086 13.6527 12.4367 13.782C12.4648 13.9114 12.4405 14.0466 12.369 14.158C12.3214 14.2377 12.2516 14.3019 12.1681 14.3427C12.0847 14.3835 11.9912 14.3993 11.899 14.388Z" fill="#333333"/>
<path d="M10.5688 6.49938H10.5088C9.79885 6.49938 8.92885 6.08938 8.75885 5.49938C8.66885 5.22938 8.56885 4.88938 8.56885 4.88938L9.56885 4.60938L9.74885 5.19938C9.99397 5.35791 10.2772 5.4477 10.5688 5.45937C11.1671 5.42122 11.7619 5.34102 12.3488 5.21938C12.4145 5.20624 12.4821 5.20617 12.5478 5.21917C12.6135 5.23216 12.676 5.25797 12.7317 5.29511C12.7874 5.33225 12.8353 5.38001 12.8725 5.43565C12.9098 5.49128 12.9357 5.55371 12.9488 5.61938C12.962 5.68504 12.9621 5.75264 12.9491 5.81833C12.9361 5.88402 12.9103 5.9465 12.8731 6.00222C12.836 6.05793 12.7882 6.10579 12.7326 6.14305C12.6769 6.18031 12.6145 6.20624 12.5488 6.21938C11.8963 6.35958 11.2347 6.45315 10.5688 6.49938Z" fill="#333333"/>
<path d="M16.5788 16.2591C16.2383 16.2596 15.9001 16.2021 15.5788 16.0891C15.0747 15.8731 14.6394 15.523 14.3203 15.077C14.0012 14.6309 13.8104 14.1059 13.7688 13.5591C13.3752 11.0288 13.3583 8.45423 13.7188 5.91906C13.7304 5.83882 13.7609 5.76249 13.8079 5.6964C13.8548 5.63032 13.9169 5.57638 13.9888 5.53906C14.0609 5.49967 14.1417 5.47903 14.2238 5.47903C14.306 5.47903 14.3868 5.49967 14.4588 5.53906C14.6971 5.6782 14.9772 5.72784 15.2488 5.67906C15.4847 5.62114 15.6889 5.47422 15.8188 5.26906C15.8859 5.1559 15.9933 5.07236 16.1195 5.03525C16.2456 4.99814 16.3812 5.01022 16.4988 5.06906C16.613 5.13258 16.6984 5.2375 16.7375 5.36216C16.7766 5.48683 16.7663 5.62173 16.7088 5.73906C16.4455 6.17929 16.023 6.50149 15.5288 6.63906C15.2301 6.71399 14.9175 6.71399 14.6188 6.63906C14.3629 8.87152 14.4066 11.1282 14.7488 13.3491C14.7591 13.7213 14.8732 14.0833 15.0781 14.3943C15.2831 14.7052 15.5708 14.9528 15.9088 15.1091C17.1388 15.5491 19.0388 14.5491 19.7888 13.9191C20.9088 12.9191 21.7888 10.0791 22.1888 7.70906C22.4888 5.60906 21.1888 2.61906 21.1888 2.58906C21.1479 2.48132 21.1455 2.36275 21.1819 2.25342C21.2184 2.14408 21.2914 2.0507 21.3888 1.98906C21.5095 1.93495 21.6468 1.93088 21.7705 1.97773C21.8942 2.02459 21.9943 2.11856 22.0488 2.23906C22.1088 2.37906 23.4988 5.52906 23.1488 7.91906C22.8788 9.82906 21.9888 13.4091 20.4188 14.7391C19.3326 15.6404 17.9877 16.1728 16.5788 16.2591Z" fill="#333333"/>
<path d="M13.9886 4.87826C13.8621 4.87836 13.7404 4.82949 13.649 4.74188C13.5577 4.65427 13.5038 4.53472 13.4986 4.40826C13.3909 3.0977 13.4649 1.77853 13.7186 0.488259C13.7735 0.36762 13.8724 0.272492 13.9951 0.222309C14.1177 0.172127 14.2549 0.170678 14.3786 0.218259C14.4992 0.273017 14.5937 0.372489 14.6422 0.495651C14.6907 0.618814 14.6894 0.756016 14.6386 0.878259C14.4463 2.02769 14.3926 3.19603 14.4786 4.35826C14.4827 4.42343 14.4737 4.48876 14.4521 4.5504C14.4306 4.61204 14.3969 4.66875 14.3531 4.71719C14.3093 4.76564 14.2563 4.80484 14.1971 4.8325C14.138 4.86016 14.0739 4.87572 14.0086 4.87826H13.9886Z" fill="#333333"/>
<path d="M15.7989 3.0589C15.7088 3.06024 15.62 3.03668 15.5424 2.99081C15.4647 2.94494 15.4013 2.87853 15.3589 2.7989C15.2976 2.68174 15.2842 2.54534 15.3215 2.41848C15.3588 2.29161 15.444 2.1842 15.5589 2.1189C16.4606 1.63472 17.3202 1.07611 18.1289 0.4489C18.2271 0.358727 18.357 0.311229 18.4902 0.316855C18.6233 0.322481 18.7488 0.38077 18.8389 0.4789C18.9291 0.577031 18.9766 0.706963 18.971 0.840114C18.9654 0.973265 18.9071 1.09873 18.8089 1.1889C17.9402 1.86898 17.0133 2.4713 16.0389 2.9889C15.9657 3.03104 15.8834 3.05504 15.7989 3.0589Z" fill="#333333"/>
<path d="M18.1287 3.98818H18.0487C17.984 3.9785 17.9219 3.95595 17.866 3.92186C17.8101 3.88777 17.7617 3.84283 17.7235 3.7897C17.6852 3.73657 17.6581 3.67632 17.6435 3.61251C17.629 3.5487 17.6273 3.48263 17.6387 3.41818C17.6295 3.20835 17.5959 3.00029 17.5387 2.79818C17.5002 2.6534 17.4701 2.50648 17.4487 2.35818C17.4011 1.78396 17.5377 1.20949 17.8387 0.718182C17.8757 0.664435 17.923 0.61861 17.9779 0.583395C18.0329 0.548179 18.0942 0.524283 18.1585 0.513106C18.2228 0.501929 18.2886 0.503697 18.3522 0.518306C18.4158 0.532915 18.4758 0.560071 18.5287 0.598182C18.5833 0.634368 18.63 0.681112 18.6662 0.735654C18.7023 0.790197 18.7272 0.851433 18.7393 0.915749C18.7515 0.980064 18.7506 1.04616 18.7367 1.11012C18.7229 1.17409 18.6964 1.23463 18.6587 1.28818C18.4866 1.59163 18.4132 1.94113 18.4487 2.28818C18.4579 2.39333 18.478 2.49723 18.5087 2.59818C18.6087 2.92148 18.646 3.26089 18.6187 3.59818C18.5937 3.70927 18.5315 3.80848 18.4424 3.8794C18.3533 3.95032 18.2426 3.98869 18.1287 3.98818Z" fill="#333333"/>
<path d="M18.2486 6.20903C18.183 6.21691 18.1164 6.21178 18.0527 6.19394C17.9891 6.17609 17.9295 6.14587 17.8775 6.10501C17.8255 6.06416 17.7821 6.01346 17.7497 5.95581C17.7173 5.89816 17.6965 5.8347 17.6886 5.76904C17.6808 5.70337 17.6859 5.6368 17.7037 5.57313C17.7216 5.50945 17.7518 5.44991 17.7927 5.39791C17.8335 5.34591 17.8842 5.30246 17.9419 5.27006C17.9995 5.23765 18.063 5.21691 18.1286 5.20903C18.3957 5.14017 18.6427 5.00916 18.8495 4.82668C19.0563 4.64421 19.2171 4.41544 19.3186 4.15903C19.3507 4.01052 19.3741 3.86027 19.3886 3.70903C19.3872 3.4381 19.4395 3.16957 19.5425 2.91897C19.6455 2.66837 19.7971 2.44067 19.9886 2.24903C20.5286 1.83903 21.3186 2.12903 21.7486 2.24903H21.8486C21.9813 2.24903 22.1084 2.30171 22.2022 2.39548C22.296 2.48925 22.3486 2.61643 22.3486 2.74903C22.3486 2.88164 22.296 3.00882 22.2022 3.10259C22.1084 3.19636 21.9813 3.24903 21.8486 3.24903C21.6998 3.25922 21.551 3.22807 21.4186 3.15903C20.8386 2.94903 20.6586 2.95903 20.5986 2.98903C20.485 3.23765 20.4205 3.50591 20.4086 3.77903C20.3889 3.99163 20.3521 4.20231 20.2986 4.40903C20.1469 4.82933 19.8943 5.20596 19.563 5.50585C19.2318 5.80574 18.8319 6.01973 18.3986 6.12903L18.2486 6.20903Z" fill="#333333"/>
<path d="M22.5691 8.88805C22.5042 8.89076 22.4394 8.87968 22.3791 8.85555C22.3188 8.83142 22.2642 8.79478 22.2191 8.74805C22.2191 8.74805 21.8691 8.40805 20.9891 7.56805C20.9153 7.48607 20.8238 7.42188 20.7216 7.38031C20.6194 7.33874 20.5092 7.32088 20.3991 7.32805C19.902 7.4464 19.469 7.75055 19.1891 8.17805C19.1066 8.28108 18.9867 8.3473 18.8556 8.36229C18.7244 8.37728 18.5927 8.33981 18.4891 8.25805C18.3845 8.17701 18.3164 8.05784 18.2995 7.92664C18.2826 7.79544 18.3184 7.66291 18.3991 7.55805C18.8546 6.90913 19.5485 6.46691 20.3291 6.32805C20.5751 6.31169 20.8218 6.34781 21.0528 6.43401C21.2838 6.52021 21.4939 6.65452 21.6691 6.82805C22.6091 7.69805 22.9491 8.03805 22.9491 8.03805C22.9959 8.08454 23.0331 8.13984 23.0585 8.20077C23.0839 8.26169 23.097 8.32705 23.097 8.39305C23.097 8.45906 23.0839 8.52441 23.0585 8.58534C23.0331 8.64627 22.9959 8.70157 22.9491 8.74805C22.8983 8.79562 22.8385 8.83252 22.7733 8.85657C22.708 8.88061 22.6386 8.89132 22.5691 8.88805Z" fill="#333333"/>
<path d="M19.6088 11.7285C19.5173 11.7305 19.4271 11.7062 19.3488 11.6585C18.9864 11.3718 18.6666 11.0351 18.3988 10.6585C18.0721 10.2451 17.7215 9.85107 17.3488 9.4785C17.1214 9.22726 16.8306 9.04178 16.5069 8.9415C16.1832 8.84122 15.8385 8.82982 15.5088 8.9085C15.0484 9.00372 14.6168 9.20582 14.2488 9.4985C14.1467 9.58337 14.0151 9.6242 13.8829 9.61201C13.7507 9.59982 13.6287 9.53561 13.5438 9.4335C13.459 9.33139 13.4181 9.19975 13.4303 9.06754C13.4425 8.93533 13.5067 8.81337 13.6088 8.7285C14.1139 8.32638 14.7066 8.04888 15.3388 7.9185C15.8223 7.8162 16.3239 7.83872 16.7963 7.98393C17.2687 8.12914 17.6963 8.39227 18.0388 8.7485C18.4407 9.13821 18.818 9.55233 19.1688 9.9885C19.3839 10.2706 19.6178 10.5379 19.8688 10.7885C19.9588 10.8465 20.0277 10.9318 20.0655 11.0319C20.1033 11.132 20.108 11.2416 20.0789 11.3446C20.0498 11.4476 19.9884 11.5385 19.9038 11.604C19.8192 11.6695 19.7158 11.7061 19.6088 11.7085V11.7285Z" fill="#333333"/>
<path d="M18.989 14.4782C18.6222 14.5297 18.2484 14.491 17.8999 14.3656C17.5515 14.2401 17.2388 14.0316 16.989 13.7582C16.609 13.1982 16.669 12.4082 17.179 11.3382C17.2354 11.2195 17.3362 11.1278 17.4598 11.0828C17.5833 11.0379 17.7195 11.0434 17.839 11.0982C17.899 11.1261 17.9529 11.1657 17.9976 11.2146C18.0422 11.2634 18.0767 11.3207 18.099 11.3831C18.1214 11.4454 18.1311 11.5115 18.1276 11.5776C18.1242 11.6438 18.1077 11.7085 18.079 11.7682C17.619 12.7682 17.739 13.0782 17.809 13.1882C18.069 13.5682 19.229 13.4782 19.999 13.4182H20.489C20.5547 13.4143 20.6204 13.4233 20.6826 13.4448C20.7448 13.4663 20.8021 13.4998 20.8513 13.5434C20.9005 13.5871 20.9407 13.64 20.9694 13.6992C20.9982 13.7583 21.0151 13.8226 21.019 13.8882C21.0229 13.9539 21.0139 14.0197 20.9924 14.0818C20.9709 14.144 20.9374 14.2013 20.8938 14.2506C20.8501 14.2998 20.7972 14.3399 20.738 14.3687C20.6789 14.3974 20.6146 14.4143 20.549 14.4182H20.079C19.719 14.4482 19.339 14.4782 18.989 14.4782Z" fill="#333333"/>
<path d="M14.349 14.4793C14.2503 14.4773 14.1538 14.4497 14.069 14.3993C13.9587 14.3241 13.8823 14.2087 13.8561 14.0779C13.8299 13.947 13.8561 13.8111 13.929 13.6993C14.4069 12.9706 14.9976 12.3225 15.679 11.7793C15.7904 11.7064 15.9262 11.6807 16.0565 11.7078C16.1869 11.735 16.3011 11.8129 16.374 11.9243C16.4469 12.0357 16.4726 12.1715 16.4454 12.3018C16.4182 12.4322 16.3404 12.5464 16.229 12.6193C15.6556 13.0821 15.1623 13.6362 14.769 14.2593C14.7214 14.3266 14.6585 14.3817 14.5855 14.4199C14.5125 14.4582 14.4314 14.4785 14.349 14.4793Z" fill="#333333"/>
<path d="M8.6787 19.5489C6.64917 19.4764 4.72696 18.6192 3.31682 17.1577C1.90669 15.6963 1.11865 13.7447 1.11865 11.7139C1.11865 9.68308 1.90669 7.73149 3.31682 6.27007C4.72696 4.80864 6.64917 3.95142 8.6787 3.87891C8.81131 3.87891 8.93848 3.93158 9.03225 4.02535C9.12602 4.11912 9.1787 4.2463 9.1787 4.37891C9.1787 4.51151 9.12602 4.63869 9.03225 4.73246C8.93848 4.82623 8.81131 4.87891 8.6787 4.87891C7.60196 4.87641 6.75267 5.11224 5.79159 5.59772C4.83051 6.0832 3.99763 6.78872 3.3607 7.65687C2.72377 8.52501 2.30079 9.53127 2.12617 10.5938C1.95156 11.6562 2.03025 12.7449 2.35583 13.7713C2.68141 14.7976 3.2447 15.7326 3.99985 16.5001C4.755 17.2676 5.68068 17.8461 6.70158 18.1883C7.72248 18.5305 8.80976 18.6269 9.87494 18.4696C10.9401 18.3123 11.7403 17.9216 12.6187 17.2989C12.6724 17.2605 12.7332 17.2332 12.7976 17.2185C12.862 17.2037 12.9286 17.2019 12.9937 17.213C13.0588 17.2242 13.121 17.2481 13.1768 17.2835C13.2326 17.3188 13.2808 17.3648 13.3187 17.4189C13.3936 17.5283 13.423 17.6626 13.4006 17.7932C13.3782 17.9239 13.3058 18.0407 13.1987 18.1189C11.8754 19.05 10.2967 19.5495 8.6787 19.5489Z" fill="#333333"/>
<path d="M11.0589 32.8795H7.05886C6.07003 32.8721 5.10417 32.5806 4.27624 32.0399C3.44831 31.4992 2.79319 30.7319 2.38886 29.8295L0.138862 24.7695C0.0472466 24.5563 0 24.3266 0 24.0945C0 23.8624 0.0472466 23.6328 0.138862 23.4195C0.231143 23.2031 0.367841 23.0085 0.540104 22.8483C0.712367 22.6881 0.916356 22.5659 1.13886 22.4895C6.29308 20.5347 11.9846 20.5347 17.1389 22.4895C17.3603 22.5652 17.5637 22.6861 17.736 22.8446C17.9083 23.003 18.0458 23.1955 18.1398 23.4098C18.2338 23.6242 18.2823 23.8557 18.2821 24.0898C18.2819 24.3238 18.2332 24.5553 18.1389 24.7695L15.8889 29.8295C15.4747 30.7578 14.795 31.5428 13.9355 32.0856C13.076 32.6283 12.0751 32.9046 11.0589 32.8795ZM9.07886 21.9895C6.46862 21.9918 3.88031 22.4661 1.43886 23.3895C1.34855 23.4233 1.26619 23.4753 1.19694 23.5424C1.12769 23.6095 1.07304 23.6902 1.03642 23.7794C0.999808 23.8685 0.982013 23.9643 0.984153 24.0607C0.986293 24.1571 1.00832 24.252 1.04886 24.3395L3.29886 29.3895C3.62713 30.1227 4.16064 30.7451 4.83496 31.1816C5.50929 31.6182 6.29557 31.8501 7.09886 31.8495H11.0989C11.9022 31.8501 12.6884 31.6182 13.3628 31.1816C14.0371 30.7451 14.5706 30.1227 14.8989 29.3895L17.1489 24.3395C17.1894 24.252 17.2114 24.1571 17.2136 24.0607C17.2157 23.9643 17.1979 23.8685 17.1613 23.7794C17.1247 23.6902 17.07 23.6095 17.0008 23.5424C16.9315 23.4753 16.8492 23.4233 16.7589 23.3895C14.3051 22.4605 11.7026 21.9861 9.07886 21.9895Z" fill="#333333"/>
<!-- </svg> -->

</svg>
