<svg width="100" height="100" viewBox="0 0 100 100" fill="none" xmlns="http://www.w3.org/2000/svg">
<circle cx="50" cy="50" r="50" fill="#F2F2F2"/>
<ellipse cx="50.0002" cy="49.9999" rx="39.1892" ry="39.1892" fill="white"/>
<path d="M34.9647 48.1859L33.5506 48.2501C33.0557 48.2726 32.781 47.6829 33.1192 47.331L34.0641 46.2962C34.2666 46.0745 34.2506 45.721 34.0288 45.5185L32.7908 44.388C32.5691 44.1855 32.2156 44.2016 32.0131 44.4233L31.0682 45.4581C30.7307 45.8276 30.1362 45.6066 30.1137 45.1117L30.0495 43.6977C30.0359 43.3972 29.7772 43.161 29.4767 43.1746L27.7976 43.2508C27.4971 43.2645 27.2609 43.5232 27.2745 43.8237L27.3387 45.2377C27.3612 45.7326 26.7714 46.0074 26.4195 45.6691L25.3848 44.7242C25.163 44.5217 24.8095 44.5378 24.6071 44.7595L23.4766 45.9975C23.2741 46.2193 23.2901 46.5728 23.5119 46.7752L24.5466 47.7201C24.9162 48.0576 24.6952 48.6521 24.2003 48.6746L22.7863 48.7388C22.4858 48.7524 22.2495 49.0111 22.2632 49.3116L22.3394 50.9908C22.3531 51.2913 22.6117 51.5275 22.9122 51.5138L24.3263 51.4496C24.8212 51.4272 25.0959 52.0169 24.7577 52.3688L23.8128 53.4036C23.6103 53.6253 23.6263 53.9788 23.8481 54.1813L25.0861 55.3118C25.3078 55.5142 25.6613 55.4982 25.8638 55.2765L26.8087 54.2417C27.1462 53.8721 27.7407 54.0931 27.7632 54.588L27.8274 56.0021C27.841 56.3026 28.0997 56.5388 28.4002 56.5251L30.0793 56.4489C30.3798 56.4353 30.616 56.1766 30.6024 55.8761L30.5382 54.4621C30.5157 53.9671 31.1055 53.6924 31.4574 54.0307L32.4921 54.9756C32.7139 55.178 33.0674 55.162 33.2698 54.9403L34.4003 53.7022C34.6028 53.4805 34.5868 53.127 34.365 52.9245L33.3311 51.9973C32.9615 51.6598 33.1825 51.0653 33.6774 51.0428L35.0914 50.9787C35.3919 50.965 35.6282 50.7063 35.6145 50.4058L35.5375 48.709C35.5238 48.4085 35.2651 48.1723 34.9647 48.1859Z" stroke="#BDBDBD" stroke-miterlimit="10"/>
<path d="M29.0306 52.0686C30.2509 52.0132 31.1952 50.9791 31.1398 49.7588C31.0844 48.5386 30.0503 47.5943 28.83 47.6497C27.6098 47.7051 26.6655 48.7392 26.7209 49.9594C26.7763 51.1797 27.8104 52.124 29.0306 52.0686Z" stroke="#BDBDBD" stroke-miterlimit="10"/>
<path d="M68.4259 77.2946H41.3397C39.3503 77.2946 37.769 75.7133 37.769 73.7239V36.7928C37.769 34.8035 39.3503 33.2222 41.3397 33.2222H61.0295C61.9477 33.2222 63.1209 33.3752 63.784 34.0383C63.784 34.0383 72.2006 41.0777 71.9966 44.4443V73.7749C71.9966 75.7133 70.4153 77.2946 68.4259 77.2946Z" stroke="#BDBDBD" stroke-width="1.5" stroke-miterlimit="10" stroke-linecap="round"/>
<path d="M61.0293 33.2222V39.0883C61.0293 41.7918 63.1207 44.0362 65.6712 44.0362H71.9964" stroke="#BDBDBD" stroke-width="1.5" stroke-miterlimit="10" stroke-linecap="round"/>
<path d="M40.7783 37.7621H57.8666" stroke="#BDBDBD" stroke-width="1.5" stroke-miterlimit="10" stroke-linecap="round"/>
<path d="M40.7783 41.8429H57.8666" stroke="#BDBDBD" stroke-width="1.5" stroke-miterlimit="10" stroke-linecap="round"/>
<path d="M40.7783 45.9745H61.9984" stroke="#BDBDBD" stroke-width="1.5" stroke-miterlimit="10" stroke-linecap="round"/>
<path d="M40.7783 50.0553H69.2417" stroke="#BDBDBD" stroke-width="1.5" stroke-miterlimit="10" stroke-linecap="round"/>
<path d="M40.7783 53.9832H69.2417" stroke="#BDBDBD" stroke-width="1.5" stroke-miterlimit="10" stroke-linecap="round"/>
<path d="M40.7783 57.8088H69.2417" stroke="#BDBDBD" stroke-width="1.5" stroke-miterlimit="10" stroke-linecap="round"/>
<path d="M40.625 61.4816H69.1394" stroke="#BDBDBD" stroke-width="1.5" stroke-miterlimit="10" stroke-linecap="round"/>
<path d="M40.625 65.4093H69.1394" stroke="#BDBDBD" stroke-width="1.5" stroke-miterlimit="10" stroke-linecap="round"/>
<path d="M40.625 69.235H69.1394" stroke="#BDBDBD" stroke-width="1.5" stroke-miterlimit="10" stroke-linecap="round"/>
<path d="M40.625 73.0608H69.1394" stroke="#BDBDBD" stroke-width="1.5" stroke-miterlimit="10" stroke-linecap="round"/>
<path d="M44.5116 31.0757V30.0709C44.5116 29.6495 44.1551 29.293 43.7337 29.293H41.7889C41.1082 29.293 40.7841 28.4826 41.2379 27.9964L42.6317 26.6027C42.9234 26.3109 42.9234 25.8248 42.6317 25.533L40.9786 23.88C40.6869 23.5882 40.2007 23.5882 39.909 23.88L38.5152 25.2737C38.029 25.7599 37.2187 25.4034 37.2187 24.7227V22.7779C37.2187 22.3565 36.8621 22 36.4408 22H34.107C33.6856 22 33.3291 22.3565 33.3291 22.7779V24.7227C33.3291 25.4034 32.5188 25.7275 32.0326 25.2737L30.6388 23.88C30.3471 23.5882 29.8609 23.5882 29.5692 23.88L27.9161 25.533C27.6244 25.8248 27.6244 26.3109 27.9161 26.6027L29.3099 27.9964C29.7961 28.4826 29.4395 29.293 28.7588 29.293H26.814C26.3927 29.293 26.0361 29.6495 26.0361 30.0709V32.4046C26.0361 32.826 26.3927 33.1825 26.814 33.1825H28.7588C29.4395 33.1825 29.7636 33.9929 29.3099 34.4791L27.9161 35.8728C27.6244 36.1645 27.6244 36.6507 27.9161 36.9425L29.5692 38.5955C29.8609 38.8873 30.3471 38.8873 30.6388 38.5955L32.0326 37.2018C32.5188 36.7156 33.3291 37.0721 33.3291 37.7528V39.6976C33.3291 40.119 33.6856 40.4755 34.107 40.4755H35.2739" stroke="#BDBDBD" stroke-miterlimit="10" stroke-linecap="round"/>
<path d="M35.3066 34.2522C36.9893 34.2522 38.3534 32.8881 38.3534 31.2054C38.3534 29.5227 36.9893 28.1586 35.3066 28.1586C33.6239 28.1586 32.2598 29.5227 32.2598 31.2054C32.2598 32.8881 33.6239 34.2522 35.3066 34.2522Z" stroke="#BDBDBD" stroke-miterlimit="10"/>
</svg>
