<svg width="290" height="172" viewBox="0 0 290 172" fill="none" xmlns="http://www.w3.org/2000/svg">
<mask id="mask0_644_7259" style="mask-type:alpha" maskUnits="userSpaceOnUse" x="0" y="0" width="290" height="172">
<rect width="290" height="172" rx="5" fill="#43B4E4"/>
</mask>
<g mask="url(#mask0_644_7259)">
<rect width="290" height="172" rx="5" fill="#43B4E4"/>
<path opacity="0.4" d="M76.4954 131.614C74.9438 130.953 75.4157 128.64 77.1021 128.64H177.69C177.898 128.64 178.104 128.682 178.296 128.764L215.109 144.436C216.66 145.097 216.188 147.41 214.502 147.41H113.914C113.706 147.41 113.499 147.368 113.308 147.287L76.4954 131.614Z" fill="#0B3C61"/>
<path d="M71.9648 123.249C70.3922 122.606 70.8518 120.266 72.5507 120.266H179.316C179.517 120.266 179.716 120.305 179.902 120.381L219.035 136.375C220.608 137.018 220.148 139.358 218.449 139.358H111.684C111.483 139.358 111.284 139.318 111.098 139.242L71.9648 123.249Z" fill="white"/>
<path fill-rule="evenodd" clip-rule="evenodd" d="M179.316 121.815H72.5507L111.684 137.809L218.449 137.809L179.316 121.815ZM72.5507 120.266C70.8518 120.266 70.3922 122.606 71.9648 123.249L111.098 139.242C111.284 139.318 111.483 139.358 111.684 139.358H218.449C220.148 139.358 220.608 137.018 219.035 136.375L179.902 120.381C179.716 120.305 179.517 120.266 179.316 120.266H72.5507Z" fill="#194715"/>
<path d="M71.9648 118.374C70.3922 117.731 70.8518 115.392 72.5507 115.392H179.316C179.517 115.392 179.716 115.431 179.902 115.507L219.035 131.5C220.608 132.143 220.148 134.483 218.449 134.483H111.684C111.483 134.483 111.284 134.444 111.098 134.368L71.9648 118.374Z" fill="white"/>
<path fill-rule="evenodd" clip-rule="evenodd" d="M179.316 116.94H72.5507L111.684 132.934L218.449 132.934L179.316 116.94ZM72.5507 115.392C70.8518 115.392 70.3922 117.731 71.9648 118.374L111.098 134.368C111.284 134.444 111.483 134.483 111.684 134.483H218.449C220.148 134.483 220.608 132.143 219.035 131.5L179.902 115.507C179.716 115.431 179.517 115.392 179.316 115.392H72.5507Z" fill="#0B3C61"/>
<path d="M71.9648 113.5C70.3922 112.858 70.8518 110.518 72.5507 110.518H179.316C179.517 110.518 179.716 110.557 179.902 110.633L219.035 126.626C220.608 127.269 220.148 129.609 218.449 129.609H111.684C111.483 129.609 111.284 129.57 111.098 129.494L71.9648 113.5Z" fill="white"/>
<path fill-rule="evenodd" clip-rule="evenodd" d="M179.316 112.067H72.5507L111.684 128.06L218.449 128.06L179.316 112.067ZM72.5507 110.518C70.8518 110.518 70.3922 112.858 71.9648 113.5L111.098 129.494C111.284 129.57 111.483 129.609 111.684 129.609H218.449C220.148 129.609 220.608 127.269 219.035 126.626L179.902 110.633C179.716 110.557 179.517 110.518 179.316 110.518H72.5507Z" fill="#0B3C61"/>
<path d="M71.9648 108.625C70.3922 107.983 70.8518 105.643 72.5507 105.643H179.316C179.517 105.643 179.716 105.682 179.902 105.758L219.035 121.751C220.608 122.394 220.148 124.734 218.449 124.734H111.684C111.483 124.734 111.284 124.695 111.098 124.619L71.9648 108.625Z" fill="white"/>
<path fill-rule="evenodd" clip-rule="evenodd" d="M179.316 107.192H72.5507L111.684 123.185L218.449 123.185L179.316 107.192ZM72.5507 105.643C70.8518 105.643 70.3922 107.983 71.9648 108.625L111.098 124.619C111.284 124.695 111.483 124.734 111.684 124.734H218.449C220.148 124.734 220.608 122.394 219.035 121.751L179.902 105.758C179.716 105.682 179.517 105.643 179.316 105.643H72.5507Z" fill="#0B3C61"/>
<path d="M71.9648 103.751C70.3922 103.109 70.8518 100.769 72.5507 100.769H179.316C179.517 100.769 179.716 100.808 179.902 100.884L219.035 116.877C220.608 117.52 220.148 119.86 218.449 119.86H111.684C111.483 119.86 111.284 119.821 111.098 119.745L71.9648 103.751Z" fill="white"/>
<path fill-rule="evenodd" clip-rule="evenodd" d="M179.316 102.318H72.5507L111.684 118.311L218.449 118.311L179.316 102.318ZM72.5507 100.769C70.8518 100.769 70.3922 103.109 71.9648 103.751L111.098 119.745C111.284 119.821 111.483 119.86 111.684 119.86H218.449C220.148 119.86 220.608 117.52 219.035 116.877L179.902 100.884C179.716 100.808 179.517 100.769 179.316 100.769H72.5507Z" fill="#0B3C61"/>
<path d="M71.9648 98.8761C70.3922 98.2334 70.8518 95.8936 72.5507 95.8936H179.316C179.517 95.8936 179.716 95.9327 179.902 96.0087L219.035 112.002C220.608 112.645 220.148 114.985 218.449 114.985H111.684C111.483 114.985 111.284 114.946 111.098 114.87L71.9648 98.8761Z" fill="white"/>
<path fill-rule="evenodd" clip-rule="evenodd" d="M179.316 97.4424H72.5507L111.684 113.436L218.449 113.436L179.316 97.4424ZM72.5507 95.8936C70.8518 95.8936 70.3922 98.2334 71.9648 98.8761L111.098 114.87C111.284 114.946 111.483 114.985 111.684 114.985H218.449C220.148 114.985 220.608 112.645 219.035 112.002L179.902 96.0087C179.716 95.9327 179.517 95.8936 179.316 95.8936H72.5507Z" fill="#0B3C61"/>
<path d="M71.9648 94.0019C70.3922 93.3591 70.8518 91.0193 72.5507 91.0193H179.316C179.517 91.0193 179.716 91.0584 179.902 91.1344L219.035 107.128C220.608 107.771 220.148 110.111 218.449 110.111H111.684C111.483 110.111 111.284 110.071 111.098 109.995L71.9648 94.0019Z" fill="white"/>
<path fill-rule="evenodd" clip-rule="evenodd" d="M179.316 92.5681H72.5507L111.684 108.562L218.449 108.562L179.316 92.5681ZM72.5507 91.0193C70.8518 91.0193 70.3922 93.3591 71.9648 94.0019L111.098 109.995C111.284 110.071 111.483 110.111 111.684 110.111H218.449C220.148 110.111 220.608 107.771 219.035 107.128L179.902 91.1344C179.716 91.0584 179.517 91.0193 179.316 91.0193H72.5507Z" fill="#0B3C61"/>
<path d="M71.9648 89.1276C70.3922 88.4849 70.8518 86.145 72.5507 86.145H179.316C179.517 86.145 179.716 86.1841 179.902 86.2601L219.035 102.254C220.608 102.896 220.148 105.236 218.449 105.236H111.684C111.483 105.236 111.284 105.197 111.098 105.121L71.9648 89.1276Z" fill="white"/>
<path fill-rule="evenodd" clip-rule="evenodd" d="M179.316 87.6939H72.5507L111.684 103.687L218.449 103.687L179.316 87.6939ZM72.5507 86.145C70.8518 86.145 70.3922 88.4849 71.9648 89.1276L111.098 105.121C111.284 105.197 111.483 105.236 111.684 105.236H218.449C220.148 105.236 220.608 102.896 219.035 102.254L179.902 86.2601C179.716 86.1841 179.517 86.145 179.316 86.145H72.5507Z" fill="#0B3C61"/>
<path d="M71.9648 84.2528C70.3922 83.6101 70.8518 81.2703 72.5507 81.2703H179.316C179.517 81.2703 179.716 81.3094 179.902 81.3854L219.035 97.3789C220.608 98.0216 220.148 100.361 218.449 100.361H111.684C111.483 100.361 111.284 100.322 111.098 100.246L71.9648 84.2528Z" fill="white"/>
<path fill-rule="evenodd" clip-rule="evenodd" d="M179.316 82.8191H72.5507L111.684 98.8126L218.449 98.8126L179.316 82.8191ZM72.5507 81.2703C70.8518 81.2703 70.3922 83.6101 71.9648 84.2528L111.098 100.246C111.284 100.322 111.483 100.361 111.684 100.361H218.449C220.148 100.361 220.608 98.0216 219.035 97.3789L179.902 81.3854C179.716 81.3094 179.517 81.2703 179.316 81.2703H72.5507Z" fill="#0B3C61"/>
<path d="M71.9648 79.3786C70.3922 78.7359 70.8518 76.396 72.5507 76.396H179.316C179.517 76.396 179.716 76.4351 179.902 76.5111L219.035 92.5046C220.608 93.1474 220.148 95.4872 218.449 95.4872H111.684C111.483 95.4872 111.284 95.4481 111.098 95.3721L71.9648 79.3786Z" fill="white"/>
<path fill-rule="evenodd" clip-rule="evenodd" d="M179.316 77.9448H72.5507L111.684 93.9384L218.449 93.9384L179.316 77.9448ZM72.5507 76.396C70.8518 76.396 70.3922 78.7359 71.9648 79.3786L111.098 95.3721C111.284 95.4481 111.483 95.4872 111.684 95.4872H218.449C220.148 95.4872 220.608 93.1474 219.035 92.5046L179.902 76.5111C179.716 76.4351 179.517 76.396 179.316 76.396H72.5507Z" fill="#0B3C61"/>
<path d="M154.03 92.2382C157.605 87.6888 170.549 80.1877 173.934 79.6461L137.783 73.147L126.815 93.0506L118.285 129.202L134.127 114.173L149.156 130.421C147.667 119.453 150.456 96.7876 154.03 92.2382Z" fill="white"/>
<path d="M154.03 92.2382C157.605 87.6888 170.549 80.1877 173.934 79.6461L137.783 73.147L126.815 93.0506L118.285 129.202L134.127 114.173L149.156 130.421C147.667 119.453 150.456 96.7876 154.03 92.2382Z" fill="white"/>
<path fill-rule="evenodd" clip-rule="evenodd" d="M138.372 72.2864L127.085 92.7696L117.935 131.55L135.09 115.274L151.253 132.748L150.923 130.316C150.191 124.93 150.507 116.598 151.462 109.019C151.938 105.237 152.57 101.668 153.301 98.7706C154.043 95.8308 154.858 93.7107 155.639 92.7166C156.471 91.6574 157.888 90.3829 159.642 89.0429C161.385 87.7113 163.421 86.3452 165.457 85.0998C167.493 83.8545 169.518 82.7363 171.237 81.8985C172.987 81.0457 174.336 80.5258 175.056 80.4108L175.07 78.8839L138.372 72.2864ZM171.89 79.8857C171.465 80.0737 171.019 80.282 170.559 80.5061C168.787 81.3692 166.719 82.5122 164.648 83.7786C162.578 85.0449 160.496 86.4409 158.701 87.8121C156.917 89.1751 155.376 90.5443 154.421 91.7597C153.415 93.0403 152.54 95.4594 151.8 98.3917C151.049 101.367 150.407 105.002 149.925 108.826C149.09 115.458 148.728 122.733 149.145 128.188L135.162 113.071L120.634 126.854L128.544 93.3315L139.192 74.0075L171.89 79.8857Z" fill="#43B4E4"/>
<path d="M158.905 91.0194C155.33 86.47 147.667 84.2494 144.282 83.7079L167.029 78.8335L188.963 92.238L205.617 126.765L188.963 118.641L177.59 134.482C179.079 123.515 162.479 95.5688 158.905 91.0194Z" fill="white"/>
<path fill-rule="evenodd" clip-rule="evenodd" d="M167.168 78.0117L189.561 91.6963L207.285 128.44L189.211 119.624L178.218 134.934L176.822 134.378C177.169 131.823 176.463 128.164 175.066 123.948C173.678 119.761 171.648 115.133 169.451 110.687C165.05 101.781 160.034 93.7116 158.295 91.4981C156.624 89.3716 153.952 87.7428 151.217 86.573C148.494 85.4082 145.793 84.7343 144.159 84.4728L144.119 82.9509L167.168 78.0117ZM147.848 83.7358C149.09 84.0947 150.455 84.5626 151.826 85.1489C154.663 86.362 157.609 88.1182 159.513 90.5412C161.349 92.8771 166.42 101.056 170.84 110.001C173.054 114.482 175.118 119.181 176.536 123.461C177.562 126.557 178.27 129.492 178.426 131.99L188.715 117.658L203.949 125.09L188.364 92.7801L166.888 79.6557L147.848 83.7358Z" fill="#43B4E4"/>
<path d="M157.279 91.0194C153.704 86.47 146.041 84.2494 142.656 83.7079L165.403 78.8335L187.337 92.238L203.991 126.765L187.337 118.641L175.964 134.482C177.453 123.515 160.853 95.5688 157.279 91.0194Z" fill="white"/>
<path fill-rule="evenodd" clip-rule="evenodd" d="M165.636 77.4639L188.335 91.3352L206.771 129.557L187.751 120.279L177.013 135.236L174.685 134.309C175.015 131.878 174.344 128.315 172.95 124.111C171.573 119.955 169.554 115.35 167.363 110.916C162.969 102.023 157.971 93.9899 156.264 91.8172C154.671 89.7895 152.09 88.2033 149.389 87.0478C146.707 85.9009 144.048 85.2381 142.452 84.9827L142.385 82.4462L165.636 77.4639ZM148.231 83.8337C148.942 84.0816 149.672 84.3614 150.404 84.6744C153.274 85.9019 156.313 87.7006 158.294 90.2223C160.161 92.5991 165.251 100.814 169.678 109.773C171.897 114.265 173.972 118.987 175.401 123.299C176.249 125.858 176.892 128.339 177.181 130.574L186.924 117.003L201.212 123.973L186.34 93.1415L165.17 80.2039L148.231 83.8337Z" fill="#0B3C61"/>
<path d="M153.217 92.2382C156.792 87.6888 169.736 80.1877 173.121 79.6461L136.97 73.147L126.002 93.0506L117.472 129.202L133.314 114.173L148.343 130.421C146.854 119.453 149.643 96.7876 153.217 92.2382Z" fill="white"/>
<path fill-rule="evenodd" clip-rule="evenodd" d="M136.286 71.7126L124.787 92.5823L115.223 133.115L133.254 116.009L150.173 134.299L149.622 130.247C148.899 124.925 149.21 116.644 150.162 109.084C150.637 105.316 151.266 101.768 151.99 98.8969C152.733 95.9546 153.527 93.9341 154.233 93.0356C155.024 92.0284 156.399 90.7854 158.143 89.4532C159.869 88.1347 161.89 86.7786 163.914 85.5402C165.938 84.3019 167.949 83.192 169.651 82.3626C171.405 81.5083 172.691 81.022 173.325 80.9205L173.35 78.3757L136.286 71.7126ZM168.388 80.1066C166.63 80.9701 164.598 82.096 162.567 83.3381C160.485 84.6114 158.388 86.0174 156.576 87.4018C154.782 88.7725 153.199 90.1732 152.203 91.4407C151.121 92.8169 150.226 95.3356 149.487 98.2653C148.73 101.266 148.084 104.923 147.601 108.761C146.836 114.838 146.464 121.472 146.727 126.773L133.374 112.337L119.722 125.289L127.218 93.5188L137.653 74.5812L168.388 80.1066Z" fill="#0B3C61"/>
<path opacity="0.4" d="M191.131 88.2888C191.131 93.4459 177.04 97.6265 159.659 97.6265C142.278 97.6265 128.188 93.4459 128.188 88.2888C128.188 83.1318 142.278 78.9512 159.659 78.9512C177.04 78.9512 191.131 83.1318 191.131 88.2888Z" fill="#0B3C61"/>
<path d="M185.596 60.4485C185.596 80.0262 169.803 95.897 150.32 95.897C130.838 95.897 115.045 80.0262 115.045 60.4485C115.045 40.8708 130.838 25 150.32 25C169.803 25 185.596 40.8708 185.596 60.4485Z" fill="white"/>
<path fill-rule="evenodd" clip-rule="evenodd" d="M185.282 65.1983C185.339 64.7732 185.388 64.3458 185.429 63.916C185.54 62.7752 185.596 61.6185 185.596 60.4485C185.596 59.2785 185.54 58.1218 185.429 56.981C185.388 56.5512 185.339 56.1238 185.282 55.6987C185.225 55.2707 185.16 54.8451 185.088 54.4221C183.717 54.604 182.726 55.8412 182.86 57.2292C182.962 58.2877 183.015 59.3616 183.015 60.4485C183.015 61.5354 182.962 62.6093 182.86 63.6678C182.726 65.0558 183.717 66.293 185.088 66.4749C185.16 66.0519 185.225 65.6263 185.282 65.1983ZM184.745 68.2216C183.408 67.8711 182.022 68.6407 181.621 69.9757C180.997 72.0504 180.174 74.0386 179.175 75.9182C178.52 77.1492 178.963 78.6712 180.16 79.3637C180.389 78.9997 180.611 78.6313 180.827 78.2585C181.043 77.8866 181.252 77.5104 181.454 77.1301C182.532 75.1027 183.419 72.9577 184.093 70.7192C184.216 70.3081 184.333 69.8938 184.442 69.4766C184.55 69.0612 184.652 68.6428 184.745 68.2216ZM179.175 80.846C178.072 80.0105 176.498 80.1922 175.616 81.2727C174.258 82.9383 172.74 84.4672 171.086 85.836C170.012 86.7249 169.842 88.3008 170.685 89.397C171.036 89.1474 171.382 88.8914 171.723 88.6293C172.064 88.3672 172.401 88.0989 172.732 87.8246C174.515 86.3486 176.152 84.7 177.617 82.9043C177.889 82.571 178.154 82.2327 178.414 81.8895C178.674 81.5465 178.927 81.1986 179.175 80.846ZM169.209 90.3922C168.509 89.1998 166.985 88.7668 165.758 89.4287C163.884 90.4397 161.902 91.2719 159.833 91.9033C158.5 92.3102 157.736 93.6981 158.092 95.034C158.513 94.9389 158.931 94.8363 159.346 94.7262C159.762 94.6157 160.176 94.4977 160.587 94.3723C162.821 93.6904 164.962 92.7917 166.984 91.7005C167.363 91.496 167.738 91.2848 168.108 91.0669C168.48 90.8486 168.847 90.6236 169.209 90.3922ZM156.346 95.3819C156.162 94.0116 154.923 93.0228 153.536 93.1588C152.479 93.2625 151.406 93.3156 150.32 93.3156C149.235 93.3156 148.162 93.2625 147.105 93.1588C145.718 93.0228 144.479 94.0116 144.295 95.3819C144.718 95.455 145.143 95.5206 145.571 95.5785C145.996 95.6359 146.424 95.6858 146.853 95.7279C147.994 95.8398 149.151 95.897 150.32 95.897C151.49 95.897 152.647 95.8398 153.788 95.7279C154.217 95.6858 154.645 95.6359 155.07 95.5785C155.498 95.5206 155.923 95.455 156.346 95.3819ZM142.549 95.034C142.905 93.6981 142.141 92.3102 140.808 91.9033C138.739 91.2719 136.757 90.4397 134.883 89.4287C133.656 88.7668 132.132 89.1998 131.432 90.3922C131.794 90.6236 132.161 90.8486 132.533 91.0669C132.903 91.2848 133.278 91.496 133.657 91.7005C135.679 92.7917 137.82 93.6904 140.054 94.3723C140.465 94.4977 140.879 94.6157 141.295 94.7262C141.71 94.8363 142.128 94.9389 142.549 95.034ZM129.956 89.397C130.799 88.3008 130.629 86.7249 129.555 85.836C127.901 84.4672 126.383 82.9383 125.025 81.2727C124.143 80.1922 122.569 80.0105 121.466 80.846C121.714 81.1986 121.967 81.5465 122.227 81.8895C122.487 82.2327 122.752 82.571 123.024 82.9043C124.489 84.7 126.126 86.3486 127.909 87.8246C128.24 88.0989 128.577 88.3671 128.918 88.6293C129.259 88.8914 129.605 89.1474 129.956 89.397ZM120.481 79.3637C121.678 78.6712 122.121 77.1492 121.466 75.9182C120.467 74.0386 119.644 72.0504 119.02 69.9757C118.619 68.6407 117.233 67.8711 115.896 68.2216C115.989 68.6428 116.091 69.0612 116.199 69.4766C116.308 69.8938 116.425 70.3081 116.548 70.7192C117.222 72.9577 118.109 75.1027 119.187 77.1301C119.389 77.5104 119.598 77.8866 119.814 78.2585C120.03 78.6313 120.252 78.9997 120.481 79.3637ZM115.553 66.4749C116.924 66.293 117.915 65.0557 117.781 63.6678C117.679 62.6093 117.626 61.5354 117.626 60.4485C117.626 59.3616 117.679 58.2877 117.781 57.2292C117.915 55.8412 116.924 54.604 115.553 54.4221C115.481 54.8451 115.416 55.2707 115.359 55.6987C115.302 56.1237 115.253 56.5512 115.212 56.9809C115.101 58.1218 115.045 59.2785 115.045 60.4485C115.045 61.6184 115.101 62.7752 115.212 63.916C115.253 64.3458 115.302 64.7732 115.359 65.1983C115.416 65.6263 115.481 66.0519 115.553 66.4749ZM115.896 52.6754C117.233 53.0259 118.619 52.2563 119.02 50.9213C119.644 48.8466 120.467 46.8584 121.466 44.9788C122.121 43.7478 121.678 42.2258 120.481 41.5333C120.252 41.8972 120.03 42.2657 119.814 42.6385C119.598 43.0104 119.389 43.3866 119.187 43.7669C118.109 45.7943 117.222 47.9393 116.548 50.1778C116.425 50.5889 116.308 51.0032 116.199 51.4204C116.091 51.8358 115.989 52.2542 115.896 52.6754ZM121.466 40.051C122.569 40.8865 124.143 40.7048 125.025 39.6243C126.383 37.9587 127.901 36.4298 129.555 35.061C130.629 34.1721 130.799 32.5962 129.956 31.4999C129.605 31.7496 129.259 32.0056 128.918 32.2677C128.577 32.5298 128.24 32.7981 127.909 33.0724C126.126 34.5484 124.489 36.197 123.024 37.9927C122.752 38.3259 122.487 38.6643 122.227 39.0075C121.967 39.3505 121.714 39.6984 121.466 40.051ZM131.432 30.5048C132.132 31.6972 133.656 32.1302 134.883 31.4683C136.757 30.4573 138.739 29.625 140.808 28.9936C142.141 28.5868 142.905 27.1989 142.549 25.863C142.128 25.9581 141.71 26.0607 141.295 26.1708C140.879 26.2813 140.465 26.3993 140.054 26.5247C137.82 27.2066 135.679 28.1053 133.657 29.1965C133.278 29.401 132.903 29.6122 132.533 29.8301C132.161 30.0484 131.794 30.2734 131.432 30.5048ZM144.295 25.5151C144.479 26.8854 145.718 27.8742 147.105 27.7382C148.162 27.6345 149.235 27.5814 150.32 27.5814C151.406 27.5814 152.479 27.6345 153.536 27.7382C154.923 27.8742 156.162 26.8854 156.346 25.5151C155.923 25.442 155.498 25.3764 155.07 25.3185C154.645 25.2611 154.217 25.2112 153.788 25.1691C152.647 25.0572 151.49 25 150.32 25C149.151 25 147.994 25.0572 146.853 25.1691C146.424 25.2112 145.996 25.2611 145.571 25.3185C145.143 25.3764 144.718 25.442 144.295 25.5151ZM158.092 25.863C157.736 27.1989 158.5 28.5868 159.833 28.9936C161.902 29.6251 163.884 30.4573 165.758 31.4683C166.985 32.1302 168.509 31.6972 169.209 30.5048C168.847 30.2734 168.48 30.0484 168.108 29.8301C167.738 29.6122 167.363 29.401 166.984 29.1965C164.962 28.1053 162.821 27.2066 160.587 26.5247C160.176 26.3993 159.762 26.2813 159.346 26.1708C158.931 26.0607 158.513 25.9581 158.092 25.863ZM170.685 31.4999C169.842 32.5962 170.012 34.1721 171.086 35.061C172.74 36.4298 174.258 37.9587 175.616 39.6243C176.498 40.7048 178.072 40.8865 179.175 40.051C178.927 39.6984 178.674 39.3505 178.414 39.0075C178.154 38.6643 177.889 38.3259 177.617 37.9927C176.152 36.197 174.515 34.5484 172.732 33.0724C172.401 32.7981 172.064 32.5298 171.723 32.2677C171.382 32.0056 171.036 31.7496 170.685 31.4999ZM184.745 52.6754C184.652 52.2542 184.55 51.8358 184.442 51.4204C184.333 51.0032 184.216 50.5889 184.093 50.1778C183.419 47.9393 182.532 45.7943 181.454 43.7669C181.252 43.3866 181.043 43.0104 180.827 42.6385C180.611 42.2657 180.389 41.8972 180.16 41.5333C178.963 42.2258 178.52 43.7478 179.175 44.9788C180.174 46.8584 180.997 48.8466 181.621 50.9213C182.022 52.2563 183.408 53.0259 184.745 52.6754Z" fill="#0B3C61"/>
<path d="M182.139 60.6211C182.139 78.1933 167.894 92.4383 150.322 92.4383C132.75 92.4383 118.505 78.1933 118.505 60.6211C118.505 43.049 132.75 28.804 150.322 28.804C167.894 28.804 182.139 43.049 182.139 60.6211Z" fill="white"/>
<path fill-rule="evenodd" clip-rule="evenodd" d="M150.322 89.3406C166.183 89.3406 179.042 76.4825 179.042 60.6211C179.042 44.7598 166.183 31.9017 150.322 31.9017C134.461 31.9017 121.603 44.7598 121.603 60.6211C121.603 76.4825 134.461 89.3406 150.322 89.3406ZM150.322 92.4383C167.894 92.4383 182.139 78.1933 182.139 60.6211C182.139 43.049 167.894 28.804 150.322 28.804C132.75 28.804 118.505 43.049 118.505 60.6211C118.505 78.1933 132.75 92.4383 150.322 92.4383Z" fill="#0B3C61"/>
<path d="M177.297 60.6214C177.297 75.5196 165.064 87.5969 149.975 87.5969C134.886 87.5969 122.654 75.5196 122.654 60.6214C122.654 45.7233 134.886 33.646 149.975 33.646C165.064 33.646 177.297 45.7233 177.297 60.6214Z" fill="white"/>
<path fill-rule="evenodd" clip-rule="evenodd" d="M149.975 86.048C164.228 86.048 175.748 74.6456 175.748 60.6214C175.748 46.5973 164.228 35.1948 149.975 35.1948C135.723 35.1948 124.203 46.5973 124.203 60.6214C124.203 74.6456 135.723 86.048 149.975 86.048ZM149.975 87.5969C165.064 87.5969 177.297 75.5196 177.297 60.6214C177.297 45.7233 165.064 33.646 149.975 33.646C134.886 33.646 122.654 45.7233 122.654 60.6214C122.654 75.5196 134.886 87.5969 149.975 87.5969Z" fill="#0B3C61"/>
<path fill-rule="evenodd" clip-rule="evenodd" d="M167.327 49.465C168.137 50.1572 168.229 51.3704 167.531 52.1748L145.141 78L133.582 66.7729C132.818 66.0306 132.804 64.8141 133.552 64.0556C134.3 63.2972 135.526 63.2841 136.29 64.0264L144.899 72.3873L164.596 49.6683C165.294 48.8638 166.516 48.7728 167.327 49.465Z" fill="#43B4E4"/>
<path fill-rule="evenodd" clip-rule="evenodd" d="M165.644 46.6967C166.841 47.7107 166.988 49.5025 165.974 50.6988L144.347 76.2146L132.756 64.6986C131.644 63.5933 131.638 61.7954 132.743 60.6829C133.849 59.5704 135.647 59.5645 136.759 60.6699L143.99 67.8535L161.642 47.0268C162.656 45.8305 164.448 45.6827 165.644 46.6967Z" fill="#0B3C61"/>
</g>
</svg>
