<svg width="290" height="172" viewBox="0 0 290 172" fill="none" xmlns="http://www.w3.org/2000/svg">
<mask id="mask0_644_6748" style="mask-type:alpha" maskUnits="userSpaceOnUse" x="0" y="0" width="290" height="172">
<rect width="290" height="172" rx="4" fill="#4C9E45"/>
</mask>
<g mask="url(#mask0_644_6748)">
<rect width="290" height="172" rx="4" fill="#FFD362"/>
<path d="M95 121.5V44L181.5 35.5L196 42.5V115L108.5 131.5L95 121.5Z" fill="white"/>
<path d="M84.9997 108C84.9997 108 91.7848 112.276 93.4997 113.5C94.7408 114.398 92.8872 116.964 95.6614 121C98.5394 125.187 106.048 130.85 107.348 131.765C108.344 132.47 109.418 132.47 110.528 132.295C111.952 132.062 113.362 131.765 114.783 131.5C119.179 130.719 123.578 129.942 127.98 129.168C136.822 127.604 145.654 125.975 154.514 124.52C158.4 123.881 162.249 123.017 166.14 122.418C171.55 121.584 176.901 120.441 182.308 119.564C185.489 119.05 188.654 118.504 191.805 117.855C192.7 117.674 193.621 117.657 194.522 117.805C198.021 118.335 200.83 115.981 200.883 112.475C200.883 111.996 200.883 111.513 200.899 111.034C201.087 111.374 201.178 111.759 201.164 112.147C201.085 113.326 201.758 113.859 202.773 114.206C206.683 115.531 210.579 116.906 214.483 118.255C214.979 118.425 215.493 118.549 215.923 119.063C215.093 119.731 214.123 119.766 213.214 119.922C207.294 120.931 201.39 122.024 195.503 123.203C190.997 124.098 186.427 124.825 181.897 125.688C174.85 127.033 167.81 128.348 160.775 129.634C154.729 130.747 148.673 131.815 142.624 132.926C137.143 133.933 131.667 134.966 126.191 135.989C121.515 136.861 116.837 137.72 112.166 138.618C110.722 138.883 109.614 138.562 108.548 137.465C104.307 133.09 98.3072 126.741 94.0001 122.418C82.8384 106.452 84.9997 108 84.9997 108Z" fill="#F68A38"/>
<path d="M94.4234 122.88L93.8297 122.312C93.6061 121.629 93.5117 120.91 93.5514 120.192C93.5514 118.897 93.5514 117.601 93.5514 116.307C93.5739 115.947 93.5009 115.588 93.3399 115.265C93.1788 114.942 92.9355 114.667 92.6343 114.468C90.5139 112.992 88.4252 111.453 86.273 110.016C84.9795 109.15 84.293 108.148 84.2957 106.481C84.3487 88.5863 84.3619 70.6889 84.3354 52.7887C86.9118 52.4955 89.489 52.2022 92.0671 51.9089C93.2678 51.7738 93.4958 51.5962 93.517 50.4011C93.5567 48.281 93.517 46.161 93.5408 44.0542C93.5408 42.2893 93.6972 42.0879 95.4863 41.921C99.3137 41.5685 103.144 41.2849 106.974 40.9484C111.949 40.5138 116.924 40.0553 121.899 39.6234C125.536 39.3001 129.175 38.99 132.809 38.6641C136.493 38.3328 140.175 37.975 143.862 37.6517C147.88 37.2993 151.903 36.9813 155.922 36.6341C159.511 36.3214 163.099 35.9849 166.686 35.6669C170.611 35.3171 174.555 35.121 178.451 34.5804C181.126 34.2067 183.413 34.8056 185.762 35.9849C189.154 37.6862 192.653 39.1835 196.125 40.7125C197.045 41.118 197.501 41.6798 197.427 42.6895C197.387 43.2195 197.427 43.7495 197.427 44.2795C197.427 64.1813 197.427 84.0813 197.427 103.98C197.427 104.888 197.331 105.813 197.819 106.656C198.029 107.09 198.336 107.471 198.715 107.769C199.897 108.564 200.509 109.741 200.891 111.066C200.891 111.545 200.891 112.028 200.875 112.507C200.814 116.013 198.005 118.375 194.514 117.837C193.613 117.689 192.692 117.706 191.797 117.887C188.646 118.534 185.47 119.082 182.3 119.596C176.898 120.473 171.547 121.615 166.132 122.45C162.241 123.049 158.392 123.913 154.506 124.552C145.646 126.007 136.814 127.636 127.972 129.2C123.572 129.979 119.173 130.756 114.774 131.532C113.354 131.784 111.944 132.086 110.52 132.327C109.415 132.51 108.342 132.51 107.34 131.797C104.788 129.997 102.247 128.183 99.7166 126.356C98.0097 125.1 96.3478 123.781 94.4234 122.88ZM195.145 68.9964C195.312 67.1309 195.312 65.2543 195.145 63.3889C195.161 57.0527 195.145 50.7191 195.224 44.3855C195.237 43.132 194.803 42.4748 193.682 41.9872C190.162 40.4555 186.665 38.8734 183.191 37.241C181.865 36.6156 180.54 36.446 179.149 36.8938C178.669 36.8938 178.186 36.8594 177.712 36.8938C174.171 37.1959 170.63 37.5166 167.089 37.8266C159.147 38.521 151.205 39.2153 143.26 39.9096C133.882 40.7382 124.505 41.5764 115.127 42.4245C109.243 42.9545 103.356 43.4447 97.4716 43.9747C95.6692 44.139 95.6454 44.1841 95.6454 45.9782C95.6454 70.385 95.6356 94.7918 95.6162 119.199C95.6162 120.333 95.9846 121.054 96.9123 121.703C100.51 124.187 104.076 126.713 107.61 129.282C108.04 129.621 108.541 129.859 109.075 129.98C109.609 130.101 110.164 130.102 110.698 129.982C113.812 129.393 116.94 128.866 120.06 128.315L156.107 121.941C162.115 120.881 168.123 119.821 174.131 118.761C178.296 118.025 182.458 117.282 186.618 116.533C187.148 116.435 187.789 116.469 188.039 115.738C187.224 114.662 186.601 113.455 186.196 112.168C186.196 111.447 186.143 110.721 186.196 110.006C186.575 105.14 190.816 102.851 193.989 103.768C194.294 103.855 194.633 103.993 195.049 103.738C195.314 103.174 195.203 102.493 195.203 101.836C195.214 96.2635 195.214 90.6896 195.203 85.1139C195.195 79.7661 195.166 74.3786 195.145 68.9964ZM93.2784 111.76C93.5859 111.315 93.4719 110.777 93.4719 110.265C93.4719 96.5258 93.4719 82.7863 93.4719 69.0467C93.4719 64.4798 93.4719 59.9156 93.4719 55.354C93.4719 54.1456 93.3685 54.029 92.1466 54.1376C90.8054 54.2436 89.4696 54.4026 88.131 54.5351C86.3392 54.7206 86.3286 54.7259 86.326 56.5465C86.326 63.3712 86.326 70.1933 86.326 77.0127C86.326 86.6218 86.326 96.2308 86.3127 105.84C86.3127 106.852 86.5963 107.509 87.4922 108.076C89.0322 109.049 90.4582 110.196 91.9452 111.256C92.3136 111.519 92.6582 111.914 93.2784 111.76ZM199.126 112.362C199.107 110.814 198.455 109.595 197.437 109.147C196.234 108.617 195.097 108.813 194.079 109.651C193.444 110.169 192.986 110.874 192.769 111.665C192.553 112.457 192.589 113.296 192.873 114.066C193.56 115.921 195.508 116.625 197.207 115.616C198.527 114.845 198.893 113.52 199.126 112.362ZM190.954 115.383C191.039 115.287 191.097 115.17 191.123 115.044C191.148 114.918 191.139 114.788 191.097 114.667C190.355 111.307 191.177 109.303 194.05 107.48C194.445 107.228 194.845 106.998 194.991 106.537C193.305 105.172 191.346 105.156 189.854 106.444C188.856 107.323 188.204 108.529 188.015 109.846C187.825 111.162 188.111 112.503 188.82 113.628C189.327 114.405 189.91 115.184 190.954 115.383Z" fill="#ED5D25"/>
<path d="M93.2793 111.76C92.6591 111.914 92.3145 111.519 91.9408 111.254C90.4538 110.194 89.0252 109.049 87.4879 108.074C86.592 107.507 86.3057 106.849 86.3084 105.837C86.3349 96.2282 86.3216 86.6191 86.3216 77.0101C86.3216 70.1889 86.3216 63.3668 86.3216 56.5438C86.3216 54.7233 86.3349 54.718 88.1266 54.5325C89.4652 54.392 90.8011 54.241 92.1422 54.135C93.3747 54.0369 93.4675 54.135 93.4675 55.3513C93.4675 59.9147 93.4675 64.4789 93.4675 69.0441C93.4675 82.7836 93.4675 96.5232 93.4675 110.263C93.4728 110.772 93.5868 111.315 93.2793 111.76ZM92.0972 79.7794C92.1585 78.5574 91.9437 77.3374 91.469 76.2098C91.1748 75.5287 90.7905 74.906 89.9237 74.9113C89.0119 74.9113 88.5057 75.5473 88.2645 76.2893C87.4673 78.6253 87.4579 81.1582 88.238 83.5C88.4818 84.2341 88.8953 84.9257 89.7938 85.0185C90.5068 85.09 91.1191 84.5415 91.53 83.5398C91.9991 82.4162 92.1131 81.221 92.0972 79.7794V79.7794ZM92.0972 67.4169C92.0972 65.8932 91.9885 64.5019 91.3179 63.2484C90.9495 62.5488 90.4008 62.1593 89.5712 62.2812C88.8078 62.3951 88.4262 62.9304 88.185 63.5797C88.0772 63.946 87.9965 64.3198 87.9438 64.698C87.5356 66.6272 87.5938 68.6259 88.1134 70.5281C88.4103 71.6173 89.1604 72.399 89.8787 72.3646C90.9256 72.3116 91.302 71.5219 91.6015 70.6818C91.9757 69.6356 92.1449 68.5271 92.0998 67.4169H92.0972Z" fill="#FBFBFB"/>
<path d="M199.127 112.362C198.896 113.509 198.528 114.834 197.208 115.616C195.509 116.626 193.561 115.918 192.874 114.066C192.59 113.296 192.554 112.457 192.77 111.665C192.987 110.874 193.444 110.169 194.08 109.651C195.098 108.813 196.235 108.62 197.438 109.147C198.456 109.606 199.108 110.825 199.127 112.362Z" fill="#FAFAFA"/>
<path d="M190.954 115.382C189.91 115.184 189.327 114.405 188.813 113.628C188.104 112.502 187.82 111.161 188.011 109.844C188.201 108.528 188.855 107.322 189.854 106.444C191.347 105.156 193.3 105.172 194.991 106.537C194.84 106.998 194.445 107.228 194.05 107.48C191.177 109.303 190.355 111.307 191.097 114.667C191.139 114.788 191.148 114.918 191.123 115.044C191.098 115.17 191.039 115.287 190.954 115.382V115.382Z" fill="#F9F9F9"/>
<path d="M186.744 46.145C187.427 46.145 187.83 46.4365 187.804 47.1865C187.785 47.6158 187.804 48.0477 187.804 48.4797C187.804 66.6148 187.804 84.7481 187.804 102.88C187.804 105.371 187.804 105.368 185.349 105.856C185.021 105.922 184.705 106.033 184.382 106.121C181.731 106.288 179.166 106.916 176.56 107.34C169.258 108.514 161.982 109.77 154.674 110.989C146.899 112.287 139.124 113.584 131.349 114.879C127.61 115.504 123.872 116.156 120.132 116.798C119.706 116.872 119.281 116.951 118.852 117.015C116.96 117.296 116.912 117.264 116.912 115.324C116.912 95.1468 116.912 74.9677 116.912 54.7868C116.912 53.0033 116.912 52.9901 118.749 52.8152C128.264 51.9035 137.78 51.0131 147.295 50.0909C154.37 49.4046 161.441 48.6705 168.516 47.9709C173.965 47.4409 179.42 46.9294 184.87 46.4021C185.511 46.3464 186.126 46.2325 186.744 46.145ZM185.895 50.4646C185.911 50.2261 185.946 49.9876 185.943 49.7491C185.925 48.265 185.866 48.2094 184.366 48.3525C179.15 48.8436 173.937 49.3374 168.728 49.8339C161.889 50.499 155.053 51.1907 148.212 51.8532C139.075 52.7365 129.938 53.6119 120.803 54.4794C118.733 54.6781 118.733 54.694 118.733 56.83V111.336C118.733 112.202 118.717 113.066 118.733 113.933C118.762 114.993 118.873 115.078 119.934 114.924C122.502 114.55 125.065 114.153 127.607 113.612C130.308 113.188 133.014 112.783 135.712 112.332C143.248 111.068 150.778 109.778 158.314 108.516C165.801 107.265 173.292 106.044 180.782 104.806C182.155 104.578 183.52 104.292 184.896 104.067C185.636 103.945 186.004 103.582 185.943 102.813C185.922 102.527 185.943 102.236 185.943 101.949C185.943 85.461 185.943 68.9733 185.943 52.4866C185.946 51.8108 185.906 51.1456 185.906 50.4646H185.895Z" fill="#ED5D25"/>
<path d="M107.682 85.5431V54.1295C107.682 53.6976 107.682 53.2656 107.703 52.8337C107.724 52.15 108.085 51.7313 108.763 51.7154C109.442 51.6995 109.784 52.1659 109.85 52.8151C109.887 53.1974 109.904 53.5813 109.9 53.9652C109.9 75.0525 109.9 96.1397 109.9 117.227C109.915 117.657 109.876 118.088 109.786 118.51C109.743 118.751 109.609 118.966 109.412 119.111C109.215 119.256 108.969 119.321 108.726 119.291C108.481 119.289 108.245 119.197 108.063 119.031C107.882 118.866 107.768 118.64 107.743 118.396C107.698 117.918 107.681 117.439 107.692 116.959C107.685 106.486 107.682 96.0142 107.682 85.5431Z" fill="#ED5D25"/>
<path d="M120.771 123.176C120.874 124.997 119.742 126.449 118.054 127.443C115.904 128.707 113.137 127.62 112.223 125.291C111.146 122.511 112.607 119.403 115.371 118.584C118.136 117.765 120.76 119.827 120.771 123.176ZM116.514 120.261C114.966 120.261 113.72 121.729 113.749 123.494C113.776 124.992 114.741 126.065 116.063 126.07C117.611 126.07 118.931 124.639 118.944 122.927C118.955 121.501 117.823 120.259 116.514 120.269V120.261Z" fill="#ED5D25"/>
<path d="M92.0967 79.7795C92.1126 81.2211 91.9986 82.4083 91.5295 83.5399C91.116 84.5416 90.5064 85.0902 89.7934 85.0186C88.8948 84.9259 88.4813 84.2236 88.2375 83.5001C87.4574 81.1583 87.4668 78.6254 88.264 76.2894C88.5052 75.5474 89.0114 74.9193 89.9232 74.9114C90.79 74.9114 91.1743 75.5288 91.4685 76.2099C91.9433 77.3375 92.158 78.5576 92.0967 79.7795V79.7795ZM89.91 76.785C88.8736 78.4624 88.9107 81.6955 89.91 83.047C90.8854 81.6769 90.9172 78.5234 89.91 76.785Z" fill="#ED5D25"/>
<path d="M92.0995 67.4169C92.1454 68.5269 91.9771 69.6354 91.6038 70.6818C91.3043 71.5218 90.9279 72.3115 89.881 72.3645C89.1627 72.399 88.4126 71.6172 88.1157 70.5281C87.5961 68.6259 87.5379 66.6272 87.9461 64.698C87.9988 64.3198 88.0794 63.946 88.1873 63.5797C88.4285 62.9304 88.8101 62.3951 89.5735 62.2812C90.4031 62.1593 90.9518 62.5462 91.3202 63.2484C91.9908 64.5151 92.1101 65.8932 92.0995 67.4169ZM90.0002 64.0593C88.8472 65.713 88.9082 69.3038 90.1222 70.5228C90.7928 68.3206 90.8988 66.2695 90.0002 64.0593V64.0593Z" fill="#ED5D25"/>
<path d="M194.691 75.4147C194.691 77.0047 193.35 78.4516 191.834 78.4702C191.472 78.4766 191.113 78.4091 190.779 78.2718C190.445 78.1344 190.142 77.9302 189.889 77.6715C189.637 77.4129 189.44 77.1054 189.311 76.7678C189.182 76.4303 189.123 76.0699 189.138 75.7088C189.157 74.0499 190.437 72.6745 191.974 72.6533C192.335 72.6519 192.693 72.7226 193.026 72.8614C193.359 73.0002 193.661 73.2043 193.915 73.4616C194.168 73.7189 194.367 74.0243 194.5 74.3597C194.634 74.6951 194.698 75.0538 194.691 75.4147V75.4147ZM190.715 75.6426C190.715 76.4773 191.166 76.9941 191.879 76.9676C192.592 76.9411 193.135 76.2627 193.154 75.4809C193.172 74.6992 192.682 74.1559 191.964 74.1824C191.245 74.2089 190.713 74.8052 190.707 75.6426H190.715Z" fill="#ED5D25"/>
<path d="M194.696 84.5361C194.678 86.0652 193.241 87.5943 191.826 87.589C190.411 87.5837 189.162 86.3063 189.146 84.7773C189.128 83.121 190.532 81.629 192.062 81.6741C193.512 81.7112 194.715 83.023 194.696 84.5361ZM193.141 84.4937C193.141 83.7411 192.595 83.1316 191.964 83.1687C191.264 83.2085 190.638 83.9929 190.665 84.7799C190.694 85.5034 191.139 85.9963 191.778 86.0095C192.531 86.0148 193.149 85.3311 193.141 84.4858V84.4937Z" fill="#ED5D25"/>
<path d="M193.65 64.0381C194.923 65.5036 194.851 67.03 193.87 68.6041C193.791 68.6571 193.711 68.7101 193.629 68.7605C192.216 69.6535 191.005 69.6668 190.077 68.8002C188.991 67.7852 188.824 66.3463 189.637 65.0054C190.385 63.7731 191.646 63.3464 193.117 63.8261C193.298 63.887 193.473 63.9665 193.65 64.0381ZM190.695 66.7067C190.713 67.4487 191.145 67.9442 191.782 67.9469C192.518 67.9469 193.128 67.2579 193.131 66.4099C193.133 65.5619 192.662 65.0849 191.967 65.1034C191.206 65.1379 190.676 65.8189 190.695 66.7067Z" fill="#ED5D25"/>
<path d="M194.692 93.615C194.652 95.1865 193.194 96.6546 191.745 96.5857C191.383 96.5724 191.028 96.4865 190.7 96.3332C190.372 96.18 190.079 95.9624 189.836 95.6935C189.594 95.4245 189.409 95.1097 189.291 94.7677C189.173 94.4257 189.125 94.0634 189.15 93.7025C189.205 92.0277 190.475 90.7371 192.065 90.7583C192.426 90.7698 192.782 90.8533 193.11 91.0038C193.439 91.1543 193.734 91.3689 193.979 91.6349C194.224 91.9009 194.413 92.2131 194.535 92.5531C194.657 92.8931 194.711 93.2542 194.692 93.615V93.615ZM193.131 93.5806C193.131 92.7299 192.731 92.2556 191.983 92.2741C191.236 92.2927 190.631 92.9658 190.658 93.8244C190.646 94.136 190.753 94.4404 190.957 94.6761C191.161 94.9118 191.448 95.0611 191.758 95.0938C192.476 95.1362 193.118 94.4286 193.131 93.5806Z" fill="#ED5D25"/>
<path d="M194.637 57.4184C194.613 59.1091 193.37 60.3759 191.751 60.3626C191.39 60.3546 191.035 60.2742 190.706 60.1263C190.377 59.9783 190.082 59.7657 189.837 59.5012C189.592 59.2367 189.402 58.9256 189.28 58.5865C189.157 58.2473 189.104 57.8871 189.124 57.5271C189.169 55.9715 190.603 54.5113 192.058 54.5405C193.513 54.5696 194.653 55.8125 194.637 57.4184ZM193.132 57.4184C193.132 56.6234 192.673 56.0457 192.013 56.0483C191.311 56.0483 190.667 56.793 190.667 57.6039C190.667 58.3327 191.08 58.8229 191.727 58.8627C192.512 58.8998 193.118 58.2744 193.132 57.4105V57.4184Z" fill="#ED5D25"/>
<path d="M127.609 113.612C125.067 114.142 122.504 114.55 119.935 114.924C118.875 115.078 118.764 114.985 118.734 113.933C118.708 113.066 118.734 112.203 118.734 111.336V56.83C118.734 54.6941 118.734 54.6782 120.805 54.4795C129.94 53.5961 139.077 52.7207 148.214 51.8533C155.055 51.1908 161.891 50.4991 168.729 49.8339C173.944 49.3269 179.157 48.8331 184.368 48.3526C185.868 48.2095 185.926 48.2651 185.945 49.7491C185.945 49.9876 185.913 50.2261 185.897 50.4646C185.478 51.2252 185.595 52.0547 185.595 52.8682C185.595 68.2879 185.595 83.7085 185.595 99.1299C185.595 99.7686 185.733 100.455 185.33 101.231C184.911 100.455 185.065 99.7818 185.065 99.1458C185.054 83.341 185.05 67.5362 185.051 51.7314C185.051 50.9364 185.208 50.0857 184.691 49.3463C178.761 49.9187 172.831 50.4911 166.9 51.0636C159.581 51.7702 152.263 52.4681 144.946 53.1571C137.196 53.8991 129.447 54.6438 121.7 55.3911C119.991 55.5554 119.932 55.5686 119.932 57.2752C119.932 75.6329 119.932 93.9906 119.932 112.348C119.932 113.922 120.06 113.981 121.581 113.782C123.296 113.554 124.969 113.064 126.71 113.032C127.063 113.13 127.593 112.968 127.609 113.612Z" fill="white"/>
<path d="M184.655 49.3544C185.185 50.0858 185.015 50.9258 185.015 51.7394C185.015 67.5442 185.02 83.349 185.028 99.1539C185.028 99.7899 184.888 100.463 185.294 101.239C185.707 100.444 185.559 99.7766 185.559 99.138C185.559 83.7165 185.559 68.2959 185.559 52.8763C185.559 52.0654 185.442 51.2332 185.861 50.4727C185.877 51.1458 185.911 51.8189 185.911 52.4894C185.911 68.9779 185.911 85.4655 185.911 101.952C185.911 102.239 185.882 102.53 185.911 102.816C185.972 103.585 185.604 103.948 184.864 104.07C183.489 104.295 182.123 104.581 180.75 104.809C173.26 106.052 165.77 107.274 158.282 108.519C150.746 109.781 143.216 111.071 135.68 112.335C132.982 112.786 130.276 113.191 127.575 113.615C127.548 112.971 127.021 113.133 126.65 113.043C127.882 112.6 129.186 112.537 130.461 112.319C139.168 110.846 147.875 109.372 156.583 107.896C165.245 106.444 173.915 105.026 182.577 103.579C184.986 103.177 184.721 103.211 184.721 101.062C184.732 84.402 184.732 67.7412 184.721 51.0795C184.758 50.5018 184.689 49.9294 184.655 49.3544Z" fill="#F1F1F1"/>
<path d="M116.514 120.269C117.823 120.269 118.955 121.502 118.944 122.935C118.931 124.647 117.619 126.086 116.063 126.078C114.738 126.078 113.776 125 113.749 123.502C113.72 121.737 114.966 120.28 116.514 120.269Z" fill="#FAFAFA"/>
<path d="M89.9099 76.7848C90.9171 78.5232 90.8853 81.6768 89.9099 83.0468C88.9106 81.6953 88.8735 78.4623 89.9099 76.7848Z" fill="#EFEFEF"/>
<path d="M90.0003 64.0594C90.8989 66.2696 90.7955 68.3207 90.1223 70.5229C88.9083 69.3039 88.8473 65.721 90.0003 64.0594Z" fill="#EEEEEE"/>
<path d="M190.708 75.6426C190.708 74.8052 191.223 74.2036 191.957 74.1745C192.691 74.1453 193.165 74.6806 193.147 75.473C193.128 76.2654 192.553 76.9279 191.872 76.9597C191.191 76.9915 190.703 76.4774 190.708 75.6426Z" fill="#EEEEEE"/>
<path d="M193.142 84.4858C193.142 85.3205 192.522 86.0148 191.779 85.9989C191.141 85.9989 190.695 85.4928 190.666 84.7693C190.632 83.9743 191.265 83.1979 191.965 83.1581C192.596 83.1237 193.136 83.7411 193.142 84.4858Z" fill="#F1F1F1"/>
<path d="M190.695 66.7067C190.674 65.819 191.225 65.1379 191.967 65.1035C192.662 65.0743 193.131 65.599 193.131 66.4099C193.131 67.2208 192.519 67.9522 191.782 67.9469C191.146 67.9443 190.713 67.4487 190.695 66.7067Z" fill="#F1F1F1"/>
<path d="M193.131 93.5807C193.131 94.4287 192.476 95.1363 191.755 95.0939C191.445 95.0612 191.159 94.9119 190.955 94.6762C190.751 94.4405 190.644 94.1361 190.655 93.8245C190.632 92.9659 191.215 92.2848 191.981 92.2742C192.747 92.2636 193.142 92.73 193.131 93.5807Z" fill="#F2F2F2"/>
<path d="M193.131 57.4105C193.131 58.2744 192.511 58.8998 191.731 58.8548C191.079 58.815 190.671 58.3247 190.671 57.596C190.671 56.7851 191.315 56.0431 192.018 56.0404C192.672 56.0378 193.144 56.6155 193.131 57.4105Z" fill="#F1F1F1"/>
<path d="M184.655 49.3544C184.689 49.9294 184.758 50.5018 184.758 51.0769C184.758 67.7386 184.758 84.3993 184.758 101.059C184.758 103.208 185.023 103.179 182.614 103.577C173.952 105.024 165.282 106.441 156.62 107.894C147.91 109.353 139.203 110.827 130.499 112.317C129.224 112.534 127.92 112.598 126.687 113.04C124.946 113.072 123.273 113.57 121.558 113.79C120.037 113.989 119.91 113.93 119.91 112.356C119.91 93.9987 119.91 75.641 119.91 57.2833C119.91 55.5767 119.968 55.5634 121.678 55.3991C129.428 54.6624 137.176 53.9177 144.923 53.1651C152.242 52.4584 159.56 51.7606 166.878 51.0716C172.797 50.5045 178.723 49.9321 184.655 49.3544Z" fill="#ED5D25"/>
<path d="M162.676 92.9448L163.418 92.8944Z" fill="#FCB753"/>
<path d="M175.333 64.7111C174.893 63.3512 174.885 61.8883 175.312 60.524C175.94 61.6 175.951 63.5424 175.333 64.7111Z" fill="#ED5D25"/>
<path d="M171.157 65.742C170.736 64.9285 170.627 64.3773 171.332 63.8181C171.796 64.4886 171.788 65.0292 171.157 65.742Z" fill="#ED5D25"/>
<path d="M171.206 61.0621C171.518 61.0621 171.622 61.2688 171.638 61.5259C171.654 61.7829 171.675 62.1354 171.357 62.2653C171.039 62.3951 170.922 62.146 170.877 61.8995C170.816 61.5603 170.813 61.2158 171.206 61.0621Z" fill="#ED5D25"/>
<path d="M170.627 62.1832C170.441 62.0345 170.292 61.845 170.192 61.6293C170.063 61.3317 169.998 61.0103 170.001 60.6859C169.978 60.149 170.168 59.6248 170.531 59.2284C170.676 59.0826 170.849 58.9686 171.041 58.8937C171.232 58.8189 171.437 58.7848 171.642 58.7938C171.894 58.7729 172.148 58.8111 172.383 58.9054C172.618 58.9997 172.828 59.1475 172.996 59.337C173.3 59.72 173.459 60.1974 173.447 60.6859C173.45 60.9932 173.39 61.2979 173.272 61.5816C173.173 61.8055 173.034 62.0093 172.861 62.1832C173.11 62.3696 173.301 62.6221 173.412 62.9119C173.538 63.2327 173.6 63.5746 173.595 63.9189C173.602 64.2605 173.552 64.6007 173.447 64.9259C173.368 65.1873 173.236 65.4298 173.06 65.6388C172.905 65.8091 172.709 65.9368 172.49 66.0098C172.256 66.0903 172.009 66.1307 171.761 66.1291C171.373 66.1541 170.986 66.0618 170.651 65.8641C170.382 65.6679 170.179 65.3955 170.067 65.0823C169.931 64.7118 169.863 64.3192 169.869 63.9242C169.859 63.5618 169.923 63.2011 170.057 62.8642C170.168 62.5817 170.368 62.3427 170.627 62.1832V62.1832ZM171.13 63.8421C171.119 64.1094 171.183 64.3745 171.313 64.6079C171.351 64.6905 171.41 64.7615 171.484 64.8136C171.558 64.8658 171.644 64.8973 171.735 64.9047C171.886 64.9047 172.021 64.804 172.143 64.6026C172.271 64.3683 172.333 64.1036 172.323 63.8368C172.334 63.5687 172.271 63.3027 172.14 63.0683C172.103 62.9849 172.045 62.913 171.971 62.8599C171.897 62.8068 171.81 62.7744 171.719 62.7662C171.63 62.7732 171.545 62.8039 171.472 62.8552C171.399 62.9065 171.342 62.9764 171.305 63.0577C171.177 63.2986 171.117 63.5696 171.13 63.8421V63.8421ZM171.197 60.7892C171.187 60.9965 171.239 61.202 171.345 61.3802C171.385 61.4492 171.443 61.5064 171.512 61.5459C171.582 61.5855 171.66 61.606 171.74 61.6055C171.814 61.6041 171.887 61.5827 171.95 61.5435C172.013 61.5043 172.064 61.4488 172.098 61.3829C172.199 61.2087 172.248 61.009 172.238 60.8078C172.248 60.5992 172.197 60.3921 172.093 60.2115C172.057 60.1425 172.003 60.0846 171.937 60.0442C171.871 60.0037 171.795 59.9824 171.717 59.9824C171.64 59.9824 171.564 60.0037 171.498 60.0442C171.432 60.0846 171.378 60.1425 171.342 60.2115C171.24 60.3862 171.189 60.5867 171.197 60.7892Z" fill="white"/>
<path d="M174.123 62.0109C174.123 60.7017 174.275 59.7848 174.579 59.2601C174.712 59.01 174.913 58.8027 175.159 58.662C175.404 58.5213 175.685 58.453 175.968 58.4651C176.224 58.4554 176.479 58.5149 176.705 58.6374C176.893 58.7486 177.053 58.9007 177.174 59.0826C177.294 59.2626 177.391 59.4577 177.46 59.6629C177.536 59.8935 177.592 60.1303 177.627 60.3705C177.712 60.9015 177.754 61.4386 177.752 61.9764C177.752 63.2272 177.616 64.1433 177.344 64.7245C177.227 64.997 177.028 65.2267 176.776 65.3823C176.524 65.5379 176.229 65.6117 175.933 65.5937C175.61 65.6133 175.291 65.5196 175.03 65.3287C174.774 65.1103 174.579 64.8302 174.462 64.5151C174.33 64.1807 174.241 63.8307 174.197 63.4737C174.141 62.9882 174.116 62.4996 174.123 62.0109V62.0109ZM175.348 62.0109C175.32 62.6145 175.37 63.2192 175.496 63.8102C175.597 64.1309 175.743 64.2925 175.931 64.2925C175.998 64.2889 176.064 64.2679 176.121 64.2317C176.178 64.1955 176.225 64.1453 176.257 64.0858C176.37 63.8873 176.44 63.6668 176.461 63.4392C176.512 62.9817 176.533 62.5214 176.524 62.0612C176.553 61.4391 176.503 60.8159 176.376 60.2062C176.275 59.8908 176.124 59.7345 175.925 59.7345C175.727 59.7345 175.573 59.8935 175.483 60.2168C175.368 60.8075 175.323 61.4096 175.348 62.0109V62.0109Z" fill="white"/>
<path d="M170.628 77.2354C170.442 77.0873 170.293 76.8976 170.193 76.6815C170.063 76.3796 169.999 76.0535 170.005 75.7248C169.982 75.1879 170.172 74.6637 170.535 74.2673C170.68 74.1215 170.853 74.0075 171.045 73.9327C171.236 73.8578 171.441 73.8238 171.646 73.8327C171.898 73.8118 172.152 73.85 172.387 73.9443C172.622 74.0386 172.832 74.1864 173 74.376C173.306 74.7628 173.465 75.2454 173.448 75.7381C173.451 76.0454 173.392 76.3501 173.273 76.6338C173.174 76.8576 173.035 77.0615 172.863 77.2354C173.111 77.4218 173.302 77.6743 173.414 77.9641C173.539 78.2849 173.601 78.6268 173.597 78.9711C173.599 79.3087 173.546 79.6444 173.44 79.9649C173.361 80.2263 173.229 80.4688 173.053 80.6777C172.898 80.848 172.702 80.9758 172.484 81.0488C172.249 81.1293 172.003 81.1696 171.755 81.168C171.366 81.193 170.979 81.1007 170.644 80.903C170.375 80.7074 170.172 80.4348 170.061 80.1212C169.924 79.7507 169.857 79.3581 169.862 78.9632C169.852 78.6007 169.916 78.24 170.05 77.9032C170.167 77.6247 170.369 77.3908 170.628 77.2354ZM171.132 78.8943C171.121 79.1616 171.184 79.4267 171.315 79.6601C171.352 79.7426 171.411 79.8137 171.485 79.8658C171.559 79.918 171.646 79.9495 171.736 79.9569C171.887 79.9569 172.022 79.8562 172.144 79.6548C172.272 79.4205 172.335 79.1558 172.324 78.889C172.336 78.6208 172.272 78.3549 172.142 78.1205C172.105 78.0375 172.046 77.9659 171.972 77.9132C171.898 77.8606 171.811 77.8287 171.72 77.821C171.632 77.8275 171.546 77.8577 171.474 77.9086C171.401 77.9594 171.343 78.029 171.307 78.1099C171.179 78.3508 171.118 78.6218 171.132 78.8943ZM171.198 75.8414C171.189 76.0487 171.24 76.2542 171.346 76.4324C171.387 76.5014 171.444 76.5586 171.514 76.5981C171.583 76.6377 171.662 76.6582 171.741 76.6576C171.816 76.6563 171.888 76.6349 171.951 76.5957C172.014 76.5565 172.065 76.501 172.099 76.435C172.201 76.2609 172.249 76.0612 172.24 75.86C172.249 75.6514 172.199 75.4443 172.094 75.2637C172.059 75.1947 172.005 75.1368 171.939 75.0964C171.872 75.0559 171.796 75.0345 171.719 75.0345C171.641 75.0345 171.565 75.0559 171.499 75.0964C171.433 75.1368 171.379 75.1947 171.344 75.2637C171.241 75.4384 171.19 75.6389 171.198 75.8414Z" fill="white"/>
<path d="M174.123 77.0657C174.123 75.7566 174.275 74.8396 174.579 74.3149C174.712 74.0649 174.913 73.8575 175.158 73.7168C175.404 73.5761 175.685 73.5078 175.968 73.5199C176.224 73.5102 176.479 73.5697 176.705 73.6922C176.892 73.8034 177.053 73.9556 177.174 74.1374C177.294 74.3177 177.39 74.5128 177.46 74.7177C177.536 74.9484 177.592 75.1851 177.627 75.4253C177.712 75.9563 177.754 76.4934 177.752 77.0312C177.752 78.282 177.615 79.1981 177.343 79.7793C177.226 80.0518 177.028 80.2815 176.776 80.4371C176.524 80.5927 176.229 80.6665 175.933 80.6485C175.609 80.6643 175.289 80.5659 175.029 80.3703C174.774 80.1518 174.579 79.8718 174.462 79.5567C174.33 79.2223 174.241 78.8723 174.197 78.5152C174.141 78.0342 174.116 77.55 174.123 77.0657V77.0657ZM175.347 77.0657C175.32 77.6693 175.37 78.274 175.496 78.865C175.597 79.1857 175.742 79.3474 175.931 79.3474C175.998 79.3437 176.063 79.3227 176.121 79.2865C176.178 79.2503 176.224 79.2001 176.257 79.1407C176.37 78.9421 176.439 78.7216 176.461 78.494C176.512 78.0374 176.533 77.578 176.524 77.1187C176.553 76.4966 176.503 75.8733 176.376 75.2636C176.275 74.9483 176.124 74.7919 175.925 74.7919C175.726 74.7919 175.573 74.9509 175.483 75.2742C175.368 75.8658 175.322 76.4688 175.347 77.071V77.0657Z" fill="white"/>
<path d="M162.421 70.5227L182.367 68.2595" stroke="#FCB753" stroke-width="2" stroke-miterlimit="10"/>
<path d="M162.512 85.4133L182.367 82.4956" stroke="#FCB753" stroke-width="2" stroke-miterlimit="10"/>
<path d="M162.608 55.4202L162.237 103.2" stroke="#FCB753" stroke-width="2" stroke-miterlimit="10"/>
<path d="M124.773 98.5733L182.367 89.2982" stroke="#FCB753" stroke-width="2" stroke-miterlimit="10"/>
<path d="M130.462 101.858V107.195L129.507 107.36V103.863C129.352 104.072 129.202 104.244 129.057 104.382C128.913 104.519 128.732 104.657 128.514 104.798V103.602C128.836 103.387 129.085 103.151 129.263 102.896C129.441 102.641 129.58 102.34 129.681 101.994L130.462 101.858Z" fill="white"/>
<path d="M134.254 106.539L131.42 107.029C131.452 106.592 131.551 106.169 131.714 105.761C131.88 105.351 132.189 104.848 132.642 104.251C132.919 103.886 133.096 103.615 133.173 103.437C133.251 103.259 133.289 103.096 133.289 102.948C133.289 102.788 133.251 102.658 133.173 102.56C133.097 102.458 133.002 102.418 132.886 102.438C132.765 102.459 132.666 102.534 132.589 102.664C132.513 102.794 132.462 103.01 132.436 103.31L131.49 103.356C131.527 102.939 131.595 102.607 131.694 102.361C131.793 102.113 131.932 101.912 132.111 101.759C132.292 101.604 132.542 101.499 132.86 101.444C133.193 101.386 133.451 101.4 133.635 101.485C133.82 101.57 133.966 101.725 134.071 101.95C134.177 102.172 134.231 102.434 134.231 102.735C134.231 103.054 134.17 103.37 134.047 103.683C133.927 103.995 133.707 104.352 133.387 104.756C133.196 104.992 133.069 105.156 133.004 105.248C132.941 105.34 132.866 105.46 132.779 105.606L134.254 105.351V106.539Z" fill="white"/>
<path d="M137.392 101.93L136.452 102.271C136.428 102.073 136.386 101.937 136.327 101.864C136.27 101.79 136.199 101.761 136.114 101.775C135.961 101.802 135.842 101.942 135.757 102.195C135.695 102.377 135.649 102.753 135.62 103.321C135.733 103.125 135.849 102.975 135.968 102.871C136.087 102.764 136.224 102.697 136.38 102.67C136.684 102.618 136.939 102.741 137.148 103.039C137.358 103.336 137.464 103.742 137.464 104.255C137.464 104.601 137.41 104.926 137.303 105.231C137.198 105.535 137.051 105.778 136.863 105.958C136.676 106.136 136.441 106.25 136.158 106.299C135.818 106.358 135.545 106.315 135.339 106.172C135.134 106.029 134.969 105.772 134.845 105.402C134.723 105.03 134.662 104.52 134.662 103.873C134.662 102.926 134.791 102.211 135.049 101.727C135.308 101.241 135.665 100.958 136.123 100.879C136.394 100.832 136.607 100.844 136.763 100.915C136.921 100.983 137.051 101.101 137.155 101.269C137.259 101.438 137.338 101.658 137.392 101.93ZM135.652 104.568C135.652 104.852 135.699 105.067 135.791 105.213C135.884 105.357 135.998 105.417 136.132 105.394C136.256 105.373 136.36 105.282 136.443 105.122C136.527 104.962 136.568 104.738 136.568 104.449C136.568 104.153 136.525 103.935 136.438 103.795C136.352 103.655 136.244 103.596 136.116 103.618C135.985 103.641 135.874 103.735 135.784 103.901C135.696 104.067 135.652 104.289 135.652 104.568Z" fill="white"/>
<path d="M140.068 100.196L140.55 100.113L139.697 105.683L139.219 105.765L140.068 100.196Z" fill="white"/>
<path d="M142.888 102.224C142.739 102.128 142.631 102.011 142.563 101.873C142.47 101.683 142.424 101.455 142.424 101.188C142.424 100.749 142.558 100.367 142.825 100.041C143.034 99.7904 143.31 99.6353 143.653 99.5759C144.108 99.4972 144.443 99.5728 144.66 99.8026C144.878 100.032 144.987 100.35 144.987 100.755C144.987 100.992 144.943 101.22 144.857 101.44C144.792 101.604 144.69 101.769 144.551 101.937C144.735 102.041 144.871 102.197 144.961 102.406C145.052 102.615 145.098 102.855 145.098 103.127C145.098 103.389 145.059 103.642 144.98 103.885C144.902 104.125 144.806 104.317 144.692 104.461C144.579 104.604 144.438 104.719 144.268 104.806C144.099 104.895 143.919 104.956 143.727 104.989C143.367 105.051 143.092 105.033 142.902 104.935C142.712 104.837 142.567 104.668 142.468 104.43C142.369 104.192 142.32 103.915 142.32 103.6C142.32 103.293 142.366 103.025 142.459 102.796C142.552 102.565 142.695 102.375 142.888 102.224ZM143.312 101.12C143.312 101.302 143.349 101.442 143.421 101.542C143.495 101.638 143.594 101.676 143.716 101.655C143.824 101.637 143.913 101.566 143.982 101.444C144.052 101.323 144.087 101.175 144.087 101C144.087 100.819 144.05 100.679 143.978 100.579C143.905 100.477 143.812 100.436 143.7 100.455C143.585 100.475 143.492 100.548 143.419 100.672C143.348 100.794 143.312 100.944 143.312 101.12ZM143.261 103.387C143.261 103.619 143.307 103.801 143.398 103.933C143.489 104.063 143.594 104.117 143.711 104.097C143.824 104.077 143.925 103.986 144.015 103.823C144.105 103.657 144.149 103.459 144.149 103.23C144.149 102.999 144.104 102.817 144.013 102.685C143.923 102.552 143.819 102.496 143.7 102.517C143.582 102.537 143.479 102.627 143.391 102.785C143.305 102.943 143.261 103.144 143.261 103.387Z" fill="white"/>
<path d="M146.404 100.707L145.511 100.614C145.585 100.163 145.727 99.8016 145.937 99.5313C146.149 99.2609 146.448 99.0922 146.835 99.0253C147.279 98.9485 147.599 99.0207 147.797 99.2417C147.995 99.4628 148.094 99.7666 148.094 100.153C148.094 100.38 148.054 100.592 147.974 100.79C147.893 100.987 147.772 101.169 147.609 101.336C147.741 101.363 147.841 101.404 147.911 101.459C148.024 101.547 148.111 101.674 148.173 101.84C148.236 102.003 148.268 102.206 148.268 102.449C148.268 102.755 148.216 103.057 148.113 103.357C148.009 103.654 147.86 103.896 147.665 104.082C147.47 104.266 147.214 104.386 146.898 104.44C146.588 104.494 146.344 104.48 146.165 104.399C145.987 104.318 145.84 104.18 145.724 103.985C145.61 103.788 145.522 103.531 145.46 103.215L146.404 102.858C146.441 103.145 146.498 103.339 146.575 103.44C146.654 103.539 146.754 103.578 146.874 103.557C147.001 103.535 147.106 103.445 147.19 103.287C147.275 103.13 147.317 102.931 147.317 102.693C147.317 102.449 147.276 102.268 147.194 102.148C147.114 102.029 147.004 101.981 146.865 102.005C146.791 102.018 146.689 102.064 146.559 102.144L146.608 101.094C146.66 101.097 146.701 101.096 146.731 101.091C146.854 101.069 146.957 100.991 147.039 100.855C147.122 100.719 147.164 100.567 147.164 100.4C147.164 100.24 147.133 100.118 147.071 100.033C147.01 99.9483 146.925 99.9153 146.816 99.934C146.705 99.9533 146.615 100.021 146.545 100.138C146.475 100.253 146.428 100.443 146.404 100.707Z" fill="white"/>
<path d="M154.391 101.414L155.186 101.138C155.207 101.288 155.243 101.39 155.292 101.444C155.342 101.499 155.403 101.52 155.475 101.507C155.603 101.485 155.704 101.379 155.776 101.188C155.828 101.047 155.867 100.761 155.893 100.331C155.798 100.483 155.7 100.599 155.599 100.68C155.498 100.76 155.381 100.812 155.249 100.835C154.991 100.88 154.773 100.791 154.595 100.569C154.418 100.347 154.33 100.043 154.33 99.6573C154.33 99.394 154.375 99.1463 154.466 98.9142C154.556 98.6821 154.68 98.4973 154.839 98.3599C154.997 98.2206 155.196 98.1303 155.436 98.0888C155.724 98.039 155.955 98.0675 156.129 98.1745C156.303 98.2796 156.442 98.4721 156.546 98.7518C156.65 99.0295 156.703 99.4118 156.703 99.8989C156.703 100.615 156.593 101.159 156.375 101.53C156.156 101.9 155.853 102.118 155.465 102.186C155.236 102.225 155.055 102.22 154.923 102.171C154.791 102.12 154.681 102.032 154.593 101.906C154.506 101.781 154.438 101.616 154.391 101.414ZM155.864 99.3892C155.864 99.1746 155.825 99.0136 155.746 98.9063C155.668 98.7973 155.572 98.7525 155.459 98.772C155.353 98.7903 155.265 98.8606 155.194 98.9829C155.125 99.1049 155.09 99.276 155.09 99.4961C155.09 99.7179 155.126 99.8812 155.198 99.986C155.272 100.091 155.363 100.133 155.471 100.115C155.584 100.095 155.677 100.022 155.752 99.8956C155.827 99.769 155.864 99.6002 155.864 99.3892Z" fill="white"/>
<path d="M157.363 97.823L159.262 97.4944V98.3737L157.975 98.5964L157.907 99.2035C157.996 99.1304 158.083 99.0719 158.17 99.0281C158.258 98.984 158.344 98.9547 158.429 98.9399C158.717 98.8901 158.951 98.9696 159.13 99.1785C159.31 99.3873 159.399 99.6739 159.399 100.038C159.399 100.294 159.353 100.549 159.26 100.801C159.168 101.053 159.037 101.256 158.867 101.41C158.698 101.564 158.481 101.664 158.217 101.709C158.027 101.742 157.864 101.746 157.728 101.721C157.593 101.694 157.478 101.64 157.382 101.559C157.288 101.476 157.211 101.377 157.152 101.263C157.093 101.149 157.044 101.002 157.005 100.823L157.814 100.561C157.834 100.737 157.88 100.865 157.952 100.946C158.024 101.026 158.11 101.057 158.209 101.04C158.32 101.02 158.412 100.947 158.484 100.819C158.557 100.689 158.594 100.509 158.594 100.278C158.594 100.041 158.557 99.8746 158.484 99.7773C158.411 99.6799 158.313 99.6418 158.191 99.6629C158.114 99.6762 158.04 99.7153 157.967 99.7801C157.914 99.8273 157.855 99.906 157.791 100.016L157.109 99.999L157.363 97.823Z" fill="white"/>
<path d="M170.553 86.6196L169.781 86.5765C169.845 86.2515 169.968 85.9896 170.15 85.7909C170.333 85.592 170.591 85.4637 170.925 85.4059C171.309 85.3395 171.586 85.3828 171.757 85.5358C171.928 85.6888 172.014 85.9035 172.014 86.1799C172.014 86.342 171.979 86.4947 171.91 86.6381C171.84 86.7816 171.735 86.9149 171.595 87.0381C171.709 87.0543 171.795 87.0811 171.856 87.1184C171.953 87.1783 172.029 87.2668 172.082 87.3838C172.137 87.4989 172.164 87.6435 172.164 87.8175C172.164 88.0359 172.12 88.2535 172.03 88.4704C171.94 88.6855 171.811 88.8622 171.643 89.0006C171.475 89.1372 171.254 89.2292 170.98 89.2766C170.712 89.3229 170.501 89.3193 170.346 89.266C170.193 89.2123 170.066 89.1174 169.965 88.9812C169.866 88.8431 169.79 88.6617 169.737 88.4372L170.553 88.1578C170.585 88.3621 170.634 88.4995 170.701 88.5698C170.769 88.6382 170.855 88.6634 170.96 88.6454C171.069 88.6264 171.16 88.5595 171.232 88.4446C171.306 88.3295 171.342 88.1867 171.342 88.016C171.342 87.842 171.307 87.7133 171.236 87.63C171.167 87.5465 171.072 87.5151 170.952 87.5359C170.887 87.547 170.799 87.5828 170.687 87.6432L170.729 86.8911C170.774 86.8917 170.81 86.8899 170.835 86.8855C170.942 86.867 171.031 86.8081 171.102 86.7088C171.174 86.6093 171.21 86.4998 171.21 86.3804C171.21 86.2661 171.183 86.1794 171.13 86.1204C171.077 86.0614 171.003 86.04 170.909 86.0562C170.813 86.0728 170.735 86.1239 170.675 86.2094C170.615 86.2932 170.574 86.4299 170.553 86.6196Z" fill="white"/>
<path d="M172.83 85.1403L174.768 84.8049V85.6367L173.455 85.8639L173.385 86.4392C173.476 86.3688 173.565 86.3124 173.654 86.2698C173.743 86.227 173.831 86.1981 173.918 86.1831C174.212 86.1322 174.451 86.2044 174.634 86.3997C174.817 86.5949 174.908 86.8649 174.908 87.2096C174.908 87.4518 174.861 87.693 174.766 87.9329C174.673 88.1726 174.539 88.3664 174.365 88.5142C174.193 88.6617 173.972 88.7589 173.702 88.8056C173.508 88.8391 173.342 88.8449 173.203 88.8229C173.065 88.7989 172.947 88.7493 172.85 88.674C172.754 88.5968 172.675 88.5046 172.615 88.3972C172.555 88.2899 172.505 88.1518 172.465 87.983L173.291 87.7249C173.311 87.8904 173.358 88.0111 173.431 88.0871C173.505 88.1614 173.592 88.1898 173.694 88.1722C173.807 88.1526 173.901 88.0818 173.974 87.9599C174.049 87.836 174.087 87.6649 174.087 87.4465C174.087 87.2229 174.049 87.0656 173.974 86.9745C173.9 86.8833 173.8 86.8485 173.676 86.87C173.597 86.8837 173.521 86.9216 173.447 86.9838C173.392 87.0291 173.332 87.1044 173.267 87.2095L172.571 87.2019L172.83 85.1403Z" fill="white"/>
<path d="M175.317 87.4178L176.189 87.2669V88.3111L175.317 88.462V87.4178Z" fill="white"/>
<path d="M176.935 84.43L178.873 84.0945V84.9264L177.56 85.1536L177.49 85.7288C177.581 85.6584 177.671 85.602 177.759 85.5594C177.848 85.5166 177.937 85.4877 178.024 85.4727C178.318 85.4218 178.556 85.494 178.739 85.6893C178.922 85.8845 179.014 86.1545 179.014 86.4992C179.014 86.7415 178.966 86.9826 178.871 87.2225C178.778 87.4622 178.644 87.656 178.471 87.8038C178.298 87.9514 178.077 88.0485 177.807 88.0952C177.613 88.1287 177.447 88.1345 177.308 88.1125C177.17 88.0885 177.053 88.0389 176.955 87.9636C176.859 87.8864 176.781 87.7942 176.721 87.6869C176.66 87.5795 176.61 87.4415 176.57 87.2726L177.396 87.0146C177.416 87.18 177.463 87.3007 177.536 87.3768C177.61 87.4511 177.697 87.4794 177.799 87.4618C177.913 87.4422 178.006 87.3714 178.08 87.2495C178.154 87.1256 178.192 86.9545 178.192 86.7361C178.192 86.5126 178.154 86.3552 178.08 86.2641C178.005 86.173 177.905 86.1381 177.781 86.1596C177.702 86.1733 177.626 86.2112 177.552 86.2734C177.498 86.3187 177.438 86.394 177.372 86.4992L176.676 86.4915L176.935 84.43Z" fill="white"/>
<path d="M173.487 99.7218L169.737 100.371C169.78 99.8366 169.91 99.3194 170.127 98.8191C170.345 98.3156 170.755 97.6962 171.354 96.961C171.72 96.5106 171.955 96.1761 172.057 95.9576C172.159 95.7391 172.21 95.5396 172.21 95.3592C172.21 95.1642 172.159 95.0072 172.057 94.8881C171.957 94.7658 171.83 94.7179 171.676 94.7444C171.517 94.7721 171.386 94.866 171.284 95.0263C171.183 95.1863 171.116 95.4497 171.081 95.8166L169.829 95.8892C169.878 95.3801 169.968 94.9746 170.099 94.6726C170.23 94.3676 170.414 94.1204 170.651 93.9309C170.891 93.7382 171.221 93.6053 171.643 93.5324C172.083 93.4563 172.424 93.4684 172.668 93.5689C172.913 93.669 173.106 93.8555 173.245 94.1282C173.386 94.3977 173.456 94.7158 173.456 95.0825C173.456 95.4724 173.376 95.8589 173.214 96.2419C173.054 96.6246 172.763 97.065 172.339 97.5632C172.088 97.8541 171.919 98.0564 171.833 98.1703C171.749 98.2837 171.65 98.4304 171.535 98.6103L173.487 98.2725V99.7218Z" fill="white"/>
<path d="M174.076 98.1837L175.319 97.7459C175.352 97.9876 175.407 98.1527 175.485 98.2411C175.563 98.3295 175.658 98.364 175.77 98.3445C175.971 98.3098 176.127 98.1387 176.24 97.8311C176.322 97.6045 176.383 97.1442 176.424 96.4504C176.275 96.6945 176.121 96.8811 175.964 97.0102C175.806 97.1393 175.624 97.2217 175.417 97.2575C175.014 97.3273 174.674 97.1825 174.395 96.8232C174.119 96.4636 173.981 95.9724 173.981 95.3496C173.981 94.9247 174.052 94.5255 174.193 94.1518C174.334 93.7782 174.528 93.4812 174.776 93.2608C175.024 93.0375 175.335 92.8935 175.709 92.8287C176.159 92.7508 176.52 92.7989 176.792 92.973C177.064 93.1442 177.281 93.4559 177.443 93.9081C177.607 94.357 177.688 94.9744 177.688 95.7601C177.688 96.9154 177.518 97.7919 177.176 98.3894C176.834 98.984 176.361 99.3337 175.755 99.4385C175.397 99.5004 175.115 99.4911 174.908 99.4104C174.701 99.3269 174.53 99.1834 174.392 98.9802C174.255 98.7769 174.15 98.5114 174.076 98.1837ZM176.378 94.9305C176.378 94.5842 176.317 94.3242 176.194 94.1504C176.071 93.9738 175.922 93.9007 175.746 93.9311C175.58 93.9598 175.442 94.0725 175.332 94.2691C175.223 94.4654 175.169 94.741 175.169 95.0961C175.169 95.454 175.225 95.7178 175.338 95.8875C175.452 96.0569 175.594 96.1268 175.764 96.0975C175.94 96.067 176.086 95.95 176.203 95.7465C176.32 95.543 176.378 95.271 176.378 94.9305Z" fill="white"/>
<path fill-rule="evenodd" clip-rule="evenodd" d="M159.85 61.0502L159.239 64.0053L158.736 63.0009L158.37 63.7334H156.606L155.721 62.4053L154.933 63.9808L153.335 64.1584L153.078 61.9383L152.633 63.7952L152.115 63.7854L151.84 62.4132L151.695 64.5157L148.742 64.6711L148.35 63.4966L147.776 64.645L146.042 64.8184L145.942 63.853L145.867 65.0134L144.769 65.2331L144.505 64.3533L144.064 65.3234H142.458L142.204 62.5295L141.538 65.8609L140.918 65.2408L140.756 65.5645L138.734 65.8754L137.913 64.702L136.889 65.9529L135.58 66.3269L135.311 63.9032L134.741 66.1827L134.221 66.1513L134.03 64.6305L133.65 66.6106L131.135 67.0821L130.64 65.7966L130.16 67.0459H128.412L128.157 64.4123L127.586 67.1009L127.073 67.1221L126.803 66.222L126.719 66.3058C126.616 66.4093 126.448 66.4093 126.344 66.3058C126.241 66.2023 126.241 66.0345 126.344 65.931L127.056 65.2198L127.283 65.9767L127.995 62.6184L128.519 62.6478L128.893 66.5159H129.796L130.64 64.3202L131.471 66.4798L133.197 66.1562L133.826 62.8883L134.349 62.9055L134.571 64.6778L135.154 62.3441L135.675 62.3791L136.038 65.645L136.584 65.4889L137.946 63.8248L138.98 65.3014L140.404 65.0823L140.772 64.346L141.212 64.7859L142.043 60.6339L142.567 60.6618L142.942 64.7934H143.722L144.607 62.8484L145.138 64.6187L145.365 64.5734L145.616 60.6688L146.145 60.6586L146.515 64.2384L147.432 64.1467L148.448 62.1151L149.117 64.1206L151.199 64.0111L151.448 60.4026L151.972 60.3689L152.398 62.4998L152.912 60.359L153.433 60.3905L153.801 63.5734L154.588 63.4859L155.655 61.3514L156.89 63.2034H158.042L158.736 61.8158L159.029 62.4014L159.669 59.3071L160.192 59.3316L160.562 62.6581L162.43 62.5414C162.577 62.5323 162.702 62.6433 162.712 62.7893C162.721 62.9354 162.61 63.0612 162.464 63.0704L160.091 63.2186L159.85 61.0502Z" fill="#FCB753"/>
<path fill-rule="evenodd" clip-rule="evenodd" d="M159.85 68.8678L159.239 71.8228L158.736 70.8184L158.37 71.5509H156.606L155.721 70.2228L154.933 71.7984L153.335 71.9759L153.078 69.7558L152.633 71.6127L152.115 71.6029L151.84 70.2307L151.695 72.3332L148.742 72.4886L148.35 71.3141L147.776 72.4626L146.042 72.6359L145.942 71.6705L145.867 72.8309L144.769 73.0506L144.505 72.1709L144.064 73.1409H142.458L142.204 70.347L141.538 73.6784L140.918 73.0583L140.756 73.382L138.734 73.6929L137.913 72.5195L136.889 73.7704L135.58 74.1444L135.311 71.7207L134.741 74.0002L134.221 73.9688L134.03 72.448L133.65 74.4281L131.135 74.8996L130.64 73.6141L130.16 74.8634H128.412L128.157 72.2298L127.586 74.9184L127.073 74.9396L126.803 74.0395L126.719 74.1233C126.616 74.2268 126.448 74.2268 126.344 74.1233C126.241 74.0198 126.241 73.852 126.344 73.7485L127.056 73.0373L127.283 73.7942L127.995 70.4359L128.519 70.4653L128.893 74.3334H129.796L130.64 72.1377L131.471 74.2973L133.197 73.9737L133.826 70.7058L134.349 70.723L134.571 72.4953L135.154 70.1616L135.675 70.1966L136.038 73.4625L136.584 73.3064L137.946 71.6423L138.98 73.1189L140.404 72.8998L140.772 72.1635L141.212 72.6034L142.043 68.4514L142.567 68.4794L142.942 72.6109H143.722L144.607 70.6659L145.138 72.4362L145.365 72.3909L145.616 68.4863L146.145 68.4761L146.515 72.0559L147.432 71.9642L148.448 69.9326L149.117 71.9382L151.199 71.8286L151.448 68.2201L151.972 68.1864L152.398 70.3173L152.912 68.1765L153.433 68.208L153.801 71.3909L154.588 71.3034L155.655 69.1689L156.89 71.0209H158.042L158.736 69.6333L159.029 70.2189L159.669 67.1246L160.192 67.1491L160.562 70.4756L162.43 70.3589C162.577 70.3498 162.702 70.4608 162.712 70.6068C162.721 70.7529 162.61 70.8787 162.464 70.8879L160.091 71.0361L159.85 68.8678Z" fill="#FCB753"/>
<path fill-rule="evenodd" clip-rule="evenodd" d="M159.463 76.96L160.174 78.7366L160.175 78.7401L160.768 80.1635H162.315C162.461 80.1635 162.58 80.2822 162.58 80.4285C162.58 80.5749 162.461 80.6935 162.315 80.6935H160.415L159.684 78.9387L159.335 78.067L158.722 78.9419L158.032 82.9461H156.43L153.912 81.8861H152.383L151.608 80.9556L150.928 78.8045L150.764 78.9692L149.809 83.7411H148.462L146.342 82.5486H144.158V81.6971L143.108 80.0173L142.819 80.5227L142.022 84.507L141.32 85.5597L137.986 83.4761H136.024L135.011 80.8186L134.73 80.9875L134.054 86.1261H132.16L129.642 84.6686H127.694L126.56 82.4021C126.495 82.2712 126.548 82.112 126.679 82.0465C126.809 81.9811 126.969 82.0341 127.034 82.1651L128.021 84.1386H129.784L132.302 85.5961H133.589L134.238 80.6646L135.281 80.0385L136.389 82.9461H138.138L141.165 84.8375L141.523 84.3002L142.316 80.3344L143.088 78.9847L144.688 81.5451V82.0186H146.481L148.601 83.2111H149.375L150.275 78.7079L151.171 77.8125L152.082 80.6965L152.632 81.3561H154.019L156.537 82.4161H157.585L158.22 78.7351L159.463 76.96Z" fill="#FCB753"/>
<path fill-rule="evenodd" clip-rule="evenodd" d="M150.305 88.4456C149.871 88.4974 149.443 88.5406 149.062 88.5406C148.936 88.5406 148.735 88.5925 148.452 88.7138C148.177 88.8319 147.851 89.004 147.484 89.217C146.808 89.6096 146.016 90.1285 145.181 90.6755C145.109 90.7222 145.038 90.7691 144.966 90.8161C144.056 91.4119 143.105 92.0291 142.223 92.5307C141.346 93.0289 140.512 93.4284 139.839 93.57C139.641 93.6117 139.464 93.6506 139.304 93.6856C138.967 93.7592 138.708 93.8157 138.502 93.8458C138.178 93.8928 137.937 93.8831 137.665 93.7738C137.442 93.6842 137.2 93.5271 136.874 93.3147C136.84 93.2928 136.806 93.2703 136.77 93.2473C136.38 92.9937 135.838 92.6474 135.017 92.1875C133.788 91.4996 132.166 91.6286 130.586 92.1167C129.016 92.6016 127.55 93.4224 126.684 94.0284C126.564 94.1123 126.399 94.0831 126.315 93.9632C126.231 93.8433 126.26 93.6781 126.38 93.5942C127.281 92.9634 128.797 92.1147 130.43 91.6103C132.052 91.109 133.854 90.9289 135.276 91.725C136.111 92.1926 136.663 92.5456 137.059 92.8027C137.087 92.8208 137.114 92.8383 137.14 92.8552C137.495 93.0857 137.69 93.2128 137.862 93.2819C138.021 93.3456 138.161 93.3598 138.425 93.3213C138.613 93.294 138.843 93.2438 139.164 93.1735C139.327 93.1379 139.513 93.097 139.73 93.0514C140.316 92.928 141.089 92.5656 141.961 92.07C142.826 91.5778 143.764 90.9695 144.676 90.3727C144.748 90.3251 144.821 90.2776 144.893 90.2302C145.725 89.6857 146.529 89.1589 147.218 88.7587C147.593 88.541 147.94 88.357 148.243 88.2267C148.54 88.0995 148.823 88.0106 149.062 88.0106C149.409 88.0106 149.81 87.971 150.242 87.9193C150.366 87.9044 150.494 87.8885 150.623 87.8723C150.936 87.8332 151.258 87.7929 151.571 87.7634C152.016 87.7214 152.46 87.6991 152.866 87.732C153.27 87.7647 153.658 87.8537 153.973 88.0509C154.28 88.2428 154.528 88.5226 154.739 88.8135C154.899 89.0339 155.048 89.2754 155.188 89.502C155.232 89.5725 155.274 89.6415 155.316 89.7081C155.498 89.998 155.666 90.2423 155.844 90.4145C156.017 90.5827 156.178 90.6607 156.351 90.6607C156.576 90.6607 156.959 90.5874 157.446 90.4438C157.925 90.3023 158.482 90.0991 159.045 89.8545C160.182 89.3601 161.296 88.7161 161.852 88.0984C161.95 87.9896 162.118 87.9807 162.227 88.0787C162.336 88.1766 162.344 88.3441 162.246 88.4529C161.61 89.1602 160.405 89.8412 159.256 90.3406C158.676 90.5928 158.098 90.8037 157.596 90.9521C157.101 91.0983 156.656 91.1907 156.351 91.1907C155.993 91.1907 155.707 91.0202 155.475 90.795C155.246 90.5738 155.049 90.2799 154.867 89.9901C154.821 89.9157 154.775 89.8416 154.729 89.768C154.592 89.5453 154.457 89.3278 154.31 89.1249C154.115 88.8568 153.915 88.6397 153.692 88.5004C153.478 88.3663 153.186 88.2896 152.824 88.2603C152.463 88.2311 152.055 88.2501 151.621 88.291C151.316 88.3198 151.007 88.3585 150.698 88.3971C150.567 88.4135 150.435 88.4299 150.305 88.4456Z" fill="#FCB753"/>
</g>
</svg>
