<svg width="39" height="39" viewBox="0 0 39 39" fill="none" xmlns="http://www.w3.org/2000/svg">
<path fill-rule="evenodd" clip-rule="evenodd" d="M28.9789 1.10941C29.0837 1.20816 29.1434 1.34841 29.1434 1.49553V37.5037C29.1434 37.6508 29.0837 37.7911 28.9789 37.8898C28.8742 37.9886 28.7342 38.0366 28.5936 38.0221L6.83856 35.7715C6.58265 35.7451 6.3877 35.5209 6.3877 35.2532V3.74604C6.3877 3.47829 6.58265 3.25415 6.83856 3.22767L28.5936 0.977164C28.7342 0.962618 28.8742 1.01065 28.9789 1.10941ZM7.38836 4.21777V34.7814L28.1428 36.9284V2.07078L7.38836 4.21777Z" fill="#333333"/>
<path fill-rule="evenodd" clip-rule="evenodd" d="M28.2529 3.88399C28.2529 3.59749 28.4798 3.36523 28.7597 3.36523H32.7211C33.001 3.36523 33.2279 3.59749 33.2279 3.88399V35.1158C33.2279 35.4023 33.001 35.6346 32.7211 35.6346H28.7905C28.5106 35.6346 28.2837 35.4023 28.2837 35.1158C28.2837 34.8293 28.5106 34.5971 28.7905 34.5971H32.2144V4.40275H28.7597C28.4798 4.40275 28.2529 4.1705 28.2529 3.88399Z" fill="#333333"/>
<path fill-rule="evenodd" clip-rule="evenodd" d="M16.307 10.9947C13.6527 10.9947 11.4789 13.3176 11.4789 16.2121C11.4789 19.1066 13.6527 21.4295 16.307 21.4295C18.9612 21.4295 21.135 19.1066 21.135 16.2121C21.135 13.3176 18.9612 10.9947 16.307 10.9947ZM10.4722 16.2121C10.4722 12.7598 13.0723 9.9375 16.307 9.9375C19.5417 9.9375 22.1418 12.7598 22.1418 16.2121C22.1418 19.6644 19.5417 22.4867 16.307 22.4867C13.0723 22.4867 10.4722 19.6644 10.4722 16.2121Z" fill="#333333"/>
<path fill-rule="evenodd" clip-rule="evenodd" d="M19.3726 20.2497C19.5705 20.047 19.8914 20.047 20.0893 20.2497L24.327 24.5898C24.5249 24.7925 24.5249 25.1212 24.327 25.3239C24.1291 25.5266 23.8082 25.5266 23.6103 25.3239L19.3726 20.9837C19.1746 20.781 19.1746 20.4524 19.3726 20.2497Z" fill="#333333"/>
<path fill-rule="evenodd" clip-rule="evenodd" d="M10.4741 28.3814C10.4983 28.0705 10.7439 27.8404 11.0227 27.8674L24.013 29.1275C24.2917 29.1545 24.498 29.4285 24.4738 29.7394C24.4495 30.0503 24.2039 30.2804 23.9252 30.2534L10.9349 28.9933C10.6562 28.9663 10.4499 28.6923 10.4741 28.3814Z" fill="#333333"/>
</svg>