<svg width="290" height="172" viewBox="0 0 290 172" fill="none" xmlns="http://www.w3.org/2000/svg">
<mask id="mask0_644_6871" style="mask-type:alpha" maskUnits="userSpaceOnUse" x="0" y="0" width="290" height="172">
<rect width="290" height="172" rx="5" fill="#43B4E4"/>
</mask>
<g mask="url(#mask0_644_6871)">
<rect width="290" height="172" rx="5" fill="#92C83E"/>
<path d="M159 148C190.48 148 216 144.866 216 141C216 137.134 190.48 134 159 134C127.52 134 102 137.134 102 141C102 144.866 127.52 148 159 148Z" fill="#82B237"/>
<path d="M200.755 90.0763H170.874V108.421H200.755V90.0763Z" fill="white"/>
<path d="M89.8024 51.3929V40.7277H200.604V51.3929H89.8024Z" fill="white" stroke="#4C9E45" stroke-width="0.302473"/>
<path d="M194.253 59.8289C196.684 61.7353 198.391 64.4149 199.092 67.424L185.82 70.5274L194.253 59.8289Z" fill="white"/>
<path d="M182.701 57.255C184.696 56.7868 186.771 56.7752 188.771 57.2209C190.772 57.6666 192.645 58.5581 194.253 59.829L185.808 70.5275L199.08 67.4241C199.694 70.0495 199.516 72.7981 198.568 75.3222C197.62 77.8463 195.945 80.0327 193.755 81.6047C191.564 83.1768 188.956 84.064 186.262 84.1541C183.567 84.2442 180.906 83.5332 178.615 82.111C176.325 80.6888 174.507 78.6193 173.393 76.1641C172.278 73.709 171.917 70.9785 172.354 68.3179C172.791 65.6574 174.008 63.1862 175.85 61.2171C177.692 59.2479 180.076 57.8691 182.701 57.255Z" fill="white"/>
<path d="M170.874 132.172H118.737C120.237 130.097 121.045 127.602 121.045 125.042C121.045 122.482 120.237 119.987 118.737 117.913H170.874C169.053 120.125 168.13 122.941 168.288 125.801C168.463 128.143 169.368 130.37 170.874 132.172Z" fill="#D1E8AE"/>
<path d="M135.11 108.273V98.5697H165.13V108.273H135.11Z" fill="white" stroke="#4C9E45" stroke-width="0.302473"/>
<path d="M135.11 94.7646V56.1811H165.13V94.7646H135.11Z" fill="white" stroke="#4C9E45" stroke-width="0.302473"/>
<path d="M89.8024 108.27V81.5587H130.325V108.27H89.8024Z" fill="white" stroke="#4C9E45" stroke-width="0.302473"/>
<path d="M130.476 56.898H111.822V76.9096H130.476V56.898Z" fill="white"/>
<path d="M89.8024 76.7584V57.0492H108.153V76.7584H89.8024Z" fill="white" stroke="#4C9E45" stroke-width="0.302473"/>
<path d="M105.588 136.757V135.13C105.588 134.345 105.9 133.593 106.455 133.038C107.01 132.483 107.762 132.172 108.547 132.172H181.065C181.453 132.171 181.838 132.247 182.198 132.396C182.557 132.544 182.883 132.762 183.158 133.037C183.433 133.312 183.651 133.638 183.8 133.997C183.949 134.356 184.026 134.741 184.026 135.13V136.757C184.026 137.146 183.949 137.531 183.8 137.89C183.651 138.249 183.433 138.575 183.158 138.85C182.883 139.125 182.557 139.343 182.198 139.491C181.838 139.639 181.453 139.716 181.065 139.715H108.547C107.762 139.715 107.01 139.404 106.455 138.849C105.9 138.294 105.588 137.542 105.588 136.757Z" fill="white"/>
<path d="M80.0781 39.7628C80.0781 39.1358 80.2017 38.5149 80.4417 37.9356C80.6818 37.3563 81.0337 36.83 81.4772 36.3867C81.9207 35.9435 82.4472 35.592 83.0267 35.3523C83.6061 35.1126 84.2271 34.9894 84.8542 34.9898H204.761C206.027 34.9898 207.241 35.4927 208.136 36.3878C209.031 37.2829 209.534 38.497 209.534 39.7628V108.675C209.534 109.942 209.031 111.156 208.136 112.051C207.241 112.947 206.027 113.451 204.761 113.451H84.8542C83.5875 113.451 82.3727 112.948 81.477 112.053C80.5813 111.157 80.0781 109.942 80.0781 108.675V39.7628ZM200.765 108.424V90.0763H170.884V108.424H200.765ZM200.765 51.5593V40.5916H89.6575V51.5593H200.765ZM188.92 83.8211C191.546 83.2072 193.93 81.8286 195.772 79.8596C197.614 77.8906 198.83 75.4197 199.268 72.7593C199.705 70.0989 199.344 67.3684 198.23 64.9133C197.116 62.4581 195.299 60.3884 193.008 58.9659C190.718 57.5435 188.057 56.8321 185.363 56.9218C182.668 57.0115 180.06 57.8982 177.87 59.4698C175.679 61.0415 174.003 63.2274 173.055 65.7513C172.106 68.2751 171.928 71.0235 172.541 73.649C173.368 77.1648 175.556 80.2089 178.625 82.1132C181.694 84.0174 185.394 84.6262 188.911 83.806L188.92 83.8211ZM165.276 108.421V98.4155H134.962V108.421H165.276ZM165.276 94.9128V56.0268H134.962V94.9128H165.276ZM130.491 108.421V81.4074H89.6575V108.421H130.491ZM130.491 76.9066V56.898H111.838V76.9066H130.491ZM108.32 76.9066V56.898H89.6575V76.9066H108.32Z" fill="#D1E8AE"/>
<path d="M84.8534 34.9898C84.2263 34.9894 83.6053 35.1126 83.0259 35.3523C82.4465 35.592 81.92 35.9434 81.4764 36.3867C81.0329 36.83 80.681 37.3563 80.441 37.9355C80.2009 38.5148 80.0773 39.1358 80.0773 39.7628V108.675C80.0773 109.942 80.5806 111.157 81.4762 112.053C82.3719 112.948 83.5867 113.451 84.8534 113.451H204.76C206.026 113.451 207.24 112.947 208.135 112.051C209.03 111.156 209.533 109.942 209.533 108.675V39.7628C209.533 38.4969 209.03 37.2829 208.135 36.3878C207.24 35.4927 206.026 34.9898 204.76 34.9898H84.8534ZM207.107 117.438H82.5062C80.7812 117.438 79.1268 116.753 77.9067 115.533C76.6866 114.314 76.0008 112.66 76 110.935V37.5034C76.0008 35.7783 76.6866 34.1242 77.9067 32.9047C79.1268 31.6852 80.7812 31.0002 82.5062 31.0002H207.107C208.832 31.001 210.485 31.6864 211.705 32.9058C212.924 34.1252 213.61 35.7789 213.61 37.5034V110.935C213.61 112.659 212.924 114.313 211.705 115.532C210.485 116.752 208.832 117.437 207.107 117.438Z" fill="white"/>
<path d="M207.107 31H82.5032C78.9116 31 76 33.9116 76 37.5032V110.935C76 114.526 78.9116 117.438 82.5032 117.438H207.107C210.699 117.438 213.61 114.526 213.61 110.935V37.5032C213.61 33.9116 210.699 31 207.107 31Z" stroke="#4C9E45" stroke-width="2.11731" stroke-miterlimit="10"/>
<path d="M118.737 132.172C120.237 130.097 121.045 127.602 121.045 125.042C121.045 122.482 120.237 119.987 118.737 117.913H170.874C169.053 120.125 168.13 122.941 168.288 125.801C168.463 128.143 169.368 130.37 170.874 132.172" stroke="#4C9E45" stroke-width="2.11731" stroke-miterlimit="10"/>
<path d="M170.874 132.172H181.065C181.453 132.171 181.838 132.247 182.198 132.396C182.557 132.544 182.883 132.762 183.158 133.037C183.433 133.312 183.651 133.638 183.8 133.997C183.949 134.356 184.026 134.741 184.026 135.13V136.757C184.026 137.146 183.949 137.531 183.8 137.89C183.651 138.249 183.433 138.575 183.158 138.85C182.883 139.125 182.557 139.343 182.198 139.491C181.838 139.639 181.453 139.716 181.065 139.715H108.547C107.762 139.715 107.01 139.404 106.455 138.849C105.9 138.294 105.588 137.542 105.588 136.757V135.13C105.588 134.345 105.9 133.593 106.455 133.038C107.01 132.483 107.762 132.172 108.547 132.172H170.874Z" stroke="#4C9E45" stroke-width="2.11731" stroke-miterlimit="10"/>
<path d="M204.761 34.9898H84.8512C82.2151 34.9898 80.0781 37.1268 80.0781 39.7628V108.678C80.0781 111.314 82.2151 113.451 84.8512 113.451H204.761C207.397 113.451 209.534 111.314 209.534 108.678V39.7628C209.534 37.1268 207.397 34.9898 204.761 34.9898Z" stroke="#4C9E45" stroke-width="2.11731" stroke-miterlimit="10"/>
<path d="M200.756 40.5765H89.6511V51.5442H200.756V40.5765Z" stroke="#4C9E45" stroke-width="2.11731" stroke-miterlimit="10"/>
<path d="M108.305 56.898H89.6511V76.9096H108.305V56.898Z" stroke="#4C9E45" stroke-width="2.11731" stroke-miterlimit="10"/>
<path d="M130.476 56.898H111.822V76.9096H130.476V56.898Z" stroke="#4C9E45" stroke-width="2.11731" stroke-miterlimit="10"/>
<path d="M130.476 81.4075H89.6511V108.421H130.476V81.4075Z" stroke="#4C9E45" stroke-width="2.11731" stroke-miterlimit="10"/>
<path d="M165.282 56.0298H134.959V94.9158H165.282V56.0298Z" stroke="#4C9E45" stroke-width="2.11731" stroke-miterlimit="10"/>
<path d="M165.282 98.4185H134.959V108.424H165.282V98.4185Z" stroke="#4C9E45" stroke-width="2.11731" stroke-miterlimit="10"/>
<path d="M199.08 67.4241C199.816 70.5584 199.419 73.8521 197.959 76.7218C196.499 79.5915 194.071 81.8519 191.105 83.1027C188.138 84.3535 184.824 84.514 181.751 83.5557C178.677 82.5973 176.042 80.5821 174.311 77.8669C172.581 75.1516 171.868 71.9117 172.298 68.7209C172.728 65.5302 174.273 62.5945 176.66 60.434C179.047 58.2734 182.122 57.0274 185.339 56.9167C188.557 56.806 191.71 57.8376 194.24 59.829C196.667 61.7395 198.373 64.4173 199.08 67.4241V67.4241Z" stroke="#4C9E45" stroke-width="2.11731" stroke-miterlimit="10"/>
<path d="M199.08 67.427L185.807 70.5304L194.249 59.8289" stroke="#4C9E45" stroke-width="2.11731" stroke-miterlimit="10"/>
<path d="M200.755 90.0763H170.874V108.421H200.755V90.0763Z" stroke="#4C9E45" stroke-width="2.11731" stroke-miterlimit="10"/>
</g>
</svg>
