<svg width="70" height="70" viewBox="0 0 70 70" fill="none" xmlns="http://www.w3.org/2000/svg">
<circle cx="34.3397" cy="34.3396" r="33.0189" fill="#4C9E45"/>
<ellipse cx="34.3397" cy="34.3395" rx="25.8797" ry="25.8796" fill="white"/>
<circle cx="34.3397" cy="34.3396" r="33.0189" fill="#D9E5D8"/>
<path d="M34.3397 1.32074C43.0968 1.32074 51.4953 4.7995 57.6875 10.9917C63.8798 17.184 67.3585 25.5825 67.3585 34.3396C67.3585 43.0968 63.8798 51.4952 57.6875 57.6875C51.4953 63.8797 43.0968 67.3585 34.3397 67.3585L34.3397 34.3396L34.3397 1.32074Z" fill="#4C9E45"/>
<path d="M26.634 66.4467C23.9401 65.8002 21.3383 64.8172 18.8899 63.521L34.3397 34.3396L26.634 66.4467Z" fill="#4C9E45"/>
<path d="M12.681 59.2625C10.614 57.4661 8.77839 55.4196 7.21661 53.1701L34.3397 34.3396L12.681 59.2625Z" fill="#4C9E45" fill-opacity="0.85"/>
<path d="M3.62035 46.4462C2.60207 43.8624 1.91383 41.1605 1.57194 38.4044L34.3397 34.3396L3.62035 46.4462Z" fill="#4C9E45" fill-opacity="0.7"/>
<path d="M1.50256 30.8797C1.79476 28.1065 2.43707 25.3815 3.41417 22.7698L34.3397 34.3396L1.50256 30.8797Z" fill="#4C9E45" fill-opacity="0.55"/>
<path d="M6.77376 16.1636C8.31341 13.8286 10.1435 11.6986 12.2201 9.8249L34.3397 34.3396L6.77376 16.1636Z" fill="#4C9E45" fill-opacity="0.4"/>
<path d="M18.8851 5.16079C21.3353 3.86304 23.9393 2.87908 26.6354 2.23213L34.3397 34.3396L18.8851 5.16079Z" fill="#4C9E45" fill-opacity="0.25"/>
<ellipse cx="34.3397" cy="34.3394" rx="25.8797" ry="25.8796" fill="white"/>
<path d="M49.7217 38.7716C49.2857 38.7772 48.858 38.6559 48.4944 38.4234L43.6241 35.1392C42.0839 36.4234 40.1445 37.1747 38.1127 37.2745C36.0808 37.3743 34.0726 36.8168 32.4055 35.6901C30.7385 34.5635 29.5078 32.9321 28.9082 31.0539C28.3086 29.1757 28.3743 27.158 29.0949 25.3199C29.8154 23.4818 31.1498 21.9283 32.8868 20.9051C34.6238 19.8819 36.6644 19.4473 38.6857 19.6702C40.707 19.8932 42.5937 20.7608 44.0474 22.1359C45.501 23.511 46.4386 25.3151 46.7119 27.2627C46.9419 28.9265 46.682 30.6192 45.9618 32.1467C45.9048 32.2591 45.8054 32.3462 45.684 32.3899C45.5626 32.4337 45.4285 32.4308 45.3092 32.382C45.2507 32.3557 45.1982 32.3185 45.1547 32.2725C45.1113 32.2265 45.0777 32.1726 45.0559 32.1139C45.0342 32.0553 45.0247 31.993 45.0281 31.9308C45.0314 31.8686 45.0475 31.8076 45.0754 31.7515C45.5981 30.6521 45.8523 29.4513 45.8183 28.242C45.7843 27.0326 45.4631 25.8469 44.8795 24.7765C44.2958 23.7061 43.4654 22.7796 42.4523 22.0685C41.4391 21.3575 40.2704 20.8808 39.0363 20.6755C37.6636 20.4464 36.253 20.5602 34.9386 21.006C33.6242 21.4517 32.4495 22.2147 31.5262 23.2225C30.6028 24.2302 29.9615 25.4492 29.663 26.7638C29.3645 28.0784 29.4187 29.4449 29.8207 30.7335C30.2226 32.0221 30.9588 33.19 31.9593 34.1264C32.9599 35.0628 34.1916 35.7366 35.5375 36.0837C36.8835 36.4309 38.2989 36.4399 39.6494 36.1099C40.9999 35.7799 42.2407 35.1218 43.254 34.1982C43.3359 34.1248 43.441 34.0803 43.5523 34.0718C43.6637 34.0632 43.7747 34.0912 43.8676 34.1511L49.0301 37.6518C49.2884 37.824 49.607 37.89 49.9157 37.8353C50.2244 37.7806 50.498 37.6096 50.6763 37.3601C50.8545 37.1105 50.9228 36.8027 50.8662 36.5045C50.8096 36.2062 50.6326 35.9419 50.3743 35.7697L46.7508 33.323C46.6465 33.2494 46.576 33.1395 46.5542 33.0165C46.5324 32.8936 46.561 32.7672 46.6339 32.6643C46.6708 32.6134 46.7178 32.5701 46.7722 32.5368C46.8265 32.5036 46.8871 32.481 46.9505 32.4705C47.0139 32.4601 47.0788 32.4618 47.1415 32.4757C47.2042 32.4895 47.2634 32.5153 47.3158 32.5514L50.9393 34.9981C51.1697 35.1536 51.3658 35.3519 51.5163 35.5813C51.6668 35.8107 51.7686 36.0666 51.8159 36.3343C51.9121 36.8763 51.7864 37.4331 51.4653 37.887C51.2684 38.1579 51.0076 38.3794 50.7043 38.5333C50.4011 38.6871 50.0642 38.7688 49.7217 38.7716V38.7716Z" fill="#333333"/>
<path d="M31.6627 34.951C31.5471 34.9521 31.435 34.9127 31.3472 34.84C31.2594 34.7673 31.2019 34.6663 31.1854 34.5558C31.1627 34.4335 31.1908 34.3075 31.2638 34.2053C31.3368 34.1031 31.4487 34.0328 31.5751 34.01C31.8667 33.9493 32.1533 33.8676 32.4322 33.7653C32.7147 33.6712 33.4063 32.4102 33.6693 30.7163C33.8738 29.6059 33.5816 23.2633 33.4452 20.9107C33.4426 20.8489 33.4527 20.7872 33.4748 20.7292C33.4969 20.6711 33.5306 20.6178 33.574 20.5724C33.6174 20.5269 33.6697 20.4902 33.7278 20.4643C33.786 20.4384 33.8488 20.4238 33.9128 20.4214C33.9766 20.4162 34.0408 20.4238 34.1014 20.4435C34.1621 20.4633 34.2179 20.4949 34.2653 20.5364C34.3128 20.5779 34.351 20.6283 34.3775 20.6846C34.404 20.7409 34.4182 20.8018 34.4193 20.8637C34.4193 21.2118 34.8966 29.4365 34.6336 30.8763C34.5654 31.2245 33.981 34.2546 32.7439 34.6405C32.4247 34.7513 32.0995 34.8455 31.7699 34.9228L31.6627 34.951Z" fill="#333333"/>
<path d="M29.023 29.3895C28.9568 29.3898 28.8914 29.3765 28.8309 29.3505C28.7705 29.3246 28.7164 29.2865 28.6723 29.2389C28.627 29.196 28.5909 29.1447 28.5663 29.0882C28.5417 29.0316 28.5291 28.9709 28.5291 28.9095C28.5291 28.8482 28.5417 28.7875 28.5663 28.7309C28.5909 28.6743 28.627 28.6231 28.6723 28.5802C29.1409 28.1436 29.6806 27.7843 30.2698 27.5168C30.9063 27.2055 31.6431 27.1448 32.325 27.3474C32.8997 27.5356 34.2731 27.8462 34.3316 27.8462C34.4607 27.8736 34.5733 27.9495 34.6446 28.0572C34.7158 28.1648 34.7399 28.2954 34.7115 28.4202C34.683 28.545 34.6045 28.6538 34.493 28.7226C34.3816 28.7914 34.2465 28.8146 34.1173 28.7872C34.0491 28.7872 32.6367 28.4672 32.0133 28.2602C31.7841 28.1944 31.5435 28.1738 31.3059 28.1997C31.0683 28.2255 30.8385 28.2973 30.6302 28.4108C30.1647 28.6398 29.7351 28.9313 29.3541 29.2765C29.2626 29.3535 29.1442 29.3939 29.023 29.3895V29.3895Z" fill="#333333"/>
<path d="M33.6302 33.1536C33.5374 33.1506 33.4469 33.1247 33.3673 33.0783C32.6321 32.6498 31.929 32.1718 31.2633 31.648C31.1266 31.4758 31.0277 31.2785 30.9724 31.0682C30.9172 30.8579 30.9068 30.6389 30.9419 30.4246C30.9502 30.3628 30.971 30.3032 31.0032 30.2492C31.0353 30.1952 31.0782 30.1478 31.1293 30.1098C31.1804 30.0718 31.2387 30.0439 31.301 30.0277C31.3633 30.0114 31.4282 30.0072 31.4922 30.0153C31.5562 30.0233 31.6178 30.0434 31.6738 30.0745C31.7297 30.1055 31.7787 30.1469 31.818 30.1963C31.8574 30.2457 31.8863 30.3021 31.9031 30.3622C31.9199 30.4224 31.9242 30.4851 31.9159 30.5469C31.8899 30.7047 31.9172 30.8664 31.9938 31.008C32.6151 31.4732 33.2657 31.9007 33.9419 32.2879C34.0503 32.3554 34.1265 32.4616 34.1539 32.5833C34.1813 32.7051 34.1576 32.8323 34.0881 32.9372C34.0416 33.0122 33.9736 33.0725 33.8924 33.111C33.8111 33.1494 33.7201 33.1642 33.6302 33.1536V33.1536Z" fill="#333333"/>
<path d="M32.3347 25.7288H32.2763C31.5847 25.7288 30.7373 25.343 30.5717 24.7878C30.484 24.5337 30.3866 24.2137 30.3866 24.2137L31.3607 23.9503L31.536 24.5055C31.7747 24.6547 32.0506 24.7392 32.3347 24.7501C32.9174 24.7142 33.4968 24.6388 34.0685 24.5243C34.1325 24.5119 34.1983 24.5119 34.2623 24.5241C34.3263 24.5363 34.3872 24.5606 34.4414 24.5956C34.4957 24.6305 34.5423 24.6755 34.5786 24.7278C34.6149 24.7802 34.6402 24.8389 34.653 24.9007C34.6658 24.9625 34.6658 25.0261 34.6532 25.0879C34.6405 25.1497 34.6154 25.2085 34.5792 25.261C34.543 25.3134 34.4965 25.3584 34.4423 25.3935C34.3881 25.4286 34.3273 25.453 34.2633 25.4653C33.6278 25.5973 32.9832 25.6853 32.3347 25.7288Z" fill="#333333"/>
<path d="M38.1888 34.9134C37.8571 34.9139 37.5277 34.8598 37.2148 34.7534C36.7237 34.5502 36.2997 34.2208 35.9889 33.801C35.6781 33.3812 35.4923 32.8872 35.4517 32.3726C35.0683 29.9915 35.0519 27.5687 35.403 25.183C35.4143 25.1075 35.444 25.0357 35.4898 24.9735C35.5355 24.9113 35.5959 24.8606 35.666 24.8255C35.7362 24.7884 35.8149 24.769 35.8949 24.769C35.9749 24.769 36.0536 24.7884 36.1238 24.8255C36.356 24.9564 36.6288 25.0031 36.8933 24.9572C37.1231 24.9027 37.322 24.7644 37.4486 24.5714C37.5139 24.4649 37.6185 24.3863 37.7414 24.3514C37.8643 24.3164 37.9963 24.3278 38.1109 24.3832C38.2221 24.4429 38.3053 24.5417 38.3434 24.659C38.3814 24.7763 38.3715 24.9033 38.3155 25.0137C38.0589 25.4279 37.6475 25.7311 37.1661 25.8606C36.8751 25.9311 36.5706 25.9311 36.2797 25.8606C36.0304 27.9614 36.073 30.085 36.4063 32.175C36.4164 32.5253 36.5275 32.8659 36.7271 33.1586C36.9267 33.4512 37.207 33.6841 37.5362 33.8312C38.7343 34.2452 40.585 33.3042 41.3156 32.7113C42.4065 31.7703 43.2637 29.0978 43.6533 26.8675C43.9455 24.8913 42.6792 22.0776 42.6792 22.0494C42.6394 21.948 42.637 21.8364 42.6725 21.7335C42.708 21.6307 42.7792 21.5428 42.8741 21.4848C42.9916 21.4338 43.1253 21.43 43.2458 21.4741C43.3663 21.5182 43.4638 21.6066 43.5169 21.72C43.5754 21.8518 44.9293 24.816 44.5884 27.0651C44.3254 28.8625 43.4585 32.2314 41.9292 33.483C40.8712 34.3312 39.5612 34.8322 38.1888 34.9134V34.9134Z" fill="#333333"/>
<path d="M35.6661 24.2044C35.5428 24.2045 35.4243 24.1585 35.3353 24.076C35.2463 23.9936 35.1938 23.8811 35.1888 23.7621C35.0838 22.5288 35.156 21.2874 35.4031 20.0732C35.4566 19.9597 35.5529 19.8702 35.6724 19.8229C35.7918 19.7757 35.9255 19.7743 36.046 19.8191C36.1634 19.8706 36.2554 19.9643 36.3027 20.0802C36.3499 20.1961 36.3487 20.3252 36.2992 20.4402C36.1119 21.5219 36.0596 22.6213 36.1434 23.715C36.1473 23.7763 36.1385 23.8378 36.1175 23.8958C36.0965 23.9538 36.0637 24.0072 36.0211 24.0528C35.9784 24.0984 35.9268 24.1353 35.8692 24.1613C35.8116 24.1873 35.7491 24.202 35.6856 24.2044H35.6661Z" fill="#333333"/>
<path d="M37.4291 22.4917C37.3413 22.4929 37.2548 22.4708 37.1792 22.4276C37.1035 22.3844 37.0417 22.3219 37.0005 22.247C36.9408 22.1368 36.9277 22.0084 36.964 21.889C37.0004 21.7696 37.0833 21.6686 37.1953 21.6071C38.0736 21.1515 38.9109 20.6258 39.6986 20.0356C39.7942 19.9507 39.9208 19.906 40.0505 19.9113C40.1802 19.9166 40.3024 19.9715 40.3902 20.0638C40.4781 20.1561 40.5243 20.2784 40.5188 20.4037C40.5134 20.529 40.4566 20.6471 40.361 20.7319C39.5148 21.3719 38.6119 21.9387 37.6629 22.4258C37.5915 22.4655 37.5113 22.488 37.4291 22.4917V22.4917Z" fill="#333333"/>
<path d="M39.6986 23.3668H39.6207C39.5577 23.3577 39.4971 23.3365 39.4427 23.3044C39.3883 23.2723 39.3411 23.2301 39.3039 23.1801C39.2666 23.1301 39.2402 23.0734 39.226 23.0133C39.2118 22.9533 39.2102 22.8911 39.2213 22.8304C39.2123 22.633 39.1796 22.4372 39.1239 22.247C39.0864 22.1108 39.0571 21.9725 39.0363 21.8329C38.9898 21.2926 39.1229 20.752 39.4162 20.2896C39.4522 20.2391 39.4983 20.1959 39.5517 20.1628C39.6052 20.1297 39.665 20.1072 39.7276 20.0967C39.7902 20.0861 39.8544 20.0878 39.9163 20.1016C39.9782 20.1153 40.0367 20.1409 40.0883 20.1767C40.1414 20.2108 40.1869 20.2548 40.2221 20.3061C40.2574 20.3574 40.2816 20.415 40.2934 20.4756C40.3052 20.5361 40.3043 20.5983 40.2908 20.6585C40.2774 20.7187 40.2515 20.7756 40.2149 20.826C40.0472 21.1116 39.9757 21.4405 40.0103 21.7671C40.0192 21.866 40.0388 21.9638 40.0688 22.0588C40.1661 22.363 40.2025 22.6824 40.1759 22.9998C40.1515 23.1044 40.0909 23.1977 40.0041 23.2645C39.9173 23.3312 39.8096 23.3673 39.6986 23.3668V23.3668Z" fill="#333333"/>
<path d="M39.8156 25.4559C39.7516 25.4633 39.6868 25.4585 39.6247 25.4417C39.5627 25.4249 39.5047 25.3965 39.4541 25.358C39.4034 25.3196 39.3611 25.2719 39.3295 25.2176C39.298 25.1634 39.2778 25.1036 39.2701 25.0419C39.2624 24.9801 39.2674 24.9174 39.2848 24.8575C39.3022 24.7976 39.3316 24.7415 39.3714 24.6926C39.4112 24.6437 39.4606 24.6028 39.5168 24.5723C39.5729 24.5418 39.6347 24.5223 39.6987 24.5149C39.9588 24.4501 40.1994 24.3268 40.4008 24.1551C40.6023 23.9833 40.7589 23.7681 40.8578 23.5268C40.889 23.387 40.9118 23.2456 40.926 23.1033C40.9246 22.8484 40.9755 22.5957 41.0758 22.3598C41.1762 22.124 41.3239 21.9097 41.5104 21.7294C42.0364 21.3436 42.8059 21.6165 43.2248 21.7294H43.3222C43.4513 21.7294 43.5752 21.779 43.6666 21.8672C43.7579 21.9554 43.8092 22.0751 43.8092 22.1999C43.8092 22.3247 43.7579 22.4444 43.6666 22.5326C43.5752 22.6209 43.4513 22.6704 43.3222 22.6704C43.1771 22.68 43.0322 22.6507 42.9033 22.5857C42.3384 22.3881 42.163 22.3975 42.1046 22.4258C41.9939 22.6597 41.931 22.9122 41.9195 23.1692C41.9002 23.3692 41.8644 23.5675 41.8124 23.762C41.6646 24.1576 41.4185 24.512 41.0958 24.7942C40.7732 25.0764 40.3837 25.2778 39.9617 25.3806L39.8156 25.4559Z" fill="#333333"/>
<path d="M44.0234 27.9779C43.9602 27.9805 43.8971 27.97 43.8383 27.9473C43.7796 27.9246 43.7264 27.8901 43.6825 27.8462C43.6825 27.8462 43.3415 27.5262 42.4844 26.7357C42.4125 26.6586 42.3234 26.5982 42.2239 26.5591C42.1243 26.52 42.0169 26.5031 41.9097 26.5099C41.4255 26.6213 41.0038 26.9075 40.7311 27.3098C40.6507 27.4067 40.5339 27.469 40.4062 27.4831C40.2785 27.4973 40.1502 27.462 40.0492 27.3851C39.9474 27.3088 39.881 27.1967 39.8646 27.0732C39.8481 26.9497 39.883 26.825 39.9616 26.7263C40.4053 26.1157 41.0812 25.6995 41.8415 25.5689C42.0812 25.5535 42.3215 25.5874 42.5465 25.6686C42.7715 25.7497 42.9761 25.8761 43.1467 26.0394C44.0624 26.8581 44.3935 27.178 44.3935 27.178C44.4392 27.2218 44.4754 27.2738 44.5001 27.3311C44.5249 27.3885 44.5376 27.45 44.5376 27.5121C44.5376 27.5742 44.5249 27.6357 44.5001 27.693C44.4754 27.7504 44.4392 27.8024 44.3935 27.8462C44.3441 27.8909 44.2859 27.9257 44.2223 27.9483C44.1587 27.9709 44.0911 27.981 44.0234 27.9779Z" fill="#333333"/>
<path d="M41.1403 30.6505C41.0511 30.6523 40.9632 30.6294 40.887 30.5846C40.534 30.3148 40.2224 29.998 39.9617 29.6436C39.6434 29.2545 39.3019 28.8837 38.9389 28.5331C38.7174 28.2967 38.4341 28.1222 38.1188 28.0278C37.8035 27.9334 37.4677 27.9227 37.1466 27.9967C36.6982 28.0863 36.2777 28.2765 35.9193 28.552C35.8199 28.6318 35.6916 28.6702 35.5629 28.6588C35.4341 28.6473 35.3153 28.5869 35.2326 28.4908C35.15 28.3947 35.1102 28.2708 35.1221 28.1464C35.1339 28.022 35.1965 27.9072 35.2959 27.8274C35.7879 27.4489 36.3652 27.1878 36.9811 27.0651C37.452 26.9688 37.9406 26.99 38.4007 27.1267C38.8608 27.2633 39.2774 27.5109 39.611 27.8462C40.0024 28.2129 40.37 28.6026 40.7117 29.0131C40.9212 29.2785 41.149 29.53 41.3935 29.7659C41.4811 29.8205 41.5482 29.9008 41.5851 29.995C41.6219 30.0892 41.6265 30.1923 41.5981 30.2892C41.5698 30.3861 41.51 30.4717 41.4276 30.5333C41.3452 30.5949 41.2445 30.6294 41.1403 30.6316V30.6505Z" fill="#333333"/>
<path d="M40.5363 33.2383C40.1791 33.2868 39.815 33.2504 39.4755 33.1323C39.1361 33.0143 38.8316 32.8181 38.5882 32.5608C38.2181 32.0338 38.2765 31.2904 38.7733 30.2835C38.8282 30.1718 38.9265 30.0854 39.0468 30.0432C39.1671 30.0009 39.2998 30.0061 39.4162 30.0576C39.4746 30.0839 39.5272 30.1211 39.5706 30.1671C39.6141 30.2131 39.6477 30.267 39.6695 30.3257C39.6912 30.3843 39.7007 30.4466 39.6973 30.5088C39.694 30.571 39.6779 30.632 39.6499 30.6881C39.2019 31.6292 39.3188 31.9209 39.3869 32.0244C39.6402 32.382 40.7701 32.2973 41.5201 32.2408H41.9974C42.0614 32.2371 42.1255 32.2456 42.186 32.2659C42.2466 32.2861 42.3024 32.3176 42.3504 32.3587C42.3983 32.3998 42.4374 32.4495 42.4654 32.5052C42.4934 32.5609 42.5098 32.6213 42.5137 32.6831C42.5175 32.7449 42.5087 32.8068 42.4878 32.8653C42.4668 32.9238 42.4342 32.9778 42.3917 33.0241C42.3492 33.0704 42.2976 33.1082 42.24 33.1353C42.1824 33.1623 42.1198 33.1782 42.0559 33.1819H41.5981C41.2474 33.2101 40.8772 33.2383 40.5363 33.2383Z" fill="#333333"/>
<path d="M36.0167 33.2383C35.9206 33.2364 35.8266 33.2105 35.744 33.163C35.6366 33.0923 35.5621 32.9837 35.5366 32.8605C35.5111 32.7374 35.5366 32.6095 35.6076 32.5043C36.0731 31.8185 36.6485 31.2087 37.3122 30.6975C37.4207 30.6289 37.553 30.6047 37.68 30.6303C37.8069 30.6558 37.9182 30.7291 37.9892 30.8339C38.0602 30.9388 38.0853 31.0666 38.0588 31.1892C38.0323 31.3119 37.9565 31.4193 37.848 31.488C37.2894 31.9235 36.8089 32.4449 36.4258 33.0313C36.3795 33.0946 36.3183 33.1464 36.2471 33.1824C36.176 33.2184 36.097 33.2376 36.0167 33.2383V33.2383Z" fill="#333333"/>
<path d="M30.4938 38.0094C28.5169 37.9411 26.6446 37.1344 25.271 35.7592C23.8975 34.3839 23.1299 32.5474 23.1299 30.6363C23.1299 28.7253 23.8975 26.8887 25.271 25.5135C26.6446 24.1382 28.5169 23.3315 30.4938 23.2633C30.623 23.2633 30.7468 23.3129 30.8382 23.4011C30.9295 23.4894 30.9808 23.609 30.9808 23.7338C30.9808 23.8586 30.9295 23.9783 30.8382 24.0665C30.7468 24.1548 30.623 24.2043 30.4938 24.2043C29.445 24.202 28.6177 24.4239 27.6816 24.8808C26.7454 25.3376 25.9342 26.0015 25.3138 26.8185C24.6934 27.6355 24.2813 28.5824 24.1113 29.5822C23.9412 30.5821 24.0178 31.6066 24.335 32.5724C24.6521 33.5382 25.2008 34.418 25.9363 35.1403C26.6719 35.8626 27.5736 36.4069 28.568 36.729C29.5624 37.051 30.6215 37.1417 31.659 36.9937C32.6965 36.8457 33.476 36.478 34.3316 35.892C34.3839 35.8559 34.4432 35.8302 34.5058 35.8163C34.5685 35.8025 34.6335 35.8007 34.6969 35.8112C34.7602 35.8217 34.8209 35.8442 34.8752 35.8775C34.9295 35.9107 34.9765 35.9541 35.0134 36.005C35.0864 36.1079 35.115 36.2342 35.0932 36.3572C35.0713 36.4802 35.0008 36.5901 34.8965 36.6637C33.6076 37.5399 32.0699 38.0099 30.4938 38.0094Z" fill="#333333"/>
<path d="M32.812 50.5534H28.9158C27.9526 50.5464 27.0118 50.2722 26.2053 49.7633C25.3989 49.2545 24.7608 48.5325 24.3669 47.6833L22.1753 42.9216C22.0861 42.721 22.04 42.5048 22.04 42.2864C22.04 42.068 22.0861 41.8519 22.1753 41.6512C22.2652 41.4476 22.3983 41.2645 22.5661 41.1137C22.7339 40.963 22.9326 40.8479 23.1494 40.7761C28.1699 38.9365 33.7138 38.9365 38.7343 40.7761C38.95 40.8473 39.148 40.9611 39.3159 41.1102C39.4837 41.2593 39.6176 41.4404 39.7092 41.6421C39.8008 41.8438 39.848 42.0617 39.8478 42.2819C39.8477 42.5022 39.8002 42.72 39.7083 42.9216L37.5167 47.6833C37.1132 48.5569 36.4512 49.2955 35.614 49.8063C34.7768 50.317 33.8019 50.577 32.812 50.5534ZM30.8834 40.3055C28.3408 40.3077 25.8197 40.754 23.4416 41.623C23.3536 41.6548 23.2734 41.7037 23.2059 41.7669C23.1385 41.83 23.0852 41.9059 23.0496 41.9898C23.0139 42.0738 22.9966 42.1639 22.9987 42.2546C23.0007 42.3453 23.0222 42.4347 23.0617 42.517L25.2533 47.2692C25.5731 47.9591 26.0927 48.5449 26.7496 48.9557C27.4064 49.3665 28.1723 49.5848 28.9547 49.5842H32.851C33.6334 49.5848 34.3993 49.3665 35.0561 48.9557C35.713 48.5449 36.2326 47.9591 36.5524 47.2692L38.744 42.517C38.7835 42.4347 38.8049 42.3453 38.807 42.2546C38.8091 42.1639 38.7918 42.0738 38.7561 41.9898C38.7204 41.9059 38.6672 41.83 38.5998 41.7669C38.5323 41.7037 38.4521 41.6548 38.3641 41.623C35.974 40.7487 33.4391 40.3023 30.8834 40.3055V40.3055Z" fill="#333333"/>
</svg>
