<?xml version="1.0" standalone="no"?>
<!DOCTYPE svg PUBLIC "-//W3C//DTD SVG 1.1//EN" "http://www.w3.org/Graphics/SVG/1.1/DTD/svg11.dtd">   
<svg width="24" height="24" viewBox="0 0 24 25" fill="none" xmlns="http://www.w3.org/2000/svg">
<g clip-path="url(#clip0)">
<path fill-rule="evenodd" clip-rule="evenodd" d="M3.5 1.81494V22.8149H11.4565V1.81494H3.5ZM3 0.314941C2.44772 0.314941 2 0.762657 2 1.31494V23.3149C2 23.8672 2.44772 24.3149 3 24.3149H11.9565C11.9711 24.3149 11.9856 24.3146 12 24.314V24.3149H21C21.5523 24.3149 22 23.8672 22 23.3149V12.3149C22 11.7627 21.5523 11.3149 21 11.3149H12.9565V1.31494C12.9565 0.762657 12.5088 0.314941 11.9565 0.314941H3ZM20.5 12.8149H13.5V22.8149H16.0879V20.6627H18.1748V22.8149H20.5V12.8149ZM6.69633 2.92358H4.60938V5.01054H6.69633V2.92358ZM8.26172 2.92358H10.3487V5.01054H8.26172V2.92358ZM6.69633 6.05408H4.60938V8.14103H6.69633V6.05408ZM8.26172 6.05408H10.3487V8.14103H8.26172V6.05408ZM6.69633 9.18445H4.60938V11.2714H6.69633V9.18445ZM8.26172 9.18445H10.3487V11.2714H8.26172V9.18445ZM6.69633 12.3149H4.60938V14.4019H6.69633V12.3149ZM8.26172 12.3149H10.3487V14.4019H8.26172V12.3149ZM6.69633 15.4454H4.60938V17.5324H6.69633V15.4454ZM8.26172 15.4454H10.3487V17.5324H8.26172V15.4454ZM6.69633 18.5758H4.60938V20.6628H6.69633V18.5758ZM8.26172 18.5758H10.3487V20.6628H8.26172V18.5758ZM16.6084 13.3584H14.5215V15.4454H16.6084V13.3584ZM17.5 13.3584H19.587V15.4454H17.5V13.3584ZM16.6084 16.4889H14.5215V18.5758H16.6084V16.4889ZM17.5 16.4888H19.587V18.5757H17.5V16.4888Z" fill="white"/>
</g>
<defs>
<clipPath id="clip0">
<path d="M0 0.314941H24V24.3149H0V0.314941Z" fill="white"/>
</clipPath>
</defs>
</svg>
