<svg width="40" height="40" viewBox="0 0 40 40" fill="none" xmlns="http://www.w3.org/2000/svg">
<path fill-rule="evenodd" clip-rule="evenodd" d="M19.5 36C28.6127 36 36 28.6127 36 19.5C36 10.3873 28.6127 3 19.5 3C10.3873 3 3 10.3873 3 19.5C3 28.6127 10.3873 36 19.5 36ZM19.5 37C29.165 37 37 29.165 37 19.5C37 9.83502 29.165 2 19.5 2C9.83502 2 2 9.83502 2 19.5C2 29.165 9.83502 37 19.5 37Z" fill="#333333"/>
<path fill-rule="evenodd" clip-rule="evenodd" d="M27.012 23.7806C27.2073 23.9759 27.2073 24.2924 27.012 24.4877L20.1828 31.317C19.9875 31.5122 19.6709 31.5122 19.4757 31.317C19.2804 31.1217 19.2804 30.8051 19.4757 30.6099L26.3049 23.7806C26.5002 23.5853 26.8168 23.5853 27.012 23.7806Z" fill="#333333"/>
<path fill-rule="evenodd" clip-rule="evenodd" d="M12.6464 23.7806C12.8417 23.5853 13.1583 23.5853 13.3536 23.7806L20.1828 30.6099C20.3781 30.8051 20.3781 31.1217 20.1828 31.317C19.9876 31.5122 19.671 31.5122 19.4757 31.317L12.6464 24.4877C12.4512 24.2924 12.4512 23.9759 12.6464 23.7806Z" fill="#333333"/>
<path fill-rule="evenodd" clip-rule="evenodd" d="M19.8292 9C20.1054 9 20.3292 9.22386 20.3292 9.5L20.3292 30.9634C20.3292 31.2396 20.1054 31.4634 19.8292 31.4634C19.5531 31.4634 19.3292 31.2396 19.3292 30.9634L19.3292 9.5C19.3292 9.22386 19.5531 9 19.8292 9Z" fill="#333333"/>
</svg>
