<?xml version="1.0" standalone="no"?>
<!DOCTYPE svg PUBLIC "-//W3C//DTD SVG 1.1//EN" "http://www.w3.org/Graphics/SVG/1.1/DTD/svg11.dtd">
<svg width="14" height="14" viewBox="0 0 14 14" fill="none" xmlns="http://www.w3.org/2000/svg">
<g clip-path="url(#clip0)">
<path d="M7.27201 2.0169C6.91908 2.10975 6.61749 2.339 6.43358 2.65422L3.43174 7.79934C3.12525 8.32466 3.04 8.95022 3.19474 9.5384C3.34947 10.1266 3.73153 10.6292 4.25685 10.9357C4.78217 11.2422 5.40773 11.3274 5.99591 11.1727C6.58409 11.018 7.08671 10.6359 7.3932 10.1106L10.395 4.96547C10.5226 4.74683 10.8032 4.67299 11.0219 4.80055C11.2405 4.92811 11.3144 5.20877 11.1868 5.42741L8.18496 10.5725C7.75596 11.3078 7.05242 11.8426 6.22913 12.0592C5.40583 12.2758 4.53022 12.1565 3.79491 11.7275C3.0596 11.2984 2.52483 10.5949 2.30823 9.77162C2.09164 8.94832 2.21098 8.07271 2.63998 7.3374L5.64182 2.19228C5.94824 1.66707 6.45075 1.2851 7.0388 1.1304C7.62684 0.975699 8.25226 1.06093 8.77747 1.36736C9.13443 1.57562 9.40527 2.09344 9.49902 2.49969C9.59277 2.90594 9.2715 3.63447 8.96508 4.15967L5.95881 9.30596L5.16705 8.84402L8.17331 3.69773C8.65801 2.868 8.50018 2.27735 8.18496 2.09344C7.86975 1.90954 7.62495 1.92406 7.27201 2.0169Z" fill="#0B3C61"/>
</g>
<defs>
<clipPath id="clip0">
<rect width="11" height="11" fill="white" transform="translate(0 2.79865) rotate(-14.7393)"/>
</clipPath>
</defs>
</svg>
