<svg width="180" height="180" viewBox="0 0 180 180" fill="none" xmlns="http://www.w3.org/2000/svg">
<circle cx="90" cy="90" r="90" fill="#F2F2F2"/>
<path d="M82.8223 85H80.3516L74.0137 74.9121V85H71.543V70.7812H74.0137L80.3711 80.9082V70.7812H82.8223V85ZM90.166 85.1953C88.6621 85.1953 87.4414 84.7233 86.5039 83.7793C85.5729 82.8288 85.1074 81.5658 85.1074 79.9902V79.6973C85.1074 78.6426 85.3092 77.7018 85.7129 76.875C86.123 76.0417 86.696 75.3939 87.4316 74.9316C88.1673 74.4694 88.9876 74.2383 89.8926 74.2383C91.3314 74.2383 92.4414 74.6973 93.2227 75.6152C94.0104 76.5332 94.4043 77.832 94.4043 79.5117V80.4688H87.5C87.5716 81.3411 87.8613 82.0312 88.3691 82.5391C88.8835 83.0469 89.528 83.3008 90.3027 83.3008C91.39 83.3008 92.2754 82.8613 92.959 81.9824L94.2383 83.2031C93.8151 83.8346 93.2487 84.3262 92.5391 84.6777C91.8359 85.0228 91.0449 85.1953 90.166 85.1953ZM89.8828 76.1426C89.2318 76.1426 88.7044 76.3704 88.3008 76.8262C87.9036 77.2819 87.6497 77.9167 87.5391 78.7305H92.0605V78.5547C92.0085 77.7604 91.7969 77.1615 91.4258 76.7578C91.0547 76.3477 90.5404 76.1426 89.8828 76.1426ZM105.537 81.7285L107.217 74.4336H109.531L106.65 85H104.697L102.432 77.7441L100.205 85H98.252L95.3613 74.4336H97.6758L99.3848 81.6504L101.553 74.4336H103.34L105.537 81.7285ZM57.2949 94.7812L61.3965 105.68L65.4883 94.7812H68.6816V109H66.2207V104.312L66.4648 98.043L62.2656 109H60.498L56.3086 98.0527L56.5527 104.312V109H54.0918V94.7812H57.2949ZM76.0352 109.195C74.5312 109.195 73.3105 108.723 72.373 107.779C71.4421 106.829 70.9766 105.566 70.9766 103.99V103.697C70.9766 102.643 71.1784 101.702 71.582 100.875C71.9922 100.042 72.5651 99.3939 73.3008 98.9316C74.0365 98.4694 74.8568 98.2383 75.7617 98.2383C77.2005 98.2383 78.3105 98.6973 79.0918 99.6152C79.8796 100.533 80.2734 101.832 80.2734 103.512V104.469H73.3691C73.4408 105.341 73.7305 106.031 74.2383 106.539C74.7526 107.047 75.3971 107.301 76.1719 107.301C77.2591 107.301 78.1445 106.861 78.8281 105.982L80.1074 107.203C79.6842 107.835 79.1178 108.326 78.4082 108.678C77.7051 109.023 76.9141 109.195 76.0352 109.195ZM75.752 100.143C75.1009 100.143 74.5736 100.37 74.1699 100.826C73.7728 101.282 73.5189 101.917 73.4082 102.73H77.9297V102.555C77.8776 101.76 77.666 101.161 77.2949 100.758C76.9238 100.348 76.4095 100.143 75.752 100.143ZM84.3555 98.4336L84.4238 99.5371C85.166 98.6712 86.1816 98.2383 87.4707 98.2383C88.8835 98.2383 89.8503 98.7786 90.3711 99.8594C91.1393 98.7786 92.2201 98.2383 93.6133 98.2383C94.7786 98.2383 95.6445 98.5605 96.2109 99.2051C96.7839 99.8496 97.0768 100.8 97.0898 102.057V109H94.7168V102.125C94.7168 101.454 94.5703 100.963 94.2773 100.65C93.9844 100.338 93.4993 100.182 92.8223 100.182C92.2819 100.182 91.8392 100.328 91.4941 100.621C91.1556 100.908 90.918 101.285 90.7812 101.754L90.791 109H88.418V102.047C88.3854 100.803 87.7507 100.182 86.5137 100.182C85.5632 100.182 84.8893 100.569 84.4922 101.344V109H82.1191V98.4336H84.3555ZM108.799 103.824C108.799 105.465 108.431 106.77 107.695 107.74C106.966 108.71 105.96 109.195 104.678 109.195C103.441 109.195 102.477 108.749 101.787 107.857L101.67 109H99.5215V94H101.895V99.4492C102.578 98.6419 103.499 98.2383 104.658 98.2383C105.947 98.2383 106.96 98.7168 107.695 99.6738C108.431 100.631 108.799 101.969 108.799 103.688V103.824ZM106.426 103.619C106.426 102.473 106.224 101.614 105.82 101.041C105.417 100.468 104.831 100.182 104.062 100.182C103.034 100.182 102.311 100.631 101.895 101.529V105.885C102.318 106.803 103.047 107.262 104.082 107.262C104.824 107.262 105.397 106.985 105.801 106.432C106.204 105.878 106.413 105.042 106.426 103.922V103.619ZM115.449 109.195C113.945 109.195 112.725 108.723 111.787 107.779C110.856 106.829 110.391 105.566 110.391 103.99V103.697C110.391 102.643 110.592 101.702 110.996 100.875C111.406 100.042 111.979 99.3939 112.715 98.9316C113.451 98.4694 114.271 98.2383 115.176 98.2383C116.615 98.2383 117.725 98.6973 118.506 99.6152C119.294 100.533 119.688 101.832 119.688 103.512V104.469H112.783C112.855 105.341 113.145 106.031 113.652 106.539C114.167 107.047 114.811 107.301 115.586 107.301C116.673 107.301 117.559 106.861 118.242 105.982L119.521 107.203C119.098 107.835 118.532 108.326 117.822 108.678C117.119 109.023 116.328 109.195 115.449 109.195ZM115.166 100.143C114.515 100.143 113.988 100.37 113.584 100.826C113.187 101.282 112.933 101.917 112.822 102.73H117.344V102.555C117.292 101.76 117.08 101.161 116.709 100.758C116.338 100.348 115.824 100.143 115.166 100.143ZM127.07 100.602C126.758 100.549 126.436 100.523 126.104 100.523C125.016 100.523 124.284 100.94 123.906 101.773V109H121.533V98.4336H123.799L123.857 99.6152C124.43 98.6973 125.225 98.2383 126.24 98.2383C126.579 98.2383 126.859 98.2839 127.08 98.375L127.07 100.602Z" fill="#D3D6D9"/>
</svg>
