<svg width="75" height="75" viewBox="0 0 75 75" fill="none" xmlns="http://www.w3.org/2000/svg">
<g clip-path="url(#clip0_1186_32327)">
<rect width="75" height="75" rx="5" fill="#79B0DE"/>
<ellipse opacity="0.5" cx="37.235" cy="62.7547" rx="19.235" ry="1.75471" fill="#204B5A"/>
<path fill-rule="evenodd" clip-rule="evenodd" d="M33.291 16.3018C33.291 15.7969 33.6793 15.3877 34.1582 15.3877H35.1988C35.6778 15.3877 36.066 15.7969 36.066 16.3018C36.066 16.8066 35.6778 17.2158 35.1988 17.2158H34.1582C33.6793 17.2158 33.291 16.8066 33.291 16.3018Z" fill="#79B0DE"/>
<path fill-rule="evenodd" clip-rule="evenodd" d="M38.2637 16.3018C38.2637 15.7969 38.6519 15.3877 39.1309 15.3877H40.1715C40.6504 15.3877 41.0387 15.7969 41.0387 16.3018C41.0387 16.8066 40.6504 17.2158 40.1715 17.2158H39.1309C38.6519 17.2158 38.2637 16.8066 38.2637 16.3018Z" fill="#79B0DE"/>
<path fill-rule="evenodd" clip-rule="evenodd" d="M43.2344 16.3018C43.2344 15.7969 43.6226 15.3877 44.1016 15.3877H45.1422C45.6211 15.3877 46.0094 15.7969 46.0094 16.3018C46.0094 16.8066 45.6211 17.2158 45.1422 17.2158H44.1016C43.6226 17.2158 43.2344 16.8066 43.2344 16.3018Z" fill="#79B0DE"/>
<path fill-rule="evenodd" clip-rule="evenodd" d="M48.7627 31.6094C46.0105 31.6094 43.7793 33.9611 43.7793 36.8622C43.7793 39.7632 46.0105 42.115 48.7627 42.115C51.515 42.115 53.7462 39.7632 53.7462 36.8622C53.7462 33.9611 51.515 31.6094 48.7627 31.6094ZM42.0449 36.8622C42.0449 32.9515 45.0526 29.7812 48.7627 29.7812C52.4729 29.7812 55.4805 32.9515 55.4805 36.8622C55.4805 40.7729 52.4729 43.9431 48.7627 43.9431C45.0526 43.9431 42.0449 40.7729 42.0449 36.8622Z" fill="#79B0DE"/>
<path fill-rule="evenodd" clip-rule="evenodd" d="M27.9502 31.6094C25.198 31.6094 22.9668 33.9611 22.9668 36.8622C22.9668 39.7632 25.198 42.115 27.9502 42.115C30.7025 42.115 32.9337 39.7632 32.9337 36.8622C32.9337 33.9611 30.7025 31.6094 27.9502 31.6094ZM21.2324 36.8622C21.2324 32.9515 24.2401 29.7812 27.9502 29.7812C31.6604 29.7812 34.668 32.9515 34.668 36.8622C34.668 40.7729 31.6604 43.9431 27.9502 43.9431C24.2401 43.9431 21.2324 40.7729 21.2324 36.8622Z" fill="#79B0DE"/>
<path fill-rule="evenodd" clip-rule="evenodd" d="M22.136 45.759H33.8208C34.196 45.7281 34.5733 45.7815 34.9278 45.9159C35.2965 46.0556 35.6313 46.2795 35.9083 46.5715C36.1854 46.8635 36.3978 47.2164 36.5304 47.605C36.6578 47.9787 36.7085 48.3764 36.6792 48.7719V52.6328C36.6792 53.1376 36.2909 53.5468 35.812 53.5468C35.333 53.5468 34.9448 53.1376 34.9448 52.6328V48.7328C34.9448 48.7038 34.9461 48.6749 34.9487 48.6461C34.9616 48.5031 34.9444 48.3588 34.8983 48.2237C34.8522 48.0885 34.7783 47.9658 34.6819 47.8642C34.5856 47.7626 34.4691 47.6847 34.3409 47.6361C34.2127 47.5875 34.0758 47.5694 33.9402 47.583C33.9128 47.5858 33.8854 47.5871 33.8579 47.5871H22.0989C22.0714 47.5871 22.044 47.5858 22.0166 47.583C21.881 47.5694 21.7441 47.5875 21.6159 47.6361C21.4877 47.6847 21.3712 47.7626 21.2748 47.8642C21.1785 47.9658 21.1046 48.0885 21.0585 48.2237C21.0124 48.3588 20.9952 48.5031 21.0081 48.6461C21.0107 48.6749 21.012 48.7038 21.012 48.7328V51.4749C21.012 51.9797 20.6237 52.3889 20.1448 52.3889C19.6659 52.3889 19.2776 51.9797 19.2776 51.4749V48.7719C19.2483 48.3764 19.299 47.9787 19.4264 47.605C19.559 47.2164 19.7714 46.8635 20.0484 46.5715C20.3255 46.2795 20.6603 46.0556 21.029 45.9159C21.3835 45.7815 21.7608 45.7281 22.136 45.759Z" fill="#79B0DE"/>
<path fill-rule="evenodd" clip-rule="evenodd" d="M42.9485 45.759H54.6333C55.0085 45.7281 55.3858 45.7815 55.7403 45.9159C56.109 46.0556 56.4438 46.2795 56.7208 46.5715C56.9979 46.8635 57.2103 47.2164 57.3428 47.605C57.4703 47.9787 57.521 48.3764 57.4917 48.7719V52.6328C57.4917 53.1376 57.1034 53.5468 56.6245 53.5468C56.1455 53.5468 55.7573 53.1376 55.7573 52.6328V48.7328C55.7573 48.7038 55.7586 48.6749 55.7612 48.6461C55.7741 48.5031 55.7569 48.3588 55.7108 48.2237C55.6647 48.0885 55.5908 47.9657 55.4944 47.8642C55.3981 47.7626 55.2816 47.6847 55.1534 47.6361C55.0252 47.5875 54.8883 47.5694 54.7527 47.583C54.7253 47.5858 54.6979 47.5871 54.6704 47.5871H42.9114C42.8839 47.5871 42.8565 47.5858 42.8291 47.583C42.6935 47.5694 42.5566 47.5875 42.4284 47.6361C42.3002 47.6847 42.1837 47.7626 42.0873 47.8642C41.991 47.9658 41.9171 48.0885 41.871 48.2237C41.8249 48.3588 41.8077 48.5031 41.8206 48.6461C41.8232 48.6749 41.8245 48.7038 41.8245 48.7328V50.9874C41.8245 51.4922 41.4362 51.9014 40.9573 51.9014C40.4784 51.9014 40.0901 51.4922 40.0901 50.9874V48.7719C40.0608 48.3764 40.1115 47.9787 40.2389 47.605C40.3715 47.2164 40.5839 46.8635 40.8609 46.5715C41.138 46.2795 41.4728 46.0556 41.8415 45.9159C42.196 45.7815 42.5733 45.7281 42.9485 45.759Z" fill="#79B0DE"/>
<path fill-rule="evenodd" clip-rule="evenodd" d="M39.805 25.4793L35.4942 29.435C35.2379 29.6702 34.8748 29.7259 34.5655 29.5774C34.2562 29.429 34.0576 29.1038 34.0576 28.7455V25.4793H29.4035C29.0764 25.4833 28.7518 25.4189 28.4484 25.2898C28.1429 25.1598 27.8651 24.9668 27.6314 24.7221C27.3976 24.4774 27.2125 24.186 27.087 23.8649C26.9619 23.545 26.8985 23.202 26.9004 22.856V11.2107C26.8985 10.8646 26.9617 10.5216 27.0862 10.2014C27.2112 9.88014 27.3955 9.58822 27.6285 9.34267C27.8615 9.09711 28.1384 8.90282 28.4432 8.77108C28.747 8.63979 29.0724 8.57324 29.4007 8.57524H49.5023C49.8306 8.57324 50.156 8.63979 50.4598 8.77108C50.7646 8.90282 51.0416 9.09711 51.2745 9.34267C51.5075 9.58822 51.6918 9.88014 51.8168 10.2014L52.0026 22.8558C52.0046 23.2019 51.9412 23.5449 51.8161 23.8649C51.6906 24.186 51.5055 24.4774 51.2717 24.7221C51.0379 24.9668 50.7601 25.1598 50.4546 25.2898L39.805 25.4793ZM29.3457 9.79398C28.7935 9.79398 28.3457 10.2417 28.3457 10.794V22.8096C28.3457 23.3619 28.7935 23.8096 29.3457 23.8096H34.281C34.8342 23.8096 35.2822 24.2587 35.281 24.8118L35.2752 27.4658L38.4654 24.5836C39.0168 24.0854 39.7334 23.8096 40.4765 23.8096H49.3145C49.8668 23.8096 50.3145 23.3619 50.3145 22.8096V10.794C50.3145 10.2417 49.8668 9.79398 49.3145 9.79398H29.3457Z" fill="#79B0DE"/>
<path d="M19.5 48.6001C19.5 47.4955 20.3954 46.6001 21.5 46.6001H32.3C33.4046 46.6001 34.3 47.4955 34.3 48.6001V53.4251H19.5V48.6001Z" fill="white"/>
<path d="M40.7754 48.6001C40.7754 47.4955 41.6708 46.6001 42.7754 46.6001H53.5754C54.68 46.6001 55.5754 47.4955 55.5754 48.6001V53.4251H40.7754V48.6001Z" fill="white"/>
<path fill-rule="evenodd" clip-rule="evenodd" d="M32.3652 16.3018C32.3652 15.7969 32.7535 15.3877 33.2324 15.3877H34.273C34.752 15.3877 35.1402 15.7969 35.1402 16.3018C35.1402 16.8066 34.752 17.2158 34.273 17.2158H33.2324C32.7535 17.2158 32.3652 16.8066 32.3652 16.3018Z" fill="white"/>
<path fill-rule="evenodd" clip-rule="evenodd" d="M37.3379 16.3018C37.3379 15.7969 37.7261 15.3877 38.2051 15.3877H39.2457C39.7246 15.3877 40.1129 15.7969 40.1129 16.3018C40.1129 16.8066 39.7246 17.2158 39.2457 17.2158H38.2051C37.7261 17.2158 37.3379 16.8066 37.3379 16.3018Z" fill="white"/>
<path fill-rule="evenodd" clip-rule="evenodd" d="M42.3086 16.3018C42.3086 15.7969 42.6968 15.3877 43.1758 15.3877H44.2164C44.6953 15.3877 45.0836 15.7969 45.0836 16.3018C45.0836 16.8066 44.6953 17.2158 44.2164 17.2158H43.1758C42.6968 17.2158 42.3086 16.8066 42.3086 16.3018Z" fill="white"/>
<path fill-rule="evenodd" clip-rule="evenodd" d="M41.1191 36.8622C41.1191 32.9515 44.1268 29.7812 47.837 29.7812C51.5471 29.7812 54.5548 32.9515 54.5548 36.8622C54.5548 40.7729 51.5471 43.9431 47.837 43.9431C44.1268 43.9431 41.1191 40.7729 41.1191 36.8622Z" fill="white"/>
<path fill-rule="evenodd" clip-rule="evenodd" d="M20.3066 36.8622C20.3066 32.9515 23.3143 29.7812 27.0245 29.7812C30.7346 29.7812 33.7423 32.9515 33.7423 36.8622C33.7423 40.7729 30.7346 43.9431 27.0245 43.9431C23.3143 43.9431 20.3066 40.7729 20.3066 36.8622Z" fill="white"/>
<path fill-rule="evenodd" clip-rule="evenodd" d="M21.2102 45.759H32.895C33.2702 45.7281 33.6475 45.7815 34.002 45.9159C34.3707 46.0556 34.7055 46.2795 34.9826 46.5715C35.2596 46.8635 35.472 47.2164 35.6046 47.605C35.732 47.9787 35.7827 48.3764 35.7534 48.7719V52.6328C35.7534 53.1376 35.3651 53.5468 34.8862 53.5468C34.4073 53.5468 34.019 53.1376 34.019 52.6328V48.7328C34.019 48.7038 34.0203 48.6749 34.0229 48.6461C34.0358 48.5031 34.0186 48.3588 33.9725 48.2237C33.9264 48.0885 33.8525 47.9658 33.7562 47.8642C33.6598 47.7626 33.5433 47.6847 33.4151 47.6361C33.2869 47.5875 33.15 47.5694 33.0144 47.583C32.987 47.5858 32.9596 47.5871 32.9321 47.5871H21.1731C21.1456 47.5871 21.1182 47.5858 21.0908 47.583C20.9552 47.5694 20.8183 47.5875 20.6901 47.6361C20.5619 47.6847 20.4454 47.7626 20.3491 47.8642C20.2527 47.9658 20.1788 48.0885 20.1327 48.2237C20.0866 48.3588 20.0694 48.5031 20.0823 48.6461C20.0849 48.6749 20.0862 48.7038 20.0862 48.7328V52.6328C20.0862 53.1376 19.6979 53.5468 19.219 53.5468C18.7401 53.5468 18.3518 53.1376 18.3518 52.6328V48.7719C18.3225 48.3764 18.3732 47.9787 18.5006 47.605C18.6332 47.2164 18.8456 46.8635 19.1227 46.5715C19.3997 46.2795 19.7345 46.0556 20.1032 45.9159C20.4577 45.7815 20.835 45.7281 21.2102 45.759Z" fill="white"/>
<path fill-rule="evenodd" clip-rule="evenodd" d="M42.0227 45.759H53.7075C54.0827 45.7281 54.46 45.7815 54.8145 45.9159C55.1832 46.0556 55.518 46.2795 55.7951 46.5715C56.0721 46.8635 56.2845 47.2164 56.4171 47.605C56.5445 47.9787 56.5952 48.3764 56.5659 48.7719V52.6328C56.5659 53.1376 56.1776 53.5468 55.6987 53.5468C55.2198 53.5468 54.8315 53.1376 54.8315 52.6328V48.7328C54.8315 48.7038 54.8328 48.6749 54.8354 48.6461C54.8483 48.5031 54.8311 48.3588 54.785 48.2237C54.7389 48.0885 54.665 47.9657 54.5687 47.8642C54.4723 47.7626 54.3558 47.6847 54.2276 47.6361C54.0994 47.5875 53.9625 47.5694 53.8269 47.583C53.7995 47.5858 53.7721 47.5871 53.7446 47.5871H41.9856C41.9581 47.5871 41.9307 47.5858 41.9033 47.583C41.7677 47.5694 41.6308 47.5875 41.5026 47.6361C41.3744 47.6847 41.2579 47.7626 41.1616 47.8642C41.0652 47.9658 40.9913 48.0885 40.9452 48.2237C40.8991 48.3588 40.8819 48.5031 40.8948 48.6461C40.8974 48.6749 40.8987 48.7038 40.8987 48.7328V52.6328C40.8987 53.1376 40.5104 53.5468 40.0315 53.5468C39.5526 53.5468 39.1643 53.1376 39.1643 52.6328V48.7719C39.135 48.3764 39.1857 47.9787 39.3131 47.605C39.4457 47.2164 39.6581 46.8635 39.9352 46.5715C40.2122 46.2795 40.547 46.0556 40.9157 45.9159C41.2702 45.7815 41.6475 45.7281 42.0227 45.759Z" fill="white"/>
<path fill-rule="evenodd" clip-rule="evenodd" d="M39.0609 24.7479L34.7501 28.7035C34.4937 28.9387 34.1307 28.9944 33.8213 28.846C33.512 28.6976 33.3135 28.3723 33.3135 28.0141V24.7479H28.6593C28.3323 24.7519 28.0077 24.6875 27.7043 24.5584C27.3988 24.4284 27.121 24.2354 26.8872 23.9907C26.6534 23.746 26.4683 23.4546 26.3428 23.1335C26.2178 22.8135 26.1544 22.4706 26.1563 22.1246V10.4792C26.1544 10.1332 26.2175 9.79019 26.3421 9.47C26.4671 9.14869 26.6514 8.85678 26.8844 8.61122C27.1173 8.36567 27.3943 8.17137 27.6991 8.03963C28.0029 7.90835 28.3283 7.84179 28.6566 7.84379H48.7582C49.0865 7.84179 49.4119 7.90835 49.7157 8.03963C50.0205 8.17137 50.2974 8.36567 50.5304 8.61122C50.7634 8.85678 50.9477 9.14869 51.0727 9.47L51.2585 22.1244C51.2604 22.4705 51.197 22.8135 51.0719 23.1335C50.9464 23.4546 50.7613 23.746 50.5276 23.9907C50.2938 24.2354 50.016 24.4284 49.7105 24.5584L39.0609 24.7479Z" fill="white"/>
<path fill-rule="evenodd" clip-rule="evenodd" d="M32.3652 16.3018C32.3652 15.7969 32.7535 15.3877 33.2324 15.3877H34.273C34.752 15.3877 35.1402 15.7969 35.1402 16.3018C35.1402 16.8066 34.752 17.2158 34.273 17.2158H33.2324C32.7535 17.2158 32.3652 16.8066 32.3652 16.3018Z" fill="#0B3C61"/>
<path fill-rule="evenodd" clip-rule="evenodd" d="M37.3379 16.3018C37.3379 15.7969 37.7261 15.3877 38.2051 15.3877H39.2457C39.7246 15.3877 40.1129 15.7969 40.1129 16.3018C40.1129 16.8066 39.7246 17.2158 39.2457 17.2158H38.2051C37.7261 17.2158 37.3379 16.8066 37.3379 16.3018Z" fill="#0B3C61"/>
<path fill-rule="evenodd" clip-rule="evenodd" d="M42.3086 16.3018C42.3086 15.7969 42.6968 15.3877 43.1758 15.3877H44.2164C44.6953 15.3877 45.0836 15.7969 45.0836 16.3018C45.0836 16.8066 44.6953 17.2158 44.2164 17.2158H43.1758C42.6968 17.2158 42.3086 16.8066 42.3086 16.3018Z" fill="#0B3C61"/>
<path fill-rule="evenodd" clip-rule="evenodd" d="M47.837 31.6094C45.0847 31.6094 42.8535 33.9611 42.8535 36.8622C42.8535 39.7632 45.0847 42.115 47.837 42.115C50.5892 42.115 52.8204 39.7632 52.8204 36.8622C52.8204 33.9611 50.5892 31.6094 47.837 31.6094ZM41.1191 36.8622C41.1191 32.9515 44.1268 29.7812 47.837 29.7812C51.5471 29.7812 54.5548 32.9515 54.5548 36.8622C54.5548 40.7729 51.5471 43.9431 47.837 43.9431C44.1268 43.9431 41.1191 40.7729 41.1191 36.8622Z" fill="#0B3C61"/>
<path fill-rule="evenodd" clip-rule="evenodd" d="M27.0245 31.6094C24.2722 31.6094 22.041 33.9611 22.041 36.8622C22.041 39.7632 24.2722 42.115 27.0245 42.115C29.7767 42.115 32.0079 39.7632 32.0079 36.8622C32.0079 33.9611 29.7767 31.6094 27.0245 31.6094ZM20.3066 36.8622C20.3066 32.9515 23.3143 29.7812 27.0245 29.7812C30.7346 29.7812 33.7423 32.9515 33.7423 36.8622C33.7423 40.7729 30.7346 43.9431 27.0245 43.9431C23.3143 43.9431 20.3066 40.7729 20.3066 36.8622Z" fill="#0B3C61"/>
<path fill-rule="evenodd" clip-rule="evenodd" d="M21.2102 45.759H32.895C33.2702 45.7281 33.6475 45.7815 34.002 45.9159C34.3707 46.0556 34.7055 46.2795 34.9826 46.5715C35.2596 46.8635 35.472 47.2164 35.6046 47.605C35.732 47.9787 35.7827 48.3764 35.7534 48.7719V52.6328C35.7534 53.1376 35.3651 53.5468 34.8862 53.5468C34.4073 53.5468 34.019 53.1376 34.019 52.6328V48.7328C34.019 48.7038 34.0203 48.6749 34.0229 48.6461C34.0358 48.5031 34.0186 48.3588 33.9725 48.2237C33.9264 48.0885 33.8525 47.9658 33.7562 47.8642C33.6598 47.7626 33.5433 47.6847 33.4151 47.6361C33.2869 47.5875 33.15 47.5694 33.0144 47.583C32.987 47.5858 32.9596 47.5871 32.9321 47.5871H21.1731C21.1456 47.5871 21.1182 47.5858 21.0908 47.583C20.9552 47.5694 20.8183 47.5875 20.6901 47.6361C20.5619 47.6847 20.4454 47.7626 20.3491 47.8642C20.2527 47.9658 20.1788 48.0885 20.1327 48.2237C20.0866 48.3588 20.0694 48.5031 20.0823 48.6461C20.0849 48.6749 20.0862 48.7038 20.0862 48.7328V52.6328C20.0862 53.1376 19.6979 53.5468 19.219 53.5468C18.7401 53.5468 18.3518 53.1376 18.3518 52.6328V48.7719C18.3225 48.3764 18.3732 47.9787 18.5006 47.605C18.6332 47.2164 18.8456 46.8635 19.1227 46.5715C19.3997 46.2795 19.7345 46.0556 20.1032 45.9159C20.4577 45.7815 20.835 45.7281 21.2102 45.759Z" fill="#0B3C61"/>
<path fill-rule="evenodd" clip-rule="evenodd" d="M42.0227 45.759H53.7075C54.0827 45.7281 54.46 45.7815 54.8145 45.9159C55.1832 46.0556 55.518 46.2795 55.7951 46.5715C56.0721 46.8635 56.2845 47.2164 56.4171 47.605C56.5445 47.9787 56.5952 48.3764 56.5659 48.7719V52.6328C56.5659 53.1376 56.1776 53.5468 55.6987 53.5468C55.2198 53.5468 54.8315 53.1376 54.8315 52.6328V48.7328C54.8315 48.7038 54.8328 48.6749 54.8354 48.6461C54.8483 48.5031 54.8311 48.3588 54.785 48.2237C54.7389 48.0885 54.665 47.9657 54.5687 47.8642C54.4723 47.7626 54.3558 47.6847 54.2276 47.6361C54.0994 47.5875 53.9625 47.5694 53.8269 47.583C53.7995 47.5858 53.7721 47.5871 53.7446 47.5871H41.9856C41.9581 47.5871 41.9307 47.5858 41.9033 47.583C41.7677 47.5694 41.6308 47.5875 41.5026 47.6361C41.3744 47.6847 41.2579 47.7626 41.1616 47.8642C41.0652 47.9658 40.9913 48.0885 40.9452 48.2237C40.8991 48.3588 40.8819 48.5031 40.8948 48.6461C40.8974 48.6749 40.8987 48.7038 40.8987 48.7328V52.6328C40.8987 53.1376 40.5104 53.5468 40.0315 53.5468C39.5526 53.5468 39.1643 53.1376 39.1643 52.6328V48.7719C39.135 48.3764 39.1857 47.9787 39.3131 47.605C39.4457 47.2164 39.6581 46.8635 39.9352 46.5715C40.2122 46.2795 40.547 46.0556 40.9157 45.9159C41.2702 45.7815 41.6475 45.7281 42.0227 45.759Z" fill="#0B3C61"/>
<path fill-rule="evenodd" clip-rule="evenodd" d="M39.0609 24.7479L34.7501 28.7035C34.4937 28.9387 34.1307 28.9944 33.8213 28.846C33.512 28.6976 33.3135 28.3723 33.3135 28.0141V24.7479H28.6593C28.3323 24.7519 28.0077 24.6875 27.7043 24.5584C27.3988 24.4284 27.121 24.2354 26.8872 23.9907C26.6534 23.746 26.4683 23.4546 26.3428 23.1335C26.2178 22.8135 26.1544 22.4706 26.1563 22.1246V10.4792C26.1544 10.1332 26.2175 9.79019 26.3421 9.47C26.4671 9.14869 26.6514 8.85678 26.8844 8.61122C27.1173 8.36567 27.3943 8.17137 27.6991 8.03963C28.0029 7.90835 28.3283 7.84179 28.6566 7.84379H48.7582C49.0865 7.84179 49.4119 7.90835 49.7157 8.03963C50.0205 8.17137 50.2974 8.36567 50.5304 8.61122C50.7634 8.85678 50.9477 9.14869 51.0727 9.47L51.2585 22.1244C51.2604 22.4705 51.197 22.8135 51.0719 23.1335C50.9464 23.4546 50.7613 23.746 50.5276 23.9907C50.2938 24.2354 50.016 24.4284 49.7105 24.5584L39.0609 24.7479ZM28.6016 9.06254C28.0493 9.06254 27.6016 9.51025 27.6016 10.0625V22.0782C27.6016 22.6304 28.0493 23.0782 28.6016 23.0782H33.5369C34.09 23.0782 34.5381 23.5272 34.5369 24.0804L34.531 26.7344L37.7212 23.8521C38.2726 23.354 38.9893 23.0782 39.7324 23.0782H48.5703C49.1226 23.0782 49.5703 22.6304 49.5703 22.0782V10.0625C49.5703 9.51025 49.1226 9.06254 48.5703 9.06254H28.6016Z" fill="#0B3C61"/>
</g>
<defs>
<clipPath id="clip0_1186_32327">
<rect width="75" height="75" fill="white"/>
</clipPath>
</defs>
</svg>
