<svg width="24" height="24" viewBox="0 0 24 24" fill="none" xmlns="http://www.w3.org/2000/svg">
<path fill-rule="evenodd" clip-rule="evenodd" d="M6.88556 6.57532C5.94511 6.57786 5.04358 6.95107 4.37652 7.61401C3.70946 8.27694 3.33066 9.17613 3.32229 10.1165C3.31987 10.8195 3.52597 11.5073 3.91452 12.0931C4.30308 12.6788 4.85662 13.1362 5.50515 13.4073C6.15367 13.6784 6.86804 13.7511 7.55788 13.6162C8.24772 13.4812 8.88204 13.1447 9.38062 12.6492C9.87919 12.1538 10.2196 11.5215 10.3588 10.8325C10.498 10.1435 10.4298 9.42875 10.1627 8.77856C9.89561 8.12836 9.44169 7.57199 8.85835 7.17981C8.27501 6.78762 7.58847 6.57726 6.88556 6.57532ZM4.73681 10.1253C4.73612 10.547 4.86013 10.9596 5.0933 11.3111C5.32718 11.6637 5.66038 11.939 6.05074 12.1022C6.44111 12.2654 6.8711 12.3092 7.28634 12.2279C7.70157 12.1467 8.08339 11.9442 8.38349 11.6459C8.6836 11.3477 8.88851 10.9671 8.9723 10.5524C9.0561 10.1377 9.01501 9.70741 8.85425 9.31604C8.69348 8.92467 8.42025 8.58978 8.06913 8.35371C7.71907 8.11837 7.30726 7.99179 6.88551 7.98987C6.31877 7.99241 5.77571 8.21776 5.37365 8.61734C4.97159 9.01691 4.74287 9.55856 4.73681 10.1253Z" fill="white"/>
<path fill-rule="evenodd" clip-rule="evenodd" d="M22.5864 1.46646C21.3239 1.47387 20.0588 1.47083 18.7982 1.4678C18.1209 1.46617 17.445 1.46454 16.7716 1.46454L11.9838 1.47068V6.25066C12.4085 6.61161 12.6519 6.71254 12.9231 7.12083C12.9231 7.12083 12.9871 7.21219 13.0195 7.25782C13.2069 7.52189 13.2031 7.56725 13.2031 7.56725C13.2031 7.56725 13.2867 7.5424 13.303 7.5424H22.5864V1.46646ZM13.2867 8.98275C13.1952 8.97928 13.1041 8.99565 13.0195 9.03074C12.935 9.06583 12.859 9.1188 12.7969 9.18602C12.7079 9.27495 12.6188 9.36378 12.5295 9.45253C12.4646 9.5171 12.3996 9.58163 12.3345 9.64612C12.3288 9.65172 12.3232 9.65732 12.3175 9.66292C12.1467 9.83219 11.9755 10.0012 11.8044 10.1702C11.6944 10.2789 11.5843 10.3876 11.4744 10.4962C11.7885 9.92482 11.7885 9.92482 11.8752 9.66292C11.9295 9.49874 12.0243 9.28017 12.0243 8.98179C12.0243 8.68341 11.9838 8.20453 11.8752 7.98434C11.6175 7.46218 11.2004 7.0353 10.7158 6.71254V0.638262C10.7073 0.554035 10.7174 0.468982 10.7453 0.389065C10.7732 0.309148 10.8183 0.236302 10.8773 0.175635C10.9364 0.114968 11.0079 0.0679482 11.0871 0.0378717C11.1662 0.00779524 11.2509 -0.00460915 11.3354 0.00152712H16.7716C17.4499 0.00152712 18.1283 0.00315977 18.8067 0.00479243C20.1634 0.00805774 23.3463 0.026018 23.3463 0.026018L23.6006 0.0687638C23.6815 0.100404 23.8164 0.209865 23.8164 0.209865C23.8778 0.271285 23.9258 0.344753 23.9575 0.425645C23.9891 0.506538 24.0037 0.593104 24.0002 0.679896L23.9978 8.34847C24.0016 8.43643 23.9871 8.52423 23.955 8.60623C23.923 8.68824 23.8742 8.76264 23.8117 8.82467C23.7492 8.88669 23.6828 8.91587 23.6006 8.94731C23.5184 8.97875 23.422 9.01176 23.3341 9.00724L13.2867 8.98275Z" fill="white"/>
<path fill-rule="evenodd" clip-rule="evenodd" d="M1.97913 16.1242C2.64233 15.461 3.54182 15.0884 4.47972 15.0884H10.1379C11.0758 15.0884 11.9753 15.461 12.6385 16.1242C13.3017 16.7874 13.6742 17.6869 13.6742 18.6248V20.0393C13.6742 20.43 13.3576 20.7466 12.967 20.7466C12.5764 20.7466 12.2597 20.43 12.2597 20.0393V18.6248C12.2597 18.0621 12.0362 17.5224 11.6382 17.1244C11.2403 16.7265 10.7006 16.503 10.1379 16.503H4.47972C3.91698 16.503 3.37728 16.7265 2.97937 17.1244C2.58145 17.5224 2.3579 18.0621 2.3579 18.6248V20.0393C2.3579 20.43 2.04125 20.7466 1.65063 20.7466C1.26002 20.7466 0.943359 20.43 0.943359 20.0393V18.6248C0.943359 17.6869 1.31594 16.7874 1.97913 16.1242Z" fill="white"/>
</svg>
