<svg width="24" height="24" viewBox="0 0 24 24" fill="none" xmlns="http://www.w3.org/2000/svg">
<path fill-rule="evenodd" clip-rule="evenodd" d="M6.48825 0L12.4022 0.000911513C12.3334 0.12175 12.2942 0.261553 12.2942 0.41053V5.83274C12.2938 5.84329 12.2936 5.85389 12.2936 5.86454C12.2936 5.88674 12.2944 5.90874 12.2961 5.9305C12.3257 6.36172 12.6849 6.70236 13.1236 6.70236L13.1303 6.70233L13.1314 6.70233L18.5058 6.70233C18.6604 6.70233 18.8052 6.66047 18.9295 6.58747V8.62081C18.4039 8.4628 17.8471 8.37795 17.2707 8.37795C16.1761 8.37795 15.1523 8.68389 14.2785 9.21573H8.15487C7.69217 9.21573 7.31707 9.59082 7.31707 10.0535C7.31707 10.5162 7.69217 10.8913 8.15487 10.8913H12.5054C12.156 11.3974 11.8835 11.9617 11.7052 12.5669H8.15487C7.69217 12.5669 7.31707 12.942 7.31707 13.4047C7.31707 13.8674 7.69217 14.2425 8.15487 14.2425H11.4647C11.4647 15.8835 12.132 17.367 13.2073 18.4315H6.48825C5.82832 18.4315 5.19543 18.1667 4.72879 17.6953C4.26215 17.224 4 16.5847 4 15.9181V2.51338C4 1.84679 4.26215 1.2075 4.72879 0.736152C5.19543 0.264802 5.82832 0 6.48825 0ZM13.953 5.02675H18.4436L13.953 0.490772V5.02675ZM8.15487 5.86458C7.69217 5.86458 7.31707 6.23967 7.31707 6.70237C7.31707 7.16507 7.69217 7.54017 8.15487 7.54017H9.79694C10.2596 7.54017 10.6347 7.16507 10.6347 6.70237C10.6347 6.23967 10.2596 5.86458 9.79694 5.86458H8.15487Z" fill="white"/>
<path d="M13 22.7692L15.0833 18L15.2222 18.4615H18L15.7778 24L14.6667 22.6154L13 22.7692Z" fill="white"/>
<path d="M22 22.8571L19.9167 18L19.7778 18.8571H17L19.2222 24L20.3333 22.7143L22 22.8571Z" fill="white"/>
<path fill-rule="evenodd" clip-rule="evenodd" d="M17.5935 19.3245C20.1455 19.3245 22.2143 17.2557 22.2143 14.7037C22.2143 12.1516 20.1455 10.0828 17.5935 10.0828C15.0415 10.0828 12.9727 12.1516 12.9727 14.7037C12.9727 17.2557 15.0415 19.3245 17.5935 19.3245ZM17.5928 18.4843C19.6808 18.4843 21.3734 16.7917 21.3734 14.7037C21.3734 12.6156 19.6808 10.923 17.5928 10.923C15.5048 10.923 13.8121 12.6156 13.8121 14.7037C13.8121 16.7917 15.5048 18.4843 17.5928 18.4843Z" fill="white"/>
</svg>
