<svg width="24" height="24" viewBox="0 0 24 24" fill="none" xmlns="http://www.w3.org/2000/svg">
<path fill-rule="evenodd" clip-rule="evenodd" d="M11.6572 1.80005C11.8465 1.80005 12 1.96405 12 2.16636L12 17.076L16.202 12.8741C16.3388 12.7373 16.5606 12.7373 16.6974 12.8741C16.8342 13.0109 16.8342 13.2327 16.6974 13.3695L11.9124 18.1546C11.843 18.224 11.7517 18.2582 11.6608 18.2572L11.6572 18.2572L11.6535 18.2572C11.5626 18.2582 11.4713 18.224 11.402 18.1546L6.61692 13.3695C6.4801 13.2327 6.4801 13.0109 6.61692 12.8741C6.75373 12.7373 6.97555 12.7373 7.11236 12.8741L11.3143 17.076V2.16636C11.3143 1.96405 11.4678 1.80005 11.6572 1.80005ZM21.6 17.9208C21.6 17.7279 21.434 17.5715 21.2292 17.5715C21.0244 17.5715 20.8584 17.7279 20.8584 17.9208V20.9871H3.14166V17.9208H2.40002V21.6858H21.6V17.9208Z" fill="#0B3C61"/>
</svg>
