<svg width="18" height="18" viewBox="0 0 18 18" fill="none" xmlns="http://www.w3.org/2000/svg">
<path fill-rule="evenodd" clip-rule="evenodd" d="M2.31177 2.79632C2.24858 2.86161 2.1998 2.97689 2.1998 3.18023V15.5282C2.1998 15.7122 2.24594 15.8226 2.3077 15.8871C2.36801 15.95 2.47317 16.0002 2.6598 16.0002H14.1158C14.3365 16.0002 14.4419 15.9536 14.4971 15.8979C14.5528 15.8415 14.5998 15.7329 14.5998 15.5062V7.06023C14.5998 6.94977 14.6893 6.86023 14.7998 6.86023C14.9103 6.86023 14.9998 6.94977 14.9998 7.06023V15.5062C14.9998 15.7736 14.9468 16.0119 14.7815 16.1791C14.6157 16.3468 14.3791 16.4002 14.1158 16.4002H2.6598C2.40244 16.4002 2.1776 16.3294 2.01891 16.1639C1.86167 15.9998 1.7998 15.7743 1.7998 15.5282V3.18023C1.7998 2.91956 1.86203 2.68584 2.02434 2.51814C2.18784 2.3492 2.41886 2.28223 2.6798 2.28223H12.0598C12.1703 2.28223 12.2598 2.37177 12.2598 2.48223C12.2598 2.59268 12.1703 2.68223 12.0598 2.68223H2.6798C2.48275 2.68223 2.37377 2.73226 2.31177 2.79632Z" fill="#00518A" stroke="#00518A" stroke-width="0.5" stroke-linecap="round" stroke-linejoin="round"/>
<path fill-rule="evenodd" clip-rule="evenodd" d="M14.3757 2.01719C14.3278 2.01719 14.2805 2.02678 14.2364 2.0454C14.1923 2.06401 14.1524 2.09128 14.119 2.12558L14.1171 2.12757L5.87302 10.3716L5.05075 13.1498L7.85101 12.35L16.1062 4.11275C16.1405 4.07939 16.1678 4.0395 16.1864 3.99542C16.205 3.95134 16.2146 3.90398 16.2146 3.85613C16.2146 3.80828 16.205 3.76092 16.1864 3.71684C16.1678 3.67276 16.1405 3.63286 16.1062 3.5995L16.1042 3.59757L14.6323 2.12559C14.5989 2.09129 14.559 2.06401 14.515 2.0454C14.4709 2.02678 14.4235 2.01719 14.3757 2.01719ZM14.0807 1.67692C14.1741 1.6375 14.2744 1.61719 14.3757 1.61719C14.477 1.61719 14.5773 1.6375 14.6706 1.67692C14.7635 1.71614 14.8476 1.77349 14.918 1.84561L16.3862 3.31382C16.4583 3.38424 16.5157 3.46834 16.5549 3.56121C16.5943 3.65454 16.6146 3.75482 16.6146 3.85613C16.6146 3.95744 16.5943 4.05773 16.5549 4.15106C16.5156 4.24396 16.4583 4.3281 16.3861 4.39854L8.09694 12.6697C8.07292 12.6937 8.04321 12.7111 8.0106 12.7204L4.8106 13.6344C4.74043 13.6545 4.66493 13.6347 4.61357 13.5829C4.56222 13.531 4.54318 13.4553 4.56389 13.3854L5.50389 10.2094C5.51336 10.1774 5.53067 10.1483 5.55425 10.1247L13.8333 1.84562C13.9038 1.77349 13.9879 1.71614 14.0807 1.67692Z" fill="#00518A" stroke="#00518A" stroke-width="0.5" stroke-linecap="round" stroke-linejoin="round"/>
</svg>
