<svg width="24" height="24" viewBox="0 0 24 24" fill="none" xmlns="http://www.w3.org/2000/svg">
<path d="M19.2412 21.1088L19.3301 21.1966L19.2412 21.1088C19.2022 21.1482 19.1025 21.2081 18.8217 21.2081H3.54706C3.32061 21.2081 3.21765 21.1478 3.16782 21.0958C3.1152 21.0409 3.05872 20.9295 3.05872 20.7038V4.23981C3.05872 3.98684 3.11944 3.87004 3.17283 3.81486C3.22392 3.76208 3.33124 3.70081 3.57372 3.70081H16.0804C16.2967 3.70081 16.4721 3.52546 16.4721 3.30915C16.4721 3.09284 16.2967 2.91748 16.0804 2.91748H3.57372C3.20599 2.91748 2.85975 3.01199 2.60995 3.2701C2.36251 3.52577 2.27539 3.87448 2.27539 4.23981V20.7038C2.27539 21.0511 2.36274 21.3879 2.60229 21.6378C2.84469 21.8907 3.18195 21.9915 3.54706 21.9915H18.8217C19.1859 21.9915 19.5424 21.9182 19.7982 21.6595C20.0529 21.402 20.1254 21.0436 20.1254 20.6745V9.41315C20.1254 9.19684 19.95 9.02148 19.7337 9.02148C19.5174 9.02148 19.3421 9.19684 19.3421 9.41315V20.6745C19.3421 20.9637 19.2813 21.0682 19.2412 21.1088Z" fill="white" stroke="white" stroke-width="0.25" stroke-linecap="round" stroke-linejoin="round"/>
<path d="M18.9112 2.92514L18.9112 2.92515L18.9124 2.92391L18.915 2.92126C18.9478 2.8875 18.9871 2.86067 19.0305 2.84235C19.0739 2.82402 19.1205 2.81458 19.1676 2.81458C19.2147 2.81458 19.2613 2.82402 19.3046 2.84235C19.348 2.86065 19.3872 2.88749 19.4201 2.92128L19.4201 2.92128L19.4213 2.92251L21.3839 4.88514L21.3839 4.88515L21.3852 4.88638L21.3878 4.88894C21.3878 4.88894 21.3878 4.88895 21.3878 4.88896C21.4216 4.92179 21.4484 4.96105 21.4667 5.00442C21.485 5.0478 21.4945 5.09442 21.4945 5.14151C21.4945 5.1886 21.485 5.23522 21.4667 5.27859C21.4484 5.32195 21.4216 5.36121 21.3878 5.39406L21.3878 5.39405L21.3867 5.39518L10.4026 16.3554L6.91876 17.3505L7.94154 13.8948L18.9112 2.92514ZM19.6094 2.12074L19.5608 2.23589L19.6094 2.12074C19.4696 2.06168 19.3193 2.03125 19.1676 2.03125C19.0158 2.03125 18.8655 2.06168 18.7257 2.12074C18.5868 2.17941 18.461 2.26515 18.3556 2.37295C18.3554 2.37313 18.3552 2.37331 18.355 2.37349L7.31728 13.4112C7.2711 13.4574 7.2372 13.5144 7.21866 13.577L5.96533 17.8117C5.92477 17.9487 5.96206 18.0969 6.06262 18.1985H6.06262C6.16319 18.3 6.31106 18.3387 6.44846 18.2994L10.7151 17.0808C10.779 17.0625 10.8372 17.0283 10.8842 16.9814L21.9355 5.95417C21.9356 5.95401 21.9358 5.95385 21.9359 5.95369C22.0438 5.84825 22.1296 5.72236 22.1883 5.58338L22.0732 5.53474L22.1883 5.58338C22.2474 5.44355 22.2778 5.2933 22.2778 5.14151C22.2778 4.98972 22.2474 4.83947 22.1883 4.69964C22.1297 4.56075 22.0439 4.43494 21.9362 4.32954C21.936 4.32936 21.9358 4.32917 21.9356 4.32899L19.9801 2.37349C19.9799 2.3733 19.9797 2.37312 19.9796 2.37294C19.8742 2.26514 19.7483 2.17941 19.6094 2.12074Z" fill="white" stroke="white" stroke-width="0.25" stroke-linecap="round" stroke-linejoin="round"/>
</svg>
