<svg width="40" height="40" viewBox="0 0 40 40" fill="none" xmlns="http://www.w3.org/2000/svg">
<path fill-rule="evenodd" clip-rule="evenodd" d="M15.127 7.94006C15.127 7.52585 15.4627 7.19006 15.877 7.19006H16.777C17.1912 7.19006 17.527 7.52585 17.527 7.94006C17.527 8.35428 17.1912 8.69006 16.777 8.69006H15.877C15.4627 8.69006 15.127 8.35428 15.127 7.94006Z" fill="#333333"/>
<path fill-rule="evenodd" clip-rule="evenodd" d="M19.427 7.94006C19.427 7.52585 19.7628 7.19006 20.177 7.19006H21.077C21.4912 7.19006 21.827 7.52585 21.827 7.94006C21.827 8.35428 21.4912 8.69006 21.077 8.69006H20.177C19.7628 8.69006 19.427 8.35428 19.427 7.94006Z" fill="#333333"/>
<path fill-rule="evenodd" clip-rule="evenodd" d="M23.7271 7.94006C23.7271 7.52585 24.0628 7.19006 24.4771 7.19006H25.3771C25.7913 7.19006 26.1271 7.52585 26.1271 7.94006C26.1271 8.35428 25.7913 8.69006 25.3771 8.69006H24.4771C24.0628 8.69006 23.7271 8.35428 23.7271 7.94006Z" fill="#333333"/>
<path fill-rule="evenodd" clip-rule="evenodd" d="M28.507 20.5C26.1267 20.5 24.197 22.4297 24.197 24.81C24.197 27.1903 26.1267 29.12 28.507 29.12C30.8874 29.12 32.817 27.1903 32.817 24.81C32.817 22.4297 30.8874 20.5 28.507 20.5ZM22.697 24.81C22.697 21.6012 25.2982 19 28.507 19C31.7158 19 34.317 21.6012 34.317 24.81C34.317 28.0188 31.7158 30.62 28.507 30.62C25.2982 30.62 22.697 28.0188 22.697 24.81Z" fill="#333333"/>
<path fill-rule="evenodd" clip-rule="evenodd" d="M10.507 20.5C8.12667 20.5 6.19702 22.4297 6.19702 24.81C6.19702 27.1903 8.12667 29.12 10.507 29.12C12.8874 29.12 14.817 27.1903 14.817 24.81C14.817 22.4297 12.8874 20.5 10.507 20.5ZM4.69702 24.81C4.69702 21.6012 7.29825 19 10.507 19C13.7158 19 16.317 21.6012 16.317 24.81C16.317 28.0188 13.7158 30.62 10.507 30.62C7.29825 30.62 4.69702 28.0188 4.69702 24.81Z" fill="#333333"/>
<path fill-rule="evenodd" clip-rule="evenodd" d="M5.47912 32.11H15.5849C15.9094 32.0847 16.2357 32.1285 16.5423 32.2387C16.8611 32.3534 17.1507 32.5371 17.3903 32.7767C17.6299 33.0163 17.8136 33.3059 17.9283 33.6247C18.0385 33.9313 18.0823 34.2576 18.057 34.5821V37.75C18.057 38.1642 17.7212 38.5 17.307 38.5C16.8928 38.5 16.557 38.1642 16.557 37.75V34.55C16.557 34.5263 16.5581 34.5025 16.5604 34.4789C16.5715 34.3616 16.5567 34.2432 16.5168 34.1323C16.4769 34.0214 16.413 33.9207 16.3297 33.8373C16.2463 33.754 16.1456 33.6901 16.0347 33.6502C15.9238 33.6103 15.8054 33.5955 15.6881 33.6066C15.6645 33.6089 15.6407 33.61 15.617 33.61H5.44699C5.42324 33.61 5.3995 33.6089 5.37586 33.6066C5.25853 33.5955 5.14018 33.6103 5.02928 33.6502C4.91838 33.6901 4.81766 33.754 4.73431 33.8373C4.65098 33.9207 4.58708 34.0214 4.5472 34.1323C4.50731 34.2432 4.49243 34.3616 4.50361 34.4789C4.50586 34.5025 4.50699 34.5263 4.50699 34.55V37.75C4.50699 38.1642 4.1712 38.5 3.75699 38.5C3.34277 38.5 3.00699 38.1642 3.00699 37.75V34.5821C2.98164 34.2576 3.02545 33.9313 3.13569 33.6247C3.25036 33.3059 3.43406 33.0163 3.67365 32.7767C3.91325 32.5371 4.20283 32.3534 4.52169 32.2387C4.82826 32.1285 5.15462 32.0847 5.47912 32.11Z" fill="#333333"/>
<path fill-rule="evenodd" clip-rule="evenodd" d="M23.4791 32.11H33.5849C33.9094 32.0847 34.2357 32.1285 34.5423 32.2387C34.8611 32.3534 35.1507 32.5371 35.3903 32.7767C35.6299 33.0163 35.8136 33.3059 35.9283 33.6247C36.0385 33.9313 36.0823 34.2576 36.057 34.5821V37.75C36.057 38.1642 35.7212 38.5 35.307 38.5C34.8928 38.5 34.557 38.1642 34.557 37.75V34.55C34.557 34.5263 34.5581 34.5025 34.5604 34.4789C34.5715 34.3616 34.5567 34.2432 34.5168 34.1323C34.4769 34.0214 34.413 33.9207 34.3297 33.8373C34.2463 33.754 34.1456 33.6901 34.0347 33.6502C33.9238 33.6103 33.8054 33.5955 33.6881 33.6066C33.6645 33.6089 33.6407 33.61 33.617 33.61H23.447C23.4232 33.61 23.3995 33.6089 23.3759 33.6066C23.2585 33.5955 23.1402 33.6103 23.0293 33.6502C22.9184 33.6901 22.8177 33.754 22.7343 33.8373C22.651 33.9207 22.5871 34.0214 22.5472 34.1323C22.5073 34.2432 22.4924 34.3616 22.5036 34.4789C22.5059 34.5025 22.507 34.5263 22.507 34.55V37.75C22.507 38.1642 22.1712 38.5 21.757 38.5C21.3428 38.5 21.007 38.1642 21.007 37.75V34.5821C20.9816 34.2576 21.0254 33.9313 21.1357 33.6247C21.2504 33.3059 21.4341 33.0163 21.6737 32.7767C21.9132 32.5371 22.2028 32.3534 22.5217 32.2387C22.8283 32.1285 23.1546 32.0847 23.4791 32.11Z" fill="#333333"/>
<path fill-rule="evenodd" clip-rule="evenodd" d="M20.9177 14.87L17.1894 18.1157C16.9677 18.3087 16.6537 18.3544 16.3862 18.2326C16.1187 18.1108 15.947 17.844 15.947 17.55V14.87H11.9218C11.6389 14.8733 11.3582 14.8205 11.0958 14.7146C10.8316 14.6079 10.5913 14.4495 10.3891 14.2488C10.1869 14.048 10.0269 13.8089 9.91833 13.5454C9.81016 13.2829 9.75532 13.0015 9.757 12.7176V3.16244C9.75535 2.87852 9.80996 2.59708 9.91768 2.33436C10.0258 2.07072 10.1852 1.8312 10.3867 1.62972C10.5882 1.42824 10.8277 1.26882 11.0913 1.16072C11.354 1.053 11.6355 0.998393 11.9194 1.00004H29.3046C29.5885 0.998393 29.87 1.053 30.1327 1.16072C30.3963 1.26882 30.6358 1.42824 30.8373 1.62972C31.0388 1.8312 31.1982 2.07072 31.3063 2.33436L31.467 12.7174C31.4687 13.0014 31.4138 13.2829 31.3057 13.5454C31.1971 13.8089 31.037 14.048 30.8348 14.2488C30.6326 14.4495 30.3924 14.6079 30.1282 14.7146L20.9177 14.87ZM12.007 2.00003C11.4547 2.00003 11.007 2.44775 11.007 3.00003V12.5C11.007 13.0523 11.4547 13.5 12.007 13.5H16.0047C16.5579 13.5 17.0059 13.9492 17.0047 14.5024L17 16.5L19.6574 14.2223C20.2011 13.7562 20.8936 13.5 21.6098 13.5H29.007C29.5593 13.5 30.007 13.0523 30.007 12.5V3.00003C30.007 2.44775 29.5593 2.00003 29.007 2.00003H12.007Z" fill="#333333"/>
</svg>
