<svg width="29" height="29" viewBox="0 0 29 29" fill="none" xmlns="http://www.w3.org/2000/svg">
<path fill-rule="evenodd" clip-rule="evenodd" d="M7.71398 4.62142C7.84604 4.60774 7.97884 4.60105 8.11182 4.60139L8.11283 4.60139C8.71698 4.60154 9.31369 4.73455 9.86068 4.991C10.2951 5.20114 10.6911 5.48264 11.0324 5.82376L11.0702 5.86627L11.0783 5.87514C11.5319 6.35771 11.8711 6.9362 12.0707 7.56771C12.2703 8.19921 12.3252 8.86755 12.2314 9.52318C12.2285 9.54343 12.227 9.56387 12.227 9.58433C12.227 9.58399 12.227 9.58417 12.227 9.58433C12.2269 9.58616 12.2263 9.59634 12.2234 9.62208C12.2228 9.62716 12.222 9.63366 12.2211 9.64115C12.2182 9.66501 12.2142 9.6988 12.2115 9.72794C12.2079 9.76784 12.2039 9.82706 12.209 9.89061C12.2136 9.94829 12.2287 10.057 12.2995 10.1632C12.3154 10.187 12.3336 10.2092 12.3539 10.2294L23.9309 21.7719L23.9372 21.7781C24.0843 21.9188 24.2014 22.0879 24.2814 22.2751C24.3613 22.4623 24.4026 22.6638 24.4026 22.8674C24.4026 23.0709 24.3613 23.2724 24.2814 23.4596C24.2014 23.6468 24.0843 23.8159 23.9372 23.9566L23.9304 23.9633C23.6468 24.2469 23.3692 24.3586 23.1168 24.3873C22.8561 24.4169 22.5903 24.3611 22.3381 24.2581C22.0863 24.1552 21.8659 24.0125 21.7059 23.8921C21.6268 23.8326 21.5648 23.7802 21.5235 23.7437C21.5029 23.7255 21.4876 23.7113 21.4781 23.7024L21.4683 23.693L21.4673 23.6921L21.4669 23.6916L10.2019 12.4209C10.0363 12.2553 9.82209 12.2455 9.73483 12.2455C9.63507 12.2455 9.53741 12.262 9.48908 12.2701C9.48803 12.2703 9.48701 12.2705 9.486 12.2706C8.83345 12.361 8.16891 12.3042 7.54113 12.1043C6.91155 11.9038 6.33502 11.5645 5.85408 11.1115C5.85024 11.1079 5.84632 11.1043 5.84235 11.1008L5.80884 11.0715C5.47348 10.7277 5.19791 10.3303 4.99356 9.89557L4.99184 9.89197C4.72518 9.33808 4.58639 8.73135 4.58575 8.11661L4.58575 8.11567C4.58536 7.99667 4.59062 7.8778 4.60146 7.75947L6.68838 9.90881C6.7865 10.0314 6.90721 10.1341 7.04406 10.2114C7.18916 10.2934 7.34938 10.3451 7.51503 10.3633C7.68068 10.3815 7.8483 10.3659 8.00774 10.3174C8.16718 10.269 8.31513 10.1887 8.44262 10.0813C8.45185 10.0736 8.46075 10.0654 8.4693 10.0569L10.0114 8.5206C10.0202 8.51185 10.0286 8.50272 10.0366 8.49324C10.1434 8.36665 10.2237 8.2199 10.2728 8.06169C10.3219 7.90348 10.3386 7.73702 10.3222 7.57219C10.3057 7.40737 10.2563 7.24753 10.1768 7.10217C10.1014 6.96411 10.0004 6.84177 9.87923 6.74165L7.71398 4.62142ZM3.82948 7.11434L3.89764 6.76789C3.92862 6.61037 4.04449 6.48307 4.19841 6.43744C4.35232 6.39181 4.51885 6.43539 4.63068 6.55057L7.32354 9.32398C7.33543 9.33623 7.34659 9.34918 7.35695 9.36275C7.38719 9.40237 7.42516 9.43543 7.46855 9.45994C7.51195 9.48445 7.55987 9.4999 7.6094 9.50535C7.65894 9.5108 7.70907 9.50614 7.75675 9.49164C7.79977 9.47857 7.83998 9.45775 7.87543 9.43024L9.38651 7.9248C9.4141 7.8893 9.43508 7.84908 9.44843 7.80606C9.46326 7.75823 9.46833 7.7079 9.46335 7.65807C9.45837 7.60824 9.44343 7.55992 9.41942 7.51597C9.39541 7.47203 9.36281 7.43335 9.32358 7.40223C9.3118 7.39289 9.30051 7.38294 9.28977 7.37243L6.52212 4.66231C6.40938 4.55192 6.36588 4.3888 6.40867 4.23693C6.45146 4.08506 6.57373 3.96865 6.72751 3.93336L7.07979 3.85251C7.41899 3.77575 7.76576 3.73744 8.11354 3.7383C8.84505 3.73855 9.56753 3.89985 10.2297 4.21076L10.234 4.21278C10.7605 4.46714 11.2402 4.80887 11.6526 5.22341C11.6583 5.22914 11.6638 5.23503 11.6692 5.24107L11.7113 5.28847C12.2516 5.86452 12.6556 6.55451 12.8936 7.30757C13.1297 8.05445 13.1965 8.84442 13.0893 9.62013C13.0877 9.65963 13.0837 9.69584 13.0808 9.72063L13.0793 9.73385L24.5373 21.1577C24.767 21.3784 24.9499 21.6431 25.0751 21.936C25.2008 22.2304 25.2657 22.5472 25.2657 22.8674C25.2657 23.1875 25.2008 23.5043 25.0751 23.7987C24.9499 24.0916 24.7671 24.3562 24.5374 24.5769C24.1228 24.9901 23.668 25.1933 23.2143 25.2449C22.7679 25.2956 22.3529 25.1964 22.0117 25.0571C21.6702 24.9175 21.3846 24.7305 21.1869 24.5817C21.0871 24.5066 21.0075 24.4396 20.9518 24.3903C20.9238 24.3656 20.9018 24.3453 20.8861 24.3305C20.8782 24.3231 20.872 24.317 20.8673 24.3125L20.8616 24.3069L20.8596 24.305L20.8589 24.3043C20.8587 24.3041 20.8583 24.3037 21.1629 23.998L20.8583 24.3037L9.67482 13.1145C9.65903 13.1168 9.64237 13.1196 9.62237 13.1229L9.61121 13.1246C8.82887 13.234 8.03195 13.1664 7.27924 12.9267C6.52911 12.6878 5.84197 12.2841 5.26816 11.7453L5.22796 11.7101C5.21981 11.703 5.21193 11.6955 5.20434 11.6878C4.79625 11.2725 4.4612 10.7914 4.21331 10.2646C3.89118 9.59477 3.7235 8.86122 3.72266 8.11798M9.73815 13.1087C9.73814 13.1087 9.7378 13.1087 9.73714 13.1087L9.73815 13.1087Z" fill="#0B3C61"/>
<path fill-rule="evenodd" clip-rule="evenodd" d="M23.1645 3.76141C23.332 3.6724 23.538 3.70321 23.6721 3.83735L25.1106 5.27584C25.2451 5.41037 25.2757 5.61714 25.1858 5.78483L23.5114 8.90924C23.4466 9.03013 23.3282 9.11302 23.1925 9.13255L21.6542 9.35381L16.8821 14.1147C16.8725 14.1242 16.8626 14.1332 16.8523 14.1417L16.8594 14.1488L16.5801 14.4282L15.9698 13.8179L15.9751 13.8125L14.8427 12.6619C14.6768 12.4932 14.6775 12.2224 14.8444 12.0547L19.5999 7.27676L19.8212 5.7382C19.8408 5.60191 19.9242 5.48316 20.0458 5.41855L23.1645 3.76141ZM20.6443 6.07793L20.4338 7.54124C20.4206 7.63317 20.378 7.71839 20.3125 7.78423L15.7575 12.3609L16.5801 13.1968L21.1461 8.64155C21.212 8.57583 21.2973 8.53316 21.3895 8.51991L22.8537 8.3093L24.2737 5.65957L23.2876 4.67338L20.6443 6.07793ZM11.9465 14.4646C12.0899 14.4316 12.2402 14.474 12.3452 14.577L14.3821 16.5736C14.4907 16.68 14.5353 16.8356 14.4995 16.9833L13.9241 19.3597C13.9054 19.4368 13.8659 19.5072 13.8098 19.5633L8.52767 24.8455C8.4955 24.8776 8.45843 24.9045 8.41785 24.9251L8.22252 24.5403C8.41785 24.9251 8.41785 24.9251 8.41785 24.9251L8.41613 24.926L8.41369 24.9272L8.40673 24.9307C8.40117 24.9334 8.39376 24.937 8.38459 24.9413C8.36625 24.9499 8.34081 24.9615 8.30884 24.9752C8.24498 25.0027 8.15462 25.0389 8.04249 25.0768C7.81924 25.1523 7.50398 25.2366 7.13594 25.2707C6.39497 25.3392 5.42075 25.2028 4.58583 24.3679C3.72676 23.5088 3.68379 22.4304 3.82594 21.6296C3.89746 21.2267 4.01784 20.8769 4.11935 20.6287C4.17037 20.504 4.21731 20.4034 4.25218 20.3326C4.26963 20.2972 4.28412 20.2692 4.29466 20.2493C4.29993 20.2394 4.30421 20.2314 4.3074 20.2256L4.31133 20.2185L4.31264 20.2161L4.31313 20.2152C4.31313 20.2152 4.31351 20.2146 4.68959 20.4262L4.31351 20.2146C4.33279 20.1803 4.35665 20.1489 4.38444 20.1211L9.38463 15.1209C9.44192 15.0636 9.51417 15.0236 9.59312 15.0054L11.9465 14.4646ZM5.04081 20.6853C5.03645 20.6939 5.03159 20.7036 5.0263 20.7143C4.99913 20.7694 4.96066 20.8517 4.91818 20.9556C4.83269 21.1645 4.7337 21.454 4.67575 21.7805C4.55898 22.4383 4.6167 23.1782 5.19613 23.7576C5.79969 24.3611 6.49125 24.4635 7.05643 24.4112C7.34147 24.3849 7.58937 24.3189 7.76603 24.2592C7.85384 24.2295 7.92262 24.2018 7.9679 24.1823C7.96927 24.1818 7.97193 24.1806 7.97193 24.1806L13.1138 19.0388L13.603 17.0184L11.9097 15.3586L9.90727 15.8188L5.04081 20.6853Z" fill="#0B3C61"/>
<path fill-rule="evenodd" clip-rule="evenodd" d="M10.2308 17.2787C10.3994 17.4473 10.3994 17.7205 10.2308 17.889L6.39295 21.7269C6.22442 21.8955 5.95118 21.8955 5.78265 21.7269C5.61412 21.5584 5.61412 21.2852 5.78265 21.1166L9.62054 17.2787C9.78907 17.1102 10.0623 17.1102 10.2308 17.2787Z" fill="#0B3C61"/>
<path fill-rule="evenodd" clip-rule="evenodd" d="M11.6741 18.7162C11.8426 18.8848 11.8426 19.158 11.6741 19.3265L7.83045 23.1702C7.66192 23.3387 7.38868 23.3387 7.22015 23.1702C7.05162 23.0017 7.05162 22.7284 7.22015 22.5599L11.0638 18.7162C11.2323 18.5477 11.5056 18.5477 11.6741 18.7162Z" fill="#0B3C61"/>
</svg>
