<?xml version="1.0" standalone="no"?>
<!DOCTYPE svg PUBLIC "-//W3C//DTD SVG 1.1//EN" "http://www.w3.org/Graphics/SVG/1.1/DTD/svg11.dtd">
<svg width="24" height="22" viewBox="0 0 24 22" fill="none" xmlns="http://www.w3.org/2000/svg">
<path fill-rule="evenodd" clip-rule="evenodd" d="M1.45264 19.3123C1.9428 19.6064 2.43296 19.7044 2.92312 19.7044H14.0033C13.6589 19.109 13.4159 18.4476 13.2978 17.7438H2.92312C2.82508 17.7438 2.62902 17.7438 2.53099 17.6458C2.04083 17.3517 1.84476 16.7635 2.13886 16.2733L10.3735 2.4508C10.4716 2.25473 10.5696 2.1567 10.7657 2.05867C11.2558 1.86261 11.844 1.96064 12.1381 2.4508L17.3232 11.1543C17.8833 10.9772 18.4797 10.8816 19.0984 10.8816C19.2051 10.8816 19.3111 10.8845 19.4163 10.8901L13.8047 1.47048C13.3145 0.784256 12.7263 0.294096 11.9421 0.098032C11.1578 -0.0980319 10.3735 -3.31627e-08 9.68732 0.392128C9.29519 0.588192 9.0011 0.980319 8.707 1.37245L0.374285 15.293C-0.409971 16.6654 0.0801888 18.528 1.45264 19.3123ZM10.2755 10.8815C10.2755 11.4697 10.6676 11.8619 11.2558 11.8619C11.844 11.8619 12.2362 11.4697 12.2362 10.8815V6.96027C12.2362 6.37208 11.844 5.97995 11.2558 5.97995C10.6676 5.97995 10.2755 6.37208 10.2755 6.96027V10.8815ZM11.2558 15.7831C10.9617 15.7831 10.7657 15.6851 10.5696 15.489C10.3735 15.293 10.2755 15.0969 10.2755 14.8028C10.2755 14.7048 10.2755 14.5087 10.3735 14.4107C10.4226 14.3617 10.4471 14.3127 10.4716 14.2636C10.4961 14.2146 10.5206 14.1656 10.5696 14.1166C10.6676 14.0186 10.7657 13.9205 10.8637 13.9205C11.0598 13.8225 11.2558 13.8225 11.4519 13.8225C11.5499 13.8225 11.5499 13.8225 11.648 13.9205C11.746 13.9205 11.746 13.9205 11.844 14.0186C11.844 14.0186 11.9421 14.1166 12.0401 14.1166C12.1381 14.2146 12.2362 14.3127 12.2362 14.4107C12.2362 14.4597 12.2607 14.5332 12.2852 14.6068L12.2852 14.6068L12.2852 14.6068C12.3097 14.6803 12.3342 14.7538 12.3342 14.8028C12.3342 15.0969 12.2362 15.293 12.0401 15.489C11.746 15.6851 11.5499 15.7831 11.2558 15.7831ZM15.4994 16.8437C15.4994 14.6288 17.4994 13.08 19.0978 13.08C21.3126 13.08 22.7806 14.9199 22.7806 16.8437C22.7806 18.7675 21.3126 20.58 19.0978 20.58C17.4994 20.58 15.4994 19.0586 15.4994 16.8437ZM19.0978 11.9421C16.3907 11.9421 14.1962 14.1366 14.1962 16.8437C14.1962 19.5508 16.3907 21.7453 19.0978 21.7453C21.8048 21.7453 23.9994 19.5508 23.9994 16.8437C23.9994 14.1366 21.8048 11.9421 19.0978 11.9421ZM19.3912 14.4455C19.3912 14.1994 19.1917 13.9999 18.9456 13.9999C18.6995 13.9999 18.5 14.1994 18.5 14.4455V17.1191C18.5 17.2879 18.5954 17.4422 18.7463 17.5177L20.5287 18.4089C20.7489 18.5189 21.0165 18.4297 21.1266 18.2096C21.2366 17.9895 21.1474 17.7218 20.9273 17.6117L19.3912 16.8437V14.4455Z" fill="black"/>
</svg>
