<svg width="18" height="16" viewBox="0 0 18 16" fill="none" xmlns="http://www.w3.org/2000/svg">
<path fill-rule="evenodd" clip-rule="evenodd" d="M1.05543 0.934342C1.18077 0.669469 1.45151 0.5 1.74932 0.5H17.048C17.3458 0.5 17.6165 0.669469 17.7418 0.934342C17.8672 1.19922 17.8243 1.51134 17.632 1.73429L11.6934 8.61961V14.75C11.6934 15.0099 11.5562 15.2513 11.3307 15.388C11.1051 15.5246 10.8235 15.5371 10.5864 15.4208L7.52669 13.9208C7.26754 13.7938 7.10384 13.5341 7.10384 13.25V8.61961L1.16524 1.73429C0.972936 1.51134 0.930093 1.19922 1.05543 0.934342ZM3.39798 2L8.45285 7.86071C8.56963 7.9961 8.63371 8.16768 8.63371 8.345V12.7865L10.1636 13.5365V8.345C10.1636 8.16768 10.2276 7.9961 10.3444 7.86071L15.3993 2H3.39798Z" fill="#0B3C61"/>
</svg>
