<svg xmlns="http://www.w3.org/2000/svg" xmlns:xlink="http://www.w3.org/1999/xlink" width="18px" height="18px" viewBox="0 0 18 18" version="1.1">
<path style="fill-rule:evenodd;fill:rgb(20%,20%,20%);fill-opacity:1;" fill="#0C3859" stroke="#0C3859" stroke-width="0.6" d="M 8.515625 16.128906 C 12.722656 16.128906 16.128906 12.722656 16.128906 8.515625 C 16.128906 4.308594 12.722656 0.898438 8.515625 0.898438 C 4.308594 0.898438 0.898438 4.308594 0.898438 8.515625 C 0.898438 12.722656 4.308594 16.128906 8.515625 16.128906 Z M 8.515625 16.824219 C 13.105469 16.824219 16.824219 13.105469 16.824219 8.515625 C 16.824219 3.925781 13.105469 0.207031 8.515625 0.207031 C 3.925781 0.207031 0.207031 3.925781 0.207031 8.515625 C 0.207031 13.105469 3.925781 16.824219 8.515625 16.824219 Z M 8.308594 6.707031 C 8.308594 6.558594 8.425781 6.4375 8.574219 6.4375 C 8.722656 6.4375 8.84375 6.558594 8.84375 6.707031 L 8.84375 13.023438 C 8.84375 13.171875 8.722656 13.292969 8.574219 13.292969 C 8.425781 13.292969 8.308594 13.171875 8.308594 13.023438 Z M 8.308594 4.679688 C 8.308594 4.53125 8.425781 4.414062 8.574219 4.414062 C 8.722656 4.414062 8.839844 4.53125 8.839844 4.679688 L 8.839844 4.953125 C 8.839844 5.101562 8.722656 5.222656 8.574219 5.222656 C 8.425781 5.222656 8.308594 5.101562 8.308594 4.953125 Z M 8.308594 4.679688 "/>
</svg>