<svg
                    width="18"
                    height="18"
                    viewBox="0 0 18 18"
                    fill="none"
                    xmlns="http://www.w3.org/2000/svg"
                  >
                    <path
                      fill-rule="evenodd"
                      clip-rule="evenodd"
                      d="M9.12421 1.125C4.63949 1.125 1.125 4.93318 1.125 9C1.125 13.0668 4.63949 16.875 8.93455 16.875C13.3605 16.875 16.875 13.3605 16.875 8.8532C16.875 4.78637 13.6089 1.125 9.12421 1.125ZM0 9C0 4.02944 4.02944 0 9 0C13.9706 0 18 4.02944 18 9C18 13.9706 13.9706 18 9 18C4.02944 18 0 13.9706 0 9Z"
                      fill="white"
                    />
                    <path
                      fill-rule="evenodd"
                      clip-rule="evenodd"
                      d="M9.21119 5.74717C8.83031 5.68184 8.43859 5.75341 8.10543 5.94922C7.77227 6.14502 7.51915 6.45242 7.39091 6.81696C7.24096 7.24323 6.77385 7.46722 6.34758 7.31727C5.92132 7.16732 5.69732 6.70021 5.84727 6.27395C6.10375 5.54486 6.60998 4.93006 7.27631 4.53846C7.94264 4.14685 8.72607 4.0037 9.48783 4.13436C10.2496 4.26502 10.9405 4.66106 11.4383 5.25234C11.9359 5.8435 12.2083 6.59167 12.2073 7.36438C12.207 8.23997 11.7465 8.90921 11.2705 9.36525C10.7944 9.82146 10.2298 10.138 9.83117 10.329C9.79934 10.3442 9.7762 10.366 9.76338 10.3849C9.75741 10.3936 9.75475 10.4001 9.75366 10.4035C9.75271 10.4065 9.75273 10.4079 9.75273 10.4079V10.6364C9.75273 11.0882 9.38641 11.4546 8.93455 11.4546C8.48268 11.4546 8.11636 11.0882 8.11636 10.6364V10.4079C8.11636 9.69623 8.56518 9.121 9.12421 8.8532C9.44858 8.69781 9.83968 8.46995 10.1385 8.18368C10.4373 7.89737 10.5709 7.6263 10.5709 7.36364L10.5709 7.36242C10.5715 6.97598 10.4353 6.6018 10.1864 6.30616C9.93754 6.01052 9.59207 5.8125 9.21119 5.74717Z"
                      fill="white"
                    />
                    <path
                      d="M9.81818 13.0909C9.81818 13.5428 9.45187 13.9091 9 13.9091C8.54813 13.9091 8.18182 13.5428 8.18182 13.0909C8.18182 12.639 8.54813 12.2727 9 12.2727C9.45187 12.2727 9.81818 12.639 9.81818 13.0909Z"
                      fill="white"
                    />
                  </svg>