<?xml version="1.0" standalone="no"?>
<!DOCTYPE svg PUBLIC "-//W3C//DTD SVG 1.1//EN" "http://www.w3.org/Graphics/SVG/1.1/DTD/svg11.dtd">
<!--Generator: Xara Designer (www.xara.com), SVG filter version: 6.1.0.18-->
<svg stroke-width="0.501" stroke-linejoin="bevel" fill-rule="evenodd" xmlns:xlink="http://www.w3.org/1999/xlink" xmlns="http://www.w3.org/2000/svg" version="1.1" overflow="visible" width="36pt" height="36pt" viewBox="0 0 36 36">
 <defs>
	</defs>
 <g id="Document" fill="none" stroke="black" font-family="Times New Roman" font-size="16" transform="scale(1 -1)">
  <g id="Spread" transform="translate(0 -36)">
   <g id="Layer 1">
    <path d="M 32.063,28.366 C 32.438,27.991 32.76,27.482 33.028,26.84 C 33.296,26.197 33.429,25.608 33.429,25.072 L 33.429,1.929 C 33.429,1.393 33.242,0.938 32.867,0.563 C 32.492,0.188 32.037,0 31.501,0 L 4.501,0 C 3.965,0 3.51,0.188 3.135,0.563 C 2.76,0.938 2.572,1.393 2.572,1.929 L 2.572,34.072 C 2.572,34.608 2.76,35.063 3.135,35.438 C 3.51,35.813 3.965,36 4.501,36 L 22.501,36 C 23.037,36 23.626,35.867 24.269,35.599 C 24.911,35.331 25.42,35.009 25.795,34.634 L 32.063,28.366 Z M 23.144,33.268 L 23.144,25.715 L 30.697,25.715 C 30.563,26.103 30.416,26.377 30.255,26.538 L 23.967,32.826 C 23.806,32.987 23.532,33.134 23.144,33.268 Z M 30.858,2.572 L 30.858,23.143 L 22.501,23.143 C 21.965,23.143 21.51,23.331 21.135,23.706 C 20.76,24.081 20.572,24.536 20.572,25.072 L 20.572,33.429 L 5.144,33.429 L 5.144,2.572 L 30.858,2.572 Z M 10.287,19.929 C 10.287,20.116 10.347,20.27 10.467,20.391 C 10.588,20.511 10.742,20.572 10.929,20.572 L 25.072,20.572 C 25.26,20.572 25.414,20.511 25.534,20.391 C 25.655,20.27 25.715,20.116 25.715,19.929 L 25.715,18.643 C 25.715,18.456 25.655,18.302 25.534,18.181 C 25.414,18.061 25.26,18 25.072,18 L 10.929,18 C 10.742,18 10.588,18.061 10.467,18.181 C 10.347,18.302 10.287,18.456 10.287,18.643 L 10.287,19.929 Z M 25.072,15.429 C 25.26,15.429 25.414,15.369 25.534,15.248 C 25.655,15.128 25.715,14.974 25.715,14.786 L 25.715,13.5 C 25.715,13.313 25.655,13.159 25.534,13.038 C 25.414,12.918 25.26,12.858 25.072,12.858 L 10.929,12.858 C 10.742,12.858 10.588,12.918 10.467,13.038 C 10.347,13.159 10.287,13.313 10.287,13.5 L 10.287,14.786 C 10.287,14.974 10.347,15.128 10.467,15.248 C 10.588,15.369 10.742,15.429 10.929,15.429 L 25.072,15.429 Z M 25.072,10.286 C 25.26,10.286 25.414,10.226 25.534,10.105 C 25.655,9.985 25.715,9.831 25.715,9.643 L 25.715,8.358 C 25.715,8.17 25.655,8.016 25.534,7.896 C 25.414,7.775 25.26,7.715 25.072,7.715 L 10.929,7.715 C 10.742,7.715 10.588,7.775 10.467,7.896 C 10.347,8.016 10.287,8.17 10.287,8.358 L 10.287,9.643 C 10.287,9.831 10.347,9.985 10.467,10.105 C 10.588,10.226 10.742,10.286 10.929,10.286 L 25.072,10.286 Z" fill-rule="nonzero" stroke-linejoin="round" stroke-linecap="round" stroke="none" stroke-width="2.868" fill="#2886d1" marker-start="none" marker-end="none" stroke-miterlimit="79.8403193612775"/>
   </g>
  </g>
 </g>
</svg>
