<?xml version="1.0" standalone="no"?>
<!DOCTYPE svg PUBLIC "-//W3C//DTD SVG 1.1//EN" "http://www.w3.org/Graphics/SVG/1.1/DTD/svg11.dtd">
<!--Generator: Xara Designer (www.xara.com), SVG filter version: 6.1.0.18-->
<svg stroke-width="0.501" stroke-linejoin="bevel" fill-rule="evenodd" xmlns:xlink="http://www.w3.org/1999/xlink" xmlns="http://www.w3.org/2000/svg" version="1.1" overflow="visible" width="36pt" height="36pt" viewBox="0 0 36 36">
 <defs>
	</defs>
 <g id="Document" fill="none" stroke="black" font-family="Times New Roman" font-size="16" transform="scale(1 -1)">
  <g id="Spread" transform="translate(0 -36)">
   <g id="Layer 1">
    <path d="M 31.764,9.529 C 31.764,10.118 31.558,10.618 31.147,11.029 L 26.559,15.617 C 26.147,16.029 25.647,16.235 25.059,16.235 C 24.441,16.235 23.911,16 23.471,15.529 C 23.515,15.486 23.655,15.349 23.89,15.121 C 24.125,14.893 24.283,14.735 24.364,14.647 C 24.445,14.559 24.555,14.419 24.695,14.228 C 24.835,14.037 24.93,13.85 24.981,13.666 C 25.033,13.482 25.059,13.28 25.059,13.059 C 25.059,12.471 24.853,11.971 24.441,11.559 C 24.03,11.147 23.529,10.941 22.941,10.941 C 22.721,10.941 22.519,10.967 22.335,11.018 C 22.151,11.07 21.963,11.165 21.772,11.305 C 21.581,11.445 21.442,11.555 21.353,11.636 C 21.265,11.717 21.107,11.875 20.879,12.11 C 20.651,12.346 20.515,12.485 20.471,12.529 C 19.986,12.074 19.743,11.537 19.743,10.919 C 19.743,10.331 19.949,9.831 20.361,9.419 L 24.904,4.853 C 25.302,4.456 25.802,4.258 26.404,4.257 C 26.993,4.258 27.493,4.449 27.904,4.831 L 31.147,8.052 C 31.558,8.463 31.764,8.956 31.764,9.529 Z M 16.257,25.08 C 16.258,25.669 16.052,26.168 15.64,26.58 L 11.096,31.146 C 10.685,31.558 10.184,31.764 9.596,31.764 C 9.023,31.764 8.523,31.565 8.096,31.168 L 4.854,27.948 C 4.442,27.537 4.236,27.044 4.236,26.47 C 4.236,25.881 4.442,25.382 4.854,24.97 L 9.442,20.382 C 9.839,19.985 10.339,19.786 10.941,19.786 C 11.559,19.786 12.088,20.015 12.53,20.47 C 12.486,20.515 12.346,20.65 12.111,20.878 C 11.875,21.106 11.717,21.264 11.636,21.353 C 11.556,21.44 11.445,21.58 11.305,21.772 C 11.166,21.963 11.07,22.15 11.019,22.334 C 10.967,22.518 10.941,22.72 10.941,22.941 C 10.941,23.529 11.147,24.029 11.559,24.441 C 11.971,24.853 12.471,25.058 13.059,25.058 C 13.28,25.058 13.482,25.033 13.666,24.981 C 13.849,24.929 14.037,24.834 14.228,24.694 C 14.42,24.554 14.559,24.444 14.647,24.363 C 14.736,24.283 14.894,24.125 15.122,23.889 C 15.349,23.653 15.485,23.514 15.53,23.47 C 16.015,23.926 16.258,24.463 16.257,25.08 Z M 34.146,14.03 C 35.382,12.794 35.999,11.295 35.999,9.529 C 35.999,7.765 35.375,6.272 34.124,5.052 L 30.882,1.831 C 29.661,0.611 28.169,0.001 26.404,0.001 C 24.625,0.001 23.125,0.625 21.904,1.875 L 17.36,6.441 C 16.14,7.662 15.53,9.155 15.53,10.919 C 15.53,12.728 16.177,14.265 17.471,15.529 L 15.53,17.47 C 14.265,16.176 12.736,15.529 10.941,15.529 C 9.177,15.529 7.677,16.147 6.442,17.382 L 1.854,21.97 C 0.619,23.206 0.001,24.705 0.001,26.47 C 0.001,28.234 0.626,29.727 1.876,30.948 L 5.118,34.168 C 6.339,35.389 7.831,35.999 9.596,35.999 C 11.375,35.999 12.875,35.374 14.096,34.124 L 18.64,29.558 C 19.86,28.338 20.471,26.845 20.471,25.08 C 20.471,23.272 19.824,21.735 18.53,20.47 L 20.471,18.529 C 21.735,19.823 23.265,20.47 25.059,20.47 C 26.823,20.47 28.323,19.853 29.558,18.618 L 34.146,14.03 Z" fill-rule="nonzero" stroke-linejoin="round" stroke-linecap="round" stroke="none" stroke-width="3.149" fill="black" marker-start="none" marker-end="none" stroke-miterlimit="79.8403193612775"/>
   </g>
  </g>
 </g>
</svg>
