<svg width="24" height="24" viewBox="0 0 24 24" fill="none" xmlns="http://www.w3.org/2000/svg">
<path fill-rule="evenodd" clip-rule="evenodd" d="M7 3H4L4 6H7V3ZM4 2C3.44772 2 3 2.44772 3 3V6C3 6.55228 3.44772 7 4 7H7C7.55228 7 8 6.55228 8 6V3C8 2.44772 7.55228 2 7 2H4Z" fill="#0B3C61"/>
<path fill-rule="evenodd" clip-rule="evenodd" d="M14 3H11L11 6H14V3ZM11 2C10.4477 2 10 2.44772 10 3V6C10 6.55228 10.4477 7 11 7H14C14.5523 7 15 6.55228 15 6V3C15 2.44772 14.5523 2 14 2H11Z" fill="#0B3C61"/>
<path fill-rule="evenodd" clip-rule="evenodd" d="M21 3H18L18 6H21V3ZM18 2C17.4477 2 17 2.44772 17 3V6C17 6.55228 17.4477 7 18 7H21C21.5523 7 22 6.55228 22 6V3C22 2.44772 21.5523 2 21 2H18Z" fill="#0B3C61"/>
<path fill-rule="evenodd" clip-rule="evenodd" d="M7 10H4L4 13H7V10ZM4 9C3.44772 9 3 9.44772 3 10V13C3 13.5523 3.44772 14 4 14H7C7.55228 14 8 13.5523 8 13V10C8 9.44772 7.55228 9 7 9H4Z" fill="#0B3C61"/>
<path fill-rule="evenodd" clip-rule="evenodd" d="M14 10H11L11 13H14V10ZM11 9C10.4477 9 10 9.44772 10 10V13C10 13.5523 10.4477 14 11 14H14C14.5523 14 15 13.5523 15 13V10C15 9.44772 14.5523 9 14 9H11Z" fill="#0B3C61"/>
<path fill-rule="evenodd" clip-rule="evenodd" d="M21 10H18L18 13H21V10ZM18 9C17.4477 9 17 9.44772 17 10V13C17 13.5523 17.4477 14 18 14H21C21.5523 14 22 13.5523 22 13V10C22 9.44772 21.5523 9 21 9H18Z" fill="#0B3C61"/>
<path fill-rule="evenodd" clip-rule="evenodd" d="M7 17H4L4 20H7V17ZM4 16C3.44772 16 3 16.4477 3 17V20C3 20.5523 3.44772 21 4 21H7C7.55228 21 8 20.5523 8 20V17C8 16.4477 7.55228 16 7 16H4Z" fill="#0B3C61"/>
<path fill-rule="evenodd" clip-rule="evenodd" d="M14 17H11L11 20H14V17ZM11 16C10.4477 16 10 16.4477 10 17V20C10 20.5523 10.4477 21 11 21H14C14.5523 21 15 20.5523 15 20V17C15 16.4477 14.5523 16 14 16H11Z" fill="#0B3C61"/>
<path fill-rule="evenodd" clip-rule="evenodd" d="M21 17H18L18 20H21V17ZM18 16C17.4477 16 17 16.4477 17 17V20C17 20.5523 17.4477 21 18 21H21C21.5523 21 22 20.5523 22 20V17C22 16.4477 21.5523 16 21 16H18Z" fill="#0B3C61"/>
</svg>
