<svg width="17" height="23" viewBox="0 0 17 23" fill="none" xmlns="http://www.w3.org/2000/svg">
<path d="M13.8037 11.4563L13.8036 11.4563L13.8025 11.4583L8.5 20.4384L3.19757 11.4584L3.19759 11.4584L3.19638 11.4564L3.1908 11.4473C2.63124 10.5385 2.30921 9.47455 2.30921 8.33333C2.30921 4.9944 5.07826 2.28289 8.5 2.28289C11.9217 2.28289 14.6908 4.9944 14.6908 8.33333C14.6908 9.47452 14.3688 10.5384 13.8092 11.4473L13.8037 11.4563ZM7.53127 21.6052C7.96664 22.3426 9.03336 22.3426 9.46873 21.6052L15.0367 12.1755C15.0369 12.1752 15.0371 12.1749 15.0373 12.1745C15.7278 11.0526 16.125 9.73822 16.125 8.33333C16.125 4.21158 12.7085 0.875 8.5 0.875C4.29149 0.875 0.875 4.21158 0.875 8.33333C0.875 9.73825 1.27225 11.0527 1.96273 12.1746C1.96294 12.1749 1.96314 12.1752 1.96334 12.1756L7.53127 21.6052ZM8.5 11.5461C10.3104 11.5461 11.7829 10.1103 11.7829 8.33333C11.7829 6.55636 10.3104 5.12061 8.5 5.12061C6.68957 5.12061 5.21711 6.55636 5.21711 8.33333C5.21711 10.1103 6.68957 11.5461 8.5 11.5461ZM10.3487 8.33333C10.3487 9.32748 9.52366 10.1382 8.5 10.1382C7.47634 10.1382 6.65132 9.32748 6.65132 8.33333C6.65132 7.33919 7.47634 6.52851 8.5 6.52851C9.52366 6.52851 10.3487 7.33919 10.3487 8.33333Z" fill="#4D4D4D" stroke="#4D4D4D" stroke-width="0.25"/>
</svg>
