<svg width="24" height="24" viewBox="0 0 24 24" fill="none" xmlns="http://www.w3.org/2000/svg">
<path fill-rule="evenodd" clip-rule="evenodd" d="M16.222 5.76756H21.5249L19.4263 3.75016H15.2133L16.222 5.76756ZM13.5362 3.75016L14.5449 5.76756H10.4545L11.4632 3.75016H13.5362ZM13.9786 2.25016H11.019C11.0065 2.24985 10.994 2.24985 10.9816 2.25016H5.44737C5.17854 2.25016 4.92103 2.3584 4.73293 2.55046L1.77779 5.56786C1.37569 5.97843 1.42313 6.57158 1.74792 6.93766H1.71847C1.71847 7.69869 2.00184 8.39353 2.46883 8.92243V19.4377C2.46883 20.4042 3.25233 21.1877 4.21883 21.1877H20.9688C21.9353 21.1877 22.7188 20.4042 22.7188 19.4377V8.92162C23.176 8.4034 23.4571 7.72604 23.4681 6.98326C23.8379 6.6154 23.9015 5.97144 23.4596 5.54663L20.3206 2.52923C20.1343 2.35017 19.886 2.25016 19.6276 2.25016H14.0196C14.006 2.24978 13.9923 2.24978 13.9786 2.25016ZM8.38554 7.43074C8.34997 7.37992 8.32098 7.32505 8.29904 7.26756H3.25486C3.40517 7.93728 4.00338 8.43766 4.71847 8.43766H6.96847C7.62416 8.43766 8.18158 8.01695 8.38554 7.43074ZM3.68177 5.76756H8.77744L9.78615 3.75016H5.65754L3.68177 5.76756ZM21.2188 9.84305C20.979 9.90481 20.7276 9.93766 20.4685 9.93766H18.2185C17.3224 9.93766 16.5182 9.54484 15.9685 8.92202C15.4188 9.54484 14.6145 9.93766 13.7185 9.93766H11.4685C10.5724 9.93766 9.76818 9.54484 9.21847 8.92202C8.66876 9.54484 7.86449 9.93766 6.96847 9.93766H4.71847C4.45962 9.93766 4.20843 9.90487 3.96883 9.84324V19.4377C3.96883 19.5757 4.08075 19.6877 4.21883 19.6877H5.2491L5.2491 12.25C5.2491 11.6977 5.69682 11.25 6.2491 11.25H10.2491C10.8014 11.25 11.2491 11.6977 11.2491 12.25V19.6877H20.9688C21.1069 19.6877 21.2188 19.5757 21.2188 19.4377V9.84305ZM6.2491 19.6877H10.2491V12.25H6.2491L6.2491 19.6877ZM16.7549 7.26756C16.9052 7.93728 17.5034 8.43766 18.2185 8.43766H20.4685C21.1835 8.43766 21.7818 7.93728 21.9321 7.26756H16.7549ZM10.0049 7.26756H15.1821C15.0318 7.93728 14.4336 8.43766 13.7185 8.43766H11.4685C10.7534 8.43766 10.1552 7.93728 10.0049 7.26756ZM19.0726 13.2849H13.529L13.529 15.6752H19.0726L19.0726 13.2849ZM13.529 12.2849C12.9767 12.2849 12.529 12.7326 12.529 13.2849V15.6752C12.529 16.2274 12.9767 16.6752 13.529 16.6752H19.0726C19.6248 16.6752 20.0726 16.2274 20.0726 15.6752V13.2849C20.0726 12.7327 19.6248 12.2849 19.0726 12.2849H13.529ZM9.88546 14.7936C9.88546 14.5175 9.6616 14.2936 9.38546 14.2936C9.10932 14.2936 8.88546 14.5175 8.88546 14.7936V16.048C8.88546 16.3241 9.10932 16.548 9.38546 16.548C9.6616 16.548 9.88546 16.3241 9.88546 16.048V14.7936Z" fill="white"/>
</svg>
