<svg width="33" height="28" viewBox="0 0 33 28" fill="none" xmlns="http://www.w3.org/2000/svg">
<path fill-rule="evenodd" clip-rule="evenodd" d="M2.38293 27.7021V9.82977H2.97868V27.4042H29.7872V9.82977H30.3829V27.7021C30.3829 27.8666 30.2496 28 30.0851 28H2.68081C2.5163 28 2.38293 27.8666 2.38293 27.7021Z" fill="black"/>
<path fill-rule="evenodd" clip-rule="evenodd" d="M4.8412 0.0999767C4.89773 0.0363844 4.97875 0 5.06383 0H28.2979C28.3898 0 28.4766 0.0424387 28.533 0.114996L32.7032 5.4767C32.7731 5.5665 32.7857 5.68825 32.7357 5.79045C32.6857 5.89264 32.5819 5.95745 32.4681 5.95745H0.297878C0.180578 5.95745 0.074199 5.88861 0.0261465 5.7816C-0.0219061 5.67459 -0.00268476 5.54935 0.075245 5.46168L4.8412 0.0999767ZM5.1976 0.595745L0.961193 5.3617H31.859L28.1522 0.595745H5.1976Z" fill="black"/>
<path fill-rule="evenodd" clip-rule="evenodd" d="M1.77546e-08 7.78721L0 5.65955H0.595745V7.78721C0.595745 8.07954 0.826938 8.51206 1.34111 8.88832C1.84133 9.25438 2.56804 9.53189 3.4518 9.53189H7.86735C8.65119 9.53189 9.38042 9.2494 9.91177 8.87201C10.177 8.68361 10.3856 8.47675 10.5252 8.27915C10.6676 8.07762 10.7234 7.90754 10.7234 7.78721V5.65955H11.3191V7.78721C11.3191 8.07538 11.1941 8.36488 11.0117 8.62292C10.8266 8.88489 10.5666 9.13761 10.2567 9.35772C9.63775 9.79735 8.79002 10.1276 7.86735 10.1276H3.4518C2.4432 10.1276 1.59294 9.81083 0.989294 9.36909C0.399592 8.93755 8.87729e-08 8.3488 1.77546e-08 7.78721Z" fill="black"/>
<path fill-rule="evenodd" clip-rule="evenodd" d="M10.7234 7.78721L10.7234 5.65955H11.3191V7.78721C11.3191 8.07954 11.5503 8.51206 12.0645 8.88832C12.5647 9.25438 13.2914 9.53189 14.1752 9.53189H18.5907C19.3746 9.53189 20.1038 9.2494 20.6352 8.87201C20.9004 8.68361 21.1089 8.47675 21.2486 8.27915C21.391 8.07762 21.4468 7.90754 21.4468 7.78721V5.65955H22.0425V7.78721C22.0425 8.07538 21.9174 8.36488 21.7351 8.62292C21.55 8.88489 21.29 9.13761 20.9801 9.35772C20.3611 9.79735 19.5134 10.1276 18.5907 10.1276H14.1752C13.1666 10.1276 12.3163 9.81083 11.7127 9.36909C11.123 8.93755 10.7234 8.3488 10.7234 7.78721Z" fill="black"/>
<path fill-rule="evenodd" clip-rule="evenodd" d="M21.4468 7.78721L21.4468 5.65955H22.0425V7.78721C22.0425 8.07954 22.2737 8.51206 22.7879 8.88832C23.2881 9.25438 24.0148 9.53189 24.8986 9.53189H29.3141C30.098 9.53189 30.8272 9.2494 31.3585 8.87201C31.6238 8.68361 31.8323 8.47675 31.972 8.27915C32.1143 8.07762 32.1702 7.90754 32.1702 7.78721V5.65955H32.7659V7.78721C32.7659 8.07538 32.6408 8.36488 32.4585 8.62292C32.2734 8.88489 32.0134 9.13761 31.7035 9.35772C31.0845 9.79735 30.2368 10.1276 29.3141 10.1276H24.8986C23.89 10.1276 23.0397 9.81083 22.4361 9.36909C21.8464 8.93755 21.4468 8.3488 21.4468 7.78721Z" fill="black"/>
<path fill-rule="evenodd" clip-rule="evenodd" d="M13.6869 0.392065L11.8996 5.75377L11.3345 5.56538L13.1217 0.203674L13.6869 0.392065Z" fill="black"/>
<path fill-rule="evenodd" clip-rule="evenodd" d="M19.0791 0.392065L20.8663 5.75377L21.4315 5.56538L19.6443 0.203674L19.0791 0.392065Z" fill="black"/>
<path fill-rule="evenodd" clip-rule="evenodd" d="M16.3829 15.7872C16.3829 15.4582 16.6497 15.1915 16.9787 15.1915H26.5106C26.8396 15.1915 27.1063 15.4582 27.1063 15.7872V20.5532C27.1063 20.8822 26.8396 21.1489 26.5106 21.1489H16.9787C16.6497 21.1489 16.3829 20.8822 16.3829 20.5532V15.7872ZM16.9787 15.7872V20.5532H26.5106V15.7872H16.9787Z" fill="black"/>
<path fill-rule="evenodd" clip-rule="evenodd" d="M13.4043 14.2979C13.5688 14.2979 13.7021 14.4313 13.7021 14.5958L13.7021 27.7022C13.7021 27.8667 13.5688 28 13.4043 28C13.2398 28 13.1064 27.8667 13.1064 27.7022L13.1064 14.8937L6.55321 14.8937L6.55321 27.7022C6.55321 27.8667 6.41985 28 6.25534 28C6.09083 28 5.95747 27.8667 5.95747 27.7022L5.95747 14.5958C5.95747 14.4313 6.09083 14.2979 6.25534 14.2979L13.4043 14.2979Z" fill="black"/>
<path fill-rule="evenodd" clip-rule="evenodd" d="M11.6171 18.4681C11.7816 18.4681 11.915 18.6014 11.915 18.766V21.1489C11.915 21.3134 11.7816 21.4468 11.6171 21.4468C11.4526 21.4468 11.3192 21.3134 11.3192 21.1489V18.766C11.3192 18.6014 11.4526 18.4681 11.6171 18.4681Z" fill="black"/>
</svg>
