<svg width="24" height="24" viewBox="0 0 24 24" fill="none" xmlns="http://www.w3.org/2000/svg">
<path fill-rule="evenodd" clip-rule="evenodd" d="M16.4999 6.75H22.2455C23.1333 6.75 23.5808 5.67928 22.9571 5.04747L20.4892 2.54748C20.3013 2.35714 20.045 2.25 19.7776 2.25H15.0544L16.4999 6.75ZM13.8756 2.25L13.8756 2.25002L15.3212 6.75H9.88958L11.5573 2.25948L11.5606 2.25H13.8756ZM5.61054 2.25H10.3607L8.69124 6.74542L8.68959 6.75H3.14263C2.25483 6.75 1.80727 5.67928 2.43097 5.04748L4.89888 2.54748C5.08677 2.35714 5.34308 2.25 5.61054 2.25ZM13.7478 9.75C13.7385 9.75009 13.7291 9.75014 13.7197 9.75014H11.4697C11.4604 9.75014 11.451 9.75009 11.4416 9.75C11.3936 9.74953 11.3459 9.74786 11.2985 9.74501C10.4488 9.69398 9.70078 9.2657 9.21973 8.62541C8.71183 9.30142 7.90636 9.74111 6.99781 9.75C6.98846 9.75009 6.9791 9.75014 6.96973 9.75014H4.71973C4.71035 9.75014 4.70099 9.75009 4.69164 9.75C4.66678 9.74976 4.642 9.74919 4.6173 9.74831C4.1074 9.73005 3.6321 9.57607 3.22641 9.32139C3.21337 9.3132 3.2004 9.30491 3.1875 9.29651V9.75H3.21973V19.4376C3.21973 19.9899 3.66744 20.4376 4.21973 20.4376H5.25L5.25 12C5.25 11.5858 5.58579 11.25 6 11.25H10.5C10.9142 11.25 11.25 11.5858 11.25 12V20.4376H20.9697C21.522 20.4376 21.9697 19.9899 21.9697 19.4376V9.43764C21.9697 9.39831 21.9675 9.35953 21.963 9.32139C21.894 9.36474 21.8229 9.40517 21.75 9.44251C21.7372 9.44905 21.7244 9.45549 21.7116 9.46183C21.3449 9.64255 20.9332 9.74574 20.4978 9.75C20.4885 9.75009 20.4791 9.75014 20.4697 9.75014H18.2197C18.2104 9.75014 18.201 9.75009 18.1916 9.75C18.1436 9.74953 18.0959 9.74786 18.0485 9.74501C17.1988 9.69398 16.4508 9.2657 15.9697 8.62541C15.4618 9.30142 14.6564 9.74111 13.7478 9.75ZM17.4459 8.43764C17.067 8.2418 16.7719 7.90667 16.6282 7.5H21.75V8.03703C21.597 8.21505 21.4075 8.3608 21.1931 8.46268C20.9739 8.56685 20.7286 8.62514 20.4697 8.62514H18.2197C17.9408 8.62514 17.6777 8.55746 17.4459 8.43764ZM14.4936 8.43764C14.2618 8.55746 13.9987 8.62514 13.7197 8.62514H11.4697C11.1908 8.62514 10.9277 8.55746 10.6959 8.43764C10.317 8.2418 10.0219 7.90667 9.8782 7.5H15.3113C15.1676 7.90667 14.8724 8.2418 14.4936 8.43764ZM3.99637 8.46268C3.64046 8.29356 3.35314 8.00353 3.1875 7.64567V7.5H8.56125C8.41756 7.90667 8.12241 8.2418 7.74358 8.43764C7.51178 8.55746 7.24866 8.62514 6.96973 8.62514H4.71973C4.46086 8.62514 4.2156 8.56685 3.99637 8.46268ZM10.5 20.25L10.5 12H6L6 20.25H10.5ZM13.2803 13.0349H19.3238V15.9251H13.2803V13.0349ZM12.5303 13.0349C12.5303 12.6207 12.8661 12.2849 13.2803 12.2849H19.3238C19.738 12.2849 20.0738 12.6207 20.0738 13.0349V15.9251C20.0738 16.3393 19.738 16.6751 19.3238 16.6751H13.2803C12.8661 16.6751 12.5303 16.3393 12.5303 15.9251V13.0349ZM9.38672 14.4186C9.59383 14.4186 9.76172 14.5865 9.76172 14.7936V16.0479C9.76172 16.2551 9.59383 16.4229 9.38672 16.4229C9.17961 16.4229 9.01172 16.2551 9.01172 16.0479V14.7936C9.01172 14.5865 9.17961 14.4186 9.38672 14.4186Z" fill="white"/>
</svg>
