<svg width="290" height="173" viewBox="0 0 290 173" fill="none" xmlns="http://www.w3.org/2000/svg">
<rect y="5" width="290" height="167.98" rx="5" fill="#79B0DE"/>
<ellipse opacity="0.3" cx="145.792" cy="153.963" rx="50.7104" ry="4.75415" fill="#00518A"/>
<path fill-rule="evenodd" clip-rule="evenodd" d="M133.921 50.607C133.921 49.5608 134.769 48.7128 135.815 48.7128H138.088C139.134 48.7128 139.982 49.5608 139.982 50.607C139.982 51.6532 139.134 52.5012 138.088 52.5012H135.815C134.769 52.5012 133.921 51.6532 133.921 50.607Z" fill="#79B0DE"/>
<path fill-rule="evenodd" clip-rule="evenodd" d="M144.781 50.607C144.781 49.5608 145.629 48.7128 146.675 48.7128H148.948C149.994 48.7128 150.842 49.5608 150.842 50.607C150.842 51.6532 149.994 52.5012 148.948 52.5012H146.675C145.629 52.5012 144.781 51.6532 144.781 50.607Z" fill="#79B0DE"/>
<path fill-rule="evenodd" clip-rule="evenodd" d="M155.641 50.607C155.641 49.5608 156.489 48.7128 157.535 48.7128H159.808C160.854 48.7128 161.702 49.5608 161.702 50.607C161.702 51.6532 160.854 52.5012 159.808 52.5012H157.535C156.489 52.5012 155.641 51.6532 155.641 50.607Z" fill="#79B0DE"/>
<path fill-rule="evenodd" clip-rule="evenodd" d="M167.713 82.3291C161.701 82.3291 156.828 87.2027 156.828 93.2146C156.828 99.2265 161.701 104.1 167.713 104.1C173.725 104.1 178.599 99.2265 178.599 93.2146C178.599 87.2027 173.725 82.3291 167.713 82.3291ZM153.039 93.2146C153.039 85.1104 159.609 78.5406 167.713 78.5406C175.817 78.5406 182.387 85.1104 182.387 93.2146C182.387 101.319 175.817 107.889 167.713 107.889C159.609 107.889 153.039 101.319 153.039 93.2146Z" fill="#79B0DE"/>
<path fill-rule="evenodd" clip-rule="evenodd" d="M122.252 82.3291C116.24 82.3291 111.367 87.2027 111.367 93.2146C111.367 99.2265 116.24 104.1 122.252 104.1C128.264 104.1 133.138 99.2265 133.138 93.2146C133.138 87.2027 128.264 82.3291 122.252 82.3291ZM107.578 93.2146C107.578 85.1104 114.148 78.5406 122.252 78.5406C130.356 78.5406 136.926 85.1104 136.926 93.2146C136.926 101.319 130.356 107.889 122.252 107.889C114.148 107.889 107.578 101.319 107.578 93.2146Z" fill="#79B0DE"/>
<path fill-rule="evenodd" clip-rule="evenodd" d="M109.554 111.652H135.077C135.897 111.588 136.721 111.699 137.495 111.977C138.301 112.267 139.032 112.731 139.637 113.336C140.242 113.941 140.706 114.672 140.996 115.478C141.274 116.252 141.385 117.076 141.321 117.896V125.897C141.321 126.943 140.473 127.791 139.427 127.791C138.38 127.791 137.532 126.943 137.532 125.897V117.814C137.532 117.755 137.535 117.695 137.541 117.635C137.569 117.339 137.532 117.04 137.431 116.76C137.33 116.479 137.169 116.225 136.958 116.015C136.748 115.804 136.493 115.643 136.213 115.542C135.933 115.441 135.634 115.404 135.338 115.432C135.278 115.438 135.218 115.44 135.158 115.44H109.473C109.413 115.44 109.353 115.438 109.293 115.432C108.997 115.404 108.698 115.441 108.418 115.542C108.138 115.643 107.883 115.804 107.673 116.015C107.462 116.225 107.301 116.479 107.2 116.76C107.1 117.04 107.062 117.339 107.09 117.635C107.096 117.695 107.099 117.755 107.099 117.814V123.497C107.099 124.543 106.251 125.391 105.205 125.391C104.158 125.391 103.31 124.543 103.31 123.497V117.896C103.246 117.076 103.357 116.252 103.635 115.478C103.925 114.672 104.389 113.941 104.994 113.336C105.599 112.731 106.331 112.267 107.136 111.977C107.91 111.699 108.734 111.588 109.554 111.652Z" fill="#79B0DE"/>
<path fill-rule="evenodd" clip-rule="evenodd" d="M155.015 111.652H180.538C181.358 111.588 182.182 111.699 182.956 111.977C183.762 112.267 184.493 112.731 185.098 113.336C185.703 113.941 186.167 114.672 186.457 115.478C186.735 116.252 186.846 117.076 186.782 117.896V125.897C186.782 126.943 185.934 127.791 184.888 127.791C183.842 127.791 182.993 126.943 182.993 125.897V117.814C182.993 117.755 182.996 117.695 183.002 117.635C183.03 117.339 182.993 117.04 182.892 116.76C182.791 116.479 182.63 116.225 182.419 116.015C182.209 115.804 181.954 115.643 181.674 115.542C181.394 115.441 181.095 115.404 180.799 115.432C180.739 115.438 180.679 115.44 180.619 115.44H154.934C154.874 115.44 154.814 115.438 154.754 115.432C154.458 115.404 154.159 115.441 153.879 115.542C153.599 115.643 153.344 115.804 153.134 116.015C152.923 116.225 152.762 116.479 152.661 116.76C152.561 117.04 152.523 117.339 152.551 117.635C152.557 117.695 152.56 117.755 152.56 117.814V122.487C152.56 123.533 151.712 124.381 150.666 124.381C149.619 124.381 148.771 123.533 148.771 122.487V117.896C148.707 117.076 148.818 116.252 149.096 115.478C149.386 114.672 149.85 113.941 150.455 113.336C151.06 112.731 151.792 112.267 152.597 111.977C153.371 111.699 154.195 111.588 155.015 111.652Z" fill="#79B0DE"/>
<path fill-rule="evenodd" clip-rule="evenodd" d="M148.15 69.6251L138.733 77.8225C138.173 78.31 137.38 78.4254 136.705 78.1178C136.029 77.8102 135.595 77.1362 135.595 76.3938V69.6251H125.429C124.715 69.6334 124.006 69.5 123.343 69.2324C122.676 68.963 122.069 68.5631 121.558 68.056C121.048 67.549 120.643 66.945 120.369 66.2796C120.096 65.6166 119.958 64.9059 119.962 64.1888V40.0559C119.958 39.3388 120.096 38.628 120.368 37.9645C120.641 37.2986 121.043 36.6937 121.552 36.1848C122.061 35.6759 122.666 35.2733 123.332 35.0003C123.995 34.7282 124.706 34.5903 125.423 34.5945H169.332C170.049 34.5903 170.759 34.7282 171.423 35.0003C172.089 35.2733 172.694 35.6759 173.203 36.1848C173.711 36.6937 174.114 37.2986 174.387 37.9645L174.793 64.1884C174.797 64.9056 174.659 65.6165 174.385 66.2796C174.111 66.945 173.707 67.5489 173.196 68.056C172.686 68.5631 172.079 68.963 171.412 69.2324L148.15 69.6251ZM124.119 37.1201C123.567 37.1201 123.119 37.5678 123.119 38.1201V65.165C123.119 65.7173 123.567 66.165 124.119 66.165H137.27C137.823 66.165 138.272 66.6141 138.27 67.1673L138.255 73.7418L146.252 66.8872C146.796 66.4211 147.488 66.165 148.204 66.165H170.106C170.658 66.165 171.106 65.7173 171.106 65.165V38.1201C171.106 37.5678 170.658 37.1201 170.106 37.1201H124.119Z" fill="#79B0DE"/>
<path d="M103.798 115.394C103.798 114.29 104.693 113.394 105.798 113.394H134.126C135.23 113.394 136.126 114.29 136.126 115.394V127.538H103.798V115.394Z" fill="white"/>
<path d="M150.269 115.394C150.269 114.29 151.165 113.394 152.269 113.394H180.597C181.702 113.394 182.597 114.29 182.597 115.394V127.538H150.269V115.394Z" fill="white"/>
<path fill-rule="evenodd" clip-rule="evenodd" d="M131.9 50.607C131.9 49.5608 132.748 48.7128 133.794 48.7128H136.067C137.114 48.7128 137.962 49.5608 137.962 50.607C137.962 51.6532 137.114 52.5012 136.067 52.5012H133.794C132.748 52.5012 131.9 51.6532 131.9 50.607Z" fill="white"/>
<path fill-rule="evenodd" clip-rule="evenodd" d="M142.76 50.607C142.76 49.5608 143.608 48.7128 144.655 48.7128H146.928C147.974 48.7128 148.822 49.5608 148.822 50.607C148.822 51.6532 147.974 52.5012 146.928 52.5012H144.655C143.608 52.5012 142.76 51.6532 142.76 50.607Z" fill="white"/>
<path fill-rule="evenodd" clip-rule="evenodd" d="M153.62 50.607C153.62 49.5608 154.469 48.7128 155.515 48.7128H157.788C158.834 48.7128 159.682 49.5608 159.682 50.607C159.682 51.6532 158.834 52.5012 157.788 52.5012H155.515C154.469 52.5012 153.62 51.6532 153.62 50.607Z" fill="white"/>
<path fill-rule="evenodd" clip-rule="evenodd" d="M151.019 93.2146C151.019 85.1104 157.589 78.5406 165.693 78.5406C173.797 78.5406 180.367 85.1104 180.367 93.2146C180.367 101.319 173.797 107.889 165.693 107.889C157.589 107.889 151.019 101.319 151.019 93.2146Z" fill="white"/>
<path fill-rule="evenodd" clip-rule="evenodd" d="M105.558 93.2146C105.558 85.1104 112.128 78.5406 120.232 78.5406C128.336 78.5406 134.905 85.1104 134.905 93.2146C134.905 101.319 128.336 107.889 120.232 107.889C112.128 107.889 105.558 101.319 105.558 93.2146Z" fill="white"/>
<path fill-rule="evenodd" clip-rule="evenodd" d="M107.533 111.652H133.057C133.876 111.588 134.7 111.699 135.475 111.977C136.28 112.267 137.011 112.731 137.617 113.336C138.222 113.941 138.686 114.672 138.975 115.478C139.254 116.252 139.364 117.076 139.3 117.896V125.897C139.3 126.943 138.452 127.791 137.406 127.791C136.36 127.791 135.512 126.943 135.512 125.897V117.814C135.512 117.755 135.515 117.695 135.52 117.635C135.549 117.339 135.511 117.04 135.41 116.76C135.31 116.479 135.148 116.225 134.938 116.015C134.727 115.804 134.473 115.643 134.193 115.542C133.913 115.441 133.614 115.404 133.317 115.432C133.258 115.438 133.198 115.44 133.138 115.44H107.452C107.392 115.44 107.332 115.438 107.273 115.432C106.976 115.404 106.677 115.441 106.397 115.542C106.117 115.643 105.863 115.804 105.652 116.015C105.442 116.225 105.281 116.479 105.18 116.76C105.079 117.04 105.041 117.339 105.07 117.635C105.075 117.695 105.078 117.755 105.078 117.814V125.897C105.078 126.943 104.23 127.791 103.184 127.791C102.138 127.791 101.29 126.943 101.29 125.897V117.896C101.226 117.076 101.336 116.252 101.615 115.478C101.904 114.672 102.368 113.941 102.974 113.336C103.579 112.731 104.31 112.267 105.115 111.977C105.89 111.699 106.714 111.588 107.533 111.652Z" fill="white"/>
<path fill-rule="evenodd" clip-rule="evenodd" d="M152.995 111.652H178.518C179.337 111.588 180.162 111.699 180.936 111.977C181.741 112.267 182.473 112.731 183.078 113.336C183.683 113.941 184.147 114.672 184.436 115.478C184.715 116.252 184.825 117.076 184.761 117.896V125.897C184.761 126.943 183.913 127.791 182.867 127.791C181.821 127.791 180.973 126.943 180.973 125.897V117.814C180.973 117.755 180.976 117.695 180.982 117.635C181.01 117.339 180.972 117.04 180.871 116.76C180.771 116.479 180.609 116.225 180.399 116.015C180.188 115.804 179.934 115.643 179.654 115.542C179.374 115.441 179.075 115.404 178.779 115.432C178.719 115.438 178.659 115.44 178.599 115.44H152.913C152.853 115.44 152.793 115.438 152.734 115.432C152.437 115.404 152.139 115.441 151.858 115.542C151.578 115.643 151.324 115.804 151.113 116.015C150.903 116.225 150.742 116.479 150.641 116.76C150.54 117.04 150.503 117.339 150.531 117.635C150.536 117.695 150.539 117.755 150.539 117.814V125.897C150.539 126.943 149.691 127.791 148.645 127.791C147.599 127.791 146.751 126.943 146.751 125.897V117.896C146.687 117.076 146.798 116.252 147.076 115.478C147.366 114.672 147.83 113.941 148.435 113.336C149.04 112.731 149.771 112.267 150.576 111.977C151.351 111.699 152.175 111.588 152.995 111.652Z" fill="white"/>
<path fill-rule="evenodd" clip-rule="evenodd" d="M146.526 68.1097L137.109 76.3071C136.55 76.7946 135.756 76.91 135.081 76.6024C134.405 76.2948 133.972 75.6208 133.972 74.8784V68.1097H123.805C123.091 68.118 122.382 67.9846 121.719 67.717C121.052 67.4476 120.445 67.0477 119.935 66.5406C119.424 66.0336 119.02 65.4296 118.745 64.7642C118.472 64.1012 118.334 63.3905 118.338 62.6734V38.5405C118.334 37.8235 118.472 37.1126 118.744 36.4491C119.017 35.7832 119.419 35.1783 119.928 34.6694C120.437 34.1606 121.042 33.7579 121.708 33.4849C122.371 33.2128 123.082 33.0749 123.799 33.0791H167.708C168.425 33.0749 169.136 33.2128 169.799 33.4849C170.465 33.7579 171.07 34.1606 171.579 34.6694C172.088 35.1783 172.49 35.7832 172.763 36.4491L173.169 62.6731C173.173 63.3902 173.035 64.1011 172.762 64.7642C172.487 65.4296 172.083 66.0336 171.572 66.5406C171.062 67.0477 170.455 67.4476 169.788 67.717L146.526 68.1097Z" fill="white"/>
<path fill-rule="evenodd" clip-rule="evenodd" d="M131.9 50.607C131.9 49.5608 132.748 48.7128 133.794 48.7128H136.067C137.114 48.7128 137.962 49.5608 137.962 50.607C137.962 51.6532 137.114 52.5012 136.067 52.5012H133.794C132.748 52.5012 131.9 51.6532 131.9 50.607Z" fill="#0B3C61"/>
<path fill-rule="evenodd" clip-rule="evenodd" d="M142.76 50.607C142.76 49.5608 143.608 48.7128 144.655 48.7128H146.928C147.974 48.7128 148.822 49.5608 148.822 50.607C148.822 51.6532 147.974 52.5012 146.928 52.5012H144.655C143.608 52.5012 142.76 51.6532 142.76 50.607Z" fill="#0B3C61"/>
<path fill-rule="evenodd" clip-rule="evenodd" d="M153.62 50.607C153.62 49.5608 154.469 48.7128 155.515 48.7128H157.788C158.834 48.7128 159.682 49.5608 159.682 50.607C159.682 51.6532 158.834 52.5012 157.788 52.5012H155.515C154.469 52.5012 153.62 51.6532 153.62 50.607Z" fill="#0B3C61"/>
<path fill-rule="evenodd" clip-rule="evenodd" d="M165.693 82.3292C159.681 82.3292 154.807 87.2028 154.807 93.2148C154.807 99.2267 159.681 104.1 165.693 104.1C171.705 104.1 176.578 99.2267 176.578 93.2148C176.578 87.2028 171.705 82.3292 165.693 82.3292ZM151.019 93.2148C151.019 85.1105 157.589 78.5408 165.693 78.5408C173.797 78.5408 180.367 85.1105 180.367 93.2148C180.367 101.319 173.797 107.889 165.693 107.889C157.589 107.889 151.019 101.319 151.019 93.2148Z" fill="#0B3C61"/>
<path fill-rule="evenodd" clip-rule="evenodd" d="M120.232 82.3292C114.22 82.3292 109.346 87.2028 109.346 93.2148C109.346 99.2267 114.22 104.1 120.232 104.1C126.244 104.1 131.117 99.2267 131.117 93.2148C131.117 87.2029 126.244 82.3292 120.232 82.3292ZM105.558 93.2148C105.558 85.1105 112.128 78.5408 120.232 78.5408C128.336 78.5408 134.906 85.1105 134.906 93.2148C134.906 101.319 128.336 107.889 120.232 107.889C112.128 107.889 105.558 101.319 105.558 93.2148Z" fill="#0B3C61"/>
<path fill-rule="evenodd" clip-rule="evenodd" d="M107.533 111.652H133.057C133.876 111.588 134.7 111.699 135.475 111.977C136.28 112.267 137.011 112.731 137.617 113.336C138.222 113.941 138.686 114.672 138.975 115.478C139.254 116.252 139.364 117.076 139.3 117.896V125.897C139.3 126.943 138.452 127.791 137.406 127.791C136.36 127.791 135.512 126.943 135.512 125.897V117.814C135.512 117.755 135.515 117.695 135.52 117.635C135.549 117.339 135.511 117.04 135.41 116.76C135.31 116.479 135.148 116.225 134.938 116.015C134.727 115.804 134.473 115.643 134.193 115.542C133.913 115.441 133.614 115.404 133.317 115.432C133.258 115.438 133.198 115.44 133.138 115.44H107.452C107.392 115.44 107.332 115.438 107.273 115.432C106.976 115.404 106.677 115.441 106.397 115.542C106.117 115.643 105.863 115.804 105.652 116.015C105.442 116.225 105.281 116.479 105.18 116.76C105.079 117.04 105.041 117.339 105.07 117.635C105.075 117.695 105.078 117.755 105.078 117.814V125.897C105.078 126.943 104.23 127.791 103.184 127.791C102.138 127.791 101.29 126.943 101.29 125.897V117.896C101.226 117.076 101.336 116.252 101.615 115.478C101.904 114.672 102.368 113.941 102.974 113.336C103.579 112.731 104.31 112.267 105.115 111.977C105.89 111.699 106.714 111.588 107.533 111.652Z" fill="#0B3C61"/>
<path fill-rule="evenodd" clip-rule="evenodd" d="M152.995 111.652H178.518C179.337 111.588 180.162 111.699 180.936 111.977C181.741 112.267 182.473 112.731 183.078 113.336C183.683 113.941 184.147 114.672 184.436 115.478C184.715 116.252 184.825 117.076 184.761 117.896V125.897C184.761 126.943 183.913 127.791 182.867 127.791C181.821 127.791 180.973 126.943 180.973 125.897V117.814C180.973 117.755 180.976 117.695 180.982 117.635C181.01 117.339 180.972 117.04 180.871 116.76C180.771 116.479 180.609 116.225 180.399 116.015C180.188 115.804 179.934 115.643 179.654 115.542C179.374 115.441 179.075 115.404 178.779 115.432C178.719 115.438 178.659 115.44 178.599 115.44H152.913C152.853 115.44 152.793 115.438 152.734 115.432C152.437 115.404 152.139 115.441 151.858 115.542C151.578 115.643 151.324 115.804 151.113 116.015C150.903 116.225 150.742 116.479 150.641 116.76C150.54 117.04 150.503 117.339 150.531 117.635C150.536 117.695 150.539 117.755 150.539 117.814V125.897C150.539 126.943 149.691 127.791 148.645 127.791C147.599 127.791 146.751 126.943 146.751 125.897V117.896C146.687 117.076 146.798 116.252 147.076 115.478C147.366 114.672 147.83 113.941 148.435 113.336C149.04 112.731 149.771 112.267 150.576 111.977C151.351 111.699 152.175 111.588 152.995 111.652Z" fill="#0B3C61"/>
<path fill-rule="evenodd" clip-rule="evenodd" d="M146.526 68.1098L137.109 76.3073C136.55 76.7947 135.756 76.9101 135.081 76.6025C134.405 76.2949 133.972 75.621 133.972 74.8786V68.1098H123.805C123.091 68.1181 122.382 67.9847 121.719 67.7172C121.052 67.4478 120.445 67.0478 119.935 66.5407C119.424 66.0337 119.02 65.4298 118.745 64.7644C118.472 64.1013 118.334 63.3906 118.338 62.6736V38.5407C118.334 37.8236 118.472 37.1127 118.744 36.4492C119.017 35.7834 119.419 35.1784 119.928 34.6696C120.437 34.1607 121.042 33.758 121.708 33.485C122.371 33.213 123.082 33.075 123.799 33.0792H167.708C168.425 33.075 169.136 33.213 169.799 33.485C170.465 33.758 171.07 34.1607 171.579 34.6696C172.088 35.1784 172.49 35.7834 172.763 36.4492L173.169 62.6732C173.173 63.3904 173.035 64.1012 172.762 64.7644C172.487 65.4298 172.083 66.0337 171.572 66.5407C171.062 67.0478 170.455 67.4478 169.788 67.7172L146.526 68.1098ZM122.495 35.6048C121.943 35.6048 121.495 36.0525 121.495 36.6048V63.6497C121.495 64.202 121.943 64.6497 122.495 64.6497H135.646C136.2 64.6497 136.648 65.0988 136.646 65.652L136.631 72.2266L144.628 65.3719C145.172 64.9059 145.864 64.6497 146.58 64.6497H168.482C169.034 64.6497 169.482 64.202 169.482 63.6497V36.6048C169.482 36.0525 169.034 35.6048 168.482 35.6048H122.495Z" fill="#0B3C61"/>
</svg>
