<?xml version="1.0" standalone="no"?>
<!DOCTYPE svg PUBLIC "-//W3C//DTD SVG 1.1//EN" "http://www.w3.org/Graphics/SVG/1.1/DTD/svg11.dtd">
<svg width="18" height="18" viewBox="0 0 18 18" fill="none" xmlns="http://www.w3.org/2000/svg">
<path fill-rule="evenodd" clip-rule="evenodd" d="M2.25 5.25C2.66421 5.25 3 5.58579 3 6V15H15V6C15 5.58579 15.3358 5.25 15.75 5.25C16.1642 5.25 16.5 5.58579 16.5 6V15.75C16.5 16.1642 16.1642 16.5 15.75 16.5H2.25C1.83579 16.5 1.5 16.1642 1.5 15.75V6C1.5 5.58579 1.83579 5.25 2.25 5.25Z" fill="#0B3C61"/>
<path fill-rule="evenodd" clip-rule="evenodd" d="M0 2.25C0 1.83579 0.335786 1.5 0.75 1.5H17.25C17.6642 1.5 18 1.83579 18 2.25V6C18 6.41421 17.6642 6.75 17.25 6.75H0.75C0.335786 6.75 0 6.41421 0 6V2.25ZM1.5 3V5.25H16.5V3H1.5Z" fill="#0B3C61"/>
<path fill-rule="evenodd" clip-rule="evenodd" d="M6.75 9C6.75 8.58579 7.08579 8.25 7.5 8.25H10.5C10.9142 8.25 11.25 8.58579 11.25 9C11.25 9.41421 10.9142 9.75 10.5 9.75H7.5C7.08579 9.75 6.75 9.41421 6.75 9Z" fill="#0B3C61"/>
</svg>
