<svg width="18" height="19" viewBox="0 0 18 19" fill="none" xmlns="http://www.w3.org/2000/svg">
<g clip-path="url(#clip0)">
<path d="M16.5001 12.8172V15.0736C16.5009 15.283 16.4581 15.4904 16.3745 15.6823C16.2908 15.8742 16.168 16.0465 16.0141 16.1881C15.8602 16.3298 15.6785 16.4376 15.4806 16.5047C15.2828 16.5718 15.0731 16.5967 14.8651 16.5779C12.5572 16.3264 10.3403 15.5355 8.39257 14.2688C6.58044 13.114 5.04407 11.5733 3.89257 9.75597C2.62506 7.7938 1.83625 5.5598 1.59007 3.23495C1.57133 3.02696 1.59598 2.81733 1.66245 2.61942C1.72892 2.4215 1.83575 2.23964 1.97615 2.0854C2.11654 1.93116 2.28743 1.80792 2.47792 1.72354C2.6684 1.63916 2.87433 1.59548 3.08257 1.59529H5.33257C5.69655 1.5917 6.04942 1.72095 6.32539 1.95897C6.60137 2.19699 6.78163 2.52752 6.83257 2.88896C6.92754 3.61106 7.10366 4.32007 7.35757 5.00247C7.45848 5.27167 7.48032 5.56425 7.4205 5.84552C7.36069 6.1268 7.22172 6.38498 7.02007 6.58948L6.06757 7.54469C7.13524 9.4277 8.68991 10.9868 10.5676 12.0575L11.5201 11.1023C11.724 10.9001 11.9814 10.7607 12.2619 10.7007C12.5424 10.6407 12.8341 10.6626 13.1026 10.7638C13.783 11.0185 14.49 11.1951 15.2101 11.2903C15.5744 11.3419 15.9071 11.5259 16.145 11.8074C16.3828 12.0889 16.5092 12.4483 16.5001 12.8172Z" stroke="#0B3C61" stroke-width="1.5" stroke-linecap="round" stroke-linejoin="round"/>
</g>
<defs>
<clipPath id="clip0">
<rect width="18" height="18.0513" fill="white" transform="translate(0 0.0910645)"/>
</clipPath>
</defs>
</svg>
