<svg
                    width="18"
                    height="18"
                    viewBox="0 0 18 18"
                    fill="none"
                    xmlns="http://www.w3.org/2000/svg"
                  >
                    <path
                      d="M16.5001 12.69L15.7503 12.6714C15.7501 12.6776 15.7501 12.6838 15.7501 12.69H16.5001ZM16.5001 14.94H15.7501L15.7501 14.9431L16.5001 14.94ZM14.8651 16.44L14.784 17.1857L14.7976 17.187L14.8651 16.44ZM8.39257 14.1375L8.80066 13.5082L8.79481 13.5045L8.39257 14.1375ZM3.89257 9.63751L4.52561 9.23525L4.52203 9.22974L3.89257 9.63751ZM1.59007 3.13501L0.843024 3.20252L0.844265 3.21421L1.59007 3.13501ZM3.08257 1.50001V0.750011L3.08187 0.750012L3.08257 1.50001ZM5.33257 1.50001L5.33257 2.25005L5.33995 2.24998L5.33257 1.50001ZM6.83257 2.79001L7.57616 2.69194L7.57519 2.68505L6.83257 2.79001ZM7.35757 4.89751L6.6549 5.15972L6.65553 5.16141L7.35757 4.89751ZM7.02007 6.48001L7.55041 7.01035L7.55336 7.00737L7.02007 6.48001ZM6.06757 7.43251L5.53724 6.90218C5.29851 7.14091 5.24872 7.50974 5.4156 7.80323L6.06757 7.43251ZM10.5676 11.9325L10.1969 12.5845C10.4903 12.7514 10.8592 12.7016 11.0979 12.4628L10.5676 11.9325ZM11.5201 10.98L10.9927 10.4467L10.9897 10.4497L11.5201 10.98ZM13.1026 10.6425L12.8387 11.3446L12.8404 11.3452L13.1026 10.6425ZM15.2101 11.1675L15.3148 10.4248L15.3081 10.424L15.2101 11.1675ZM15.7501 12.69V14.94H17.2501V12.69H15.7501ZM15.7501 14.9431C15.7505 15.0475 15.7291 15.1509 15.6873 15.2466L17.0616 15.8475C17.1872 15.5604 17.2513 15.2503 17.2501 14.937L15.7501 14.9431ZM15.6873 15.2466C15.6454 15.3422 15.5841 15.4281 15.5071 15.4988L16.5212 16.6041C16.752 16.3923 16.9361 16.1346 17.0616 15.8475L15.6873 15.2466ZM15.5071 15.4988C15.4301 15.5694 15.3393 15.6231 15.2404 15.6566L15.7209 17.0775C16.0177 16.9771 16.2903 16.8159 16.5212 16.6041L15.5071 15.4988ZM15.2404 15.6566C15.1414 15.69 15.0366 15.7025 14.9326 15.6931L14.7976 17.187C15.1096 17.2152 15.4241 17.1779 15.7209 17.0775L15.2404 15.6566ZM14.9461 15.6944C12.7548 15.4563 10.65 14.7075 8.80065 13.5082L7.9845 14.7668C10.0307 16.0937 12.3596 16.9222 14.7841 17.1856L14.9461 15.6944ZM8.79481 13.5045C7.07561 12.412 5.61803 10.9545 4.52558 9.23527L3.25956 10.0398C4.47012 11.9448 6.08527 13.56 7.99033 14.7705L8.79481 13.5045ZM4.52203 9.22974C3.31856 7.37201 2.56962 5.25691 2.33588 3.05581L0.844265 3.21421C1.10289 5.6496 1.93155 7.98982 3.26311 10.0453L4.52203 9.22974ZM2.33703 3.06751C2.32766 2.96381 2.33998 2.8593 2.37322 2.76062L0.951678 2.28184C0.851975 2.57787 0.815002 2.89141 0.843116 3.20251L2.33703 3.06751ZM2.37322 2.76062C2.40645 2.66194 2.45987 2.57127 2.53007 2.49437L1.42223 1.48309C1.21163 1.71379 1.05138 1.98581 0.951678 2.28184L2.37322 2.76062ZM2.53007 2.49437C2.60026 2.41747 2.68571 2.35603 2.78095 2.31396L2.17488 0.941849C1.88915 1.06806 1.63282 1.25238 1.42223 1.48309L2.53007 2.49437ZM2.78095 2.31396C2.87619 2.27189 2.97916 2.25011 3.08328 2.25001L3.08187 0.750012C2.7695 0.750306 2.46061 0.815638 2.17488 0.941849L2.78095 2.31396ZM3.08257 2.25001H5.33257V0.750012H3.08257V2.25001ZM5.33995 2.24998C5.52194 2.24818 5.69838 2.31263 5.83636 2.4313L6.81442 1.29402C6.40046 0.938011 5.87116 0.744675 5.32519 0.750048L5.33995 2.24998ZM5.83636 2.4313C5.97435 2.54997 6.06448 2.71477 6.08995 2.89498L7.57519 2.68505C7.49878 2.14443 7.22839 1.65003 6.81442 1.29402L5.83636 2.4313ZM6.08901 2.88808C6.19137 3.66421 6.38121 4.42627 6.6549 5.15971L8.06025 4.63531C7.82611 4.00785 7.6637 3.35591 7.57613 2.69194L6.08901 2.88808ZM6.65553 5.16141C6.70599 5.29563 6.71691 5.4415 6.687 5.58174L8.15401 5.89461C8.24373 5.47389 8.21097 5.03628 8.05961 4.63362L6.65553 5.16141ZM6.687 5.58174C6.65709 5.72197 6.58761 5.8507 6.48678 5.95266L7.55336 7.00737C7.85583 6.70149 8.06428 6.31532 8.15401 5.89461L6.687 5.58174ZM6.48974 5.94968L5.53724 6.90218L6.5979 7.96284L7.5504 7.01034L6.48974 5.94968ZM5.4156 7.80323C6.55 9.79824 8.20184 11.4501 10.1969 12.5845L10.9383 11.2805C9.17799 10.2796 7.72048 8.82209 6.71954 7.06179L5.4156 7.80323ZM11.0979 12.4628L12.0504 11.5103L10.9897 10.4497L10.0372 11.4022L11.0979 12.4628ZM12.0474 11.5133C12.1494 11.4125 12.2781 11.343 12.4183 11.3131L12.1055 9.84608C11.6848 9.9358 11.2986 10.1443 10.9927 10.4467L12.0474 11.5133ZM12.4183 11.3131C12.5586 11.2832 12.7045 11.2941 12.8387 11.3445L13.3665 9.94047C12.9638 9.78911 12.5262 9.75635 12.1055 9.84608L12.4183 11.3131ZM12.8404 11.3452C13.5738 11.6189 14.3359 11.8087 15.112 11.9111L15.3081 10.424C14.6442 10.3364 13.9922 10.174 13.3648 9.93984L12.8404 11.3452ZM15.1053 11.9102C15.2875 11.9359 15.4538 12.0276 15.5728 12.168L16.7172 11.1983C16.3604 10.7772 15.8613 10.502 15.3148 10.4249L15.1053 11.9102ZM15.5728 12.168C15.6917 12.3083 15.7549 12.4875 15.7503 12.6714L17.2498 12.7086C17.2635 12.1569 17.074 11.6194 16.7172 11.1983L15.5728 12.168Z"
                      fill="white"
                    />
                  </svg>