<svg width="24" height="24" viewBox="0 0 24 24" fill="none" xmlns="http://www.w3.org/2000/svg">
<path fill-rule="evenodd" clip-rule="evenodd" d="M12.2 5.56535C12.2 5.14269 11.9761 4.80005 11.7 4.80005C11.4238 4.80005 11.2 5.14269 11.2 5.56535V11.8H4.96526C4.54259 11.8 4.19995 12.0239 4.19995 12.3C4.19995 12.5762 4.54259 12.8 4.96526 12.8H11.2V19.0347C11.2 19.4574 11.4238 19.8 11.7 19.8C11.9761 19.8 12.2 19.4574 12.2 19.0347V12.8H18.4346C18.8573 12.8 19.2 12.5762 19.2 12.3C19.2 12.0239 18.8573 11.8 18.4346 11.8H12.2V5.56535Z" fill="#0B3C61"/>
</svg>
