<svg width="24" height="24" viewBox="0 0 24 24" fill="none" xmlns="http://www.w3.org/2000/svg">
<path fill-rule="evenodd" clip-rule="evenodd" d="M12.6529 10.1936C12.6529 7.69941 10.6526 6.00018 8.38691 6.00018C5.89272 6.00018 3.99976 7.69941 3.99976 10.1936C3.99976 12.6878 5.89272 14.5002 8.38691 14.5002C10.9998 14.5002 12.6529 12.3248 12.6529 10.1936ZM8.38691 4.38715C11.5937 4.38715 14.1934 6.98678 14.1934 10.1936C14.1934 13.4004 11.5937 16 8.38691 16C5.18009 16 2.58046 13.4004 2.58046 10.1936C2.58046 6.98678 5.18009 4.38715 8.38691 4.38715Z" fill="white"/>
<path fill-rule="evenodd" clip-rule="evenodd" d="M4.99975 13.5001C5.25171 13.7521 5.44974 14.043 5.19779 14.295L2.39134 17.1014C2.13939 17.3534 1.53286 17.2522 1.28091 17.0002C1.02896 16.7483 1.02896 16.0586 1.28091 15.8067L4.08736 13.0002C4.33931 12.7482 4.7478 13.2482 4.99975 13.5001Z" fill="white"/>
<path fill-rule="evenodd" clip-rule="evenodd" d="M8.51562 1.54839C8.51562 0.693236 9.20886 0 10.064 0H22.4511C23.3063 0 23.9995 0.693237 23.9995 1.54839V11.6129C23.9995 12.4681 23.3063 13.1613 22.4511 13.1613H14.9681C15.1161 12.7882 15.2344 12.4001 15.3201 12H22C22.5523 12 23 11.5523 23 11V2C23 1.44772 22.5523 1 22 1H10.5C9.94771 1 9.5 1.44772 9.5 2V3.22441C9.17876 3.16383 8.85015 3.12413 8.51562 3.10679V1.54839ZM15.4092 11.5H22C22.2761 11.5 22.5 11.2761 22.5 11V2C22.5 1.72386 22.2761 1.5 22 1.5H10.5C10.2239 1.5 10 1.72386 10 2V3.33699C10.1507 3.37652 10.2995 3.4207 10.4462 3.46938C10.3766 3.3165 10.3343 3.13785 10.4995 3C10.7522 2.78906 11.0514 2.92758 11.2253 3.09676L12.5244 4.55442C12.9082 4.84101 13.2632 5.1642 13.584 5.51881L15.6523 2.78906L17.7137 6.66962L19.3529 4.4662L21.629 8.10861C21.7243 8.26115 21.7199 8.60949 21.629 8.77043C21.4994 9 21.0932 8.92298 20.9979 8.77043L19.2483 5.97058L17.5327 8.27674L15.5965 4.45631L14.1414 6.21508C14.9868 7.41273 15.4834 8.87418 15.4834 10.4516C15.4834 10.8075 15.4581 11.1576 15.4092 11.5Z" fill="white"/>
</svg>
