<svg width="24" height="24" viewBox="0 0 24 24" fill="none" xmlns="http://www.w3.org/2000/svg">
<path fill-rule="evenodd" clip-rule="evenodd" d="M3.06738 13.1255C3.06738 12.8567 3.28533 12.6387 3.55419 12.6387H21.1765C21.4453 12.6387 21.6633 12.8567 21.6633 13.1255V16.8252H20.6897V13.6123H4.04099V16.8252H3.06738V13.1255Z" fill="white"/>
<path fill-rule="evenodd" clip-rule="evenodd" d="M3.45699 15.8516L0 21.8393H6.91398L3.45699 15.8516ZM3.45699 17.7988L1.68634 20.8657H5.22765L3.45699 17.7988Z" fill="white"/>
<path fill-rule="evenodd" clip-rule="evenodd" d="M14.0692 17.0199H10.1748V20.9144H14.0692V17.0199ZM9.20117 16.0463V21.888H15.0428V16.0463H9.20117Z" fill="white"/>
<path fill-rule="evenodd" clip-rule="evenodd" d="M21.079 20.9144C22.1544 20.9144 23.0262 20.0426 23.0262 18.9671C23.0262 17.8917 22.1544 17.0199 21.079 17.0199C20.0036 17.0199 19.1318 17.8917 19.1318 18.9671C19.1318 20.0426 20.0036 20.9144 21.079 20.9144ZM21.079 21.888C22.6922 21.888 23.9998 20.5803 23.9998 18.9671C23.9998 17.354 22.6922 16.0463 21.079 16.0463C19.4659 16.0463 18.1582 17.354 18.1582 18.9671C18.1582 20.5803 19.4659 21.888 21.079 21.888Z" fill="white"/>
<path fill-rule="evenodd" clip-rule="evenodd" d="M11.7324 16.4358L11.7324 9.52317L12.7061 9.52317L12.706 16.4358L11.7324 16.4358Z" fill="white"/>
<path fill-rule="evenodd" clip-rule="evenodd" d="M12.2193 4.20344L9.5674 6.13014L10.5803 9.24761H13.8582L14.8711 6.13014L12.2193 4.20344ZM16.0157 5.75826L12.2193 3L8.42285 5.75826L9.87295 10.2212H14.5656L16.0157 5.75826Z" fill="white"/>
</svg>
