<svg width="33" height="34" viewBox="0 0 33 34" fill="none" xmlns="http://www.w3.org/2000/svg">
<path d="M25.57 33.12H2.71C1.99035 33.1173 1.30107 32.8296 0.793131 32.3198C0.285193 31.81 -4.53635e-06 31.1196 3.27279e-07 30.4V7.39999C-0.000324613 6.73725 0.241324 6.0972 0.679559 5.60004C1.11779 5.10289 1.72246 4.78283 2.38 4.69999C2.46045 4.10871 2.73311 3.5603 3.15596 3.13926C3.57881 2.71821 4.12839 2.44791 4.72 2.36999C4.80486 1.71597 5.12445 1.11506 5.61928 0.679091C6.11412 0.243118 6.75051 0.00177947 7.41 -1.20662e-05H30.27C30.6272 -0.0013277 30.9812 0.0677252 31.3117 0.203204C31.6422 0.338683 31.9428 0.537934 32.1963 0.789581C32.4498 1.04123 32.6512 1.34034 32.7891 1.66985C32.927 1.99935 32.9987 2.35279 33 2.70999V25.77C32.9982 26.4295 32.7569 27.0659 32.3209 27.5607C31.8849 28.0555 31.284 28.3751 30.63 28.46C30.551 29.0572 30.2767 29.6115 29.8499 30.0366C29.423 30.4616 28.8675 30.7335 28.27 30.81C28.1737 31.4557 27.8475 32.0449 27.3514 32.4693C26.8554 32.8937 26.2228 33.1247 25.57 33.12ZM2.71 5.62999C2.25556 5.63263 1.82064 5.81501 1.50024 6.13729C1.17983 6.45956 0.999993 6.89554 1 7.34999V30.35C0.999993 30.8044 1.17983 31.2404 1.50024 31.5627C1.82064 31.885 2.25556 32.0673 2.71 32.07H25.57C26.0244 32.0673 26.4594 31.885 26.7798 31.5627C27.1002 31.2404 27.28 30.8044 27.28 30.35V12.78H23.92C22.55 12.78 20.26 12.78 20.26 10.21V5.62999H2.71ZM21.09 4.75999L28.09 11.76C28.1805 11.8539 28.2308 11.9795 28.23 12.11V29.79C28.6111 29.7061 28.9523 29.495 29.1976 29.1915C29.443 28.8881 29.5778 28.5102 29.58 28.12V5.05999C29.5774 4.60728 29.3964 4.17386 29.0763 3.85374C28.7561 3.53362 28.3227 3.35261 27.87 3.34999H5.06C4.6805 3.34889 4.31141 3.47407 4.01087 3.70581C3.71034 3.93755 3.49543 4.26268 3.4 4.62999H20.76C20.8824 4.63059 21.0001 4.67697 21.09 4.75999ZM5.73 2.34999H27.92C28.6379 2.35262 29.3257 2.63899 29.8333 3.14664C30.341 3.65429 30.6274 4.34206 30.63 5.05999V27.44C31.0156 27.3618 31.3625 27.1529 31.6121 26.8487C31.8616 26.5445 31.9987 26.1635 32 25.77V2.70999C31.9987 2.48411 31.9529 2.26071 31.8653 2.05253C31.7776 1.84435 31.6498 1.65547 31.4892 1.49668C31.3285 1.3379 31.1382 1.2123 30.929 1.12708C30.7198 1.04186 30.4959 0.998671 30.27 0.999988H7.41C7.01854 1.00174 6.63925 1.13621 6.3341 1.38142C6.02895 1.62663 5.81598 1.96808 5.73 2.34999ZM21.26 6.34999V10.22C21.26 11.45 21.83 11.79 23.92 11.79H26.69L21.26 6.34999ZM23.88 29H4C3.86819 28.9974 3.7425 28.9439 3.64928 28.8507C3.55606 28.7575 3.50256 28.6318 3.5 28.5C3.5 28.3674 3.55268 28.2402 3.64645 28.1464C3.74022 28.0527 3.86739 28 4 28H23.88C24.0126 28 24.1398 28.0527 24.2336 28.1464C24.3273 28.2402 24.38 28.3674 24.38 28.5C24.38 28.6326 24.3273 28.7598 24.2336 28.8535C24.1398 28.9473 24.0126 29 23.88 29ZM23.88 25.87H4C3.86819 25.8674 3.7425 25.8139 3.64928 25.7207C3.55606 25.6275 3.50256 25.5018 3.5 25.37C3.5 25.2374 3.55268 25.1102 3.64645 25.0164C3.74022 24.9227 3.86739 24.87 4 24.87H23.88C24.0126 24.87 24.1398 24.9227 24.2336 25.0164C24.3273 25.1102 24.38 25.2374 24.38 25.37C24.3855 25.4389 24.3767 25.5083 24.3541 25.5736C24.3314 25.639 24.2955 25.6989 24.2485 25.7497C24.2015 25.8004 24.1445 25.8409 24.0811 25.8685C24.0176 25.8961 23.9492 25.9102 23.88 25.91V25.87ZM23.56 22.73H4C3.86739 22.73 3.74022 22.6773 3.64645 22.5835C3.55268 22.4898 3.5 22.3626 3.5 22.23C3.50256 22.0982 3.55606 21.9725 3.64928 21.8793C3.7425 21.786 3.86819 21.7325 4 21.73H23.56C23.6918 21.7325 23.8175 21.786 23.9107 21.8793C24.0039 21.9725 24.0574 22.0982 24.06 22.23C24.0655 22.2989 24.0567 22.3683 24.0341 22.4336C24.0114 22.499 23.9755 22.5589 23.9285 22.6097C23.8815 22.6604 23.8245 22.7009 23.7611 22.7285C23.6976 22.7561 23.6292 22.7702 23.56 22.77V22.73ZM23.56 19.61H4C3.86739 19.61 3.74022 19.5573 3.64645 19.4635C3.55268 19.3698 3.5 19.2426 3.5 19.11C3.50256 18.9782 3.55606 18.8525 3.64928 18.7593C3.7425 18.666 3.86819 18.6125 4 18.61H23.56C23.6918 18.6125 23.8175 18.666 23.9107 18.7593C24.0039 18.8525 24.0574 18.9782 24.06 19.11C24.0655 19.1789 24.0567 19.2483 24.0341 19.3136C24.0114 19.379 23.9755 19.4389 23.9285 19.4897C23.8815 19.5404 23.8245 19.5809 23.7611 19.6085C23.6976 19.6361 23.6292 19.6502 23.56 19.65V19.61ZM23.56 16.48H4C3.86739 16.48 3.74022 16.4273 3.64645 16.3335C3.55268 16.2398 3.5 16.1126 3.5 15.98C3.50256 15.8482 3.55606 15.7225 3.64928 15.6293C3.7425 15.536 3.86819 15.4825 4 15.48H23.56C23.6918 15.4825 23.8175 15.536 23.9107 15.6293C24.0039 15.7225 24.0574 15.8482 24.06 15.98C24.0655 16.0489 24.0567 16.1183 24.0341 16.1836C24.0114 16.249 23.9755 16.3089 23.9285 16.3597C23.8815 16.4104 23.8245 16.4509 23.7611 16.4785C23.6976 16.5061 23.6292 16.5202 23.56 16.52V16.48ZM17.18 13.23H4C3.86739 13.23 3.74022 13.1773 3.64645 13.0835C3.55268 12.9898 3.5 12.8626 3.5 12.73C3.50256 12.5982 3.55606 12.4725 3.64928 12.3793C3.7425 12.286 3.86819 12.2325 4 12.23H17.18C17.3126 12.23 17.4398 12.2827 17.5336 12.3764C17.6273 12.4702 17.68 12.5974 17.68 12.73C17.6855 12.7989 17.6767 12.8683 17.6541 12.9336C17.6314 12.999 17.5955 13.0589 17.5485 13.1097C17.5015 13.1604 17.4445 13.2009 17.3811 13.2285C17.3176 13.2561 17.2492 13.2702 17.18 13.27V13.23ZM17.18 10.23H4C3.86819 10.2274 3.7425 10.1739 3.64928 10.0807C3.55606 9.98749 3.50256 9.86179 3.5 9.72999C3.5 9.59738 3.55268 9.4702 3.64645 9.37643C3.74022 9.28267 3.86739 9.22999 4 9.22999H17.18C17.3126 9.22999 17.4398 9.28267 17.5336 9.37643C17.6273 9.4702 17.68 9.59738 17.68 9.72999C17.6855 9.79893 17.6767 9.86828 17.6541 9.93363C17.6314 9.99899 17.5955 10.0589 17.5485 10.1097C17.5015 10.1604 17.4445 10.2009 17.3811 10.2285C17.3176 10.2561 17.2492 10.2702 17.18 10.27V10.23Z" fill="#333333"/>
</svg>
