<svg width="32" height="32" viewBox="0 0 32 32" fill="none" xmlns="http://www.w3.org/2000/svg">
<path fill-rule="evenodd" clip-rule="evenodd" d="M13.3467 21.8826C13.1905 22.0388 12.9372 22.0388 12.781 21.8826L7.31761 16.4192C7.1614 16.263 7.1614 16.0097 7.31761 15.8535C7.47382 15.6973 7.72708 15.6973 7.88329 15.8535L13.3467 21.3169C13.5029 21.4731 13.5029 21.7264 13.3467 21.8826Z" fill="#333333"/>
<path fill-rule="evenodd" clip-rule="evenodd" d="M13.3467 10.3906C13.5029 10.5468 13.5029 10.8001 13.3467 10.9563L7.88329 16.4197C7.72708 16.5759 7.47382 16.5759 7.31761 16.4197C7.1614 16.2635 7.1614 16.0102 7.31761 15.854L12.781 10.3906C12.9372 10.2344 13.1905 10.2344 13.3467 10.3906Z" fill="#333333"/>
<path fill-rule="evenodd" clip-rule="evenodd" d="M25.1709 16.1363C25.1709 16.3572 24.9918 16.5363 24.7709 16.5363L7.60017 16.5363C7.37925 16.5363 7.20017 16.3572 7.20017 16.1363C7.20017 15.9154 7.37925 15.7363 7.60017 15.7363L24.7709 15.7363C24.9918 15.7363 25.1709 15.9154 25.1709 16.1363Z" fill="#333333"/>
<path fill-rule="evenodd" clip-rule="evenodd" d="M28.7996 16.4004C28.7996 9.11023 22.8898 3.20039 15.5996 3.20039C8.30945 3.20039 2.39961 9.11023 2.39961 16.4004C2.39961 23.6905 8.30945 29.6004 15.5996 29.6004C22.8898 29.6004 28.7996 23.6905 28.7996 16.4004ZM29.5996 16.4004C29.5996 8.6684 23.3316 2.40039 15.5996 2.40039C7.86762 2.40039 1.59961 8.6684 1.59961 16.4004C1.59961 24.1324 7.86762 30.4004 15.5996 30.4004C23.3316 30.4004 29.5996 24.1324 29.5996 16.4004Z" fill="#333333"/>
</svg>
