<svg width="79" height="89" viewBox="0 0 79 89" fill="none" xmlns="http://www.w3.org/2000/svg">
<path fill-rule="evenodd" clip-rule="evenodd" d="M3.67914 3.68242C3.40517 3.96497 3.13235 4.52353 3.13235 5.65382V83.2478C3.13235 84.2667 3.38763 84.7985 3.65497 85.0764C3.91195 85.3434 4.41296 85.6177 5.44433 85.6177H72.7153C73.9826 85.6177 74.4757 85.3583 74.6901 85.1461C74.9014 84.937 75.1765 84.4416 75.1765 83.1319V29.01L49.2461 3.13235H5.55471C4.46486 3.13235 3.94431 3.40893 3.67914 3.68242ZM1.43033 1.50194C2.48895 0.410147 3.96267 0 5.55471 0H49.8939C50.3087 0 50.7066 0.16457 51.0002 0.457596L77.849 27.2518C78.1434 27.5456 78.3088 27.9444 78.3088 28.3603V83.1319C78.3088 84.7593 77.9873 86.2899 76.8935 87.3724C75.8027 88.452 74.2822 88.75 72.7153 88.75H5.44433C3.8654 88.75 2.42734 88.3182 1.39782 87.2482C0.378655 86.189 0 84.7528 0 83.2478V5.65382C0 4.06992 0.380504 2.58466 1.43033 1.50194Z" fill="#D3D6D9"/>
<path fill-rule="evenodd" clip-rule="evenodd" d="M48.0294 28.7132V1.56616H51.1618V27.147H76.7427V30.2794H49.5956C48.7306 30.2794 48.0294 29.5782 48.0294 28.7132Z" fill="#D3D6D9"/>
<path fill-rule="evenodd" clip-rule="evenodd" d="M15.6617 66.3015C15.6617 65.4366 16.3629 64.7354 17.2279 64.7354H60.0367C60.9017 64.7354 61.6029 65.4366 61.6029 66.3015C61.6029 67.1665 60.9017 67.8677 60.0367 67.8677H17.2279C16.3629 67.8677 15.6617 67.1665 15.6617 66.3015Z" fill="#D3D6D9"/>
<path fill-rule="evenodd" clip-rule="evenodd" d="M15.6617 76.7427C15.6617 75.8777 16.3629 75.1765 17.2279 75.1765H60.0367C60.9017 75.1765 61.6029 75.8777 61.6029 76.7427C61.6029 77.6077 60.9017 78.3089 60.0367 78.3089H17.2279C16.3629 78.3089 15.6617 77.6077 15.6617 76.7427Z" fill="#D3D6D9"/>
<path fill-rule="evenodd" clip-rule="evenodd" d="M15.6617 38.6323H61.6029V56.3823H15.6617V38.6323ZM18.7941 41.7647V53.25H58.4706V41.7647H18.7941Z" fill="#D3D6D9"/>
<path fill-rule="evenodd" clip-rule="evenodd" d="M27.147 13.5735C22.5338 13.5735 18.7941 17.3133 18.7941 21.9265C18.7941 26.5397 22.5338 30.2794 27.147 30.2794C31.7602 30.2794 35.5 26.5397 35.5 21.9265C35.5 17.3133 31.7602 13.5735 27.147 13.5735ZM15.6617 21.9265C15.6617 15.5833 20.8039 10.4412 27.147 10.4412C33.4902 10.4412 38.6323 15.5833 38.6323 21.9265C38.6323 28.2696 33.4902 33.4118 27.147 33.4118C20.8039 33.4118 15.6617 28.2696 15.6617 21.9265Z" fill="#D3D6D9"/>
<path fill-rule="evenodd" clip-rule="evenodd" d="M27.6691 30.2793C28.5341 30.2793 29.2353 30.9805 29.2353 31.8455V40.1984C29.2353 41.0634 28.5341 41.7646 27.6691 41.7646C26.8041 41.7646 26.1029 41.0634 26.1029 40.1984V31.8455C26.1029 30.9805 26.8041 30.2793 27.6691 30.2793Z" fill="#D3D6D9"/>
<path fill-rule="evenodd" clip-rule="evenodd" d="M31.5942 19.6808C31.9695 20.1186 31.9188 20.7778 31.4809 21.1531L26.6084 25.3295C26.2174 25.6647 25.6404 25.6647 25.2494 25.3295L22.8131 23.2413C22.3753 22.866 22.3246 22.2069 22.6999 21.769C23.0751 21.3312 23.7343 21.2805 24.1721 21.6558L25.9289 23.1616L30.1219 19.5675C30.5598 19.1923 31.2189 19.243 31.5942 19.6808Z" fill="#D3D6D9"/>
</svg>
