<svg width="32" height="32" viewBox="0 0 32 32" fill="none" xmlns="http://www.w3.org/2000/svg">
<path fill-rule="evenodd" clip-rule="evenodd" d="M18.6533 10.1174C18.8095 9.9612 19.0628 9.9612 19.219 10.1174L24.6824 15.5808C24.8386 15.737 24.8386 15.9903 24.6824 16.1465C24.5262 16.3027 24.2729 16.3027 24.1167 16.1465L18.6533 10.6831C18.4971 10.5269 18.4971 10.2736 18.6533 10.1174Z" fill="#333333"/>
<path fill-rule="evenodd" clip-rule="evenodd" d="M18.6533 21.6094C18.4971 21.4532 18.4971 21.1999 18.6533 21.0437L24.1167 15.5803C24.2729 15.4241 24.5262 15.4241 24.6824 15.5803C24.8386 15.7365 24.8386 15.9898 24.6824 16.146L19.219 21.6094C19.0628 21.7656 18.8095 21.7656 18.6533 21.6094Z" fill="#333333"/>
<path fill-rule="evenodd" clip-rule="evenodd" d="M6.8291 15.8637C6.8291 15.6428 7.00819 15.4637 7.2291 15.4637L24.3998 15.4637C24.6207 15.4637 24.7998 15.6428 24.7998 15.8637C24.7998 16.0846 24.6207 16.2637 24.3998 16.2637L7.2291 16.2637C7.00819 16.2637 6.8291 16.0846 6.8291 15.8637Z" fill="#333333"/>
<path fill-rule="evenodd" clip-rule="evenodd" d="M3.20039 15.5996C3.20039 22.8898 9.11023 28.7996 16.4004 28.7996C23.6905 28.7996 29.6004 22.8898 29.6004 15.5996C29.6004 8.30945 23.6905 2.39961 16.4004 2.39961C9.11023 2.39961 3.20039 8.30945 3.20039 15.5996ZM2.40039 15.5996C2.40039 23.3316 8.6684 29.5996 16.4004 29.5996C24.1324 29.5996 30.4004 23.3316 30.4004 15.5996C30.4004 7.86762 24.1324 1.59961 16.4004 1.59961C8.6684 1.59961 2.40039 7.86762 2.40039 15.5996Z" fill="#333333"/>
</svg>
