<svg width="24" height="24" viewBox="0 0 24 24" fill="none" xmlns="http://www.w3.org/2000/svg">
<path fill-rule="evenodd" clip-rule="evenodd" d="M11.657 1.7998C11.8464 1.7998 11.9999 1.96381 11.9999 2.16611L11.9999 17.0758L16.2018 12.8738C16.3387 12.737 16.5605 12.737 16.6973 12.8738C16.8341 13.0107 16.8341 13.2325 16.6973 13.3693L11.9122 18.1543C11.8429 18.2237 11.7517 18.2579 11.6608 18.2569L11.657 18.2569L11.6532 18.2569C11.5623 18.2579 11.4712 18.2237 11.4018 18.1543L6.61679 13.3693C6.47998 13.2325 6.47998 13.0107 6.61679 12.8738C6.75361 12.737 6.97543 12.737 7.11224 12.8738L11.3142 17.0758L11.3142 2.16611C11.3142 1.96381 11.4677 1.7998 11.657 1.7998ZM21.5999 17.9206C21.5999 17.7276 21.4339 17.5712 21.2291 17.5712C21.0243 17.5712 20.8583 17.7276 20.8583 17.9206V20.9869H3.14153V17.9206H2.3999V21.6855H21.5999V17.9206Z" fill="white"/>
</svg>
