<svg width="24" height="24" viewBox="0 0 24 24" fill="none" xmlns="http://www.w3.org/2000/svg">
<path fill-rule="evenodd" clip-rule="evenodd" d="M10.2827 16.6907H13.7231C14.0622 15.7608 14.6019 14.9118 15.3078 14.2045C16.4208 13.0491 16.856 11.7362 16.6113 10.1775C16.4252 9.06771 15.8368 8.06302 14.9562 7.35156C14.0743 6.63896 12.9599 6.26954 11.8223 6.31265C10.8687 6.34879 9.95372 6.67271 9.19715 7.23437C9.79443 7.23873 10.1768 7.61557 10.3005 7.75009C10.4036 7.85822 10.5029 7.95442 10.6194 8.0674C10.6796 8.12572 10.7444 8.18851 10.8167 8.25972C10.9331 8.36331 11.0323 8.4848 11.1104 8.6198C11.2152 8.80079 11.2796 9.00187 11.2993 9.2095C11.319 9.41715 11.2936 9.62658 11.2248 9.82372C11.1777 9.95851 11.1111 10.0854 11.0273 10.2006C10.8433 10.4987 10.7871 10.7371 10.787 10.9284C10.7869 11.1198 10.8428 11.356 11.0267 11.6503C11.1138 11.7701 11.1824 11.9025 11.2299 12.0432C11.2961 12.2392 11.3199 12.4468 11.2996 12.6525C11.2793 12.8582 11.2155 13.0573 11.1123 13.2369C11.0288 13.3822 10.9211 13.5121 10.7939 13.6212C10.622 13.7817 10.4589 13.946 10.2887 14.124C10.1759 14.2507 9.7985 14.6388 9.17638 14.6388C9.14887 14.6388 9.12186 14.6381 9.09532 14.6366C9.60637 15.2496 10.0079 15.9444 10.2827 16.6907ZM9.05027 13.2447C9.14091 13.3579 9.20987 13.3579 9.3084 13.2447C9.50544 13.038 9.70249 12.839 9.91726 12.6401C9.93578 12.6266 9.95121 12.6094 9.96257 12.5897C9.97393 12.5699 9.98095 12.548 9.98319 12.5253C9.98363 12.5208 9.98388 12.5163 9.98394 12.5117C9.98399 12.5085 9.98393 12.5052 9.98377 12.502C9.98307 12.4871 9.9803 12.4724 9.97552 12.4583C9.96824 12.4367 9.95644 12.4169 9.94091 12.4002C9.89756 12.3337 9.85717 12.2672 9.81975 12.2007C9.6504 11.8994 9.54165 11.5967 9.49331 11.2934C9.49146 11.2817 9.48969 11.27 9.488 11.2584C9.47638 11.1776 9.46903 11.0968 9.46596 11.016C9.46566 11.0081 9.4654 11.0001 9.46518 10.9921C9.45314 10.5552 9.56604 10.1177 9.80337 9.68195C9.84533 9.60492 9.89117 9.52794 9.94091 9.45103C9.95597 9.43532 9.96747 9.41661 9.97464 9.39615C9.97463 9.3962 9.97466 9.3961 9.97464 9.39615C9.97637 9.39119 9.97789 9.38601 9.9791 9.38092C9.98287 9.36495 9.98401 9.34845 9.98245 9.33206C9.9804 9.31044 9.9737 9.28951 9.96279 9.27067C9.95189 9.25183 9.93704 9.23551 9.91923 9.22283C9.85355 9.15781 9.78656 9.0928 9.71956 9.02778C9.58557 8.89775 9.45158 8.76771 9.3281 8.63768C9.21419 8.51126 9.13958 8.52251 9.05397 8.61769C9.04184 8.63117 9.02949 8.64634 9.01677 8.66304C8.98152 8.70818 8.94736 8.75401 8.91432 8.80051C8.87025 8.86253 8.82816 8.92572 8.78808 8.99C8.74692 9.05601 8.70788 9.12317 8.671 9.19136C8.66205 9.2079 8.65323 9.22451 8.64454 9.24117C8.63381 9.26173 8.62328 9.28238 8.61295 9.30312C8.56046 9.40843 8.51301 9.516 8.47072 9.62548C8.46899 9.62996 8.46726 9.63445 8.46555 9.63894C8.30063 10.0708 8.21582 10.5318 8.21874 10.9997C8.21655 11.1639 8.23107 11.328 8.26209 11.4893C8.30316 11.7421 8.37008 11.9891 8.46124 12.2266C8.46357 12.2327 8.46591 12.2387 8.46828 12.2448C8.5181 12.3726 8.57496 12.4976 8.6386 12.6192C8.65061 12.6422 8.66286 12.665 8.67535 12.6878C8.68122 12.6984 8.68714 12.7091 8.69311 12.7197C8.71898 12.7656 8.74583 12.8111 8.77366 12.856C8.8166 12.9253 8.86185 12.9933 8.90936 13.0598C8.94924 13.1156 8.99071 13.1705 9.03375 13.2242C9.03923 13.2311 9.04474 13.2379 9.05027 13.2447ZM10.0866 12.4311L10.0812 12.4245C10.0833 12.427 10.0851 12.4293 10.0866 12.4311ZM17.9173 9.96986C18.2306 11.9535 17.6493 13.6758 16.2562 15.1172C15.5423 15.8298 15.0377 16.7211 14.7961 17.6957C14.7311 17.9668 14.6857 17.998 14.402 18H9.59017C9.33007 18 9.27687 17.9629 9.21776 17.7152C8.9672 16.7161 8.44682 15.8032 7.71234 15.0743C7.10174 14.4699 6.63398 13.7391 6.34269 12.9344C6.05139 12.1297 5.94379 11.2712 6.02761 10.4204C6.15433 8.98002 6.80784 7.63493 7.86547 6.63769C8.9231 5.64045 10.3121 5.05966 11.7717 5.00435C13.2313 4.94904 14.6611 5.42301 15.7926 6.33729C16.9242 7.25156 17.6797 8.54326 17.9173 9.96986ZM9.57369 16.6906C9.57028 16.6905 9.56872 16.6904 9.56881 16.6904L9.57369 16.6906Z" fill="white"/>
<path fill-rule="evenodd" clip-rule="evenodd" d="M10.017 20.262C9.98727 20.8321 9.99656 21.4035 10.0448 21.9725C10.1309 22.5012 10.4028 22.9877 10.817 23.3545C11.2312 23.7213 11.7641 23.9474 12.3308 23.9969C12.9342 24.0259 13.5286 23.8501 14.0055 23.5015C14.4824 23.1529 14.8101 22.6548 14.9286 22.0981C15.0171 21.6425 15.0037 21.1813 14.9903 20.7206C14.9854 20.5536 14.9805 20.3867 14.9805 20.2201C14.9805 20.065 14.8711 20.0004 14.7022 20.0004H12.5201C12.3364 20.0004 12.1528 20.0003 11.9692 20.0002C11.4186 19.9999 10.8682 19.9996 10.3157 20.0022C10.1079 20.0039 10.017 20.0702 10.017 20.262ZM11.2484 21.1705C11.2534 21.3909 11.2647 21.6112 11.2824 21.8312C11.3325 22.0879 11.4686 22.3233 11.6712 22.5027C11.8769 22.6849 12.1398 22.7992 12.4202 22.829C12.7163 22.8376 13.0066 22.7489 13.2408 22.5777C13.4793 22.4033 13.6439 22.1551 13.7053 21.8773C13.7502 21.6411 13.758 21.4243 13.7543 21.1709H12.5201C12.3346 21.1709 12.1499 21.1708 11.9657 21.1706C11.726 21.1705 11.4871 21.1704 11.2484 21.1705Z" fill="white"/>
<path fill-rule="evenodd" clip-rule="evenodd" d="M2 11.5C2 11.2239 2.22639 11 2.50565 11H4.49435C4.77361 11 5 11.2239 5 11.5C5 11.7761 4.77361 12 4.49435 12H2.50565C2.22639 12 2 11.7761 2 11.5Z" fill="white"/>
<path fill-rule="evenodd" clip-rule="evenodd" d="M4.18376 4.12251C4.42877 3.95916 4.82602 3.95916 5.07103 4.12251L6.81624 5.28598C7.06125 5.44932 7.06125 5.71415 6.81624 5.87749C6.57123 6.04084 6.17398 6.04084 5.92897 5.87749L4.18376 4.71402C3.93875 4.55068 3.93875 4.28585 4.18376 4.12251Z" fill="white"/>
<path fill-rule="evenodd" clip-rule="evenodd" d="M20.8162 4.12251C21.0613 4.28585 21.0613 4.55068 20.8162 4.71402L19.071 5.87749C18.826 6.04084 18.4288 6.04084 18.1838 5.87749C17.9387 5.71415 17.9387 5.44932 18.1838 5.28598L19.929 4.12251C20.174 3.95916 20.5712 3.95916 20.8162 4.12251Z" fill="white"/>
<path fill-rule="evenodd" clip-rule="evenodd" d="M6.81624 16.1838C7.06125 16.4288 7.06125 16.826 6.81624 17.071L5.07103 18.8162C4.82602 19.0613 4.42877 19.0613 4.18376 18.8162C3.93875 18.5712 3.93875 18.174 4.18376 17.929L5.92897 16.1838C6.17398 15.9387 6.57123 15.9387 6.81624 16.1838Z" fill="white"/>
<path fill-rule="evenodd" clip-rule="evenodd" d="M18.1838 16.1838C18.4288 15.9387 18.826 15.9387 19.071 16.1838L20.8162 17.929C21.0613 18.174 21.0613 18.5712 20.8162 18.8162C20.5712 19.0613 20.174 19.0613 19.929 18.8162L18.1838 17.071C17.9387 16.826 17.9387 16.4288 18.1838 16.1838Z" fill="white"/>
<path fill-rule="evenodd" clip-rule="evenodd" d="M20 11.5C20 11.2239 20.2264 11 20.5056 11H22.4944C22.7736 11 23 11.2239 23 11.5C23 11.7761 22.7736 12 22.4944 12H20.5056C20.2264 12 20 11.7761 20 11.5Z" fill="white"/>
<path fill-rule="evenodd" clip-rule="evenodd" d="M12.5 1C12.7761 1 13 1.22639 13 1.50565V3.49435C13 3.77361 12.7761 4 12.5 4C12.2239 4 12 3.77361 12 3.49435V1.50565C12 1.22639 12.2239 1 12.5 1Z" fill="white"/>
</svg>
