<svg width="69" height="70" viewBox="0 0 69 70" fill="none" xmlns="http://www.w3.org/2000/svg">
<path fill-rule="evenodd" clip-rule="evenodd" d="M11.5356 8.18919C11.2998 8.43405 11.1166 8.86729 11.1166 9.63154V59.6565C11.1166 60.3511 11.29 60.7646 11.5198 61.0046C11.7439 61.2386 12.137 61.4275 12.8416 61.4275H56.0586C56.897 61.4275 57.2929 61.2571 57.4982 61.0532C57.7027 60.8501 57.8832 60.4495 57.8832 59.5799V24.5845L41.0821 7.76087H12.9106C12.1724 7.76087 11.7662 7.94976 11.5356 8.18919ZM10.4312 7.12556C11.0497 6.48332 11.9238 6.22754 12.9106 6.22754H41.3999C41.6034 6.22754 41.7986 6.30845 41.9424 6.45245L59.1924 23.7255C59.3359 23.8692 59.4166 24.064 59.4166 24.2672V59.5799C59.4166 60.6039 59.2138 61.5104 58.5788 62.1411C57.9446 62.771 57.0449 62.9609 56.0586 62.9609H12.8416C11.8671 62.9609 11.0144 62.6937 10.4124 62.0652C9.81615 61.4426 9.58325 60.5873 9.58325 59.6565V9.63154C9.58325 8.64778 9.81788 7.76237 10.4312 7.12556Z" fill="#828282"/>
<path fill-rule="evenodd" clip-rule="evenodd" d="M40.6333 24.2441V6.99414H42.1666V23.4775H58.65V25.0108H41.4C40.9765 25.0108 40.6333 24.6676 40.6333 24.2441Z" fill="#828282"/>
<path fill-rule="evenodd" clip-rule="evenodd" d="M19.9333 36.3184C19.9333 35.895 20.2766 35.5518 20.7 35.5518H48.3C48.7234 35.5518 49.0667 35.895 49.0667 36.3184C49.0667 36.7418 48.7234 37.0851 48.3 37.0851H20.7C20.2766 37.0851 19.9333 36.7418 19.9333 36.3184Z" fill="#828282"/>
<path fill-rule="evenodd" clip-rule="evenodd" d="M19.9333 43.2188C19.9333 42.7954 20.2766 42.4521 20.7 42.4521H48.3C48.7234 42.4521 49.0667 42.7954 49.0667 43.2188C49.0667 43.6422 48.7234 43.9855 48.3 43.9855H20.7C20.2766 43.9855 19.9333 43.6422 19.9333 43.2188Z" fill="#828282"/>
<path fill-rule="evenodd" clip-rule="evenodd" d="M19.9333 50.1192C19.9333 49.6958 20.2766 49.3525 20.7 49.3525H48.3C48.7234 49.3525 49.0667 49.6958 49.0667 50.1192C49.0667 50.5426 48.7234 50.8859 48.3 50.8859H20.7C20.2766 50.8859 19.9333 50.5426 19.9333 50.1192Z" fill="#828282"/>
</svg>
