<svg width="192" height="192" viewBox="0 0 192 192" fill="none" xmlns="http://www.w3.org/2000/svg">
<path d="M149.285 28.5713C154.305 28.5713 159.119 30.8289 162.668 34.8476C166.217 38.8662 168.211 44.3167 168.211 49.9999V164.286C168.211 169.969 166.217 175.419 162.668 179.438C159.119 183.456 154.305 185.714 149.285 185.714H73.5825C68.5631 185.714 63.7493 183.456 60.2 179.438C56.6507 175.419 54.6568 173.031 54.6568 168H68.0079C68.0079 168 67.9386 167.997 69.1217 169.336C70.3048 170.676 71.9094 171.428 73.5825 171.428H149.285C150.958 171.428 152.563 170.676 153.746 169.336C154.929 167.997 155.594 166.18 155.594 164.286V49.9999C155.594 48.1055 154.929 46.2886 153.746 44.9491C152.563 43.6096 150.958 42.857 149.285 42.857H139.992L140.008 28.5713H149.285Z" fill="#333333"/>
<path fill-rule="evenodd" clip-rule="evenodd" d="M6.46708 6.50874C10.6079 2.34126 16.224 0 22.08 0H112C116 0 122.43 2.50874 126.91 6.50874C131.39 10.5087 132.48 18.2222 132.48 22.2222C132.48 26.2222 132.48 49.8963 132.48 51.8609V140.741C132.48 146.634 130.154 152.287 126.013 156.454C121.872 160.622 116.256 162.963 110.4 162.963H22.08C16.224 162.963 10.6079 160.622 6.46708 156.454C2.32628 152.287 0 146.634 0 140.741V22.2222C0 16.3285 2.32628 10.6762 6.46708 6.50874ZM22.08 14.8148C20.128 14.8148 18.256 15.5952 16.8757 16.9844C15.4954 18.3736 14.72 20.2577 14.72 22.2222V140.741C14.72 142.705 15.4954 144.589 16.8757 145.979C18.256 147.368 20.128 148.148 22.08 148.148H110.4C112.352 148.148 114.224 147.368 115.604 145.979C116.985 144.589 117.76 142.705 117.76 140.741V22.2222C117.76 22.2222 117.76 16.9844 116 16C114.24 15.0156 110.126 14.8148 110.126 14.8148H22.08Z" fill="#333333"/>
<path d="M59.5 73.5L43.5 59L59.5 44.5" stroke="white" stroke-width="11" stroke-linecap="round"/>
<path d="M81.5 93.5L95.5 108L81.5 122.5" stroke="white" stroke-width="11" stroke-linecap="round"/>
<path d="M95.5 59.5L101 59.5C101 58.0413 100.421 56.6424 99.3891 55.6109C98.3576 54.5795 96.9587 54 95.5 54L95.5 59.5ZM44.5 54C41.4624 54 39 56.4624 39 59.5C39 62.5376 41.4624 65 44.5 65L44.5 54ZM90 77.5C90 80.5376 92.4624 83 95.5 83C98.5376 83 101 80.5376 101 77.5L90 77.5ZM95.5 54L44.5 54L44.5 65L95.5 65L95.5 54ZM90 59.5L90 77.5L101 77.5L101 59.5L90 59.5Z" fill="#333333"/>
<path d="M40.5 108.5L35 108.5C35 109.959 35.5795 111.358 36.6109 112.389C37.6424 113.421 39.0413 114 40.5 114L40.5 108.5ZM93.5 114C96.5376 114 99 111.538 99 108.5C99 105.462 96.5376 103 93.5 103L93.5 114ZM46 87.5C46 84.4624 43.5376 82 40.5 82C37.4624 82 35 84.4624 35 87.5L46 87.5ZM40.5 114L93.5 114L93.5 103L40.5 103L40.5 114ZM46 108.5L46 87.5L35 87.5L35 108.5L46 108.5Z" fill="#333333"/>
</svg>
