<?xml version="1.0" standalone="no"?>
<!DOCTYPE svg PUBLIC "-//W3C//DTD SVG 1.1//EN" "http://www.w3.org/Graphics/SVG/1.1/DTD/svg11.dtd">

<svg width="28" height="30" viewBox="0 0 28 30" fill="none" xmlns="http://www.w3.org/2000/svg">
<g clip-path="url(#clip0)">
<path d="M7.00487 28.9465C1.41385 25.4342 -1.22525 20.5922 0.545909 14.3389C2.51641 7.37774 7.77467 4.57034 14.936 4.94164C15.5494 2.29875 17.2362 0.727511 19.8032 0H22.4101C22.6708 0.0950896 22.9284 0.194707 23.1906 0.286778C26.1978 1.34333 28.2955 4.90843 26.7575 8.12186C26.2254 9.23425 25.684 10.3436 25.0707 11.4123C24.7548 11.9632 24.7256 12.4069 24.9173 13.0212C25.3022 14.2287 25.7193 15.4875 25.7745 16.7403C26.0045 21.8072 23.8853 25.73 19.5318 28.468C19.3524 28.5797 19.1821 28.7065 18.831 28.9465C18.834 28.9465 13.3749 31.3177 7.00487 28.9465ZM21.0698 15.3955C22.8073 12.5971 24.6075 10.0644 25.7208 7.15587C25.8549 6.77859 25.9213 6.38125 25.9171 5.98159C25.9463 3.06551 23.2198 0.795432 20.2816 1.26937C17.5291 1.71161 15.5279 4.52958 16.359 6.96418C17.4003 9.98289 19.3232 12.5443 21.0698 15.3955ZM9.20233 10.7647C7.40051 10.7647 5.7183 10.7542 4.03761 10.7768C3.9281 10.7857 3.82149 10.8161 3.72406 10.8661C3.62663 10.9161 3.54033 10.9848 3.47023 11.0681C2.35885 12.5797 1.65982 14.3466 1.43992 16.1999C1.36938 16.7267 1.60707 16.9169 2.13151 16.9139C4.07391 16.8988 6.01374 16.8988 7.95102 16.9139C8.49541 16.9139 8.72849 16.7403 8.72542 16.1713C8.72542 15.4166 8.79136 14.6619 8.86037 13.9208C8.96005 12.9035 9.08426 11.8892 9.20233 10.7647ZM9.1502 24.4033C9.16966 24.2693 9.1799 24.1342 9.18087 23.9988C9.02752 22.254 8.8573 20.5107 8.71162 18.7643C8.66715 18.2376 8.29759 18.2708 7.94489 18.2693C6.03266 18.2693 4.11889 18.2889 2.20512 18.2572C1.51659 18.2451 1.36018 18.5591 1.45372 19.1311C1.73588 20.8623 2.3186 22.4834 3.34602 23.9248C3.49937 24.1407 3.80606 24.3776 4.05295 24.3776C5.73056 24.4229 7.41124 24.4033 9.1548 24.4033H9.1502ZM20.8567 18.2632C19.8875 18.2632 18.9184 18.2768 17.9508 18.2632C17.4463 18.2527 17.2392 18.4247 17.1932 18.947C17.0491 20.5907 16.8559 22.2313 16.6611 23.8705C16.612 24.2901 16.7976 24.4078 17.1733 24.4063C18.7068 24.4063 20.2402 24.4199 21.7599 24.3882C21.892 24.3773 22.0204 24.3401 22.1375 24.2789C22.2545 24.2177 22.3577 24.1337 22.4408 24.032C23.5394 22.5151 24.2179 20.7429 24.4097 18.8896C24.4588 18.4096 24.2993 18.2572 23.8377 18.2647C22.841 18.2798 21.8473 18.2632 20.8567 18.2632ZM12.967 16.9048C13.7337 16.9048 14.5005 16.8958 15.2672 16.9048C15.6904 16.9048 15.8806 16.7448 15.8392 16.3192C15.6613 14.6528 15.4896 12.9805 15.3362 11.3202C15.2963 10.9051 15.0908 10.7617 14.686 10.7663C13.5114 10.7798 12.3367 10.7466 11.159 10.7949C10.9428 10.804 10.5779 11.0968 10.5457 11.2825C10.3356 12.9427 10.1868 14.6212 10.0212 16.292C9.9752 16.7539 10.219 16.9199 10.6591 16.9139C11.432 16.9048 12.1972 16.9048 12.9639 16.9048H12.967ZM12.9409 18.2632C12.2263 18.2632 11.5117 18.2813 10.7941 18.2632C10.2589 18.2466 9.96293 18.4051 10.0273 18.9892C10.196 20.6088 10.334 22.2328 10.5426 23.8479C10.5702 24.0577 10.9551 24.3701 11.1866 24.3807C12.3582 24.435 13.5359 24.435 14.7136 24.3807C14.9298 24.3701 15.2856 24.0441 15.3132 23.8313C15.5248 22.1921 15.669 20.5439 15.8422 18.9002C15.8898 18.4474 15.718 18.2527 15.2457 18.2647C14.4713 18.2829 13.7046 18.2632 12.9379 18.2632H12.9409ZM16.6979 10.8674C16.8804 12.7978 17.043 14.5864 17.2285 16.372C17.2454 16.5411 17.3987 16.8248 17.4984 16.8369C18.4185 16.8731 19.3386 16.858 20.4212 16.858L16.6979 10.8674ZM10.676 6.4359C8.47271 6.85197 6.44702 7.90936 4.86109 9.47122C6.42676 9.47122 7.77467 9.49084 9.13026 9.4516C9.32808 9.4516 9.61024 9.19803 9.69764 8.99879C10.0442 8.19129 10.3294 7.36114 10.676 6.4359ZM4.98376 25.7074C6.10013 27.1458 9.37562 28.7714 10.5993 28.5571C10.2926 27.7405 10.0013 26.9164 9.67924 26.1043C9.61484 25.9534 9.42622 25.727 9.29281 25.724C7.87742 25.6968 6.46509 25.7074 4.98376 25.7074ZM15.2105 28.7261C17.434 28.2733 19.2619 27.3315 20.7984 25.7919C19.3861 25.7044 17.9983 25.6938 16.612 25.7195C16.5192 25.741 16.4327 25.7837 16.3595 25.8439C16.2863 25.9042 16.2284 25.9804 16.1903 26.0666C15.8591 26.8983 15.5662 27.7465 15.2105 28.7261ZM14.7228 9.42443L14.9574 9.22067C14.4974 8.34977 14.0604 7.46076 13.5543 6.61401C13.3565 6.28497 12.9624 6.03743 12.576 6.37402C11.6559 7.16945 11.2725 8.22298 11.0563 9.42443H14.7228ZM15.0494 25.7572H11.0195C11.2679 26.8273 11.6114 27.7571 12.2831 28.5374C12.7554 29.0853 13.2032 29.1125 13.5911 28.5088C14.1094 27.7012 14.502 26.8077 15.0479 25.7572H15.0494ZM23.9344 13.8182L23.6629 13.7684L21.6802 16.9048C22.6002 16.9048 23.2918 16.9365 23.9712 16.8807C24.1322 16.8671 24.4128 16.5395 24.3929 16.3886C24.2809 15.5253 24.0954 14.674 23.9328 13.8182H23.9344Z" fill="#0B3C61"/>
<path d="M24.761 5.62077C24.7578 6.58445 24.3658 7.50741 23.6714 8.18671C22.9769 8.86601 22.0368 9.24603 21.0577 9.24323C19.0473 9.22964 17.3452 7.53614 17.3774 5.577C17.4096 3.61785 19.1148 1.9319 21.1114 1.94095C23.108 1.95001 24.7672 3.62238 24.761 5.62077ZM23.4499 5.64492C23.4591 5.02212 23.2192 4.42072 22.782 3.97038C22.3449 3.52004 21.7454 3.25683 21.1129 3.23749C19.8601 3.20881 18.7698 4.2548 18.7391 5.51511C18.7069 6.84788 19.6991 7.90895 21.0178 7.95273C21.6493 7.95733 22.2574 7.71835 22.712 7.28699C23.1666 6.85562 23.4315 6.26617 23.4499 5.64492Z" fill="#0B3C61"/>
</g>
<defs>
<clipPath id="clip0">
<rect width="27.2727" height="30" fill="white"/>
</clipPath>
</defs>
</svg>
