<svg width="90" height="63" viewBox="0 0 90 63" fill="none" xmlns="http://www.w3.org/2000/svg">
<path fill-rule="evenodd" clip-rule="evenodd" d="M1.55773 0C0.69742 0 0 0.697422 0 1.55773V61.5303C0 62.3906 0.697426 63.0881 1.55774 63.0881H88.154C89.0144 63.0881 89.7118 62.3906 89.7118 61.5303V1.55773C89.7118 0.697419 89.0143 0 88.154 0H1.55773ZM4.7888 4.92875C4.35865 4.92875 4.00994 5.27747 4.00994 5.70762V57.5321C4.00994 57.9623 4.35864 58.311 4.7888 58.311H84.922C85.3522 58.311 85.7009 57.9623 85.7009 57.5321V5.70762C85.7009 5.27746 85.3522 4.92875 84.922 4.92875H4.7888Z" fill="#007584"/>
<path fill-rule="evenodd" clip-rule="evenodd" d="M81.2853 10.9023L82.1703 10.9033L81.727 11.6692L81.8948 11.9607C81.7696 12.0328 81.6328 12.0662 81.498 12.0647L77.6651 18.6871L75.6413 15.1731C75.6213 15.4197 75.4843 15.6526 75.2536 15.7855L73.9254 16.5504C73.5939 16.7413 73.1807 16.6611 72.9422 16.3789C73.0667 16.7268 72.9286 17.1245 72.5971 17.3154L71.2689 18.0803C70.9374 18.2712 70.5242 18.191 70.2857 17.9089C70.4102 18.2567 70.2721 18.6544 69.9407 18.8453L68.6124 19.6102C68.281 19.8011 67.8677 19.721 67.6293 19.4388C67.7537 19.7866 67.6156 20.1843 67.2842 20.3752L65.9559 21.1402C65.6245 21.331 65.2112 21.2509 64.9728 20.9687C65.0972 21.3165 64.9591 21.7142 64.6277 21.9051L63.2994 22.6701C62.968 22.861 62.5547 22.7808 62.3163 22.4986C62.4407 22.8464 62.3027 23.2441 61.9712 23.435L60.643 24.2C60.3115 24.3909 59.8982 24.3107 59.6598 24.0285C59.7842 24.3764 59.6462 24.774 59.3147 24.9649L57.9865 25.7299C57.655 25.9208 57.2418 25.8406 57.0033 25.5584C57.1277 25.9063 56.9897 26.304 56.6582 26.4949L55.33 27.2598C54.9985 27.4507 54.5853 27.3705 54.3468 27.0883C54.4712 27.4362 54.3332 27.8339 54.0017 28.0248L52.6735 28.7897C52.342 28.9806 51.9288 28.9004 51.6903 28.6182C51.8148 28.9661 51.6767 29.3638 51.3453 29.5547L50.017 30.3196C49.6855 30.5105 49.2723 30.4304 49.0339 30.1482C49.1583 30.496 49.0202 30.8937 48.6888 31.0846L47.3605 31.8496C47.0291 32.0404 46.6158 31.9603 46.3774 31.6781C46.5018 32.0259 46.3637 32.4236 46.0323 32.6145L44.704 33.3795C44.3726 33.5704 43.9593 33.4902 43.7209 33.208C43.8453 33.5558 43.7073 33.9535 43.3758 34.1444L42.0475 34.9094C41.7161 35.1003 41.3028 35.0201 41.0644 34.7379C41.1888 35.0858 41.0508 35.4834 40.7193 35.6743L39.3911 36.4393C39.0596 36.6302 38.6463 36.55 38.4079 36.2678C38.5323 36.6157 38.3943 37.0134 38.0628 37.2043L36.7346 37.9692C36.4031 38.1601 35.9899 38.0799 35.7514 37.7977C35.8758 38.1456 35.7378 38.5433 35.4063 38.7342L34.0781 39.4991C33.7466 39.69 33.3334 39.6098 33.0949 39.3276C33.2193 39.6755 33.0813 40.0732 32.7498 40.2641L31.4216 41.029C31.0901 41.2199 30.6769 41.1398 30.4384 40.8576C30.5629 41.2054 30.4248 41.6031 30.0934 41.794L28.7651 42.559C28.4337 42.7498 28.0204 42.6697 27.782 42.3875C27.9064 42.7353 27.7683 43.133 27.4369 43.3239L26.1086 44.0889C25.7772 44.2798 25.3639 44.1996 25.1255 43.9174C25.2499 44.2653 25.1118 44.6629 24.7804 44.8538L23.4522 45.6188C23.1207 45.8097 22.7074 45.7295 22.469 45.4473C22.5934 45.7952 22.4554 46.1928 22.1239 46.3837L20.7957 47.1487C20.4642 47.3396 20.051 47.2594 19.8125 46.9772C19.9369 47.3251 19.7989 47.7227 19.4674 47.9136L18.1392 48.6786C17.8077 48.8695 17.3945 48.7893 17.156 48.5071C17.2805 48.855 17.1424 49.2527 16.8109 49.4435L15.4827 50.2085C15.2521 50.3413 14.9818 50.3429 14.7585 50.2365L16.7822 53.7505L9.1306 53.7423C9.06431 53.8596 8.96671 53.9612 8.84151 54.0333L8.67363 53.7418L7.78866 53.7408L8.23197 52.9749L8.06409 52.6834C8.1893 52.6113 8.32617 52.5779 8.46089 52.5794L12.2938 45.957L14.3176 49.471C14.3377 49.2244 14.4747 48.9915 14.7053 48.8586L16.0335 48.0937C16.365 47.9028 16.7783 47.983 17.0167 48.2652C16.8923 47.9173 17.0303 47.5196 17.3618 47.3287L18.69 46.5638C19.0215 46.3729 19.4347 46.4531 19.6732 46.7352C19.5488 46.3874 19.6868 45.9897 20.0183 45.7988L21.3465 45.0339C21.678 44.843 22.0912 44.9231 22.3296 45.2053C22.2052 44.8575 22.3433 44.4598 22.6747 44.2689L24.003 43.5039C24.3344 43.3131 24.7477 43.3932 24.9861 43.6754C24.8617 43.3276 24.9998 42.9299 25.3312 42.739L26.6595 41.974C26.9909 41.7831 27.4042 41.8633 27.6426 42.1455C27.5182 41.7977 27.6562 41.4 27.9877 41.2091L29.3159 40.4441C29.6474 40.2532 30.0607 40.3334 30.2991 40.6156C30.1747 40.2677 30.3127 39.8701 30.6442 39.6792L31.9724 38.9142C32.3039 38.7233 32.7171 38.8035 32.9556 39.0857C32.8312 38.7378 32.9692 38.3401 33.3007 38.1493L34.6289 37.3843C34.9604 37.1934 35.3736 37.2736 35.6121 37.5558C35.4877 37.2079 35.6257 36.8102 35.9572 36.6193L37.2854 35.8544C37.6169 35.6635 38.0301 35.7437 38.2686 36.0259C38.1441 35.678 38.2822 35.2803 38.6137 35.0894L39.9419 34.3245C40.2734 34.1336 40.6866 34.2138 40.925 34.4959C40.8006 34.1481 40.9387 33.7504 41.2701 33.5595L42.5984 32.7946C42.9298 32.6037 43.3431 32.6838 43.5815 32.966C43.4571 32.6182 43.5952 32.2205 43.9266 32.0296L45.2549 31.2646C45.5863 31.0737 45.9996 31.1539 46.238 31.4361C46.1136 31.0883 46.2517 30.6906 46.5831 30.4997L47.9114 29.7347C48.2428 29.5438 48.6561 29.624 48.8945 29.9062C48.7701 29.5583 48.9081 29.1607 49.2396 28.9698L50.5678 28.2048C50.8993 28.0139 51.3126 28.0941 51.551 28.3763C51.4266 28.0284 51.5646 27.6307 51.8961 27.4399L53.2243 26.6749C53.5558 26.484 53.969 26.5642 54.2075 26.8464C54.0831 26.4985 54.2211 26.1008 54.5526 25.9099L55.8808 25.145C56.2123 24.9541 56.6255 25.0343 56.864 25.3165C56.7395 24.9686 56.8776 24.5709 57.2091 24.38L58.5373 23.6151C58.8688 23.4242 59.282 23.5044 59.5205 23.7865C59.396 23.4387 59.5341 23.041 59.8655 22.8501L61.1938 22.0852C61.5252 21.8943 61.9385 21.9744 62.1769 22.2566C62.0525 21.9088 62.1906 21.5111 62.522 21.3202L63.8503 20.5552C64.1817 20.3643 64.595 20.4445 64.8334 20.7267C64.709 20.3789 64.8471 19.9812 65.1785 19.7903L66.5068 19.0253C66.8382 18.8344 67.2515 18.9146 67.4899 19.1968C67.3655 18.8489 67.5035 18.4513 67.835 18.2604L69.1632 17.4954C69.4947 17.3045 69.908 17.3847 70.1464 17.6669C70.022 17.319 70.16 16.9213 70.4915 16.7305L71.8197 15.9655C72.1512 15.7746 72.5644 15.8548 72.8029 16.137C72.6785 15.7891 72.8165 15.3914 73.148 15.2005L74.4762 14.4356C74.7068 14.3028 74.9771 14.3012 75.2005 14.4076L73.1767 10.8936L80.8283 10.9018C80.8946 10.7845 80.9922 10.6829 81.1174 10.6108L81.2853 10.9023Z" fill="#82B337"/>
<path opacity="0.2" fill-rule="evenodd" clip-rule="evenodd" d="M16.014 9.4022C16.7744 10.1626 16.7744 11.3955 16.014 12.1559L11.6852 16.4847C10.9248 17.2451 9.69192 17.2451 8.93151 16.4847C8.1711 15.7243 8.1711 14.4914 8.93151 13.731L13.2603 9.4022C14.0207 8.64179 15.2536 8.64179 16.014 9.4022Z" fill="#007584"/>
<path opacity="0.2" fill-rule="evenodd" clip-rule="evenodd" d="M23.5684 9.4022C24.3288 10.1626 24.3288 11.3955 23.5684 12.1559L11.6849 24.0394C10.9245 24.7998 9.69163 24.7998 8.93122 24.0394C8.1708 23.279 8.1708 22.0461 8.93122 21.2857L20.8147 9.4022C21.5751 8.64179 22.808 8.64179 23.5684 9.4022Z" fill="#007584"/>
</svg>
