<svg width="90" height="63" viewBox="0 0 90 63" fill="none" xmlns="http://www.w3.org/2000/svg">
<path fill-rule="evenodd" clip-rule="evenodd" d="M79.7817 36.1578L80.5605 36.6075L79.7817 37.0571V37.3863C79.6398 37.3863 79.5067 37.3484 79.3921 37.2821L72.7719 41.1042V36.6083C72.7719 36.6083 72.7719 36.6082 72.7719 36.6081C72.7716 37.038 72.423 37.3863 71.993 37.3863H70.4353C70.0054 37.3863 69.6569 37.0381 69.6564 36.6083C69.656 37.0381 69.3074 37.3863 68.8776 37.3863H67.3198C66.8897 37.3863 66.541 37.0376 66.541 36.6075C66.541 36.1773 66.8897 35.8286 67.3198 35.8286H68.8776C69.3077 35.8286 69.6564 36.1773 69.6564 36.6075C69.6564 36.1773 70.0051 35.8286 70.4353 35.8286H71.993C72.4232 35.8286 72.7719 36.1773 72.7719 36.6075C72.7719 36.6072 72.7719 36.6069 72.7719 36.6066V32.1107L79.3921 35.9329C79.5067 35.8666 79.6398 35.8286 79.7817 35.8286V36.1578ZM60.3101 36.6075C60.3101 36.1773 60.6588 35.8286 61.0889 35.8286H62.6467C63.0764 35.8286 63.4249 36.1766 63.4255 36.6062C63.4262 36.1766 63.7746 35.8286 64.2044 35.8286H65.7621C66.1923 35.8286 66.541 36.1773 66.541 36.6075C66.541 37.0376 66.1923 37.3863 65.7621 37.3863H64.2044C63.7746 37.3863 63.4262 37.0383 63.4255 36.6087C63.4249 37.0383 63.0764 37.3863 62.6467 37.3863H61.0889C60.6588 37.3863 60.3101 37.0376 60.3101 36.6075ZM57.1946 36.6075C57.1946 36.1773 57.5433 35.8286 57.9735 35.8286H59.5312C59.9613 35.8286 60.3101 36.1773 60.3101 36.6075C60.3101 37.0376 59.9613 37.3863 59.5312 37.3863H57.9735C57.5433 37.3863 57.1946 37.0376 57.1946 36.6075ZM54.0791 36.6075C54.0791 36.1773 54.4279 35.8286 54.858 35.8286H56.4157C56.8459 35.8286 57.1946 36.1773 57.1946 36.6075C57.1946 37.0376 56.8459 37.3863 56.4157 37.3863H54.858C54.4279 37.3863 54.0791 37.0376 54.0791 36.6075ZM50.9637 36.6075C50.9637 36.1773 51.3124 35.8286 51.7425 35.8286H53.3003C53.7304 35.8286 54.0791 36.1773 54.0791 36.6075C54.0791 37.0376 53.7304 37.3863 53.3003 37.3863H51.7425C51.3124 37.3863 50.9637 37.0376 50.9637 36.6075ZM47.8482 36.6075C47.8482 36.1773 48.1969 35.8286 48.6271 35.8286H50.1848C50.615 35.8286 50.9637 36.1773 50.9637 36.6075C50.9637 37.0376 50.615 37.3863 50.1848 37.3863L48.6271 37.3863C48.1969 37.3863 47.8482 37.0376 47.8482 36.6075ZM44.7328 36.6075C44.7328 36.1773 45.0815 35.8286 45.5116 35.8286H47.0694C47.4995 35.8286 47.8482 36.1773 47.8482 36.6075C47.8482 37.0376 47.4995 37.3863 47.0694 37.3863H45.5116C45.0815 37.3863 44.7328 37.0376 44.7328 36.6075ZM41.6173 36.6075C41.6173 36.1773 41.966 35.8286 42.3962 35.8286H43.9539C44.384 35.8286 44.7328 36.1773 44.7328 36.6075C44.7328 37.0376 44.384 37.3863 43.9539 37.3863H42.3962C41.966 37.3863 41.6173 37.0376 41.6173 36.6075ZM38.5018 36.6075C38.5018 36.1773 38.8505 35.8286 39.2807 35.8286H40.8384C41.2686 35.8286 41.6173 36.1773 41.6173 36.6075C41.6173 37.0376 41.2686 37.3863 40.8384 37.3863H39.2807C38.8505 37.3863 38.5018 37.0376 38.5018 36.6075ZM35.3864 36.6075C35.3864 36.1773 35.7351 35.8286 36.1652 35.8286H37.723C38.1531 35.8286 38.5018 36.1773 38.5018 36.6075C38.5018 37.0376 38.1531 37.3863 37.723 37.3863H36.1652C35.7351 37.3863 35.3864 37.0376 35.3864 36.6075ZM32.2709 36.6075C32.2709 36.1773 32.6196 35.8286 33.0498 35.8286H34.6075C35.0377 35.8286 35.3864 36.1773 35.3864 36.6075C35.3864 37.0376 35.0377 37.3863 34.6075 37.3863H33.0498C32.6196 37.3863 32.2709 37.0376 32.2709 36.6075ZM29.1554 36.6075C29.1554 36.1773 29.5042 35.8286 29.9343 35.8286H31.492C31.9222 35.8286 32.2709 36.1773 32.2709 36.6075C32.2709 37.0376 31.9222 37.3863 31.492 37.3863H29.9343C29.5042 37.3863 29.1554 37.0376 29.1554 36.6075ZM29.1554 36.6075C29.1554 36.1773 28.8067 35.8286 28.3766 35.8286H26.8188C26.3887 35.8286 26.04 36.1773 26.04 36.6075C26.04 37.0376 26.3887 37.3863 26.8188 37.3863H28.3766C28.8067 37.3863 29.1554 37.0376 29.1554 36.6075ZM9.6838 37.0571L8.90497 36.6075L9.6838 36.1578V35.8286C9.82572 35.8286 9.95879 35.8666 10.0734 35.9329L16.6936 32.1107V36.601C16.6971 36.1738 17.0445 35.8286 17.4725 35.8286H19.0302C19.4603 35.8286 19.8091 36.1773 19.8091 36.6075C19.8091 37.0376 19.4603 37.3863 19.0302 37.3863H17.4725C17.0445 37.3863 16.6971 37.0411 16.6936 36.614V41.1042L10.0734 37.2821C9.95879 37.3484 9.82572 37.3863 9.6838 37.3863V37.0571ZM26.04 36.6075C26.04 37.0376 25.6913 37.3863 25.2611 37.3863H23.7034C23.2732 37.3863 22.9245 37.0376 22.9245 36.6075C22.9245 36.1773 23.2732 35.8286 23.7034 35.8286H25.2611C25.6913 35.8286 26.04 36.1773 26.04 36.6075ZM22.9245 36.6075C22.9245 37.0376 22.5758 37.3863 22.1456 37.3863H20.5879C20.1578 37.3863 19.8091 37.0376 19.8091 36.6075C19.8091 36.1773 20.1578 35.8286 20.5879 35.8286H22.1456C22.5758 35.8286 22.9245 36.1773 22.9245 36.6075Z" fill="#82B337"/>
<path fill-rule="evenodd" clip-rule="evenodd" d="M1.55773 0C0.69742 0 0 0.697422 0 1.55773V61.5303C0 62.3906 0.697426 63.0881 1.55774 63.0881H88.154C89.0144 63.0881 89.7118 62.3906 89.7118 61.5303V1.55773C89.7118 0.697419 89.0143 0 88.154 0H1.55773ZM4.7888 4.92875C4.35865 4.92875 4.00994 5.27747 4.00994 5.70762V57.5321C4.00994 57.9623 4.35864 58.311 4.7888 58.311H84.922C85.3522 58.311 85.7009 57.9623 85.7009 57.5321V5.70762C85.7009 5.27746 85.3522 4.92875 84.922 4.92875H4.7888Z" fill="#007584"/>
<path opacity="0.2" fill-rule="evenodd" clip-rule="evenodd" d="M16.0149 9.40367C16.7753 10.1641 16.7753 11.397 16.0149 12.1574L11.6861 16.4862C10.9257 17.2466 9.69281 17.2466 8.93239 16.4862C8.17198 15.7258 8.17198 14.4929 8.93239 13.7325L13.2612 9.40367C14.0216 8.64325 15.2545 8.64325 16.0149 9.40367Z" fill="#007584"/>
<path opacity="0.2" fill-rule="evenodd" clip-rule="evenodd" d="M23.5693 9.40367C24.3297 10.1641 24.3297 11.397 23.5693 12.1574L11.6858 24.0408C10.9254 24.8013 9.69252 24.8013 8.9321 24.0408C8.17169 23.2804 8.17169 22.0476 8.9321 21.2871L20.8156 9.40367C21.576 8.64325 22.8089 8.64325 23.5693 9.40367Z" fill="#007584"/>
</svg>
