<svg width="90" height="63" viewBox="0 0 90 63" fill="none" xmlns="http://www.w3.org/2000/svg">
<path fill-rule="evenodd" clip-rule="evenodd" d="M1.55773 0C0.69742 0 0 0.697422 0 1.55773V61.5303C0 62.3906 0.697426 63.0881 1.55774 63.0881H88.154C89.0144 63.0881 89.7118 62.3906 89.7118 61.5303V1.55773C89.7118 0.697419 89.0143 0 88.154 0H1.55773ZM4.77885 4.92875C4.3487 4.92875 3.99999 5.27747 3.99999 5.70762V57.5321C3.99999 57.9623 4.34869 58.311 4.77885 58.311H84.9121C85.3422 58.311 85.6909 57.9623 85.6909 57.5321V5.70762C85.6909 5.27746 85.3422 4.92875 84.9121 4.92875H4.77885Z" fill="#007584"/>
<path fill-rule="evenodd" clip-rule="evenodd" d="M44.5417 11.6989L45 10.905L45.4583 11.6989H45.7789C45.7789 11.8377 45.7425 11.968 45.6789 12.0809L49.4968 18.6937H45.4381C45.3133 18.7787 45.1624 18.8285 45 18.8285C44.8375 18.8285 44.6867 18.7787 44.5619 18.6937H40.5032L44.3211 12.0809C44.2574 11.968 44.2211 11.8377 44.2211 11.6989H44.5417ZM45.4583 51.391L45 52.1849L44.5417 51.391H44.2211C44.2211 51.2522 44.2574 51.1219 44.3211 51.009L40.5032 44.3962H44.5619C44.6867 44.3112 44.8375 44.2614 45 44.2614C45.1624 44.2614 45.3133 44.3112 45.4381 44.3962H49.4968L45.6789 51.009C45.7425 51.1219 45.7789 51.2522 45.7789 51.391H45.4583ZM45 18.8584C45.4301 18.8584 45.7789 19.2071 45.7789 19.6373V21.225C45.7789 21.6551 45.4301 22.0039 45 22.0039C44.5698 22.0039 44.2211 21.6551 44.2211 21.225V19.6373C44.2211 19.2071 44.5698 18.8584 45 18.8584ZM45 22.0338C45.4301 22.0338 45.7789 22.3825 45.7789 22.8127V24.4004C45.7789 24.8305 45.4301 25.1792 45 25.1792C44.5698 25.1792 44.2211 24.8305 44.2211 24.4004V22.8127C44.2211 22.3825 44.5698 22.0338 45 22.0338ZM45 25.2092C45.4301 25.2092 45.7789 25.5579 45.7789 25.9881V27.5757C45.7789 28.0059 45.4301 28.3546 45 28.3546C44.5698 28.3546 44.2211 28.0059 44.2211 27.5757V25.9881C44.2211 25.5579 44.5698 25.2092 45 25.2092ZM45 28.3846C45.4301 28.3846 45.7789 28.7333 45.7789 29.1634V30.7511C45.7789 31.1813 45.4301 31.53 45 31.53C44.5698 31.53 44.2211 31.1813 44.2211 30.7511V29.1634C44.2211 28.7333 44.5698 28.3846 45 28.3846ZM45 31.5599C45.4301 31.5599 45.7789 31.9086 45.7789 32.3388V33.9265C45.7789 34.3566 45.4301 34.7053 45 34.7053C44.5698 34.7053 44.2211 34.3566 44.2211 33.9265V32.3388C44.2211 31.9086 44.5698 31.5599 45 31.5599ZM45 34.7353C45.4301 34.7353 45.7789 35.084 45.7789 35.5142V37.1019C45.7789 37.532 45.4301 37.8807 45 37.8807C44.5698 37.8807 44.2211 37.532 44.2211 37.1019V35.5142C44.2211 35.084 44.5698 34.7353 45 34.7353ZM45 37.9107C45.4301 37.9107 45.7789 38.2594 45.7789 38.6895V40.2772C45.7789 40.7074 45.4301 41.0561 45 41.0561C44.5698 41.0561 44.2211 40.7074 44.2211 40.2772V38.6895C44.2211 38.2594 44.5698 37.9107 45 37.9107ZM45 41.0861C45.4301 41.0861 45.7789 41.4348 45.7789 41.8649V43.4526C45.7789 43.8828 45.4301 44.2315 45 44.2315C44.5698 44.2315 44.2211 43.8828 44.2211 43.4526V41.8649C44.2211 41.4348 44.5698 41.0861 45 41.0861Z" fill="#82B337"/>
<path opacity="0.2" fill-rule="evenodd" clip-rule="evenodd" d="M16.0151 9.40415C16.7756 10.1646 16.7756 11.3974 16.0151 12.1579L11.6863 16.4867C10.9259 17.2471 9.69305 17.2471 8.93264 16.4867C8.17222 15.7262 8.17222 14.4934 8.93264 13.733L13.2614 9.40415C14.0219 8.64374 15.2547 8.64374 16.0151 9.40415Z" fill="#007584"/>
<path opacity="0.2" fill-rule="evenodd" clip-rule="evenodd" d="M23.5695 9.40415C24.3299 10.1646 24.3299 11.3974 23.5695 12.1579L11.686 24.0413C10.9256 24.8018 9.6927 24.8018 8.93228 24.0413C8.17187 23.2809 8.17187 22.048 8.93228 21.2876L20.8158 9.40415C21.5762 8.64374 22.8091 8.64374 23.5695 9.40415Z" fill="#007584"/>
</svg>
