<svg width="38" height="38" viewBox="0 0 38 38" fill="none" xmlns="http://www.w3.org/2000/svg">
<circle cx="19" cy="19" r="19" fill="#FFC62F"/>
<path fill-rule="evenodd" clip-rule="evenodd" d="M18.8136 25.1204C18.9033 25.1975 19.0179 25.2393 19.1361 25.2382C19.2541 25.2367 19.3675 25.1924 19.4553 25.1135C19.5432 25.0347 19.5994 24.9266 19.6135 24.8095L21.1335 12.7274C21.1232 12.1847 20.8977 11.6684 20.5067 11.292C20.1156 10.9155 19.5911 10.7099 19.0484 10.7202C18.7797 10.7253 18.5146 10.7833 18.2683 10.8909C18.022 10.9984 17.7993 11.1535 17.613 11.3471C17.4266 11.5407 17.2801 11.7691 17.182 12.0194C17.0839 12.2696 17.0361 12.5366 17.0412 12.8053L18.6489 24.8192C18.6654 24.9363 18.724 25.0433 18.8136 25.1204ZM17.8669 29.9774C18.2287 30.2171 18.6535 30.3441 19.0876 30.3421C19.6673 30.3395 20.2224 30.1074 20.6315 29.6966C21.0405 29.2857 21.2701 28.7296 21.2701 28.1498C21.2701 27.7158 21.1413 27.2916 20.9 26.9308C20.6586 26.5701 20.3157 26.2891 19.9145 26.1235C19.5133 25.9578 19.072 25.915 18.6465 26.0004C18.221 26.0858 17.8304 26.2955 17.5242 26.6031C17.218 26.9107 17.0099 27.3022 16.9264 27.7281C16.843 28.154 16.8878 28.5951 17.0552 28.9955C17.2226 29.396 17.5051 29.7377 17.8669 29.9774Z" fill="#333333"/>
</svg>
