<svg width="17" height="17" viewBox="0 0 17 17" fill="none" xmlns="http://www.w3.org/2000/svg">
<path fill-rule="evenodd" clip-rule="evenodd" d="M2.84212 1.99454C2.78403 2.05486 2.73889 2.1616 2.73889 2.3499V14.6749C2.73889 14.846 2.78162 14.9479 2.83823 15.007C2.89345 15.0647 2.99031 15.1112 3.16389 15.1112H13.8116C14.0181 15.1112 14.1157 15.0692 14.1663 15.019C14.2166 14.969 14.2611 14.8703 14.2611 14.656V6.03395L10.1217 1.88901H3.18089C2.99901 1.88901 2.89893 1.93555 2.84212 1.99454ZM2.57001 1.73248C2.7224 1.57425 2.93777 1.51123 3.18089 1.51123H10.2C10.2501 1.51123 10.2982 1.53117 10.3337 1.56664L14.5837 5.82231C14.619 5.85773 14.6389 5.90573 14.6389 5.95579V14.656C14.6389 14.9083 14.5889 15.1317 14.4325 15.287C14.2762 15.4422 14.0546 15.489 13.8116 15.489H3.16389C2.9238 15.489 2.71371 15.4232 2.56541 15.2683C2.41849 15.1149 2.36111 14.9042 2.36111 14.6749V2.3499C2.36111 2.10752 2.41892 1.88938 2.57001 1.73248Z" fill="#00518A" stroke="#00518A" stroke-width="0.5" stroke-miterlimit="10" stroke-linecap="round" stroke-linejoin="round"/>
<path fill-rule="evenodd" clip-rule="evenodd" d="M10.0111 5.94995V1.69995H10.3889V5.76106H14.45V6.13884H10.2C10.0957 6.13884 10.0111 6.05427 10.0111 5.94995Z" fill="#00518A" stroke="#00518A" stroke-width="0.5" stroke-miterlimit="10" stroke-linejoin="round"/>
<path fill-rule="evenodd" clip-rule="evenodd" d="M4.91111 8.92497C4.91111 8.82065 4.99568 8.73608 5.1 8.73608H11.9C12.0043 8.73608 12.0889 8.82065 12.0889 8.92497C12.0889 9.02929 12.0043 9.11386 11.9 9.11386H5.1C4.99568 9.11386 4.91111 9.02929 4.91111 8.92497Z" fill="#00518A" stroke="#00518A" stroke-width="0.5" stroke-miterlimit="10" stroke-linecap="round" stroke-linejoin="round"/>
<path fill-rule="evenodd" clip-rule="evenodd" d="M4.91111 10.6249C4.91111 10.5206 4.99568 10.436 5.1 10.436H11.9C12.0043 10.436 12.0889 10.5206 12.0889 10.6249C12.0889 10.7292 12.0043 10.8138 11.9 10.8138H5.1C4.99568 10.8138 4.91111 10.7292 4.91111 10.6249Z" fill="#00518A" stroke="#00518A" stroke-width="0.5" stroke-miterlimit="10" stroke-linecap="round" stroke-linejoin="round"/>
<path fill-rule="evenodd" clip-rule="evenodd" d="M4.91111 12.3251C4.91111 12.2208 4.99568 12.1362 5.1 12.1362H11.9C12.0043 12.1362 12.0889 12.2208 12.0889 12.3251C12.0889 12.4294 12.0043 12.514 11.9 12.514H5.1C4.99568 12.514 4.91111 12.4294 4.91111 12.3251Z" fill="#00518A" stroke="#00518A" stroke-width="0.5" stroke-miterlimit="10" stroke-linecap="round" stroke-linejoin="round"/>
</svg>
