<svg width="34" height="42" viewBox="0 0 34 42" fill="none" xmlns="http://www.w3.org/2000/svg">
<path d="M31.8067 40.2108C31.8067 40.968 25.3004 41.5818 17.2744 41.5818C9.2485 41.5818 2.74219 40.968 2.74219 40.2108C2.74219 39.4536 9.2485 38.8398 17.2744 38.8398C25.3004 38.8398 31.8067 39.4536 31.8067 40.2108Z" fill="#117481"/>
<path d="M6 6C6 4.34315 7.34315 3 9 3H28V31H9C7.34315 31 6 29.6569 6 28V6Z" fill="white"/>
<path fill-rule="evenodd" clip-rule="evenodd" d="M6.32782 6.04925V26.593C6.97392 25.9084 7.9515 25.5268 8.92693 25.5268C9.13557 25.5268 9.30471 25.6986 9.30471 25.9106C9.30471 26.1226 9.13557 26.2945 8.92693 26.2945C7.51087 26.2945 6.32782 27.2203 6.32782 28.5018C6.32782 29.7835 7.5112 30.709 8.92316 30.709H27.6723V3.83805H8.50004C7.82744 3.83805 7.29827 4.06841 6.934 4.4425C6.56915 4.81718 6.34204 5.3647 6.32782 6.04925ZM5.57227 28.5018V6.04531L5.57234 6.03766C5.58909 5.18462 5.87559 4.43788 6.39692 3.90251C6.91948 3.36586 7.6502 3.07031 8.50004 3.07031H28.05C28.2587 3.07031 28.4278 3.24218 28.4278 3.45418V31.0929C28.4278 31.3049 28.2587 31.4768 28.05 31.4768H8.92316C7.25244 31.4768 5.57227 30.3524 5.57227 28.5018Z" fill="#333333"/>
<path fill-rule="evenodd" clip-rule="evenodd" d="M8.92285 25.5273H28.0497V26.2951H8.92285V25.5273Z" fill="#333333"/>
<path fill-rule="evenodd" clip-rule="evenodd" d="M8.97266 28.5011C8.97266 28.2891 9.14179 28.1172 9.35043 28.1172H28.0504C28.2591 28.1172 28.4282 28.2891 28.4282 28.5011C28.4282 28.7131 28.2591 28.8849 28.0504 28.8849H9.35043C9.14179 28.8849 8.97266 28.7131 8.97266 28.5011Z" fill="#333333"/>
<path fill-rule="evenodd" clip-rule="evenodd" d="M9.72821 3.45508V25.9115H8.97266V3.45508H9.72821Z" fill="#333333"/>
</svg>
