<svg width="32" height="32" viewBox="0 0 32 32" fill="none" xmlns="http://www.w3.org/2000/svg">
<path fill-rule="evenodd" clip-rule="evenodd" d="M5.34977 3.75448C5.24041 3.86803 5.15545 4.06896 5.15545 4.42339V27.6234C5.15545 27.9455 5.23588 28.1373 5.34245 28.2486C5.44639 28.3571 5.62871 28.4447 5.95545 28.4447H25.9981C26.3869 28.4447 26.5706 28.3657 26.6658 28.2711C26.7606 28.1769 26.8443 27.9911 26.8443 27.5878V11.3581L19.0525 3.55584H5.98745C5.64508 3.55584 5.45671 3.64344 5.34977 3.75448ZM4.83757 3.2612C5.12441 2.96335 5.52981 2.84473 5.98745 2.84473H19.1999C19.2943 2.84473 19.3848 2.88225 19.4515 2.94903L27.4515 10.9597C27.5181 11.0264 27.5554 11.1167 27.5554 11.2109V27.5878C27.5554 28.0628 27.4614 28.4832 27.1669 28.7757C26.8728 29.0678 26.4555 29.1558 25.9981 29.1558H5.95545C5.50352 29.1558 5.10806 29.0319 4.82889 28.7404C4.55235 28.4517 4.44434 28.055 4.44434 27.6234V4.42339C4.44434 3.96716 4.55315 3.55653 4.83757 3.2612Z" fill="#333333"/>
<path fill-rule="evenodd" clip-rule="evenodd" d="M18.8447 11.2002V3.2002H19.5558V10.8446H27.2003V11.5558H19.2003C19.0039 11.5558 18.8447 11.3966 18.8447 11.2002Z" fill="#333333"/>
<path fill-rule="evenodd" clip-rule="evenodd" d="M9.24414 16.7999C9.24414 16.6035 9.40333 16.4443 9.5997 16.4443H22.3997C22.5961 16.4443 22.7553 16.6035 22.7553 16.7999C22.7553 16.9963 22.5961 17.1554 22.3997 17.1554H9.5997C9.40333 17.1554 9.24414 16.9963 9.24414 16.7999Z" fill="#333333"/>
<path fill-rule="evenodd" clip-rule="evenodd" d="M9.24414 20.0001C9.24414 19.8037 9.40333 19.6445 9.5997 19.6445H22.3997C22.5961 19.6445 22.7553 19.8037 22.7553 20.0001C22.7553 20.1965 22.5961 20.3556 22.3997 20.3556H9.5997C9.40333 20.3556 9.24414 20.1965 9.24414 20.0001Z" fill="#333333"/>
<path fill-rule="evenodd" clip-rule="evenodd" d="M9.24414 23.2003C9.24414 23.0039 9.40333 22.8447 9.5997 22.8447H22.3997C22.5961 22.8447 22.7553 23.0039 22.7553 23.2003C22.7553 23.3967 22.5961 23.5558 22.3997 23.5558H9.5997C9.40333 23.5558 9.24414 23.3967 9.24414 23.2003Z" fill="#333333"/>
</svg>
