<svg width="183" height="106" viewBox="0 0 183 106" fill="none" xmlns="http://www.w3.org/2000/svg">
<rect width="183" height="106" rx="5" fill="#1695A5"/>
<ellipse cx="92" cy="94" rx="32" ry="3" fill="#107C8A"/>
<path d="M68 24C68 21.2386 70.2386 19 73 19H111C113.761 19 116 21.2386 116 24V72C116 74.7614 113.761 77 111 77H73C70.2386 77 68 74.7614 68 72V24Z" fill="white"/>
<path fill-rule="evenodd" clip-rule="evenodd" d="M69.3998 24.6081V67.4219C70.768 65.9951 72.8382 65.1999 74.9038 65.1999C75.3456 65.1999 75.7038 65.5581 75.7038 65.9999C75.7038 66.4417 75.3456 66.7999 74.9038 66.7999C71.9051 66.7999 69.3998 68.7292 69.3998 71.3999C69.3998 74.0711 71.9058 75.9999 74.8958 75.9999H114.6V19.9999H73.9998C72.5755 19.9999 71.4549 20.48 70.6835 21.2596C69.9109 22.0404 69.4299 23.1815 69.3998 24.6081ZM67.7998 71.3999V24.5999L67.8 24.5839C67.8354 22.8062 68.4421 21.25 69.5461 20.1342C70.6527 19.0158 72.2001 18.3999 73.9998 18.3999H115.4C115.842 18.3999 116.2 18.7581 116.2 19.1999V76.7999C116.2 77.2417 115.842 77.5999 115.4 77.5999H74.8958C71.3578 77.5999 67.7998 75.2567 67.7998 71.3999Z" fill="#0B3C61"/>
<path fill-rule="evenodd" clip-rule="evenodd" d="M74.896 65.1997H115.4V66.7997H74.896V65.1997Z" fill="#0B3C61"/>
<path fill-rule="evenodd" clip-rule="evenodd" d="M75 71.4001C75 70.9583 75.3582 70.6001 75.8 70.6001H115.4C115.842 70.6001 116.2 70.9583 116.2 71.4001C116.2 71.8419 115.842 72.2001 115.4 72.2001H75.8C75.3582 72.2001 75 71.8419 75 71.4001Z" fill="#0B3C61"/>
<path fill-rule="evenodd" clip-rule="evenodd" d="M76.6 19.1997V65.9997H75V19.1997H76.6Z" fill="#0B3C61"/>
</svg>
