<svg width="75" height="75" viewBox="0 0 75 75" fill="none" xmlns="http://www.w3.org/2000/svg">
<g clip-path="url(#clip0_17_6914)">
<rect width="75" height="75" rx="5" fill="#79B0DE"/>
<ellipse opacity="0.3" cx="37.235" cy="62.7547" rx="19.235" ry="1.75471" fill="#00518A"/>
<path fill-rule="evenodd" clip-rule="evenodd" d="M33.2905 16.3018C33.2905 15.7969 33.6788 15.3877 34.1577 15.3877H35.1983C35.6773 15.3877 36.0655 15.7969 36.0655 16.3018C36.0655 16.8066 35.6773 17.2158 35.1983 17.2158H34.1577C33.6788 17.2158 33.2905 16.8066 33.2905 16.3018Z" fill="#79B0DE"/>
<path fill-rule="evenodd" clip-rule="evenodd" d="M38.2624 16.3018C38.2624 15.7969 38.6506 15.3877 39.1296 15.3877H40.1702C40.6491 15.3877 41.0374 15.7969 41.0374 16.3018C41.0374 16.8066 40.6491 17.2158 40.1702 17.2158H39.1296C38.6506 17.2158 38.2624 16.8066 38.2624 16.3018Z" fill="#79B0DE"/>
<path fill-rule="evenodd" clip-rule="evenodd" d="M43.2343 16.3018C43.2343 15.7969 43.6225 15.3877 44.1015 15.3877H45.1421C45.621 15.3877 46.0093 15.7969 46.0093 16.3018C46.0093 16.8066 45.621 17.2158 45.1421 17.2158H44.1015C43.6225 17.2158 43.2343 16.8066 43.2343 16.3018Z" fill="#79B0DE"/>
<path fill-rule="evenodd" clip-rule="evenodd" d="M48.7611 31.6093C46.0088 31.6093 43.7776 33.961 43.7776 36.8621C43.7776 39.7631 46.0088 42.1149 48.7611 42.1149C51.5133 42.1149 53.7445 39.7631 53.7445 36.8621C53.7445 33.961 51.5133 31.6093 48.7611 31.6093ZM42.0432 36.8621C42.0432 32.9514 45.0509 29.7811 48.7611 29.7811C52.4712 29.7811 55.4789 32.9514 55.4789 36.8621C55.4789 40.7728 52.4712 43.943 48.7611 43.943C45.0509 43.943 42.0432 40.7728 42.0432 36.8621Z" fill="#79B0DE"/>
<path fill-rule="evenodd" clip-rule="evenodd" d="M27.9486 31.6093C25.1963 31.6093 22.9651 33.961 22.9651 36.8621C22.9651 39.7631 25.1963 42.1149 27.9486 42.1149C30.7008 42.1149 32.932 39.7631 32.932 36.8621C32.932 33.961 30.7008 31.6093 27.9486 31.6093ZM21.2307 36.8621C21.2307 32.9514 24.2384 29.7811 27.9486 29.7811C31.6587 29.7811 34.6664 32.9514 34.6664 36.8621C34.6664 40.7728 31.6587 43.943 27.9486 43.943C24.2384 43.943 21.2307 40.7728 21.2307 36.8621Z" fill="#79B0DE"/>
<path fill-rule="evenodd" clip-rule="evenodd" d="M22.1352 45.759H33.82C34.1952 45.7281 34.5725 45.7815 34.927 45.9159C35.2957 46.0556 35.6305 46.2795 35.9075 46.5715C36.1846 46.8635 36.397 47.2164 36.5296 47.605C36.657 47.9787 36.7077 48.3764 36.6784 48.7719V52.6328C36.6784 53.1376 36.2901 53.5468 35.8112 53.5468C35.3323 53.5468 34.944 53.1376 34.944 52.6328V48.7328C34.944 48.7038 34.9453 48.6749 34.9479 48.6461C34.9608 48.5031 34.9436 48.3588 34.8975 48.2237C34.8514 48.0885 34.7775 47.9658 34.6812 47.8642C34.5848 47.7626 34.4683 47.6847 34.3401 47.6361C34.2119 47.5875 34.075 47.5694 33.9394 47.583C33.912 47.5858 33.8846 47.5871 33.8571 47.5871H22.0981C22.0706 47.5871 22.0432 47.5858 22.0158 47.583C21.8802 47.5694 21.7433 47.5875 21.6151 47.6361C21.4869 47.6847 21.3704 47.7626 21.274 47.8642C21.1777 47.9658 21.1038 48.0885 21.0577 48.2237C21.0116 48.3588 20.9944 48.5031 21.0073 48.6461C21.0099 48.6749 21.0112 48.7038 21.0112 48.7328V51.4749C21.0112 51.9797 20.6229 52.3889 20.144 52.3889C19.6651 52.3889 19.2768 51.9797 19.2768 51.4749V48.7719C19.2475 48.3764 19.2982 47.9787 19.4256 47.605C19.5582 47.2164 19.7706 46.8635 20.0477 46.5715C20.3247 46.2795 20.6595 46.0556 21.0282 45.9159C21.3827 45.7815 21.76 45.7281 22.1352 45.759Z" fill="#79B0DE"/>
<path fill-rule="evenodd" clip-rule="evenodd" d="M42.9477 45.759H54.6325C55.0077 45.7281 55.385 45.7815 55.7395 45.9159C56.1082 46.0556 56.443 46.2795 56.72 46.5715C56.9971 46.8635 57.2095 47.2164 57.3421 47.605C57.4695 47.9787 57.5202 48.3764 57.4909 48.7719V52.6328C57.4909 53.1376 57.1026 53.5468 56.6237 53.5468C56.1448 53.5468 55.7565 53.1376 55.7565 52.6328V48.7328C55.7565 48.7038 55.7578 48.6749 55.7604 48.6461C55.7733 48.5031 55.7561 48.3588 55.71 48.2237C55.6639 48.0885 55.59 47.9657 55.4937 47.8642C55.3973 47.7626 55.2808 47.6847 55.1526 47.6361C55.0244 47.5875 54.8875 47.5694 54.7519 47.583C54.7245 47.5858 54.6971 47.5871 54.6696 47.5871H42.9106C42.8831 47.5871 42.8557 47.5858 42.8283 47.583C42.6927 47.5694 42.5558 47.5875 42.4276 47.6361C42.2994 47.6847 42.1829 47.7626 42.0865 47.8642C41.9902 47.9658 41.9163 48.0885 41.8702 48.2237C41.8241 48.3588 41.8069 48.5031 41.8198 48.6461C41.8224 48.6749 41.8237 48.7038 41.8237 48.7328V50.9874C41.8237 51.4922 41.4354 51.9014 40.9565 51.9014C40.4776 51.9014 40.0893 51.4922 40.0893 50.9874V48.7719C40.06 48.3764 40.1107 47.9787 40.2381 47.605C40.3707 47.2164 40.5831 46.8635 40.8602 46.5715C41.1372 46.2795 41.472 46.0556 41.8407 45.9159C42.1952 45.7815 42.5725 45.7281 42.9477 45.759Z" fill="#79B0DE"/>
<path fill-rule="evenodd" clip-rule="evenodd" d="M39.8046 25.4789L35.4938 29.4346C35.2375 29.6698 34.8744 29.7255 34.5651 29.5771C34.2558 29.4286 34.0572 29.1034 34.0572 28.7452V25.4789H29.4031C29.076 25.4829 28.7514 25.4185 28.448 25.2894C28.1425 25.1594 27.8647 24.9664 27.631 24.7218C27.3972 24.4771 27.2121 24.1857 27.0866 23.8646C26.9615 23.5446 26.8981 23.2017 26.9 22.8556V11.2103C26.8981 10.8643 26.9613 10.5213 27.0858 10.2011C27.2108 9.87977 27.3951 9.58786 27.6281 9.3423C27.8611 9.09675 28.138 8.90245 28.4428 8.77071C28.7466 8.63943 29.072 8.57287 29.4003 8.57487H49.5019C49.8302 8.57287 50.1556 8.63943 50.4594 8.77071C50.7642 8.90245 51.0412 9.09675 51.2741 9.3423C51.5071 9.58786 51.6914 9.87977 51.8164 10.2011L52.0022 22.8555C52.0042 23.2015 51.9408 23.5446 51.8157 23.8646C51.6902 24.1856 51.5051 24.4771 51.2713 24.7218C51.0375 24.9664 50.7597 25.1594 50.4542 25.2894L39.8046 25.4789ZM29.3453 9.79362C28.7931 9.79362 28.3453 10.2413 28.3453 10.7936V22.8092C28.3453 23.3615 28.7931 23.8092 29.3453 23.8092H34.2806C34.8338 23.8092 35.2818 24.2583 35.2806 24.8115L35.2748 27.4655L38.465 24.5832C39.0164 24.085 39.733 23.8092 40.4761 23.8092H49.3141C49.8664 23.8092 50.3141 23.3615 50.3141 22.8092V10.7936C50.3141 10.2413 49.8664 9.79362 49.3141 9.79362H29.3453Z" fill="#79B0DE"/>
<path d="M19.5 48.5999C19.5 47.4953 20.3954 46.5999 21.5 46.5999H32.3C33.4046 46.5999 34.3 47.4953 34.3 48.5999V53.4249H19.5V48.5999Z" fill="white"/>
<path d="M40.775 48.5999C40.775 47.4953 41.6704 46.5999 42.775 46.5999H53.575C54.6796 46.5999 55.575 47.4953 55.575 48.5999V53.4249H40.775V48.5999Z" fill="white"/>
<path fill-rule="evenodd" clip-rule="evenodd" d="M32.3655 16.3018C32.3655 15.7969 32.7538 15.3877 33.2327 15.3877H34.2734C34.7523 15.3877 35.1405 15.7969 35.1405 16.3018C35.1405 16.8066 34.7523 17.2158 34.2734 17.2158H33.2327C32.7538 17.2158 32.3655 16.8066 32.3655 16.3018Z" fill="white"/>
<path fill-rule="evenodd" clip-rule="evenodd" d="M37.3374 16.3018C37.3374 15.7969 37.7257 15.3877 38.2046 15.3877H39.2452C39.7241 15.3877 40.1124 15.7969 40.1124 16.3018C40.1124 16.8066 39.7241 17.2158 39.2452 17.2158H38.2046C37.7257 17.2158 37.3374 16.8066 37.3374 16.3018Z" fill="white"/>
<path fill-rule="evenodd" clip-rule="evenodd" d="M42.3093 16.3018C42.3093 15.7969 42.6975 15.3877 43.1765 15.3877H44.2171C44.696 15.3877 45.0843 15.7969 45.0843 16.3018C45.0843 16.8066 44.696 17.2158 44.2171 17.2158H43.1765C42.6975 17.2158 42.3093 16.8066 42.3093 16.3018Z" fill="white"/>
<path fill-rule="evenodd" clip-rule="evenodd" d="M41.1183 36.8621C41.1183 32.9514 44.1259 29.7811 47.8361 29.7811C51.5462 29.7811 54.5539 32.9514 54.5539 36.8621C54.5539 40.7728 51.5462 43.943 47.8361 43.943C44.1259 43.943 41.1183 40.7728 41.1183 36.8621Z" fill="white"/>
<path fill-rule="evenodd" clip-rule="evenodd" d="M20.3058 36.8621C20.3058 32.9514 23.3134 29.7811 27.0236 29.7811C30.7337 29.7811 33.7414 32.9514 33.7414 36.8621C33.7414 40.7728 30.7337 43.943 27.0236 43.943C23.3134 43.943 20.3058 40.7728 20.3058 36.8621Z" fill="white"/>
<path fill-rule="evenodd" clip-rule="evenodd" d="M21.2102 45.759H32.895C33.2702 45.7281 33.6475 45.7815 34.002 45.9159C34.3707 46.0556 34.7055 46.2795 34.9826 46.5715C35.2596 46.8635 35.472 47.2164 35.6046 47.605C35.732 47.9787 35.7827 48.3764 35.7534 48.7719V52.6328C35.7534 53.1376 35.3651 53.5468 34.8862 53.5468C34.4073 53.5468 34.019 53.1376 34.019 52.6328V48.7328C34.019 48.7038 34.0203 48.6749 34.0229 48.6461C34.0358 48.5031 34.0186 48.3588 33.9725 48.2237C33.9264 48.0885 33.8525 47.9658 33.7562 47.8642C33.6598 47.7626 33.5433 47.6847 33.4151 47.6361C33.2869 47.5875 33.15 47.5694 33.0144 47.583C32.987 47.5858 32.9596 47.5871 32.9321 47.5871H21.1731C21.1456 47.5871 21.1182 47.5858 21.0908 47.583C20.9552 47.5694 20.8183 47.5875 20.6901 47.6361C20.5619 47.6847 20.4454 47.7626 20.3491 47.8642C20.2527 47.9658 20.1788 48.0885 20.1327 48.2237C20.0866 48.3588 20.0694 48.5031 20.0823 48.6461C20.0849 48.6749 20.0862 48.7038 20.0862 48.7328V52.6328C20.0862 53.1376 19.6979 53.5468 19.219 53.5468C18.7401 53.5468 18.3518 53.1376 18.3518 52.6328V48.7719C18.3225 48.3764 18.3732 47.9787 18.5006 47.605C18.6332 47.2164 18.8456 46.8635 19.1227 46.5715C19.3997 46.2795 19.7345 46.0556 20.1032 45.9159C20.4577 45.7815 20.835 45.7281 21.2102 45.759Z" fill="white"/>
<path fill-rule="evenodd" clip-rule="evenodd" d="M42.0227 45.759H53.7075C54.0827 45.7281 54.46 45.7815 54.8145 45.9159C55.1832 46.0556 55.518 46.2795 55.7951 46.5715C56.0721 46.8635 56.2845 47.2164 56.4171 47.605C56.5445 47.9787 56.5952 48.3764 56.5659 48.7719V52.6328C56.5659 53.1376 56.1776 53.5468 55.6987 53.5468C55.2198 53.5468 54.8315 53.1376 54.8315 52.6328V48.7328C54.8315 48.7038 54.8328 48.6749 54.8354 48.6461C54.8483 48.5031 54.8311 48.3588 54.785 48.2237C54.7389 48.0885 54.665 47.9657 54.5687 47.8642C54.4723 47.7626 54.3558 47.6847 54.2276 47.6361C54.0994 47.5875 53.9625 47.5694 53.8269 47.583C53.7995 47.5858 53.7721 47.5871 53.7446 47.5871H41.9856C41.9581 47.5871 41.9307 47.5858 41.9033 47.583C41.7677 47.5694 41.6308 47.5875 41.5026 47.6361C41.3744 47.6847 41.2579 47.7626 41.1616 47.8642C41.0652 47.9658 40.9913 48.0885 40.9452 48.2237C40.8991 48.3588 40.8819 48.5031 40.8948 48.6461C40.8974 48.6749 40.8987 48.7038 40.8987 48.7328V52.6328C40.8987 53.1376 40.5104 53.5468 40.0315 53.5468C39.5526 53.5468 39.1643 53.1376 39.1643 52.6328V48.7719C39.135 48.3764 39.1857 47.9787 39.3131 47.605C39.4457 47.2164 39.6581 46.8635 39.9352 46.5715C40.2122 46.2795 40.547 46.0556 40.9157 45.9159C41.2702 45.7815 41.6475 45.7281 42.0227 45.759Z" fill="white"/>
<path fill-rule="evenodd" clip-rule="evenodd" d="M39.0612 24.7477L34.7504 28.7034C34.494 28.9386 34.131 28.9943 33.8216 28.8459C33.5123 28.6974 33.3138 28.3722 33.3138 28.014V24.7477H28.6596C28.3326 24.7517 28.008 24.6873 27.7046 24.5582C27.3991 24.4282 27.1213 24.2352 26.8875 23.9906C26.6537 23.7459 26.4686 23.4545 26.3431 23.1334C26.2181 22.8134 26.1547 22.4705 26.1566 22.1244V10.4791C26.1547 10.1331 26.2178 9.79007 26.3424 9.46988C26.4674 9.14857 26.6517 8.85666 26.8847 8.6111C27.1176 8.36554 27.3946 8.17125 27.6994 8.03951C28.0032 7.90823 28.3286 7.84167 28.6569 7.84367H48.7585C49.0868 7.84167 49.4122 7.90823 49.716 8.03951C50.0208 8.17125 50.2977 8.36555 50.5307 8.6111C50.7637 8.85666 50.948 9.14857 51.073 9.46988L51.2588 22.1243C51.2607 22.4703 51.1973 22.8134 51.0722 23.1334C50.9467 23.4544 50.7617 23.7459 50.5279 23.9906C50.2941 24.2352 50.0163 24.4282 49.7108 24.5582L39.0612 24.7477Z" fill="white"/>
<path fill-rule="evenodd" clip-rule="evenodd" d="M32.3655 16.3018C32.3655 15.7969 32.7538 15.3877 33.2327 15.3877H34.2734C34.7523 15.3877 35.1405 15.7969 35.1405 16.3018C35.1405 16.8066 34.7523 17.2158 34.2734 17.2158H33.2327C32.7538 17.2158 32.3655 16.8066 32.3655 16.3018Z" fill="#0B3C61"/>
<path fill-rule="evenodd" clip-rule="evenodd" d="M37.3374 16.3018C37.3374 15.7969 37.7257 15.3877 38.2046 15.3877H39.2452C39.7241 15.3877 40.1124 15.7969 40.1124 16.3018C40.1124 16.8066 39.7241 17.2158 39.2452 17.2158H38.2046C37.7257 17.2158 37.3374 16.8066 37.3374 16.3018Z" fill="#0B3C61"/>
<path fill-rule="evenodd" clip-rule="evenodd" d="M42.3093 16.3018C42.3093 15.7969 42.6975 15.3877 43.1765 15.3877H44.2171C44.696 15.3877 45.0843 15.7969 45.0843 16.3018C45.0843 16.8066 44.696 17.2158 44.2171 17.2158H43.1765C42.6975 17.2158 42.3093 16.8066 42.3093 16.3018Z" fill="#0B3C61"/>
<path fill-rule="evenodd" clip-rule="evenodd" d="M47.8361 31.6094C45.0838 31.6094 42.8526 33.9611 42.8526 36.8622C42.8526 39.7632 45.0838 42.115 47.8361 42.115C50.5883 42.115 52.8195 39.7632 52.8195 36.8622C52.8195 33.9611 50.5883 31.6094 47.8361 31.6094ZM41.1183 36.8622C41.1183 32.9515 44.1259 29.7812 47.8361 29.7812C51.5462 29.7812 54.5539 32.9515 54.5539 36.8622C54.5539 40.7729 51.5462 43.9431 47.8361 43.9431C44.1259 43.9431 41.1183 40.7729 41.1183 36.8622Z" fill="#0B3C61"/>
<path fill-rule="evenodd" clip-rule="evenodd" d="M27.0236 31.6094C24.2713 31.6094 22.0401 33.9611 22.0401 36.8622C22.0401 39.7632 24.2713 42.115 27.0236 42.115C29.7758 42.115 32.007 39.7632 32.007 36.8622C32.007 33.9611 29.7758 31.6094 27.0236 31.6094ZM20.3058 36.8622C20.3058 32.9515 23.3134 29.7812 27.0236 29.7812C30.7337 29.7812 33.7414 32.9515 33.7414 36.8622C33.7414 40.7729 30.7337 43.9431 27.0236 43.9431C23.3134 43.9431 20.3058 40.7729 20.3058 36.8622Z" fill="#0B3C61"/>
<path fill-rule="evenodd" clip-rule="evenodd" d="M21.2102 45.759H32.895C33.2702 45.7281 33.6475 45.7815 34.002 45.9159C34.3707 46.0556 34.7055 46.2795 34.9826 46.5715C35.2596 46.8635 35.472 47.2164 35.6046 47.605C35.732 47.9787 35.7827 48.3764 35.7534 48.7719V52.6328C35.7534 53.1376 35.3651 53.5468 34.8862 53.5468C34.4073 53.5468 34.019 53.1376 34.019 52.6328V48.7328C34.019 48.7038 34.0203 48.6749 34.0229 48.6461C34.0358 48.5031 34.0186 48.3588 33.9725 48.2237C33.9264 48.0885 33.8525 47.9658 33.7562 47.8642C33.6598 47.7626 33.5433 47.6847 33.4151 47.6361C33.2869 47.5875 33.15 47.5694 33.0144 47.583C32.987 47.5858 32.9596 47.5871 32.9321 47.5871H21.1731C21.1456 47.5871 21.1182 47.5858 21.0908 47.583C20.9552 47.5694 20.8183 47.5875 20.6901 47.6361C20.5619 47.6847 20.4454 47.7626 20.3491 47.8642C20.2527 47.9658 20.1788 48.0885 20.1327 48.2237C20.0866 48.3588 20.0694 48.5031 20.0823 48.6461C20.0849 48.6749 20.0862 48.7038 20.0862 48.7328V52.6328C20.0862 53.1376 19.6979 53.5468 19.219 53.5468C18.7401 53.5468 18.3518 53.1376 18.3518 52.6328V48.7719C18.3225 48.3764 18.3732 47.9787 18.5006 47.605C18.6332 47.2164 18.8456 46.8635 19.1227 46.5715C19.3997 46.2795 19.7345 46.0556 20.1032 45.9159C20.4577 45.7815 20.835 45.7281 21.2102 45.759Z" fill="#0B3C61"/>
<path fill-rule="evenodd" clip-rule="evenodd" d="M42.0227 45.759H53.7075C54.0827 45.7281 54.46 45.7815 54.8145 45.9159C55.1832 46.0556 55.518 46.2795 55.7951 46.5715C56.0721 46.8635 56.2845 47.2164 56.4171 47.605C56.5445 47.9787 56.5952 48.3764 56.5659 48.7719V52.6328C56.5659 53.1376 56.1776 53.5468 55.6987 53.5468C55.2198 53.5468 54.8315 53.1376 54.8315 52.6328V48.7328C54.8315 48.7038 54.8328 48.6749 54.8354 48.6461C54.8483 48.5031 54.8311 48.3588 54.785 48.2237C54.7389 48.0885 54.665 47.9657 54.5687 47.8642C54.4723 47.7626 54.3558 47.6847 54.2276 47.6361C54.0994 47.5875 53.9625 47.5694 53.8269 47.583C53.7995 47.5858 53.7721 47.5871 53.7446 47.5871H41.9856C41.9581 47.5871 41.9307 47.5858 41.9033 47.583C41.7677 47.5694 41.6308 47.5875 41.5026 47.6361C41.3744 47.6847 41.2579 47.7626 41.1616 47.8642C41.0652 47.9658 40.9913 48.0885 40.9452 48.2237C40.8991 48.3588 40.8819 48.5031 40.8948 48.6461C40.8974 48.6749 40.8987 48.7038 40.8987 48.7328V52.6328C40.8987 53.1376 40.5104 53.5468 40.0315 53.5468C39.5526 53.5468 39.1643 53.1376 39.1643 52.6328V48.7719C39.135 48.3764 39.1857 47.9787 39.3131 47.605C39.4457 47.2164 39.6581 46.8635 39.9352 46.5715C40.2122 46.2795 40.547 46.0556 40.9157 45.9159C41.2702 45.7815 41.6475 45.7281 42.0227 45.759Z" fill="#0B3C61"/>
<path fill-rule="evenodd" clip-rule="evenodd" d="M39.0612 24.7479L34.7504 28.7035C34.494 28.9387 34.131 28.9944 33.8216 28.846C33.5123 28.6976 33.3138 28.3723 33.3138 28.0141V24.7479H28.6596C28.3326 24.7519 28.008 24.6875 27.7046 24.5584C27.3991 24.4284 27.1213 24.2354 26.8875 23.9907C26.6537 23.746 26.4686 23.4546 26.3431 23.1335C26.2181 22.8135 26.1547 22.4706 26.1566 22.1246V10.4792C26.1547 10.1332 26.2178 9.79019 26.3424 9.47C26.4674 9.14869 26.6517 8.85678 26.8847 8.61122C27.1176 8.36567 27.3946 8.17137 27.6994 8.03963C28.0032 7.90835 28.3286 7.84179 28.6569 7.84379H48.7585C49.0868 7.84179 49.4122 7.90835 49.716 8.03963C50.0208 8.17137 50.2977 8.36567 50.5307 8.61122C50.7637 8.85678 50.948 9.14869 51.073 9.47L51.2588 22.1244C51.2607 22.4705 51.1973 22.8135 51.0722 23.1335C50.9467 23.4546 50.7617 23.746 50.5279 23.9907C50.2941 24.2354 50.0163 24.4284 49.7108 24.5584L39.0612 24.7479ZM28.6019 9.06254C28.0496 9.06254 27.6019 9.51025 27.6019 10.0625V22.0782C27.6019 22.6304 28.0496 23.0782 28.6019 23.0782H33.5372C34.0903 23.0782 34.5384 23.5272 34.5372 24.0804L34.5313 26.7344L37.7215 23.8521C38.2729 23.354 38.9896 23.0782 39.7327 23.0782H48.5707C49.1229 23.0782 49.5707 22.6304 49.5707 22.0782V10.0625C49.5707 9.51025 49.1229 9.06254 48.5707 9.06254H28.6019Z" fill="#0B3C61"/>
</g>
<defs>
<clipPath id="clip0_17_6914">
<rect width="75" height="75" fill="white"/>
</clipPath>
</defs>
</svg>
