<svg width="60" height="61" viewBox="0 0 60 61" fill="none" xmlns="http://www.w3.org/2000/svg">
<path fill-rule="evenodd" clip-rule="evenodd" d="M32.1301 9.29095C31.3674 7.92288 29.3992 7.92287 28.6365 9.29094L5.55488 50.6892C4.81161 52.0223 5.7754 53.6631 7.30172 53.6631H53.4649C54.9912 53.6631 55.955 52.0223 55.2117 50.6892L32.1301 9.29095ZM30.7584 40.8524C30.5764 40.8542 30.4 40.7898 30.262 40.6711C30.124 40.5524 30.0338 40.3876 30.0084 40.2074L27.5334 21.7124C27.5255 21.2988 27.5992 20.8876 27.7502 20.5024C27.9012 20.1172 28.1266 19.7656 28.4136 19.4675C28.7005 19.1694 29.0433 18.9308 29.4225 18.7652C29.8017 18.5996 30.2097 18.5103 30.6234 18.5024C31.4588 18.4865 32.2663 18.8031 32.8683 19.3826C33.4703 19.9621 33.8175 20.757 33.8334 21.5924L31.4934 40.1924C31.4716 40.3728 31.3851 40.5391 31.2499 40.6605C31.1147 40.7819 30.9401 40.8501 30.7584 40.8524ZM30.6837 48.7098C30.0155 48.7128 29.3615 48.5174 28.8046 48.1484C28.2476 47.7793 27.8127 47.2533 27.5549 46.6368C27.2972 46.0204 27.2282 45.3413 27.3567 44.6857C27.4852 44.03 27.8055 43.4272 28.2769 42.9537C28.7483 42.4802 29.3496 42.1573 30.0047 42.0258C30.6598 41.8944 31.3392 41.9603 31.9567 42.2153C32.5743 42.4703 33.1023 42.9029 33.4738 43.4582C33.8453 44.0136 34.0437 44.6667 34.0437 45.3348C34.0437 46.2274 33.6902 47.0835 33.0605 47.716C32.4308 48.3485 31.5762 48.7059 30.6837 48.7098Z" fill="#B00505"/>
</svg>
