<svg width="40" height="40" viewBox="0 0 40 40" fill="none" xmlns="http://www.w3.org/2000/svg">
<circle cx="20" cy="20" r="19" fill="#FFC62F"/>
<path fill-rule="evenodd" clip-rule="evenodd" d="M19.8136 26.1205C19.9033 26.1976 20.0179 26.2395 20.1361 26.2383C20.2541 26.2368 20.3675 26.1925 20.4553 26.1136C20.5432 26.0348 20.5994 25.9267 20.6135 25.8096L22.1335 13.7275C22.1232 13.1848 21.8977 12.6685 21.5067 12.2921C21.1156 11.9157 20.5911 11.71 20.0484 11.7203C19.7797 11.7255 19.5146 11.7835 19.2683 11.891C19.022 11.9986 18.7993 12.1536 18.613 12.3472C18.4266 12.5408 18.2801 12.7693 18.182 13.0195C18.0839 13.2697 18.0361 13.5368 18.0412 13.8055L19.6489 25.8193C19.6654 25.9364 19.724 26.0434 19.8136 26.1205ZM18.8669 30.9775C19.2287 31.2172 19.6535 31.3442 20.0876 31.3422C20.6673 31.3397 21.2224 31.1076 21.6315 30.6967C22.0405 30.2858 22.2701 29.7297 22.2701 29.1499C22.2701 28.7159 22.1413 28.2917 21.9 27.9309C21.6586 27.5702 21.3157 27.2892 20.9145 27.1236C20.5133 26.958 20.072 26.9151 19.6465 27.0005C19.221 27.0859 18.8304 27.2956 18.5242 27.6032C18.218 27.9108 18.0099 28.3023 17.9264 28.7282C17.843 29.1541 17.8878 29.5953 18.0552 29.9957C18.2226 30.3961 18.5051 30.7378 18.8669 30.9775Z" fill="#333333"/>
</svg>
