<svg width="32" height="38" viewBox="0 0 32 38" fill="none" xmlns="http://www.w3.org/2000/svg">
<path fill-rule="evenodd" clip-rule="evenodd" d="M5.85221 4.2619C5.77384 4.34341 5.6958 4.50452 5.6958 4.83056V27.2126C5.6958 27.5065 5.76882 27.6599 5.8453 27.74C5.91881 27.8171 6.06212 27.8962 6.35714 27.8962H25.5998C25.9623 27.8962 26.1033 27.8214 26.1647 27.7602C26.2251 27.6998 26.3038 27.5569 26.3038 27.1791V11.5677L18.8865 4.10324H6.38871C6.07696 4.10324 5.92806 4.18302 5.85221 4.2619ZM5.20895 3.63294C5.51176 3.31801 5.93331 3.19971 6.38871 3.19971H19.0718C19.1905 3.19971 19.3043 3.24718 19.3883 3.3317L27.0683 11.0605C27.1525 11.1452 27.1998 11.2603 27.1998 11.3803V27.1791C27.1998 27.6486 27.1078 28.0901 26.7949 28.4023C26.4829 28.7137 26.048 28.7997 25.5998 28.7997H6.35714C5.90549 28.7997 5.49414 28.6751 5.19965 28.3665C4.90812 28.061 4.7998 27.6467 4.7998 27.2126V4.83056C4.7998 4.37368 4.90865 3.94525 5.20895 3.63294Z" fill="white"/>
<path d="M5.6958 4.83056C5.6958 4.50452 5.77384 4.34341 5.85221 4.2619C5.92806 4.18302 6.07696 4.10324 6.38871 4.10324H18.8865L26.3038 11.5677V27.1791C26.3038 27.5569 26.2251 27.6998 26.1647 27.7602C26.1033 27.8214 25.9623 27.8962 25.5998 27.8962H6.35714C6.06212 27.8962 5.91881 27.8171 5.8453 27.74C5.76882 27.6599 5.6958 27.5065 5.6958 27.2126V4.83056Z" fill="white"/>
<path fill-rule="evenodd" clip-rule="evenodd" d="M19 11.6596V11H19.6809V11.3191H27V12H19.3404C19.1524 12 19 11.8476 19 11.6596Z" fill="#79B0DE"/>
<path fill-rule="evenodd" clip-rule="evenodd" d="M5.34977 3.75399C5.24041 3.86755 5.15545 4.06847 5.15545 4.4229V27.6229C5.15545 27.945 5.23588 28.1368 5.34245 28.2481C5.44639 28.3566 5.62871 28.4442 5.95545 28.4442H25.9981C26.3869 28.4442 26.5706 28.3652 26.6658 28.2706C26.7606 28.1765 26.8443 27.9906 26.8443 27.5873V11.3576L19.0525 3.55535H5.98745C5.64508 3.55535 5.45671 3.64295 5.34977 3.75399ZM4.83757 3.26071C5.12441 2.96286 5.52981 2.84424 5.98745 2.84424H19.1999C19.2943 2.84424 19.3848 2.88176 19.4515 2.94855L27.4515 10.9592C27.5181 11.0259 27.5554 11.1162 27.5554 11.2105V27.5873C27.5554 28.0623 27.4614 28.4827 27.1669 28.7752C26.8728 29.0673 26.4555 29.1553 25.9981 29.1553H5.95545C5.50352 29.1553 5.10806 29.0314 4.82889 28.74C4.55235 28.4512 4.44434 28.0546 4.44434 27.6229V4.4229C4.44434 3.96667 4.55315 3.55604 4.83757 3.26071Z" fill="#333333"/>
<path fill-rule="evenodd" clip-rule="evenodd" d="M18.8447 11.2002V3.2002H19.5558V10.8446H27.2003V11.5558H19.2003C19.0039 11.5558 18.8447 11.3966 18.8447 11.2002Z" fill="#333333"/>
<path fill-rule="evenodd" clip-rule="evenodd" d="M9.24414 16.7999C9.24414 16.6035 9.40333 16.4443 9.5997 16.4443H22.3997C22.5961 16.4443 22.7553 16.6035 22.7553 16.7999C22.7553 16.9963 22.5961 17.1554 22.3997 17.1554H9.5997C9.40333 17.1554 9.24414 16.9963 9.24414 16.7999Z" fill="#333333"/>
<path fill-rule="evenodd" clip-rule="evenodd" d="M9.24414 20.0001C9.24414 19.8037 9.40333 19.6445 9.5997 19.6445H22.3997C22.5961 19.6445 22.7553 19.8037 22.7553 20.0001C22.7553 20.1965 22.5961 20.3556 22.3997 20.3556H9.5997C9.40333 20.3556 9.24414 20.1965 9.24414 20.0001Z" fill="#333333"/>
<path fill-rule="evenodd" clip-rule="evenodd" d="M9.24414 23.1998C9.24414 23.0034 9.40333 22.8442 9.5997 22.8442H22.3997C22.5961 22.8442 22.7553 23.0034 22.7553 23.1998C22.7553 23.3962 22.5961 23.5553 22.3997 23.5553H9.5997C9.40333 23.5553 9.24414 23.3962 9.24414 23.1998Z" fill="#333333"/>
<path d="M30.0645 36.371C30.0645 37.1281 23.5582 37.7419 15.5323 37.7419C7.50631 37.7419 1 37.1281 1 36.371C1 35.6138 7.50631 35 15.5323 35C23.5582 35 30.0645 35.6138 30.0645 36.371Z" fill="#117481"/>
</svg>
