<svg width="75" height="75" viewBox="0 0 75 75" fill="none" xmlns="http://www.w3.org/2000/svg">
<g clip-path="url(#clip0_1818_16189)">
<g clip-path="url(#clip1_1818_16189)">
<rect width="75" height="75" rx="5" fill="#4C9E45"/>
<ellipse opacity="0.5" cx="37.235" cy="62.7547" rx="19.235" ry="1.75471" fill="#1E5632"/>
</g>
<path d="M22 22C22 19.2386 24.2386 17 27 17H49.7095C52.0791 17 54 18.9209 54 21.2905V24.5932V44C54 46.7614 51.7614 49 49 49H27C24.2386 49 22 46.7614 22 44V22Z" fill="white"/>
<path fill-rule="evenodd" clip-rule="evenodd" d="M49.6666 17.1666H26.3333C24.0321 17.1666 22.1666 19.0321 22.1666 21.3333V44.6666C22.1666 46.9678 24.0321 48.8333 26.3333 48.8333H49.6666C51.9678 48.8333 53.8333 46.9678 53.8333 44.6666V21.3333C53.8333 19.0321 51.9678 17.1666 49.6666 17.1666ZM26.3333 16.3333C23.5719 16.3333 21.3333 18.5718 21.3333 21.3333V44.6666C21.3333 47.428 23.5719 49.6666 26.3333 49.6666H49.6666C52.4281 49.6666 54.6666 47.428 54.6666 44.6666V21.3333C54.6666 18.5718 52.4281 16.3333 49.6666 16.3333H26.3333Z" fill="#333333"/>
<path fill-rule="evenodd" clip-rule="evenodd" d="M54.6666 26.3333H21.3333V25.5H54.6666V26.3333Z" fill="#333333"/>
<path fill-rule="evenodd" clip-rule="evenodd" d="M33 26.3334L33 49.6667L32.1667 49.6667L32.1667 26.3334L33 26.3334Z" fill="#333333"/>
</g>
<defs>
<clipPath id="clip0_1818_16189">
<rect width="75" height="75" fill="white"/>
</clipPath>
<clipPath id="clip1_1818_16189">
<rect width="75" height="75" fill="white"/>
</clipPath>
</defs>
</svg>
