<svg width="75" height="75" viewBox="0 0 75 75" fill="none" xmlns="http://www.w3.org/2000/svg">
<g clip-path="url(#clip0_2_2064)">
<rect width="75" height="75" rx="5" fill="#43B4E4"/>
<ellipse cx="37.235" cy="62.7547" rx="19.235" ry="1.75471" fill="#3A9AC2"/>
<path d="M33.3655 49.7861H33.4619C33.5812 49.7873 33.697 49.7444 33.7874 49.6656L44.5822 48.0916C44.6074 48.1594 44.6485 48.22 44.7019 48.2682C44.7506 48.3205 44.811 48.3601 44.8781 48.3838C44.9451 48.4075 45.0169 48.4146 45.0872 48.4044L45.5688 47.373L45.9155 43.481C46.9653 42.6637 51.8871 38.3921 51.6945 32.4081C51.5403 27.4458 50.5676 21.5007 45.3858 19.4087C40.204 17.3167 33.5389 18.3092 30.8517 21.2963C28.1645 24.2835 27.5384 25.636 27.0665 27.6987C26.6812 29.4502 24.0711 34.9963 23.2138 36.7088C22.9705 37.0772 22.8358 37.5079 22.8256 37.9507C22.8153 38.3934 22.93 38.83 23.156 39.2095C23.3701 39.5114 23.6653 39.7451 24.0066 39.8831C24.3479 40.021 24.7212 40.0574 25.0824 39.9879L25.1007 39.986C25.7667 39.9187 26.3166 39.8632 26.4693 40.056C26.6234 40.2506 26.7197 40.8733 26.6234 41.9047C26.4501 43.9383 26.8738 45.3784 27.6829 45.9427C28.492 46.5071 29.6092 46.5654 31.0828 46.0206H31.2081C31.9183 45.7176 32.653 45.4767 33.4041 45.3005C33.3883 45.7055 33.3432 46.1087 33.2692 46.5071L32.9417 49.2412C32.9281 49.37 32.9647 49.499 33.0439 49.6008C33.1231 49.7026 33.2385 49.7691 33.3655 49.7861Z" fill="white"/>
<path fill-rule="evenodd" clip-rule="evenodd" d="M37.6605 40.1153H40.0681C40.17 40.1003 40.2637 40.0486 40.3332 39.969C40.4026 39.8894 40.4435 39.787 40.4487 39.6792L40.6965 37.7217C41.3157 37.5502 41.9109 37.2945 42.4668 36.961L43.9538 38.167C44.0354 38.2396 44.1389 38.2794 44.2459 38.2794C44.3529 38.2794 44.4564 38.2396 44.538 38.167L46.2197 36.4044C46.2964 36.327 46.3433 36.2229 46.3514 36.1117C46.3525 36.0971 46.3529 36.0826 46.3526 36.0681L47.2282 37.311C47.2973 37.4061 47.3307 37.5244 47.3219 37.6435C47.3132 37.7627 47.263 37.8743 47.1808 37.9571L45.3789 39.8457C45.2915 39.9234 45.1806 39.9661 45.066 39.9661C44.9513 39.9661 44.8404 39.9234 44.753 39.8457L43.1598 38.5535C42.5642 38.9108 41.9265 39.1848 41.2631 39.3686L40.9975 41.4659C40.992 41.5813 40.9482 41.6911 40.8738 41.7764C40.7994 41.8616 40.6989 41.917 40.5898 41.9331H38.0102C37.8968 41.9319 37.7875 41.8881 37.7023 41.8097C37.617 41.7312 37.5614 41.6234 37.5455 41.5057L37.3523 39.9797C37.359 39.9867 37.3659 39.9935 37.3731 40.0001C37.4527 40.0733 37.5546 40.1141 37.6605 40.1153ZM37.1843 39.3809L36.9789 37.7588C36.3885 37.5936 35.8204 37.3504 35.2883 37.0352L33.7305 38.2134C33.6459 38.2766 33.5428 38.3066 33.4392 38.2981C33.3357 38.2896 33.2382 38.2432 33.164 38.167L31.8007 36.7381L31.3907 37.3011C31.3127 37.3908 31.2695 37.5077 31.2695 37.6291C31.2695 37.7504 31.3127 37.8674 31.3907 37.9571L33.1926 39.8457C33.2721 39.9273 33.3765 39.977 33.4874 39.9861C33.5984 39.9952 33.7089 39.9631 33.7995 39.8954L35.4686 38.633C36.0099 38.9537 36.586 39.2048 37.1843 39.3809ZM32.216 34.7845L32.6241 34.2242C32.305 33.6432 32.0637 33.0188 31.9071 32.3688L30.0395 32.1183C29.9323 32.1027 29.8341 32.0473 29.7626 31.9622C29.6911 31.877 29.6512 31.7678 29.6501 31.6544V29.8123C29.6125 29.8376 29.5781 29.8684 29.5482 29.904C29.4716 29.9953 29.4288 30.1123 29.4276 30.2338V32.8679C29.4288 32.9894 29.4716 33.1064 29.5482 33.1976C29.6247 33.2888 29.7301 33.3482 29.8449 33.3649L31.8459 33.6332C31.9407 34.0269 32.0646 34.4118 32.216 34.7845ZM32.3426 27.2277C32.4212 27.0518 32.5063 26.879 32.5975 26.7096L31.4575 25.1043L31.3907 25.1744C31.3104 25.2583 31.2614 25.3697 31.2527 25.4882C31.244 25.6068 31.2762 25.7246 31.3433 25.8205L32.3426 27.2277ZM46.0669 35.5216C46.372 34.949 46.6061 34.3378 46.7635 33.7028L48.7646 33.4344C48.8794 33.4178 48.9847 33.3584 49.0613 33.2672C49.1379 33.176 49.1807 33.059 49.1818 32.9375V30.2736C49.1807 30.152 49.1379 30.035 49.0613 29.9438C48.9847 29.8526 48.8794 29.7932 48.7646 29.7766L48.0873 29.6824V31.7194C48.0862 31.8328 48.0463 31.942 47.9748 32.0271C47.9034 32.1123 47.8051 32.1677 47.6979 32.1832L45.8303 32.4337C45.6765 33.054 45.4443 33.6499 45.1399 34.2057L46.0669 35.5216ZM46.4926 28.6015C46.3544 28.2252 46.1882 27.8603 45.9954 27.5103L47.2282 25.8205C47.3036 25.7314 47.3452 25.6165 47.3452 25.4974C47.3452 25.3784 47.3036 25.2635 47.2282 25.1744L45.4358 23.2858C45.3493 23.2061 45.2381 23.1622 45.1229 23.1622C45.091 23.1622 45.0594 23.1655 45.0286 23.1721L46.264 24.4738C46.3343 24.557 46.3731 24.6642 46.3731 24.7753C46.3731 24.8864 46.3343 24.9937 46.264 25.0768L45.1133 26.654C45.4332 27.2347 45.6744 27.8591 45.8303 28.5094L46.4926 28.6015ZM41.2636 23.3173L41.0544 21.6656C41.0405 21.547 40.9854 21.4379 40.8998 21.3591C40.8141 21.2803 40.7037 21.2373 40.5898 21.2382H40.5067L40.7496 23.1564C40.923 23.2032 41.0944 23.2569 41.2636 23.3173Z" fill="#79B0DE"/>
<path fill-rule="evenodd" clip-rule="evenodd" d="M38.9131 33.6085C40.5496 33.6085 41.8763 32.2187 41.8763 30.5042C41.8763 28.7898 40.5496 27.4 38.9131 27.4C38.7037 27.4 38.4993 27.4228 38.3022 27.4661C39.6086 27.6289 40.6216 28.7935 40.6216 30.2059C40.6216 31.7298 39.4424 32.9652 37.9877 32.9652C37.5523 32.9652 37.1416 32.8546 36.7798 32.6586C37.3187 33.2442 38.0753 33.6085 38.9131 33.6085Z" fill="#79B0DE"/>
<path d="M33.368 50.5981H33.2696C33.1398 50.5801 33.0218 50.5096 32.9409 50.4017C32.86 50.2938 32.8225 50.157 32.8365 50.0206L33.1712 47.1228C33.2468 46.7006 33.2929 46.2733 33.309 45.8441C32.5414 46.0307 31.7905 46.286 31.0646 46.6072H30.9366C29.4305 47.1847 28.2887 47.1228 27.4618 46.5247C26.6349 45.9266 26.2018 44.4003 26.379 42.245C26.4774 41.1519 26.379 40.4919 26.2215 40.2856C26.064 40.0794 25.493 40.1412 24.804 40.2134C24.4349 40.2871 24.0534 40.2485 23.7045 40.1023C23.3557 39.9561 23.054 39.7084 22.8352 39.3884C22.6042 38.9863 22.487 38.5236 22.4975 38.0543C22.5079 37.585 22.6456 37.1285 22.8943 36.7381C23.7704 34.9231 26.438 29.045 26.8318 27.1887C27.3141 25.0025 27.954 23.5691 30.7004 20.4031C33.4468 17.2372 40.2587 16.1853 45.5546 18.4025C50.8505 20.6197 51.8447 26.9206 52.0022 32.18C52.1991 38.5222 47.169 43.0494 46.096 43.9156L45.7416 48.0406L48.1927 47.7416C48.2574 47.7341 48.3228 47.7401 48.3852 47.7591C48.4476 47.7781 48.5059 47.8099 48.5566 47.8525C48.6073 47.8951 48.6496 47.9477 48.6809 48.0075C48.7122 48.0672 48.7319 48.1327 48.739 48.2005C48.7462 48.2682 48.7405 48.3367 48.7223 48.4021C48.7041 48.4675 48.6738 48.5285 48.6332 48.5817C48.5925 48.6348 48.5422 48.6791 48.4852 48.7118C48.4282 48.7446 48.3656 48.7654 48.301 48.7728L45.2494 49.1337C45.1776 49.1445 45.1043 49.137 45.0357 49.1119C44.9672 49.0868 44.9055 49.0447 44.8557 48.9894C44.8011 48.9382 44.7591 48.874 44.7334 48.8022C44.7077 48.7303 44.699 48.653 44.708 48.5769L45.1313 43.6269C45.1505 43.4817 45.2207 43.3493 45.3282 43.2556C45.3872 43.2556 51.1754 38.615 50.9883 32.2419C50.8013 24.8787 48.9999 20.9187 45.1805 19.3616C40.2587 17.3712 33.998 18.155 31.4682 21.0941C28.7513 24.2291 28.2591 25.4666 27.8358 27.4259C27.3633 29.5916 24.3708 36.0266 23.7999 37.2022C23.6488 37.4344 23.5576 37.7037 23.5352 37.9838C23.5127 38.2638 23.5599 38.5452 23.6719 38.8006C23.7956 38.9557 23.9568 39.0729 24.1387 39.1401C24.3206 39.2072 24.5164 39.2218 24.7055 39.1822C25.5816 39.0894 26.4085 39.0069 26.9401 39.5534C27.4716 40.1 27.5208 40.8012 27.3929 42.3378C27.2452 44.06 27.4913 45.2253 28.0918 45.6997C28.6922 46.1741 29.4305 46.0916 30.6019 45.6481L30.7201 45.5966C32.7676 44.8025 33.4665 44.5653 33.9685 44.9675C34.4705 45.3697 34.3229 45.9987 34.1457 47.2466V47.5662L33.8701 50.1444C33.8533 50.271 33.7931 50.3869 33.7007 50.4704C33.6083 50.5539 33.4901 50.5993 33.368 50.5981Z" fill="#0B3C61"/>
<path d="M30.6019 51.0106C30.485 51.0119 30.3718 50.9687 30.283 50.889C30.1943 50.8093 30.1362 50.6986 30.1195 50.5775C30.1098 50.5105 30.1127 50.442 30.1282 50.3762C30.1437 50.3103 30.1714 50.2483 30.2098 50.1937C30.2482 50.1391 30.2966 50.093 30.352 50.058C30.4075 50.023 30.469 49.9998 30.533 49.9897L35.9766 49.1853C36.0407 49.1736 36.1065 49.1756 36.1699 49.1913C36.2333 49.2069 36.293 49.2359 36.3454 49.2763C36.3979 49.3168 36.4419 49.368 36.475 49.4268C36.508 49.4856 36.5293 49.5508 36.5377 49.6184C36.5548 49.7534 36.5213 49.8901 36.4442 49.9998C36.3671 50.1094 36.2524 50.1834 36.1242 50.2062L30.6806 51.0416L30.6019 51.0106Z" fill="#0B3C61"/>
<path d="M38.91 34.1806C38.0734 34.1852 37.2608 33.887 36.6098 33.3364C35.9587 32.7859 35.5091 32.0168 35.3367 31.159C35.3238 31.0927 35.3235 31.0243 35.3358 30.9578C35.3481 30.8913 35.3727 30.828 35.4084 30.7715C35.444 30.715 35.49 30.6664 35.5435 30.6285C35.5971 30.5906 35.6573 30.5641 35.7206 30.5506C35.7841 30.5356 35.8498 30.5342 35.9137 30.5464C35.9777 30.5587 36.0386 30.5844 36.0929 30.622C36.1472 30.6595 36.1936 30.7082 36.2294 30.7651C36.2653 30.8219 36.2898 30.8858 36.3014 30.9528C36.4019 31.4625 36.6383 31.932 36.983 32.3068C37.3278 32.6815 37.767 32.9462 38.2495 33.0701C38.7321 33.1941 39.2383 33.1722 39.7094 33.0071C40.1806 32.8419 40.5974 32.5402 40.9115 32.137C41.2257 31.7337 41.4243 31.2455 41.4844 30.7288C41.5445 30.2121 41.4635 29.6882 41.2509 29.2177C41.0383 28.7473 40.7028 28.3496 40.2833 28.0708C39.8637 27.792 39.3773 27.6435 38.8805 27.6425C38.357 27.641 37.8454 27.8064 37.4138 28.1169C37.3037 28.192 37.1699 28.219 37.0411 28.192C36.9123 28.165 36.7987 28.0862 36.7247 27.9725C36.6535 27.8588 36.628 27.7203 36.6538 27.587C36.6796 27.4537 36.7546 27.3365 36.8625 27.2609C37.4432 26.8456 38.1282 26.6196 38.8313 26.6112C39.7894 26.6112 40.7083 27.01 41.3858 27.7197C42.0633 28.4295 42.4439 29.3922 42.4439 30.3959C42.4439 31.3997 42.0633 32.3623 41.3858 33.0721C40.7083 33.7819 39.7894 34.1806 38.8313 34.1806H38.91Z" fill="#0B3C61"/>
<path d="M40.2587 41.1519H37.5812C37.4635 41.1506 37.3501 41.1052 37.2616 41.0238C37.1731 40.9425 37.1153 40.8306 37.0989 40.7084L36.8232 38.5325C36.1666 38.3488 35.5348 38.0785 34.9431 37.7281L33.2106 39.0378C33.1165 39.108 33.0018 39.1413 32.8866 39.1319C32.7715 39.1225 32.6631 39.0709 32.5806 38.9862L30.7103 37.0269C30.6293 36.9338 30.5845 36.8124 30.5845 36.6865C30.5845 36.5606 30.6293 36.4393 30.7103 36.3462L31.9801 34.6034C31.6252 33.9575 31.3569 33.2635 31.1828 32.5409L29.1057 32.2625C28.9865 32.2452 28.8772 32.1836 28.7977 32.089C28.7182 31.9943 28.6738 31.8729 28.6726 31.7469V29.014C28.6738 28.888 28.7182 28.7666 28.7977 28.6719C28.8772 28.5773 28.9865 28.5157 29.1057 28.4984L31.1828 28.2097C31.3599 27.5256 31.6178 26.8674 31.9506 26.2503L30.661 24.4353C30.5914 24.3359 30.558 24.2136 30.567 24.0906C30.5761 23.9676 30.6269 23.8521 30.7103 23.765L32.5806 21.8056C32.6704 21.7229 32.7859 21.6773 32.9054 21.6773C33.025 21.6773 33.1404 21.7229 33.2303 21.8056L34.884 23.1462C35.5002 22.7712 36.1626 22.4866 36.8528 22.3006L37.1284 20.1247C37.1429 20.0016 37.2 19.8885 37.289 19.8067C37.3779 19.725 37.4924 19.6803 37.6107 19.6812H40.2587C40.377 19.6803 40.4915 19.725 40.5805 19.8067C40.6694 19.8885 40.7266 20.0016 40.741 20.1247L41.0167 22.3006C41.7068 22.4866 42.3693 22.7712 42.9854 23.1462L44.6392 21.8056C44.729 21.7229 44.8445 21.6773 44.964 21.6773C45.0836 21.6773 45.199 21.7229 45.2889 21.8056L47.1493 23.765C47.2275 23.8574 47.2707 23.9766 47.2707 24.1001C47.2707 24.2236 47.2275 24.3429 47.1493 24.4353L45.8696 26.1884C46.2253 26.8339 46.4937 27.528 46.667 28.2509L48.744 28.5397C48.8632 28.557 48.9725 28.6185 49.052 28.7132C49.1315 28.8078 49.1759 28.9292 49.1771 29.0553V31.819C49.1759 31.9451 49.1315 32.0665 49.052 32.1611C48.9725 32.2558 48.8632 32.3174 48.744 32.3347L46.667 32.6131C46.496 33.3026 46.2378 33.965 45.8992 34.5828L47.1493 36.3565C47.221 36.4551 47.2556 36.5779 47.2466 36.7015C47.2375 36.8251 47.1854 36.9409 47.1001 37.0269L45.2298 38.9862C45.1391 39.0669 45.0239 39.1112 44.905 39.1112C44.786 39.1112 44.6708 39.0669 44.5801 38.9862L42.9264 37.6456C42.3081 38.0163 41.6463 38.3006 40.9576 38.4912L40.682 40.6672C40.6762 40.7869 40.6308 40.9008 40.5536 40.9893C40.4763 41.0777 40.372 41.1352 40.2587 41.1519ZM38.0439 40.1206H39.8256L40.0815 38.0581C40.0974 37.9531 40.1422 37.8552 40.2104 37.7764C40.2786 37.6977 40.3672 37.6414 40.4654 37.6147C41.2647 37.4305 42.0274 37.1025 42.7196 36.6453C42.803 36.5831 42.9028 36.5497 43.0051 36.5497C43.1074 36.5497 43.2072 36.5831 43.2906 36.6453L44.8754 37.924L46.1354 36.5937L44.9443 34.8612C44.8893 34.776 44.8599 34.6754 44.8599 34.5725C44.8599 34.4696 44.8893 34.369 44.9443 34.2837C45.3693 33.5781 45.6725 32.7997 45.8401 31.984C45.8651 31.9058 45.9077 31.835 45.9642 31.7776C46.0207 31.7202 46.0896 31.6778 46.165 31.654L48.1337 31.3756V29.5194L46.165 29.2409C46.0655 29.225 45.9729 29.1781 45.8992 29.1064C45.8255 29.0347 45.774 28.9414 45.7515 28.8387C45.5729 28.0007 45.2564 27.2016 44.8164 26.4772C44.7592 26.3909 44.7286 26.2883 44.7286 26.1833C44.7286 26.0782 44.7592 25.9757 44.8164 25.8894L46.0271 24.229L44.8459 22.8575L43.261 24.1362C43.1777 24.1984 43.0779 24.2318 42.9756 24.2318C42.8733 24.2318 42.7735 24.1984 42.6901 24.1362C42.003 23.6552 41.2397 23.306 40.4359 23.105C40.3372 23.0827 40.2475 23.0292 40.1788 22.9518C40.1101 22.8743 40.0659 22.7766 40.052 22.6719L39.796 20.6094H38.0143L37.7584 22.6719C37.7459 22.7771 37.7021 22.8756 37.6332 22.9534C37.5643 23.0311 37.4738 23.0841 37.3745 23.105C36.5713 23.3081 35.8084 23.6571 35.1203 24.1362C35.039 24.199 34.9407 24.2329 34.8397 24.2329C34.7387 24.2329 34.6404 24.199 34.5592 24.1362L32.9743 22.8575L31.7045 24.1878L32.8956 25.9203C32.9511 26.0034 32.9808 26.1024 32.9808 26.2039C32.9808 26.3053 32.9511 26.4043 32.8956 26.4875C32.4763 27.1962 32.1736 27.9735 31.9998 28.7872C31.9786 28.8905 31.9275 28.9845 31.8535 29.0565C31.7796 29.1284 31.6863 29.1748 31.5864 29.1894L29.6176 29.4678V31.324L31.5864 31.6025C31.6855 31.6149 31.7785 31.6593 31.8526 31.7295C31.9267 31.7997 31.9781 31.8922 31.9998 31.9944C32.1764 32.8363 32.4929 33.6391 32.935 34.3662C32.9921 34.4525 33.0227 34.5551 33.0227 34.6601C33.0227 34.7652 32.9921 34.8677 32.935 34.954L31.7143 36.6144L32.9743 37.9447L34.6281 36.6865C34.7104 36.6314 34.806 36.6022 34.9037 36.6022C35.0014 36.6022 35.097 36.6314 35.1793 36.6865C35.8538 37.1299 36.5965 37.4474 37.3745 37.625C37.4739 37.6492 37.5639 37.7047 37.6325 37.7839C37.7011 37.8631 37.745 37.9624 37.7584 38.0684L38.0439 40.1206Z" fill="#0B3C61"/>
</g>
<defs>
<clipPath id="clip0_2_2064">
<rect width="75" height="75" fill="white"/>
</clipPath>
</defs>
</svg>
