<svg width="32" height="32" viewBox="0 0 32 32" fill="none" xmlns="http://www.w3.org/2000/svg">
<path fill-rule="evenodd" clip-rule="evenodd" d="M6.3999 6.7999C6.3999 6.57899 6.59604 6.3999 6.838 6.3999H24.3618C24.6038 6.3999 24.7999 6.57899 24.7999 6.7999C24.7999 7.02082 24.6038 7.1999 24.3618 7.1999H6.838C6.59604 7.1999 6.3999 7.02082 6.3999 6.7999Z" fill="white" stroke="white" stroke-linecap="round"/>
<path fill-rule="evenodd" clip-rule="evenodd" d="M21.9734 13.6001C22.2091 13.6001 22.4001 13.8048 22.4001 14.0572L22.4001 15.4287C22.4001 16.1861 21.827 16.8001 21.1201 16.8001L10.8801 16.8001C10.1732 16.8001 9.6001 16.1861 9.6001 15.4287L9.6001 14.0572C9.6001 13.8048 9.79112 13.6001 10.0268 13.6001C10.2624 13.6001 10.4534 13.8048 10.4534 14.0572L10.4534 15.4287C10.4534 15.6811 10.6445 15.8858 10.8801 15.8858L21.1201 15.8858C21.3557 15.8858 21.5468 15.6811 21.5468 15.4287L21.5468 14.0572C21.5468 13.8048 21.7378 13.6001 21.9734 13.6001Z" fill="white" stroke="white" stroke-linecap="round"/>
<path fill-rule="evenodd" clip-rule="evenodd" d="M8.80005 4.4C8.80005 4.17909 9.00152 4 9.25005 4L22.75 4C22.9986 4 23.2 4.17909 23.2 4.4C23.2 4.62091 22.9986 4.8 22.75 4.8L9.25005 4.8C9.00152 4.8 8.80005 4.62091 8.80005 4.4Z" fill="white" stroke="white" stroke-linecap="round"/>
<path fill-rule="evenodd" clip-rule="evenodd" d="M27.0399 10.4763H4.1599C3.67389 10.4763 3.2799 10.8686 3.2799 11.3525V26.2477C3.2799 26.7316 3.67389 27.1239 4.1599 27.1239H27.0399C27.5259 27.1239 27.9199 26.7316 27.9199 26.2477V11.3525C27.9199 10.8686 27.5259 10.4763 27.0399 10.4763ZM4.1599 9.6001C3.18788 9.6001 2.3999 10.3847 2.3999 11.3525V26.2477C2.3999 27.2155 3.18788 28.0001 4.1599 28.0001H27.0399C28.0119 28.0001 28.7999 27.2155 28.7999 26.2477V11.3525C28.7999 10.3847 28.0119 9.6001 27.0399 9.6001H4.1599Z" fill="white" stroke="white"/>
</svg>
