<svg width="32" height="32" viewBox="0 0 32 32" fill="none" xmlns="http://www.w3.org/2000/svg">
<path d="M12.835 29.0896H12.755C12.6495 29.0756 12.5536 29.0209 12.4879 28.9373C12.4221 28.8536 12.3917 28.7475 12.403 28.6416L12.675 26.3936C12.7365 26.0661 12.7739 25.7346 12.787 25.4016C12.1632 25.5465 11.553 25.7445 10.963 25.9936H10.859C9.63501 26.4416 8.70701 26.3936 8.03501 25.9296C7.36301 25.4656 7.01101 24.2816 7.15501 22.6096C7.23501 21.7616 7.15501 21.2496 7.02701 21.0896C6.89901 20.9296 6.43501 20.9776 5.87501 21.0336C5.57505 21.0908 5.265 21.0608 4.98149 20.9474C4.69797 20.834 4.45283 20.6419 4.27501 20.3936C4.08722 20.0817 3.99202 19.7227 4.00052 19.3587C4.00902 18.9946 4.12087 18.6405 4.32301 18.3376C5.03501 16.9296 7.20301 12.3696 7.52301 10.9296C7.91501 9.23364 8.43501 8.12164 10.667 5.66564C12.899 3.20964 18.435 2.39364 22.739 4.11364C27.043 5.83364 27.851 10.7216 27.979 14.8016C28.139 19.7216 24.051 23.2336 23.179 23.9056L22.891 27.1056L24.883 26.8736C24.9355 26.8679 24.9887 26.8725 25.0394 26.8872C25.0902 26.902 25.1375 26.9266 25.1787 26.9597C25.22 26.9927 25.2543 27.0336 25.2797 27.0799C25.3052 27.1262 25.3212 27.1771 25.327 27.2296C25.3328 27.2822 25.3282 27.3353 25.3134 27.3861C25.2986 27.4368 25.274 27.4841 25.241 27.5254C25.2079 27.5666 25.1671 27.6009 25.1207 27.6263C25.0744 27.6518 25.0235 27.6679 24.971 27.6736L22.491 27.9536C22.4326 27.962 22.373 27.9562 22.3173 27.9367C22.2617 27.9172 22.2115 27.8846 22.171 27.8416C22.1266 27.802 22.0925 27.7521 22.0716 27.6964C22.0507 27.6407 22.0436 27.5807 22.051 27.5216L22.395 23.6816C22.4106 23.5691 22.4676 23.4663 22.555 23.3936C22.603 23.3936 27.307 19.7936 27.155 14.8496C27.003 9.13764 25.539 6.06564 22.435 4.85764C18.435 3.31364 13.347 3.92164 11.291 6.20164C9.08301 8.63364 8.68301 9.59364 8.33901 11.1136C7.95501 12.7936 5.52301 17.7856 5.05901 18.6976C4.9362 18.8778 4.86208 19.0867 4.84385 19.304C4.82563 19.5212 4.86392 19.7395 4.95501 19.9376C5.0555 20.0579 5.18655 20.1489 5.33437 20.201C5.48219 20.2531 5.64132 20.2643 5.79501 20.2336C6.50701 20.1616 7.17901 20.0976 7.61101 20.5216C8.04301 20.9456 8.08301 21.4896 7.97901 22.6816C7.85901 24.0176 8.05901 24.9216 8.54701 25.2896C9.03501 25.6576 9.63501 25.5936 10.587 25.2496L10.683 25.2096C12.347 24.5936 12.915 24.4096 13.323 24.7216C13.731 25.0336 13.611 25.5216 13.467 26.4896V26.7376L13.243 28.7376C13.2294 28.8359 13.1805 28.9258 13.1054 28.9906C13.0303 29.0554 12.9342 29.0906 12.835 29.0896Z" fill="white" stroke="white" stroke-width="0.5"/>
<path d="M10.587 29.4096C10.4921 29.4106 10.4 29.377 10.3279 29.3152C10.2558 29.2535 10.2086 29.1676 10.195 29.0736C10.1871 29.0216 10.1895 28.9685 10.2021 28.9174C10.2146 28.8663 10.2372 28.8182 10.2684 28.7759C10.2996 28.7335 10.3389 28.6977 10.3839 28.6706C10.429 28.6434 10.479 28.6254 10.531 28.6176L14.955 27.9936C15.0072 27.9845 15.0606 27.9861 15.1121 27.9982C15.1636 28.0104 15.2122 28.0328 15.2548 28.0642C15.2974 28.0956 15.3332 28.1353 15.3601 28.1809C15.3869 28.2265 15.4042 28.2771 15.411 28.3296C15.4249 28.4343 15.3977 28.5404 15.335 28.6254C15.2724 28.7105 15.1792 28.7679 15.075 28.7856L10.651 29.4336L10.587 29.4096Z" fill="white" stroke="white" stroke-width="0.5"/>
<path d="M17.3391 16.3534C16.6591 16.357 15.9988 16.1256 15.4697 15.6986C14.9406 15.2715 14.5751 14.6748 14.4351 14.0094C14.4246 13.958 14.4243 13.9049 14.4343 13.8533C14.4443 13.8018 14.4643 13.7526 14.4933 13.7088C14.5223 13.665 14.5596 13.6273 14.6032 13.5979C14.6467 13.5685 14.6956 13.5479 14.7471 13.5374C14.7987 13.5258 14.852 13.5247 14.904 13.5342C14.956 13.5437 15.0055 13.5637 15.0496 13.5928C15.0937 13.6219 15.1315 13.6597 15.1606 13.7038C15.1897 13.7479 15.2096 13.7975 15.2191 13.8494C15.3008 14.2449 15.4928 14.6091 15.773 14.8998C16.0533 15.1905 16.4101 15.3958 16.8023 15.492C17.1945 15.5881 17.6058 15.5712 17.9888 15.443C18.3717 15.3149 18.7104 15.0809 18.9657 14.7681C19.221 14.4553 19.3825 14.0765 19.4313 13.6757C19.4801 13.2749 19.4143 12.8684 19.2415 12.5035C19.0688 12.1385 18.7961 11.83 18.4551 11.6137C18.1142 11.3974 17.7189 11.2822 17.3151 11.2814C16.8896 11.2803 16.4739 11.4086 16.1231 11.6494C16.0337 11.7078 15.9249 11.7287 15.8202 11.7078C15.7155 11.6868 15.6232 11.6257 15.5631 11.5374C15.5052 11.4493 15.4845 11.3418 15.5055 11.2384C15.5264 11.135 15.5874 11.0441 15.6751 10.9854C16.147 10.6633 16.7037 10.4879 17.2751 10.4814C18.0538 10.4814 18.8006 10.7908 19.3512 11.3414C19.9018 11.892 20.2111 12.6388 20.2111 13.4174C20.2111 14.1961 19.9018 14.9429 19.3512 15.4935C18.8006 16.0441 18.0538 16.3534 17.2751 16.3534H17.3391Z" fill="white" stroke="white" stroke-width="0.5"/>
<path d="M18.435 21.7615H16.259C16.1634 21.7605 16.0712 21.7253 15.9993 21.6621C15.9273 21.599 15.8804 21.5122 15.867 21.4175L15.643 19.7295C15.1094 19.587 14.5959 19.3773 14.115 19.1055L12.707 20.1215C12.6306 20.176 12.5374 20.2018 12.4438 20.1945C12.3502 20.1872 12.2621 20.1472 12.195 20.0815L10.675 18.5615C10.6093 18.4893 10.5728 18.3951 10.5728 18.2975C10.5728 18.1998 10.6093 18.1057 10.675 18.0335L11.707 16.6815C11.4186 16.1804 11.2006 15.642 11.059 15.0815L9.37104 14.8655C9.27417 14.8521 9.18534 14.8043 9.12073 14.7309C9.05612 14.6575 9.02004 14.5633 9.01904 14.4655V12.3455C9.02004 12.2477 9.05612 12.1535 9.12073 12.0801C9.18534 12.0067 9.27417 11.9589 9.37104 11.9455L11.059 11.7215C11.203 11.1908 11.4126 10.6802 11.683 10.2015L10.635 8.79348C10.5784 8.71635 10.5513 8.62147 10.5586 8.52606C10.566 8.43066 10.6073 8.34104 10.675 8.27348L12.195 6.75348C12.268 6.68935 12.3619 6.65399 12.459 6.65399C12.5562 6.65399 12.65 6.68935 12.723 6.75348L14.067 7.79348C14.5678 7.50254 15.1062 7.2818 15.667 7.13748L15.891 5.44948C15.9028 5.35404 15.9493 5.26626 16.0215 5.20283C16.0938 5.1394 16.1869 5.10476 16.283 5.10548H18.435C18.5312 5.10476 18.6243 5.1394 18.6966 5.20283C18.7688 5.26626 18.8153 5.35404 18.827 5.44948L19.051 7.13748C19.6119 7.2818 20.1503 7.50254 20.651 7.79348L21.995 6.75348C22.068 6.68935 22.1619 6.65399 22.259 6.65399C22.3562 6.65399 22.45 6.68935 22.523 6.75348L24.035 8.27348C24.0986 8.34518 24.1337 8.43767 24.1337 8.53348C24.1337 8.62929 24.0986 8.72178 24.035 8.79348L22.995 10.1535C23.2841 10.6542 23.5022 11.1927 23.643 11.7535L25.331 11.9775C25.4279 11.9909 25.5167 12.0387 25.5814 12.1121C25.646 12.1855 25.6821 12.2797 25.683 12.3775V14.5215C25.6821 14.6193 25.646 14.7135 25.5814 14.7869C25.5167 14.8603 25.4279 14.9081 25.331 14.9215L23.643 15.1375C23.5041 15.6723 23.2942 16.1862 23.019 16.6655L24.035 18.0415C24.0933 18.118 24.1214 18.2132 24.1141 18.3091C24.1067 18.405 24.0643 18.4948 23.995 18.5615L22.475 20.0815C22.4013 20.1441 22.3077 20.1784 22.211 20.1784C22.1143 20.1784 22.0208 20.1441 21.947 20.0815L20.603 19.0415C20.1006 19.329 19.5627 19.5496 19.003 19.6975L18.779 21.3855C18.7744 21.4784 18.7375 21.5667 18.6747 21.6354C18.6119 21.704 18.5272 21.7486 18.435 21.7615ZM16.635 20.9615H18.083L18.291 19.3615C18.3039 19.28 18.3403 19.2041 18.3958 19.143C18.4512 19.0819 18.5232 19.0383 18.603 19.0175C19.2526 18.8746 19.8724 18.6202 20.435 18.2655C20.5028 18.2172 20.5839 18.1913 20.667 18.1913C20.7502 18.1913 20.8313 18.2172 20.899 18.2655L22.187 19.2575L23.211 18.2255L22.243 16.8815C22.1983 16.8153 22.1744 16.7373 22.1744 16.6575C22.1744 16.5776 22.1983 16.4996 22.243 16.4335C22.5884 15.8861 22.8348 15.2822 22.971 14.6495C22.9914 14.5888 23.0259 14.5339 23.0719 14.4893C23.1178 14.4448 23.1738 14.4119 23.235 14.3935L24.835 14.1775V12.7375L23.235 12.5215C23.1542 12.5091 23.079 12.4728 23.0191 12.4171C22.9592 12.3615 22.9173 12.2892 22.899 12.2095C22.7539 11.5594 22.4967 10.9395 22.139 10.3775C22.0926 10.3105 22.0677 10.231 22.0677 10.1495C22.0677 10.068 22.0926 9.98844 22.139 9.92148L23.123 8.63348L22.163 7.56948L20.875 8.56148C20.8073 8.60971 20.7262 8.63563 20.643 8.63563C20.5599 8.63563 20.4788 8.60971 20.411 8.56148C19.8526 8.18831 19.2323 7.91742 18.579 7.76148C18.4989 7.74422 18.4259 7.70272 18.3701 7.64262C18.3143 7.58252 18.2783 7.50672 18.267 7.42548L18.059 5.82548H16.611L16.403 7.42548C16.3929 7.50715 16.3573 7.58355 16.3013 7.64385C16.2453 7.70416 16.1717 7.74531 16.091 7.76148C15.4383 7.91902 14.8183 8.18978 14.259 8.56148C14.193 8.6102 14.1131 8.63649 14.031 8.63649C13.949 8.63649 13.8691 8.6102 13.803 8.56148L12.515 7.56948L11.483 8.60148L12.451 9.94548C12.4961 10.01 12.5203 10.0868 12.5203 10.1655C12.5203 10.2442 12.4961 10.321 12.451 10.3855C12.1103 10.9353 11.8643 11.5383 11.723 12.1695C11.7058 12.2497 11.6643 12.3226 11.6042 12.3784C11.5441 12.4342 11.4683 12.4702 11.387 12.4815L9.78704 12.6975V14.1375L11.387 14.3535C11.4676 14.3631 11.5432 14.3976 11.6034 14.452C11.6636 14.5065 11.7054 14.5783 11.723 14.6575C11.8666 15.3106 12.1238 15.9334 12.483 16.4975C12.5295 16.5644 12.5544 16.644 12.5544 16.7255C12.5544 16.807 12.5295 16.8865 12.483 16.9535L11.491 18.2415L12.515 19.2735L13.859 18.2975C13.9259 18.2547 14.0037 18.232 14.083 18.232C14.1624 18.232 14.2402 18.2547 14.307 18.2975C14.8552 18.6414 15.4588 18.8877 16.091 19.0255C16.1719 19.0443 16.245 19.0873 16.3008 19.1488C16.3565 19.2102 16.3922 19.2872 16.403 19.3695L16.635 20.9615Z" fill="white" stroke="white" stroke-width="0.5"/>
</svg>
