<svg width="24" height="25" viewBox="0 0 24 25" fill="none" xmlns="http://www.w3.org/2000/svg">
<path fill-rule="evenodd" clip-rule="evenodd" d="M3.85346 2.83021C4.21812 2.4578 4.74792 2.28711 5.39999 2.28711H10.8C11.445 2.28711 11.9703 2.45811 12.3349 2.80895C12.7009 3.16115 12.8667 3.65758 12.8667 4.22844V7.35378C12.8667 7.50105 12.7473 7.62044 12.6 7.62044C12.4527 7.62044 12.3333 7.50105 12.3333 7.35378V4.22844C12.3333 3.7593 12.1991 3.4184 11.9651 3.19327C11.7297 2.96678 11.355 2.82044 10.8 2.82044H5.39999C4.83606 2.82044 4.46587 2.96709 4.23453 3.20334C4.00218 3.44062 3.86666 3.81235 3.86666 4.35378V19.9538C3.86666 20.5234 4.00354 20.8922 4.23255 21.1212C4.46157 21.3502 4.83039 21.4871 5.39999 21.4871H10.8C11.3571 21.4871 11.7277 21.3445 11.9608 21.1098C12.1942 20.8749 12.3333 20.5038 12.3333 19.9538V16.9538C12.3333 16.8065 12.4527 16.6871 12.6 16.6871C12.7473 16.6871 12.8667 16.8065 12.8667 16.9538V19.9538C12.8667 20.5878 12.7058 21.1167 12.3392 21.4857C11.9723 21.8551 11.4429 22.0204 10.8 22.0204H5.39999C4.7536 22.0204 4.22241 21.8653 3.85543 21.4983C3.48845 21.1314 3.33332 20.6002 3.33332 19.9538V4.35378C3.33332 3.72987 3.4898 3.20159 3.85346 2.83021ZM14.8007 7.17661C14.8985 7.06653 15.0671 7.05662 15.1772 7.15447L20.5759 11.9533C20.6287 11.9997 20.663 12.0666 20.6664 12.1416C20.6666 12.1456 20.6667 12.1497 20.6667 12.1538C20.6667 12.1631 20.6662 12.1724 20.6652 12.1816C20.6603 12.2287 20.6429 12.2734 20.6152 12.3113C20.6041 12.3264 20.5914 12.3404 20.5772 12.3531L15.1772 17.1531C15.0671 17.2509 14.8985 17.241 14.8007 17.1309C14.7028 17.0209 14.7128 16.8523 14.8228 16.7545L19.6986 12.4204H7.79999C7.65272 12.4204 7.53333 12.301 7.53333 12.1538C7.53333 12.0065 7.65272 11.8871 7.79999 11.8871H19.6986L14.8228 7.55308C14.7128 7.45524 14.7028 7.28669 14.8007 7.17661Z" fill="#333333"/>
</svg>
