<svg width="24" height="24" viewBox="0 0 24 24" fill="none" xmlns="http://www.w3.org/2000/svg">
<path d="M9.56626 21.8171H9.62626C9.70064 21.8178 9.77272 21.7914 9.82904 21.7428C9.88536 21.6942 9.92205 21.6268 9.93226 21.5531L10.2 19.7305C10.2997 18.9939 10.2983 18.7751 9.99226 18.5411C9.68626 18.3071 9.26026 18.4451 8.01226 18.9071L7.94026 18.9371C7.22626 19.1951 6.77626 19.2431 6.41026 18.9671C6.04426 18.6911 5.89426 18.0131 5.98426 17.0111C6.06226 16.1171 6.03226 15.7091 5.70826 15.3911C5.38426 15.0731 4.88026 15.1211 4.34626 15.1751C4.23099 15.1981 4.11164 15.1896 4.00078 15.1506C3.88991 15.1115 3.79163 15.0433 3.71626 14.9531C3.64794 14.8045 3.61922 14.6408 3.63289 14.4778C3.64656 14.3149 3.70215 14.1582 3.79426 14.0231C4.14226 13.3391 5.96626 9.59508 6.25426 8.33508C6.51226 7.19508 6.81226 6.47508 8.46826 4.65108C10.0103 2.94108 13.8263 2.48508 16.8263 3.64308C19.1543 4.54908 20.2523 6.85308 20.3663 11.1371C20.4803 14.8451 16.9523 17.5451 16.9163 17.5451C16.8507 17.5996 16.8079 17.6766 16.7963 17.7611L16.5383 20.6411C16.5327 20.6854 16.538 20.7304 16.5537 20.7722C16.5694 20.814 16.595 20.8513 16.6283 20.8811C16.6586 20.9133 16.6962 20.9377 16.738 20.9524C16.7798 20.967 16.8244 20.9713 16.8683 20.9651L18.7283 20.7551C18.7677 20.7507 18.8058 20.7387 18.8406 20.7196C18.8753 20.7005 18.9059 20.6748 18.9307 20.6439C18.9555 20.613 18.974 20.5775 18.9851 20.5394C18.9961 20.5013 18.9996 20.4615 18.9953 20.4221C18.9909 20.3827 18.9789 20.3445 18.9598 20.3098C18.9407 20.2751 18.915 20.2444 18.8841 20.2196C18.8531 20.1948 18.8176 20.1764 18.7796 20.1653C18.7415 20.1542 18.7017 20.1508 18.6623 20.1551L17.1683 20.3291L17.3843 17.9291C18.0383 17.4251 21.1043 14.7911 20.9843 11.1011C20.8883 8.04108 20.2823 4.37508 17.0543 3.08508C13.8263 1.79508 9.67426 2.40708 8.00026 4.24908C6.32626 6.09108 5.93626 6.92508 5.64226 8.19708C5.40226 9.27708 3.77626 12.6971 3.24226 13.7531C3.09065 13.9802 3.00677 14.2458 3.00039 14.5189C2.99402 14.7919 3.06542 15.0611 3.20626 15.2951C3.33962 15.4813 3.52348 15.6254 3.73612 15.7104C3.94875 15.7955 4.18129 15.8179 4.40626 15.7751L4.41771 15.7739C4.83257 15.7324 5.17513 15.6982 5.27026 15.8171C5.36626 15.9371 5.42626 16.3211 5.36626 16.9571C5.25826 18.2111 5.52226 19.0991 6.02626 19.4471C6.53026 19.7951 7.22626 19.8311 8.14426 19.4951C8.58673 19.3082 9.1224 19.1597 9.59026 19.0511C9.6 19.1305 9.59026 19.1305 9.50626 19.7951L9.30226 21.4811C9.29374 21.5605 9.31658 21.64 9.3659 21.7028C9.41522 21.7656 9.48712 21.8066 9.56626 21.8171Z" fill="#333333"/>
<path d="M7.94026 22.0571C7.86904 22.0578 7.79998 22.0327 7.74591 21.9863C7.69184 21.94 7.65643 21.8756 7.64626 21.8051C7.64029 21.7661 7.64209 21.7263 7.65153 21.688C7.66098 21.6497 7.67789 21.6136 7.7013 21.5818C7.7247 21.55 7.75415 21.5232 7.78795 21.5028C7.82175 21.4825 7.85923 21.469 7.89826 21.4631L11.2163 20.9951C11.2554 20.9883 11.2954 20.9895 11.3341 20.9986C11.3727 21.0077 11.4091 21.0245 11.4411 21.0481C11.473 21.0716 11.4999 21.1014 11.52 21.1356C11.5402 21.1698 11.5532 21.2077 11.5583 21.2471C11.5687 21.3256 11.5483 21.4052 11.5013 21.4689C11.4543 21.5327 11.3844 21.5758 11.3063 21.5891L7.98826 22.0751L7.94026 22.0571Z" fill="#333333"/>
<path d="M13.0043 12.2651C12.4943 12.2677 11.999 12.0942 11.6022 11.7739C11.2054 11.4536 10.9313 11.0061 10.8263 10.5071C10.8184 10.4685 10.8182 10.4287 10.8257 10.39C10.8332 10.3513 10.8482 10.3145 10.8699 10.2816C10.8917 10.2487 10.9196 10.2205 10.9523 10.1984C10.985 10.1764 11.0216 10.161 11.0603 10.1531C11.0989 10.1444 11.139 10.1435 11.1779 10.1507C11.2169 10.1578 11.2541 10.1727 11.2872 10.1946C11.3202 10.2165 11.3485 10.2448 11.3704 10.2779C11.3922 10.3109 11.4071 10.3481 11.4143 10.3871C11.4755 10.6837 11.6196 10.9568 11.8297 11.1748C12.0399 11.3929 12.3075 11.5469 12.6017 11.619C12.8958 11.6911 13.2043 11.6784 13.4915 11.5823C13.7787 11.4862 14.0327 11.3107 14.2242 11.0761C14.4157 10.8414 14.5368 10.5574 14.5734 10.2568C14.61 9.95614 14.5607 9.65131 14.4311 9.3776C14.3015 9.10389 14.097 8.87251 13.8413 8.7103C13.5856 8.54808 13.2891 8.46167 12.9863 8.46108C12.6672 8.46021 12.3553 8.55648 12.0923 8.73708C12.0252 8.78082 11.9436 8.79652 11.8651 8.78082C11.7866 8.76511 11.7174 8.71926 11.6723 8.65308C11.6288 8.58694 11.6133 8.50633 11.629 8.42879C11.6448 8.35125 11.6905 8.28307 11.7563 8.23908C12.1102 7.99746 12.5277 7.86594 12.9563 7.86108C13.5403 7.86108 14.1004 8.09308 14.5133 8.50604C14.9263 8.91899 15.1583 9.47908 15.1583 10.0631C15.1583 10.6471 14.9263 11.2072 14.5133 11.6201C14.1004 12.0331 13.5403 12.2651 12.9563 12.2651H13.0043Z" fill="#333333"/>
<path d="M13.8263 16.3211H12.1943C12.1225 16.3203 12.0534 16.2939 11.9994 16.2466C11.9455 16.1992 11.9103 16.1341 11.9003 16.0631L11.7323 14.7971C11.332 14.6902 10.9469 14.5329 10.5863 14.3291L9.53026 15.0911C9.47291 15.1319 9.40301 15.1513 9.33281 15.1458C9.2626 15.1404 9.19657 15.1103 9.14626 15.0611L8.00626 13.9211C7.95693 13.8669 7.92959 13.7963 7.92959 13.7231C7.92959 13.6498 7.95693 13.5792 8.00626 13.5251L8.78026 12.5111C8.56393 12.1353 8.40039 11.7315 8.29426 11.3111L7.02826 11.1491C6.9556 11.139 6.88898 11.1032 6.84053 11.0481C6.79207 10.9931 6.765 10.9224 6.76426 10.8491V9.25907C6.765 9.18573 6.79207 9.11509 6.84053 9.06003C6.88898 9.00496 6.9556 8.96914 7.02826 8.95907L8.29426 8.79107C8.40222 8.39308 8.55944 8.01012 8.76226 7.65107L7.97626 6.59507C7.93378 6.53722 7.91346 6.46607 7.91896 6.39451C7.92446 6.32295 7.95544 6.25574 8.00626 6.20507L9.14626 5.06507C9.20101 5.01698 9.27139 4.99045 9.34426 4.99045C9.41713 4.99045 9.48751 5.01698 9.54226 5.06507L10.5503 5.84507C10.9258 5.62686 11.3296 5.46132 11.7503 5.35307L11.9183 4.08707C11.9271 4.01549 11.9619 3.94966 12.0161 3.90209C12.0703 3.85451 12.1401 3.82853 12.2123 3.82907H13.8263C13.8984 3.82853 13.9682 3.85451 14.0224 3.90209C14.0766 3.94966 14.1114 4.01549 14.1203 4.08707L14.2883 5.35307C14.7089 5.46132 15.1127 5.62686 15.4883 5.84507L16.4963 5.06507C16.551 5.01698 16.6214 4.99045 16.6943 4.99045C16.7671 4.99045 16.8375 5.01698 16.8923 5.06507L18.0263 6.20507C18.0739 6.25885 18.1002 6.32822 18.1002 6.40007C18.1002 6.47193 18.0739 6.5413 18.0263 6.59507L17.2463 7.61507C17.4631 7.99062 17.6266 8.39449 17.7323 8.81507L18.9983 8.98307C19.0709 8.99314 19.1375 9.02896 19.186 9.08403C19.2344 9.13909 19.2615 9.20973 19.2623 9.28307V10.8911C19.2615 10.9644 19.2344 11.0351 19.186 11.0901C19.1375 11.1452 19.0709 11.181 18.9983 11.1911L17.7323 11.3531C17.628 11.7542 17.4706 12.1396 17.2643 12.4991L18.0263 13.5311C18.07 13.5884 18.0911 13.6599 18.0855 13.7318C18.08 13.8037 18.0482 13.8711 17.9963 13.9211L16.8563 15.0611C16.801 15.108 16.7308 15.1338 16.6583 15.1338C16.5857 15.1338 16.5156 15.108 16.4603 15.0611L15.4523 14.2811C15.0754 14.4967 14.672 14.6621 14.2523 14.7731L14.0843 16.0391C14.0807 16.1087 14.0531 16.175 14.006 16.2265C13.9589 16.2779 13.8953 16.3114 13.8263 16.3211ZM12.4763 15.7211H13.5623L13.7183 14.5211C13.7279 14.46 13.7552 14.403 13.7968 14.3572C13.8384 14.3114 13.8924 14.2787 13.9523 14.2631C14.4394 14.1559 14.9043 13.9651 15.3263 13.6991C15.3771 13.6629 15.4379 13.6435 15.5003 13.6435C15.5626 13.6435 15.6235 13.6629 15.6743 13.6991L16.6403 14.4431L17.4083 13.6691L16.6823 12.6611C16.6487 12.6115 16.6308 12.553 16.6308 12.4931C16.6308 12.4332 16.6487 12.3747 16.6823 12.3251C16.9413 11.9145 17.1261 11.4616 17.2283 10.9871C17.2435 10.9416 17.2694 10.9004 17.3039 10.867C17.3383 10.8336 17.3803 10.8089 17.4263 10.7951L18.6263 10.6331V9.55307L17.4263 9.39107C17.3656 9.38181 17.3092 9.35454 17.2643 9.31282C17.2193 9.2711 17.188 9.21684 17.1743 9.15707C17.0654 8.66949 16.8725 8.20456 16.6043 7.78307C16.5694 7.73285 16.5508 7.67319 16.5508 7.61207C16.5508 7.55095 16.5694 7.49129 16.6043 7.44107L17.3423 6.47507L16.6223 5.67707L15.6563 6.42107C15.6054 6.45725 15.5446 6.47669 15.4823 6.47669C15.4199 6.47669 15.3591 6.45725 15.3083 6.42107C14.8895 6.14119 14.4242 5.93803 13.9343 5.82107C13.8741 5.80812 13.8194 5.777 13.7776 5.73193C13.7357 5.68685 13.7087 5.63 13.7003 5.56907L13.5443 4.36907H12.4583L12.3023 5.56907C12.2946 5.63032 12.2679 5.68762 12.2259 5.73285C12.1839 5.77808 12.1288 5.80895 12.0683 5.82107C11.5787 5.93922 11.1137 6.1423 10.6943 6.42107C10.6447 6.45762 10.5848 6.47733 10.5233 6.47733C10.4617 6.47733 10.4018 6.45762 10.3523 6.42107L9.38626 5.67707L8.61226 6.45107L9.33826 7.45907C9.37208 7.50745 9.39021 7.56505 9.39021 7.62407C9.39021 7.6831 9.37208 7.74069 9.33826 7.78907C9.08273 8.20141 8.89817 8.65368 8.79226 9.12707C8.77931 9.18721 8.74819 9.24191 8.70312 9.28376C8.65804 9.32562 8.60119 9.35261 8.54026 9.36107L7.34026 9.52307V10.6031L8.54026 10.7651C8.6007 10.7723 8.6574 10.7981 8.70254 10.839C8.74768 10.8798 8.77903 10.9337 8.79226 10.9931C8.8999 11.4829 9.09283 11.95 9.36226 12.3731C9.3971 12.4233 9.41577 12.483 9.41577 12.5441C9.41577 12.6052 9.3971 12.6649 9.36226 12.7151L8.61826 13.6811L9.38626 14.4551L10.3943 13.7231C10.4444 13.691 10.5027 13.674 10.5623 13.674C10.6218 13.674 10.6801 13.691 10.7303 13.7231C11.1414 13.981 11.5941 14.1657 12.0683 14.2691C12.1289 14.2832 12.1837 14.3154 12.2255 14.3615C12.2674 14.4076 12.2941 14.4654 12.3023 14.5271L12.4763 15.7211Z" fill="#333333"/>
</svg>
