<svg width="75" height="75" viewBox="0 0 75 75" fill="none" xmlns="http://www.w3.org/2000/svg">
<g clip-path="url(#clip0_123_36364)">
<g clip-path="url(#clip1_123_36364)">
<rect width="75" height="75" rx="5" fill="#4C9E45"/>
<ellipse opacity="0.5" cx="37.235" cy="62.7547" rx="19.235" ry="1.75471" fill="#1E5632"/>
</g>
<path d="M22.5 19H47L50 17L54.5 21.5L51 26V48.5H22.5V19Z" fill="white"/>
<path fill-rule="evenodd" clip-rule="evenodd" d="M23.1377 19.2135C22.9973 19.3586 22.8889 19.6147 22.8889 20.0666V47.5066C22.8889 47.9154 22.9914 48.1609 23.1286 48.3041C23.2627 48.4439 23.4964 48.5555 23.9111 48.5555H49.3689C49.8594 48.5555 50.0936 48.4519 50.2162 48.328C50.34 48.2028 50.4444 47.9614 50.4444 47.4577V28.6888C50.4444 28.4434 50.6434 28.2444 50.8889 28.2444C51.1343 28.2444 51.3333 28.4434 51.3333 28.6888V47.4577C51.3333 48.0518 51.2156 48.5815 50.8483 48.953C50.4797 49.3257 49.954 49.4444 49.3689 49.4444H23.9111C23.3392 49.4444 22.8395 49.2871 22.4869 48.9191C22.1375 48.5545 22 48.0533 22 47.5066V20.0666C22 19.4874 22.1383 18.968 22.499 18.5953C22.8623 18.2199 23.3757 18.071 23.9556 18.071H44.8C45.0455 18.071 45.2444 18.27 45.2444 18.5155C45.2444 18.7609 45.0455 18.9599 44.8 18.9599H23.9556C23.5177 18.9599 23.2755 19.0711 23.1377 19.2135Z" fill="#0B3C61" stroke="#0B3C61" stroke-width="0.5" stroke-linecap="round" stroke-linejoin="round"/>
<path fill-rule="evenodd" clip-rule="evenodd" d="M49.9467 17.4824C49.8403 17.4824 49.7351 17.5037 49.6371 17.5451C49.5392 17.5865 49.4505 17.647 49.3764 17.7233L49.3721 17.7277L31.0519 36.0478L29.2246 42.2216L35.4474 40.4443L53.7923 22.1392C53.8685 22.0651 53.9291 21.9764 53.9705 21.8785C54.0119 21.7805 54.0332 21.6753 54.0332 21.5689C54.0332 21.4626 54.0119 21.3574 53.9705 21.2594C53.9291 21.1614 53.8686 21.0728 53.7923 20.9986L53.7879 20.9943L50.5169 17.7233C50.4428 17.6471 50.3541 17.5865 50.2562 17.5451C50.1582 17.5037 50.053 17.4824 49.9467 17.4824ZM49.2913 16.7262C49.4987 16.6386 49.7215 16.5935 49.9467 16.5935C50.1718 16.5935 50.3946 16.6386 50.602 16.7262C50.8084 16.8134 50.9953 16.9409 51.1518 17.1011L54.4145 20.3638C54.5748 20.5203 54.7022 20.7072 54.7894 20.9136C54.877 21.121 54.9221 21.3438 54.9221 21.5689C54.9221 21.7941 54.877 22.0169 54.7894 22.2243C54.7022 22.4308 54.5746 22.6177 54.4143 22.7743L35.9939 41.1547C35.9406 41.2079 35.8745 41.2467 35.802 41.2674L28.6909 43.2985C28.535 43.343 28.3672 43.2991 28.2531 43.1839C28.139 43.0687 28.0967 42.9005 28.1427 42.745L30.2316 35.6872C30.2526 35.6162 30.2911 35.5515 30.3435 35.4991L48.7415 17.1011C48.898 16.9409 49.0849 16.8134 49.2913 16.7262Z" fill="#0B3C61" stroke="#0B3C61" stroke-width="0.5" stroke-linecap="round" stroke-linejoin="round"/>
</g>
<defs>
<clipPath id="clip0_123_36364">
<rect width="75" height="75" fill="white"/>
</clipPath>
<clipPath id="clip1_123_36364">
<rect width="75" height="75" fill="white"/>
</clipPath>
</defs>
</svg>
