<svg width="40" height="40" viewBox="0 0 24 24" fill="none" xmlns="http://www.w3.org/2000/svg">
<path d="M9.62626 21.8175H9.56626C9.48712 21.807 9.41522 21.766 9.3659 21.7032C9.31658 21.6404 9.29374 21.5608 9.30226 21.4815L9.50626 19.7955C9.55236 19.5499 9.58044 19.3012 9.59026 19.0515C9.1224 19.1601 8.66473 19.3086 8.22226 19.4955H8.14426C7.22626 19.8315 6.53026 19.7955 6.02626 19.4475C5.52226 19.0995 5.25826 18.2115 5.36626 16.9575C5.42626 16.3215 5.36626 15.9375 5.27026 15.8175C5.17426 15.6975 4.82626 15.7335 4.40626 15.7755C4.18129 15.8183 3.94875 15.7959 3.73612 15.7108C3.52348 15.6258 3.33962 15.4816 3.20626 15.2955C3.06542 15.0615 2.99402 14.7923 3.00039 14.5192C3.00677 14.2462 3.09065 13.9806 3.24226 13.7535C3.77626 12.6975 5.40226 9.27747 5.64226 8.19747C5.93626 6.92547 6.32626 6.09147 8.00026 4.24947C9.67426 2.40747 13.8263 1.79547 17.0543 3.08547C20.2823 4.37547 20.8883 8.04147 20.9843 11.1015C21.1043 14.7915 18.0383 17.4255 17.3843 17.9295L17.1683 20.3295L18.6623 20.1555C18.7017 20.1511 18.7415 20.1546 18.7796 20.1657C18.8176 20.1768 18.8531 20.1952 18.8841 20.22C18.915 20.2448 18.9407 20.2754 18.9598 20.3102C18.9789 20.3449 18.9909 20.3831 18.9953 20.4225C18.9996 20.4619 18.9961 20.5017 18.9851 20.5398C18.974 20.5778 18.9555 20.6133 18.9307 20.6443C18.9059 20.6752 18.8753 20.7009 18.8406 20.72C18.8058 20.7391 18.7677 20.7511 18.7283 20.7555L16.8683 20.9655C16.8244 20.9717 16.7798 20.9674 16.738 20.9528C16.6962 20.9381 16.6586 20.9137 16.6283 20.8815C16.595 20.8517 16.5694 20.8144 16.5537 20.7726C16.538 20.7308 16.5327 20.6858 16.5383 20.6415L16.7963 17.7615C16.8079 17.677 16.8507 17.6 16.9163 17.5455C16.9523 17.5455 20.4803 14.8455 20.3663 11.1375C20.2523 6.85347 19.1543 4.54947 16.8263 3.64347C13.8263 2.48547 10.0103 2.94147 8.46826 4.65147C6.81226 6.47547 6.51226 7.19547 6.25426 8.33547C5.96626 9.59547 4.14226 13.3395 3.79426 14.0235C3.70215 14.1586 3.64656 14.3152 3.63289 14.4782C3.61922 14.6412 3.64794 14.8049 3.71626 14.9535C3.79163 15.0437 3.88991 15.1119 4.00078 15.151C4.11164 15.19 4.23099 15.1985 4.34626 15.1755C4.88026 15.1215 5.38426 15.0735 5.70826 15.3915C6.03226 15.7095 6.06226 16.1175 5.98426 17.0115C5.89426 18.0135 6.04426 18.6915 6.41026 18.9675C6.77626 19.2435 7.22626 19.1955 7.94026 18.9375L8.01226 18.9075C9.26026 18.4455 9.68626 18.3075 9.99226 18.5415C10.2983 18.7755 10.2083 19.1415 10.1003 19.8675V20.0535L9.93226 21.5535C9.92205 21.6271 9.88536 21.6946 9.82904 21.7432C9.77272 21.7918 9.70064 21.8182 9.62626 21.8175Z" fill="#333333"/>
<path d="M7.94002 22.0566C7.86881 22.0573 7.79975 22.0322 7.74568 21.9858C7.6916 21.9395 7.65619 21.8751 7.64602 21.8046C7.64006 21.7656 7.64185 21.7258 7.6513 21.6875C7.66074 21.6491 7.67765 21.6131 7.70106 21.5813C7.72447 21.5495 7.75392 21.5227 7.78772 21.5023C7.82151 21.482 7.859 21.4685 7.89802 21.4626L11.216 20.9946C11.2551 20.9878 11.2952 20.989 11.3339 20.9981C11.3725 21.0072 11.4089 21.024 11.4408 21.0475C11.4728 21.0711 11.4997 21.1009 11.5198 21.1351C11.5399 21.1693 11.5529 21.2072 11.558 21.2466C11.5685 21.3251 11.548 21.4047 11.501 21.4684C11.454 21.5322 11.3841 21.5753 11.306 21.5886L7.98802 22.0746L7.94002 22.0566Z" fill="#333333"/>
<path d="M13.0044 12.2653C12.4944 12.268 11.9992 12.0945 11.6023 11.7742C11.2055 11.4539 10.9314 11.0064 10.8264 10.5073C10.8185 10.4687 10.8183 10.4289 10.8258 10.3902C10.8333 10.3516 10.8483 10.3147 10.87 10.2819C10.8918 10.249 10.9198 10.2207 10.9524 10.1987C10.9851 10.1766 11.0218 10.1612 11.0604 10.1533C11.099 10.1446 11.1391 10.1438 11.1781 10.1509C11.2171 10.158 11.2542 10.173 11.2873 10.1948C11.3203 10.2167 11.3487 10.245 11.3705 10.2781C11.3923 10.3112 11.4073 10.3483 11.4144 10.3873C11.4756 10.6839 11.6197 10.957 11.8298 11.1751C12.04 11.3931 12.3077 11.5471 12.6018 11.6192C12.8959 11.6914 13.2044 11.6786 13.4916 11.5825C13.7788 11.4864 14.0329 11.3109 14.2244 11.0763C14.4158 10.8417 14.5369 10.5576 14.5735 10.257C14.6101 9.95639 14.5608 9.65155 14.4312 9.37784C14.3016 9.10413 14.0971 8.87276 13.8414 8.71054C13.5857 8.54833 13.2892 8.46192 12.9864 8.46133C12.6673 8.46046 12.3555 8.55672 12.0924 8.73733C12.0253 8.78107 11.9438 8.79677 11.8652 8.78106C11.7867 8.76536 11.7175 8.7195 11.6724 8.65333C11.629 8.58719 11.6134 8.50657 11.6292 8.42904C11.6449 8.3515 11.6906 8.28331 11.7564 8.23933C12.1103 7.9977 12.5279 7.86618 12.9564 7.86133C13.5404 7.86133 14.1005 8.09332 14.5134 8.50628C14.9264 8.91923 15.1584 9.47932 15.1584 10.0633C15.1584 10.6473 14.9264 11.2074 14.5134 11.6204C14.1005 12.0333 13.5404 12.2653 12.9564 12.2653H13.0044Z" fill="#333333"/>
<path d="M13.8262 16.3221H12.1942C12.1224 16.3214 12.0533 16.2949 11.9993 16.2476C11.9454 16.2003 11.9102 16.1351 11.9002 16.0641L11.7322 14.7981C11.3319 14.6912 10.9468 14.5339 10.5862 14.3301L9.53016 15.0921C9.47281 15.1329 9.40291 15.1523 9.33271 15.1468C9.26251 15.1414 9.19647 15.1114 9.14616 15.0621L8.00616 13.9221C7.95683 13.8679 7.92949 13.7973 7.92949 13.7241C7.92949 13.6508 7.95683 13.5802 8.00616 13.5261L8.78016 12.5121C8.56383 12.1363 8.4003 11.7325 8.29416 11.3121L7.02816 11.1501C6.95551 11.14 6.88888 11.1042 6.84043 11.0491C6.79197 10.9941 6.7649 10.9234 6.76416 10.8501V9.26009C6.7649 9.18674 6.79197 9.1161 6.84043 9.06104C6.88888 9.00598 6.95551 8.97015 7.02816 8.96009L8.29416 8.79209C8.40212 8.39409 8.55934 8.01114 8.76216 7.65209L7.97616 6.59609C7.93369 6.53824 7.91336 6.46708 7.91886 6.39552C7.92436 6.32397 7.95534 6.25676 8.00616 6.20609L9.14616 5.06609C9.20091 5.01799 9.27129 4.99147 9.34416 4.99147C9.41703 4.99147 9.48741 5.01799 9.54216 5.06609L10.5502 5.84609C10.9257 5.62788 11.3295 5.46233 11.7502 5.35409L11.9182 4.08809C11.927 4.01651 11.9618 3.95067 12.016 3.9031C12.0702 3.85553 12.14 3.82954 12.2122 3.83009H13.8262C13.8983 3.82954 13.9681 3.85553 14.0223 3.9031C14.0765 3.95067 14.1113 4.01651 14.1202 4.08809L14.2882 5.35409C14.7088 5.46233 15.1126 5.62788 15.4882 5.84609L16.4962 5.06609C16.5509 5.01799 16.6213 4.99147 16.6942 4.99147C16.767 4.99147 16.8374 5.01799 16.8922 5.06609L18.0262 6.20609C18.0738 6.25986 18.1001 6.32923 18.1001 6.40109C18.1001 6.47294 18.0738 6.54231 18.0262 6.59609L17.2462 7.61609C17.463 7.99164 17.6265 8.3955 17.7322 8.81609L18.9982 8.98409C19.0708 8.99415 19.1374 9.02998 19.1859 9.08504C19.2344 9.1401 19.2614 9.21074 19.2622 9.28409V10.8921C19.2614 10.9654 19.2344 11.0361 19.1859 11.0911C19.1374 11.1462 19.0708 11.182 18.9982 11.1921L17.7322 11.3541C17.6279 11.7552 17.4705 12.1406 17.2642 12.5001L18.0262 13.5321C18.0699 13.5895 18.091 13.6609 18.0854 13.7328C18.0799 13.8047 18.0481 13.8721 17.9962 13.9221L16.8562 15.0621C16.8009 15.109 16.7307 15.1348 16.6582 15.1348C16.5856 15.1348 16.5155 15.109 16.4602 15.0621L15.4522 14.2821C15.0753 14.4978 14.6719 14.6632 14.2522 14.7741L14.0842 16.0401C14.0806 16.1098 14.053 16.176 14.0059 16.2275C13.9588 16.279 13.8952 16.3124 13.8262 16.3221ZM12.4762 15.7221H13.5622L13.7182 14.5221C13.7278 14.461 13.7551 14.404 13.7967 14.3582C13.8383 14.3124 13.8923 14.2797 13.9522 14.2641C14.4393 14.1569 14.9042 13.9661 15.3262 13.7001C15.377 13.6639 15.4378 13.6445 15.5002 13.6445C15.5625 13.6445 15.6234 13.6639 15.6742 13.7001L16.6402 14.4441L17.4082 13.6701L16.6822 12.6621C16.6486 12.6125 16.6307 12.554 16.6307 12.4941C16.6307 12.4342 16.6486 12.3757 16.6822 12.3261C16.9412 11.9155 17.126 11.4626 17.2282 10.9881C17.2434 10.9426 17.2693 10.9014 17.3038 10.868C17.3382 10.8346 17.3802 10.8099 17.4262 10.7961L18.6262 10.6341V9.55409L17.4262 9.39209C17.3655 9.38282 17.3091 9.35556 17.2642 9.31383C17.2192 9.27211 17.1879 9.21785 17.1742 9.15809C17.0653 8.6705 16.8724 8.20557 16.6042 7.78409C16.5693 7.73387 16.5507 7.67421 16.5507 7.61309C16.5507 7.55197 16.5693 7.4923 16.6042 7.44209L17.3422 6.47609L16.6222 5.67809L15.6562 6.42209C15.6054 6.45826 15.5445 6.4777 15.4822 6.4777C15.4198 6.4777 15.359 6.45826 15.3082 6.42209C14.8894 6.14221 14.4241 5.93904 13.9342 5.82209C13.874 5.80914 13.8193 5.77802 13.7775 5.73294C13.7356 5.68787 13.7086 5.63101 13.7002 5.57009L13.5442 4.37009H12.4582L12.3022 5.57009C12.2945 5.63134 12.2678 5.68864 12.2258 5.73387C12.1838 5.7791 12.1287 5.80996 12.0682 5.82209C11.5786 5.94024 11.1136 6.14331 10.6942 6.42209C10.6446 6.45863 10.5847 6.47835 10.5232 6.47835C10.4616 6.47835 10.4017 6.45863 10.3522 6.42209L9.38616 5.67809L8.61216 6.45209L9.33816 7.46009C9.37198 7.50846 9.39011 7.56606 9.39011 7.62509C9.39011 7.68411 9.37198 7.74171 9.33816 7.79009C9.08263 8.20242 8.89807 8.6547 8.79216 9.12809C8.77921 9.18822 8.74809 9.24292 8.70302 9.28478C8.65794 9.32663 8.60109 9.35362 8.54016 9.36209L7.34016 9.52409V10.6041L8.54016 10.7661C8.6006 10.7733 8.6573 10.7991 8.70244 10.84C8.74758 10.8808 8.77893 10.9347 8.79216 10.9941C8.8998 11.4839 9.09274 11.9511 9.36216 12.3741C9.397 12.4243 9.41567 12.484 9.41567 12.5451C9.41567 12.6062 9.397 12.6659 9.36216 12.7161L8.61816 13.6821L9.38616 14.4561L10.3942 13.7241C10.4443 13.692 10.5026 13.675 10.5622 13.675C10.6217 13.675 10.68 13.692 10.7302 13.7241C11.1413 13.982 11.594 14.1668 12.0682 14.2701C12.1288 14.2842 12.1836 14.3164 12.2255 14.3625C12.2673 14.4086 12.294 14.4664 12.3022 14.5281L12.4762 15.7221Z" fill="#333333"/>
</svg>
