<svg width="40" height="40" viewBox="0 0 39 40" fill="none" xmlns="http://www.w3.org/2000/svg">
<path fill-rule="evenodd" clip-rule="evenodd" d="M19.7159 2.00879C15.5213 2.00879 12.1149 5.58311 12.1149 10C12.1149 14.4169 15.5213 17.9912 19.7159 17.9912C23.9105 17.9912 27.3169 14.4169 27.3169 10C27.3169 5.58311 23.9105 2.00879 19.7159 2.00879ZM11.1479 10C11.1479 5.03291 14.9806 1 19.7159 1C24.4512 1 28.2838 5.03291 28.2838 10C28.2838 14.9671 24.4512 19 19.7159 19C14.9806 19 11.1479 14.9671 11.1479 10Z" fill="#333333"/>
<path fill-rule="evenodd" clip-rule="evenodd" d="M10.6333 22.0006C10.3191 21.9691 10.0023 22.0114 9.70517 22.1246C9.40805 22.2378 9.13781 22.4192 8.91382 22.6561C8.6898 22.893 8.51754 23.1796 8.40952 23.4957C8.30149 23.8117 8.26042 24.1493 8.28931 24.4843L8.29124 24.5066V37.5048C8.29124 37.7783 8.0807 38 7.82099 38C7.56128 38 7.35075 37.7783 7.35075 37.5048V24.5506C7.3133 24.0794 7.37256 23.6051 7.52461 23.1602C7.67917 22.708 7.92587 22.2972 8.24739 21.9572C8.56892 21.6171 8.95738 21.3562 9.38523 21.1932C9.8058 21.0329 10.2541 20.9713 10.6993 21.0124H27.7802C28.2254 20.9713 28.6737 21.0329 29.0943 21.1932C29.5222 21.3562 29.9106 21.6171 30.2321 21.9572C30.5537 22.2972 30.8004 22.708 30.9549 23.1602C31.107 23.6051 31.1662 24.0794 31.1288 24.5506V37.5048C31.1288 37.7783 30.9182 38 30.6585 38C30.3988 38 30.1883 37.7783 30.1883 37.5048V24.5066L30.1902 24.4843C30.2191 24.1493 30.178 23.8117 30.07 23.4957C29.962 23.1796 29.7897 22.893 29.5657 22.6561C29.3417 22.4192 29.0715 22.2378 28.7744 22.1246C28.4772 22.0114 28.1604 21.9691 27.8463 22.0006L27.824 22.0028H10.6555L10.6333 22.0006Z" fill="#333333"/>
</svg>
