<svg width="612" height="92" viewBox="0 0 612 92" fill="none" xmlns="http://www.w3.org/2000/svg">
<mask id="mask0_1958_172184" style="mask-type:alpha" maskUnits="userSpaceOnUse" x="0" y="0" width="612" height="84">
<rect width="612" height="84" fill="white"/>
</mask>
<g mask="url(#mask0_1958_172184)">
<rect x="-0.00012207" y="-24" width="612" height="136" fill="#4C9E45"/>
<path d="M537.579 58.6214L496.155 33.7494C492.419 31.5061 487.476 33.1669 485.114 37.4589L473.841 57.9478C471.48 62.2398 472.594 67.5378 476.331 69.7811L517.755 94.6531C521.491 96.8965 526.434 95.2357 528.796 90.9436L540.069 70.4547C542.43 66.1627 541.316 60.8647 537.579 58.6214Z" stroke="white" stroke-width="1.54168" stroke-miterlimit="10"/>
<path d="M534.442 62.101L506.165 45.136C503.412 43.4839 499.768 44.7069 498.028 47.8678L488.858 64.519C487.118 67.6799 487.939 71.5816 490.693 73.2338L518.97 90.1988C521.724 91.8509 525.367 90.6279 527.108 87.467L536.277 70.8158C538.018 67.6549 537.196 63.7532 534.442 62.101Z" stroke="white" stroke-width="0.885038" stroke-miterlimit="10"/>
<path d="M498.026 54.6598L501.424 56.7134L507.632 51.8786L507.144 60.1699L510.542 62.2234L509.705 67.2416L513.759 64.168L521.632 68.9257L527.812 63.7036L526.816 72.0587L530.75 74.4357" stroke="white" stroke-width="0.75371" stroke-linecap="round" stroke-linejoin="round"/>
<path d="M491.622 39.0326L491.159 38.7539C490.05 38.0851 488.582 38.5809 487.882 39.8613L477.573 58.6973C476.872 59.9776 477.204 61.5577 478.313 62.2265L478.775 62.5052C479.885 63.174 481.352 62.6782 482.053 61.3979L492.362 42.5619C493.062 41.2815 492.731 39.7014 491.622 39.0326Z" stroke="white" stroke-width="1.18195" stroke-miterlimit="10"/>
<path d="M491.493 64.5414L493.24 65.5988C493.24 65.5988 495.438 63.6986 496.172 63.8648C496.907 64.0309 497.906 65.6662 497.906 65.6662C498.49 66.6151 498.781 67.7631 498.741 68.956L500.843 70.2285" stroke="white" stroke-width="0.462504" stroke-linecap="round" stroke-linejoin="round"/>
<path d="M499.272 69.3384L501.019 70.3959C501.019 70.3959 503.216 68.4956 503.951 68.6618C504.686 68.8279 505.685 70.4633 505.685 70.4633C506.228 71.3856 506.462 72.5071 506.351 73.6513L508.652 75.0442" stroke="white" stroke-width="0.462504" stroke-linecap="round" stroke-linejoin="round"/>
<path d="M507.433 74.3774L509.186 75.4384C509.186 75.4384 511.384 73.5382 512.118 73.7044C512.853 73.8705 513.852 75.5058 513.852 75.5058C514.435 76.4548 514.727 77.6028 514.686 78.7957L516.789 80.0682" stroke="white" stroke-width="0.462504" stroke-linecap="round" stroke-linejoin="round"/>
<path d="M515.179 79.1552L516.932 80.2164C516.932 80.2164 519.13 78.3158 519.865 78.482C520.599 78.6482 521.599 80.2838 521.599 80.2838C522.281 81.2815 522.115 82.2767 522.085 83.2427L524.585 84.7562" stroke="white" stroke-width="0.462504" stroke-linecap="round" stroke-linejoin="round"/>
<path d="M142.446 -4.84405L122.725 -16.6554C120.851 -17.7777 118.372 -16.9471 117.187 -14.8002L104.721 7.79523C103.536 9.94217 104.095 12.5924 105.969 13.7147L125.69 25.5261C127.564 26.6483 130.043 25.8177 131.228 23.6708L143.694 1.07536C144.879 -1.07158 144.32 -3.72177 142.446 -4.84405Z" stroke="white" stroke-width="1.3247" stroke-miterlimit="10"/>
<path d="M169.406 -12.8385L163.255 -16.5227C162.488 -16.9826 161.472 -16.6422 160.987 -15.7623L154.437 -3.88759C153.952 -3.00773 154.181 -1.92164 154.949 -1.46174L161.099 2.22253C161.867 2.68244 162.883 2.34199 163.368 1.46214L169.917 -10.4126C170.402 -11.2925 170.173 -12.3786 169.406 -12.8385Z" stroke="white" stroke-width="1.3247" stroke-miterlimit="10"/>
<path d="M177.886 6.33731L171.736 2.65304C170.968 2.19314 169.952 2.53358 169.467 3.41344L162.918 15.2882C162.433 16.168 162.662 17.2541 163.429 17.714L169.58 21.3983C170.347 21.8582 171.363 21.5178 171.848 20.6379L178.397 8.76316C178.883 7.88331 178.654 6.79721 177.886 6.33731Z" stroke="white" stroke-width="1.43319" stroke-miterlimit="10"/>
<path d="M158.75 -0.245622C158.75 -0.245622 155.032 12.0006 149.299 16.8824C143.566 21.7642 133.653 21.8333 133.653 21.8333L132.046 24.7463C132.046 24.7463 143.675 34.3956 153.436 31.3889C163.196 28.3822 166.408 18.6967 166.408 18.6967" stroke="white" stroke-width="1.3247" stroke-miterlimit="10"/>
<path d="M137.527 -1.6764L122.513 -10.6793C121.307 -11.4022 119.712 -10.8671 118.95 -9.48405L113.063 1.1998C112.301 2.58286 112.661 4.29009 113.866 5.01303L128.88 14.0159C130.086 14.7389 131.681 14.2037 132.443 12.8207L138.33 2.13682C139.092 0.753768 138.733 -0.953466 137.527 -1.6764Z" stroke="white" stroke-width="0.71374" stroke-miterlimit="10"/>
<path d="M126.939 20.6943C127.635 21.1113 128.556 20.8026 128.996 20.005C129.436 19.2073 129.228 18.2227 128.532 17.8058C127.836 17.3888 126.915 17.6974 126.475 18.4951C126.035 19.2927 126.242 20.2774 126.939 20.6943Z" stroke="white" stroke-width="0.71374" stroke-miterlimit="10"/>
<path d="M118.289 15.3584C118.986 15.7753 119.907 15.4667 120.347 14.6691C120.787 13.8714 120.579 12.8868 119.883 12.4698C119.187 12.0528 118.266 12.3615 117.826 13.1591C117.386 13.9568 117.593 14.9414 118.289 15.3584Z" stroke="white" stroke-width="0.71374" stroke-miterlimit="10"/>
<path d="M109.665 10.0342C110.361 10.4511 111.282 10.1425 111.722 9.34484C112.162 8.54719 111.955 7.56256 111.258 7.1456C110.562 6.72864 109.641 7.03726 109.201 7.8349C108.761 8.63255 108.969 9.6172 109.665 10.0342Z" stroke="white" stroke-width="0.71374" stroke-miterlimit="10"/>
<path d="M226.739 -27.7351L211.034 -37.1439C209.356 -38.1496 207.135 -37.4051 206.074 -35.481L188.527 -3.65877C187.466 -1.73472 187.966 0.640313 189.645 1.646L205.349 11.0548C207.028 12.0605 209.249 11.316 210.31 9.39195L227.857 -22.4303C228.918 -24.3544 228.417 -26.7294 226.739 -27.7351Z" stroke="white" stroke-width="1.14198" stroke-linecap="round" stroke-linejoin="round"/>
<path d="M223.728 -26.304L211.332 -33.7298C210.043 -34.5025 208.336 -33.9305 207.521 -32.4522L194.357 -8.58255C193.542 -7.10424 193.926 -5.27943 195.216 -4.50672L207.612 2.91908C208.902 3.69179 210.608 3.11979 211.424 1.64148L224.587 -22.2282C225.403 -23.7065 225.018 -25.5313 223.728 -26.304Z" stroke="white" stroke-width="0.748" stroke-linecap="round" stroke-linejoin="round"/>
<path d="M199.081 3.79226C199.787 4.21506 200.721 3.90213 201.168 3.0933C201.614 2.28448 201.403 1.28602 200.697 0.863214C199.991 0.440411 199.057 0.753371 198.611 1.5622C198.165 2.37103 198.375 3.36946 199.081 3.79226Z" stroke="white" stroke-width="0.748" stroke-linecap="round" stroke-linejoin="round"/>
<path d="M96.482 -5.5956L70.2152 -21.3519C67.8959 -22.7432 64.8272 -21.7133 63.3612 -19.0516L54.2564 -2.52072C52.7904 0.141021 53.4822 3.42667 55.8016 4.81796L82.0684 20.5743C84.3877 21.9656 87.4564 20.9357 88.9224 18.2739L98.0271 1.74307C99.4932 -0.918673 98.8014 -4.20431 96.482 -5.5956Z" stroke="white" stroke-width="1.3247" stroke-linecap="round" stroke-linejoin="round"/>
<path d="M61.8889 5.04043C64.449 0.854846 67.7587 -0.948408 71.99 0.201246C71.99 0.201246 74.1234 -12.6566 80.7415 -8.69247C87.3595 -4.72833 77.4144 3.4414 77.4144 3.4414C82.4293 7.45238 80.6827 13.4921 79.3837 15.5196" stroke="white" stroke-width="0.75371" stroke-linecap="round" stroke-linejoin="round"/>
<path d="M117.439 29.0919L91.172 13.3356C88.8526 11.9443 85.784 12.9741 84.318 15.6359L75.2132 32.1667C73.7472 34.8285 74.439 38.1141 76.7584 39.5054L103.025 55.2618C105.345 56.653 108.413 55.6231 109.879 52.9614L118.984 36.4305C120.45 33.7688 119.758 30.4832 117.439 29.0919Z" stroke="white" stroke-width="1.3247" stroke-linecap="round" stroke-linejoin="round"/>
<path d="M82.8539 39.7273C85.4139 35.5418 88.7177 33.7352 92.9488 34.8848C92.9488 34.8848 95.0822 22.0273 101.7 25.9913C108.318 29.9553 98.3613 38.1177 98.3613 38.1177C100.068 39.3442 101.223 41.2807 101.59 43.5278C101.956 45.775 101.505 48.1616 100.331 50.1955" stroke="white" stroke-width="0.75371" stroke-linecap="round" stroke-linejoin="round"/>
<path d="M113.327 74.5246L110.823 79.1189C110.514 79.6855 110.023 80.1113 109.459 80.3027C108.895 80.4941 108.304 80.4352 107.815 80.1392L75.5442 61.5313C75.3024 61.3849 75.0931 61.1846 74.9283 60.942C74.7636 60.6993 74.6466 60.4191 74.584 60.1172C74.5215 59.8154 74.5147 59.4979 74.564 59.183C74.6132 58.8682 74.7176 58.5621 74.8712 58.2824L78.0337 52.4803C78.1857 52.1995 78.384 51.9503 78.6172 51.7468C78.8505 51.5433 79.1141 51.3896 79.393 51.2945C79.6719 51.1994 79.9606 51.1647 80.2425 51.1924C80.5244 51.2202 80.794 51.3098 81.0359 51.4562L112.656 71.258C112.899 71.4052 113.109 71.6067 113.274 71.8508C113.44 72.095 113.557 72.3769 113.62 72.6805C113.682 72.9842 113.688 73.3034 113.638 73.6199C113.588 73.9364 113.482 74.2439 113.327 74.5246V74.5246Z" stroke="white" stroke-width="1.3247" stroke-miterlimit="10"/>
<path d="M98.1418 66.9962C97.5678 66.6475 96.8086 66.906 96.4461 67.5736C96.0836 68.2413 96.2551 69.0652 96.8291 69.4139L106.491 75.2834C107.065 75.6321 107.824 75.3736 108.187 74.7059C108.549 74.0383 108.378 73.2144 107.804 72.8657L98.1418 66.9962Z" stroke="white" stroke-width="0.593832" stroke-miterlimit="10"/>
<path d="M117.612 78.8942L116.261 81.3424C116.158 81.5304 116.024 81.6973 115.866 81.8335C115.709 81.9698 115.53 82.0727 115.342 82.1365C115.153 82.2002 114.958 82.2235 114.767 82.2049C114.576 82.1864 114.394 82.1264 114.23 82.0284L111.116 80.1633C110.884 79.944 111.411 79.443 111.828 78.6876L113.179 76.2394C113.614 75.4502 113.735 74.7776 114.041 74.8621L117.155 76.7271C117.319 76.8241 117.461 76.9572 117.572 77.1189C117.684 77.2805 117.764 77.4675 117.806 77.669C117.848 77.8705 117.853 78.0825 117.82 78.2928C117.787 78.5031 117.716 78.7075 117.612 78.8942V78.8942Z" stroke="white" stroke-width="1.40464" stroke-miterlimit="10"/>
<path d="M44.4463 -4.68039C40.3215 -1.96359 27.3691 -9.82795 26.4857 -13.4104C25.8506 -17.5137 31.1814 -18.419 35.5173 -24.527C40.1482 -31.0566 37.6708 -37.781 38.9941 -40.1936C42.4186 -46.401 54.0456 -33.1256 54.0536 -22.0947C54.1292 -17.5141 48.577 -7.39367 44.4463 -4.68039Z" stroke="white" stroke-width="1.3247" stroke-linecap="round" stroke-linejoin="round"/>
<path d="M71.359 104.426C67.2342 107.142 54.2817 99.2781 53.3925 95.6921C52.767 91.5857 58.094 90.687 62.4337 84.5723C67.0645 78.0428 64.5835 71.3252 65.9067 68.9125C69.335 62.6984 80.9619 75.9739 80.9699 87.0047C81.0454 91.5853 75.4896 101.712 71.359 104.426Z" stroke="white" stroke-width="1.3247" stroke-linecap="round" stroke-linejoin="round"/>
<path d="M64.9836 69.3489L62.3702 67.7812L61.548 71.3686L64.7566 73.3477L64.9836 69.3489Z" stroke="white" stroke-width="1.3247" stroke-linecap="round" stroke-linejoin="round"/>
<path d="M71.7271 95.6605C69.5193 97.1059 62.6156 92.882 62.1303 90.9933C61.7845 88.7952 64.642 88.3191 66.9633 85.0579C69.4317 81.5722 68.1129 77.9879 68.8179 76.696C70.6468 73.3809 76.8653 80.471 76.8643 86.3629C76.8977 88.8024 73.9291 94.2116 71.7271 95.6605Z" stroke="white" stroke-width="0.542443" stroke-linecap="round" stroke-linejoin="round"/>
<path d="M44.1873 66.4261L2.76302 41.5541C-0.973238 39.3108 -5.9164 40.9716 -8.27785 45.2636L-19.5507 65.7525C-21.9122 70.0445 -20.7977 75.3425 -17.0614 77.5858L24.3629 102.458C28.0992 104.701 33.0423 103.04 35.4038 98.7483L46.6767 78.2594C49.0381 73.9674 47.9236 68.6694 44.1873 66.4261Z" stroke="white" stroke-width="1.3247" stroke-miterlimit="10"/>
<path d="M41.0504 69.9057L12.7734 52.9407C10.0196 51.2886 6.3762 52.5116 4.63561 55.6725L-4.53374 72.3237C-6.27433 75.4846 -5.45296 79.3863 -2.69916 81.0385L25.5778 98.0035C28.3316 99.6556 31.975 98.4326 33.7156 95.2717L42.885 78.6205C44.6255 75.4596 43.8042 71.5579 41.0504 69.9057Z" stroke="white" stroke-width="0.885038" stroke-miterlimit="10"/>
<path d="M4.63373 62.4654L8.03181 64.5189L14.2341 59.6806L13.7514 67.9755L17.1495 70.029L16.3088 75.0541L20.3671 71.9735L28.2339 76.7276L34.416 71.5161L33.4242 79.8643L37.3576 82.2413" stroke="white" stroke-width="0.75371" stroke-linecap="round" stroke-linejoin="round"/>
<path d="M-1.77446 46.8451L-2.23673 46.5664C-3.3462 45.8976 -4.81365 46.3934 -5.51436 47.6738L-15.8229 66.5097C-16.5237 67.7901 -16.1923 69.3702 -15.0828 70.039L-14.6206 70.3177C-13.5111 70.9865 -12.0436 70.4907 -11.3429 69.2103L-1.03434 50.3744C-0.333632 49.094 -0.664992 47.5139 -1.77446 46.8451Z" stroke="white" stroke-width="1.18195" stroke-miterlimit="10"/>
<path d="M-1.90797 72.3485L-0.160976 73.406C-0.160976 73.406 2.04054 71.4987 2.7774 71.6755C3.51427 71.8523 4.51517 73.4701 4.51517 73.4701C5.09563 74.4208 5.38652 75.5678 5.34951 76.7602L7.45193 78.0328" stroke="white" stroke-width="0.462504" stroke-linecap="round" stroke-linejoin="round"/>
<path d="M5.86859 77.1456L7.61564 78.2031C7.61564 78.2031 9.82326 76.2993 10.5541 76.4725C11.285 76.6457 12.2919 78.2672 12.2919 78.2672C12.8338 79.1901 13.068 80.3113 12.9576 81.4554L15.2589 82.8485" stroke="white" stroke-width="0.462504" stroke-linecap="round" stroke-linejoin="round"/>
<path d="M13.9991 82.1649L15.7461 83.2223C15.7461 83.2223 17.9476 81.3151 18.6845 81.4919C19.4213 81.6687 20.4162 83.2828 20.4162 83.2828C21.0004 84.2332 21.2935 85.382 21.2566 86.5765L23.353 87.8454" stroke="white" stroke-width="0.462504" stroke-linecap="round" stroke-linejoin="round"/>
<path d="M21.7819 86.9699L23.529 88.0274C23.529 88.0274 25.7306 86.12 26.4675 86.2968C27.2044 86.4736 28.1993 88.0879 28.1993 88.0879C28.8835 89.0963 28.7116 90.0878 28.6916 91.0505L31.1857 92.5603" stroke="white" stroke-width="0.462504" stroke-linecap="round" stroke-linejoin="round"/>
<path d="M184.884 75.5551L177.504 71.1317L174.386 72.3352L172.674 71.3096L172.201 67.9538L164.722 63.4711C163.868 62.9571 163.264 62.0759 163.041 61.0206C162.819 59.9654 162.996 58.822 163.535 57.841L184.89 19.0968C185.432 18.1176 186.29 17.3821 187.276 17.0512C188.263 16.7204 189.297 16.8213 190.153 17.3318L196.491 21.1308C196.491 21.1308 198.481 17.0578 202.415 19.416C206.35 21.7742 204.308 25.8157 204.308 25.8157L210.321 29.4193C211.173 29.9345 211.775 30.8155 211.996 31.8699C212.218 32.9242 212.04 34.066 211.502 35.0459L190.132 73.8168C189.587 74.7877 188.73 75.5148 187.747 75.8403C186.765 76.1657 185.736 76.0632 184.884 75.5551Z" stroke="white" stroke-width="1.3247" stroke-linecap="round" stroke-linejoin="round"/>
<path d="M199.814 23.6825C200.293 23.9689 200.925 23.7569 201.228 23.209C201.53 22.661 201.387 21.9847 200.909 21.6983C200.431 21.4119 199.798 21.6238 199.496 22.1718C199.193 22.7197 199.336 23.3961 199.814 23.6825Z" stroke="white" stroke-width="0.702321" stroke-linecap="round" stroke-linejoin="round"/>
<path d="M201.796 47.357L188.585 71.3019C187.899 72.3605 187.081 72.8651 185.961 72.0601L167.041 60.7295C166.815 60.6507 166.613 60.5127 166.453 60.3269C166.293 60.1412 166.179 59.9129 166.12 59.6607C166.06 59.4085 166.058 59.1397 166.113 58.8761C166.167 58.6126 166.277 58.3618 166.434 58.1444L179.69 34.1186C181.643 31.5433 202.573 43.3697 201.796 47.357Z" stroke="white" stroke-width="0.673771" stroke-linecap="round" stroke-linejoin="round"/>
<path d="M68.2996 20.1634L52.5954 10.7545C50.9168 9.74886 48.696 10.4934 47.635 12.4174L30.0878 44.2397C29.0268 46.1637 29.5275 48.5388 31.2061 49.5444L46.9103 58.9532C48.5889 59.9589 50.8097 59.2144 51.8707 57.2904L69.4179 25.4681C70.4788 23.5441 69.9781 21.169 68.2996 20.1634Z" stroke="white" stroke-width="1.3247" stroke-linecap="round" stroke-linejoin="round"/>
<path d="M65.2852 21.5983L52.8895 14.1726C51.5996 13.3998 49.893 13.9718 49.0778 15.4502L35.9139 39.3198C35.0986 40.7981 35.4834 42.623 36.7732 43.3957L49.1689 50.8215C50.4588 51.5942 52.1653 51.0222 52.9806 49.5439L66.1445 25.6742C66.9597 24.1959 66.575 22.3711 65.2852 21.5983Z" stroke="white" stroke-width="0.748" stroke-linecap="round" stroke-linejoin="round"/>
<path d="M40.6383 51.6985C41.3443 52.1213 42.2783 51.8083 42.7245 50.9995C43.1708 50.1907 42.9603 49.1923 42.2543 48.7695C41.5484 48.3467 40.6143 48.6596 40.1681 49.4684C39.7218 50.2772 39.9324 51.2757 40.6383 51.6985Z" stroke="white" stroke-width="0.748" stroke-linecap="round" stroke-linejoin="round"/>
<path d="M135.053 72.0083L125.245 66.1348C124.525 65.699 124.016 64.9549 123.828 64.0646C123.64 63.1742 123.789 62.2097 124.242 61.381L133.242 39.8446C133.701 39.0195 134.426 38.4001 135.259 38.121C136.092 37.8419 136.966 37.9259 137.69 38.3546L152.372 47.1472C153.094 47.5818 153.605 48.326 153.794 49.2173C153.983 50.1086 153.834 51.0747 153.38 51.9046L139.483 70.5077C139.026 71.3308 138.305 71.95 137.476 72.2309C136.647 72.5119 135.776 72.4319 135.053 72.0083V72.0083Z" stroke="white" stroke-width="1.3247" stroke-linecap="round" stroke-linejoin="round"/>
<path d="M148.444 41.9721L143.744 39.1358C143.094 38.7437 142.234 39.0341 141.823 39.7846C141.413 40.535 141.607 41.4612 142.257 41.8533L146.957 44.6896C147.607 45.0817 148.467 44.7913 148.878 44.0408C149.288 43.2904 149.094 42.3642 148.444 41.9721Z" stroke="white" stroke-width="1.3247" stroke-linecap="round" stroke-linejoin="round"/>
<path d="M132.066 41.0078L152.679 53.7294" stroke="white" stroke-width="0.662351" stroke-linecap="round" stroke-linejoin="round"/>
<path d="M16.9183 30.793L7.10453 24.916C6.38471 24.4802 5.87549 23.7362 5.68773 22.8458C5.49996 21.9555 5.64886 20.9909 6.10201 20.1622L15.098 -1.36748C15.5571 -2.19577 16.2838 -2.8179 17.1191 -3.09774C17.9545 -3.37759 18.8304 -3.29234 19.5552 -2.86066L34.2376 5.93199C34.9584 6.36839 35.468 7.11387 35.6552 8.00577C35.8423 8.89767 35.6918 9.86353 35.2364 10.6925L21.3483 29.2925C20.8909 30.1141 20.1699 30.732 19.341 31.0128C18.5121 31.2935 17.6419 31.2146 16.9183 30.793V30.793Z" stroke="white" stroke-width="1.3247" stroke-linecap="round" stroke-linejoin="round"/>
<path d="M30.298 0.761137L25.5972 -2.07517C24.9474 -2.46728 24.0877 -2.1768 23.6771 -1.42637C23.2665 -0.675936 23.4605 0.250254 24.1103 0.642366L28.8111 3.47867C29.461 3.87079 30.3206 3.58034 30.7312 2.82991C31.1418 2.07948 30.9479 1.15325 30.298 0.761137Z" stroke="white" stroke-width="1.3247" stroke-linecap="round" stroke-linejoin="round"/>
<path d="M13.9215 -0.191406L34.5348 12.5302" stroke="white" stroke-width="0.662351" stroke-linecap="round" stroke-linejoin="round"/>
<path d="M-22.3166 40.8659L-29.6971 36.4425L-32.8151 37.6459L-34.5263 36.6203L-34.9997 33.2645L-42.4792 28.7819C-42.9049 28.5291 -43.2737 28.1826 -43.5647 27.7621C-43.8556 27.3417 -44.063 26.8556 -44.1748 26.3317C-44.2866 25.8078 -44.3008 25.2563 -44.2164 24.7089C-44.1321 24.1614 -43.9509 23.6287 -43.6832 23.1412L-22.3134 -15.6297C-21.7723 -16.6078 -20.9156 -17.3428 -19.9306 -17.6742C-18.9455 -18.0056 -17.9123 -17.9063 -17.0566 -17.3982L-10.6946 -13.5853C-10.6946 -13.5853 -8.70524 -17.6583 -4.77051 -15.3001C-0.835778 -12.9419 -2.87758 -8.90034 -2.87758 -8.90034L3.12929 -5.30026C3.98306 -4.78622 4.58733 -3.90506 4.80974 -2.84978C5.03214 -1.79451 4.85455 -0.651109 4.31587 0.329925L-17.0539 39.1009C-17.5957 40.0801 -18.4538 40.8156 -19.4401 41.1465C-20.4265 41.4773 -21.4609 41.3764 -22.3166 40.8659V40.8659Z" stroke="white" stroke-width="1.3247" stroke-linecap="round" stroke-linejoin="round"/>
<path d="M233.1 110.797L191.676 85.9252C187.94 83.6819 182.997 85.3427 180.635 89.6347L169.362 110.124C167.001 114.416 168.115 119.714 171.852 121.957L213.276 146.829C217.012 149.072 221.955 147.411 224.317 143.119L235.59 122.631C237.951 118.338 236.837 113.041 233.1 110.797Z" stroke="white" stroke-width="1.3247" stroke-miterlimit="10"/>
<path d="M346.795 102.549L320.528 86.7926C318.209 85.4013 315.14 86.4312 313.674 89.093L304.569 105.624C303.103 108.286 303.795 111.571 306.114 112.962L332.381 128.719C334.7 130.11 337.769 129.08 339.235 126.418L348.34 109.888C349.806 107.226 349.114 103.94 346.795 102.549Z" stroke="white" stroke-width="1.3247" stroke-linecap="round" stroke-linejoin="round"/>
<path d="M278.804 37.564L282.047 31.6157C282.455 30.8859 283.095 30.3404 283.827 30.0973C284.56 29.8542 285.326 29.9331 285.96 30.3169L327.708 54.3923C328.347 54.7792 328.8 55.4445 328.966 56.2418C329.133 57.0391 328.999 57.9032 328.595 58.6438L324.501 66.1559C324.097 66.8966 323.456 67.4532 322.718 67.7033C321.981 67.9534 321.208 67.8766 320.569 67.4896L279.634 41.8637C279.317 41.6669 279.043 41.3991 278.83 41.0757C278.616 40.7523 278.466 40.3798 278.389 39.9798C278.312 39.5799 278.309 39.1603 278.38 38.7456C278.452 38.3309 278.596 37.9293 278.804 37.564V37.564Z" stroke="white" stroke-width="1.3247" stroke-miterlimit="10"/>
<path d="M298.48 47.3036C299.224 47.7557 300.207 47.4221 300.676 46.5584C301.145 45.6948 300.922 44.6281 300.178 44.176L287.676 36.5811C286.932 36.129 285.948 36.4627 285.479 37.3263C285.01 38.19 285.234 39.2566 285.978 39.7087L298.48 47.3036Z" stroke="white" stroke-width="0.76513" stroke-miterlimit="10"/>
<path d="M273.263 31.8852L275.012 28.7152C275.282 28.2262 275.71 27.8585 276.202 27.6925C276.695 27.5265 277.211 27.5759 277.639 27.8297L281.671 30.2447C281.974 30.5337 281.314 31.1342 280.752 32.1527L279.003 35.3226C278.441 36.3411 278.271 37.2445 277.883 37.1107L273.851 34.6957C273.425 34.4383 273.124 33.998 273.014 33.4712C272.904 32.9445 272.993 32.3741 273.263 31.8852V31.8852Z" stroke="white" stroke-width="1.82147" stroke-miterlimit="10"/>
<path d="M214.967 78.8324L209.708 75.6822C209.53 75.5768 209.376 75.432 209.254 75.2563C209.133 75.0806 209.047 74.8773 209.001 74.6584C208.954 74.4394 208.949 74.2089 208.985 73.9804C209.022 73.7519 209.098 73.5297 209.211 73.3268L215.129 61.005C215.598 60.1546 215.978 59.4648 216.715 59.9059L224.311 64.4562C225.053 64.9007 224.967 65.0716 224.209 66.4444L217.141 78.0766C216.919 78.4826 216.566 78.7895 216.16 78.931C215.753 79.0725 215.324 79.0371 214.967 78.8324V78.8324Z" stroke="white" stroke-width="1.3247" stroke-linecap="round" stroke-linejoin="round"/>
<path d="M227.333 86.4652L222.075 83.315C221.897 83.2096 221.742 83.0648 221.621 82.8891C221.5 82.7134 221.413 82.5101 221.367 82.2912C221.321 82.0722 221.316 81.8418 221.352 81.6132C221.388 81.3847 221.465 81.1625 221.578 80.9596L227.495 68.6378C227.965 67.7874 228.345 67.0977 229.081 67.5387L236.678 72.089C237.42 72.5335 237.333 72.7044 236.576 74.0772L229.507 85.7094C229.285 86.1154 228.933 86.4223 228.526 86.5638C228.119 86.7053 227.691 86.6699 227.333 86.4652V86.4652Z" stroke="white" stroke-width="1.3247" stroke-linecap="round" stroke-linejoin="round"/>
<path d="M216.753 58.3016L225.509 63.5752C225.509 63.5752 227.715 59.5509 223.337 56.9141C218.959 54.2773 216.753 58.3016 216.753 58.3016Z" stroke="white" stroke-width="1.3247" stroke-linecap="round" stroke-linejoin="round"/>
<path d="M229.107 65.9266L237.863 71.2002C237.863 71.2002 240.07 67.1759 235.692 64.5391C231.313 61.9023 229.107 65.9266 229.107 65.9266Z" stroke="white" stroke-width="1.3247" stroke-linecap="round" stroke-linejoin="round"/>
<path d="M256.275 107.771L205.824 76.8855C204.764 76.2368 203.363 76.7183 202.694 77.9609L202.594 78.1461C201.925 79.3887 202.242 80.9219 203.302 81.5706L253.754 112.456C254.813 113.104 256.215 112.623 256.883 111.38L256.983 111.195C257.652 109.952 257.335 108.419 256.275 107.771Z" stroke="white" stroke-width="1.3247" stroke-linecap="round" stroke-linejoin="round"/>
<path d="M292.721 83.9879L253.516 60.4669C252.22 59.6891 250.505 60.2649 249.685 61.753L234.863 88.6694C234.044 90.1575 234.43 91.9943 235.727 92.7721L274.932 116.293C276.228 117.071 277.943 116.495 278.763 115.007L293.585 88.0907C294.405 86.6026 294.018 84.7658 292.721 83.9879Z" stroke="white" stroke-width="1.3247" stroke-linecap="round" stroke-linejoin="round"/>
<path d="M262.062 71.3524L254.393 66.7513C253.881 66.4443 253.203 66.6716 252.88 67.2592L241.206 88.4643C240.883 89.0519 241.036 89.7772 241.547 90.0842L249.217 94.6853C249.729 94.9923 250.406 94.765 250.729 94.1774L262.403 72.9723C262.727 72.3847 262.574 71.6594 262.062 71.3524Z" stroke="white" stroke-width="0.513893" stroke-linecap="round" stroke-linejoin="round"/>
<path d="M286.518 86.8045L266.167 74.523C265.703 74.2428 265.088 74.4504 264.795 74.9866L261.301 81.3744C261.007 81.9107 261.146 82.5725 261.61 82.8527L281.961 95.1343C282.425 95.4145 283.04 95.2069 283.333 94.6707L286.827 88.2829C287.121 87.7467 286.982 87.0848 286.518 86.8045Z" stroke="white" stroke-width="0.445374" stroke-linecap="round" stroke-linejoin="round"/>
<path d="M268.486 88.6097L260.837 84.0287C260.465 83.8057 259.972 83.9708 259.737 84.3973L253.457 95.7802C253.221 96.2067 253.332 96.7332 253.705 96.9561L261.354 101.537C261.726 101.76 262.219 101.595 262.454 101.169L268.734 89.7857C268.97 89.3592 268.859 88.8327 268.486 88.6097Z" stroke="white" stroke-width="0.365435" stroke-linecap="round" stroke-linejoin="round"/>
<path d="M306.265 72.9075L303.76 77.5017C303.452 78.0683 302.961 78.4941 302.397 78.6855C301.833 78.8768 301.241 78.8181 300.752 78.522L268.488 59.9178C267.999 59.6218 267.653 59.1128 267.525 58.5028C267.398 57.8928 267.5 57.2318 267.809 56.6652L270.971 50.8631C271.28 50.2964 271.771 49.8706 272.335 49.6792C272.899 49.4879 273.491 49.5467 273.979 49.8427L305.583 69.6442C305.827 69.7904 306.038 69.9911 306.204 70.2346C306.37 70.478 306.489 70.7595 306.552 71.0628C306.615 71.3661 306.622 71.6852 306.573 72.0018C306.524 72.3184 306.419 72.6262 306.265 72.9075V72.9075Z" stroke="white" stroke-width="1.3247" stroke-miterlimit="10"/>
<path d="M291.073 65.3943C290.499 65.0456 289.74 65.3042 289.378 65.9718C289.015 66.6394 289.187 67.4633 289.761 67.812L299.422 73.6816C299.996 74.0303 300.756 73.7717 301.118 73.1041C301.481 72.4365 301.309 71.6126 300.735 71.2639L291.073 65.3943Z" stroke="white" stroke-width="0.593832" stroke-miterlimit="10"/>
<path d="M310.544 77.2994L309.193 79.7478C308.985 80.1258 308.654 80.4103 308.273 80.5388C307.893 80.6674 307.493 80.6296 307.162 80.4337L304.048 78.5686C303.811 78.3458 304.338 77.8448 304.754 77.0894L306.105 74.6411C306.541 73.8519 306.661 73.1792 306.973 73.2672L310.087 75.1323C310.25 75.23 310.391 75.3636 310.503 75.5254C310.614 75.6872 310.693 75.874 310.735 76.0752C310.778 76.2765 310.783 76.4881 310.75 76.6982C310.717 76.9082 310.647 77.1125 310.544 77.2994Z" stroke="white" stroke-width="1.40464" stroke-miterlimit="10"/>
<path d="M243.428 52.1642L236.024 47.7269L232.906 48.9304L231.189 47.9013L230.786 44.5873L223.265 40.0802C222.412 39.5661 221.807 38.685 221.585 37.6297C221.363 36.5744 221.54 35.431 222.079 34.45L243.449 -4.32112C243.992 -5.29885 244.85 -6.03311 245.836 -6.36374C246.821 -6.69437 247.855 -6.59457 248.711 -6.0861L255.068 -2.27669C255.068 -2.27669 257.063 -6.34619 260.998 -3.98799C264.932 -1.62979 262.891 2.4118 262.891 2.4118L268.903 6.01538C269.754 6.53204 270.355 7.41312 270.576 8.46689C270.797 9.52065 270.62 10.6618 270.084 11.6421L248.714 50.4132C248.445 50.9003 248.094 51.3321 247.682 51.684C247.27 52.0358 246.806 52.3006 246.314 52.4633C245.823 52.6259 245.316 52.6833 244.82 52.632C244.325 52.5807 243.852 52.4217 243.428 52.1642Z" stroke="white" stroke-width="1.3247" stroke-linecap="round" stroke-linejoin="round"/>
<path d="M258.371 0.260585C258.849 0.547 259.482 0.33499 259.784 -0.212926C260.086 -0.760842 259.944 -1.43718 259.466 -1.7236C258.987 -2.01001 258.355 -1.79803 258.052 -1.25012C257.75 -0.702201 257.893 -0.0258305 258.371 0.260585Z" stroke="white" stroke-width="0.702321" stroke-linecap="round" stroke-linejoin="round"/>
<path d="M260.354 23.9397L247.142 47.8846C246.457 48.9431 245.639 49.4477 244.519 48.6427L225.598 37.3122C225.371 37.2348 225.169 37.0976 225.008 36.912C224.847 36.7264 224.732 36.4978 224.673 36.2451C224.613 35.9924 224.611 35.7228 224.667 35.4588C224.722 35.1948 224.834 34.944 224.992 34.727L238.248 10.7013C240.201 8.12599 261.131 19.9524 260.354 23.9397Z" stroke="white" stroke-width="0.673771" stroke-linecap="round" stroke-linejoin="round"/>
<path d="M152.81 101.32L145.667 97.0417C145.069 96.681 144.645 96.0634 144.489 95.324C144.333 94.5845 144.458 93.7834 144.835 93.0958L149.843 84.0191C150.223 83.3333 150.825 82.8182 151.517 82.5864C152.209 82.3547 152.934 82.4251 153.534 82.7823L155.122 83.7333L156.63 81.0009L160.802 83.4995L159.148 86.1442L160.665 87.0531C161.262 87.4153 161.685 88.0329 161.841 88.7718C161.996 89.5106 161.873 90.311 161.498 90.9991L156.49 100.076C156.11 100.758 155.511 101.271 154.822 101.503C154.134 101.736 153.411 101.67 152.81 101.32Z" stroke="white" stroke-width="1.3247" stroke-linecap="round" stroke-linejoin="round"/>
<path d="M162.508 80.3623L158.241 77.7934C157.395 77.284 156.276 77.6613 155.741 78.636L155.737 78.6429C155.202 79.6177 155.455 80.8208 156.301 81.3302L160.568 83.899C161.414 84.4084 162.534 84.0312 163.069 83.0564L163.072 83.0495C163.607 82.0748 163.355 80.8717 162.508 80.3623Z" stroke="white" stroke-width="1.3247" stroke-linecap="round" stroke-linejoin="round"/>
<path d="M437.088 -18.33L410.822 -34.0863C408.502 -35.4776 405.434 -34.4477 403.968 -31.786L394.863 -15.2551C393.397 -12.5934 394.089 -9.30773 396.408 -7.91644L422.675 7.83991C424.994 9.2312 428.063 8.20132 429.529 5.53958L438.634 -10.9913C440.1 -13.653 439.408 -16.9387 437.088 -18.33Z" stroke="white" stroke-width="1.3247" stroke-linecap="round" stroke-linejoin="round"/>
<path d="M402.497 -7.69426C405.057 -11.8798 408.367 -13.683 412.598 -12.5334C412.598 -12.5334 414.732 -25.391 421.35 -21.4269C427.968 -17.4629 418.011 -9.3003 418.011 -9.3003C423.02 -5.29293 421.273 0.74667 419.98 2.77768" stroke="white" stroke-width="0.75371" stroke-linecap="round" stroke-linejoin="round"/>
<path d="M380.842 65.0739L361.12 53.2625C359.246 52.1403 356.767 52.9709 355.583 55.1179L343.116 77.7132C341.932 79.8601 342.491 82.5104 344.365 83.6327L364.086 95.4441C365.96 96.5663 368.439 95.7357 369.623 93.5887L382.09 70.9934C383.274 68.8464 382.715 66.1962 380.842 65.0739Z" stroke="white" stroke-width="1.3247" stroke-miterlimit="10"/>
<path d="M407.803 57.0795L401.653 53.3952C400.885 52.9353 399.87 53.2758 399.384 54.1556L392.835 66.0304C392.35 66.9103 392.579 67.9963 393.347 68.4562L399.497 72.1405C400.265 72.6004 401.28 72.26 401.766 71.3801L408.315 59.5054C408.8 58.6255 408.571 57.5394 407.803 57.0795Z" stroke="white" stroke-width="1.3247" stroke-miterlimit="10"/>
<path d="M416.284 76.2553L410.133 72.571C409.366 72.1111 408.35 72.4515 407.865 73.3314L401.316 85.2062C400.83 86.086 401.059 87.1721 401.827 87.632L407.977 91.3163C408.745 91.7762 409.761 91.4358 410.246 90.5559L416.795 78.6811C417.28 77.8013 417.051 76.7152 416.284 76.2553Z" stroke="white" stroke-width="1.3247" stroke-miterlimit="10"/>
<path d="M397.137 69.6917C397.137 69.6917 393.419 81.9376 387.687 86.8192C381.954 91.7009 372.041 91.77 372.041 91.77L370.412 94.7233C370.412 94.7233 382.041 104.372 391.801 101.366C401.561 98.3591 404.772 88.6739 404.772 88.6739" stroke="white" stroke-width="1.3247" stroke-miterlimit="10"/>
<path d="M375.923 68.2416L360.908 59.2387C359.703 58.5157 358.108 59.0509 357.346 60.4339L351.459 71.1178C350.697 72.5008 351.056 74.2081 352.262 74.931L367.276 83.9339C368.482 84.6568 370.077 84.1217 370.839 82.7386L376.726 72.0548C377.488 70.6717 377.128 68.9645 375.923 68.2416Z" stroke="white" stroke-width="0.71374" stroke-miterlimit="10"/>
<path d="M356.687 85.2763C357.383 85.6933 358.304 85.3847 358.744 84.587C359.184 83.7894 358.977 82.8047 358.281 82.3878C357.584 81.9708 356.663 82.2794 356.223 83.0771C355.783 83.8747 355.991 84.8594 356.687 85.2763Z" stroke="white" stroke-width="0.71374" stroke-miterlimit="10"/>
<path d="M348.062 79.9521C348.759 80.3691 349.68 80.0605 350.12 79.2628C350.56 78.4652 350.352 77.4805 349.656 77.0636C348.96 76.6466 348.039 76.9552 347.599 77.7529C347.159 78.5505 347.366 79.5352 348.062 79.9521Z" stroke="white" stroke-width="0.71374" stroke-miterlimit="10"/>
<path d="M442.158 88.525L445.397 82.5836C445.801 81.843 446.442 81.2864 447.179 81.0362C447.917 80.7861 448.69 80.863 449.329 81.2499L491.12 105.305C491.76 105.692 492.212 106.357 492.379 107.155C492.545 107.952 492.412 108.816 492.008 109.557L487.913 117.069C487.51 117.81 486.869 118.366 486.131 118.616C485.394 118.866 484.62 118.79 483.981 118.403L443.046 92.7765C442.407 92.3896 441.954 91.7243 441.788 90.9269C441.621 90.1296 441.755 89.2656 442.158 88.525Z" stroke="white" stroke-width="1.3247" stroke-miterlimit="10"/>
<path d="M436.611 82.8462L438.364 79.6694C438.635 79.1814 439.064 78.8153 439.557 78.6512C440.05 78.4872 440.566 78.5386 440.993 78.7942L445.02 81.2058C445.326 81.488 444.666 82.0885 444.104 83.107L442.351 86.2838C441.789 87.3022 441.623 88.199 441.235 88.0651L437.203 85.65C436.778 85.3933 436.477 84.9544 436.367 84.4292C436.256 83.904 436.344 83.3349 436.611 82.8462V82.8462Z" stroke="white" stroke-width="1.82147" stroke-miterlimit="10"/>
<path d="M449.526 51.664L440.875 67.4433L439.24 66.4586L440.391 63.5159L410.416 45.4623L411.812 42.9152L409.419 41.5108L412.129 36.5686L414.522 37.973L415.998 35.281L445.913 53.2985L447.717 50.5746L449.526 51.664Z" stroke="white" stroke-width="0.970687" stroke-linecap="round" stroke-linejoin="round"/>
<path d="M404.68 34.8047L410.561 38.4346" stroke="white" stroke-width="1.29615" stroke-linecap="round" stroke-linejoin="round"/>
<path d="M432.459 51.8008L429.862 56.609" stroke="white" stroke-width="0.645221" stroke-linecap="round" stroke-linejoin="round"/>
<path d="M428.571 52.6055L427.272 55.0096" stroke="white" stroke-width="0.645221" stroke-linecap="round" stroke-linejoin="round"/>
<path d="M427.086 48.9414L424.676 53.4043" stroke="white" stroke-width="0.645221" stroke-linecap="round" stroke-linejoin="round"/>
<path d="M422.092 45.4023L419.495 50.2106" stroke="white" stroke-width="0.645221" stroke-linecap="round" stroke-linejoin="round"/>
<path d="M418.203 46.207L416.905 48.6112" stroke="white" stroke-width="0.645221" stroke-linecap="round" stroke-linejoin="round"/>
<path d="M416.719 42.5469L414.308 47.0098" stroke="white" stroke-width="0.645221" stroke-linecap="round" stroke-linejoin="round"/>
<path d="M423.385 49.4023L422.087 51.8065" stroke="white" stroke-width="0.645221" stroke-linecap="round" stroke-linejoin="round"/>
<path d="M437.665 54.9531L435.255 59.416" stroke="white" stroke-width="0.645221" stroke-linecap="round" stroke-linejoin="round"/>
<path d="M433.962 55.4102L432.664 57.8143" stroke="white" stroke-width="0.645221" stroke-linecap="round" stroke-linejoin="round"/>
<path d="M467.064 67.8681L462.732 75.7795L461.118 74.8066L461.523 73.2369L444.248 62.775L447.045 57.6668L464.26 68.0925L465.276 66.7903L467.064 67.8681Z" stroke="white" stroke-width="0.970687" stroke-linecap="round" stroke-linejoin="round"/>
<path d="M449.759 51.8753L447.94 50.7748L446.126 53.5274L416.046 35.3257L414.562 38.046L412.156 36.6273L409.433 41.6215L411.839 43.0402L410.435 45.6141L440.576 63.8521L439.418 66.8256L441.062 67.8204L444.007 62.4217L461.337 72.9548L460.931 74.5367L462.551 75.5169L466.899 67.5443L465.105 66.4584L464.085 67.7708L446.814 57.274L449.759 51.8753Z" stroke="white" stroke-width="1.61591" stroke-linecap="round" stroke-linejoin="round"/>
<path d="M380.039 50.2361C375.914 52.9529 362.962 45.0885 362.073 41.5025C361.447 37.396 366.774 36.4973 371.108 30.379C375.757 23.8599 373.24 17.1211 374.569 14.7119C377.998 8.49775 389.621 21.7801 389.633 32.8044C389.722 37.4023 384.164 47.5193 380.039 50.2361Z" stroke="white" stroke-width="1.3247" stroke-linecap="round" stroke-linejoin="round"/>
<path d="M373.658 15.1538L371.051 13.5898L370.228 17.1771L373.431 19.1525L373.658 15.1538Z" stroke="white" stroke-width="1.3247" stroke-linecap="round" stroke-linejoin="round"/>
<path d="M363.121 37.3784L359.881 35.4343L362.448 32.8704L365.936 34.9091L363.121 37.3784Z" stroke="white" stroke-width="1.3247" stroke-linecap="round" stroke-linejoin="round"/>
<path d="M380.399 41.4694C378.198 42.9183 371.294 38.6944 370.809 36.8057C370.463 34.6076 373.32 34.1316 375.642 30.8703C378.11 27.3847 376.785 23.7969 377.496 22.5085C379.325 19.1934 385.544 26.2835 385.537 32.1718C385.576 34.6148 382.601 40.0204 380.399 41.4694Z" stroke="white" stroke-width="0.542443" stroke-linecap="round" stroke-linejoin="round"/>
<path d="M351.641 11.4847L310.217 -13.3873C306.481 -15.6306 301.538 -13.9698 299.176 -9.67779L287.903 10.8111C285.542 15.1031 286.656 20.4011 290.393 22.6444L331.817 47.5164C335.553 49.7598 340.496 48.099 342.858 43.8069L354.131 23.318C356.492 19.026 355.378 13.728 351.641 11.4847Z" stroke="white" stroke-width="1.3247" stroke-miterlimit="10"/>
<path d="M348.504 14.9604L320.227 -2.00458C317.474 -3.65674 313.83 -2.4337 312.09 0.727154L302.92 17.3784C301.18 20.5393 302.001 24.441 304.755 26.0932L333.032 43.0581C335.786 44.7103 339.429 43.4873 341.17 40.3264L350.339 23.6751C352.08 20.5143 351.258 16.6125 348.504 14.9604Z" stroke="white" stroke-width="0.885038" stroke-miterlimit="10"/>
<path d="M312.088 7.52006L315.486 9.5736L321.694 4.73887L321.211 13.0338L324.609 15.0873L323.763 20.1088L327.827 17.0318L335.694 21.7859L341.87 16.5708L340.878 24.9189L344.812 27.296" stroke="white" stroke-width="0.75371" stroke-linecap="round" stroke-linejoin="round"/>
<path d="M305.682 -8.10413L305.219 -8.38279C304.11 -9.05159 302.642 -8.55581 301.942 -7.27546L291.633 11.5605C290.932 12.8409 291.264 14.421 292.373 15.0898L292.835 15.3684C293.945 16.0372 295.412 15.5415 296.113 14.2611L306.422 -4.57486C307.122 -5.85521 306.791 -7.43533 305.682 -8.10413Z" stroke="white" stroke-width="1.18195" stroke-miterlimit="10"/>
<path d="M305.546 17.4149L307.293 18.4724C307.293 18.4724 309.494 16.5651 310.231 16.7419C310.968 16.9187 311.963 18.5328 311.963 18.5328C312.548 19.4808 312.839 20.6294 312.797 21.8228L314.9 23.0954" stroke="white" stroke-width="0.462504" stroke-linecap="round" stroke-linejoin="round"/>
<path d="M313.323 22.2156L315.07 23.273C315.07 23.273 317.271 21.3658 318.008 21.5426C318.745 21.7194 319.74 23.3334 319.74 23.3334C320.28 24.2568 320.514 25.3775 320.405 26.5213L322.664 27.8887" stroke="white" stroke-width="0.462504" stroke-linecap="round" stroke-linejoin="round"/>
<path d="M321.459 27.2391L323.206 28.2966C323.206 28.2966 325.408 26.3893 326.145 26.5661C326.881 26.7429 327.876 28.357 327.876 28.357C328.459 29.3065 328.75 30.4543 328.711 31.647L330.813 32.9196" stroke="white" stroke-width="0.462504" stroke-linecap="round" stroke-linejoin="round"/>
<path d="M329.238 32.0363L330.985 33.0939C330.985 33.0939 333.187 31.1864 333.923 31.3632C334.66 31.54 335.655 33.1543 335.655 33.1543C336.339 34.1627 336.168 35.1542 336.147 36.1169L338.642 37.6267" stroke="white" stroke-width="0.462504" stroke-linecap="round" stroke-linejoin="round"/>
<path d="M504.492 28.1445L497.135 23.7352L494.023 24.9421L492.277 23.8956L491.804 20.5399L484.36 16.0783C483.506 15.5643 482.902 14.6832 482.679 13.6279C482.457 12.5727 482.635 11.4293 483.173 10.4483L504.542 -28.3214C505.085 -29.2985 505.943 -30.0319 506.928 -30.3614C507.913 -30.6908 508.946 -30.5895 509.801 -30.0796L516.133 -26.2843C516.133 -26.2843 518.132 -30.3604 522.061 -28.0057C525.99 -25.6511 523.95 -21.5995 523.95 -21.5995L529.934 -18.0135C530.786 -17.5001 531.39 -16.6204 531.613 -15.5667C531.836 -14.513 531.66 -13.3709 531.124 -12.3902L509.755 26.3796C509.213 27.3587 508.355 28.0943 507.369 28.4251C506.382 28.7559 505.348 28.6549 504.492 28.1445V28.1445Z" stroke="white" stroke-width="1.3247" stroke-linecap="round" stroke-linejoin="round"/>
<path d="M521.447 -0.0642353L508.235 23.8807C507.544 24.9357 506.732 25.4438 505.606 24.6353L486.692 13.3083C486.464 13.2308 486.262 13.0937 486.101 12.9081C485.94 12.7225 485.825 12.4939 485.766 12.2412C485.706 11.9885 485.704 11.7189 485.76 11.4549C485.815 11.1909 485.927 10.9401 486.085 10.7231L499.341 -13.3026C501.294 -15.8779 522.224 -4.05149 521.447 -0.0642353Z" stroke="white" stroke-width="0.673771" stroke-linecap="round" stroke-linejoin="round"/>
<path d="M375.758 -34.7742L360.053 -44.183C358.375 -45.1887 356.154 -44.4442 355.093 -42.5201L337.546 -10.6978C336.485 -8.77378 336.986 -6.39878 338.664 -5.3931L354.368 4.01571C356.047 5.02139 358.268 4.27692 359.329 2.35287L376.876 -29.4694C377.937 -31.3935 377.436 -33.7685 375.758 -34.7742Z" stroke="white" stroke-width="1.3247" stroke-linecap="round" stroke-linejoin="round"/>
<path d="M454.705 24.5907L444.909 18.7242C444.187 18.2896 443.676 17.5454 443.487 16.6541C443.298 15.7628 443.446 14.7968 443.9 13.9669L452.896 -7.56277C453.355 -8.39106 454.082 -9.01321 454.917 -9.29306C455.753 -9.5729 456.628 -9.48765 457.353 -9.05597L472.036 -0.263319C472.757 0.173081 473.266 0.918594 473.453 1.81049C473.64 2.70239 473.49 3.66825 473.035 4.49724L459.146 23.0972C458.688 23.9211 457.964 24.54 457.132 24.8197C456.301 25.0993 455.428 25.017 454.705 24.5907V24.5907Z" stroke="white" stroke-width="1.3247" stroke-linecap="round" stroke-linejoin="round"/>
<path d="M451.714 -6.40234L472.327 6.3193" stroke="white" stroke-width="0.662351" stroke-linecap="round" stroke-linejoin="round"/>
<path d="M572.076 2.95573C566.552 6.58437 549.227 -3.93404 548.052 -8.75345C547.19 -14.2519 554.336 -15.4537 560.151 -23.6218C566.343 -32.359 563.031 -41.3419 564.8 -44.5767C569.383 -52.8844 584.94 -35.1219 584.95 -20.3669C585.034 -14.2191 577.597 -0.683126 572.076 2.95573Z" stroke="white" stroke-width="1.77008" stroke-linecap="round" stroke-linejoin="round"/>
<path d="M421.298 22.0676L418.793 26.6618C418.485 27.2273 417.996 27.6525 417.433 27.8445C416.871 28.0364 416.28 27.9794 415.791 27.6859L383.521 9.07795C383.032 8.78194 382.686 8.27298 382.558 7.66299C382.431 7.053 382.533 6.39195 382.842 5.82532L386.004 0.0232269C386.313 -0.543411 386.804 -0.969238 387.368 -1.1606C387.932 -1.35196 388.523 -1.29317 389.012 -0.997154L420.636 18.7977C420.879 18.9458 421.088 19.1481 421.253 19.3929C421.418 19.6377 421.534 19.9202 421.596 20.2241C421.657 20.528 421.662 20.8474 421.611 21.1638C421.56 21.4802 421.454 21.7874 421.298 22.0676V22.0676Z" stroke="white" stroke-width="1.3247" stroke-miterlimit="10"/>
<path d="M406.104 14.5506C405.53 14.2019 404.771 14.4605 404.409 15.1281C404.046 15.7957 404.218 16.6196 404.791 16.9683L414.453 22.8378C415.027 23.1865 415.786 22.928 416.149 22.2604C416.511 21.5928 416.34 20.7688 415.766 20.4201L406.104 14.5506Z" stroke="white" stroke-width="0.593832" stroke-miterlimit="10"/>
<path d="M425.577 26.4571L424.226 28.9055C424.124 29.0931 423.99 29.2596 423.832 29.3955C423.675 29.5313 423.496 29.6338 423.308 29.6969C423.119 29.7601 422.924 29.7827 422.734 29.7634C422.544 29.7441 422.362 29.6834 422.199 29.5847L419.085 27.7196C418.844 27.5035 419.358 27.0397 419.793 26.2506L421.144 23.8023C421.58 23.0132 421.694 22.337 422.01 22.4183L425.124 24.2834C425.288 24.3814 425.429 24.5154 425.541 24.6778C425.652 24.8403 425.731 25.0279 425.773 25.2299C425.815 25.4318 425.82 25.6443 425.786 25.8549C425.752 26.0655 425.681 26.2702 425.577 26.4571V26.4571Z" stroke="white" stroke-width="1.40464" stroke-miterlimit="10"/>
<path d="M571.899 52.1403L576.77 55.0747C577.377 55.4401 577.806 56.0683 577.964 56.8213C578.122 57.5742 577.996 58.3901 577.613 59.0895L553.612 104.696C553.225 105.385 552.618 105.9 551.923 106.13C551.227 106.359 550.5 106.285 549.899 105.922L543.769 102.23C543.168 101.868 542.74 101.247 542.579 100.501C542.418 99.756 542.536 98.9465 542.909 98.2482L568.178 53.3801C568.564 52.6868 569.171 52.1674 569.868 51.9352C570.565 51.703 571.295 51.7767 571.899 52.1403Z" stroke="white" stroke-width="1.3247" stroke-miterlimit="10"/>
<path d="M561.708 73.7486C561.266 74.5581 561.474 75.5564 562.172 75.9783C562.871 76.4002 563.796 76.0859 564.239 75.2763L571.669 61.6761C572.111 60.8665 571.903 59.8682 571.204 59.4464C570.505 59.0245 569.58 59.3387 569.138 60.1483L561.708 73.7486Z" stroke="white" stroke-width="0.76513" stroke-miterlimit="10"/>
<path d="M576.398 46.4031L579.197 48.0799C579.41 48.2058 579.594 48.3786 579.739 48.5882C579.884 48.7978 579.987 49.0401 580.042 49.3012C580.098 49.5624 580.105 49.8372 580.062 50.11C580.02 50.3827 579.929 50.648 579.795 50.8907L577.243 55.5166C576.959 55.8762 576.457 55.2075 575.561 54.6709L572.791 53.0118C571.901 52.4787 571.094 52.3638 571.249 51.9265L573.801 47.3006C574.068 46.8174 574.489 46.4527 574.975 46.2848C575.46 46.117 575.971 46.1594 576.398 46.4031V46.4031Z" stroke="white" stroke-width="1.82147" stroke-miterlimit="10"/>
<path d="M538.26 37.4613L531.111 33.1799C530.512 32.8192 530.089 32.2016 529.933 31.4621C529.777 30.7227 529.901 29.9215 530.279 29.2339L535.286 20.157C535.668 19.4727 536.27 18.9589 536.961 18.7273C537.652 18.4957 538.377 18.565 538.978 18.9202L540.572 19.8747L542.076 17.149L546.248 19.6477L544.598 22.2857L546.115 23.1946C546.712 23.5568 547.135 24.1744 547.29 24.9133C547.446 25.6522 547.323 26.4526 546.947 27.1407L541.94 36.2175C541.561 36.901 540.961 37.4151 540.272 37.648C539.583 37.8809 538.86 37.8138 538.26 37.4613Z" stroke="white" stroke-width="1.3247" stroke-linecap="round" stroke-linejoin="round"/>
<path d="M547.955 16.5068L543.687 13.938C542.841 13.4286 541.722 13.8058 541.187 14.7805L541.183 14.7874C540.649 15.7622 540.901 16.9653 541.747 17.4747L546.014 20.0435C546.861 20.5529 547.98 20.1757 548.515 19.2009L548.519 19.1941C549.053 18.2193 548.801 17.0162 547.955 16.5068Z" stroke="white" stroke-width="1.3247" stroke-linecap="round" stroke-linejoin="round"/>
<path d="M616.016 1.63602L600.312 -7.77279C598.633 -8.77848 596.412 -8.034 595.351 -6.10995L577.804 25.7123C576.743 27.6364 577.244 30.0114 578.923 31.0171L594.627 40.4259C596.305 41.4316 598.526 40.6871 599.587 38.7631L617.134 6.94077C618.195 5.01672 617.695 2.6417 616.016 1.63602Z" stroke="white" stroke-width="1.14198" stroke-linecap="round" stroke-linejoin="round"/>
<path d="M613.002 3.071L600.606 -4.35479C599.316 -5.1275 597.61 -4.5555 596.794 -3.07719L583.63 20.7925C582.815 22.2708 583.2 24.0956 584.49 24.8683L596.885 32.2941C598.175 33.0668 599.882 32.4948 600.697 31.0165L613.861 7.14683C614.676 5.66852 614.292 3.84371 613.002 3.071Z" stroke="white" stroke-width="0.748" stroke-linecap="round" stroke-linejoin="round"/>
<path d="M588.355 33.1672C589.061 33.5901 589.995 33.2771 590.441 32.4683C590.887 31.6595 590.677 30.661 589.971 30.2382C589.265 29.8154 588.331 30.1284 587.885 30.9372C587.438 31.746 587.649 32.7444 588.355 33.1672Z" stroke="white" stroke-width="0.748" stroke-linecap="round" stroke-linejoin="round"/>
<path d="M651.135 81.8712L642.484 97.6505L640.849 96.6658L642 93.7231L612.031 75.6732L613.427 73.1261L611.034 71.7217L613.744 66.7795L616.137 68.1839L617.613 65.4919L647.528 83.5094L649.326 80.7819L651.135 81.8712Z" stroke="white" stroke-width="0.970687" stroke-linecap="round" stroke-linejoin="round"/>
<path d="M606.297 65.0117L612.178 68.6416" stroke="white" stroke-width="1.29615" stroke-linecap="round" stroke-linejoin="round"/>
<path d="M651.37 82.0825L649.551 80.9821L647.743 83.7383L617.663 65.5367L616.18 68.257L613.774 66.8382L611.05 71.8324L613.456 73.2512L612.052 75.825L642.187 94.0594L641.03 97.0329L642.674 98.0277L645.618 92.6289L662.955 103.166L662.548 104.748L664.162 105.724L668.51 97.7516L666.722 96.6693L665.702 97.9816L648.425 87.4813L651.37 82.0825Z" stroke="white" stroke-width="1.3247" stroke-linecap="round" stroke-linejoin="round"/>
<path d="M583.476 144.12L576.095 139.697L572.983 140.904L571.266 139.875L570.793 136.519L563.314 132.037C562.463 131.522 561.861 130.642 561.639 129.59C561.417 128.537 561.593 127.396 562.129 126.417L583.499 87.6464C584.04 86.6683 584.896 85.9333 585.881 85.6019C586.866 85.2706 587.9 85.3698 588.755 85.8779L595.094 89.6768C595.094 89.6768 597.087 85.5972 601.022 87.9554C604.956 90.3135 602.911 94.3617 602.911 94.3617L608.917 97.9617C609.771 98.4758 610.375 99.3569 610.598 100.412C610.82 101.467 610.643 102.611 610.104 103.592L588.735 142.362C588.192 143.339 587.334 144.073 586.349 144.402C585.363 144.732 584.331 144.63 583.476 144.12V144.12Z" stroke="white" stroke-width="1.3247" stroke-linecap="round" stroke-linejoin="round"/>
<rect x="-0.00012207" y="-24" width="612" height="136" fill="url(#paint0_linear_1958_172184)"/>
</g>
<defs>
<linearGradient id="paint0_linear_1958_172184" x1="612" y1="16.4944" x2="283.118" y2="90.2351" gradientUnits="userSpaceOnUse">
<stop offset="0.0833333" stop-color="#4C9E45" stop-opacity="0.95"/>
<stop offset="0.583333" stop-color="#4C9E45" stop-opacity="0.7"/>
<stop offset="0.828125" stop-color="#4C9E45" stop-opacity="0.95"/>
</linearGradient>
</defs>
</svg>
