<svg width="290" height="172" viewBox="0 0 290 172" fill="none" xmlns="http://www.w3.org/2000/svg">
<mask id="mask0_644_6821" style="mask-type:alpha" maskUnits="userSpaceOnUse" x="0" y="0" width="290" height="172">
<rect width="290" height="172" rx="4" fill="#D3D6D9"/>
</mask>
<g mask="url(#mask0_644_6821)">
<rect width="290" height="172" rx="5" fill="#43B4E4"/>
<path d="M144.649 149.097C167.651 149.097 186.297 147.185 186.297 144.826C186.297 142.467 167.651 140.554 144.649 140.554C121.647 140.554 103 142.467 103 144.826C103 147.185 121.647 149.097 144.649 149.097Z" fill="#3A9AC2"/>
<path d="M132.428 28H170.76C172.624 28 174.411 28.7401 175.729 30.0576C177.047 31.3751 177.788 33.1621 177.789 35.0257V118.117C177.788 119.039 177.606 119.952 177.252 120.804C176.898 121.655 176.38 122.429 175.727 123.08C175.075 123.732 174.3 124.248 173.448 124.6C172.595 124.953 171.682 125.133 170.76 125.132H116.537C115.615 125.133 114.701 124.953 113.849 124.6C112.997 124.248 112.222 123.732 111.569 123.08C110.917 122.429 110.399 121.655 110.045 120.804C109.691 119.952 109.509 119.039 109.508 118.117V49.7791C109.508 49.1865 109.628 48.6001 109.862 48.0556C110.096 47.5111 110.438 47.02 110.868 46.6122L129.238 29.2674C130.101 28.4542 131.242 28.0009 132.428 28Z" fill="white"/>
<path d="M170.76 125.142H116.537C115.614 125.143 114.7 124.962 113.847 124.61C112.994 124.257 112.219 123.739 111.566 123.087C110.913 122.434 110.395 121.659 110.042 120.807C109.689 119.954 109.507 119.04 109.508 118.117V49.7791C109.508 49.1865 109.628 48.6001 109.862 48.0556C110.096 47.5111 110.438 47.02 110.868 46.6122L129.238 29.2674C130.101 28.4542 131.242 28.0009 132.428 28H170.76C172.624 28 174.411 28.7401 175.729 30.0576C177.047 31.3751 177.788 33.1621 177.789 35.0257V118.117C177.789 119.04 177.608 119.954 177.255 120.807C176.902 121.659 176.384 122.434 175.731 123.087C175.078 123.739 174.303 124.257 173.45 124.61C172.597 124.962 171.683 125.143 170.76 125.142V125.142Z" stroke="#007786" stroke-width="3" stroke-miterlimit="10" stroke-linecap="round"/>
<path d="M132.428 28V45.9003C132.428 47.1028 131.951 48.2561 131.1 49.1064C130.25 49.9567 129.097 50.4344 127.894 50.4344H120.03" stroke="#007786" stroke-width="3" stroke-miterlimit="10" stroke-linecap="round"/>
<path d="M121.021 65.9594L123.949 68.9799L130.429 62.4965" stroke="#007786" stroke-width="3" stroke-linecap="round" stroke-linejoin="round"/>
<path d="M138.283 65.7366H167.94" stroke="#007786" stroke-width="3" stroke-linecap="round" stroke-linejoin="round"/>
<path d="M121.021 79.4255L123.949 82.456L130.429 75.9625" stroke="#007786" stroke-width="3" stroke-linecap="round" stroke-linejoin="round"/>
<path d="M138.283 79.2059H167.94" stroke="#007786" stroke-width="3" stroke-linecap="round" stroke-linejoin="round"/>
<path d="M121.021 92.9013L123.949 95.9218L130.429 89.4384" stroke="#007786" stroke-width="3" stroke-linecap="round" stroke-linejoin="round"/>
<path d="M138.283 92.6785H167.94" stroke="#007786" stroke-width="3" stroke-linecap="round" stroke-linejoin="round"/>
<path d="M121.021 106.367L123.949 109.398L130.429 102.904" stroke="#007786" stroke-width="3" stroke-linecap="round" stroke-linejoin="round"/>
<path d="M138.283 106.154H167.94" stroke="#007786" stroke-width="3" stroke-linecap="round" stroke-linejoin="round"/>
<path d="M197.13 49.7058L199.592 46.9049C200.262 46.1484 201.205 45.6885 202.214 45.6262C203.223 45.5638 204.215 45.904 204.974 46.5722L206.724 48.1091L201.734 53.7642L197.13 49.7058Z" fill="#CFDBDC"/>
<path d="M197.131 49.7046L193.976 53.2953L198.588 57.3491L201.744 53.7584L197.131 49.7046Z" fill="#CFDBDC"/>
<path d="M164.17 87.2129L193.973 53.2986L198.587 57.3503L169.286 90.6926C167.717 89.3447 166 88.1774 164.17 87.2129Z" fill="#CFDBDC"/>
<path d="M161.915 95.6923L164.17 87.2129C166.001 88.1774 167.717 89.3446 169.287 90.6925L163.834 96.8965C163.253 96.4121 162.608 96.0082 161.918 95.6956L161.915 95.6923Z" fill="#CFDBDC"/>
<path d="M160.614 100.626L161.925 95.6923C162.615 96.0048 163.259 96.4087 163.841 96.8931C164.445 97.3608 164.937 97.9575 165.281 98.6396L165.331 98.7693L160.614 100.626Z" fill="#007786"/>
<path d="M201.74 53.7609L206.73 48.1057L208.696 49.8355C209.453 50.5049 209.913 51.4475 209.976 52.4562C210.038 53.4649 209.698 54.457 209.029 55.2146L206.564 58.0189L201.74 53.7609Z" fill="white"/>
<path d="M198.587 57.3504L201.744 53.761L206.574 58.0057L203.417 61.5951L203.371 61.5551L198.587 57.3504Z" fill="white"/>
<path d="M169.287 90.6926L198.588 57.3503L203.371 61.5651L203.418 61.605L173.612 95.536C173.612 95.536 172.258 93.2407 169.287 90.6926Z" fill="white"/>
<path d="M163.834 96.8965L169.286 90.6925C172.26 93.2407 173.611 95.5094 173.611 95.5094L165.324 98.7727L165.274 98.643C164.93 97.9609 164.438 97.3642 163.834 96.8965Z" fill="white"/>
<path d="M161.915 95.6924L160.614 100.626L165.335 98.7728L173.621 95.5094L203.427 61.5784L206.581 57.9891L209.046 55.1848C209.715 54.4272 210.055 53.435 209.993 52.4264C209.931 51.4177 209.47 50.4751 208.713 49.8057L206.747 48.0759L204.997 46.539C204.239 45.8708 203.246 45.5306 202.237 45.593C201.228 45.6553 200.285 46.1152 199.615 46.8717L197.153 49.6726L193.996 53.2653L164.17 87.213L161.915 95.6924Z" stroke="#007786" stroke-width="3" stroke-miterlimit="10" stroke-linecap="round"/>
<path d="M203.37 61.555L198.587 57.3503L193.976 53.2985L193.93 53.2552" stroke="#007786" stroke-width="3" stroke-miterlimit="10"/>
<path d="M173.611 95.4961C173.611 95.4961 172.26 93.2274 169.286 90.6793C167.717 89.3314 166 88.1642 164.17 87.1997" stroke="#007786" stroke-width="3" stroke-miterlimit="10" stroke-linecap="round"/>
<path d="M165.272 98.643C164.927 97.9609 164.435 97.3643 163.831 96.8966C163.249 96.4122 162.605 96.0082 161.915 95.6957" stroke="#007786" stroke-width="3" stroke-miterlimit="10" stroke-linecap="round"/>
<path d="M206.574 58.0056L201.744 53.7609L197.13 49.7058" stroke="#007786" stroke-width="3" stroke-linecap="round" stroke-linejoin="round"/>
</g>
</svg>
