<svg width="106" height="106" viewBox="0 0 106 106" fill="none" xmlns="http://www.w3.org/2000/svg">
<circle cx="52" cy="52" r="50" fill="#4C9E45"/>
<ellipse cx="52.0002" cy="51.9997" rx="39.1892" ry="39.1892" fill="white"/>
<path fill-rule="evenodd" clip-rule="evenodd" d="M52 102C79.6142 102 102 79.6142 102 52C102 24.3858 79.6142 2 52 2C24.3858 2 2 24.3858 2 52C2 79.6142 24.3858 102 52 102ZM52.0002 91.1889C73.6438 91.1889 91.1894 73.6433 91.1894 51.9997C91.1894 30.3561 73.6438 12.8105 52.0002 12.8105C30.3566 12.8105 12.811 30.3561 12.811 51.9997C12.811 73.6433 30.3566 91.1889 52.0002 91.1889Z" fill="#F2F2F2"/>
<path fill-rule="evenodd" clip-rule="evenodd" d="M54.7888 23.5061L34.9251 26.5147C34.6807 26.5517 34.5 26.7618 34.5 27.009V73.9798C34.5 74.208 34.6544 74.4072 34.8753 74.4641L54.739 79.5787C55.0554 79.6602 55.3636 79.4212 55.3636 79.0945V24.0004C55.3636 23.6944 55.0913 23.4602 54.7888 23.5061ZM34.7005 25.0316C33.7227 25.1797 33 26.0201 33 27.009V73.9798C33 74.8923 33.6176 75.6891 34.5013 75.9167L54.3649 81.0313C55.6306 81.3572 56.8636 80.4014 56.8636 79.0945V24.0004C56.8636 22.7765 55.7742 21.8397 54.5641 22.023L34.7005 25.0316ZM58.6135 28.9474C58.6135 28.5332 58.9493 28.1974 59.3635 28.1974H69.3635C69.7777 28.1974 70.1135 28.5332 70.1135 28.9474V76.2201C70.1135 76.6343 69.7777 76.9701 69.3635 76.9701H59.3635C58.9493 76.9701 58.6135 76.6343 58.6135 76.2201C58.6135 75.8059 58.9493 75.4701 59.3635 75.4701H68.6135V29.6974H59.3635C58.9493 29.6974 58.6135 29.3616 58.6135 28.9474ZM52.7728 53.0383C53.5259 53.0383 54.1365 52.4278 54.1365 51.6747C54.1365 50.9216 53.5259 50.311 52.7728 50.311C52.0197 50.311 51.4092 50.9216 51.4092 51.6747C51.4092 52.4278 52.0197 53.0383 52.7728 53.0383Z" fill="#BDBDBD"/>
</svg>
