<svg width="100" height="100" viewBox="0 0 100 100" fill="none" xmlns="http://www.w3.org/2000/svg">
<circle cx="50" cy="50" r="50" fill="#F2F2F2"/>
<ellipse cx="50.0002" cy="49.9999" rx="39.1892" ry="39.1892" fill="white"/>
<path d="M42.4824 42.9992C42.5288 43.6148 43.4312 43.6161 43.4794 43.0007L44.345 31.9577C44.4066 31.1718 43.7855 30.5 42.9971 30.5C42.2103 30.5 41.5897 31.1692 41.6489 31.9538L42.4824 42.9992Z" stroke="#BDBDBD"/>
<circle cx="43" cy="47" r="1.5" stroke="#BDBDBD"/>
<path d="M49.3538 53.5792C47.3216 54.5953 45.0072 55.1598 42.5799 55.1598C33.9997 55.1598 27 48.1601 27 39.5799C27 30.9997 33.9432 24 42.5235 24C51.1037 24 58.1034 30.9997 58.1034 39.5799C58.1034 42.9104 57.0308 46.0151 55.2809 48.5553" stroke="#BDBDBD" stroke-width="1.5" stroke-miterlimit="10" stroke-linecap="round"/>
<path d="M42.5235 51.3777C49.0704 51.3777 54.3777 46.0704 54.3777 39.5235C54.3777 32.9765 49.0704 27.6692 42.5235 27.6692C35.9765 27.6692 30.6692 32.9765 30.6692 39.5235C30.6692 46.0704 35.9765 51.3777 42.5235 51.3777Z" stroke="#BDBDBD" stroke-width="1.5" stroke-miterlimit="10"/>
<path d="M59.5148 60.5789L52.3458 53.4099C51.8942 52.9583 51.8942 52.168 52.3458 51.6599L52.9667 51.039C53.4183 50.5874 54.2086 50.5874 54.7166 51.039L61.8856 58.208" stroke="#BDBDBD" stroke-width="1.5" stroke-miterlimit="10" stroke-linecap="round"/>
<path d="M71.8771 73.9574L60.0793 62.1595C59.289 61.3692 59.289 60.0709 60.0793 59.2806L60.5309 58.829C61.3212 58.0388 62.6195 58.0388 63.4098 58.829L75.2076 70.6269C75.9979 71.4172 75.9979 72.7155 75.2076 73.5058L74.756 73.9574C73.9657 74.7476 72.6674 74.7476 71.8771 73.9574Z" stroke="#BDBDBD" stroke-width="1.5" stroke-miterlimit="10" stroke-linecap="round"/>
</svg>
