<svg width="14" height="19" viewBox="0 0 14 19" fill="none" xmlns="http://www.w3.org/2000/svg">
<path d="M11.4564 9.54326L11.4564 9.54325L11.4552 9.54525L7.13636 16.8594L2.81758 9.5453L2.8176 9.54529L2.81639 9.54332L2.81182 9.53591C2.35614 8.79574 2.0939 7.92937 2.0939 7C2.0939 4.28118 4.34882 2.07237 7.13636 2.07237C9.9239 2.07237 12.1788 4.28118 12.1788 7C12.1788 7.92935 11.9166 8.7957 11.4609 9.53585C11.4609 9.53585 11.4609 9.53586 11.4609 9.53586L11.4564 9.54326ZM1.76822 10.1546C1.76843 10.1549 1.76863 10.1552 1.76884 10.1556L6.16763 17.6052C6.603 18.3426 7.66972 18.3426 8.10509 17.6052L12.5039 10.1555C12.5041 10.1552 12.5043 10.1549 12.5045 10.1545C13.0715 9.23318 13.3977 8.15373 13.3977 7C13.3977 3.61462 10.5918 0.875 7.13636 0.875C3.68097 0.875 0.875 3.61462 0.875 7C0.875 8.15375 1.20122 9.23321 1.76822 10.1546ZM7.13636 9.65132C8.62969 9.65132 9.84509 8.46691 9.84509 7C9.84509 5.53309 8.62969 4.34868 7.13636 4.34868C5.64304 4.34868 4.42763 5.53309 4.42763 7C4.42763 8.46691 5.64304 9.65132 7.13636 9.65132ZM8.6262 7C8.6262 7.80036 7.96184 8.45395 7.13636 8.45395C6.31089 8.45395 5.64653 7.80036 5.64653 7C5.64653 6.19964 6.31089 5.54605 7.13636 5.54605C7.96184 5.54605 8.6262 6.19964 8.6262 7Z" fill="#4D4D4D" stroke="#4D4D4D" stroke-width="0.25"/>
</svg>
