<svg width="49" height="49" viewBox="0 0 49 49" fill="none" xmlns="http://www.w3.org/2000/svg">
<mask id="path-1-inside-1" fill="white">
<path fill-rule="evenodd" clip-rule="evenodd" d="M24.5 49C38.031 49 49 38.031 49 24.5C49 10.969 38.031 0 24.5 0C10.969 0 0 10.969 0 24.5C0 38.031 10.969 49 24.5 49ZM19.894 13.3363C19.545 13.112 19.1013 13.0961 18.7371 13.2949C18.373 13.4937 18.1464 13.8755 18.1464 14.2905V34.7071C18.1464 35.122 18.373 35.5039 18.7371 35.7027C19.1013 35.9015 19.545 35.8856 19.894 35.6612L35.7736 25.4529C36.0983 25.2442 36.2945 24.8847 36.2945 24.4988C36.2945 24.1128 36.0983 23.7534 35.7736 23.5447L19.894 13.3363Z"/>
</mask>
<path fill-rule="evenodd" clip-rule="evenodd" d="M24.5 49C38.031 49 49 38.031 49 24.5C49 10.969 38.031 0 24.5 0C10.969 0 0 10.969 0 24.5C0 38.031 10.969 49 24.5 49ZM19.894 13.3363C19.545 13.112 19.1013 13.0961 18.7371 13.2949C18.373 13.4937 18.1464 13.8755 18.1464 14.2905V34.7071C18.1464 35.122 18.373 35.5039 18.7371 35.7027C19.1013 35.9015 19.545 35.8856 19.894 35.6612L35.7736 25.4529C36.0983 25.2442 36.2945 24.8847 36.2945 24.4988C36.2945 24.1128 36.0983 23.7534 35.7736 23.5447L19.894 13.3363Z" fill="#4C9E45"/>
<path d="M21.0399 32.6295V16.368H19.7899V32.6295H21.0399ZM18.7371 13.2949L19.3361 14.392L19.3361 14.392L18.7371 13.2949ZM19.894 13.3363L19.2181 14.3878L19.2181 14.3878L19.894 13.3363ZM18.7371 35.7027L19.3361 34.6055L19.3361 34.6055L18.7371 35.7027ZM19.894 35.6612L20.57 36.7127L20.57 36.7127L19.894 35.6612ZM35.7736 25.4529L35.0977 24.4014L35.0977 24.4014L35.7736 25.4529ZM35.7736 23.5447L35.0977 24.5961L35.0977 24.5962L35.7736 23.5447ZM47.75 24.5C47.75 37.3406 37.3406 47.75 24.5 47.75V50.25C38.7213 50.25 50.25 38.7213 50.25 24.5H47.75ZM24.5 1.25C37.3406 1.25 47.75 11.6594 47.75 24.5H50.25C50.25 10.2787 38.7213 -1.25 24.5 -1.25V1.25ZM1.25 24.5C1.25 11.6594 11.6594 1.25 24.5 1.25V-1.25C10.2787 -1.25 -1.25 10.2787 -1.25 24.5H1.25ZM24.5 47.75C11.6594 47.75 1.25 37.3406 1.25 24.5H-1.25C-1.25 38.7213 10.2787 50.25 24.5 50.25V47.75ZM19.3361 14.392C19.299 14.4123 19.2537 14.4107 19.2181 14.3878L20.57 12.2849C19.8363 11.8132 18.9037 11.7798 18.1381 12.1978L19.3361 14.392ZM19.3964 14.2905C19.3964 14.3328 19.3733 14.3718 19.3361 14.392L18.1381 12.1978C17.3726 12.6157 16.8964 13.4183 16.8964 14.2905H19.3964ZM19.3964 34.7071V14.2905H16.8964V34.7071H19.3964ZM19.3361 34.6055C19.3733 34.6258 19.3964 34.6648 19.3964 34.7071H16.8964C16.8964 35.5793 17.3726 36.3819 18.1381 36.7998L19.3361 34.6055ZM19.2181 34.6098C19.2537 34.5869 19.299 34.5852 19.3361 34.6055L18.1381 36.7998C18.9037 37.2178 19.8363 37.1843 20.57 36.7127L19.2181 34.6098ZM35.0977 24.4014L19.2181 34.6098L20.57 36.7127L36.4496 26.5044L35.0977 24.4014ZM35.0445 24.4988C35.0445 24.4594 35.0646 24.4227 35.0977 24.4014L36.4496 26.5044C37.132 26.0657 37.5445 25.3101 37.5445 24.4988H35.0445ZM35.0977 24.5962C35.0646 24.5749 35.0445 24.5382 35.0445 24.4988H37.5445C37.5445 23.6875 37.132 22.9319 36.4496 22.4932L35.0977 24.5962ZM19.2181 14.3878L35.0977 24.5961L36.4496 22.4932L20.57 12.2849L19.2181 14.3878Z" fill="#4C9E45" mask="url(#path-1-inside-1)"/>
</svg>
