<svg width="290" height="172" viewBox="0 0 290 172" fill="none" xmlns="http://www.w3.org/2000/svg">
<mask id="mask0_644_7004" style="mask-type:alpha" maskUnits="userSpaceOnUse" x="0" y="0" width="290" height="172">
<rect width="290" height="172" rx="5" fill="#43B4E4"/>
</mask>
<g mask="url(#mask0_644_7004)">
<rect width="290" height="172" rx="5" fill="#43B4E4"/>
<path d="M159.49 97.2509C159.623 97.5164 159.731 97.777 159.886 98.0256C163.675 104.597 167.467 111.168 171.261 117.739C171.42 117.992 171.561 118.257 171.681 118.531C171.946 119.218 171.599 119.795 170.865 119.885C170.566 119.91 170.267 119.917 169.967 119.906H79.3237C78.047 119.877 77.6657 119.211 78.3028 118.101C79.944 115.251 81.5884 112.402 83.236 109.552L111.136 61.2297C115.339 53.9506 119.54 46.674 123.742 39.3997C124.511 38.0675 125.262 38.0747 126.039 39.4166C127.487 41.9121 128.931 44.4061 130.371 46.8984C130.49 47.1035 130.637 47.2918 130.835 47.579C136.926 38.8712 145.125 33.8511 155.694 33.0981C162.734 32.5348 169.754 34.4095 175.576 38.4078C182.597 43.1479 187.161 49.6739 189.024 57.957C190.887 66.2401 189.606 74.0525 185.508 81.2326C191.363 87.0998 197.119 92.8728 202.885 98.6411C204.996 100.76 207.12 102.867 209.227 104.989C211.37 107.161 212.005 109.724 210.977 112.56C209.971 115.335 207.873 116.904 204.917 117.184C203.897 117.298 202.864 117.176 201.898 116.828C200.932 116.48 200.059 115.915 199.346 115.176C191.808 107.638 184.278 100.093 176.756 92.5422C175.839 91.6227 175.846 91.6251 174.69 92.3346C170.326 95.0431 165.372 96.6592 160.25 97.0458C160.088 97.0542 159.927 97.0736 159.768 97.1037C159.669 97.141 159.576 97.1905 159.49 97.2509ZM147.324 85.4248L150.408 86.7788C151.132 87.9542 150.891 89.2599 150.891 90.5245C150.891 91.0941 151.06 91.3741 151.627 91.4537C153.104 91.6589 154.576 92.0378 156.058 92.086C167.068 92.4465 175.476 87.9316 181.282 78.5416C181.552 78.1047 181.605 77.7717 181.325 77.289C173.858 64.3962 166.409 51.4953 158.978 38.5864C158.703 38.1037 158.382 37.9227 157.868 37.9806C155.819 38.2219 153.724 38.2388 151.731 38.7046C132.493 43.1551 124.352 65.8346 136.311 81.5512C137.842 83.5671 139.661 85.3471 141.71 86.8343C142.591 85.5865 143.839 85.3862 145.202 85.4441C145.907 85.4731 146.617 85.4321 147.324 85.4248ZM125.82 68.4749C125.82 68.1105 125.834 67.845 125.82 67.582C125.445 61.7896 126.365 56.2386 128.986 51.052C129.541 49.9539 129.495 49.1888 128.865 48.1824C127.497 46.0102 126.259 43.7367 124.886 41.3643L80.7187 117.872H169.009C168.867 117.582 168.782 117.389 168.676 117.198C164.94 110.725 161.207 104.249 157.477 97.7698C157.151 97.1978 156.712 97.1375 156.155 97.0578C153.847 96.7248 151.487 96.5631 149.257 95.9404C140.375 93.4569 133.772 88.0507 129.379 79.9414C129.249 79.7001 129.112 79.4587 128.916 79.1208C128.856 79.2452 128.807 79.3744 128.769 79.507C128.375 83.3999 127.972 87.2929 127.601 91.1882C127.439 92.8777 126.445 93.9734 124.919 94.0144C123.394 94.0555 122.332 93.049 122.163 91.3813C121.507 84.8376 120.863 78.293 120.232 71.7476C120.03 69.6189 121.121 68.4798 123.269 68.4774L125.82 68.4749ZM182.57 75.5175L182.845 75.4427C186.123 66.8121 185.604 58.4421 180.611 50.5548C176.131 43.4833 169.593 39.4673 161.382 38.2123L161.165 38.4536L182.57 75.5175ZM180.367 89.033C180.574 89.2574 180.753 89.4602 180.944 89.6508C185.798 94.5213 190.651 99.3925 195.504 104.264C197.918 106.689 200.342 109.109 202.778 111.524C203.872 112.605 205.457 112.412 206.172 111.15C206.683 110.25 206.502 109.301 205.631 108.43C198.334 101.117 191.035 93.8077 183.734 86.5013C183.58 86.3581 183.418 86.2228 183.251 86.0958L180.367 89.033Z" fill="#00538B"/>
<path opacity="0.2" d="M124.818 127.719C127.956 127.719 131.076 127.629 134.202 127.738C139.82 127.934 145.441 128.151 151.048 128.542C155.218 128.831 159.379 129.329 163.523 129.893C165.476 130.156 167.385 130.736 169.291 131.293C169.837 131.455 170.558 131.979 170.662 132.452C170.819 133.176 169.972 133.542 169.376 133.699C167.25 134.254 165.118 134.906 162.949 135.162C157.663 135.785 152.361 136.308 147.053 136.67C142.422 136.986 137.771 137.069 133.128 137.177C128.643 137.283 124.157 137.399 119.675 137.317C114.08 137.218 108.484 137.037 102.901 136.68C97.5625 136.337 92.2311 135.814 86.919 135.186C84.6986 134.925 82.5241 134.221 80.3495 133.644C79.7992 133.497 79.0245 133.279 79.0486 132.49C79.0728 131.701 79.8161 131.419 80.4171 131.283C83.084 130.654 85.7437 129.888 88.454 129.575C93.6044 128.974 98.7789 128.51 103.958 128.242C110.904 127.88 117.86 127.76 124.813 127.538L124.818 127.719Z" fill="#0B3C61"/>
<path opacity="0.2" d="M192.709 135.411C197.71 135.273 202.715 135.54 207.673 136.209C208.371 136.316 209.061 136.477 209.734 136.692C209.961 136.76 210.13 137.015 210.325 137.175C210.13 137.375 209.968 137.691 209.734 137.756C208.747 138.058 207.74 138.286 206.719 138.439C200.58 139.163 194.411 139.294 188.242 139.096C184.45 138.973 180.668 138.49 176.884 138.155C176.477 138.123 176.077 138.028 175.699 137.872C175.411 137.702 175.145 137.495 174.91 137.257C175.168 137.052 175.392 136.726 175.689 136.661C177.014 136.366 178.344 136.014 179.691 135.922C184.035 135.628 188.365 135.439 192.702 135.198L192.709 135.411Z" fill="#0B3C61"/>
<path d="M125.82 68.475H123.276C121.128 68.475 120.037 69.6166 120.24 71.7453C120.862 78.2923 121.506 84.8368 122.17 91.379C122.339 93.0491 123.433 94.0531 124.927 94.0121C126.42 93.971 127.446 92.8826 127.608 91.1859C127.98 87.2905 128.383 83.3976 128.776 79.5046C128.814 79.372 128.864 79.2429 128.923 79.1185C129.119 79.4612 129.256 79.7001 129.387 79.939C133.779 88.0484 140.383 93.4546 149.264 95.938C151.494 96.5607 153.85 96.7224 156.162 97.0555C156.719 97.1351 157.159 97.1954 157.484 97.7674C161.201 104.253 164.934 110.729 168.683 117.196C168.789 117.382 168.874 117.58 169.016 117.869H80.7139L124.881 41.3619C126.254 43.7344 127.492 45.9982 128.861 48.18C129.49 49.1865 129.536 49.9515 128.981 51.0497C126.36 56.2435 125.441 61.7969 125.815 67.5796C125.834 67.8451 125.82 68.1106 125.82 68.475ZM124.854 105.384C125.337 105.384 125.832 105.384 126.322 105.384C127.806 105.348 128.776 104.407 128.815 102.94C128.841 101.991 128.841 101.038 128.815 100.089C128.776 98.6411 127.866 97.6757 126.423 97.6202C125.395 97.5744 124.359 97.5744 123.329 97.6202C121.943 97.6806 121.002 98.6363 120.942 100.034C120.898 100.999 120.898 101.989 120.942 102.966C121.002 104.414 122.006 105.363 123.471 105.394C123.93 105.394 124.393 105.384 124.854 105.384Z" fill="#FEFEFE"/>
<path d="M147.324 85.4249C146.616 85.4249 145.907 85.4732 145.202 85.4394C143.839 85.3791 142.591 85.5818 141.71 86.8296C139.661 85.3424 137.842 83.5624 136.311 81.5465C124.352 65.8299 132.493 43.1504 151.731 38.6903C153.724 38.2293 155.819 38.2076 157.868 37.9662C158.382 37.9083 158.703 38.0965 158.978 38.572C166.412 51.4793 173.861 64.3802 181.325 77.2746C181.605 77.7573 181.552 78.0904 181.281 78.5272C175.489 87.9108 167.081 92.4256 156.058 92.0717C154.576 92.0234 153.104 91.6445 151.627 91.4393C151.06 91.3597 150.888 91.0797 150.891 90.5101C150.891 89.2455 151.132 87.9398 150.408 86.7644C150.751 86.7813 151.096 86.7813 151.436 86.8199C153.104 87.0009 154.769 87.2592 156.442 87.3533C157.378 87.4064 158.088 86.5665 158.095 85.6832C158.086 85.2448 157.912 84.826 157.609 84.5096C157.305 84.1931 156.894 84.0022 156.456 83.9744C156.268 83.9527 156.077 83.9575 155.887 83.9479C152.628 83.7693 149.573 82.9511 146.87 81.0517L147.032 80.89C147.654 80.4073 148.48 80.0236 148.844 79.3864C149.264 78.6624 149.353 77.697 149.447 76.8136C149.945 72.1435 150.401 67.4686 150.869 62.7937C151.18 59.6876 151.511 56.5814 151.789 53.4728C151.962 51.5421 150.582 49.9347 148.721 49.8743C146.986 49.8164 145.243 49.8116 143.505 49.855C143.076 49.8605 142.652 49.9519 142.258 50.1238C141.865 50.2956 141.509 50.5445 141.213 50.8558C140.917 51.1671 140.687 51.5344 140.535 51.9362C140.383 52.338 140.313 52.7661 140.329 53.1953C140.329 53.7649 140.423 54.332 140.479 54.8992C141.005 60.2507 141.531 65.6006 142.057 70.9489C142.255 73.0027 142.419 75.0518 142.598 77.1129C141.348 75.6664 140.433 73.9623 139.917 72.1218C139.434 70.2683 139.224 68.3447 138.908 66.4501C138.727 65.3617 138.024 64.7341 137.042 64.8259C136.06 64.9176 135.546 65.5499 135.546 66.6867C135.546 72.6093 137.757 77.6197 142.048 81.6334C143.614 83.0983 145.555 84.1748 147.324 85.4249Z" fill="#FEFEFE"/>
<path d="M180.367 89.0282L183.246 86.0958C183.414 86.2228 183.575 86.3582 183.729 86.5013C191.03 93.8093 198.329 101.119 205.626 108.43C206.498 109.301 206.679 110.25 206.167 111.15C205.443 112.412 203.867 112.598 202.774 111.524C200.339 109.111 197.914 106.691 195.499 104.265C190.65 99.3941 185.798 94.5213 180.944 89.6461C180.743 89.4554 180.574 89.2527 180.367 89.0282Z" fill="#FEFEFE"/>
<path d="M124.854 105.385C124.393 105.385 123.93 105.385 123.469 105.385C122.004 105.353 121 104.419 120.939 102.957C120.898 101.991 120.898 100.999 120.939 100.024C121 98.6364 121.941 97.6807 123.326 97.6107C124.357 97.5648 125.392 97.5648 126.42 97.6107C127.868 97.6759 128.773 98.6316 128.812 100.08C128.839 101.028 128.839 101.982 128.812 102.93C128.773 104.397 127.803 105.343 126.319 105.375C125.831 105.394 125.341 105.385 124.854 105.385Z" fill="#00538B"/>
<path d="M142.973 79.84C142.611 78.9953 142.369 76.4611 142.369 76.4611C142.191 74.4073 142.093 72.1917 141.887 70.0654C141.699 68.1346 141.012 60.2562 140.48 54.9063C140.424 54.3392 140.337 53.772 140.33 53.2024C140.314 52.7732 140.384 52.3451 140.536 51.9433C140.687 51.5415 140.918 51.1742 141.214 50.8629C141.51 50.5517 141.865 50.3028 142.259 50.1309C142.653 49.959 143.077 49.8676 143.506 49.8621C145.244 49.8187 146.986 49.8235 148.722 49.8815C150.585 49.9418 151.963 51.5588 151.789 53.48C151.512 56.5885 151.181 59.6947 150.87 62.8008C150.401 67.4758 150.107 71.7911 149.61 76.4611C149.53 77.3083 149.455 78.2141 149.248 79.3573C149.006 80.6847 148.041 81.0468 145.989 81.0468C146.472 81.0468 145.429 81.1964 145.989 81.0468C145.024 81.0468 143.335 80.6847 142.973 79.84Z" fill="#00538B"/>
</g>
</svg>
