<svg width="100" height="100" viewBox="0 0 100 100" fill="none" xmlns="http://www.w3.org/2000/svg">
<circle cx="50" cy="50" r="50" fill="#4C9E45"/>
<ellipse cx="50.0002" cy="49.9999" rx="39.1892" ry="39.1892" fill="white"/>
<circle cx="50" cy="50" r="50" fill="#F2F2F2"/>
<ellipse cx="50.0002" cy="49.9999" rx="39.1892" ry="39.1892" fill="white"/>
<path d="M29.5316 59.588C27.8669 56.3511 26.8496 52.5594 26.8496 48.6752C26.8496 35.6353 37.4849 25 50.5248 25C63.5646 25 74.2 35.6353 74.2 48.6752C74.2 61.715 63.5646 72.3504 50.5248 72.3504C46.0857 72.3504 42.0165 71.1481 38.5022 69.0211" stroke="#BDBDBD" stroke-width="1.5" stroke-miterlimit="10" stroke-linecap="round"/>
<path d="M29.5316 59.588L25 72.1655L38.4098 68.9286" stroke="#BDBDBD" stroke-width="1.5" stroke-miterlimit="10" stroke-linecap="round"/>
<path d="M48.116 55.8071H47.366V56.5571H48.116V55.8071ZM50.556 55.8071V56.5571H51.306V55.8071H50.556ZM46.716 39.5271L45.9971 39.3133L45.7493 40.1466L46.6099 40.2695L46.716 39.5271ZM48.116 56.5571H50.556V55.0571H48.116V56.5571ZM51.306 55.8071C51.306 53.9177 51.7514 52.6393 52.3858 51.658C53.034 50.6553 53.9057 49.9168 54.8707 49.1277C55.8105 48.3592 56.8602 47.5279 57.6514 46.392C58.4635 45.2259 58.986 43.7722 58.986 41.7671H57.486C57.486 43.4819 57.0484 44.6332 56.4205 45.5347C55.7717 46.4663 54.9015 47.1649 53.9212 47.9665C52.9663 48.7473 51.9179 49.6188 51.1261 50.8437C50.3205 52.0899 49.806 53.6565 49.806 55.8071H51.306ZM58.986 41.7671C58.986 39.2684 58.0553 37.2458 56.4641 35.857C54.885 34.4788 52.7172 33.7771 50.316 33.7771V35.2771C52.4347 35.2771 54.2269 35.8953 55.4778 36.9871C56.7166 38.0683 57.486 39.6658 57.486 41.7671H58.986ZM50.316 33.7771C46.4334 33.7771 42.286 36.6325 42.286 41.0471H43.786C43.786 37.7017 46.9985 35.2771 50.316 35.2771V33.7771ZM42.286 41.0471C42.286 42.1046 42.5951 43.1682 43.244 43.984C43.9073 44.8178 44.901 45.3571 46.156 45.3571V43.8571C45.371 43.8571 44.8047 43.5364 44.4179 43.0502C44.0168 42.546 43.786 41.8295 43.786 41.0471H42.286ZM46.156 45.3571C47.1339 45.3571 48.0384 45.0453 48.7048 44.4184C49.3771 43.786 49.746 42.89 49.746 41.8471H48.246C48.246 42.5242 48.0148 43.0081 47.6771 43.3258C47.3336 43.6489 46.8181 43.8571 46.156 43.8571V45.3571ZM49.746 41.8471C49.746 40.9773 49.4658 40.24 48.9009 39.6966C48.354 39.1704 47.6147 38.8978 46.822 38.7846L46.6099 40.2695C47.2173 40.3563 47.618 40.5438 47.861 40.7776C48.0861 40.9941 48.246 41.3169 48.246 41.8471H49.746ZM47.4349 39.7408C47.7478 38.6881 48.678 38.1971 49.836 38.1971V36.6971C48.2739 36.6971 46.5641 37.4061 45.9971 39.3133L47.4349 39.7408ZM49.836 38.1971C50.7088 38.1971 51.3941 38.5308 51.8681 39.0584C52.3488 39.5933 52.646 40.3674 52.646 41.2871H54.146C54.146 40.0468 53.7431 38.9008 52.9838 38.0558C52.2178 37.2033 51.1231 36.6971 49.836 36.6971V38.1971ZM52.646 41.2871C52.646 43.1914 51.5118 44.7199 50.1591 46.498C48.8697 48.1927 47.366 50.1326 47.366 52.6471H48.866C48.866 50.7215 50.0022 49.1814 51.3529 47.4062C52.6401 45.7142 54.146 43.7827 54.146 41.2871H52.646ZM47.366 52.6471V55.8071H48.866V52.6471H47.366ZM45.886 60.8071C45.886 62.7413 47.5018 64.3571 49.436 64.3571V62.8571C48.3302 62.8571 47.386 61.9129 47.386 60.8071H45.886ZM49.436 64.3571C51.3702 64.3571 52.986 62.7413 52.986 60.8071H51.486C51.486 61.9129 50.5417 62.8571 49.436 62.8571V64.3571ZM52.986 60.8071C52.986 58.8398 51.3771 57.2171 49.436 57.2171V58.7171C50.5349 58.7171 51.486 59.6544 51.486 60.8071H52.986ZM49.436 57.2171C47.4949 57.2171 45.886 58.8398 45.886 60.8071H47.386C47.386 59.6544 48.3371 58.7171 49.436 58.7171V57.2171Z" fill="#BDBDBD"/>
</svg>
