<svg width="148" height="112" viewBox="0 0 148 112" fill="none" xmlns="http://www.w3.org/2000/svg">
<g clip-path="url(#clip0)">
<mask id="path-1-outside-1" maskUnits="userSpaceOnUse" x="-2" y="3" width="152" height="104" fill="black">
<rect fill="white" x="-2" y="3" width="152" height="104"/>
<path fill-rule="evenodd" clip-rule="evenodd" d="M73.1719 105C95.0598 105 113.663 90.9358 120.437 71.3515H145.625L132.833 58.5351L145.625 45.7188H126.542C125.87 40.3375 124.695 36.7188 124.695 36.7188C123.213 37.2276 121.737 37.7091 120.267 38.1645C113.355 18.8329 94.879 5 73.1719 5C51.4834 5 33.0202 18.8091 26.0949 38.1146C23.4871 37.2808 22.0823 36.7188 22.0823 36.7188C21.2378 39.8773 20.6978 42.8945 20.3798 45.7188H2L14.7927 58.5351L2 71.3515H25.9068C32.6809 90.9358 51.284 105 73.1719 105ZM37.8925 71.9571C44.2332 85.0611 57.6562 94.0987 73.19 94.0987C88.7579 94.0987 102.206 85.0214 108.529 71.8708C92.5855 75.2899 66.5064 78.4329 37.8925 71.9571ZM36.5534 40.9644C52.2308 44.5918 79.1532 48.1875 109.839 40.9972C104.227 26.2206 89.9349 15.7188 73.19 15.7188C56.4575 15.7188 42.1742 26.2051 36.5534 40.9644Z"/>
</mask>
<path fill-rule="evenodd" clip-rule="evenodd" d="M73.1719 105C95.0598 105 113.663 90.9358 120.437 71.3515H145.625L132.833 58.5351L145.625 45.7188H126.542C125.87 40.3375 124.695 36.7188 124.695 36.7188C123.213 37.2276 121.737 37.7091 120.267 38.1645C113.355 18.8329 94.879 5 73.1719 5C51.4834 5 33.0202 18.8091 26.0949 38.1146C23.4871 37.2808 22.0823 36.7188 22.0823 36.7188C21.2378 39.8773 20.6978 42.8945 20.3798 45.7188H2L14.7927 58.5351L2 71.3515H25.9068C32.6809 90.9358 51.284 105 73.1719 105ZM37.8925 71.9571C44.2332 85.0611 57.6562 94.0987 73.19 94.0987C88.7579 94.0987 102.206 85.0214 108.529 71.8708C92.5855 75.2899 66.5064 78.4329 37.8925 71.9571ZM36.5534 40.9644C52.2308 44.5918 79.1532 48.1875 109.839 40.9972C104.227 26.2206 89.9349 15.7188 73.19 15.7188C56.4575 15.7188 42.1742 26.2051 36.5534 40.9644Z" fill="#F2F2F2"/>
<path d="M120.437 71.3515V69.8515H119.369L119.019 70.8612L120.437 71.3515ZM145.625 71.3515V72.8515H149.242L146.687 70.2918L145.625 71.3515ZM132.833 58.5351L131.771 57.4755L130.713 58.5351L131.771 59.5948L132.833 58.5351ZM145.625 45.7188L146.687 46.7784L149.242 44.2188H145.625V45.7188ZM126.542 45.7188L125.054 45.9047L125.218 47.2188H126.542V45.7188ZM124.695 36.7188L126.121 36.2553L125.65 34.8047L124.207 35.3001L124.695 36.7188ZM120.267 38.1645L118.854 38.6694L119.338 40.0225L120.711 39.5973L120.267 38.1645ZM26.0949 38.1146L25.6381 39.5433L27.0177 39.9844L27.5068 38.621L26.0949 38.1146ZM22.0823 36.7188L22.6394 35.3261L21.0698 34.6981L20.6332 36.3313L22.0823 36.7188ZM20.3798 45.7188V47.2188H21.7205L21.8704 45.8866L20.3798 45.7188ZM2 45.7188V44.2188H-1.61658L0.938358 46.7784L2 45.7188ZM14.7927 58.5351L15.8543 59.5948L16.912 58.5351L15.8543 57.4755L14.7927 58.5351ZM2 71.3515L0.938358 70.2918L-1.61658 72.8515H2V71.3515ZM25.9068 71.3515L27.3244 70.8612L26.9751 69.8515H25.9068V71.3515ZM37.8925 71.9571L38.2236 70.4941L35.1855 69.8065L36.5422 72.6104L37.8925 71.9571ZM108.529 71.8708L109.881 72.5209L111.207 69.7624L108.215 70.4042L108.529 71.8708ZM36.5534 40.9644L35.1516 40.4306L34.5394 42.0381L36.2152 42.4258L36.5534 40.9644ZM109.839 40.9972L110.181 42.4576L111.85 42.0666L111.241 40.4646L109.839 40.9972ZM119.019 70.8612C112.448 89.8599 94.4008 103.5 73.1719 103.5V106.5C95.7187 106.5 114.878 92.0118 121.855 71.8419L119.019 70.8612ZM145.625 69.8515H120.437V72.8515H145.625V69.8515ZM131.771 59.5948L144.564 72.4112L146.687 70.2918L133.894 57.4755L131.771 59.5948ZM144.564 44.6591L131.771 57.4755L133.894 59.5948L146.687 46.7784L144.564 44.6591ZM126.542 47.2188H145.625V44.2188H126.542V47.2188ZM124.695 36.7188C123.268 37.1822 123.268 37.182 123.268 37.1819C123.268 37.1818 123.268 37.1817 123.268 37.1816C123.268 37.1815 123.268 37.1814 123.268 37.1814C123.268 37.1813 123.268 37.1815 123.268 37.1818C123.268 37.1826 123.269 37.1842 123.269 37.1867C123.271 37.1917 123.274 37.2001 123.277 37.2119C123.285 37.2356 123.297 37.2728 123.312 37.3232C123.343 37.424 123.389 37.5773 123.446 37.7796C123.562 38.1842 123.724 38.784 123.908 39.5503C124.275 41.0838 124.726 43.2785 125.054 45.9047L128.031 45.5328C127.687 42.7777 127.214 40.4725 126.825 38.8513C126.631 38.0402 126.457 37.3991 126.331 36.9569C126.268 36.7358 126.217 36.5644 126.181 36.4463C126.163 36.3872 126.149 36.3415 126.139 36.3095C126.133 36.2935 126.129 36.281 126.127 36.2719C126.125 36.2674 126.124 36.2637 126.123 36.261C126.123 36.2596 126.122 36.2584 126.122 36.2575C126.122 36.257 126.122 36.2566 126.122 36.2562C126.121 36.256 126.121 36.2558 126.121 36.2557C126.121 36.2555 126.121 36.2553 124.695 36.7188ZM120.711 39.5973C122.195 39.1375 123.685 38.6513 125.182 38.1374L124.207 35.3001C122.74 35.8039 121.278 36.2808 119.823 36.7316L120.711 39.5973ZM73.1719 6.5C94.2255 6.5 112.15 19.9157 118.854 38.6694L121.679 37.6595C114.561 17.75 95.5326 3.5 73.1719 3.5V6.5ZM27.5068 38.621C34.2251 19.8926 52.1364 6.5 73.1719 6.5V3.5C50.8304 3.5 31.8153 17.7255 24.683 37.6081L27.5068 38.621ZM22.0823 36.7188C21.5251 38.1114 21.5252 38.1115 21.5253 38.1115C21.5253 38.1115 21.5254 38.1116 21.5255 38.1116C21.5257 38.1117 21.5259 38.1117 21.5261 38.1118C21.5265 38.112 21.527 38.1122 21.5275 38.1124C21.5287 38.1129 21.5302 38.1135 21.532 38.1142C21.5357 38.1157 21.5407 38.1177 21.5472 38.1202C21.56 38.1253 21.5782 38.1325 21.6019 38.1417C21.6493 38.1602 21.7182 38.1869 21.8084 38.2213C21.9887 38.29 22.2539 38.3893 22.6008 38.5147C23.2947 38.7654 24.3155 39.1204 25.6381 39.5433L26.5517 36.6858C25.2665 36.2749 24.281 35.932 23.6205 35.6933C23.2902 35.5739 23.0413 35.4806 22.8767 35.4179C22.7944 35.3866 22.7332 35.3629 22.6936 35.3474C22.6737 35.3396 22.6593 35.3339 22.6502 35.3303C22.6457 35.3286 22.6425 35.3273 22.6407 35.3266C22.6398 35.3262 22.6393 35.326 22.6391 35.3259C22.639 35.3259 22.6389 35.3259 22.639 35.3259C22.639 35.3259 22.6391 35.3259 22.6392 35.326C22.6392 35.326 22.6393 35.326 22.6393 35.326C22.6394 35.326 22.6394 35.3261 22.0823 36.7188ZM21.8704 45.8866C22.1805 43.1321 22.7073 40.1885 23.5314 37.1062L20.6332 36.3313C19.7683 39.5662 19.215 42.657 18.8893 45.5509L21.8704 45.8866ZM2 47.2188H20.3798V44.2188H2V47.2188ZM15.8543 57.4755L3.06164 44.6591L0.938358 46.7784L13.731 59.5948L15.8543 57.4755ZM3.06164 72.4112L15.8543 59.5948L13.731 57.4755L0.938358 70.2918L3.06164 72.4112ZM25.9068 69.8515H2V72.8515H25.9068V69.8515ZM73.1719 103.5C51.9429 103.5 33.896 89.8599 27.3244 70.8612L24.4892 71.8419C31.4659 92.0118 50.625 106.5 73.1719 106.5V103.5ZM36.5422 72.6104C43.124 86.2124 57.0594 95.5987 73.19 95.5987V92.5987C58.253 92.5987 45.3425 83.9097 39.2427 71.3037L36.5422 72.6104ZM73.19 95.5987C89.356 95.5987 103.317 86.1713 109.881 72.5209L107.177 71.2208C101.094 83.8716 88.1598 92.5987 73.19 92.5987V95.5987ZM108.215 70.4042C92.3989 73.7958 66.554 76.9057 38.2236 70.4941L37.5614 73.4201C66.4587 79.96 92.7722 76.784 108.844 73.3375L108.215 70.4042ZM36.2152 42.4258C52.0353 46.0862 79.2026 49.7166 110.181 42.4576L109.497 39.5367C79.1038 46.6585 52.4263 43.0975 36.8915 39.503L36.2152 42.4258ZM111.241 40.4646C105.415 25.1249 90.5782 14.2188 73.19 14.2188V17.2188C89.2916 17.2188 103.039 27.3163 108.437 41.5297L111.241 40.4646ZM73.19 14.2188C55.8147 14.2188 40.9866 25.1088 35.1516 40.4306L37.9552 41.4983C43.3617 27.3014 57.1003 17.2188 73.19 17.2188V14.2188Z" fill="white" mask="url(#path-1-outside-1)"/>
<path fill-rule="evenodd" clip-rule="evenodd" d="M125.408 36.487L124.695 36.7188C125.408 36.487 125.408 36.4873 125.408 36.4876L125.408 36.4885L125.409 36.4915L125.413 36.5018L125.425 36.5397C125.435 36.5726 125.45 36.6205 125.469 36.6831C125.507 36.8082 125.562 36.9917 125.629 37.2294C125.764 37.7047 125.949 38.397 126.154 39.2725C126.565 41.0229 127.057 43.5091 127.385 46.4607C128.04 52.3544 128.047 60.1537 125.402 67.6649C125.329 67.8735 125.167 68.0391 124.96 68.1173L124.695 67.4158C124.96 68.1173 124.959 68.1175 124.959 68.1177L124.957 68.1185L124.949 68.1214L124.92 68.1322C124.895 68.1416 124.858 68.1553 124.809 68.1732C124.711 68.2089 124.567 68.2612 124.376 68.3283C123.996 68.4625 123.434 68.656 122.7 68.8951C121.234 69.3733 119.083 70.034 116.338 70.7675C110.847 72.2344 102.974 73.9933 93.4335 75.1658C74.3559 77.5103 48.5793 77.5137 21.8338 68.1234C21.62 68.0484 21.4516 67.8806 21.3756 67.6671L22.0823 67.4158C21.3756 67.6671 21.3755 67.6668 21.3754 67.6664L21.3751 67.6655L21.3741 67.6627L21.3708 67.6534L21.3594 67.6205C21.3498 67.5923 21.3359 67.5514 21.3184 67.4981C21.2833 67.3915 21.2334 67.2355 21.1721 67.0321C21.0494 66.6253 20.881 66.029 20.6946 65.2605C20.3217 63.7237 19.8763 61.4968 19.5796 58.7184C18.9862 53.1623 18.9868 45.3931 21.3577 36.525C21.4131 36.3179 21.5545 36.1443 21.7463 36.0482C21.938 35.9521 22.1617 35.9427 22.3609 36.0224L22.3602 36.0241C22.3609 36.0224 22.3609 36.0224 22.3609 36.0224L22.362 36.0229L22.3675 36.025L22.3913 36.0345C22.4129 36.043 22.4459 36.0559 22.4902 36.073C22.5787 36.1072 22.7123 36.1582 22.8897 36.2242C23.2444 36.3563 23.7744 36.5485 24.4699 36.787C25.861 37.2641 27.9142 37.9263 30.5522 38.6628C35.8286 40.1358 43.4422 41.9053 52.776 43.0851C71.4455 45.4449 96.9779 45.4434 124.451 36.0094C124.641 35.9441 124.85 35.9579 125.03 36.0477C125.209 36.1375 125.346 36.2958 125.408 36.487ZM22.5979 37.7155C20.4932 46.037 20.5111 53.3158 21.0711 58.5591C21.36 61.2645 21.7931 63.4262 22.1523 64.9069C22.3319 65.6471 22.4929 66.2169 22.6082 66.599C22.6343 66.6857 22.6581 66.7628 22.6792 66.83C49.0187 75.9995 74.4074 75.9927 93.2505 73.677C102.712 72.5143 110.515 70.7704 115.95 69.3183C118.668 68.5923 120.792 67.9395 122.235 67.469C122.957 67.2337 123.508 67.0441 123.877 66.9138C123.962 66.8839 124.037 66.8571 124.103 66.8336C126.529 59.7165 126.526 52.3102 125.894 46.6265C125.574 43.7451 125.094 41.3188 124.694 39.6151C124.5 38.7896 124.326 38.1345 124.198 37.6803C96.7356 46.955 71.2525 46.9325 52.5879 44.5732C43.1707 43.3829 35.4845 41.5971 30.1488 40.1075C27.4808 39.3627 25.3998 38.6917 23.9833 38.2059C23.4116 38.0098 22.9481 37.8439 22.5979 37.7155Z" fill="white"/>
<path d="M64.9974 51.6787C65.4614 51.6787 65.8294 51.8227 66.1014 52.1107C66.3734 52.3827 66.5094 52.7507 66.5094 53.2147V67.3027C66.5094 67.7667 66.3654 68.1427 66.0774 68.4307C65.8054 68.7187 65.4454 68.8627 64.9974 68.8627C64.5334 68.8627 64.1654 68.7187 63.8934 68.4307C63.6214 68.1427 63.4854 67.7667 63.4854 67.3027V61.3747H54.8214V67.3027C54.8214 67.7667 54.6774 68.1427 54.3894 68.4307C54.1174 68.7187 53.7494 68.8627 53.2854 68.8627C52.8374 68.8627 52.4694 68.7187 52.1814 68.4307C51.9094 68.1427 51.7734 67.7667 51.7734 67.3027V53.2147C51.7734 52.7507 51.9094 52.3827 52.1814 52.1107C52.4534 51.8227 52.8214 51.6787 53.2854 51.6787C53.7494 51.6787 54.1174 51.8227 54.3894 52.1107C54.6774 52.3827 54.8214 52.7507 54.8214 53.2147V58.8787H63.4854V53.2147C63.4854 52.7507 63.6214 52.3827 63.8934 52.1107C64.1654 51.8227 64.5334 51.6787 64.9974 51.6787Z" fill="white"/>
<path d="M71.6844 68.8627C71.2204 68.8627 70.8444 68.7187 70.5564 68.4307C70.2844 68.1427 70.1484 67.7667 70.1484 67.3027V53.2627C70.1484 52.7987 70.2764 52.4387 70.5324 52.1827C70.8044 51.9267 71.1724 51.7987 71.6364 51.7987H80.0604C81.0364 51.7987 81.5244 52.2147 81.5244 53.0467C81.5244 53.8627 81.0364 54.2707 80.0604 54.2707H73.1964V58.8787H79.5804C80.5564 58.8787 81.0444 59.2947 81.0444 60.1267C81.0444 60.9427 80.5564 61.3507 79.5804 61.3507H73.1964V67.3027C73.1964 67.7667 73.0604 68.1427 72.7884 68.4307C72.5164 68.7187 72.1484 68.8627 71.6844 68.8627Z" fill="white"/>
<path d="M85.2302 68.7187C84.7662 68.7187 84.3982 68.5907 84.1262 68.3347C83.8702 68.0787 83.7422 67.7187 83.7422 67.2547V53.2627C83.7422 52.7987 83.8702 52.4387 84.1262 52.1827C84.3982 51.9267 84.7662 51.7987 85.2302 51.7987H93.8942C94.3582 51.7987 94.7182 51.9027 94.9742 52.1107C95.2302 52.3187 95.3582 52.6147 95.3582 52.9987C95.3582 53.3987 95.2302 53.7107 94.9742 53.9347C94.7182 54.1427 94.3582 54.2467 93.8942 54.2467H86.7662V58.9027H93.4142C93.8782 58.9027 94.2382 59.0067 94.4942 59.2147C94.7502 59.4227 94.8782 59.7267 94.8782 60.1267C94.8782 60.5107 94.7502 60.8067 94.4942 61.0147C94.2382 61.2227 93.8782 61.3267 93.4142 61.3267H86.7662V66.2707H93.8942C94.3582 66.2707 94.7182 66.3827 94.9742 66.6067C95.2302 66.8147 95.3582 67.1187 95.3582 67.5187C95.3582 67.9027 95.2302 68.1987 94.9742 68.4067C94.7182 68.6147 94.3582 68.7187 93.8942 68.7187H85.2302Z" fill="white"/>
</g>
<defs>
<clipPath id="clip0">
<rect width="148" height="112" fill="white"/>
</clipPath>
</defs>
</svg>
