<svg width="100" height="100" viewBox="0 0 100 100" fill="none" xmlns="http://www.w3.org/2000/svg">
<circle cx="50" cy="50" r="50" fill="#F2F2F2"/>
<ellipse cx="50.0002" cy="49.9999" rx="39.1892" ry="39.1892" fill="white"/>
<path d="M73.2929 57.7112C72.6327 57.7197 71.9851 57.536 71.4344 57.184L64.0594 52.2107C61.7271 54.1553 58.7903 55.2931 55.7135 55.4442C52.6368 55.5953 49.5957 54.7511 47.0713 53.045C44.5469 51.3389 42.6833 48.8685 41.7754 46.0244C40.8674 43.1803 40.9668 40.1249 42.058 37.3415C43.1491 34.5581 45.1697 32.2056 47.8 30.6562C50.4304 29.1067 53.5204 28.4487 56.5812 28.7863C59.6421 29.1239 62.4991 30.4377 64.7003 32.52C66.9016 34.6023 68.3214 37.3342 68.7352 40.2835C69.0835 42.8029 68.6899 45.3661 67.5994 47.6792C67.5131 47.8495 67.3626 47.9813 67.1787 48.0475C66.9949 48.1138 66.7918 48.1095 66.6112 48.0355C66.5226 47.9957 66.4431 47.9394 66.3772 47.8697C66.3114 47.8 66.2605 47.7184 66.2276 47.6296C66.1947 47.5408 66.1803 47.4465 66.1854 47.3523C66.1905 47.2581 66.2149 47.1658 66.2572 47.0807C67.0486 45.4159 67.4335 43.5977 67.382 41.7663C67.3306 39.935 66.8442 38.1396 65.9604 36.5187C65.0766 34.8978 63.8191 33.4948 62.2849 32.418C60.7507 31.3412 58.9809 30.6195 57.1122 30.3085C55.0334 29.9617 52.8975 30.1339 50.9071 30.809C48.9167 31.484 47.1379 32.6394 45.7397 34.1654C44.3415 35.6914 43.3703 37.5374 42.9183 39.528C42.4662 41.5186 42.5484 43.5879 43.1571 45.5392C43.7657 47.4905 44.8805 49.2591 46.3956 50.6771C47.9108 52.0951 49.7759 53.1154 51.8141 53.641C53.8522 54.1667 55.9955 54.1803 58.0406 53.6806C60.0857 53.1809 61.9646 52.1844 63.4989 50.7857C63.623 50.6747 63.7821 50.6072 63.9507 50.5943C64.1193 50.5814 64.2875 50.6237 64.4282 50.7145L72.2457 56.0155C72.6369 56.2763 73.1193 56.3762 73.5867 56.2934C74.0542 56.2105 74.4685 55.9517 74.7384 55.5737C75.0083 55.1958 75.1118 54.7298 75.0261 54.2781C74.9403 53.8265 74.6724 53.4263 74.2812 53.1655L68.7942 49.4605C68.6362 49.3491 68.5294 49.1826 68.4964 48.9964C68.4634 48.8102 68.5067 48.6189 68.6172 48.463C68.6731 48.3859 68.7442 48.3203 68.8265 48.27C68.9087 48.2196 69.0005 48.1855 69.0965 48.1696C69.1925 48.1537 69.2908 48.1564 69.3858 48.1774C69.4807 48.1984 69.5704 48.2373 69.6497 48.292L75.1367 51.997C75.4856 52.2326 75.7826 52.5328 76.0104 52.8801C76.2383 53.2275 76.3925 53.6151 76.4642 54.0205C76.6099 54.8411 76.4194 55.6843 75.9332 56.3717C75.6351 56.7818 75.2401 57.1173 74.7809 57.3503C74.3217 57.5833 73.8116 57.707 73.2929 57.7112Z" fill="#333333"/>
<path d="M45.9463 51.9258C45.7713 51.9275 45.6015 51.8678 45.4686 51.7577C45.3356 51.6476 45.2486 51.4947 45.2236 51.3273C45.1891 51.1422 45.2318 50.9514 45.3423 50.7966C45.4528 50.6417 45.6222 50.5354 45.8136 50.5008C46.2553 50.409 46.6892 50.2851 47.1116 50.1303C47.5393 49.9878 48.5866 48.0783 48.9848 45.5133C49.2946 43.8318 48.8521 34.2273 48.6456 30.6648C48.6416 30.5712 48.6568 30.4778 48.6903 30.3899C48.7237 30.302 48.7748 30.2213 48.8405 30.1525C48.9063 30.0836 48.9855 30.028 49.0735 29.9888C49.1615 29.9495 49.2567 29.9274 49.3536 29.9238C49.4502 29.916 49.5474 29.9274 49.6392 29.9573C49.731 29.9873 49.8155 30.0352 49.8874 30.0979C49.9593 30.1607 50.0171 30.2371 50.0572 30.3224C50.0973 30.4076 50.1189 30.4999 50.1206 30.5935C50.1206 31.1208 50.8433 43.5753 50.4451 45.7555C50.3418 46.2828 49.4568 50.8713 47.5836 51.4555C47.1002 51.6234 46.6078 51.7661 46.1086 51.883L45.9463 51.9258Z" fill="#333333"/>
<path d="M41.9491 43.504C41.8489 43.5044 41.7498 43.4843 41.6583 43.445C41.5667 43.4057 41.4849 43.3481 41.4181 43.276C41.3494 43.2109 41.2949 43.1333 41.2576 43.0477C41.2204 42.9621 41.2012 42.8701 41.2012 42.7772C41.2012 42.6843 41.2204 42.5924 41.2576 42.5067C41.2949 42.4211 41.3494 42.3435 41.4181 42.2785C42.1277 41.6173 42.9449 41.0733 43.8371 40.6682C44.8011 40.1968 45.9167 40.1049 46.9494 40.4117C47.8196 40.6967 49.8994 41.167 49.9879 41.167C50.1834 41.2085 50.3539 41.3235 50.4618 41.4865C50.5697 41.6495 50.6061 41.8472 50.5631 42.0362C50.5201 42.2252 50.4011 42.3899 50.2324 42.4941C50.0636 42.5983 49.8589 42.6335 49.6634 42.592C49.5601 42.592 47.4214 42.1075 46.4774 41.794C46.1303 41.6943 45.7659 41.6631 45.4061 41.7023C45.0463 41.7415 44.6983 41.8502 44.3829 42.022C43.678 42.3688 43.0275 42.8102 42.4506 43.333C42.312 43.4495 42.1327 43.5106 41.9491 43.504Z" fill="#333333"/>
<path d="M48.926 49.204C48.7854 49.1994 48.6483 49.1602 48.5278 49.09C47.4145 48.4411 46.3499 47.7174 45.3418 46.924C45.1348 46.6633 44.985 46.3646 44.9013 46.0461C44.8176 45.7277 44.8019 45.3961 44.855 45.0715C44.8676 44.978 44.8992 44.8877 44.9479 44.8059C44.9965 44.7241 45.0614 44.6524 45.1388 44.5949C45.2162 44.5373 45.3046 44.495 45.3989 44.4705C45.4932 44.4459 45.5915 44.4395 45.6884 44.4517C45.7852 44.4638 45.8787 44.4943 45.9633 44.5414C46.048 44.5884 46.1222 44.6511 46.1818 44.7259C46.2414 44.8006 46.2851 44.886 46.3106 44.9771C46.336 45.0682 46.3426 45.1632 46.33 45.2568C46.2907 45.4958 46.332 45.7406 46.448 45.955C47.3888 46.6595 48.3741 47.3067 49.398 47.893C49.5621 47.9953 49.6775 48.1562 49.719 48.3405C49.7605 48.5248 49.7246 48.7175 49.6193 48.8763C49.5489 48.9899 49.446 49.0813 49.3229 49.1395C49.1999 49.1976 49.062 49.2201 48.926 49.204Z" fill="#333333"/>
<path d="M46.9642 37.9607H46.8757C45.8284 37.9607 44.5452 37.3765 44.2944 36.5357C44.1617 36.151 44.0142 35.6665 44.0142 35.6665L45.4892 35.2675L45.7547 36.1082C46.1162 36.3341 46.5339 36.4621 46.9642 36.4787C47.8465 36.4243 48.7239 36.3101 49.5897 36.1367C49.6865 36.118 49.7862 36.1179 49.8831 36.1364C49.98 36.1549 50.0722 36.1917 50.1544 36.2446C50.2365 36.2976 50.3071 36.3656 50.3621 36.4449C50.417 36.5242 50.4553 36.6131 50.4747 36.7067C50.494 36.8003 50.4941 36.8966 50.475 36.9902C50.4558 37.0838 50.4177 37.1729 50.3629 37.2523C50.3082 37.3317 50.2377 37.3998 50.1557 37.4529C50.0736 37.506 49.9815 37.543 49.8847 37.5617C48.9222 37.7615 47.9462 37.8948 46.9642 37.9607Z" fill="#333333"/>
<path d="M55.8286 51.8688C55.3263 51.8695 54.8275 51.7876 54.3536 51.6265C53.61 51.3188 52.968 50.8199 52.4973 50.1843C52.0266 49.5487 51.7452 48.8006 51.6839 48.0213C51.1032 44.4157 51.0783 40.7469 51.6101 37.1343C51.6272 37.0199 51.6722 36.9112 51.7414 36.817C51.8107 36.7228 51.9022 36.6459 52.0084 36.5928C52.1147 36.5366 52.2338 36.5072 52.355 36.5072C52.4761 36.5072 52.5953 36.5366 52.7016 36.5928C53.0531 36.791 53.4662 36.8618 53.8669 36.7923C54.2147 36.7097 54.516 36.5004 54.7076 36.208C54.8065 36.0468 54.965 35.9277 55.1511 35.8748C55.3372 35.822 55.5371 35.8392 55.7106 35.923C55.879 36.0135 56.005 36.163 56.0626 36.3407C56.1203 36.5183 56.1051 36.7106 56.0204 36.8778C55.6319 37.5051 55.0088 37.9642 54.2799 38.1603C53.8393 38.267 53.3782 38.267 52.9376 38.1603C52.5601 41.3415 52.6246 44.5573 53.1294 47.722C53.1446 48.2525 53.3128 48.7684 53.6151 49.2115C53.9174 49.6546 54.3417 50.0073 54.8404 50.23C56.6546 50.857 59.4571 49.432 60.5634 48.5343C62.2154 47.1093 63.5134 43.0623 64.1034 39.685C64.5459 36.6925 62.6284 32.4318 62.6284 32.389C62.568 32.2355 62.5644 32.0665 62.6182 31.9107C62.6719 31.7549 62.7797 31.6219 62.9234 31.534C63.1014 31.4569 63.3038 31.4511 63.4863 31.5179C63.6687 31.5846 63.8164 31.7186 63.8969 31.8903C63.9854 32.0898 66.0356 36.5785 65.5194 39.9843C65.1211 42.706 63.8084 47.8075 61.4926 49.7028C59.8904 50.9872 57.9067 51.7458 55.8286 51.8688Z" fill="#333333"/>
<path d="M52.0083 35.6523C51.8217 35.6525 51.6422 35.5828 51.5074 35.458C51.3727 35.3331 51.2932 35.1628 51.2856 34.9826C51.1266 33.115 51.2358 31.2352 51.6101 29.3965C51.691 29.2246 51.8369 29.0891 52.0178 29.0176C52.1988 28.9461 52.4011 28.944 52.5836 29.0118C52.7614 29.0898 52.9007 29.2316 52.9723 29.4071C53.0439 29.5826 53.042 29.7781 52.9671 29.9523C52.6834 31.5902 52.6042 33.2551 52.7311 34.9113C52.7371 35.0042 52.7237 35.0973 52.692 35.1851C52.6602 35.2729 52.6105 35.3537 52.5459 35.4228C52.4813 35.4918 52.4031 35.5477 52.3159 35.5871C52.2286 35.6265 52.1341 35.6487 52.0378 35.6523H52.0083Z" fill="#333333"/>
<path d="M54.6781 33.0587C54.5452 33.0606 54.4142 33.027 54.2997 32.9617C54.1852 32.8963 54.0916 32.8017 54.0291 32.6882C53.9387 32.5212 53.9189 32.3269 53.9739 32.1461C54.029 31.9653 54.1545 31.8122 54.3241 31.7192C55.6541 31.0292 56.9221 30.2332 58.1149 29.3394C58.2596 29.2109 58.4513 29.1433 58.6477 29.1513C58.8441 29.1593 59.0291 29.2424 59.1622 29.3822C59.2952 29.522 59.3652 29.7072 59.3569 29.8969C59.3486 30.0867 59.2626 30.2654 59.1179 30.3939C57.8365 31.363 56.4693 32.2214 55.0321 32.9589C54.9241 33.019 54.8027 33.0532 54.6781 33.0587Z" fill="#333333"/>
<path d="M58.1148 34.3839H57.9968C57.9014 34.3701 57.8097 34.338 57.7273 34.2894C57.6449 34.2408 57.5734 34.1768 57.5171 34.1011C57.4607 34.0254 57.4206 33.9395 57.3991 33.8486C57.3777 33.7577 57.3753 33.6635 57.3921 33.5717C57.3784 33.2727 57.3289 32.9762 57.2446 32.6882C57.1877 32.4819 57.1434 32.2725 57.1118 32.0612C57.0416 31.2429 57.2431 30.4243 57.6871 29.7242C57.7416 29.6476 57.8114 29.5823 57.8924 29.5321C57.9734 29.4819 58.064 29.4479 58.1588 29.432C58.2535 29.416 58.3507 29.4185 58.4445 29.4394C58.5382 29.4602 58.6268 29.4989 58.7048 29.5532C58.7853 29.6048 58.8542 29.6714 58.9076 29.7491C58.9609 29.8268 58.9976 29.9141 59.0155 30.0057C59.0334 30.0974 59.0321 30.1916 59.0116 30.2827C58.9912 30.3739 58.9521 30.4601 58.8966 30.5364C58.6427 30.9688 58.5344 31.4669 58.5868 31.9614C58.6003 32.1113 58.6299 32.2593 58.6753 32.4032C58.8228 32.8639 58.8778 33.3475 58.8376 33.8282C58.8006 33.9865 58.7089 34.1279 58.5774 34.2289C58.446 34.33 58.2828 34.3847 58.1148 34.3839Z" fill="#333333"/>
<path d="M58.2922 37.5475C58.1954 37.5588 58.0972 37.5515 58.0033 37.526C57.9093 37.5006 57.8215 37.4575 57.7448 37.3993C57.6681 37.3411 57.604 37.2688 57.5562 37.1867C57.5084 37.1045 57.4779 37.0141 57.4662 36.9205C57.4546 36.827 57.4622 36.7321 57.4885 36.6414C57.5148 36.5506 57.5594 36.4658 57.6197 36.3917C57.6799 36.3176 57.7547 36.2557 57.8397 36.2095C57.9248 36.1633 58.0184 36.1338 58.1152 36.1225C58.5091 36.0244 58.8735 35.8377 59.1785 35.5777C59.4835 35.3177 59.7206 34.9917 59.8705 34.6263C59.9178 34.4147 59.9522 34.2005 59.9737 33.985C59.9716 33.599 60.0487 33.2163 60.2006 32.8592C60.3526 32.5021 60.5762 32.1776 60.8587 31.9045C61.6552 31.3203 62.8205 31.7335 63.4547 31.9045H63.6022C63.7978 31.9045 63.9854 31.9796 64.1237 32.1132C64.262 32.2468 64.3397 32.4281 64.3397 32.617C64.3397 32.806 64.262 32.9872 64.1237 33.1208C63.9854 33.2545 63.7978 33.3295 63.6022 33.3295C63.3826 33.344 63.1631 33.2997 62.968 33.2013C62.1125 32.902 61.847 32.9163 61.7585 32.959C61.5908 33.3133 61.4956 33.6956 61.4782 34.0848C61.449 34.3877 61.3948 34.6879 61.316 34.9825C61.0922 35.5815 60.7196 36.1182 60.2309 36.5455C59.7423 36.9728 59.1526 37.2778 58.5135 37.4335L58.2922 37.5475Z" fill="#333333"/>
<path d="M64.664 41.3665C64.5683 41.3703 64.4727 41.3545 64.3838 41.3202C64.2948 41.2858 64.2143 41.2336 64.1478 41.167C64.1478 41.167 63.6315 40.6825 62.3335 39.4855C62.2246 39.3686 62.0898 39.2772 61.939 39.2179C61.7883 39.1587 61.6256 39.1332 61.4633 39.1435C60.73 39.3121 60.0914 39.7455 59.6785 40.3547C59.5568 40.5015 59.38 40.5959 59.1866 40.6173C58.9932 40.6386 58.7988 40.5852 58.646 40.4687C58.4918 40.3532 58.3913 40.1834 58.3664 39.9965C58.3415 39.8095 58.3943 39.6206 58.5133 39.4712C59.1852 38.5465 60.2086 37.9164 61.36 37.7185C61.7229 37.6952 62.0868 37.7466 62.4275 37.8695C62.7683 37.9923 63.0781 38.1837 63.3365 38.431C64.723 39.6707 65.2245 40.1552 65.2245 40.1552C65.2936 40.2215 65.3485 40.3003 65.3859 40.3871C65.4234 40.4739 65.4427 40.567 65.4427 40.6611C65.4427 40.7552 65.4234 40.8483 65.3859 40.9351C65.3485 41.0219 65.2936 41.1007 65.2245 41.167C65.1496 41.2348 65.0615 41.2873 64.9652 41.3216C64.8689 41.3559 64.7665 41.3711 64.664 41.3665Z" fill="#333333"/>
<path d="M60.2981 45.4135C60.163 45.4163 60.0299 45.3816 59.9146 45.3137C59.38 44.9052 58.9082 44.4254 58.5133 43.8887C58.0314 43.2996 57.5142 42.7381 56.9646 42.2072C56.6291 41.8492 56.2002 41.5849 55.7227 41.442C55.2452 41.2991 54.7368 41.2829 54.2506 41.395C53.5714 41.5307 52.9348 41.8187 52.3921 42.2357C52.2415 42.3567 52.0473 42.4149 51.8523 42.3975C51.6573 42.3801 51.4774 42.2886 51.3522 42.1431C51.227 41.9976 51.1668 41.81 51.1848 41.6216C51.2027 41.4332 51.2975 41.2594 51.4481 41.1385C52.193 40.5655 53.0672 40.17 53.9998 39.9842C54.713 39.8384 55.4528 39.8705 56.1496 40.0775C56.8463 40.2844 57.4771 40.6594 57.9823 41.167C58.575 41.7223 59.1316 42.3124 59.6491 42.934C59.9663 43.336 60.3113 43.7168 60.6816 44.074C60.8142 44.1567 60.9158 44.2783 60.9716 44.4209C61.0274 44.5635 61.0343 44.7197 60.9914 44.8664C60.9485 45.0132 60.858 45.1427 60.7332 45.2361C60.6084 45.3294 60.4559 45.3816 60.2981 45.385V45.4135Z" fill="#333333"/>
<path d="M59.3836 49.3322C58.8427 49.4056 58.2913 49.3505 57.7773 49.1717C57.2633 48.9929 56.8021 48.6959 56.4336 48.3062C55.8731 47.5082 55.9616 46.3825 56.7139 44.8577C56.7971 44.6886 56.9458 44.5578 57.128 44.4938C57.3102 44.4298 57.5112 44.4377 57.6874 44.5157C57.776 44.5555 57.8555 44.6118 57.9213 44.6815C57.9872 44.7512 58.038 44.8328 58.071 44.9216C58.1039 45.0105 58.1182 45.1047 58.1132 45.1989C58.1081 45.2931 58.0837 45.3854 58.0414 45.4705C57.3629 46.8955 57.5399 47.3372 57.6431 47.494C58.0266 48.0355 59.7376 47.9072 60.8734 47.8217H61.5961C61.693 47.8161 61.79 47.829 61.8817 47.8596C61.9734 47.8902 62.058 47.938 62.1306 48.0002C62.2032 48.0624 62.2624 48.1378 62.3048 48.2221C62.3473 48.3064 62.3721 48.3979 62.3779 48.4915C62.3837 48.5851 62.3704 48.6788 62.3387 48.7674C62.307 48.856 62.2576 48.9377 62.1932 49.0078C62.1288 49.078 62.0508 49.1351 61.9635 49.1761C61.8763 49.2171 61.7815 49.2411 61.6846 49.2467H60.9914C60.4604 49.2895 59.8999 49.3322 59.3836 49.3322Z" fill="#333333"/>
<path d="M52.5395 49.3323C52.3939 49.3295 52.2516 49.2902 52.1265 49.2183C51.9638 49.1112 51.8511 48.9468 51.8125 48.7603C51.7739 48.5738 51.8125 48.3801 51.92 48.2208C52.6248 47.1824 53.4961 46.2589 54.5012 45.4848C54.6655 45.3809 54.8658 45.3443 55.0581 45.383C55.2503 45.4218 55.4188 45.5327 55.5264 45.6914C55.6339 45.8502 55.6718 46.0437 55.6317 46.2294C55.5916 46.4151 55.4768 46.5779 55.3125 46.6818C54.4667 47.3413 53.7391 48.1308 53.159 49.0188C53.0888 49.1148 52.9961 49.1932 52.8884 49.2477C52.7806 49.3022 52.6611 49.3312 52.5395 49.3323Z" fill="#333333"/>
<path d="M44.1765 56.557C41.1829 56.4537 38.3476 55.2322 36.2677 53.1496C34.1877 51.0671 33.0254 48.2861 33.0254 45.3922C33.0254 42.4982 34.1877 39.7172 36.2677 37.6347C38.3476 35.5522 41.1829 34.3306 44.1765 34.2273C44.3721 34.2273 44.5596 34.3024 44.6979 34.436C44.8363 34.5696 44.914 34.7508 44.914 34.9398C44.914 35.1288 44.8363 35.31 44.6979 35.4436C44.5596 35.5772 44.3721 35.6523 44.1765 35.6523C42.5883 35.6487 41.3356 35.9848 39.918 36.6766C38.5004 37.3684 37.2719 38.3738 36.3324 39.6109C35.3929 40.848 34.769 42.2819 34.5115 43.7959C34.2539 45.31 34.37 46.8614 34.8502 48.3239C35.3305 49.7864 36.1613 51.1188 37.2752 52.2125C38.389 53.3062 39.7544 54.1305 41.2602 54.6182C42.766 55.1058 44.3698 55.2432 45.9409 55.019C47.5121 54.7949 48.6923 54.2382 49.988 53.3508C50.0672 53.2961 50.1569 53.2572 50.2519 53.2362C50.3468 53.2151 50.4451 53.2125 50.5411 53.2284C50.6371 53.2443 50.7289 53.2784 50.8111 53.3288C50.8934 53.3791 50.9646 53.4447 51.0205 53.5218C51.1309 53.6777 51.1743 53.869 51.1412 54.0552C51.1082 54.2414 51.0014 54.4079 50.8435 54.5193C48.8916 55.8461 46.5631 56.5578 44.1765 56.557Z" fill="#333333"/>
<path d="M47.6868 75.5523H41.7868C40.3283 75.5416 38.9036 75.1263 37.6825 74.3558C36.4613 73.5853 35.495 72.492 34.8986 71.206L31.5798 63.9955C31.4447 63.6916 31.375 63.3644 31.375 63.0336C31.375 62.7029 31.4447 62.3756 31.5798 62.0718C31.7159 61.7634 31.9176 61.4861 32.1717 61.2578C32.4257 61.0295 32.7266 60.8553 33.0548 60.7465C40.6573 57.961 49.0523 57.961 56.6548 60.7465C56.9815 60.8544 57.2814 61.0267 57.5355 61.2525C57.7897 61.4782 57.9925 61.7525 58.1312 62.0579C58.2698 62.3634 58.3413 62.6933 58.3411 63.0269C58.3409 63.3604 58.2689 63.6902 58.1298 63.9955L54.8111 71.206C54.2001 72.5289 53.1976 73.6475 51.9299 74.4209C50.6621 75.1943 49.1857 75.588 47.6868 75.5523ZM44.7663 60.034C40.9162 60.0373 37.0985 60.7131 33.4973 62.029C33.3641 62.0771 33.2426 62.1513 33.1405 62.2469C33.0383 62.3425 32.9577 62.4574 32.9037 62.5845C32.8497 62.7116 32.8235 62.8481 32.8266 62.9855C32.8298 63.1229 32.8623 63.2581 32.9221 63.3828L36.2408 70.579C36.725 71.6238 37.5119 72.5107 38.5066 73.1328C39.5012 73.7548 40.661 74.0854 41.8458 74.0845H47.7458C48.9307 74.0854 50.0904 73.7548 51.0851 73.1328C52.0797 72.5107 52.8666 71.6238 53.3508 70.579L56.6696 63.3828C56.7294 63.2581 56.7619 63.1229 56.765 62.9855C56.7682 62.8481 56.7419 62.7116 56.6879 62.5845C56.6339 62.4574 56.5533 62.3425 56.4512 62.2469C56.349 62.1513 56.2275 62.0771 56.0943 62.029C52.475 60.7051 48.6364 60.0291 44.7663 60.034Z" fill="#333333"/>
<ellipse cx="49.9997" cy="50" rx="39.1892" ry="39.1892" fill="white"/>
<path d="M71.6314 69.2195H27.0394C26.295 69.2205 25.5637 69.0272 24.92 68.6592C24.2763 68.2912 23.7433 67.7617 23.3754 67.1247C22.9985 66.4918 22.7998 65.7715 22.7998 65.0378C22.7998 64.3042 22.9985 63.5839 23.3754 62.951L33.8874 45.0275C33.9935 44.8458 34.1685 44.713 34.3741 44.6583C34.5796 44.6037 34.7988 44.6317 34.9834 44.7361C35.168 44.8405 35.3029 45.0129 35.3584 45.2152C35.4139 45.4175 35.3855 45.6333 35.2794 45.815L24.7674 63.8172C24.5394 64.2122 24.4198 64.6589 24.4206 65.1132C24.4213 65.5675 24.5423 66.0138 24.7717 66.4081C25.001 66.8024 25.3307 67.131 25.7284 67.3616C26.1261 67.5922 26.5779 67.7169 27.0394 67.7232H71.6314C72.1178 67.731 72.5969 67.6055 73.015 67.3607C73.4332 67.116 73.774 66.7616 73.9994 66.3372C74.2137 65.9507 74.3259 65.5175 74.3259 65.0772C74.3259 64.6369 74.2137 64.2037 73.9994 63.8172L51.5994 25.7495C51.3725 25.3562 51.0447 25.0285 50.6488 24.7991C50.2529 24.5697 49.8028 24.4466 49.3434 24.4422C48.8779 24.4378 48.4198 24.5568 48.0172 24.7869C47.6146 25.0169 47.2824 25.3494 47.0554 25.7495L38.5274 40.1922C38.4232 40.3737 38.2502 40.5071 38.0462 40.5632C37.8423 40.6193 37.624 40.5935 37.4394 40.4915C37.2812 40.3776 37.1698 40.2115 37.1258 40.0236C37.0817 39.8356 37.1078 39.6383 37.1994 39.4677L45.7114 24.962C46.0835 24.3274 46.6188 23.8005 47.2633 23.4342C47.9079 23.0679 48.6391 22.875 49.3834 22.875C50.1277 22.875 50.8589 23.0679 51.5034 23.4342C52.148 23.8005 52.6833 24.3274 53.0554 24.962L75.2954 62.951C75.672 63.5867 75.8719 64.3088 75.8748 65.0447C75.8778 65.7806 75.6838 66.5043 75.3124 67.143C74.941 67.7816 74.4052 68.3127 73.759 68.6828C73.1128 69.0528 72.379 69.2488 71.6314 69.251V69.2195Z" fill="#BDBDBD"/>
<path d="M49.3435 63.9432C48.6309 63.9463 47.9333 63.7411 47.3391 63.3536C46.745 62.9661 46.2811 62.4138 46.0062 61.7665C45.7313 61.1193 45.6577 60.4062 45.7948 59.7178C45.9319 59.0293 46.2735 58.3964 46.7763 57.8992C47.2791 57.4021 47.9205 57.063 48.6193 56.925C49.3181 56.787 50.0427 56.8562 50.7015 57.124C51.3602 57.3917 51.9234 57.8459 52.3197 58.429C52.716 59.0121 52.9275 59.6979 52.9275 60.3994C52.9275 61.3366 52.5505 62.2356 51.8788 62.8997C51.2071 63.5638 50.2955 63.939 49.3435 63.9432ZM49.3435 58.4307C48.9473 58.4276 48.5591 58.5404 48.2281 58.7548C47.8971 58.9692 47.6382 59.2756 47.4844 59.635C47.3306 59.9945 47.2887 60.3908 47.364 60.7738C47.4394 61.1567 47.6286 61.509 47.9077 61.7859C48.1867 62.0628 48.543 62.2519 48.9314 62.3291C49.3198 62.4064 49.7228 62.3683 50.0892 62.2198C50.4555 62.0712 50.7689 61.8189 50.9893 61.4948C51.2098 61.1707 51.3275 60.7895 51.3275 60.3994C51.3276 59.88 51.119 59.3816 50.7474 59.0128C50.3758 58.6441 49.8712 58.4348 49.3435 58.4307Z" fill="#BDBDBD"/>
<path d="M49.4235 55.6903C49.2294 55.6922 49.0412 55.6245 48.894 55.4999C48.7468 55.3753 48.6507 55.2022 48.6235 55.013L45.9835 35.5933C45.9751 35.1589 46.0537 34.7272 46.2148 34.3227C46.3759 33.9183 46.6163 33.549 46.9224 33.2361C47.2284 32.9231 47.5941 32.6725 47.9986 32.4986C48.403 32.3248 48.8383 32.231 49.2795 32.2228C50.1706 32.2061 51.032 32.5385 51.6741 33.147C52.3163 33.7554 52.6865 34.5901 52.7035 35.4673L50.2075 54.9973C50.1843 55.1867 50.092 55.3613 49.9478 55.4888C49.8036 55.6162 49.6173 55.6878 49.4235 55.6903ZM49.3435 33.7505C48.878 33.7504 48.431 33.9303 48.0989 34.2514C47.7667 34.5725 47.5759 35.0091 47.5675 35.4673L49.3915 48.776L51.1035 35.4673C51.0993 35.0105 50.912 34.5739 50.5824 34.2524C50.2528 33.9309 49.8075 33.7505 49.3435 33.7505Z" fill="#BDBDBD"/>
</svg>
