<svg width="106" height="106" viewBox="0 0 106 106" fill="none" xmlns="http://www.w3.org/2000/svg">
<path fill-rule="evenodd" clip-rule="evenodd" d="M52 102C79.6142 102 102 79.6142 102 52C102 24.3858 79.6142 2 52 2C24.3858 2 2 24.3858 2 52C2 79.6142 24.3858 102 52 102ZM52.0002 91.1889C73.6438 91.1889 91.1894 73.6433 91.1894 51.9997C91.1894 30.3561 73.6438 12.8105 52.0002 12.8105C30.3566 12.8105 12.811 30.3561 12.811 51.9997C12.811 73.6433 30.3566 91.1889 52.0002 91.1889Z" fill="#F2F2F2"/>
<path d="M75.2923 59.7115C74.6321 59.7199 73.9845 59.5362 73.4338 59.1842L66.0588 54.211C63.7265 56.1556 60.7897 57.2934 57.7129 57.4445C54.6362 57.5956 51.5951 56.7513 49.0707 55.0452C46.5463 53.3392 44.6828 50.8687 43.7748 48.0246C42.8668 45.1805 42.9663 42.1251 44.0574 39.3417C45.1485 36.5584 47.1691 34.2059 49.7994 32.6564C52.4298 31.107 55.5198 30.449 58.5807 30.7866C61.6415 31.1241 64.4985 32.4379 66.6998 34.5202C68.901 36.6025 70.3208 39.3344 70.7346 42.2837C71.0829 44.8031 70.6893 47.3663 69.5988 49.6795C69.5125 49.8497 69.362 49.9815 69.1782 50.0478C68.9943 50.1141 68.7912 50.1097 68.6106 50.0357C68.522 49.996 68.4425 49.9396 68.3767 49.87C68.3108 49.8003 68.26 49.7187 68.227 49.6299C68.1941 49.541 68.1797 49.4468 68.1848 49.3526C68.1899 49.2583 68.2143 49.166 68.2566 49.081C69.048 47.4162 69.4329 45.5979 69.3815 43.7666C69.33 41.9352 68.8436 40.1398 67.9598 38.5189C67.076 36.898 65.8185 35.495 64.2843 34.4183C62.7502 33.3415 60.9804 32.6197 59.1116 32.3087C57.0329 31.9619 54.8969 32.1342 52.9065 32.8092C50.9161 33.4843 49.1373 34.6396 47.7391 36.1656C46.3409 37.6916 45.3697 39.5376 44.9177 41.5282C44.4657 43.5189 44.5479 45.5881 45.1565 47.5394C45.7651 49.4907 46.8799 51.2594 48.395 52.6774C49.9102 54.0953 51.7754 55.1156 53.8135 55.6413C55.8516 56.1669 57.9949 56.1806 60.04 55.6808C62.0851 55.1811 63.964 54.1846 65.4983 52.786C65.6224 52.6749 65.7816 52.6075 65.9502 52.5946C66.1188 52.5816 66.2869 52.624 66.4276 52.7147L74.2451 58.0157C74.6363 58.2765 75.1187 58.3765 75.5862 58.2936C76.0536 58.2108 76.4679 57.9519 76.7378 57.574C77.0078 57.1961 77.1112 56.73 77.0255 56.2784C76.9397 55.8267 76.6718 55.4265 76.2806 55.1657L70.7936 51.4607C70.6357 51.3493 70.5289 51.1829 70.4958 50.9967C70.4628 50.8104 70.5061 50.6191 70.6166 50.4632C70.6725 50.3862 70.7436 50.3206 70.8259 50.2702C70.9082 50.2199 70.9999 50.1858 71.0959 50.1699C71.1919 50.154 71.2902 50.1566 71.3852 50.1776C71.4801 50.1986 71.5698 50.2376 71.6491 50.2922L77.1361 53.9972C77.485 54.2328 77.782 54.533 78.0099 54.8804C78.2377 55.2277 78.392 55.6154 78.4636 56.0207C78.6093 56.8414 78.4189 57.6846 77.9326 58.372C77.6345 58.7821 77.2395 59.1176 76.7803 59.3505C76.3211 59.5835 75.811 59.7073 75.2923 59.7115Z" fill="#BDBDBD"/>
<path d="M47.9458 53.9263C47.7708 53.928 47.601 53.8683 47.4681 53.7582C47.3351 53.6481 47.2481 53.4952 47.2231 53.3278C47.1886 53.1427 47.2313 52.9519 47.3418 52.7971C47.4523 52.6422 47.6217 52.5359 47.8131 52.5013C48.2548 52.4095 48.6887 52.2856 49.1111 52.1308C49.5388 51.9883 50.5861 50.0788 50.9843 47.5138C51.2941 45.8323 50.8516 36.2278 50.6451 32.6653C50.6411 32.5717 50.6563 32.4783 50.6898 32.3903C50.7232 32.3024 50.7743 32.2218 50.8401 32.1529C50.9058 32.0841 50.985 32.0285 51.073 31.9893C51.161 31.95 51.2562 31.9279 51.3531 31.9243C51.4497 31.9164 51.5469 31.9279 51.6387 31.9578C51.7305 31.9878 51.815 32.0356 51.8869 32.0984C51.9588 32.1612 52.0166 32.2376 52.0567 32.3228C52.0968 32.4081 52.1184 32.5004 52.1201 32.594C52.1201 33.1213 52.8428 45.5758 52.4446 47.756C52.3413 48.2833 51.4563 52.8718 49.5831 53.456C49.0997 53.6239 48.6073 53.7666 48.1081 53.8835L47.9458 53.9263Z" fill="#BDBDBD"/>
<path d="M43.9486 45.5038C43.8484 45.5043 43.7493 45.4842 43.6578 45.4449C43.5662 45.4056 43.4844 45.348 43.4176 45.2758C43.3489 45.2108 43.2943 45.1332 43.2571 45.0476C43.2198 44.9619 43.2007 44.87 43.2007 44.7771C43.2007 44.6842 43.2198 44.5922 43.2571 44.5066C43.2943 44.421 43.3489 44.3433 43.4176 44.2783C44.1272 43.6172 44.9444 43.0732 45.8366 42.6681C46.8005 42.1967 47.9161 42.1047 48.9488 42.4116C49.8191 42.6966 51.8988 43.1668 51.9873 43.1668C52.1829 43.2084 52.3534 43.3233 52.4613 43.4864C52.5692 43.6494 52.6056 43.8471 52.5626 44.0361C52.5196 44.2251 52.4006 44.3898 52.2318 44.494C52.0631 44.5982 51.8584 44.6334 51.6628 44.5918C51.5596 44.5918 49.4208 44.1073 48.4768 43.7938C48.1297 43.6942 47.7654 43.663 47.4056 43.7022C47.0458 43.7413 46.6978 43.85 46.3823 44.0218C45.6775 44.3687 45.027 44.8101 44.4501 45.3328C44.3115 45.4493 44.1322 45.5105 43.9486 45.5038Z" fill="#BDBDBD"/>
<path d="M50.9253 51.2047C50.7847 51.2001 50.6476 51.1608 50.5271 51.0907C49.4138 50.4418 48.3492 49.718 47.3411 48.9247C47.1341 48.6639 46.9843 48.3652 46.9006 48.0467C46.8169 47.7283 46.8012 47.3967 46.8543 47.0722C46.8669 46.9786 46.8985 46.8883 46.9471 46.8065C46.9958 46.7248 47.0607 46.653 47.1381 46.5955C47.2155 46.5379 47.3039 46.4956 47.3982 46.4711C47.4925 46.4465 47.5908 46.4401 47.6877 46.4523C47.7845 46.4644 47.878 46.4949 47.9626 46.542C48.0473 46.589 48.1215 46.6517 48.1811 46.7265C48.2407 46.8012 48.2844 46.8866 48.3099 46.9777C48.3353 47.0688 48.3419 47.1638 48.3293 47.2574C48.29 47.4964 48.3313 47.7412 48.4473 47.9557C49.3881 48.6601 50.3734 49.3073 51.3973 49.8937C51.5614 49.9959 51.6768 50.1568 51.7183 50.3411C51.7598 50.5254 51.7239 50.7181 51.6186 50.8769C51.5482 50.9905 51.4453 51.0819 51.3222 51.1401C51.1992 51.1982 51.0613 51.2207 50.9253 51.2047Z" fill="#BDBDBD"/>
<path d="M48.9636 39.9608H48.8751C47.8278 39.9608 46.5446 39.3766 46.2938 38.5358C46.1611 38.1511 46.0136 37.6666 46.0136 37.6666L47.4886 37.2676L47.7541 38.1083C48.1156 38.3342 48.5333 38.4622 48.9636 38.4788C49.846 38.4245 50.7233 38.3102 51.5891 38.1368C51.6859 38.1181 51.7856 38.118 51.8825 38.1365C51.9794 38.155 52.0716 38.1918 52.1538 38.2448C52.236 38.2977 52.3065 38.3657 52.3615 38.445C52.4165 38.5243 52.4547 38.6133 52.4741 38.7068C52.4935 38.8004 52.4936 38.8967 52.4744 38.9903C52.4552 39.0839 52.4172 39.173 52.3624 39.2524C52.3076 39.3318 52.2371 39.4 52.1551 39.4531C52.073 39.5062 51.9809 39.5431 51.8841 39.5618C50.9216 39.7616 49.9456 39.895 48.9636 39.9608Z" fill="#BDBDBD"/>
<path d="M57.8283 53.8688C57.326 53.8695 56.8272 53.7876 56.3533 53.6265C55.6097 53.3188 54.9677 52.8199 54.497 52.1843C54.0263 51.5487 53.745 50.8006 53.6836 50.0213C53.1029 46.4157 53.0781 42.7469 53.6098 39.1343C53.6269 39.0199 53.6719 38.9112 53.7412 38.817C53.8104 38.7228 53.9019 38.6459 54.0081 38.5928C54.1144 38.5366 54.2336 38.5072 54.3547 38.5072C54.4758 38.5072 54.595 38.5366 54.7013 38.5928C55.0528 38.791 55.466 38.8618 55.8666 38.7923C56.2144 38.7097 56.5157 38.5004 56.7073 38.208C56.8062 38.0468 56.9647 37.9277 57.1508 37.8748C57.3369 37.822 57.5368 37.8392 57.7103 37.923C57.8787 38.0135 58.0047 38.163 58.0624 38.3407C58.12 38.5183 58.1049 38.7106 58.0201 38.8778C57.6316 39.5051 57.0085 39.9642 56.2796 40.1603C55.839 40.267 55.3779 40.267 54.9373 40.1603C54.5599 43.3415 54.6244 46.5573 55.1291 49.722C55.1443 50.2525 55.3125 50.7684 55.6148 51.2115C55.9171 51.6546 56.3415 52.0073 56.8401 52.23C58.6543 52.857 61.4568 51.432 62.5631 50.5343C64.2151 49.1093 65.5131 45.0623 66.1031 41.685C66.5456 38.6925 64.6281 34.4318 64.6281 34.389C64.5677 34.2355 64.5641 34.0665 64.6179 33.9107C64.6716 33.7549 64.7795 33.6219 64.9231 33.534C65.1011 33.4569 65.3035 33.4511 65.486 33.5179C65.6685 33.5846 65.8161 33.7186 65.8966 33.8903C65.9851 34.0898 68.0353 38.5785 67.5191 41.9843C67.1208 44.706 65.8081 49.8075 63.4923 51.7028C61.8901 52.9872 59.9064 53.7458 57.8283 53.8688Z" fill="#BDBDBD"/>
<path d="M54.0081 37.6528C53.8214 37.6529 53.6419 37.5833 53.5072 37.4585C53.3725 37.3336 53.293 37.1632 53.2853 36.983C53.1264 35.1155 53.2356 33.2357 53.6098 31.397C53.6908 31.2251 53.8366 31.0896 54.0176 31.0181C54.1985 30.9466 54.4009 30.9445 54.5833 31.0123C54.7611 31.0903 54.9005 31.2321 54.9721 31.4076C55.0436 31.5831 55.0418 31.7786 54.9668 31.9528C54.6832 33.5907 54.6039 35.2556 54.7308 36.9118C54.7368 37.0047 54.7235 37.0978 54.6917 37.1856C54.6599 37.2734 54.6103 37.3542 54.5457 37.4233C54.4811 37.4923 54.4029 37.5482 54.3156 37.5876C54.2284 37.627 54.1338 37.6492 54.0376 37.6528H54.0081Z" fill="#BDBDBD"/>
<path d="M56.6778 35.0594C56.5449 35.0613 56.4139 35.0278 56.2994 34.9624C56.1849 34.897 56.0913 34.8024 56.0288 34.6889C55.9384 34.522 55.9186 34.3276 55.9736 34.1468C56.0287 33.966 56.1542 33.813 56.3238 33.7199C57.6538 33.03 58.9218 32.2339 60.1146 31.3402C60.2593 31.2117 60.451 31.144 60.6474 31.152C60.8438 31.16 61.0288 31.2431 61.1618 31.3829C61.2949 31.5228 61.3649 31.7079 61.3566 31.8977C61.3483 32.0874 61.2623 32.2662 61.1176 32.3947C59.8362 33.3638 58.469 34.2221 57.0318 34.9597C56.9238 35.0197 56.8024 35.0539 56.6778 35.0594Z" fill="#BDBDBD"/>
<path d="M60.1146 36.3842H59.9966C59.9011 36.3704 59.8095 36.3382 59.7271 36.2897C59.6446 36.2411 59.5731 36.1771 59.5168 36.1013C59.4604 36.0256 59.4203 35.9398 59.3988 35.8489C59.3774 35.7579 59.375 35.6638 59.3918 35.5719C59.3781 35.2729 59.3286 34.9764 59.2443 34.6884C59.1874 34.4821 59.1431 34.2728 59.1116 34.0614C59.0413 33.2432 59.2428 32.4245 59.6868 31.7244C59.7413 31.6478 59.8112 31.5825 59.8921 31.5324C59.9731 31.4822 60.0637 31.4481 60.1585 31.4322C60.2533 31.4163 60.3504 31.4188 60.4442 31.4396C60.538 31.4604 60.6265 31.4991 60.7046 31.5534C60.785 31.605 60.8539 31.6716 60.9073 31.7493C60.9606 31.8271 60.9973 31.9143 61.0152 32.006C61.0331 32.0976 61.0318 32.1918 61.0114 32.2829C60.9909 32.3741 60.9518 32.4604 60.8963 32.5367C60.6424 32.9691 60.5342 33.4671 60.5866 33.9617C60.6 34.1115 60.6297 34.2596 60.6751 34.4034C60.8225 34.8641 60.8776 35.3478 60.8373 35.8284C60.8004 35.9867 60.7086 36.1281 60.5772 36.2292C60.4457 36.3302 60.2825 36.3849 60.1146 36.3842Z" fill="#BDBDBD"/>
<path d="M60.2916 39.5475C60.1947 39.5588 60.0965 39.5515 60.0026 39.526C59.9087 39.5006 59.8209 39.4575 59.7442 39.3993C59.6675 39.3411 59.6034 39.2688 59.5556 39.1867C59.5078 39.1045 59.4772 39.0141 59.4656 38.9205C59.454 38.827 59.4615 38.7321 59.4879 38.6414C59.5142 38.5506 59.5588 38.4658 59.619 38.3917C59.6793 38.3176 59.7541 38.2557 59.8391 38.2095C59.9241 38.1633 60.0177 38.1338 60.1146 38.1225C60.5085 38.0244 60.8728 37.8377 61.1779 37.5777C61.4829 37.3177 61.72 36.9917 61.8698 36.6263C61.9171 36.4147 61.9516 36.2005 61.9731 35.985C61.971 35.599 62.0481 35.2163 62.2 34.8592C62.3519 34.5021 62.5756 34.1776 62.8581 33.9045C63.6546 33.3203 64.8198 33.7335 65.4541 33.9045H65.6016C65.7972 33.9045 65.9848 33.9796 66.1231 34.1132C66.2614 34.2468 66.3391 34.4281 66.3391 34.617C66.3391 34.806 66.2614 34.9872 66.1231 35.1208C65.9848 35.2545 65.7972 35.3295 65.6016 35.3295C65.382 35.344 65.1625 35.2997 64.9673 35.2013C64.1118 34.902 63.8463 34.9163 63.7578 34.959C63.5902 35.3133 63.495 35.6956 63.4776 36.0848C63.4484 36.3877 63.3941 36.6879 63.3153 36.9825C63.0915 37.5815 62.7189 38.1182 62.2303 38.5455C61.7417 38.9728 61.1519 39.2778 60.5128 39.4335L60.2916 39.5475Z" fill="#BDBDBD"/>
<path d="M66.6636 43.3664C66.5678 43.3702 66.4723 43.3544 66.3833 43.32C66.2944 43.2857 66.2139 43.2334 66.1473 43.1669C66.1473 43.1669 65.6311 42.6824 64.3331 41.4854C64.2242 41.3685 64.0893 41.2771 63.9386 41.2178C63.7879 41.1586 63.6252 41.1331 63.4628 41.1434C62.7296 41.312 62.091 41.7454 61.6781 42.3546C61.5564 42.5014 61.3796 42.5958 61.1861 42.6171C60.9927 42.6385 60.7984 42.5851 60.6456 42.4686C60.4914 42.3531 60.3908 42.1833 60.3659 41.9963C60.3411 41.8094 60.3939 41.6205 60.5128 41.4711C61.1847 40.5464 62.2082 39.9162 63.3596 39.7184C63.7225 39.695 64.0864 39.7465 64.4271 39.8693C64.7679 39.9922 65.0777 40.1836 65.3361 40.4309C66.7226 41.6706 67.2241 42.1551 67.2241 42.1551C67.2932 42.2213 67.3481 42.3001 67.3855 42.387C67.423 42.4738 67.4422 42.5669 67.4422 42.661C67.4422 42.755 67.423 42.8482 67.3855 42.935C67.3481 43.0218 67.2932 43.1006 67.2241 43.1669C67.1492 43.2346 67.061 43.2872 66.9648 43.3215C66.8685 43.3558 66.7661 43.371 66.6636 43.3664Z" fill="#BDBDBD"/>
<path d="M62.2976 47.4136C62.1625 47.4164 62.0294 47.3818 61.9141 47.3139C61.3795 46.9053 60.9077 46.4256 60.5128 45.8889C60.0309 45.2997 59.5138 44.7383 58.9641 44.2074C58.6286 43.8493 58.1997 43.585 57.7222 43.4421C57.2447 43.2992 56.7363 43.283 56.2501 43.3951C55.5709 43.5308 54.9343 43.8188 54.3916 44.2359C54.241 44.3568 54.0468 44.415 53.8518 44.3976C53.6568 44.3802 53.4769 44.2887 53.3517 44.1432C53.2265 43.9977 53.1663 43.8101 53.1843 43.6217C53.2023 43.4333 53.297 43.2595 53.4476 43.1386C54.1925 42.5656 55.0667 42.1701 55.9993 41.9844C56.7125 41.8386 57.4523 41.8707 58.1491 42.0776C58.8458 42.2845 59.4766 42.6595 59.9818 43.1671C60.5745 43.7224 61.1311 44.3126 61.6486 44.9341C61.9658 45.3361 62.3108 45.717 62.6811 46.0741C62.8137 46.1568 62.9154 46.2784 62.9711 46.421C63.0269 46.5637 63.0338 46.7198 62.9909 46.8665C62.948 47.0133 62.8575 47.1428 62.7327 47.2362C62.6079 47.3295 62.4554 47.3817 62.2976 47.3851V47.4136Z" fill="#BDBDBD"/>
<path d="M61.3831 51.3325C60.8421 51.4058 60.2907 51.3507 59.7767 51.1719C59.2627 50.9932 58.8016 50.6961 58.4331 50.3065C57.8726 49.5085 57.9611 48.3827 58.7133 46.858C58.7965 46.6888 58.9453 46.5581 59.1275 46.4941C59.3096 46.4301 59.5106 46.4379 59.6868 46.516C59.7754 46.5557 59.8549 46.6121 59.9207 46.6818C59.9866 46.7514 60.0374 46.8331 60.0704 46.9219C60.1033 47.0107 60.1177 47.1049 60.1126 47.1992C60.1075 47.2934 60.0831 47.3857 60.0408 47.4707C59.3623 48.8957 59.5393 49.3375 59.6426 49.4942C60.0261 50.0357 61.7371 49.9075 62.8728 49.822H63.5956C63.6924 49.8164 63.7895 49.8292 63.8812 49.8599C63.9729 49.8905 64.0574 49.9382 64.13 50.0004C64.2026 50.0626 64.2618 50.138 64.3042 50.2223C64.3467 50.3066 64.3715 50.3982 64.3773 50.4917C64.3831 50.5853 64.3698 50.6791 64.3381 50.7676C64.3064 50.8562 64.257 50.9379 64.1926 51.0081C64.1282 51.0782 64.0502 51.1354 63.9629 51.1764C63.8757 51.2174 63.7809 51.2414 63.6841 51.247H62.9908C62.4598 51.2897 61.8993 51.3325 61.3831 51.3325Z" fill="#BDBDBD"/>
<path d="M54.5391 51.3325C54.3935 51.3297 54.2512 51.2905 54.1261 51.2185C53.9634 51.1114 53.8507 50.947 53.8121 50.7605C53.7735 50.574 53.8121 50.3804 53.9196 50.221C54.6244 49.1826 55.4957 48.2591 56.5008 47.485C56.6651 47.3811 56.8654 47.3445 57.0577 47.3832C57.2499 47.422 57.4184 47.5329 57.526 47.6917C57.6335 47.8504 57.6714 48.0439 57.6313 48.2297C57.5912 48.4154 57.4764 48.5781 57.3121 48.682C56.4663 49.3415 55.7387 50.1311 55.1586 51.019C55.0884 51.115 54.9957 51.1935 54.888 51.248C54.7803 51.3025 54.6607 51.3315 54.5391 51.3325Z" fill="#BDBDBD"/>
<path d="M46.1758 58.5573C43.1823 58.454 40.347 57.2324 38.2671 55.1499C36.1871 53.0674 35.0248 50.2863 35.0248 47.3924C35.0248 44.4985 36.1871 41.7175 38.2671 39.6349C40.347 37.5524 43.1823 36.3309 46.1758 36.2275C46.3714 36.2275 46.559 36.3026 46.6973 36.4362C46.8356 36.5698 46.9133 36.7511 46.9133 36.94C46.9133 37.129 46.8356 37.3102 46.6973 37.4439C46.559 37.5775 46.3714 37.6525 46.1758 37.6525C44.5877 37.649 43.335 37.985 41.9174 38.6768C40.4998 39.3687 39.2713 40.374 38.3318 41.6111C37.3923 42.8482 36.7684 44.2822 36.5109 45.7962C36.2533 47.3102 36.3694 48.8616 36.8496 50.3242C37.3299 51.7867 38.1607 53.119 39.2745 54.2127C40.3884 55.3065 41.7538 56.1307 43.2596 56.6184C44.7654 57.1061 46.3692 57.2434 47.9403 57.0193C49.5114 56.7951 50.6917 56.2384 51.9873 55.351C52.0666 55.2964 52.1563 55.2574 52.2512 55.2364C52.3462 55.2154 52.4445 55.2128 52.5405 55.2287C52.6365 55.2446 52.7283 55.2787 52.8105 55.329C52.8928 55.3794 52.964 55.445 53.0198 55.522C53.1303 55.6779 53.1736 55.8692 53.1406 56.0554C53.1076 56.2417 53.0008 56.4081 52.8428 56.5195C50.891 57.8464 48.5624 58.5581 46.1758 58.5573Z" fill="#BDBDBD"/>
<path d="M49.6863 77.5521H43.7863C42.3278 77.5415 40.9032 77.1262 39.682 76.3557C38.4608 75.5851 37.4945 74.4918 36.8981 73.2059L33.5793 65.9954C33.4442 65.6915 33.3745 65.3642 33.3745 65.0335C33.3745 64.7028 33.4442 64.3755 33.5793 64.0716C33.7154 63.7633 33.9171 63.486 34.1712 63.2577C34.4253 63.0294 34.7261 62.8552 35.0543 62.7464C42.6568 59.9608 51.0519 59.9608 58.6543 62.7464C58.981 62.8543 59.2809 63.0266 59.535 63.2523C59.7892 63.4781 59.992 63.7524 60.1307 64.0578C60.2693 64.3633 60.3408 64.6932 60.3406 65.0267C60.3404 65.3603 60.2684 65.6901 60.1293 65.9954L56.8106 73.2059C56.1996 74.5287 55.1971 75.6473 53.9294 76.4208C52.6616 77.1942 51.1853 77.5878 49.6863 77.5521ZM46.7658 62.0339C42.9157 62.0372 39.098 62.713 35.4968 64.0289C35.3636 64.077 35.2421 64.1512 35.14 64.2468C35.0378 64.3424 34.9572 64.4573 34.9032 64.5844C34.8492 64.7115 34.823 64.848 34.8261 64.9854C34.8293 65.1227 34.8618 65.258 34.9216 65.3826L38.2403 72.5789C38.7245 73.6236 39.5115 74.5106 40.5061 75.1327C41.5007 75.7547 42.6605 76.0853 43.8453 76.0844H49.7453C50.9302 76.0853 52.09 75.7547 53.0846 75.1327C54.0792 74.5106 54.8661 73.6236 55.3503 72.5789L58.6691 65.3826C58.7289 65.258 58.7614 65.1227 58.7645 64.9854C58.7677 64.848 58.7414 64.7115 58.6874 64.5844C58.6334 64.4573 58.5528 64.3424 58.4507 64.2468C58.3485 64.1512 58.227 64.077 58.0938 64.0289C54.4745 62.705 50.6359 62.029 46.7658 62.0339Z" fill="#BDBDBD"/>
</svg>
