<!-- <svg width="24" height="24" viewBox="0 0 24 24" fill="none" xmlns="http://www.w3.org/2000/svg">
<path fill-rule="evenodd" clip-rule="evenodd" d="M8.00114 3.47186C9.03273 2.59927 10.4471 2.13379 11.9974 2.13379C13.5527 2.13379 14.9673 2.59918 15.9977 3.47197C17.0326 4.34852 17.664 5.62344 17.664 7.20046C17.664 8.48644 17.0832 9.33545 16.4923 10.1991C16.4179 10.3078 16.3433 10.4168 16.2697 10.5269C15.6115 11.512 14.9654 12.6603 14.9654 14.6991C14.9654 14.8464 14.846 14.9658 14.6987 14.9658C14.5514 14.9658 14.432 14.8464 14.432 14.6991C14.432 12.5166 15.1352 11.2649 15.8263 10.2306C15.9028 10.1162 15.9782 10.0053 16.0521 9.89694C16.6458 9.02501 17.1307 8.31289 17.1307 7.20046C17.1307 5.77748 16.5661 4.65239 15.653 3.87894C14.7354 3.10173 13.45 2.66712 11.9974 2.66712C10.5502 2.66712 9.26465 3.10164 8.34557 3.87905C7.43093 4.65271 6.86402 5.77787 6.86402 7.20046C6.86402 8.31704 7.35272 9.03962 7.94894 9.92118C8.02088 10.0275 8.09439 10.1362 8.16879 10.2482C8.85917 11.2872 9.56269 12.5388 9.56269 14.6991C9.56269 14.8464 9.4433 14.9658 9.29602 14.9658C9.14875 14.9658 9.02936 14.8464 9.02936 14.6991C9.02936 12.6834 8.38354 11.5351 7.72458 10.5434C7.65257 10.435 7.57964 10.3277 7.50684 10.2205C6.91414 9.3482 6.33069 8.48948 6.33069 7.20046C6.33069 5.62305 6.96511 4.3482 8.00114 3.47186Z" fill="#333333"/>
<path fill-rule="evenodd" clip-rule="evenodd" d="M8.1333 16.2003C8.1333 16.053 8.25269 15.9336 8.39997 15.9336H15.6C15.7472 15.9336 15.8666 16.053 15.8666 16.2003C15.8666 16.3475 15.7472 16.4669 15.6 16.4669H8.39997C8.25269 16.4669 8.1333 16.3475 8.1333 16.2003Z" fill="#333333"/>
<path fill-rule="evenodd" clip-rule="evenodd" d="M8.1333 18.0001C8.1333 17.8528 8.25269 17.7334 8.39997 17.7334H15.6C15.7472 17.7334 15.8666 17.8528 15.8666 18.0001C15.8666 18.1473 15.7472 18.2667 15.6 18.2667H8.39997C8.25269 18.2667 8.1333 18.1473 8.1333 18.0001Z" fill="#333333"/>
<path fill-rule="evenodd" clip-rule="evenodd" d="M8.1333 19.7999C8.1333 19.6526 8.25269 19.5332 8.39997 19.5332H15.6C15.7472 19.5332 15.8666 19.6526 15.8666 19.7999C15.8666 19.9471 15.7472 20.0665 15.6 20.0665H8.39997C8.25269 20.0665 8.1333 19.9471 8.1333 19.7999Z" fill="#333333"/>
<path fill-rule="evenodd" clip-rule="evenodd" d="M9.93335 21.5997C9.93335 21.4524 10.0527 21.333 10.2 21.333H13.8C13.9473 21.333 14.0667 21.4524 14.0667 21.5997C14.0667 21.7469 13.9473 21.8663 13.8 21.8663H10.2C10.0527 21.8663 9.93335 21.7469 9.93335 21.5997Z" fill="#333333"/>
</svg> -->

<svg width="24" height="24" viewBox="0 0 24 24" fill="none" xmlns="http://www.w3.org/2000/svg">
<path fill-rule="evenodd" clip-rule="evenodd" d="M8.00114 3.47186C9.03273 2.59927 10.4471 2.13379 11.9974 2.13379C13.5527 2.13379 14.9673 2.59918 15.9977 3.47197C17.0326 4.34852 17.664 5.62344 17.664 7.20046C17.664 8.48644 17.0832 9.33545 16.4923 10.1991C16.4179 10.3078 16.3433 10.4168 16.2697 10.5269C15.6115 11.512 14.9654 12.6603 14.9654 14.6991C14.9654 14.8464 14.846 14.9658 14.6987 14.9658C14.5514 14.9658 14.432 14.8464 14.432 14.6991C14.432 12.5166 15.1352 11.2649 15.8263 10.2306C15.9028 10.1162 15.9782 10.0053 16.0521 9.89694C16.6458 9.02501 17.1307 8.31289 17.1307 7.20046C17.1307 5.77748 16.5661 4.65239 15.653 3.87894C14.7354 3.10173 13.45 2.66712 11.9974 2.66712C10.5502 2.66712 9.26465 3.10164 8.34557 3.87905C7.43093 4.65271 6.86402 5.77787 6.86402 7.20046C6.86402 8.31704 7.35272 9.03962 7.94894 9.92118C8.02088 10.0275 8.09439 10.1362 8.16879 10.2482C8.85917 11.2872 9.56269 12.5388 9.56269 14.6991C9.56269 14.8464 9.4433 14.9658 9.29602 14.9658C9.14875 14.9658 9.02936 14.8464 9.02936 14.6991C9.02936 12.6834 8.38354 11.5351 7.72458 10.5434C7.65257 10.435 7.57964 10.3277 7.50684 10.2205C6.91414 9.3482 6.33069 8.48948 6.33069 7.20046C6.33069 5.62305 6.96511 4.3482 8.00114 3.47186Z" fill="#333333" stroke="#333333" stroke-width="0.5" stroke-miterlimit="10" stroke-linecap="round" stroke-linejoin="round"/>
<path fill-rule="evenodd" clip-rule="evenodd" d="M8.1333 16.2003C8.1333 16.053 8.25269 15.9336 8.39997 15.9336H15.6C15.7472 15.9336 15.8666 16.053 15.8666 16.2003C15.8666 16.3475 15.7472 16.4669 15.6 16.4669H8.39997C8.25269 16.4669 8.1333 16.3475 8.1333 16.2003Z" fill="#333333" stroke="#333333" stroke-width="0.5" stroke-miterlimit="10" stroke-linecap="round" stroke-linejoin="round"/>
<path fill-rule="evenodd" clip-rule="evenodd" d="M8.1333 18.0001C8.1333 17.8528 8.25269 17.7334 8.39997 17.7334H15.6C15.7472 17.7334 15.8666 17.8528 15.8666 18.0001C15.8666 18.1473 15.7472 18.2667 15.6 18.2667H8.39997C8.25269 18.2667 8.1333 18.1473 8.1333 18.0001Z" fill="#333333" stroke="#333333" stroke-width="0.5" stroke-miterlimit="10" stroke-linecap="round" stroke-linejoin="round"/>
<path fill-rule="evenodd" clip-rule="evenodd" d="M8.1333 19.7999C8.1333 19.6526 8.25269 19.5332 8.39997 19.5332H15.6C15.7472 19.5332 15.8666 19.6526 15.8666 19.7999C15.8666 19.9471 15.7472 20.0665 15.6 20.0665H8.39997C8.25269 20.0665 8.1333 19.9471 8.1333 19.7999Z" fill="#333333" stroke="#333333" stroke-width="0.5" stroke-miterlimit="10" stroke-linecap="round" stroke-linejoin="round"/>
<path fill-rule="evenodd" clip-rule="evenodd" d="M9.93335 21.5997C9.93335 21.4524 10.0527 21.333 10.2 21.333H13.8C13.9473 21.333 14.0667 21.4524 14.0667 21.5997C14.0667 21.7469 13.9473 21.8663 13.8 21.8663H10.2C10.0527 21.8663 9.93335 21.7469 9.93335 21.5997Z" fill="#333333" stroke="#333333" stroke-width="0.5" stroke-miterlimit="10" stroke-linecap="round" stroke-linejoin="round"/>
</svg>
