<svg width="40" height="41" viewBox="0 0 40 41" fill="none" xmlns="http://www.w3.org/2000/svg">
<path fill-rule="evenodd" clip-rule="evenodd" d="M13.3352 5.84571C15.0545 4.3914 17.4119 3.6156 19.9956 3.6156C22.5879 3.6156 24.9454 4.39125 26.6628 5.84591C28.3876 7.30682 29.44 9.43168 29.44 12.06C29.44 14.2034 28.4719 15.6184 27.4871 17.0578L27.4869 17.0582L27.4868 17.0583L27.4867 17.0585L27.4863 17.059C27.3626 17.2398 27.2386 17.4211 27.1162 17.6042C26.0192 19.2459 24.9422 21.1599 24.9422 24.5578C24.9422 24.8033 24.7432 25.0023 24.4978 25.0023C24.2523 25.0023 24.0533 24.8033 24.0533 24.5578C24.0533 20.9202 25.2252 18.8342 26.3771 17.1103C26.5044 16.9199 26.6301 16.7354 26.7529 16.5549L26.7533 16.5543L26.7534 16.5542L26.7534 16.5542C27.7429 15.101 28.5511 13.9141 28.5511 12.06C28.5511 9.68841 27.6102 7.81327 26.0883 6.52418C24.559 5.22884 22.4166 4.50449 19.9956 4.50449C17.5837 4.50449 15.4411 5.22869 13.9093 6.52438C12.3849 7.81381 11.44 9.68906 11.44 12.06C11.44 13.921 12.2545 15.1253 13.2482 16.5946L13.2482 16.5946C13.3681 16.7719 13.4906 16.953 13.6146 17.1396C14.7653 18.8713 15.9378 20.9573 15.9378 24.5578C15.9378 24.8033 15.7388 25.0023 15.4933 25.0023C15.2479 25.0023 15.0489 24.8033 15.0489 24.5578C15.0489 21.1984 13.9725 19.2844 12.8743 17.6316C12.7543 17.451 12.6327 17.2721 12.5114 17.0935L12.5114 17.0935C11.5235 15.6396 10.5511 14.2084 10.5511 12.06C10.5511 9.43103 11.6085 7.30628 13.3352 5.84571ZM13.5556 27.0601C13.5556 26.8146 13.7545 26.6156 14 26.6156H26C26.2455 26.6156 26.4444 26.8146 26.4444 27.0601C26.4444 27.3055 26.2455 27.5045 26 27.5045H14C13.7545 27.5045 13.5556 27.3055 13.5556 27.0601ZM14 29.6157C13.7545 29.6157 13.5556 29.8147 13.5556 30.0601C13.5556 30.3056 13.7545 30.5046 14 30.5046H26C26.2455 30.5046 26.4444 30.3056 26.4444 30.0601C26.4444 29.8147 26.2455 29.6157 26 29.6157H14ZM13.5556 33.06C13.5556 32.8146 13.7545 32.6156 14 32.6156H26C26.2455 32.6156 26.4444 32.8146 26.4444 33.06C26.4444 33.3055 26.2455 33.5045 26 33.5045H14C13.7545 33.5045 13.5556 33.3055 13.5556 33.06ZM17 35.6156C16.7545 35.6156 16.5556 35.8146 16.5556 36.0601C16.5556 36.3055 16.7545 36.5045 17 36.5045H23C23.2455 36.5045 23.4444 36.3055 23.4444 36.0601C23.4444 35.8146 23.2455 35.6156 23 35.6156H17Z" fill="#333333"/>
</svg>
