<!-- <svg width="24" height="24" viewBox="0 0 24 24" fill="none" xmlns="http://www.w3.org/2000/svg">
<path fill-rule="evenodd" clip-rule="evenodd" d="M3.82983 20.2205V9.49707H4.18728V20.0417H20.2724V9.49707H20.6298V20.2205C20.6298 20.3192 20.5498 20.3992 20.4511 20.3992H4.00856C3.90985 20.3992 3.82983 20.3192 3.82983 20.2205Z" fill="#333333" stroke="#333333" stroke-width="0.1" stroke-linejoin="round"/>
<path fill-rule="evenodd" clip-rule="evenodd" d="M5.30475 3.6596C5.33866 3.62144 5.38727 3.59961 5.43833 3.59961H19.3787C19.4339 3.59961 19.486 3.62507 19.5198 3.66861L22.022 6.88563C22.0639 6.93951 22.0714 7.01256 22.0414 7.07388C22.0114 7.1352 21.9491 7.17408 21.8809 7.17408H2.57875C2.50837 7.17408 2.44454 7.13277 2.41571 7.06857C2.38688 7.00437 2.39841 6.92922 2.44517 6.87662L5.30475 3.6596ZM5.51858 3.95706L2.97674 6.81663H21.5155L19.2913 3.95706H5.51858Z" fill="#333333" stroke="#333333" stroke-width="0.1"/>
<path fill-rule="evenodd" clip-rule="evenodd" d="M2.40002 8.27171L2.40002 6.99512H2.75747V8.27171C2.75747 8.44711 2.89619 8.70663 3.20469 8.93238C3.50483 9.15202 3.94085 9.31852 4.4711 9.31852H7.12043C7.59074 9.31852 8.02828 9.14903 8.34709 8.9226C8.50625 8.80955 8.63136 8.68544 8.71513 8.56688C8.80057 8.44596 8.83407 8.34391 8.83407 8.27171V6.99512H9.19151V8.27171C9.19151 8.44462 9.11646 8.61832 9.00706 8.77314C8.896 8.93033 8.74001 9.08196 8.55407 9.21402C8.18268 9.4778 7.67404 9.67597 7.12043 9.67597H4.4711C3.86595 9.67597 3.35579 9.48589 2.9936 9.22084C2.63978 8.96192 2.40002 8.60867 2.40002 8.27171Z" fill="#333333" stroke="#333333" stroke-width="0.1"/>
<path fill-rule="evenodd" clip-rule="evenodd" d="M8.83411 8.27171L8.83411 6.99512H9.19155V8.27171C9.19155 8.44711 9.33027 8.70663 9.63877 8.93238C9.93891 9.15202 10.3749 9.31852 10.9052 9.31852H13.5545C14.0248 9.31852 14.4624 9.14903 14.7812 8.9226C14.9403 8.80955 15.0654 8.68544 15.1492 8.56688C15.2346 8.44596 15.2681 8.34391 15.2681 8.27171V6.99512H15.6256V8.27171C15.6256 8.44462 15.5505 8.61832 15.4411 8.77314C15.3301 8.93033 15.1741 9.08196 14.9881 9.21402C14.6168 9.4778 14.1081 9.67597 13.5545 9.67597H10.9052C10.3 9.67597 9.78987 9.48589 9.42768 9.22084C9.07386 8.96192 8.83411 8.60867 8.83411 8.27171Z" fill="#333333" stroke="#333333" stroke-width="0.1"/>
<path fill-rule="evenodd" clip-rule="evenodd" d="M15.2681 8.27171L15.2681 6.99512H15.6255V8.27171C15.6255 8.44711 15.7642 8.70663 16.0727 8.93238C16.3729 9.15202 16.8089 9.31852 17.3391 9.31852H19.9885C20.4588 9.31852 20.8963 9.14903 21.2151 8.9226C21.3743 8.80955 21.4994 8.68544 21.5832 8.56688C21.6686 8.44596 21.7021 8.34391 21.7021 8.27171V6.99512H22.0596V8.27171C22.0596 8.44462 21.9845 8.61832 21.8751 8.77314C21.764 8.93033 21.6081 9.08196 21.4221 9.21402C21.0507 9.4778 20.5421 9.67597 19.9885 9.67597H17.3391C16.734 9.67597 16.2238 9.48589 15.8616 9.22084C15.5078 8.96192 15.2681 8.60867 15.2681 8.27171Z" fill="#333333" stroke="#333333" stroke-width="0.1"/>
<path d="M12.5873 12.6648C12.3623 12.6648 12.1799 12.8473 12.1799 13.0723V15.9319C12.1799 16.1569 12.3623 16.3393 12.5873 16.3393H18.3065C18.5315 16.3393 18.7139 16.1569 18.7139 15.9319V13.0723C18.7139 12.8473 18.5315 12.6648 18.3065 12.6648H12.5873ZM18.2565 15.8819H12.6373V13.1223H18.2565V15.8819Z" fill="#333333" stroke="#333333" stroke-width="0.1" stroke-linecap="round" stroke-linejoin="round"/>
<path d="M10.6969 12.1787C10.6969 12.0524 10.5944 11.95 10.4681 11.95L6.17876 11.95C6.05244 11.95 5.95004 12.0524 5.95004 12.1787L5.95004 20.0426C5.95004 20.1689 6.05244 20.2713 6.17876 20.2713C6.30508 20.2713 6.40749 20.1689 6.40749 20.0426L6.40749 12.4074L10.2394 12.4074L10.2394 20.0426C10.2394 20.1689 10.3418 20.2713 10.4681 20.2713C10.5944 20.2713 10.6969 20.1689 10.6969 20.0426L10.6969 12.1787Z" fill="#333333" stroke="#333333" stroke-width="0.1" stroke-linecap="round" stroke-linejoin="round"/>
<path fill-rule="evenodd" clip-rule="evenodd" d="M9.37025 14.6807C9.46896 14.6807 9.54898 14.7607 9.54898 14.8594V16.2892C9.54898 16.3879 9.46896 16.4679 9.37025 16.4679C9.27155 16.4679 9.19153 16.3879 9.19153 16.2892V14.8594C9.19153 14.7607 9.27155 14.6807 9.37025 14.6807Z" fill="#333333" stroke="#333333" stroke-width="0.1"/>
<path d="M9 7L10 4" stroke="#333333" stroke-width="0.5" stroke-linecap="round"/>
<path d="M15.5 7L14.5 4" stroke="#333333" stroke-width="0.5" stroke-linecap="round"/>
</svg> -->

<svg width="21" height="18" viewBox="0 0 21 18" fill="none" xmlns="http://www.w3.org/2000/svg">
<path fill-rule="evenodd" clip-rule="evenodd" d="M1.82983 17.2205V6.49707H2.18728V17.0417H18.2724V6.49707H18.6298V17.2205C18.6298 17.3192 18.5498 17.3992 18.4511 17.3992H2.00856C1.90985 17.3992 1.82983 17.3192 1.82983 17.2205Z" fill="#333333" stroke="#333333" stroke-width="0.5" stroke-linejoin="round"/>
<path fill-rule="evenodd" clip-rule="evenodd" d="M3.30475 0.659595C3.33866 0.62144 3.38727 0.599609 3.43833 0.599609H17.3787C17.4339 0.599609 17.486 0.625073 17.5198 0.668607L20.022 3.88563C20.0639 3.93951 20.0714 4.01256 20.0414 4.07388C20.0114 4.1352 19.9491 4.17408 19.8809 4.17408H0.578751C0.508371 4.17408 0.444544 4.13277 0.415712 4.06857C0.386881 4.00437 0.398414 3.92922 0.445171 3.87662L3.30475 0.659595ZM3.51858 0.957056L0.97674 3.81663H19.5155L17.2913 0.957056H3.51858Z" fill="#333333" stroke="#333333" stroke-width="0.5"/>
<path fill-rule="evenodd" clip-rule="evenodd" d="M0.400024 5.27171L0.400024 3.99512H0.757471V5.27171C0.757471 5.44711 0.896187 5.70663 1.20469 5.93238C1.50483 6.15202 1.94085 6.31852 2.4711 6.31852H5.12043C5.59074 6.31852 6.02828 6.14903 6.34709 5.9226C6.50625 5.80955 6.63136 5.68544 6.71513 5.56688C6.80057 5.44596 6.83407 5.34391 6.83407 5.27171V3.99512H7.19151V5.27171C7.19151 5.44462 7.11646 5.61832 7.00706 5.77314C6.896 5.93033 6.74001 6.08196 6.55407 6.21402C6.18268 6.4778 5.67404 6.67597 5.12043 6.67597H2.4711C1.86595 6.67597 1.35579 6.48589 0.993601 6.22084C0.63978 5.96192 0.400024 5.60867 0.400024 5.27171Z" fill="#333333" stroke="#333333" stroke-width="0.4"/>
<path fill-rule="evenodd" clip-rule="evenodd" d="M6.83411 5.27171L6.83411 3.99512H7.19155V5.27171C7.19155 5.44711 7.33027 5.70663 7.63877 5.93238C7.93891 6.15202 8.37493 6.31852 8.90519 6.31852H11.5545C12.0248 6.31852 12.4624 6.14903 12.7812 5.9226C12.9403 5.80955 13.0654 5.68544 13.1492 5.56688C13.2346 5.44596 13.2681 5.34391 13.2681 5.27171V3.99512H13.6256V5.27171C13.6256 5.44462 13.5505 5.61832 13.4411 5.77314C13.3301 5.93033 13.1741 6.08196 12.9881 6.21402C12.6168 6.4778 12.1081 6.67597 11.5545 6.67597H8.90519C8.30003 6.67597 7.78987 6.48589 7.42768 6.22084C7.07386 5.96192 6.83411 5.60867 6.83411 5.27171Z" fill="#333333" stroke="#333333" stroke-width="0.4"/>
<path fill-rule="evenodd" clip-rule="evenodd" d="M13.2681 5.27171L13.2681 3.99512H13.6255V5.27171C13.6255 5.44711 13.7642 5.70663 14.0727 5.93238C14.3729 6.15202 14.8089 6.31852 15.3391 6.31852H17.9885C18.4588 6.31852 18.8963 6.14903 19.2151 5.9226C19.3743 5.80955 19.4994 5.68544 19.5832 5.56688C19.6686 5.44596 19.7021 5.34391 19.7021 5.27171V3.99512H20.0596V5.27171C20.0596 5.44462 19.9845 5.61832 19.8751 5.77314C19.764 5.93033 19.6081 6.08196 19.4221 6.21402C19.0507 6.4778 18.5421 6.67597 17.9885 6.67597H15.3391C14.734 6.67597 14.2238 6.48589 13.8616 6.22084C13.5078 5.96192 13.2681 5.60867 13.2681 5.27171Z" fill="#333333" stroke="#333333" stroke-width="0.4"/>
<path fill-rule="evenodd" clip-rule="evenodd" d="M10.2299 10.0723C10.2299 9.87488 10.3899 9.71484 10.5873 9.71484H16.3065C16.5039 9.71484 16.6639 9.87488 16.6639 10.0723V12.9319C16.6639 13.1293 16.5039 13.2893 16.3065 13.2893H10.5873C10.3899 13.2893 10.2299 13.1293 10.2299 12.9319V10.0723ZM10.5873 10.0723V12.9319H16.3065V10.0723H10.5873Z" fill="#333333" stroke="#333333" stroke-width="0.5" stroke-linecap="round" stroke-linejoin="round"/>
<path fill-rule="evenodd" clip-rule="evenodd" d="M8.46813 9C8.56683 9 8.64685 9.08002 8.64685 9.17872L8.64685 17.0426C8.64685 17.1413 8.56683 17.2213 8.46813 17.2213C8.36942 17.2213 8.2894 17.1413 8.2894 17.0426L8.2894 9.35745L4.35749 9.35745L4.35749 17.0426C4.35749 17.1413 4.27747 17.2213 4.17876 17.2213C4.08006 17.2213 4.00004 17.1413 4.00004 17.0426L4.00004 9.17872C4.00004 9.08002 4.08006 9 4.17876 9L8.46813 9Z" fill="#333333" stroke="#333333" stroke-width="0.5" stroke-linecap="round" stroke-linejoin="round"/>
<path fill-rule="evenodd" clip-rule="evenodd" d="M7.37025 11.6807C7.46896 11.6807 7.54898 11.7607 7.54898 11.8594V13.2892C7.54898 13.3879 7.46896 13.4679 7.37025 13.4679C7.27155 13.4679 7.19153 13.3879 7.19153 13.2892V11.8594C7.19153 11.7607 7.27155 11.6807 7.37025 11.6807Z" fill="#333333" stroke="#333333" stroke-width="0.4"/>
</svg>
