<!-- <svg width="20" height="22" viewBox="0 0 20 22" fill="none" xmlns="http://www.w3.org/2000/svg">
<path d="M1 17.1633L0.999998 16.8383C0.820506 16.8383 0.675 16.9838 0.675 17.1633H1ZM1 19H0.675V19.325H1V19ZM19 19V19.325H19.325V19H19ZM19 17.1633H19.325C19.325 16.9838 19.1795 16.8383 19 16.8383V17.1633ZM16 11.2857L16.3245 11.3041L16.325 11.2949V11.2857H16ZM12.3333 3.57143L12.0223 3.66552C12.0426 3.73282 12.0842 3.79171 12.1409 3.83334L12.3333 3.57143ZM7.66667 3.57143L7.77873 3.8765C7.88685 3.83678 7.96588 3.7428 7.98644 3.62946L7.66667 3.57143ZM0.675 17.1633V19H1.325V17.1633H0.675ZM1 19.325H19V18.675H1V19.325ZM19.325 19V17.1633H18.675V19H19.325ZM16.325 11.2857C16.325 10.2061 16.3977 8.93892 15.9537 7.58668C15.5047 6.21946 14.5403 4.78956 12.5258 3.30952L12.1409 3.83334C14.0683 5.24937 14.9372 6.57458 15.3361 7.78946C15.7399 9.01933 15.675 10.1613 15.675 11.2857H16.325ZM12.6444 3.47734C12.4849 2.9501 12.3041 2.24834 11.9379 1.69344C11.5517 1.10813 10.955 0.675 10 0.675V1.325C10.7116 1.325 11.115 1.62657 11.3954 2.05146C11.6959 2.50676 11.8484 3.09072 12.0223 3.66552L12.6444 3.47734ZM10 0.675C9.01526 0.675 8.3712 1.26155 7.97597 1.88139C7.58382 2.49639 7.40659 3.18446 7.34689 3.5134L7.98644 3.62946C8.03786 3.34615 8.19396 2.74851 8.52403 2.23086C8.85102 1.71805 9.31807 1.325 10 1.325V0.675ZM7.5546 3.26636C6.06988 3.81177 3.675 5.80091 3.675 11.2857H4.325C4.325 6.01981 6.59679 4.31068 7.77873 3.8765L7.5546 3.26636ZM3.675 11.2857C3.675 14.0528 3.1767 15.4297 2.62248 16.1138C2.08816 16.7733 1.45982 16.8383 0.999998 16.8383L1 17.4883C1.54018 17.4883 2.41184 17.4063 3.12752 16.523C3.8233 15.6642 4.325 14.1023 4.325 11.2857H3.675ZM15.6755 11.2673C15.6185 12.2725 15.7022 13.7884 16.1517 15.067C16.5993 16.3399 17.4585 17.4883 19 17.4883V16.8383C17.8748 16.8383 17.1785 16.0275 16.7649 14.8514C16.3534 13.6809 16.2704 12.2581 16.3245 11.3041L15.6755 11.2673Z" fill="#333333"/>
<path d="M12 19C12 20.1046 11.1046 21 10 21C8.89543 21 8 20.1046 8 19" stroke="#333333" stroke-width="0.65"/>
</svg> -->

<svg width="20" height="22" viewBox="0 0 20 22" fill="none" xmlns="http://www.w3.org/2000/svg">
<path d="M1 17.1633L0.999996 16.5633C0.668627 16.5633 0.4 16.8319 0.4 17.1633H1ZM1 19H0.4V19.6H1V19ZM19 19V19.6H19.6V19H19ZM19 17.1633H19.6C19.6 16.8319 19.3314 16.5633 19 16.5633V17.1633ZM16 11.2857L16.599 11.3197L16.6 11.3027V11.2857H16ZM12.3333 3.57143L11.759 3.74514C11.7966 3.86939 11.8735 3.9781 11.9781 4.05496L12.3333 3.57143ZM7.66667 3.57143L7.87356 4.13463C8.07317 4.0613 8.21905 3.8878 8.25702 3.67857L7.66667 3.57143ZM0.4 17.1633V19H1.6V17.1633H0.4ZM1 19.6H19V18.4H1V19.6ZM19.6 19V17.1633H18.4V19H19.6ZM16.6 11.2857C16.6 10.2251 16.676 8.9049 16.2149 7.50089C15.7448 6.06922 14.7399 4.59503 12.6886 3.0879L11.9781 4.05496C13.8686 5.44391 14.6971 6.72482 15.0748 7.87526C15.4617 9.05335 15.4 10.1423 15.4 11.2857H16.6ZM12.9076 3.39772C12.7542 2.8906 12.5615 2.13902 12.1674 1.54197C11.7364 0.888788 11.058 0.4 10 0.4V1.6C10.6087 1.6 10.9303 1.84591 11.1659 2.20293C11.4385 2.61609 11.5791 3.15021 11.759 3.74514L12.9076 3.39772ZM10 0.4C8.88715 0.4 8.16821 1.06841 7.7441 1.73354C7.32568 2.38973 7.13951 3.11605 7.07631 3.46429L8.25702 3.67857C8.30494 3.41456 8.45209 2.85517 8.75591 2.37871C9.05402 1.91118 9.44619 1.6 10 1.6V0.4ZM7.45977 3.00823C5.84696 3.6007 3.4 5.7083 3.4 11.2857H4.6C4.6 6.11242 6.81971 4.52176 7.87356 4.13463L7.45977 3.00823ZM3.4 11.2857C3.4 14.0319 2.90314 15.3305 2.4088 15.9407C1.95122 16.5054 1.42582 16.5633 0.999996 16.5633L1 17.7633C1.57418 17.7633 2.54878 17.6741 3.3412 16.6961C4.09686 15.7634 4.6 14.1232 4.6 11.2857H3.4ZM15.401 11.2517C15.3427 12.2787 15.4267 13.8339 15.8923 15.1582C16.3543 16.4721 17.2824 17.7633 19 17.7633V16.5633C18.0509 16.5633 17.4235 15.8953 17.0244 14.7602C16.6289 13.6355 16.5462 12.252 16.599 11.3197L15.401 11.2517Z" fill="#333333"/>
<path d="M12 19C12 20.1046 11.1046 21 10 21C8.89543 21 8 20.1046 8 19" stroke="#333333" stroke-width="1.2"/>
</svg>
