<svg width="290" height="169" viewBox="0 0 290 169" fill="none" xmlns="http://www.w3.org/2000/svg">
<rect y="0.0507812" width="290" height="167.978" rx="5" fill="#43B4E4"/>
<ellipse cx="145.792" cy="149.012" rx="50.7104" ry="4.7541" fill="#3A9AC2"/>
<path d="M132.673 121.241H132.958C133.312 121.244 133.654 121.117 133.922 120.883L165.873 116.214C165.948 116.415 166.069 116.595 166.228 116.738C166.372 116.893 166.551 117.01 166.749 117.081C166.948 117.151 167.16 117.172 167.368 117.142L168.793 114.082L169.82 102.535C172.927 100.111 187.495 87.4384 186.925 69.6856C186.469 54.9638 183.589 37.3264 168.252 31.1202C152.914 24.9139 133.187 27.8583 125.233 36.7203C117.279 45.5822 115.426 49.5946 114.029 55.7143C112.889 60.9102 105.163 77.364 102.626 82.4445C101.905 83.5374 101.507 84.8151 101.476 86.1287C101.446 87.4422 101.785 88.7374 102.455 89.8632C103.088 90.7589 103.962 91.4522 104.972 91.8614C105.982 92.2706 107.087 92.3786 108.156 92.1725L108.211 92.1669C110.182 91.9673 111.809 91.8024 112.261 92.3745C112.718 92.9519 113.003 94.7993 112.718 97.8591C112.204 103.892 113.459 108.164 115.854 109.839C118.248 111.513 121.555 111.686 125.917 110.07H126.288C128.39 109.171 130.564 108.456 132.787 107.933C132.741 109.135 132.607 110.331 132.388 111.513L131.419 119.624C131.379 120.006 131.487 120.389 131.721 120.691C131.956 120.993 132.297 121.19 132.673 121.241Z" fill="white"/>
<path d="M155.043 97.3894H147.257C146.915 97.3859 146.585 97.2598 146.327 97.0338C146.07 96.8079 145.902 96.4971 145.854 96.1579L145.053 90.1149C143.143 89.6047 141.306 88.8541 139.585 87.8811L134.547 91.5183C134.273 91.7133 133.94 91.8059 133.605 91.7797C133.27 91.7535 132.955 91.6103 132.715 91.3751L127.276 85.9336C127.041 85.6751 126.91 85.3381 126.91 84.9884C126.91 84.6388 127.041 84.3018 127.276 84.0433L130.969 79.2033C129.937 77.4095 129.157 75.4821 128.65 73.4753L122.61 72.7021C122.263 72.654 121.946 72.483 121.714 72.2202C121.483 71.9574 121.354 71.6202 121.351 71.2701V63.6806C121.354 63.3305 121.483 62.9933 121.714 62.7305C121.946 62.4677 122.263 62.2966 122.61 62.2486L128.65 61.4467C129.165 59.547 129.915 57.719 130.883 56.0052L127.133 50.9646C126.93 50.6885 126.833 50.3488 126.86 50.0073C126.886 49.6657 127.034 49.3449 127.276 49.103L132.715 43.6615C132.976 43.4319 133.312 43.3053 133.66 43.3053C134.007 43.3053 134.343 43.4319 134.604 43.6615L139.414 47.3847C141.205 46.3431 143.132 45.5529 145.139 45.0362L145.94 38.9933C145.982 38.6516 146.149 38.3373 146.407 38.1103C146.666 37.8832 146.999 37.7592 147.343 37.7618H155.043C155.387 37.7592 155.72 37.8832 155.979 38.1103C156.238 38.3373 156.404 38.6516 156.446 38.9933L157.247 45.0362C159.254 45.5529 161.181 46.3431 162.973 47.3847L167.782 43.6615C168.043 43.4319 168.379 43.3053 168.726 43.3053C169.074 43.3053 169.41 43.4319 169.671 43.6615L175.081 49.103C175.309 49.3597 175.434 49.6908 175.434 50.0338C175.434 50.3768 175.309 50.7079 175.081 50.9646L171.36 55.8333C172.394 57.626 173.175 59.5537 173.679 61.5613L179.719 62.3632C180.065 62.4112 180.383 62.5822 180.614 62.8451C180.846 63.1079 180.975 63.4451 180.978 63.7952V71.4706C180.975 71.8207 180.846 72.1578 180.614 72.4207C180.383 72.6835 180.065 72.8545 179.719 72.9025L173.679 73.6758C173.181 75.5906 172.43 77.4303 171.446 79.146L175.081 84.072C175.29 84.3458 175.39 84.6868 175.364 85.03C175.338 85.3733 175.186 85.6948 174.938 85.9336L169.499 91.3751C169.235 91.5991 168.901 91.7221 168.555 91.7221C168.209 91.7221 167.874 91.5991 167.61 91.3751L162.801 87.6519C161.003 88.6814 159.078 89.4709 157.076 90.0004L156.274 96.0433C156.257 96.3759 156.125 96.6922 155.901 96.9379C155.676 97.1835 155.373 97.3432 155.043 97.3894Z" fill="#79B0DE"/>
<path d="M152.797 93.4142H145.53C145.21 93.411 144.903 93.2932 144.662 93.0823C144.422 92.8714 144.265 92.5814 144.221 92.2648L143.473 86.6247C141.69 86.1485 139.976 85.448 138.37 84.5398L133.667 87.9345C133.412 88.1166 133.101 88.2029 132.788 88.1785C132.475 88.1541 132.181 88.0204 131.957 87.8009L126.881 82.7221C126.661 82.4809 126.54 82.1663 126.54 81.84C126.54 81.5137 126.661 81.1991 126.881 80.9579L130.328 76.4405C129.364 74.7663 128.636 72.9674 128.164 71.0944L122.526 70.3727C122.203 70.3279 121.906 70.1683 121.69 69.923C121.474 69.6776 121.354 69.363 121.351 69.0362V61.9527C121.354 61.6259 121.474 61.3112 121.69 61.0659C121.906 60.8206 122.203 60.661 122.526 60.6162L128.164 59.8677C128.644 58.0946 129.344 56.3885 130.248 54.789L126.748 50.0844C126.558 49.8267 126.468 49.5097 126.492 49.1909C126.517 48.8721 126.655 48.5727 126.881 48.347L131.957 43.2682C132.201 43.0539 132.515 42.9358 132.839 42.9358C133.164 42.9358 133.477 43.0539 133.721 43.2682L138.209 46.7431C139.882 45.771 141.68 45.0335 143.553 44.5512L144.301 38.9112C144.34 38.5923 144.495 38.299 144.737 38.087C144.978 37.8751 145.289 37.7593 145.61 37.7618H152.797C153.118 37.7593 153.429 37.8751 153.67 38.087C153.912 38.299 154.067 38.5923 154.106 38.9112L154.854 44.5512C156.727 45.0335 158.525 45.771 160.198 46.7431L164.686 43.2682C164.93 43.0539 165.244 42.9358 165.568 42.9358C165.893 42.9358 166.206 43.0539 166.45 43.2682L171.499 48.347C171.712 48.5865 171.829 48.8956 171.829 49.2157C171.829 49.5358 171.712 49.8448 171.499 50.0844L168.026 54.6286C168.991 56.3017 169.72 58.1009 170.19 59.9746L175.828 60.7231C176.151 60.7679 176.448 60.9275 176.663 61.1728C176.879 61.4181 177 61.7328 177.003 62.0596V69.2233C177 69.5501 176.879 69.8648 176.663 70.1101C176.448 70.3554 176.151 70.515 175.828 70.5598L170.19 71.2815C169.726 73.0687 169.025 74.7857 168.106 76.387L171.499 80.9846C171.694 81.2402 171.788 81.5585 171.763 81.8788C171.739 82.1992 171.597 82.4993 171.366 82.7221L166.289 87.8009C166.043 88.0099 165.731 88.1247 165.408 88.1247C165.085 88.1247 164.772 88.0099 164.526 87.8009L160.037 84.3259C158.36 85.2867 156.563 86.0236 154.694 86.5178L153.946 92.1579C153.93 92.4683 153.807 92.7635 153.597 92.9928C153.388 93.2221 153.105 93.3711 152.797 93.4142Z" fill="white"/>
<circle cx="148.183" cy="64.5945" r="8.94415" fill="#79B0DE"/>
<ellipse cx="147.189" cy="63.6007" rx="7.95036" ry="7.95036" fill="white"/>
<path d="M132.609 122.5H132.316C131.929 122.449 131.578 122.248 131.337 121.941C131.096 121.635 130.984 121.246 131.026 120.858L132.023 112.62C132.248 111.42 132.385 110.205 132.433 108.985C130.147 109.516 127.911 110.241 125.749 111.154H125.368C120.882 112.796 117.482 112.62 115.019 110.92C112.556 109.219 111.266 104.88 111.794 98.7532C112.087 95.6456 111.794 93.7693 111.325 93.183C110.856 92.5966 109.156 92.7725 107.103 92.9777C106.004 93.1871 104.868 93.0775 103.829 92.6619C102.79 92.2463 101.892 91.5421 101.24 90.6324C100.552 89.4891 100.203 88.1737 100.234 86.8396C100.265 85.5056 100.675 84.2079 101.416 83.0979C104.025 77.9381 111.97 61.2275 113.143 55.9504C114.579 49.7353 116.485 45.6602 124.664 36.6599C132.844 27.6596 153.131 24.6693 168.903 30.9724C184.676 37.2756 187.637 55.1882 188.106 70.1398C188.692 88.1698 173.711 101.04 170.516 103.503L169.461 115.229L176.76 114.379C176.953 114.358 177.148 114.375 177.334 114.429C177.52 114.483 177.693 114.573 177.844 114.694C177.995 114.816 178.121 114.965 178.214 115.135C178.307 115.305 178.366 115.491 178.388 115.684C178.409 115.876 178.392 116.071 178.338 116.257C178.284 116.443 178.193 116.616 178.072 116.767C177.951 116.919 177.801 117.044 177.632 117.138C177.462 117.231 177.275 117.29 177.083 117.311L167.995 118.337C167.781 118.368 167.562 118.346 167.358 118.275C167.154 118.203 166.97 118.084 166.822 117.926C166.659 117.781 166.534 117.599 166.458 117.394C166.381 117.19 166.355 116.97 166.382 116.754L167.643 102.682C167.7 102.269 167.909 101.893 168.229 101.626C168.405 101.626 185.643 88.4336 185.086 70.3157C184.529 49.3835 179.164 38.1257 167.789 33.6989C153.131 28.0407 134.485 30.2688 126.951 38.6241C118.859 47.5365 117.394 51.0545 116.133 56.6247C114.726 62.7813 105.813 81.0751 104.113 84.4172C103.663 85.0774 103.391 85.8429 103.325 86.6391C103.258 87.4354 103.398 88.2353 103.732 88.9613C104.1 89.4021 104.58 89.7354 105.122 89.9263C105.664 90.1172 106.247 90.1586 106.81 90.046C109.419 89.7822 111.882 89.5477 113.465 91.1015C115.048 92.6553 115.195 94.6488 114.814 99.017C114.374 103.913 115.107 107.226 116.895 108.574C118.684 109.923 120.882 109.688 124.371 108.428L124.723 108.281C130.821 106.024 132.902 105.349 134.397 106.493C135.893 107.636 135.453 109.425 134.925 112.972V113.881L134.104 121.21C134.054 121.57 133.875 121.899 133.6 122.137C133.325 122.374 132.973 122.503 132.609 122.5Z" fill="#0B3C61"/>
<path d="M124.371 123.673C124.023 123.677 123.686 123.554 123.421 123.328C123.157 123.101 122.984 122.786 122.935 122.442C122.905 122.251 122.914 122.057 122.96 121.87C123.006 121.682 123.089 121.506 123.203 121.351C123.318 121.196 123.462 121.065 123.627 120.965C123.792 120.866 123.975 120.8 124.166 120.771L140.378 118.484C140.569 118.451 140.765 118.457 140.954 118.501C141.143 118.546 141.32 118.628 141.477 118.743C141.633 118.858 141.764 119.003 141.862 119.171C141.961 119.338 142.024 119.523 142.049 119.715C142.1 120.099 142 120.488 141.771 120.8C141.541 121.111 141.2 121.322 140.818 121.387L124.606 123.761L124.371 123.673Z" fill="#0B3C61"/>
<path d="M149.115 75.8272C146.623 75.8401 144.203 74.9924 142.264 73.4273C140.325 71.8622 138.986 69.6758 138.473 67.2374C138.434 67.0487 138.433 66.8543 138.47 66.6653C138.506 66.4762 138.58 66.2963 138.686 66.1356C138.792 65.975 138.929 65.8369 139.088 65.7291C139.248 65.6214 139.427 65.5461 139.616 65.5077C139.805 65.465 140 65.461 140.191 65.4958C140.381 65.5307 140.563 65.6037 140.725 65.7105C140.886 65.8173 141.024 65.9557 141.131 66.1173C141.238 66.2789 141.311 66.4605 141.346 66.651C141.645 68.1001 142.349 69.4347 143.376 70.5001C144.402 71.5655 145.71 72.318 147.147 72.6703C148.585 73.0227 150.092 72.9605 151.495 72.491C152.899 72.0214 154.14 71.1638 155.076 70.0174C156.011 68.8711 156.603 67.4831 156.782 66.0142C156.961 64.5454 156.719 63.0559 156.086 61.7185C155.453 60.3811 154.454 59.2506 153.204 58.458C151.955 57.6654 150.506 57.2432 149.027 57.2403C147.467 57.236 145.944 57.7064 144.658 58.5889C144.331 58.8026 143.932 58.8793 143.549 58.8026C143.165 58.7258 142.827 58.5018 142.606 58.1784C142.394 57.8553 142.318 57.4614 142.395 57.0825C142.472 56.7036 142.695 56.3705 143.017 56.1556C144.746 54.9749 146.786 54.3323 148.88 54.3086C151.734 54.3086 154.47 55.4422 156.488 57.4599C158.506 59.4777 159.639 62.2144 159.639 65.0679C159.639 67.9215 158.506 70.6581 156.488 72.6759C154.47 74.6937 151.734 75.8272 148.88 75.8272H149.115Z" fill="#0B3C61"/>
<path d="M153.131 95.6453H145.157C144.806 95.6418 144.468 95.5126 144.205 95.2813C143.941 95.05 143.769 94.7319 143.72 94.3847L142.899 88.1988C140.944 87.6766 139.062 86.9082 137.3 85.9121L132.14 89.6354C131.86 89.835 131.518 89.9297 131.175 89.9029C130.832 89.8761 130.51 89.7295 130.264 89.4888L124.694 83.9186C124.453 83.654 124.319 83.309 124.319 82.9511C124.319 82.5932 124.453 82.2482 124.694 81.9836L128.475 77.0291C127.418 75.1929 126.619 73.2199 126.101 71.1657L119.915 70.3741C119.56 70.325 119.234 70.1499 118.998 69.8809C118.761 69.6118 118.629 69.2667 118.625 68.9083V61.1393C118.629 60.7809 118.761 60.4358 118.998 60.1667C119.234 59.8977 119.56 59.7226 119.915 59.6734L126.101 58.8526C126.628 56.9079 127.397 55.0367 128.388 53.2824L124.547 48.1226C124.339 47.8399 124.24 47.4922 124.267 47.1426C124.294 46.793 124.445 46.4646 124.694 46.217L130.264 40.6468C130.531 40.4117 130.875 40.2821 131.231 40.2821C131.587 40.2821 131.931 40.4117 132.199 40.6468L137.124 44.458C138.959 43.3918 140.932 42.5829 142.987 42.054L143.808 35.8681C143.851 35.5183 144.022 35.1967 144.286 34.9642C144.551 34.7318 144.892 34.6048 145.245 34.6075H153.131C153.483 34.6048 153.824 34.7318 154.089 34.9642C154.354 35.1967 154.524 35.5183 154.568 35.8681L155.388 42.054C157.444 42.5829 159.417 43.3918 161.252 44.458L166.177 40.6468C166.445 40.4117 166.788 40.2821 167.145 40.2821C167.501 40.2821 167.844 40.4117 168.112 40.6468L173.653 46.217C173.886 46.4797 174.014 46.8187 174.014 47.1698C174.014 47.5209 173.886 47.8598 173.653 48.1226L169.842 53.1065C170.901 54.9415 171.7 56.9148 172.216 58.9698L178.402 59.7907C178.757 59.8399 179.083 60.0149 179.32 60.284C179.556 60.553 179.689 60.8982 179.692 61.2566V69.1135C179.689 69.4719 179.556 69.817 179.32 70.0861C179.083 70.3551 178.757 70.5302 178.402 70.5793L172.216 71.3709C171.707 73.331 170.938 75.2142 169.93 76.9704L173.653 82.013C173.866 82.2933 173.97 82.6423 173.942 82.9937C173.915 83.345 173.76 83.6742 173.506 83.9186L167.936 89.4888C167.666 89.7181 167.323 89.844 166.969 89.844C166.614 89.844 166.271 89.7181 166.001 89.4888L161.076 85.6776C159.235 86.7314 157.264 87.5396 155.213 88.0816L154.392 94.2674C154.375 94.6079 154.239 94.9317 154.009 95.1831C153.779 95.4346 153.469 95.598 153.131 95.6453ZM146.535 92.7136H151.841L152.603 86.8503C152.651 86.5517 152.784 86.2734 152.987 86.0495C153.19 85.8256 153.454 85.6658 153.747 85.5896C156.127 85.0661 158.399 84.1337 160.46 82.8338C160.709 82.6571 161.006 82.5621 161.31 82.5621C161.615 82.5621 161.912 82.6571 162.161 82.8338L166.881 86.4691L170.633 82.6873L167.086 77.762C166.922 77.5196 166.834 77.2337 166.834 76.9411C166.834 76.6485 166.922 76.3627 167.086 76.1203C168.352 74.1143 169.255 71.9014 169.754 69.5826C169.828 69.3602 169.955 69.159 170.123 68.9957C170.292 68.8325 170.497 68.712 170.721 68.6444L176.585 67.8529V62.5758L170.721 61.7843C170.425 61.739 170.149 61.6058 169.93 61.4019C169.71 61.198 169.557 60.9329 169.49 60.6409C168.958 58.2585 168.015 55.9868 166.705 53.9273C166.535 53.6819 166.443 53.3904 166.443 53.0918C166.443 52.7932 166.535 52.5016 166.705 52.2563L170.311 47.5362L166.793 43.6371L162.073 47.2724C161.824 47.4491 161.527 47.5441 161.223 47.5441C160.918 47.5441 160.621 47.4491 160.372 47.2724C158.326 45.9048 156.053 44.9122 153.659 44.3407C153.365 44.2774 153.098 44.1254 152.893 43.9051C152.689 43.6849 152.557 43.4071 152.515 43.1094L151.753 37.246H146.447L145.685 43.1094C145.647 43.4087 145.517 43.6886 145.312 43.9096C145.106 44.1306 144.837 44.2814 144.541 44.3407C142.149 44.918 139.877 45.9103 137.828 47.2724C137.586 47.4509 137.293 47.5473 136.992 47.5473C136.691 47.5473 136.399 47.4509 136.157 47.2724L131.437 43.6371L127.655 47.419L131.202 52.3442C131.367 52.5806 131.456 52.862 131.456 53.1504C131.456 53.4388 131.367 53.7203 131.202 53.9566C129.953 55.9714 129.052 58.1813 128.534 60.4943C128.471 60.7882 128.319 61.0554 128.099 61.2599C127.878 61.4645 127.601 61.5963 127.303 61.6377L121.439 62.4292V67.7063L127.303 68.4978C127.598 68.5332 127.875 68.6594 128.096 68.8589C128.316 69.0585 128.469 69.3216 128.534 69.6119C129.06 72.0054 130.003 74.2878 131.319 76.3548C131.489 76.6002 131.581 76.8917 131.581 77.1903C131.581 77.489 131.489 77.7805 131.319 78.0259L127.684 82.7459L131.437 86.5278L136.362 82.9511C136.607 82.7945 136.892 82.7112 137.183 82.7112C137.474 82.7112 137.758 82.7945 138.003 82.9511C140.012 84.2114 142.224 85.1141 144.541 85.6189C144.837 85.6879 145.105 85.8455 145.31 86.0707C145.514 86.2959 145.645 86.5781 145.685 86.8796L146.535 92.7136Z" fill="#0B3C61"/>
</svg>
