<svg width="63" height="63" viewBox="0 0 63 63" fill="none" xmlns="http://www.w3.org/2000/svg">
<path fill-rule="evenodd" clip-rule="evenodd" d="M19.6874 20.475C19.6874 13.9511 24.976 8.66249 31.4999 8.66249C38.0238 8.66249 43.3124 13.9511 43.3124 20.475V23.625H19.6874V20.475ZM18.1124 23.625V20.475C18.1124 13.0813 24.1062 7.08749 31.4999 7.08749C38.8936 7.08749 44.8874 13.0813 44.8874 20.475V23.625H48.8249C50.5646 23.625 51.9749 25.0353 51.9749 26.775V51.975C51.9749 53.7147 50.5646 55.125 48.8249 55.125H14.1749C12.4352 55.125 11.0249 53.7147 11.0249 51.975V26.775C11.0249 25.0353 12.4352 23.625 14.1749 23.625H18.1124ZM12.5999 26.775C12.5999 25.9051 13.3051 25.2 14.1749 25.2H48.8249C49.6947 25.2 50.3999 25.9051 50.3999 26.775V51.975C50.3999 52.8448 49.6947 53.55 48.8249 53.55H14.1749C13.3051 53.55 12.5999 52.8448 12.5999 51.975V26.775Z" fill="#4C9E45"/>
</svg>
