<svg width="24" height="24" viewBox="0 0 24 24" fill="none" xmlns="http://www.w3.org/2000/svg">
<path fill-rule="evenodd" clip-rule="evenodd" d="M4.01233 2.81564C3.93031 2.90081 3.86659 3.05151 3.86659 3.31733V20.7173C3.86659 20.9589 3.92691 21.1028 4.00684 21.1862C4.0848 21.2676 4.22153 21.3333 4.46659 21.3333H19.4986C19.7902 21.3333 19.9279 21.274 19.9993 21.2031C20.0705 21.1325 20.1333 20.9931 20.1333 20.6907V8.66667H14.3999C14.2526 8.66667 14.1333 8.54728 14.1333 8.40001V2.66666H4.49059C4.23381 2.66666 4.09253 2.73237 4.01233 2.81564ZM14.6666 3.0444L19.7488 8.13334H14.6666V3.0444ZM3.62817 2.44569C3.84331 2.2223 4.14736 2.13333 4.49059 2.13333H14.3999C14.4707 2.13333 14.5386 2.16148 14.5886 2.21156L20.5886 8.21956C20.6385 8.26956 20.6666 8.33733 20.6666 8.408V20.6907C20.6666 21.0469 20.5961 21.3622 20.3752 21.5815C20.1546 21.8006 19.8416 21.8667 19.4986 21.8667H4.46659C4.12764 21.8667 3.83104 21.7737 3.62167 21.5551C3.41426 21.3386 3.33325 21.0411 3.33325 20.7173V3.31733C3.33325 2.97516 3.41486 2.66718 3.62817 2.44569ZM7.19992 12.3333C7.05264 12.3333 6.93325 12.4527 6.93325 12.6C6.93325 12.7473 7.05264 12.8667 7.19992 12.8667H16.7999C16.9472 12.8667 17.0666 12.7473 17.0666 12.6C17.0666 12.4527 16.9472 12.3333 16.7999 12.3333H7.19992ZM6.93325 15C6.93325 14.8527 7.05264 14.7333 7.19992 14.7333H16.7999C16.9472 14.7333 17.0666 14.8527 17.0666 15C17.0666 15.1473 16.9472 15.2667 16.7999 15.2667H7.19992C7.05264 15.2667 6.93325 15.1473 6.93325 15ZM7.19992 17.1333C7.05264 17.1333 6.93325 17.2527 6.93325 17.4C6.93325 17.5473 7.05264 17.6667 7.19992 17.6667H16.7999C16.9472 17.6667 17.0666 17.5473 17.0666 17.4C17.0666 17.2527 16.9472 17.1333 16.7999 17.1333H7.19992Z" fill="white"/>
<path d="M4.01233 2.81564L4.1924 2.98906V2.98906L4.01233 2.81564ZM4.00684 21.1862L3.82629 21.3591H3.82629L4.00684 21.1862ZM19.9993 21.2031L19.8232 21.0257L19.9993 21.2031ZM20.1333 8.66667H20.3833C20.3833 8.5286 20.2713 8.41667 20.1333 8.41667V8.66667ZM14.1333 2.66666H14.3833C14.3833 2.52859 14.2713 2.41666 14.1333 2.41666V2.66666ZM19.7488 8.13334V8.38334C19.8498 8.38334 19.941 8.32247 19.9797 8.22909C20.0184 8.13571 19.9971 8.02821 19.9256 7.95668L19.7488 8.13334ZM14.6666 3.0444L14.8435 2.86774C14.772 2.79617 14.6645 2.77472 14.571 2.81339C14.4775 2.85207 14.4166 2.94325 14.4166 3.0444H14.6666ZM14.6666 8.13334H14.4166C14.4166 8.27141 14.5285 8.38334 14.6666 8.38334V8.13334ZM3.62817 2.44569L3.4481 2.27227L3.62817 2.44569ZM14.5886 2.21156L14.4117 2.38822L14.4117 2.38822L14.5886 2.21156ZM20.5886 8.21956L20.7655 8.0429V8.0429L20.5886 8.21956ZM20.3752 21.5815L20.199 21.4042V21.4042L20.3752 21.5815ZM3.62167 21.5551L3.80222 21.3822H3.80221L3.62167 21.5551ZM4.11659 3.31733C4.11659 3.08776 4.1717 3.01056 4.1924 2.98906L3.83226 2.64223C3.68892 2.79107 3.61659 3.01525 3.61659 3.31733H4.11659ZM4.11659 20.7173V3.31733H3.61659V20.7173H4.11659ZM4.18738 21.0133C4.16698 20.992 4.11659 20.9199 4.11659 20.7173H3.61659C3.61659 20.9979 3.68684 21.2135 3.82629 21.3591L4.18738 21.0133ZM4.46659 21.0833C4.26614 21.0833 4.20405 21.0307 4.18738 21.0133L3.82629 21.3591C3.96554 21.5045 4.17692 21.5833 4.46659 21.5833V21.0833ZM19.4986 21.0833H4.46659V21.5833H19.4986V21.0833ZM19.8232 21.0257C19.8215 21.0274 19.7657 21.0833 19.4986 21.0833V21.5833C19.8147 21.5833 20.0343 21.5207 20.1755 21.3805L19.8232 21.0257ZM19.8833 20.6907C19.8833 20.9675 19.8243 21.0246 19.8232 21.0257L20.1755 21.3805C20.3166 21.2403 20.3833 21.0188 20.3833 20.6907H19.8833ZM19.8833 8.66667V20.6907H20.3833V8.66667H19.8833ZM14.3999 8.91667H20.1333V8.41667H14.3999V8.91667ZM13.8833 8.40001C13.8833 8.68535 14.1146 8.91667 14.3999 8.91667V8.41667C14.3907 8.41667 14.3833 8.40921 14.3833 8.40001H13.8833ZM13.8833 2.66666V8.40001H14.3833V2.66666H13.8833ZM4.49059 2.91666H14.1333V2.41666H4.49059V2.91666ZM4.1924 2.98906C4.20966 2.97115 4.27494 2.91666 4.49059 2.91666V2.41666C4.19268 2.41666 3.9754 2.49358 3.83226 2.64223L4.1924 2.98906ZM19.9256 7.95668L14.8435 2.86774L14.4897 3.22105L19.5719 8.31L19.9256 7.95668ZM14.6666 8.38334H19.7488V7.88334H14.6666V8.38334ZM14.4166 3.0444V8.13334H14.9166V3.0444H14.4166ZM4.49059 1.88333C4.10716 1.88333 3.72664 1.98304 3.4481 2.27227L3.80825 2.6191C3.95997 2.46156 4.18756 2.38333 4.49059 2.38333V1.88333ZM14.3999 1.88333H4.49059V2.38333H14.3999V1.88333ZM14.7655 2.0349C14.6686 1.93786 14.5371 1.88333 14.3999 1.88333V2.38333C14.4043 2.38333 14.4086 2.38509 14.4117 2.38822L14.7655 2.0349ZM20.7655 8.0429L14.7655 2.0349L14.4117 2.38822L20.4117 8.39622L20.7655 8.0429ZM20.9166 8.408C20.9166 8.27109 20.8622 8.13978 20.7655 8.0429L20.4117 8.39622C20.4148 8.39934 20.4166 8.40358 20.4166 8.408H20.9166ZM20.9166 20.6907V8.408H20.4166V20.6907H20.9166ZM20.5513 21.7589C20.8425 21.4697 20.9166 21.0718 20.9166 20.6907H20.4166C20.4166 21.0219 20.3496 21.2546 20.199 21.4042L20.5513 21.7589ZM19.4986 22.1167C19.8655 22.1167 20.2607 22.0475 20.5513 21.7589L20.199 21.4042C20.0484 21.5537 19.8178 21.6167 19.4986 21.6167V22.1167ZM4.46659 22.1167H19.4986V21.6167H4.46659V22.1167ZM3.44112 21.728C3.71226 22.0111 4.08395 22.1167 4.46659 22.1167V21.6167C4.17134 21.6167 3.94983 21.5363 3.80222 21.3822L3.44112 21.728ZM3.08325 20.7173C3.08325 21.0793 3.17383 21.449 3.44112 21.728L3.80221 21.3822C3.65469 21.2282 3.58325 21.0028 3.58325 20.7173H3.08325ZM3.08325 3.31733V20.7173H3.58325V3.31733H3.08325ZM3.4481 2.27227C3.17312 2.5578 3.08325 2.93962 3.08325 3.31733H3.58325C3.58325 3.01069 3.6566 2.77657 3.80825 2.6191L3.4481 2.27227ZM7.18325 12.6C7.18325 12.5908 7.19071 12.5833 7.19992 12.5833V12.0833C6.91457 12.0833 6.68325 12.3147 6.68325 12.6H7.18325ZM7.19992 12.6167C7.19071 12.6167 7.18325 12.6092 7.18325 12.6H6.68325C6.68325 12.8853 6.91457 13.1167 7.19992 13.1167V12.6167ZM16.7999 12.6167H7.19992V13.1167H16.7999V12.6167ZM16.8166 12.6C16.8166 12.6092 16.8091 12.6167 16.7999 12.6167V13.1167C17.0853 13.1167 17.3166 12.8853 17.3166 12.6H16.8166ZM16.7999 12.5833C16.8091 12.5833 16.8166 12.5908 16.8166 12.6H17.3166C17.3166 12.3147 17.0853 12.0833 16.7999 12.0833V12.5833ZM7.19992 12.5833H16.7999V12.0833H7.19992V12.5833ZM7.19992 14.4833C6.91457 14.4833 6.68325 14.7147 6.68325 15H7.18325C7.18325 14.9908 7.19071 14.9833 7.19992 14.9833V14.4833ZM16.7999 14.4833H7.19992V14.9833H16.7999V14.4833ZM17.3166 15C17.3166 14.7147 17.0853 14.4833 16.7999 14.4833V14.9833C16.8091 14.9833 16.8166 14.9908 16.8166 15H17.3166ZM16.7999 15.5167C17.0853 15.5167 17.3166 15.2853 17.3166 15H16.8166C16.8166 15.0092 16.8091 15.0167 16.7999 15.0167V15.5167ZM7.19992 15.5167H16.7999V15.0167H7.19992V15.5167ZM6.68325 15C6.68325 15.2853 6.91457 15.5167 7.19992 15.5167V15.0167C7.19071 15.0167 7.18325 15.0092 7.18325 15H6.68325ZM7.18325 17.4C7.18325 17.3908 7.19071 17.3833 7.19992 17.3833V16.8833C6.91457 16.8833 6.68325 17.1147 6.68325 17.4H7.18325ZM7.19992 17.4167C7.19071 17.4167 7.18325 17.4092 7.18325 17.4H6.68325C6.68325 17.6853 6.91457 17.9167 7.19992 17.9167V17.4167ZM16.7999 17.4167H7.19992V17.9167H16.7999V17.4167ZM16.8166 17.4C16.8166 17.4092 16.8091 17.4167 16.7999 17.4167V17.9167C17.0853 17.9167 17.3166 17.6853 17.3166 17.4H16.8166ZM16.7999 17.3833C16.8091 17.3833 16.8166 17.3908 16.8166 17.4H17.3166C17.3166 17.1147 17.0853 16.8833 16.7999 16.8833V17.3833ZM7.19992 17.3833H16.7999V16.8833H7.19992V17.3833Z" fill="white"/>
</svg>
