<svg width="646" height="1024" viewBox="0 0 646 1024" fill="none" xmlns="http://www.w3.org/2000/svg">
<mask id="mask0_317_407" style="mask-type:alpha" maskUnits="userSpaceOnUse" x="0" y="0" width="645" height="1024">
<path fill-rule="evenodd" clip-rule="evenodd" d="M543.423 0L0 0L0 1024L533.468 1024C602.447 878.313 643.462 699.985 644.415 507.21C645.346 319.087 607.99 144.344 543.423 0Z" fill="#C4C4C4"/>
</mask>
<g mask="url(#mask0_317_407)">
<path d="M-420 1378H1026V-9.00012H-420V1378Z" fill="#4C9E45"/>
<path d="M681.765 56.3826L584.162 9.22788C575.359 4.97476 564.704 8.72528 560.364 17.6049L539.647 59.9935C535.307 68.8731 538.925 79.5192 547.728 83.7723L645.331 130.927C654.134 135.18 664.789 131.43 669.129 122.55L689.846 80.1615C694.186 71.2819 690.568 60.6357 681.765 56.3826Z" stroke="white" stroke-width="2.32" stroke-miterlimit="10"/>
<path d="M675.269 63.4349L608.504 31.2043C602.002 28.0654 594.133 30.8325 590.928 37.3848L574.042 71.9021C570.837 78.4544 573.51 86.3106 580.012 89.4494L646.776 121.68C653.278 124.819 661.147 122.052 664.353 115.5L681.238 80.9823C684.443 74.43 681.771 66.5737 675.269 63.4349Z" stroke="white" stroke-width="1.55" stroke-miterlimit="10"/>
<path d="M593.182 51.0527L601.107 54.9005L613.781 44.7268L614.445 61.3771L622.369 65.225L621.577 75.3448L629.872 68.8684L648.231 77.7831L660.762 66.8356L660.321 83.6536L669.494 88.1075" stroke="white" stroke-width="1.32" stroke-linecap="round" stroke-linejoin="round"/>
<path d="M577.094 20.4885L575.959 19.9452C573.236 18.6413 569.939 19.7948 568.596 22.5216L548.835 62.6381C547.492 65.3649 548.611 68.6325 551.334 69.9365L552.469 70.4798C555.192 71.7837 558.488 70.6302 559.832 67.9034L579.593 27.7869C580.936 25.0601 579.817 21.7925 577.094 20.4885Z" stroke="white" stroke-width="2.07" stroke-miterlimit="10"/>
<path d="M580.51 72.7872L584.591 74.7709C584.591 74.7709 589.018 70.792 590.628 71.0461C592.238 71.3002 594.822 74.5116 594.822 74.5116C596.304 76.3631 597.185 78.6355 597.346 81.0237L602.24 83.4028" stroke="white" stroke-width="0.81" stroke-linecap="round" stroke-linejoin="round"/>
<path d="M598.383 81.5852L602.464 83.569C602.464 83.569 606.904 79.5968 608.556 79.8713C610.208 80.1458 612.75 83.3369 612.75 83.3369C614.106 85.1382 614.831 87.3481 614.812 89.6244L620.225 92.2558" stroke="white" stroke-width="0.81" stroke-linecap="round" stroke-linejoin="round"/>
<path d="M617.082 90.7849L621.149 92.7618C621.149 92.7618 625.589 88.7899 627.255 89.0712C628.921 89.3525 631.449 92.5367 631.449 92.5367C632.926 94.3913 633.807 96.662 633.974 99.0489L638.868 101.428" stroke="white" stroke-width="0.81" stroke-linecap="round" stroke-linejoin="round"/>
<path d="M634.955 99.5858L639.022 101.563C639.022 101.563 643.477 97.5973 645.129 97.8718C646.78 98.1463 649.322 101.338 649.322 101.338C651.032 103.279 650.875 105.281 651.011 107.215L656.831 110.044" stroke="white" stroke-width="0.81" stroke-linecap="round" stroke-linejoin="round"/>
<path d="M84.9821 40.6164L38.0005 17.9988C33.5365 15.8497 28.1339 17.7432 25.9334 22.2281L2.77488 69.4285C0.574432 73.9134 2.40946 79.2912 6.87349 81.4402L53.855 104.058C58.319 106.207 63.7216 104.314 65.9221 99.8286L89.0806 52.6281C91.281 48.1433 89.4461 42.7655 84.9821 40.6164Z" stroke="white" stroke-width="2.32" stroke-miterlimit="10"/>
<path d="M143.562 19.1977L128.788 12.0993C126.944 11.2132 124.712 11.9942 123.803 13.8436L111.533 38.804C110.624 40.6535 111.382 42.8709 113.226 43.757L128 50.8554C129.844 51.7415 132.076 50.9607 132.985 49.1112L145.255 24.1508C146.164 22.3014 145.406 20.0838 143.562 19.1977Z" stroke="white" stroke-width="2.32" stroke-miterlimit="10"/>
<path d="M164.965 57.6569L150.191 50.5585C148.347 49.6724 146.115 50.4533 145.206 52.3028L132.937 77.2632C132.028 79.1126 132.786 81.3302 134.63 82.2163L149.404 89.3147C151.248 90.2008 153.48 89.4198 154.389 87.5704L166.658 62.61C167.567 60.7605 166.809 58.543 164.965 57.6569Z" stroke="white" stroke-width="2.51" stroke-miterlimit="10"/>
<path d="M120.675 47.1001C120.675 47.1001 114.934 72.4974 103.064 82.9649C91.1939 93.4325 68.8021 94.3459 68.8021 94.3459L65.8071 100.446C65.8071 100.446 94.1677 119.313 115.56 112.381C136.952 105.449 142.106 85.3418 142.106 85.3418" stroke="white" stroke-width="2.32" stroke-miterlimit="10"/>
<path d="M74.5924 47.3647L39.0762 30.2304C36.2242 28.8545 32.7725 30.0672 31.3666 32.9391L20.5063 55.1238C19.1004 57.9957 20.2727 61.4392 23.1246 62.8151L58.6408 79.9494C61.4928 81.3253 64.9445 80.1126 66.3504 77.2407L77.2107 55.056C78.6166 52.1841 77.4443 48.7406 74.5924 47.3647Z" stroke="white" stroke-width="1.25" stroke-miterlimit="10"/>
<path d="M54.284 94.2204C55.9426 95.0188 57.9498 94.3153 58.7674 92.6491C59.5849 90.9828 58.9031 88.9848 57.2446 88.1864C55.5861 87.388 53.5789 88.0915 52.7613 89.7577C51.9438 91.4239 52.6255 93.422 54.284 94.2204Z" stroke="white" stroke-width="1.25" stroke-miterlimit="10"/>
<path d="M34.408 84.4377C36.0665 85.2361 38.0738 84.5326 38.8913 82.8664C39.7088 81.2002 39.027 79.2022 37.3685 78.4037C35.71 77.6053 33.7028 78.3088 32.8853 79.975C32.0677 81.6413 32.7495 83.6393 34.408 84.4377Z" stroke="white" stroke-width="1.25" stroke-miterlimit="10"/>
<path d="M14.6028 74.6897C16.2614 75.4881 18.2686 74.7846 19.0861 73.1184C19.9036 71.4521 19.2219 69.4541 17.5634 68.6557C15.9049 67.8573 13.8976 68.5607 13.0801 70.227C12.2626 71.8932 12.9443 73.8913 14.6028 74.6897Z" stroke="white" stroke-width="1.25" stroke-miterlimit="10"/>
<path d="M-18.1963 -34.4802L-12.3031 -46.6263C-11.5693 -48.1387 -10.2746 -49.3018 -8.70376 -49.8598C-7.13292 -50.4178 -5.41466 -50.325 -3.92695 -49.6017L93.0196 -4.79722C94.5074 -4.07398 95.6427 -2.77957 96.1758 -1.19875C96.7089 0.382065 96.5961 2.1198 95.8623 3.63217L88.4198 18.9716C87.686 20.4839 86.3912 21.6471 84.8204 22.2051C83.2496 22.763 81.5313 22.6702 80.0436 21.947L-15.4166 -26.0638C-16.8897 -26.7986 -18.0086 -28.0956 -18.5293 -29.6722C-19.05 -31.2488 -18.9303 -32.9771 -18.1963 -34.4802Z" stroke="white" stroke-width="2.32" stroke-miterlimit="10"/>
<path d="M20.3369 107.787L-41.7134 77.8372C-47.1925 75.1926 -53.8238 77.5239 -56.5248 83.0442L-73.2995 117.328C-76.0005 122.849 -73.7485 129.468 -68.2694 132.112L-6.21898 162.061C-0.739899 164.706 5.8914 162.375 8.59241 156.854L25.3671 122.571C28.0681 117.05 25.816 110.431 20.3369 107.787Z" stroke="white" stroke-width="2.32" stroke-linecap="round" stroke-linejoin="round"/>
<path d="M575.489 888.841L528.508 866.223C524.044 864.074 518.641 865.967 516.441 870.452L493.282 917.653C491.082 922.138 492.917 927.515 497.381 929.665L544.362 952.282C548.826 954.431 554.229 952.538 556.429 948.053L579.588 900.852C581.788 896.368 579.953 890.99 575.489 888.841Z" stroke="white" stroke-width="2.32" stroke-miterlimit="10"/>
<path d="M634.056 867.418L619.282 860.319C617.438 859.433 615.206 860.214 614.297 862.064L602.027 887.024C601.118 888.874 601.876 891.091 603.721 891.977L618.494 899.076C620.339 899.962 622.571 899.181 623.48 897.331L635.749 872.371C636.658 870.521 635.9 868.304 634.056 867.418Z" stroke="white" stroke-width="2.32" stroke-miterlimit="10"/>
<path d="M655.458 905.88L640.684 898.781C638.84 897.895 636.608 898.676 635.699 900.525L623.43 925.486C622.521 927.335 623.279 929.553 625.123 930.439L639.897 937.537C641.741 938.424 643.973 937.643 644.882 935.793L657.151 910.833C658.06 908.983 657.302 906.766 655.458 905.88Z" stroke="white" stroke-width="2.32" stroke-miterlimit="10"/>
<path d="M611.196 895.328C611.196 895.328 605.47 920.732 593.585 931.193C581.701 941.654 559.323 942.574 559.323 942.574L556.335 948.66C556.335 948.66 584.71 967.533 606.095 960.615C627.48 953.697 632.627 933.57 632.627 933.57" stroke="white" stroke-width="2.32" stroke-miterlimit="10"/>
<path d="M565.085 895.587L529.569 878.453C526.717 877.077 523.266 878.29 521.86 881.162L510.999 903.347C509.593 906.218 510.766 909.662 513.618 911.038L549.134 928.172C551.986 929.548 555.438 928.335 556.843 925.463L567.704 903.279C569.11 900.407 567.937 896.963 565.085 895.587Z" stroke="white" stroke-width="1.25" stroke-miterlimit="10"/>
<path d="M544.798 942.434C546.457 943.233 548.464 942.529 549.282 940.863C550.099 939.197 549.417 937.199 547.759 936.4C546.1 935.602 544.093 936.305 543.276 937.972C542.458 939.638 543.14 941.636 544.798 942.434Z" stroke="white" stroke-width="1.25" stroke-miterlimit="10"/>
<path d="M524.924 932.651C526.582 933.45 528.59 932.746 529.407 931.08C530.225 929.414 529.543 927.416 527.884 926.617C526.226 925.819 524.219 926.522 523.401 928.189C522.584 929.855 523.265 931.853 524.924 932.651Z" stroke="white" stroke-width="1.25" stroke-miterlimit="10"/>
<path d="M505.103 922.895C506.762 923.693 508.769 922.99 509.586 921.323C510.404 919.657 509.722 917.659 508.064 916.861C506.405 916.062 504.398 916.766 503.58 918.432C502.763 920.098 503.445 922.096 505.103 922.895Z" stroke="white" stroke-width="1.25" stroke-miterlimit="10"/>
<path d="M607.151 1010.37L613.044 998.219C613.79 996.728 615.084 995.587 616.645 995.043C618.207 994.5 619.91 994.597 621.385 995.315L718.402 1040.12C719.89 1040.84 721.025 1042.14 721.558 1043.72C722.091 1045.3 721.978 1047.04 721.245 1048.55L713.802 1063.89C713.068 1065.4 711.774 1066.56 710.203 1067.12C708.632 1067.68 706.914 1067.59 705.426 1066.86L609.966 1018.85C609.224 1018.49 608.563 1017.98 608.019 1017.36C607.476 1016.74 607.061 1016.01 606.799 1015.22C606.538 1014.43 606.434 1013.6 606.494 1012.76C606.554 1011.93 606.778 1011.12 607.151 1010.37Z" stroke="white" stroke-width="2.32" stroke-miterlimit="10"/>
<path d="M652.788 1028.48C654.514 1029.33 656.603 1028.58 657.453 1026.83C658.303 1025.07 657.592 1022.96 655.866 1022.12L626.858 1007.99C625.131 1007.15 623.042 1007.89 622.192 1009.65C621.342 1011.4 622.053 1013.51 623.78 1014.35L652.788 1028.48Z" stroke="white" stroke-width="1.34" stroke-miterlimit="10"/>
<path d="M594.478 1000.1L597.729 993.471C598.231 992.45 599.115 991.663 600.188 991.285C601.261 990.907 602.436 990.967 603.455 991.453L613.068 996.08C613.813 996.648 612.455 997.929 611.411 1000.06L608.16 1006.68C607.116 1008.81 606.93 1010.67 606.026 1010.43L596.414 1005.8C595.398 1005.31 594.624 1004.43 594.262 1003.36C593.899 1002.29 593.977 1001.12 594.478 1000.1Z" stroke="white" stroke-width="3.19" stroke-miterlimit="10"/>
<path d="M634.557 598.384L536.954 551.229C528.151 546.976 517.496 550.727 513.156 559.606L492.439 601.995C488.099 610.875 491.717 621.521 500.52 625.774L598.123 672.929C606.926 677.182 617.581 673.431 621.921 664.552L642.638 622.163C646.978 613.283 643.36 602.637 634.557 598.384Z" stroke="white" stroke-width="2.7" stroke-miterlimit="10"/>
<path d="M628.067 605.423L561.303 573.193C554.801 570.054 546.931 572.821 543.726 579.373L526.841 613.891C523.635 620.443 526.308 628.299 532.81 631.438L599.574 663.669C606.076 666.807 613.946 664.04 617.151 657.488L634.036 622.971C637.242 616.418 634.569 608.562 628.067 605.423Z" stroke="white" stroke-width="1.55" stroke-miterlimit="10"/>
<path d="M545.982 593.038L553.906 596.886L566.58 586.712L567.244 603.363L575.168 607.211L574.377 617.33L582.672 610.854L601.031 619.769L613.561 608.821L613.12 625.639L622.293 630.093" stroke="white" stroke-width="1.32" stroke-linecap="round" stroke-linejoin="round"/>
<path d="M529.892 562.472L528.758 561.929C526.034 560.625 522.738 561.778 521.395 564.505L501.634 604.622C500.29 607.349 501.409 610.616 504.132 611.92L505.267 612.463C507.99 613.767 511.287 612.614 512.63 609.887L532.391 569.771C533.734 567.044 532.615 563.776 529.892 562.472Z" stroke="white" stroke-width="2.07" stroke-miterlimit="10"/>
<path d="M533.323 614.78L537.39 616.757C537.39 616.757 541.83 612.785 543.482 613.059C545.134 613.334 547.676 616.525 547.676 616.525C549.159 618.376 550.04 620.649 550.201 623.037L555.095 625.416" stroke="white" stroke-width="0.81" stroke-linecap="round" stroke-linejoin="round"/>
<path d="M551.196 623.575L555.262 625.552C555.262 625.552 559.703 621.58 561.355 621.855C563.007 622.129 565.549 625.32 565.549 625.32C566.937 627.122 567.687 629.345 567.681 631.642L573.038 634.246" stroke="white" stroke-width="0.81" stroke-linecap="round" stroke-linejoin="round"/>
<path d="M569.951 632.809L574.032 634.793C574.032 634.793 578.472 630.821 580.124 631.095C581.776 631.37 584.318 634.561 584.318 634.561C585.801 636.412 586.682 638.685 586.843 641.073L591.737 643.452" stroke="white" stroke-width="0.81" stroke-linecap="round" stroke-linejoin="round"/>
<path d="M587.754 641.569L591.834 643.553C591.834 643.553 596.275 639.58 597.927 639.855C599.579 640.129 602.121 643.321 602.121 643.321C603.83 645.262 603.673 647.264 603.81 649.198L609.629 652.027" stroke="white" stroke-width="0.81" stroke-linecap="round" stroke-linejoin="round"/>
<path d="M518.131 193.791L456.081 163.842C450.602 161.197 443.971 163.528 441.27 169.049L424.495 203.333C421.794 208.853 424.046 215.472 429.525 218.116L491.575 248.066C497.054 250.71 503.686 248.379 506.387 242.859L523.161 208.575C525.862 203.054 523.61 196.435 518.131 193.791Z" stroke="white" stroke-width="2.64" stroke-linecap="round" stroke-linejoin="round"/>
<path d="M442.877 218.226C447.711 209.466 454.763 205.522 464.529 207.54C464.529 207.54 466.534 181.098 482.279 188.681C498.023 196.263 477.404 213.723 477.404 213.723C481.508 216.096 484.528 219.962 485.84 224.526C487.152 229.089 486.657 234.002 484.456 238.25" stroke="white" stroke-width="1.32" stroke-linecap="round" stroke-linejoin="round"/>
<path d="M569.284 262.521L507.233 232.572C501.754 229.927 495.123 232.258 492.422 237.779L475.647 272.063C472.946 277.583 475.198 284.202 480.677 286.846L542.728 316.796C548.207 319.44 554.838 317.109 557.539 311.589L574.314 277.305C577.015 271.785 574.763 265.166 569.284 262.521Z" stroke="white" stroke-width="2.32" stroke-linecap="round" stroke-linejoin="round"/>
<path d="M494.023 286.97C498.879 278.203 505.916 274.252 515.675 276.284C515.675 276.284 517.687 249.828 533.446 257.418C549.205 265.007 528.55 282.467 528.55 282.467C540.686 290.264 538.069 302.743 535.603 306.994" stroke="white" stroke-width="1.32" stroke-linecap="round" stroke-linejoin="round"/>
<path d="M695.776 -11.507L679.963 20.9438L676.119 19.0819L678.038 13.0806L607.839 -20.9228L610.392 -26.1609L604.802 -28.816L609.755 -38.98L615.352 -36.339L618.049 -41.8752L688.122 -7.93307L691.526 -13.5659L695.776 -11.507Z" stroke="white" stroke-width="1.7" stroke-linecap="round" stroke-linejoin="round"/>
<path d="M695.735 -11.3856L691.486 -13.4507L688.082 -7.79558L618.033 -41.8396L615.335 -36.2818L609.74 -38.9306L604.787 -28.7271L610.375 -26.064L607.823 -20.8054L677.999 13.2999L676.081 19.3243L679.923 21.1918L685.277 10.1617L725.645 29.8687L725.075 33.0789L728.834 34.9055L736.74 18.6168L732.575 16.5926L730.61 19.2835L690.381 -0.355423L695.735 -11.3856Z" stroke="white" stroke-width="2.83" stroke-linecap="round" stroke-linejoin="round"/>
<path d="M17.8401 201.532L13.2957 210.899C12.7417 212.042 11.769 212.924 10.5866 213.358C9.40418 213.791 8.10642 213.74 6.97211 213.216L-67.946 178.555C-69.0817 178.003 -69.949 177.016 -70.3579 175.81C-70.7668 174.604 -70.684 173.277 -70.1276 172.121L-64.3796 160.273C-63.8065 159.139 -62.817 158.273 -61.6255 157.863C-60.4339 157.453 -59.1362 157.532 -58.0133 158.082L15.7289 195.167C16.8343 195.732 17.6732 196.713 18.0673 197.901C18.4615 199.09 18.38 200.392 17.8401 201.532Z" stroke="white" stroke-width="2.32" stroke-miterlimit="10"/>
<path d="M-17.3962 187.545C-18.728 186.896 -20.3403 187.47 -20.9973 188.828C-21.6544 190.186 -21.1073 191.813 -19.7755 192.462L2.64303 203.386C3.97487 204.035 5.58717 203.46 6.24421 202.102C6.90124 200.744 6.35421 199.117 5.02238 198.468L-17.3962 187.545Z" stroke="white" stroke-width="1.04" stroke-miterlimit="10"/>
<path d="M27.6825 209.475L25.1647 214.606C24.7776 215.394 24.0944 216.001 23.2654 216.291C22.4364 216.582 21.5295 216.533 20.7442 216.155L13.321 212.581C12.7377 212.144 13.7956 211.155 14.598 209.519L17.1159 204.389C17.9182 202.753 18.0362 201.346 18.7578 201.502L26.1811 205.075C26.9663 205.453 27.5657 206.129 27.8473 206.954C28.1288 207.779 28.0696 208.686 27.6825 209.475Z" stroke="white" stroke-width="2.46" stroke-miterlimit="10"/>
<path d="M622.936 268.002L605.148 259.461L598.308 262.191L594.1 260.17L592.354 253.318L574.342 244.669C572.284 243.676 570.713 241.906 569.975 239.747C569.236 237.587 569.39 235.214 570.402 233.148L610.554 151.509C611.573 149.446 613.366 147.86 615.541 147.1C617.716 146.339 620.095 146.465 622.156 147.451L637.419 154.779C637.419 154.779 641.078 146.211 650.561 150.765C660.044 155.318 656.273 163.832 656.273 163.832L670.765 170.79C672.818 171.785 674.384 173.555 675.12 175.713C675.856 177.871 675.702 180.24 674.691 182.305L634.518 263.986C633.491 266.036 631.698 267.609 629.529 268.361C627.36 269.113 624.991 268.984 622.936 268.002Z" stroke="white" stroke-width="2.32" stroke-linecap="round" stroke-linejoin="round"/>
<path d="M646.676 158.712C647.815 159.26 649.194 158.777 649.756 157.632C650.317 156.488 649.849 155.115 648.71 154.567C647.571 154.018 646.192 154.502 645.63 155.646C645.069 156.791 645.537 158.163 646.676 158.712Z" stroke="white" stroke-width="1.23" stroke-linecap="round" stroke-linejoin="round"/>
<path d="M654.615 208.794L630.011 258.913C628.695 261.135 626.959 262.234 624.256 260.672L579.086 238.938C578.557 238.794 578.071 238.527 577.668 238.157C577.265 237.788 576.957 237.327 576.769 236.813C576.581 236.299 576.519 235.747 576.586 235.201C576.654 234.655 576.851 234.132 577.16 233.675L601.839 183.401C605.678 177.985 655.52 200.59 654.615 208.794Z" stroke="white" stroke-width="1.18" stroke-linecap="round" stroke-linejoin="round"/>
<path d="M630.229 390.594L625.678 399.975C625.117 401.132 624.126 402.022 622.924 402.448C621.723 402.875 620.408 402.804 619.27 402.251L544.366 367.597C543.228 367.044 542.359 366.054 541.951 364.845C541.544 363.635 541.63 362.306 542.191 361.149L547.939 349.302C548.5 348.145 549.491 347.255 550.693 346.828C551.894 346.401 553.209 346.472 554.347 347.025L628.068 384.117C628.634 384.392 629.139 384.778 629.555 385.253C629.97 385.728 630.287 386.283 630.488 386.885C630.689 387.487 630.769 388.124 630.725 388.761C630.68 389.397 630.512 390.02 630.229 390.594Z" stroke="white" stroke-width="2.32" stroke-miterlimit="10"/>
<path d="M594.978 376.594C593.646 375.945 592.034 376.519 591.377 377.877C590.72 379.235 591.267 380.862 592.599 381.511L615.017 392.435C616.349 393.084 617.961 392.509 618.618 391.151C619.275 389.793 618.728 388.166 617.396 387.517L594.978 376.594Z" stroke="white" stroke-width="1.04" stroke-miterlimit="10"/>
<path d="M640.064 398.553L637.553 403.67C637.165 404.46 636.482 405.068 635.652 405.361C634.822 405.654 633.914 405.608 633.125 405.233L625.702 401.66C625.119 401.223 626.163 400.226 626.972 398.577L629.483 393.46C630.292 391.811 630.417 390.425 631.139 390.581L638.632 394.188C639.396 394.578 639.974 395.254 640.241 396.069C640.509 396.885 640.445 397.777 640.064 398.553Z" stroke="white" stroke-width="2.32" stroke-miterlimit="10"/>
<path d="M-21.355 353.705C-16.5137 344.931 -9.46185 340.987 0.296835 343.019C0.296835 343.019 2.30885 316.563 18.0537 324.146C33.7985 331.728 13.1719 349.202 13.1719 349.202C25.3073 356.999 22.6912 369.478 20.2243 373.729" stroke="white" stroke-width="1.32" stroke-linecap="round" stroke-linejoin="round"/>
<path d="M105.05 397.999L43.0001 368.05C37.521 365.405 30.8897 367.737 28.1887 373.257L11.4139 407.541C8.71293 413.061 10.965 419.68 16.4441 422.325L78.4945 452.274C83.9736 454.918 90.6049 452.587 93.3059 447.067L110.08 412.783C112.781 407.263 110.529 400.644 105.05 397.999Z" stroke="white" stroke-width="2.32" stroke-linecap="round" stroke-linejoin="round"/>
<path d="M29.7559 422.412C34.6043 413.659 41.642 409.708 51.4076 411.726C51.4076 411.726 53.4127 385.284 69.1716 392.874C84.9305 400.463 64.2827 417.909 64.2827 417.909C68.387 420.282 71.4066 424.148 72.7188 428.712C74.0309 433.276 73.5357 438.188 71.3351 442.436" stroke="white" stroke-width="1.32" stroke-linecap="round" stroke-linejoin="round"/>
<path d="M49.7417 474.204L41.8354 490.445L38.062 488.616L38.6321 485.415L-1.77441 465.738L3.33045 455.252L43.6107 474.867L45.5756 472.184L49.7417 474.204Z" stroke="white" stroke-width="1.7" stroke-linecap="round" stroke-linejoin="round"/>
<path d="M131.713 897.274L116.939 890.176C115.095 889.29 112.863 890.071 111.954 891.92L99.6848 916.88C98.7757 918.73 99.5337 920.947 101.378 921.833L116.152 928.932C117.996 929.818 120.228 929.037 121.137 927.188L133.406 902.227C134.315 900.378 133.557 898.16 131.713 897.274Z" stroke="white" stroke-width="2.32" stroke-miterlimit="10"/>
<path d="M153.109 935.746L138.335 928.648C136.491 927.762 134.259 928.543 133.35 930.392L121.081 955.353C120.172 957.202 120.93 959.42 122.774 960.306L137.548 967.404C139.392 968.29 141.624 967.509 142.533 965.66L154.802 940.699C155.711 938.85 154.953 936.632 153.109 935.746Z" stroke="white" stroke-width="2.32" stroke-miterlimit="10"/>
<path d="M108.825 925.174C108.825 925.174 103.085 950.571 91.2149 961.039C79.3447 971.506 56.9529 972.42 56.9529 972.42L53.9648 978.505C53.9648 978.505 82.3394 997.379 103.718 990.44C125.096 983.501 130.264 963.402 130.264 963.402" stroke="white" stroke-width="2.32" stroke-miterlimit="10"/>
<path d="M42.4506 972.301C44.1091 973.099 46.1164 972.396 46.9339 970.73C47.7514 969.063 47.0697 967.065 45.4111 966.267C43.7526 965.468 41.7454 966.172 40.9278 967.838C40.1103 969.504 40.7921 971.503 42.4506 972.301Z" stroke="white" stroke-width="1.25" stroke-miterlimit="10"/>
<path d="M22.5604 962.509C24.2189 963.307 26.2261 962.604 27.0437 960.938C27.8612 959.271 27.1794 957.273 25.5209 956.475C23.8624 955.677 21.8552 956.38 21.0377 958.046C20.2202 959.713 20.9018 961.711 22.5604 962.509Z" stroke="white" stroke-width="1.25" stroke-miterlimit="10"/>
<path d="M228.016 854.752L190.249 836.611C186.212 834.671 181.326 836.381 179.336 840.428L146.423 907.372C144.433 911.42 146.092 916.273 150.129 918.212L187.897 936.354C191.934 938.293 196.819 936.584 198.809 932.537L231.723 865.593C233.713 861.545 232.053 856.692 228.016 854.752Z" stroke="white" stroke-width="2.32" stroke-linecap="round" stroke-linejoin="round"/>
<path d="M221.57 857.852L191.784 843.541C188.684 842.052 184.933 843.365 183.405 846.473L158.736 896.658C157.208 899.766 158.482 903.492 161.581 904.982L191.367 919.292C194.466 920.781 198.217 919.468 199.745 916.36L224.415 866.176C225.943 863.067 224.669 859.341 221.57 857.852Z" stroke="white" stroke-width="1.31" stroke-linecap="round" stroke-linejoin="round"/>
<path d="M171.298 922.603C172.98 923.413 175.015 922.699 175.844 921.01C176.673 919.32 175.982 917.294 174.3 916.485C172.618 915.675 170.583 916.388 169.754 918.078C168.925 919.768 169.616 921.794 171.298 922.603Z" stroke="white" stroke-width="1.31" stroke-linecap="round" stroke-linejoin="round"/>
<path d="M164.081 1053.42L66.4786 1006.27C57.6754 1002.02 47.0208 1005.77 42.6808 1014.65L21.9632 1057.03C17.6232 1065.91 21.2414 1076.56 30.0446 1080.81L127.647 1127.97C136.45 1132.22 147.105 1128.47 151.445 1119.59L172.163 1077.2C176.503 1068.32 172.884 1057.68 164.081 1053.42Z" stroke="white" stroke-width="2.32" stroke-miterlimit="10"/>
<path d="M59.4081 1017.53L58.2735 1016.99C55.5502 1015.69 52.2537 1016.84 50.9104 1019.57L31.1495 1059.68C29.8063 1062.41 30.925 1065.68 33.6483 1066.98L34.7829 1067.53C37.5062 1068.83 40.8026 1067.68 42.1459 1064.95L61.9068 1024.83C63.25 1022.11 62.1314 1018.84 59.4081 1017.53Z" stroke="white" stroke-width="2.07" stroke-miterlimit="10"/>
<path d="M218.31 716.583L156.26 686.633C150.781 683.989 144.149 686.32 141.448 691.84L124.674 726.124C121.973 731.645 124.225 738.263 129.704 740.908L191.754 770.857C197.233 773.502 203.864 771.171 206.565 765.65L223.34 731.366C226.041 725.846 223.789 719.227 218.31 716.583Z" stroke="white" stroke-width="2.32" stroke-linecap="round" stroke-linejoin="round"/>
<path d="M143.042 741.011C147.89 732.258 154.942 728.314 164.708 730.332C164.708 730.332 166.713 703.89 182.458 711.473C198.202 719.055 177.569 736.508 177.569 736.508C189.718 744.312 187.102 756.791 184.621 761.036" stroke="white" stroke-width="1.32" stroke-linecap="round" stroke-linejoin="round"/>
<path d="M269.461 785.315L207.411 755.366C201.932 752.721 195.301 755.053 192.6 760.573L175.825 794.857C173.124 800.377 175.376 806.996 180.855 809.64L242.905 839.59C248.384 842.234 255.016 839.903 257.717 834.383L274.492 800.099C277.193 794.579 274.94 787.96 269.461 785.315Z" stroke="white" stroke-width="2.32" stroke-linecap="round" stroke-linejoin="round"/>
<path d="M194.189 809.788C199.044 801.02 206.082 797.069 215.84 799.101C215.84 799.101 217.853 772.646 233.597 780.228C249.342 787.811 228.723 805.27 228.723 805.27C240.851 813.081 238.242 825.546 235.768 829.812" stroke="white" stroke-width="1.32" stroke-linecap="round" stroke-linejoin="round"/>
<path d="M413.358 839.723L397.545 872.173L393.715 870.318L395.641 864.303L325.442 830.299L327.995 825.061L322.398 822.42L327.35 812.256L332.947 814.897L335.652 809.347L405.724 843.289L409.121 837.67L413.358 839.723Z" stroke="white" stroke-width="1.7" stroke-linecap="round" stroke-linejoin="round"/>
<path d="M311.587 810.062L325.103 816.715" stroke="white" stroke-width="2.27" stroke-linecap="round" stroke-linejoin="round"/>
<path d="M375.392 841.174L370.304 851.511" stroke="white" stroke-width="1.13" stroke-linecap="round" stroke-linejoin="round"/>
<path d="M366.894 843.414L364.35 848.582" stroke="white" stroke-width="1.13" stroke-linecap="round" stroke-linejoin="round"/>
<path d="M363.12 836.054L358.397 845.649" stroke="white" stroke-width="1.13" stroke-linecap="round" stroke-linejoin="round"/>
<path d="M351.566 829.442L346.478 839.779" stroke="white" stroke-width="1.13" stroke-linecap="round" stroke-linejoin="round"/>
<path d="M343.068 831.687L340.525 836.855" stroke="white" stroke-width="1.13" stroke-linecap="round" stroke-linejoin="round"/>
<path d="M339.295 824.327L334.572 833.922" stroke="white" stroke-width="1.13" stroke-linecap="round" stroke-linejoin="round"/>
<path d="M354.989 837.552L352.445 842.72" stroke="white" stroke-width="1.13" stroke-linecap="round" stroke-linejoin="round"/>
<path d="M387.36 846.939L382.645 856.52" stroke="white" stroke-width="1.13" stroke-linecap="round" stroke-linejoin="round"/>
<path d="M379.236 848.424L376.692 853.592" stroke="white" stroke-width="1.13" stroke-linecap="round" stroke-linejoin="round"/>
<path d="M454.299 870.065L446.392 886.307L442.633 884.484L443.203 881.283L402.776 861.614L407.88 851.127L448.168 870.729L450.132 868.046L454.299 870.065Z" stroke="white" stroke-width="1.7" stroke-linecap="round" stroke-linejoin="round"/>
<path d="M413.317 839.844L409.082 837.786L405.686 843.427L335.636 809.383L332.931 814.955L327.336 812.306L322.383 822.509L327.979 825.158L325.426 830.417L395.602 864.522L393.677 870.561L397.505 872.421L402.859 861.391L443.248 881.091L442.678 884.301L446.437 886.128L454.343 869.839L450.178 867.815L448.213 870.506L407.964 850.874L413.317 839.844Z" stroke="white" stroke-width="2.32" stroke-linecap="round" stroke-linejoin="round"/>
<path d="M58.4225 589.491L64.3157 577.344C65.0619 575.853 66.3559 574.713 67.9173 574.169C69.4787 573.625 71.1817 573.723 72.6573 574.44L169.583 619.288C171.071 620.011 172.206 621.305 172.739 622.886C173.272 624.467 173.159 626.205 172.426 627.717L164.983 643.056C164.249 644.569 162.954 645.732 161.384 646.29C159.813 646.848 158.094 646.755 156.607 646.032L61.1468 598.021C60.4077 597.653 59.7502 597.139 59.2123 596.509C58.6744 595.879 58.267 595.146 58.0135 594.353C57.7601 593.559 57.6657 592.721 57.7359 591.886C57.8061 591.052 58.0395 590.237 58.4225 589.491Z" stroke="white" stroke-width="2.32" stroke-miterlimit="10"/>
<path d="M104.059 607.611C105.785 608.453 107.874 607.711 108.724 605.954C109.574 604.198 108.863 602.092 107.137 601.25L78.1286 587.115C76.4018 586.274 74.313 587.016 73.4631 588.773C72.6131 590.529 73.3239 592.635 75.0506 593.477L104.059 607.611Z" stroke="white" stroke-width="1.34" stroke-miterlimit="10"/>
<path d="M45.6942 579.195L48.9453 572.57C49.4467 571.548 50.3309 570.761 51.4042 570.383C52.4775 570.005 53.6523 570.065 54.6715 570.551L64.2838 575.178C65.0288 575.746 63.6716 577.027 62.6271 579.155L59.376 585.78C58.3316 587.909 58.1463 589.771 57.2422 589.528L47.6299 584.901C46.6144 584.407 45.8405 583.53 45.4777 582.46C45.1149 581.391 45.1927 580.216 45.6942 579.195Z" stroke="white" stroke-width="3.19" stroke-miterlimit="10"/>
<path d="M577.666 1022L515.616 992.054C510.137 989.409 503.506 991.74 500.805 997.261L484.03 1031.54C481.329 1037.06 483.581 1043.68 489.06 1046.33L551.11 1076.28C556.59 1078.92 563.221 1076.59 565.922 1071.07L582.697 1036.79C585.398 1031.27 583.145 1024.65 577.666 1022Z" stroke="white" stroke-width="2.64" stroke-linecap="round" stroke-linejoin="round"/>
<path d="M502.415 1046.44C507.263 1037.68 514.301 1033.73 524.067 1035.75C524.067 1035.75 526.072 1009.31 541.831 1016.9C557.59 1024.49 536.942 1041.93 536.942 1041.93C549.07 1049.75 546.461 1062.21 543.994 1066.46" stroke="white" stroke-width="1.32" stroke-linecap="round" stroke-linejoin="round"/>
<path d="M82.8203 691.949L35.2844 668.889C34.1998 668.363 32.8871 668.828 32.3523 669.928L25.9816 683.024C25.4468 684.124 25.8924 685.441 26.9769 685.968L74.5129 709.028C75.5974 709.554 76.9102 709.089 77.445 707.989L83.8157 694.893C84.3505 693.793 83.9049 692.475 82.8203 691.949Z" stroke="white" stroke-width="0.78" stroke-linecap="round" stroke-linejoin="round"/>
<path d="M43.101 698.181L24.7898 689.376C23.8986 688.948 22.82 689.326 22.3807 690.22L10.657 714.087C10.2177 714.981 10.584 716.053 11.4752 716.482L29.7864 725.287C30.6776 725.715 31.7561 725.338 32.1954 724.443L43.9192 700.576C44.3585 699.682 43.9921 698.61 43.101 698.181Z" stroke="white" stroke-width="0.64" stroke-linecap="round" stroke-linejoin="round"/>
<path d="M72.9917 712.895L54.6805 704.091C53.7893 703.662 52.7107 704.04 52.2714 704.934L40.5476 728.801C40.1083 729.695 40.4747 730.768 41.3659 731.196L59.6771 740.001C60.5683 740.429 61.6469 740.052 62.0862 739.158L73.8099 715.291C74.2492 714.396 73.8829 713.324 72.9917 712.895Z" stroke="white" stroke-width="0.64" stroke-linecap="round" stroke-linejoin="round"/>
<path d="M161.64 1007.87L146.95 1000.81C145.953 1000.33 145.192 999.47 144.835 998.424C144.477 997.378 144.552 996.229 145.044 995.228L157.529 965.168C158.553 963.086 159.383 961.397 161.445 962.388L182.701 972.602C184.778 973.6 184.591 974.015 182.938 977.378L167.198 1005.87C166.711 1006.86 165.855 1007.63 164.815 1008C163.776 1008.37 162.635 1008.32 161.64 1007.87Z" stroke="white" stroke-width="2.32" stroke-linecap="round" stroke-linejoin="round"/>
<path d="M194.711 1024.14L180.049 1017.1C179.052 1016.62 178.291 1015.76 177.933 1014.72C177.576 1013.67 177.651 1012.52 178.142 1011.52L190.628 981.461C191.651 979.378 192.481 977.69 194.544 978.681L215.8 988.895C217.876 989.893 217.69 990.307 216.037 993.671L200.296 1022.17C199.807 1023.16 198.946 1023.93 197.899 1024.3C196.853 1024.67 195.707 1024.61 194.711 1024.14Z" stroke="white" stroke-width="2.32" stroke-linecap="round" stroke-linejoin="round"/>
<path d="M162.121 957.952L185.969 969.504C185.969 969.504 190.666 959.865 178.728 954.082C166.789 948.3 162.121 957.952 162.121 957.952Z" stroke="white" stroke-width="2.32" stroke-linecap="round" stroke-linejoin="round"/>
<path d="M195.162 974.214L219.011 985.765C219.011 985.765 223.707 976.127 211.769 970.344C199.831 964.561 195.162 974.214 195.162 974.214Z" stroke="white" stroke-width="2.32" stroke-linecap="round" stroke-linejoin="round"/>
<path d="M271.976 1071.42L136.493 1005.08C133.645 1003.68 130.197 1004.92 128.791 1007.84L128.584 1008.27C127.178 1011.2 128.347 1014.7 131.195 1016.09L266.678 1082.43C269.526 1083.83 272.975 1082.59 274.381 1079.66L274.588 1079.23C275.994 1076.31 274.824 1072.81 271.976 1071.42Z" stroke="white" stroke-width="2.32" stroke-linecap="round" stroke-linejoin="round"/>
<path d="M362.17 1009.74L254.46 957.745C250.895 956.024 246.58 957.541 244.823 961.133L213.065 1026.05C211.308 1029.64 212.773 1033.95 216.338 1035.67L324.048 1087.67C327.613 1089.39 331.927 1087.87 333.685 1084.28L365.443 1019.36C367.2 1015.77 365.735 1011.46 362.17 1009.74Z" stroke="white" stroke-width="2.32" stroke-linecap="round" stroke-linejoin="round"/>
<path d="M280.96 982.861L259.376 972.505C257.927 971.811 256.174 972.424 255.46 973.875L229.807 1026C229.093 1027.45 229.688 1029.19 231.136 1029.89L252.721 1040.24C254.169 1040.94 255.922 1040.32 256.636 1038.87L282.289 986.746C283.004 985.295 282.408 983.556 280.96 982.861Z" stroke="white" stroke-width="1.04" stroke-linecap="round" stroke-linejoin="round"/>
<path d="M346.517 1015.96L291.21 989.128C289.947 988.516 288.419 989.057 287.796 990.337L280.381 1005.58C279.758 1006.86 280.277 1008.4 281.54 1009.01L336.847 1035.84C338.11 1036.45 339.638 1035.91 340.261 1034.63L347.676 1019.38C348.298 1018.1 347.78 1016.57 346.517 1015.96Z" stroke="white" stroke-width="0.91" stroke-linecap="round" stroke-linejoin="round"/>
<path d="M300.295 1023.22L278.995 1012.98C277.957 1012.48 276.7 1012.92 276.188 1013.96L262.549 1041.73C262.037 1042.77 262.464 1044.02 263.502 1044.52L284.802 1054.76C285.84 1055.26 287.097 1054.82 287.609 1053.78L301.249 1026.01C301.761 1024.97 301.334 1023.72 300.295 1023.22Z" stroke="white" stroke-width="0.75" stroke-linecap="round" stroke-linejoin="round"/>
<path d="M124.901 660.251L120.349 669.631C119.788 670.788 118.797 671.678 117.596 672.105C116.394 672.532 115.08 672.461 113.941 671.908L39.0374 637.254C37.8993 636.701 37.0308 635.711 36.623 634.501C36.2152 633.292 36.3014 631.963 36.8628 630.806L42.6107 618.958C43.172 617.801 44.1625 616.912 45.3642 616.485C46.5659 616.058 47.8804 616.129 49.0184 616.682L122.719 653.781C123.286 654.054 123.792 654.439 124.209 654.912C124.626 655.386 124.944 655.939 125.147 656.541C125.35 657.142 125.433 657.779 125.39 658.416C125.348 659.053 125.182 659.676 124.901 660.251Z" stroke="white" stroke-width="2.32" stroke-miterlimit="10"/>
<path d="M89.6643 646.262C88.3325 645.613 86.7202 646.188 86.0632 647.546C85.4062 648.904 85.9532 650.531 87.285 651.18L109.704 662.103C111.035 662.752 112.648 662.178 113.305 660.82C113.962 659.462 113.415 657.835 112.083 657.186L89.6643 646.262Z" stroke="white" stroke-width="1.04" stroke-miterlimit="10"/>
<path d="M134.735 668.213L132.225 673.329C131.837 674.12 131.153 674.728 130.324 675.021C129.494 675.313 128.586 675.267 127.797 674.893L120.374 671.319C119.791 670.882 120.869 669.815 121.644 668.237L124.155 663.12C124.964 661.471 125.089 660.084 125.811 660.24L133.234 663.813C133.623 664 133.97 664.263 134.256 664.585C134.542 664.907 134.761 665.284 134.9 665.692C135.04 666.101 135.097 666.533 135.069 666.966C135.04 667.398 134.927 667.822 134.735 668.213Z" stroke="white" stroke-width="2.46" stroke-miterlimit="10"/>
<path d="M122.351 865.754C113.59 871.654 82.5375 856.516 79.7535 849.226C77.432 840.853 89.2922 838.566 97.7757 825.676C106.835 811.897 99.7681 798.284 102.237 793.223C108.635 780.201 137.869 806.559 140.3 829.221C141.472 838.626 131.098 859.848 122.351 865.754Z" stroke="white" stroke-width="2.32" stroke-linecap="round" stroke-linejoin="round"/>
<path d="M101.836 794.347L95.6619 791.367L94.5977 798.717L102.197 802.472L101.836 794.347Z" stroke="white" stroke-width="2.32" stroke-linecap="round" stroke-linejoin="round"/>
<path d="M81.8139 841.674L74.1665 837.982L79.3418 832.578L87.557 836.458L81.8139 841.674Z" stroke="white" stroke-width="2.32" stroke-linecap="round" stroke-linejoin="round"/>
<path d="M121.248 847.608C116.578 850.758 100.02 842.624 98.5085 838.782C97.2446 834.293 103.591 833.097 108.148 826.221C112.997 818.859 109.213 811.592 110.527 808.882C113.943 801.927 129.57 816.018 130.863 828.109C131.451 833.126 125.918 844.458 121.248 847.608Z" stroke="white" stroke-width="0.95" stroke-linecap="round" stroke-linejoin="round"/>
<path d="M8.61158 516.086C9.75084 516.634 11.1296 516.151 11.6912 515.007C12.2528 513.862 11.7845 512.49 10.6452 511.941C9.50596 511.393 8.12722 511.876 7.56565 513.02C7.00408 514.165 7.47232 515.538 8.61158 516.086Z" stroke="white" stroke-width="1.23" stroke-linecap="round" stroke-linejoin="round"/>
<path d="M394.256 896.494L296.654 849.339C287.851 845.086 277.196 848.837 272.856 857.716L252.139 900.105C247.799 908.985 251.417 919.631 260.22 923.884L357.823 971.039C366.626 975.292 377.28 971.541 381.62 962.662L402.338 920.273C406.678 911.393 403.06 900.747 394.256 896.494Z" stroke="white" stroke-width="2.32" stroke-miterlimit="10"/>
<path d="M387.768 903.534L321.003 871.303C314.501 868.164 306.632 870.931 303.427 877.484L286.541 912.001C283.336 918.553 286.009 926.409 292.511 929.548L359.275 961.779C365.777 964.918 373.646 962.151 376.852 955.598L393.737 921.081C396.942 914.529 394.27 906.673 387.768 903.534Z" stroke="white" stroke-width="1.55" stroke-miterlimit="10"/>
<path d="M305.682 891.152L313.607 895L326.281 884.826L326.959 901.484L334.883 905.331L334.071 915.459L342.386 908.975L360.731 917.883L373.255 906.949L372.821 923.753L381.994 928.207" stroke="white" stroke-width="1.32" stroke-linecap="round" stroke-linejoin="round"/>
<path d="M289.585 860.598L288.451 860.054C285.728 858.75 282.431 859.904 281.088 862.631L261.327 902.747C259.984 905.474 261.102 908.742 263.826 910.046L264.96 910.589C267.684 911.893 270.98 910.739 272.323 908.013L292.084 867.896C293.428 865.169 292.309 861.902 289.585 860.598Z" stroke="white" stroke-width="2.07" stroke-miterlimit="10"/>
<path d="M293.017 912.905L297.112 914.895C297.112 914.895 301.559 910.909 303.218 911.205C304.877 911.5 307.405 914.649 307.405 914.649C308.891 916.499 309.773 918.772 309.93 921.162L314.824 923.541" stroke="white" stroke-width="0.81" stroke-linecap="round" stroke-linejoin="round"/>
<path d="M310.889 921.698L314.956 923.675C314.956 923.675 319.403 919.688 321.062 919.984C322.721 920.279 325.249 923.428 325.249 923.428C326.633 925.232 327.382 927.454 327.381 929.75L332.724 932.347" stroke="white" stroke-width="0.81" stroke-linecap="round" stroke-linejoin="round"/>
<path d="M329.588 930.905L333.655 932.882C333.655 932.882 338.103 928.896 339.762 929.191C341.421 929.487 343.948 932.636 343.948 932.636C345.429 934.488 346.31 936.76 346.473 939.148L351.367 941.527" stroke="white" stroke-width="0.81" stroke-linecap="round" stroke-linejoin="round"/>
<path d="M347.532 939.736L351.599 941.713C351.599 941.713 356.046 937.726 357.705 938.022C359.364 938.317 361.892 941.466 361.892 941.466C363.595 943.422 363.437 945.424 363.595 947.351L369.4 950.173" stroke="white" stroke-width="0.81" stroke-linecap="round" stroke-linejoin="round"/>
<path d="M34.3779 834.1L10.9442 822.827C9.22032 821.993 7.90513 820.508 7.28639 818.695C6.66764 816.883 6.79573 814.892 7.64265 813.158L23.2707 768.293C24.1282 766.566 25.6307 765.238 27.4513 764.601C29.2718 763.963 31.2629 764.067 32.9911 764.889L68.0714 781.765C69.7953 782.598 71.1105 784.084 71.7292 785.896C72.3479 787.708 72.2199 789.699 71.3729 791.433L44.0561 830.675C43.2023 832.396 41.7086 833.719 39.8978 834.36C38.0869 835.001 36.1041 834.907 34.3779 834.1Z" stroke="white" stroke-width="2.32" stroke-linecap="round" stroke-linejoin="round"/>
<path d="M58.6982 770.643L47.7153 765.316C46.1969 764.579 44.3591 765.23 43.6103 766.769C42.8615 768.308 43.4854 770.152 45.0038 770.889L55.9867 776.216C57.5051 776.952 59.343 776.302 60.0918 774.763C60.8405 773.224 60.2166 771.379 58.6982 770.643Z" stroke="white" stroke-width="2.32" stroke-linecap="round" stroke-linejoin="round"/>
<path d="M22.3398 770.856L69.7109 794.174" stroke="white" stroke-width="1.16" stroke-linecap="round" stroke-linejoin="round"/>
<path d="M438.478 1051.68L420.732 1043.16L413.907 1045.9L409.698 1043.88L407.883 1036.99L389.926 1028.37C387.872 1027.38 386.306 1025.61 385.571 1023.45C384.835 1021.29 384.989 1018.92 386 1016.86L426.173 935.176C427.193 933.119 428.984 931.539 431.153 930.781C433.323 930.022 435.696 930.145 437.755 931.125L453.032 938.46C453.032 938.46 456.677 929.885 466.16 934.439C475.643 938.992 471.872 947.506 471.872 947.506L486.307 954.437C488.362 955.429 489.932 957.196 490.671 959.352C491.411 961.508 491.261 963.879 490.254 965.944L450.081 1047.63C449.062 1049.69 447.269 1051.27 445.094 1052.03C442.919 1052.8 440.54 1052.67 438.478 1051.68Z" stroke="white" stroke-width="2.32" stroke-linecap="round" stroke-linejoin="round"/>
<path d="M462.275 942.419C463.414 942.967 464.793 942.484 465.354 941.339C465.916 940.195 465.448 938.822 464.308 938.274C463.169 937.725 461.79 938.209 461.229 939.353C460.667 940.498 461.135 941.87 462.275 942.419Z" stroke="white" stroke-width="1.23" stroke-linecap="round" stroke-linejoin="round"/>
<path d="M470.208 992.517L445.59 1042.66C444.259 1044.88 442.537 1045.98 439.821 1044.42L394.651 1022.68C394.123 1022.54 393.639 1022.27 393.238 1021.91C392.836 1021.54 392.529 1021.08 392.342 1020.57C392.154 1020.05 392.092 1019.5 392.16 1018.96C392.227 1018.42 392.423 1017.9 392.732 1017.44L417.432 967.124C421.263 961.687 471.092 984.285 470.208 992.517Z" stroke="white" stroke-width="1.18" stroke-linecap="round" stroke-linejoin="round"/>
<path d="M293.016 -38.3302L255.248 -56.4722C251.211 -58.4114 246.325 -56.7021 244.335 -52.6545L211.422 14.2896C209.432 18.3372 211.091 23.1904 215.128 25.1295L252.896 43.2715C256.933 45.2107 261.818 43.5014 263.808 39.4538L296.722 -27.4903C298.712 -31.5379 297.052 -36.3911 293.016 -38.3302Z" stroke="white" stroke-width="2.32" stroke-linecap="round" stroke-linejoin="round"/>
<path d="M286.556 -35.2427L256.77 -49.553C253.671 -51.0421 249.92 -49.7296 248.392 -46.6216L223.722 3.56327C222.194 6.67135 223.468 10.3981 226.567 11.8872L256.353 26.1975C259.453 27.6866 263.204 26.3741 264.732 23.266L289.401 -26.9188C290.929 -30.0269 289.655 -33.7536 286.556 -35.2427Z" stroke="white" stroke-width="1.31" stroke-linecap="round" stroke-linejoin="round"/>
<path d="M236.297 29.523C237.979 30.3326 240.014 29.6193 240.843 27.9297C241.672 26.2401 240.981 24.214 239.299 23.4044C237.617 22.5948 235.582 23.3081 234.753 24.9978C233.924 26.6874 234.615 28.7134 236.297 29.523Z" stroke="white" stroke-width="1.31" stroke-linecap="round" stroke-linejoin="round"/>
<path d="M452.213 378.97L405.231 356.353C400.767 354.204 395.365 356.097 393.164 360.582L370.006 407.782C367.805 412.267 369.64 417.645 374.104 419.794L421.086 442.412C425.55 444.561 430.952 442.667 433.153 438.183L456.311 390.982C458.512 386.497 456.677 381.119 452.213 378.97Z" stroke="white" stroke-width="2.32" stroke-miterlimit="10"/>
<path d="M510.792 357.554L496.018 350.456C494.174 349.57 491.942 350.351 491.033 352.2L478.763 377.16C477.854 379.01 478.612 381.227 480.456 382.114L495.23 389.212C497.074 390.098 499.306 389.317 500.216 387.468L512.485 362.507C513.394 360.658 512.636 358.44 510.792 357.554Z" stroke="white" stroke-width="2.32" stroke-miterlimit="10"/>
<path d="M532.195 396.013L517.421 388.915C515.577 388.029 513.345 388.81 512.436 390.659L500.167 415.62C499.258 417.469 500.016 419.687 501.86 420.573L516.634 427.671C518.478 428.557 520.71 427.776 521.619 425.927L533.888 400.966C534.797 399.117 534.039 396.899 532.195 396.013Z" stroke="white" stroke-width="2.51" stroke-miterlimit="10"/>
<path d="M487.905 385.454C487.905 385.454 482.164 410.851 470.294 421.319C458.424 431.786 436.032 432.7 436.032 432.7L433.037 438.799C433.037 438.799 461.398 457.666 482.79 450.734C504.182 443.802 509.336 423.696 509.336 423.696" stroke="white" stroke-width="2.32" stroke-miterlimit="10"/>
<path d="M441.822 385.721L406.306 368.587C403.454 367.211 400.002 368.424 398.596 371.295L387.736 393.48C386.33 396.352 387.503 399.796 390.354 401.171L425.871 418.306C428.723 419.682 432.174 418.469 433.58 415.597L444.441 393.412C445.847 390.541 444.674 387.097 441.822 385.721Z" stroke="white" stroke-width="1.25" stroke-miterlimit="10"/>
<path d="M421.515 432.572C423.173 433.371 425.18 432.667 425.998 431.001C426.815 429.335 426.134 427.337 424.475 426.538C422.817 425.74 420.809 426.443 419.992 428.109C419.174 429.776 419.856 431.774 421.515 432.572Z" stroke="white" stroke-width="1.25" stroke-miterlimit="10"/>
<path d="M401.639 422.792C403.298 423.59 405.305 422.886 406.122 421.22C406.94 419.554 406.258 417.556 404.6 416.758C402.941 415.959 400.934 416.663 400.116 418.329C399.299 419.995 399.981 421.993 401.639 422.792Z" stroke="white" stroke-width="1.25" stroke-miterlimit="10"/>
<path d="M381.834 413.041C383.493 413.84 385.5 413.136 386.317 411.47C387.135 409.804 386.453 407.806 384.795 407.007C383.136 406.209 381.129 406.912 380.311 408.579C379.494 410.245 380.175 412.243 381.834 413.041Z" stroke="white" stroke-width="1.25" stroke-miterlimit="10"/>
<path d="M397.867 53.5441L403.76 41.398C404.5 39.9191 405.779 38.7841 407.325 38.2352C408.87 37.6862 410.559 37.7668 412.032 38.4598L509.062 83.2698C510.55 83.9931 511.685 85.2875 512.218 86.8683C512.751 88.4491 512.639 90.1869 511.905 91.6992L504.462 107.039C503.728 108.551 502.434 109.714 500.863 110.272C499.292 110.83 497.574 110.738 496.086 110.014L400.612 61.9964C399.136 61.2556 398.018 59.9496 397.503 58.3651C396.989 56.7805 397.119 55.0468 397.867 53.5441Z" stroke="white" stroke-width="2.32" stroke-miterlimit="10"/>
<path d="M443.496 71.6397C445.223 72.4811 447.312 71.7391 448.162 69.9825C449.012 68.2259 448.301 66.1198 446.574 65.2784L417.566 51.1437C415.839 50.3023 413.751 51.0443 412.901 52.8009C412.051 54.5575 412.761 56.6636 414.488 57.505L443.496 71.6397Z" stroke="white" stroke-width="1.34" stroke-miterlimit="10"/>
<path d="M385.111 43.2314L388.362 36.6064C388.865 35.582 389.752 34.7946 390.828 34.4174C391.905 34.0401 393.083 34.104 394.102 34.5948L403.715 39.2217C404.46 39.7893 403.102 41.0703 402.058 43.1988L398.807 49.8238C397.762 51.9523 397.577 53.8147 396.673 53.5712L387.061 48.9444C386.041 48.4536 385.263 47.5759 384.897 46.5045C384.531 45.4331 384.608 44.2557 385.111 43.2314Z" stroke="white" stroke-width="2.32" stroke-miterlimit="10"/>
<path d="M341.301 215.579L243.698 168.424C234.895 164.171 224.241 167.922 219.901 176.801L199.183 219.19C194.843 228.069 198.461 238.716 207.265 242.969L304.867 290.124C313.67 294.377 324.325 290.626 328.665 281.746L349.382 239.358C353.722 230.478 350.104 219.832 341.301 215.579Z" stroke="white" stroke-width="2.32" stroke-miterlimit="10"/>
<path d="M334.812 222.618L268.048 190.388C261.546 187.249 253.676 190.016 250.471 196.568L233.586 231.086C230.38 237.638 233.053 245.494 239.555 248.633L306.319 280.864C312.821 284.002 320.691 281.235 323.896 274.683L340.782 240.166C343.987 233.614 341.314 225.757 334.812 222.618Z" stroke="white" stroke-width="1.55" stroke-miterlimit="10"/>
<path d="M252.728 210.235L260.652 214.083L273.326 203.909L273.99 220.559L281.914 224.407L281.116 234.541L289.432 228.057L307.777 236.965L320.3 226.032L319.867 242.836L329.039 247.29" stroke="white" stroke-width="1.32" stroke-linecap="round" stroke-linejoin="round"/>
<path d="M236.63 179.688L235.496 179.144C232.773 177.84 229.476 178.994 228.133 181.721L208.372 221.837C207.029 224.564 208.147 227.832 210.871 229.136L212.005 229.679C214.728 230.983 218.025 229.829 219.368 227.103L239.129 186.986C240.472 184.259 239.354 180.992 236.63 179.688Z" stroke="white" stroke-width="2.07" stroke-miterlimit="10"/>
<path d="M240.02 231.973L244.087 233.95C244.087 233.95 248.527 229.978 250.193 230.259C251.859 230.541 254.373 233.718 254.373 233.718C255.865 235.564 256.748 237.839 256.898 240.23L261.792 242.609" stroke="white" stroke-width="0.81" stroke-linecap="round" stroke-linejoin="round"/>
<path d="M257.934 240.79L262.001 242.767C262.001 242.767 266.442 238.795 268.108 239.077C269.774 239.358 272.287 242.535 272.287 242.535C273.677 244.335 274.428 246.56 274.419 248.857L279.762 251.454" stroke="white" stroke-width="0.81" stroke-linecap="round" stroke-linejoin="round"/>
<path d="M276.634 249.99L280.644 251.94C280.644 251.94 285.085 247.968 286.737 248.242C288.389 248.517 290.931 251.708 290.931 251.708C292.419 253.556 293.3 255.83 293.455 258.22L298.35 260.599" stroke="white" stroke-width="0.81" stroke-linecap="round" stroke-linejoin="round"/>
<path d="M294.505 258.789L298.572 260.766C298.572 260.766 303.012 256.793 304.678 257.075C306.344 257.356 308.858 260.534 308.858 260.534C310.568 262.475 310.411 264.477 310.568 266.404L316.374 269.226" stroke="white" stroke-width="0.81" stroke-linecap="round" stroke-linejoin="round"/>
<path d="M443.74 248.006L405.972 229.864C401.936 227.925 397.05 229.634 395.06 233.682L362.147 300.626C360.157 304.674 361.816 309.527 365.853 311.466L403.62 329.608C407.657 331.547 412.543 329.838 414.533 325.79L447.446 258.846C449.436 254.799 447.777 249.945 443.74 248.006Z" stroke="white" stroke-width="2" stroke-linecap="round" stroke-linejoin="round"/>
<path d="M437.295 251.103L407.509 236.792C404.41 235.303 400.658 236.616 399.131 239.724L374.461 289.909C372.933 293.017 374.207 296.743 377.306 298.232L407.092 312.543C410.191 314.032 413.942 312.719 415.47 309.611L440.14 259.426C441.668 256.318 440.394 252.592 437.295 251.103Z" stroke="white" stroke-width="1.31" stroke-linecap="round" stroke-linejoin="round"/>
<path d="M387.022 315.859C388.703 316.669 390.739 315.955 391.568 314.266C392.397 312.576 391.705 310.55 390.024 309.741C388.342 308.931 386.307 309.644 385.478 311.334C384.649 313.023 385.34 315.049 387.022 315.859Z" stroke="white" stroke-width="1.31" stroke-linecap="round" stroke-linejoin="round"/>
<path d="M350.413 384.283L288.363 354.334C282.884 351.689 276.253 354.021 273.552 359.541L256.777 393.825C254.076 399.345 256.328 405.964 261.807 408.609L323.858 438.558C329.337 441.203 335.968 438.871 338.669 433.351L355.444 399.067C358.145 393.547 355.893 386.928 350.413 384.283Z" stroke="white" stroke-width="2.32" stroke-linecap="round" stroke-linejoin="round"/>
<path d="M275.16 408.721C280.008 399.968 287.046 396.017 296.811 398.035C296.811 398.035 298.816 371.593 314.575 379.183C330.334 386.772 309.686 404.218 309.686 404.218C321.815 412.029 319.206 424.494 316.739 428.745" stroke="white" stroke-width="1.32" stroke-linecap="round" stroke-linejoin="round"/>
<path d="M401.572 453.035L339.522 423.086C334.043 420.442 327.411 422.773 324.71 428.293L307.936 462.577C305.235 468.097 307.487 474.716 312.966 477.361L375.016 507.31C380.495 509.955 387.127 507.623 389.828 502.103L406.602 467.819C409.303 462.299 407.051 455.68 401.572 453.035Z" stroke="white" stroke-width="2.32" stroke-linecap="round" stroke-linejoin="round"/>
<path d="M326.306 477.464C331.154 468.71 338.206 464.766 347.972 466.785C347.972 466.785 349.977 440.343 365.722 447.925C381.467 455.508 360.847 472.968 360.847 472.968C372.982 480.765 370.366 493.243 367.899 497.495" stroke="white" stroke-width="1.32" stroke-linecap="round" stroke-linejoin="round"/>
<path d="M337.67 319.885L321.857 352.336L318.027 350.481L319.946 344.48L249.747 310.476L252.3 305.238L246.71 302.583L251.662 292.419L257.259 295.06L259.957 289.524L330.029 323.466L333.433 317.833L337.67 319.885Z" stroke="white" stroke-width="1.7" stroke-linecap="round" stroke-linejoin="round"/>
<path d="M235.897 290.22L249.414 296.873" stroke="white" stroke-width="2.27" stroke-linecap="round" stroke-linejoin="round"/>
<path d="M299.704 321.334L294.616 331.671" stroke="white" stroke-width="1.13" stroke-linecap="round" stroke-linejoin="round"/>
<path d="M291.206 323.575L288.662 328.742" stroke="white" stroke-width="1.13" stroke-linecap="round" stroke-linejoin="round"/>
<path d="M287.432 316.22L282.709 325.815" stroke="white" stroke-width="1.13" stroke-linecap="round" stroke-linejoin="round"/>
<path d="M275.878 309.607L270.79 319.944" stroke="white" stroke-width="1.13" stroke-linecap="round" stroke-linejoin="round"/>
<path d="M267.38 311.845L264.837 317.012" stroke="white" stroke-width="1.13" stroke-linecap="round" stroke-linejoin="round"/>
<path d="M263.606 304.488L258.883 314.082" stroke="white" stroke-width="1.13" stroke-linecap="round" stroke-linejoin="round"/>
<path d="M279.3 317.713L276.756 322.88" stroke="white" stroke-width="1.13" stroke-linecap="round" stroke-linejoin="round"/>
<path d="M311.673 327.102L306.95 336.697" stroke="white" stroke-width="1.13" stroke-linecap="round" stroke-linejoin="round"/>
<path d="M303.541 328.598L300.997 333.765" stroke="white" stroke-width="1.13" stroke-linecap="round" stroke-linejoin="round"/>
<path d="M378.604 350.241L370.698 366.483L366.938 364.66L367.508 361.459L327.088 341.775L332.193 331.289L372.473 350.904L374.438 348.222L378.604 350.241Z" stroke="white" stroke-width="1.7" stroke-linecap="round" stroke-linejoin="round"/>
<path d="M337.629 320.007L333.394 317.949L329.99 323.604L259.94 289.56L257.243 295.118L251.647 292.469L246.695 302.672L252.283 305.335L249.731 310.594L319.907 344.699L317.988 350.724L321.817 352.584L327.17 341.554L367.553 361.268L366.983 364.478L370.741 366.305L378.647 350.016L374.482 347.992L372.518 350.683L332.275 331.037L337.629 320.007Z" stroke="white" stroke-width="2.32" stroke-linecap="round" stroke-linejoin="round"/>
<path d="M288.486 633.859L241.504 611.241C237.04 609.092 231.638 610.985 229.437 615.47L206.279 662.671C204.078 667.156 205.913 672.533 210.377 674.682L257.359 697.3C261.823 699.449 267.225 697.556 269.426 693.071L292.584 645.87C294.785 641.385 292.95 636.008 288.486 633.859Z" stroke="white" stroke-width="2.32" stroke-miterlimit="10"/>
<path d="M347.052 612.433L332.279 605.335C330.434 604.449 328.202 605.23 327.293 607.079L315.024 632.04C314.115 633.889 314.873 636.107 316.717 636.993L331.491 644.091C333.335 644.977 335.567 644.196 336.476 642.347L348.746 617.386C349.655 615.537 348.897 613.319 347.052 612.433Z" stroke="white" stroke-width="2.32" stroke-miterlimit="10"/>
<path d="M368.454 650.9L353.68 643.802C351.836 642.916 349.604 643.697 348.695 645.546L336.425 670.506C335.516 672.356 336.274 674.573 338.119 675.459L352.892 682.558C354.737 683.444 356.969 682.663 357.878 680.814L370.147 655.853C371.056 654.004 370.298 651.786 368.454 650.9Z" stroke="white" stroke-width="2.32" stroke-miterlimit="10"/>
<path d="M324.164 640.336C324.164 640.336 318.438 665.739 306.553 676.2C294.669 686.661 272.291 687.581 272.291 687.581L269.255 693.765C269.255 693.765 297.63 712.639 319.022 705.707C340.414 698.775 345.554 678.662 345.554 678.662" stroke="white" stroke-width="2.32" stroke-miterlimit="10"/>
<path d="M278.081 640.605L242.565 623.471C239.713 622.095 236.261 623.308 234.855 626.18L223.995 648.365C222.589 651.236 223.761 654.68 226.613 656.056L262.13 673.19C264.981 674.566 268.433 673.353 269.839 670.481L280.699 648.297C282.105 645.425 280.933 641.981 278.081 640.605Z" stroke="white" stroke-width="1.25" stroke-miterlimit="10"/>
<path d="M257.795 687.45C259.453 688.248 261.461 687.545 262.278 685.879C263.096 684.212 262.414 682.214 260.755 681.416C259.097 680.617 257.09 681.321 256.272 682.987C255.455 684.653 256.136 686.651 257.795 687.45Z" stroke="white" stroke-width="1.25" stroke-miterlimit="10"/>
<path d="M237.919 677.669C239.578 678.468 241.585 677.764 242.403 676.098C243.22 674.432 242.538 672.434 240.88 671.635C239.221 670.837 237.214 671.54 236.397 673.207C235.579 674.873 236.261 676.871 237.919 677.669Z" stroke="white" stroke-width="1.25" stroke-miterlimit="10"/>
<path d="M218.1 667.913C219.758 668.711 221.765 668.007 222.583 666.341C223.4 664.675 222.719 662.677 221.06 661.878C219.402 661.08 217.394 661.784 216.577 663.45C215.759 665.116 216.441 667.114 218.1 667.913Z" stroke="white" stroke-width="1.25" stroke-miterlimit="10"/>
<path d="M426.987 671.032L432.873 658.9C433.607 657.388 434.902 656.225 436.473 655.667C438.043 655.109 439.762 655.202 441.249 655.925L538.266 700.728C539.754 701.452 540.889 702.746 541.422 704.327C541.955 705.908 541.842 707.645 541.109 709.158L533.666 724.497C532.932 726.01 531.638 727.173 530.067 727.731C528.496 728.289 526.778 728.196 525.29 727.473L429.83 679.462C428.342 678.738 427.207 677.444 426.674 675.863C426.14 674.282 426.253 672.545 426.987 671.032Z" stroke="white" stroke-width="2.32" stroke-miterlimit="10"/>
<path d="M472.632 689.136C474.359 689.977 476.448 689.235 477.297 687.479C478.147 685.722 477.437 683.616 475.71 682.775L446.702 668.64C444.975 667.799 442.886 668.541 442.036 670.297C441.186 672.054 441.897 674.16 443.624 675.001L472.632 689.136Z" stroke="white" stroke-width="1.34" stroke-miterlimit="10"/>
<path d="M414.239 660.743L417.497 654.104C418.003 653.084 418.89 652.301 419.964 651.927C421.039 651.552 422.213 651.617 423.231 652.107L432.829 656.727C433.581 657.28 432.224 658.561 431.179 660.69L427.921 667.329C426.877 669.457 426.698 671.306 425.794 671.062L416.182 666.435C415.169 665.943 414.396 665.068 414.032 664.002C413.668 662.936 413.743 661.764 414.239 660.743Z" stroke="white" stroke-width="3.19" stroke-miterlimit="10"/>
<path d="M438.919 595.877L423.106 628.328L419.276 626.473L421.202 620.457L350.989 586.447L353.541 581.209L347.944 578.568L352.897 568.404L358.494 571.045L361.192 565.509L431.264 599.451L434.682 593.825L438.919 595.877Z" stroke="white" stroke-width="1.7" stroke-linecap="round" stroke-linejoin="round"/>
<path d="M337.133 566.207L350.649 572.86" stroke="white" stroke-width="2.27" stroke-linecap="round" stroke-linejoin="round"/>
<path d="M400.952 597.323L395.864 607.66" stroke="white" stroke-width="1.13" stroke-linecap="round" stroke-linejoin="round"/>
<path d="M392.457 599.563L389.913 604.73" stroke="white" stroke-width="1.13" stroke-linecap="round" stroke-linejoin="round"/>
<path d="M388.668 592.197L383.945 601.791" stroke="white" stroke-width="1.13" stroke-linecap="round" stroke-linejoin="round"/>
<path d="M377.126 585.596L372.038 595.933" stroke="white" stroke-width="1.13" stroke-linecap="round" stroke-linejoin="round"/>
<path d="M368.631 587.833L366.087 593.001" stroke="white" stroke-width="1.13" stroke-linecap="round" stroke-linejoin="round"/>
<path d="M364.842 580.472L360.12 590.067" stroke="white" stroke-width="1.13" stroke-linecap="round" stroke-linejoin="round"/>
<path d="M380.536 593.695L377.992 598.862" stroke="white" stroke-width="1.13" stroke-linecap="round" stroke-linejoin="round"/>
<path d="M412.907 603.087L408.184 612.681" stroke="white" stroke-width="1.13" stroke-linecap="round" stroke-linejoin="round"/>
<path d="M404.775 604.583L402.232 609.75" stroke="white" stroke-width="1.13" stroke-linecap="round" stroke-linejoin="round"/>
<path d="M479.86 626.217L471.954 642.458L468.18 640.629L468.744 637.442L428.337 617.765L433.442 607.279L473.708 626.888L475.68 624.19L479.86 626.217Z" stroke="white" stroke-width="1.7" stroke-linecap="round" stroke-linejoin="round"/>
<path d="M438.878 595.999L434.642 593.94L431.225 599.589L361.175 565.545L358.477 571.102L352.882 568.454L347.93 578.657L353.525 581.306L350.973 586.565L421.163 620.677L419.237 626.715L423.066 628.576L428.419 617.546L468.788 637.253L468.225 640.449L471.997 642.282L479.903 625.994L475.724 623.963L473.752 626.668L433.524 607.029L438.878 595.999Z" stroke="white" stroke-width="2.83" stroke-linecap="round" stroke-linejoin="round"/>
<path d="M26.8886 279.19L14.2613 273.122C13.8342 272.919 13.4527 272.634 13.1386 272.282C12.8245 271.93 12.5841 271.518 12.4313 271.071C12.2785 270.624 12.2164 270.15 12.2484 269.677C12.2804 269.204 12.406 268.741 12.6179 268.314L23.3504 242.491C24.2287 240.704 24.9411 239.255 26.709 240.104L44.9485 248.869C46.7303 249.725 46.5714 250.084 45.1536 252.968L31.6572 277.463C31.2427 278.316 30.5098 278.976 29.6173 279.299C28.7247 279.622 27.7444 279.583 26.8886 279.19Z" stroke="white" stroke-width="2.32" stroke-linecap="round" stroke-linejoin="round"/>
<path d="M55.3077 293.179L42.6803 287.112C42.2533 286.909 41.8717 286.623 41.5576 286.271C41.2435 285.919 41.0031 285.507 40.8503 285.06C40.6975 284.613 40.6354 284.14 40.6674 283.667C40.6994 283.193 40.825 282.73 41.037 282.304L51.7694 256.481C52.6478 254.694 53.3602 253.244 55.128 254.094L73.3675 262.858C75.1494 263.714 74.9905 264.073 73.5726 266.958L60.0762 291.452C59.6617 292.305 58.9288 292.965 58.0363 293.288C57.1438 293.611 56.1635 293.572 55.3077 293.179Z" stroke="white" stroke-width="2.32" stroke-linecap="round" stroke-linejoin="round"/>
<path d="M27.3457 236.304L47.8553 246.239C47.8553 246.239 51.8881 237.963 41.6333 232.996C31.3784 228.029 27.3457 236.304 27.3457 236.304Z" stroke="white" stroke-width="2.32" stroke-linecap="round" stroke-linejoin="round"/>
<path d="M55.6948 250.259L76.2044 260.193C76.2044 260.193 80.2372 251.917 69.9823 246.95C59.7275 241.983 55.6948 250.259 55.6948 250.259Z" stroke="white" stroke-width="2.32" stroke-linecap="round" stroke-linejoin="round"/>
<path d="M121.696 333.804L5.25783 276.788C2.81216 275.59 -0.148934 276.654 -1.35598 279.163L-1.53581 279.537C-2.74285 282.046 -1.73875 285.052 0.706922 286.249L117.145 343.265C119.591 344.462 122.552 343.399 123.759 340.889L123.939 340.516C125.146 338.006 124.142 335.001 121.696 333.804Z" stroke="white" stroke-width="2.32" stroke-linecap="round" stroke-linejoin="round"/>
<path d="M199.221 280.802L106.651 236.114C103.59 234.636 99.8849 235.939 98.3758 239.024L71.0797 294.822C69.5706 297.907 70.8289 301.605 73.89 303.083L166.46 347.771C169.521 349.248 173.226 347.946 174.735 344.861L202.031 289.063C203.54 285.978 202.282 282.279 199.221 280.802Z" stroke="white" stroke-width="2.32" stroke-linecap="round" stroke-linejoin="round"/>
<path d="M129.43 257.705L110.861 248.797C109.621 248.202 108.121 248.727 107.51 249.968L85.4596 294.775C84.8486 296.017 85.3579 297.505 86.5972 298.1L105.166 307.008C106.406 307.603 107.906 307.078 108.517 305.837L130.567 261.03C131.178 259.788 130.669 258.3 129.43 257.705Z" stroke="white" stroke-width="0.9" stroke-linecap="round" stroke-linejoin="round"/>
<path d="M185.77 286.143L138.234 263.083C137.15 262.557 135.837 263.021 135.302 264.121L128.931 277.217C128.397 278.317 128.842 279.635 129.927 280.161L177.463 303.221C178.547 303.747 179.86 303.282 180.395 302.183L186.766 289.086C187.3 287.986 186.855 286.669 185.77 286.143Z" stroke="white" stroke-width="0.78" stroke-linecap="round" stroke-linejoin="round"/>
<path d="M146.051 292.372L127.74 283.567C126.848 283.139 125.77 283.516 125.331 284.41L113.607 308.277C113.168 309.172 113.534 310.244 114.425 310.672L132.736 319.477C133.627 319.906 134.706 319.528 135.145 318.634L146.869 294.767C147.308 293.873 146.942 292.8 146.051 292.372Z" stroke="white" stroke-width="0.64" stroke-linecap="round" stroke-linejoin="round"/>
<path d="M175.941 307.086L157.63 298.281C156.739 297.853 155.66 298.23 155.221 299.125L143.497 322.992C143.058 323.886 143.424 324.958 144.315 325.387L162.626 334.191C163.518 334.62 164.596 334.242 165.035 333.348L176.759 309.481C177.198 308.587 176.832 307.515 175.941 307.086Z" stroke="white" stroke-width="0.64" stroke-linecap="round" stroke-linejoin="round"/>
<path d="M226.639 114.789L211.977 107.744C210.98 107.265 210.219 106.408 209.861 105.362C209.504 104.316 209.579 103.166 210.071 102.166L222.549 72.1201C223.58 70.0234 224.41 68.3349 226.458 69.3192L247.728 79.5399C249.805 80.5377 249.618 80.9525 247.958 84.3297L232.225 112.812C231.736 113.807 230.874 114.573 229.828 114.944C228.781 115.314 227.635 115.259 226.639 114.789Z" stroke="white" stroke-width="2.32" stroke-linecap="round" stroke-linejoin="round"/>
<path d="M259.709 131.067L245.047 124.022C244.05 123.543 243.289 122.686 242.931 121.64C242.574 120.593 242.649 119.444 243.141 118.444L255.619 88.3973C256.65 86.3006 257.479 84.612 259.528 85.5964L280.84 95.8374C282.917 96.8352 282.73 97.25 281.07 100.627L265.337 129.109C265.093 129.606 264.753 130.05 264.338 130.418C263.923 130.785 263.44 131.068 262.917 131.25C262.394 131.431 261.842 131.509 261.291 131.478C260.741 131.446 260.203 131.307 259.709 131.067Z" stroke="white" stroke-width="2.32" stroke-linecap="round" stroke-linejoin="round"/>
<path d="M227.119 64.869L250.968 76.4208C250.968 76.4208 255.664 66.7822 243.726 60.9996C231.788 55.2169 227.119 64.869 227.119 64.869Z" stroke="white" stroke-width="2.32" stroke-linecap="round" stroke-linejoin="round"/>
<path d="M260.161 81.1332L284.01 92.685C284.01 92.685 288.706 83.0464 276.768 77.2638C264.83 71.4811 260.161 81.1332 260.161 81.1332Z" stroke="white" stroke-width="2.32" stroke-linecap="round" stroke-linejoin="round"/>
<path d="M336.961 178.33L201.478 111.989C198.63 110.595 195.181 111.833 193.776 114.756L193.568 115.187C192.162 118.109 193.332 121.609 196.18 123.004L331.663 189.344C334.511 190.739 337.959 189.501 339.365 186.578L339.572 186.147C340.978 183.225 339.809 179.725 336.961 178.33Z" stroke="white" stroke-width="2.32" stroke-linecap="round" stroke-linejoin="round"/>
<path d="M427.164 116.674L319.454 64.6773C315.889 62.9564 311.574 64.4736 309.817 68.0659L278.059 132.985C276.302 136.577 277.767 140.884 281.332 142.605L389.042 194.602C392.607 196.323 396.921 194.806 398.679 191.213L430.437 126.295C432.194 122.702 430.729 118.395 427.164 116.674Z" stroke="white" stroke-width="2.32" stroke-linecap="round" stroke-linejoin="round"/>
<path d="M345.953 89.7886L324.368 79.4334C322.92 78.7385 321.167 79.3515 320.453 80.8026L294.799 132.93C294.085 134.381 294.681 136.121 296.129 136.815L317.713 147.171C319.162 147.866 320.915 147.253 321.629 145.801L347.282 93.6743C347.996 92.2232 347.401 90.4835 345.953 89.7886Z" stroke="white" stroke-width="1.04" stroke-linecap="round" stroke-linejoin="round"/>
<path d="M411.509 122.888L356.202 96.0587C354.939 95.4462 353.411 95.9873 352.788 97.2674L345.373 112.511C344.75 113.791 345.269 115.326 346.532 115.938L401.838 142.768C403.101 143.38 404.63 142.839 405.252 141.559L412.667 126.315C413.29 125.035 412.771 123.501 411.509 122.888Z" stroke="white" stroke-width="0.91" stroke-linecap="round" stroke-linejoin="round"/>
<path d="M365.294 130.14L343.995 119.898C342.956 119.399 341.699 119.839 341.187 120.881L327.548 148.648C327.036 149.69 327.463 150.939 328.501 151.439L349.801 161.681C350.84 162.18 352.096 161.74 352.608 160.698L366.248 132.931C366.76 131.889 366.333 130.639 365.294 130.14Z" stroke="white" stroke-width="0.75" stroke-linecap="round" stroke-linejoin="round"/>
<path d="M400.074 147.26L378.774 137.018C377.735 136.519 376.479 136.959 375.967 138.001L362.327 165.768C361.815 166.81 362.242 168.06 363.28 168.559L384.58 178.801C385.619 179.3 386.876 178.86 387.387 177.818L401.027 150.051C401.539 149.009 401.112 147.759 400.074 147.26Z" stroke="white" stroke-width="0.75" stroke-linecap="round" stroke-linejoin="round"/>
<path d="M153.493 191.376L147.738 203.237C147.03 204.696 145.78 205.819 144.265 206.357C142.749 206.896 141.091 206.806 139.655 206.108L44.9806 162.372C43.5449 161.674 42.4494 160.425 41.9349 158.899C41.4205 157.374 41.5293 155.697 42.2374 154.237L49.5001 139.268C49.8495 138.543 50.3361 137.894 50.932 137.356C51.528 136.819 52.2215 136.404 52.973 136.136C53.7245 135.868 54.5192 135.752 55.3114 135.794C56.1037 135.836 56.878 136.036 57.59 136.382L150.75 183.241C152.185 183.939 153.281 185.188 153.795 186.714C154.31 188.239 154.201 189.916 153.493 191.376Z" stroke="white" stroke-width="2.93" stroke-miterlimit="10"/>
<path d="M108.963 173.72C107.283 172.901 105.249 173.626 104.42 175.339C103.591 177.053 104.281 179.105 105.961 179.924L134.282 193.724C135.963 194.543 137.997 193.818 138.826 192.104C139.655 190.391 138.964 188.339 137.284 187.52L108.963 173.72Z" stroke="white" stroke-width="1.31" stroke-miterlimit="10"/>
<path d="M165.92 201.427L162.745 207.897C162.504 208.392 162.168 208.836 161.756 209.204C161.344 209.571 160.864 209.854 160.344 210.036C159.824 210.218 159.274 210.296 158.726 210.265C158.178 210.235 157.643 210.096 157.152 209.857L147.778 205.345C147.04 204.798 148.362 203.552 149.386 201.466L152.561 194.996C153.578 192.924 153.756 191.111 154.646 191.348L164.02 195.86C165.014 196.338 165.772 197.193 166.129 198.237C166.485 199.281 166.41 200.428 165.92 201.427Z" stroke="white" stroke-width="2.93" stroke-miterlimit="10"/>
<path d="M236.887 392.082C228.14 397.988 197.087 382.851 194.289 375.553C191.968 367.18 203.842 364.901 212.311 352.004C221.37 338.225 214.304 324.611 216.773 319.551C223.17 306.528 252.405 332.887 254.835 355.549C256.008 364.954 245.634 386.176 236.887 392.082Z" stroke="white" stroke-width="2.32" stroke-linecap="round" stroke-linejoin="round"/>
<path d="M216.385 320.683L210.211 317.703L209.147 325.054L216.746 328.809L216.385 320.683Z" stroke="white" stroke-width="2.32" stroke-linecap="round" stroke-linejoin="round"/>
<path d="M196.348 367.997L188.7 364.305L193.875 358.901L202.091 362.78L196.348 367.997Z" stroke="white" stroke-width="2.32" stroke-linecap="round" stroke-linejoin="round"/>
<path d="M235.777 373.949C231.107 377.099 214.549 368.964 213.037 365.122C211.766 360.648 218.133 359.445 222.677 352.562C227.511 345.192 223.741 337.933 225.055 335.223C228.472 328.268 244.098 342.359 245.377 354.443C246 359.459 240.453 370.785 235.777 373.949Z" stroke="white" stroke-width="0.95" stroke-linecap="round" stroke-linejoin="round"/>
<path d="M286.215 601.642C277.468 607.548 246.416 592.411 243.618 585.113C241.303 576.726 253.171 574.46 261.647 561.55C270.748 547.791 263.576 534.144 266.059 529.09C272.464 516.054 301.691 542.427 304.129 565.074C305.337 574.514 294.963 595.736 286.215 601.642Z" stroke="white" stroke-width="2.32" stroke-linecap="round" stroke-linejoin="round"/>
<path d="M265.707 530.219L259.546 527.246L258.482 534.596L266.06 538.359L265.707 530.219Z" stroke="white" stroke-width="2.32" stroke-linecap="round" stroke-linejoin="round"/>
<path d="M245.677 577.558L238.029 573.866L243.204 568.463L251.427 572.328L245.677 577.558Z" stroke="white" stroke-width="2.32" stroke-linecap="round" stroke-linejoin="round"/>
<path d="M285.112 583.494C280.442 586.644 263.884 578.51 262.372 574.667C261.108 570.179 267.475 568.976 272.018 562.093C276.846 554.738 273.062 547.471 274.39 544.768C277.807 537.813 293.44 551.89 294.712 563.988C295.335 569.004 289.781 580.344 285.112 583.494Z" stroke="white" stroke-width="0.95" stroke-linecap="round" stroke-linejoin="round"/>
<path d="M216.538 528.053L118.936 480.898C110.133 476.645 99.4778 480.396 95.1378 489.275L74.4202 531.664C70.0802 540.543 73.6985 551.189 82.5017 555.443L180.104 602.597C188.908 606.85 199.562 603.1 203.902 594.22L224.62 551.832C228.96 542.952 225.341 532.306 216.538 528.053Z" stroke="white" stroke-width="2.32" stroke-miterlimit="10"/>
<path d="M210.048 535.09L143.284 502.859C136.782 499.72 128.912 502.487 125.707 509.04L108.822 543.557C105.616 550.109 108.289 557.966 114.791 561.104L181.555 593.335C188.057 596.474 195.927 593.707 199.132 587.154L216.017 552.637C219.223 546.085 216.55 538.229 210.048 535.09Z" stroke="white" stroke-width="1.55" stroke-miterlimit="10"/>
<path d="M127.963 522.709L135.887 526.556L148.561 516.383L149.239 533.04L157.163 536.887L156.351 547.015L164.667 540.531L183.012 549.439L195.535 538.506L195.101 555.309L204.274 559.763" stroke="white" stroke-width="1.32" stroke-linecap="round" stroke-linejoin="round"/>
<path d="M111.867 492.154L110.733 491.611C108.009 490.307 104.713 491.46 103.37 494.187L83.6085 534.303C82.2652 537.03 83.3839 540.298 86.1072 541.602L87.2418 542.145C89.9651 543.449 93.2617 542.296 94.6049 539.569L114.366 499.452C115.709 496.725 114.591 493.458 111.867 492.154Z" stroke="white" stroke-width="2.07" stroke-miterlimit="10"/>
<path d="M115.283 544.489L119.349 546.466C119.349 546.466 123.797 542.48 125.456 542.775C127.115 543.071 129.643 546.22 129.643 546.22C131.129 548.069 132.01 550.343 132.167 552.732L137.062 555.111" stroke="white" stroke-width="0.81" stroke-linecap="round" stroke-linejoin="round"/>
<path d="M133.156 553.289L137.223 555.266C137.223 555.266 141.67 551.28 143.329 551.575C144.988 551.871 147.516 555.02 147.516 555.02C148.899 556.824 149.649 559.046 149.648 561.341L154.907 563.898" stroke="white" stroke-width="0.81" stroke-linecap="round" stroke-linejoin="round"/>
<path d="M151.855 562.492L155.922 564.469C155.922 564.469 160.37 560.483 162.029 560.778C163.688 561.074 166.215 564.223 166.215 564.223C167.696 566.075 168.577 568.347 168.74 570.735L173.634 573.114" stroke="white" stroke-width="0.81" stroke-linecap="round" stroke-linejoin="round"/>
<path d="M169.727 571.287L173.794 573.264C173.794 573.264 178.241 569.278 179.9 569.573C181.559 569.869 184.087 573.018 184.087 573.018C185.804 574.98 185.633 576.976 185.79 578.902L191.596 581.725" stroke="white" stroke-width="0.81" stroke-linecap="round" stroke-linejoin="round"/>
<path d="M559.406 537.342L541.674 528.828L534.849 531.564L530.64 529.544L528.825 522.658L510.882 514.043C508.824 513.05 507.254 511.28 506.515 509.12C505.777 506.961 505.93 504.588 506.942 502.521L547.115 420.841C548.136 418.782 549.93 417.201 552.103 416.443C554.276 415.685 556.651 415.812 558.711 416.796L573.973 424.125C573.973 424.125 577.632 415.557 587.101 420.104C596.571 424.65 592.813 433.171 592.813 433.171L607.234 440.095C609.29 441.087 610.86 442.854 611.599 445.01C612.339 447.167 612.189 449.537 611.182 451.603L571.009 533.283C569.99 535.346 568.196 536.932 566.022 537.693C563.847 538.453 561.468 538.327 559.406 537.342Z" stroke="white" stroke-width="2.32" stroke-linecap="round" stroke-linejoin="round"/>
<path d="M583.216 428.084C584.355 428.632 585.734 428.149 586.295 427.004C586.857 425.86 586.389 424.487 585.249 423.939C584.11 423.39 582.731 423.874 582.17 425.018C581.608 426.163 582.076 427.535 583.216 428.084Z" stroke="white" stroke-width="1.23" stroke-linecap="round" stroke-linejoin="round"/>
<path d="M591.149 478.185L566.552 528.289C565.221 530.505 563.499 531.61 560.782 530.041L515.626 508.315C515.097 508.174 514.61 507.909 514.206 507.541C513.802 507.173 513.493 506.714 513.304 506.201C513.115 505.687 513.052 505.135 513.119 504.59C513.187 504.045 513.384 503.522 513.693 503.065L538.373 452.792C542.218 447.361 592.032 469.953 591.149 478.185Z" stroke="white" stroke-width="1.18" stroke-linecap="round" stroke-linejoin="round"/>
<path d="M263.473 427.795L225.706 409.653C221.669 407.714 216.783 409.423 214.793 413.471L181.88 480.415C179.89 484.463 181.549 489.316 185.586 491.255L223.354 509.397C227.391 511.336 232.276 509.627 234.266 505.579L267.18 438.635C269.17 434.588 267.51 429.735 263.473 427.795Z" stroke="white" stroke-width="2.32" stroke-linecap="round" stroke-linejoin="round"/>
<path d="M257.034 430.884L227.248 416.574C224.149 415.084 220.398 416.397 218.87 419.505L194.2 469.69C192.672 472.798 193.946 476.525 197.045 478.014L226.831 492.324C229.931 493.813 233.682 492.501 235.21 489.393L259.879 439.208C261.407 436.1 260.133 432.373 257.034 430.884Z" stroke="white" stroke-width="1.31" stroke-linecap="round" stroke-linejoin="round"/>
<path d="M206.76 495.638C208.442 496.448 210.477 495.734 211.306 494.045C212.135 492.355 211.444 490.329 209.762 489.519C208.081 488.71 206.045 489.423 205.216 491.113C204.387 492.802 205.079 494.828 206.76 495.638Z" stroke="white" stroke-width="1.31" stroke-linecap="round" stroke-linejoin="round"/>
<path d="M447.626 537.215L424.22 525.956C422.495 525.121 421.178 523.636 420.557 521.823C419.936 520.01 420.061 518.018 420.905 516.281L436.526 471.43C437.382 469.695 438.888 468.362 440.713 467.723C442.539 467.084 444.536 467.19 446.267 468.018L481.348 484.894C483.071 485.732 484.385 487.22 485.002 489.034C485.619 490.848 485.49 492.841 484.642 494.576L457.332 533.804C456.476 535.53 454.976 536.856 453.159 537.494C451.342 538.133 449.353 538.033 447.626 537.215Z" stroke="white" stroke-width="2.32" stroke-linecap="round" stroke-linejoin="round"/>
<path d="M471.948 473.756L460.965 468.429C459.447 467.692 457.609 468.343 456.861 469.882C456.112 471.421 456.736 473.265 458.254 474.002L469.237 479.329C470.755 480.065 472.593 479.415 473.342 477.876C474.091 476.337 473.467 474.492 471.948 473.756Z" stroke="white" stroke-width="2.32" stroke-linecap="round" stroke-linejoin="round"/>
<path d="M435.581 473.983L482.952 497.3" stroke="white" stroke-width="1.16" stroke-linecap="round" stroke-linejoin="round"/>
<path d="M152.451 455.433L129.018 444.16C127.294 443.326 125.979 441.841 125.36 440.029C124.741 438.217 124.869 436.226 125.716 434.492L141.337 389.641C142.195 387.913 143.697 386.586 145.518 385.948C147.339 385.31 149.33 385.414 151.058 386.236L186.138 403.112C187.859 403.949 189.172 405.434 189.79 407.245C190.408 409.056 190.282 411.046 189.44 412.78L162.13 452.008C161.279 453.732 159.785 455.058 157.973 455.699C156.161 456.34 154.177 456.245 152.451 455.433Z" stroke="white" stroke-width="2.32" stroke-linecap="round" stroke-linejoin="round"/>
<path d="M176.788 391.981L165.805 386.654C164.287 385.918 162.449 386.568 161.7 388.107C160.951 389.646 161.575 391.491 163.093 392.227L174.076 397.554C175.595 398.291 177.433 397.64 178.181 396.101C178.93 394.562 178.306 392.718 176.788 391.981Z" stroke="white" stroke-width="2.32" stroke-linecap="round" stroke-linejoin="round"/>
<path d="M140.421 392.213L187.778 415.523" stroke="white" stroke-width="1.16" stroke-linecap="round" stroke-linejoin="round"/>
<path d="M343.498 56.272L320.05 44.9923C318.329 44.1553 317.017 42.6696 316.399 40.8588C315.78 39.048 315.906 37.0586 316.749 35.3237L332.377 -9.54129C333.234 -11.269 334.737 -12.5962 336.558 -13.2338C338.378 -13.8714 340.369 -13.7678 342.097 -12.9456L377.178 3.93001C378.899 4.76702 380.211 6.25265 380.829 8.06348C381.448 9.87432 381.322 11.8637 380.479 13.5986L353.162 52.8406C352.31 54.5588 350.819 55.8812 349.011 56.5231C347.204 57.1649 345.224 57.0747 343.498 56.272Z" stroke="white" stroke-width="2.32" stroke-linecap="round" stroke-linejoin="round"/>
<path d="M367.826 -7.19599L356.843 -12.5231C355.325 -13.2596 353.487 -12.609 352.738 -11.07C351.99 -9.5309 352.614 -7.68625 354.132 -6.94979L365.115 -1.62268C366.633 -0.886225 368.471 -1.53682 369.22 -3.07584C369.969 -4.61487 369.345 -6.45953 367.826 -7.19599Z" stroke="white" stroke-width="2.32" stroke-linecap="round" stroke-linejoin="round"/>
<path d="M331.462 -6.97168L378.819 16.3386" stroke="white" stroke-width="1.16" stroke-linecap="round" stroke-linejoin="round"/>
<path d="M463.026 -20.7638L447.214 11.6869L443.37 9.82506L445.288 3.82373L375.09 -30.1796L377.642 -35.4178L372.052 -38.0729L377.005 -48.2368L382.595 -45.5817L385.3 -51.1321L455.372 -17.1899L458.776 -22.8228L463.026 -20.7638Z" stroke="white" stroke-width="1.7" stroke-linecap="round" stroke-linejoin="round"/>
<path d="M503.946 9.58489L496.039 25.8262L492.28 24.0037L492.85 20.8026L452.444 1.12592L457.549 -9.3606L497.815 10.2481L499.78 7.56518L503.946 9.58489Z" stroke="white" stroke-width="1.7" stroke-linecap="round" stroke-linejoin="round"/>
<path d="M462.986 -20.6423L458.736 -22.7074L455.333 -17.0523L385.283 -51.0964L382.578 -45.5243L376.99 -48.1874L372.038 -37.9838L377.626 -35.3207L375.074 -30.0622L445.25 4.04316L443.331 10.0676L447.174 11.9351L452.527 0.904892L492.896 20.612L492.326 23.8222L496.084 25.6487L503.99 9.36002L499.825 7.33579L497.86 10.0268L457.632 -9.61222L462.986 -20.6423Z" stroke="white" stroke-width="2.32" stroke-linecap="round" stroke-linejoin="round"/>
<path d="M152.805 159.164L135.701 150.94C134.27 150.243 133.179 149.007 132.665 147.502C132.151 145.997 132.255 144.343 132.955 142.901L142.292 123.893C143.003 122.454 144.253 121.349 145.768 120.818C147.283 120.288 148.941 120.376 150.378 121.062L154.18 122.89L156.996 117.16L167.056 121.997L163.904 127.566L167.524 129.306C168.961 129.997 170.057 131.232 170.572 132.739C171.087 134.247 170.979 135.904 170.271 137.345L160.92 156.381C160.2 157.819 158.941 158.919 157.42 159.44C155.899 159.962 154.239 159.862 152.805 159.164Z" stroke="white" stroke-width="2.32" stroke-linecap="round" stroke-linejoin="round"/>
<path d="M170.556 114.869L160.554 110.026C158.57 109.065 156.17 109.913 155.192 111.919L155.185 111.933C154.207 113.94 155.022 116.345 157.005 117.305L167.008 122.148C168.991 123.109 171.392 122.261 172.37 120.255L172.377 120.241C173.355 118.234 172.54 115.83 170.556 114.869Z" stroke="white" stroke-width="2.32" stroke-linecap="round" stroke-linejoin="round"/>
<path d="M279.416 772.137L262.312 763.913C260.881 763.22 259.788 761.988 259.272 760.485C258.757 758.982 258.859 757.329 259.558 755.888L268.917 736.838C269.63 735.404 270.88 734.303 272.393 733.775C273.907 733.248 275.561 733.336 276.996 734.022L280.812 735.857L283.627 730.126L293.604 734.923L290.452 740.491L294.072 742.232C295.506 742.921 296.601 744.154 297.117 745.658C297.633 747.162 297.528 748.816 296.825 750.257L287.467 769.307C286.759 770.739 285.515 771.84 284.007 772.37C282.499 772.9 280.849 772.816 279.416 772.137Z" stroke="white" stroke-width="2.32" stroke-linecap="round" stroke-linejoin="round"/>
<path d="M297.171 727.831L287.169 722.988C285.185 722.027 282.784 722.875 281.806 724.881L281.799 724.895C280.821 726.902 281.637 729.307 283.62 730.267L293.623 735.11C295.606 736.071 298.007 735.223 298.985 733.217L298.992 733.203C299.97 731.197 299.155 728.792 297.171 727.831Z" stroke="white" stroke-width="2.32" stroke-linecap="round" stroke-linejoin="round"/>
<path d="M367.44 767.686L352.778 760.64C351.779 760.161 351.017 759.303 350.657 758.257C350.297 757.21 350.369 756.059 350.857 755.056L363.35 725.016C364.381 722.919 365.21 721.231 367.259 722.215L388.571 732.456C390.648 733.454 390.461 733.869 388.801 737.246L373.068 765.728C372.824 766.225 372.484 766.669 372.069 767.036C371.654 767.404 371.171 767.686 370.648 767.868C370.125 768.05 369.573 768.128 369.022 768.096C368.472 768.065 367.934 767.925 367.44 767.686Z" stroke="white" stroke-width="2.32" stroke-linecap="round" stroke-linejoin="round"/>
<path d="M400.509 783.962L385.903 776.944C385.407 776.708 384.964 776.376 384.599 775.968C384.234 775.559 383.954 775.081 383.776 774.563C383.597 774.044 383.524 773.494 383.559 772.944C383.595 772.394 383.739 771.856 383.983 771.359L396.51 741.25C397.54 739.154 398.37 737.465 400.419 738.449L421.675 748.663C423.751 749.661 423.564 750.076 421.905 753.453L406.171 781.934C405.933 782.441 405.597 782.897 405.182 783.274C404.767 783.652 404.282 783.943 403.754 784.132C403.227 784.321 402.668 784.403 402.111 784.374C401.553 784.345 401.009 784.205 400.509 783.962Z" stroke="white" stroke-width="2.32" stroke-linecap="round" stroke-linejoin="round"/>
<path d="M367.968 717.633L391.816 729.185C391.816 729.185 396.513 719.546 384.575 713.763C372.637 707.981 367.968 717.633 367.968 717.633Z" stroke="white" stroke-width="2.32" stroke-linecap="round" stroke-linejoin="round"/>
<path d="M401.01 733.897L424.858 745.449C424.858 745.449 429.555 735.81 417.617 730.028C405.678 724.245 401.01 733.897 401.01 733.897Z" stroke="white" stroke-width="2.32" stroke-linecap="round" stroke-linejoin="round"/>
<path d="M477.796 831.157L342.313 764.816C339.465 763.421 336.017 764.66 334.611 767.582L334.404 768.014C332.998 770.936 334.167 774.436 337.015 775.83L472.498 842.171C475.346 843.566 478.795 842.327 480.2 839.405L480.408 838.974C481.813 836.051 480.644 832.552 477.796 831.157Z" stroke="white" stroke-width="2.32" stroke-linecap="round" stroke-linejoin="round"/>
<path d="M567.984 769.499L460.274 717.503C456.709 715.782 452.394 717.299 450.637 720.891L418.879 785.81C417.122 789.402 418.587 793.71 422.152 795.43L529.862 847.427C533.427 849.148 537.741 847.631 539.499 844.038L571.257 779.12C573.014 775.527 571.549 771.22 567.984 769.499Z" stroke="white" stroke-width="2.32" stroke-linecap="round" stroke-linejoin="round"/>
<path d="M486.773 742.609L465.189 732.253C463.741 731.558 461.988 732.171 461.273 733.623L435.62 785.75C434.906 787.201 435.501 788.94 436.95 789.635L458.534 799.991C459.983 800.686 461.736 800.073 462.45 798.622L488.103 746.494C488.817 745.043 488.222 743.304 486.773 742.609Z" stroke="white" stroke-width="1.04" stroke-linecap="round" stroke-linejoin="round"/>
<path d="M552.345 775.72L497.038 748.89C495.776 748.278 494.247 748.819 493.624 750.099L486.209 765.343C485.587 766.623 486.105 768.157 487.368 768.77L542.675 795.599C543.938 796.212 545.466 795.67 546.089 794.39L553.504 779.147C554.127 777.867 553.608 776.332 552.345 775.72Z" stroke="white" stroke-width="0.91" stroke-linecap="round" stroke-linejoin="round"/>
<path d="M506.13 782.969L484.83 772.727C483.792 772.228 482.535 772.668 482.023 773.71L468.383 801.477C467.871 802.519 468.298 803.769 469.337 804.268L490.637 814.51C491.675 815.009 492.932 814.569 493.444 813.527L507.083 785.76C507.595 784.718 507.168 783.468 506.13 782.969Z" stroke="white" stroke-width="0.75" stroke-linecap="round" stroke-linejoin="round"/>
<path d="M540.895 800.083L519.595 789.841C518.556 789.342 517.299 789.782 516.788 790.824L503.148 818.591C502.636 819.633 503.063 820.882 504.101 821.382L525.401 831.624C526.44 832.123 527.696 831.683 528.208 830.641L541.848 802.874C542.36 801.832 541.933 800.582 540.895 800.083Z" stroke="white" stroke-width="0.75" stroke-linecap="round" stroke-linejoin="round"/>
<path d="M546 175.216L528.881 166.985C527.448 166.292 526.354 165.057 525.84 163.55C525.325 162.044 525.431 160.389 526.135 158.947L535.486 139.911C536.201 138.475 537.451 137.373 538.965 136.843C540.479 136.313 542.135 136.398 543.572 137.08L547.375 138.908L550.183 133.192L560.159 137.989L557.015 143.543L560.649 145.291C562.078 145.987 563.167 147.222 563.679 148.726C564.191 150.231 564.084 151.883 563.381 153.323L554.03 172.358C553.326 173.79 552.089 174.893 550.585 175.428C549.082 175.964 547.434 175.887 546 175.216Z" stroke="white" stroke-width="2.32" stroke-linecap="round" stroke-linejoin="round"/>
<path d="M563.744 130.902L553.741 126.058C551.758 125.098 549.357 125.946 548.379 127.952L548.372 127.966C547.394 129.972 548.209 132.377 550.193 133.337L560.195 138.181C562.179 139.141 564.58 138.293 565.558 136.287L565.565 136.273C566.543 134.267 565.727 131.862 563.744 130.902Z" stroke="white" stroke-width="2.32" stroke-linecap="round" stroke-linejoin="round"/>
<path d="M651.038 443.299L640.823 438.367L647.744 431.132L658.745 436.303L651.038 443.299Z" stroke="white" stroke-width="3.1" stroke-linecap="round" stroke-linejoin="round"/>
<path d="M372.533 538.102L367.982 547.483C367.421 548.638 366.434 549.526 365.235 549.954C364.037 550.382 362.725 550.315 361.588 549.766L286.67 515.106C285.531 514.553 284.663 513.562 284.255 512.353C283.847 511.144 283.934 509.814 284.495 508.657L290.243 496.81C290.804 495.653 291.795 494.763 292.996 494.336C294.198 493.91 295.512 493.981 296.651 494.534L370.393 531.618C370.958 531.895 371.462 532.283 371.876 532.759C372.289 533.235 372.605 533.791 372.804 534.394C373.002 534.996 373.081 535.634 373.034 536.271C372.988 536.907 372.818 537.53 372.533 538.102Z" stroke="white" stroke-width="2.32" stroke-miterlimit="10"/>
<path d="M337.296 524.114C335.964 523.465 334.352 524.039 333.695 525.397C333.038 526.755 333.585 528.382 334.917 529.031L357.335 539.955C358.667 540.604 360.279 540.029 360.936 538.671C361.594 537.313 361.046 535.686 359.715 535.037L337.296 524.114Z" stroke="white" stroke-width="1.04" stroke-miterlimit="10"/>
<path d="M382.368 546.06L379.858 551.177C379.667 551.569 379.402 551.92 379.076 552.211C378.751 552.501 378.371 552.725 377.96 552.869C377.549 553.013 377.115 553.074 376.682 553.05C376.249 553.025 375.826 552.915 375.437 552.726L368.014 549.153C367.424 548.729 368.482 547.74 369.291 546.091L371.802 540.974C372.611 539.325 372.722 537.932 373.451 538.074L380.874 541.647C381.264 541.834 381.612 542.098 381.899 542.421C382.185 542.745 382.404 543.123 382.543 543.533C382.682 543.943 382.738 544.378 382.708 544.811C382.678 545.245 382.563 545.669 382.368 546.06Z" stroke="white" stroke-width="2.46" stroke-miterlimit="10"/>
<path d="M629.519 359.49L606.085 348.217C604.36 347.383 603.043 345.897 602.422 344.084C601.801 342.272 601.926 340.279 602.77 338.542L618.412 293.684C619.266 291.953 620.769 290.623 622.59 289.985C624.412 289.347 626.405 289.453 628.132 290.279L663.212 307.155C664.933 307.992 666.246 309.478 666.864 311.288C667.482 313.099 667.357 315.089 666.514 316.824L639.197 356.066C638.343 357.786 636.85 359.11 635.039 359.75C633.228 360.391 631.245 360.298 629.519 359.49Z" stroke="white" stroke-width="2.32" stroke-linecap="round" stroke-linejoin="round"/>
<path d="M653.848 296.02L642.865 290.693C641.347 289.956 639.509 290.607 638.76 292.146C638.011 293.685 638.635 295.53 640.153 296.266L651.136 301.593C652.655 302.33 654.493 301.679 655.241 300.14C655.99 298.601 655.366 296.756 653.848 296.02Z" stroke="white" stroke-width="2.32" stroke-linecap="round" stroke-linejoin="round"/>
<path d="M617.48 296.249L664.851 319.566" stroke="white" stroke-width="1.16" stroke-linecap="round" stroke-linejoin="round"/>
<path d="M651.044 717.35L588.994 687.401C583.515 684.756 576.884 687.087 574.183 692.608L557.408 726.892C554.707 732.412 556.959 739.031 562.438 741.675L624.488 771.625C629.968 774.269 636.599 771.938 639.3 766.418L656.074 732.134C658.775 726.614 656.523 719.995 651.044 717.35Z" stroke="white" stroke-width="2.32" stroke-linecap="round" stroke-linejoin="round"/>
<path d="M575.771 741.826C580.62 733.073 587.658 729.122 597.423 731.14C597.423 731.14 599.428 704.698 615.187 712.288C630.946 719.877 610.298 737.323 610.298 737.323C614.403 739.696 617.422 743.563 618.734 748.126C620.046 752.69 619.551 757.602 617.351 761.85" stroke="white" stroke-width="1.32" stroke-linecap="round" stroke-linejoin="round"/>
<path d="M702.197 786.083L640.147 756.134C634.668 753.489 628.036 755.82 625.335 761.34L608.561 795.624C605.86 801.145 608.112 807.764 613.591 810.408L675.641 840.357C681.12 843.002 687.751 840.671 690.453 835.151L707.227 800.867C709.928 795.346 707.676 788.727 702.197 786.083Z" stroke="white" stroke-width="2.32" stroke-linecap="round" stroke-linejoin="round"/>
<path d="M626.958 810.521C631.814 801.753 638.851 797.803 648.624 799.841C648.624 799.841 650.636 773.386 666.381 780.968C682.126 788.551 661.485 806.018 661.485 806.018C673.635 813.822 671.019 826.3 668.538 830.545" stroke="white" stroke-width="1.32" stroke-linecap="round" stroke-linejoin="round"/>
<path d="M633.97 551.858L616.851 543.627C615.418 542.933 614.324 541.698 613.809 540.192C613.295 538.686 613.401 537.03 614.105 535.588L623.456 516.553C624.17 515.117 625.42 514.014 626.934 513.484C628.449 512.954 630.104 513.04 631.542 513.722L635.359 515.557L638.167 509.841L648.157 514.644L644.998 520.192L648.633 521.939C650.063 522.636 651.154 523.871 651.668 525.376C652.182 526.882 652.078 528.535 651.379 529.978L642.028 549.014C641.319 550.447 640.075 551.55 638.566 552.083C637.057 552.615 635.405 552.535 633.97 551.858Z" stroke="white" stroke-width="2.32" stroke-linecap="round" stroke-linejoin="round"/>
<path d="M651.713 507.543L641.711 502.7C639.727 501.739 637.326 502.587 636.348 504.593L636.341 504.608C635.363 506.614 636.178 509.019 638.162 509.979L648.165 514.822C650.148 515.783 652.549 514.935 653.527 512.929L653.534 512.915C654.512 510.909 653.697 508.504 651.713 507.543Z" stroke="white" stroke-width="2.32" stroke-linecap="round" stroke-linejoin="round"/>
<path d="M53.9123 329.08L-8.09871 299.28C-13.5744 296.649 -20.2071 299.007 -22.9134 304.548L-39.7209 338.957C-42.4272 344.497 -40.1822 351.122 -34.7066 353.753L27.3044 383.552C32.78 386.184 39.4128 383.825 42.1191 378.285L58.9266 343.876C61.6329 338.336 59.3879 331.711 53.9123 329.08Z" stroke="white" stroke-width="2.64" stroke-linecap="round" stroke-linejoin="round"/>
<path d="M8.80908 443.695L-7.03783 476.299L-10.8659 474.452L-8.94108 468.425L-79.1239 434.549L-76.566 429.286L-82.1606 426.656L-77.1903 416.43L-71.6025 419.074L-68.8921 413.498L1.15055 447.306L4.57424 441.651L8.80908 443.695Z" stroke="white" stroke-width="1.7" stroke-linecap="round" stroke-linejoin="round"/>
<path d="M8.78106 443.851L4.547 441.799L1.12317 447.482L-68.9066 413.542L-71.6173 419.145L-77.204 416.491L-82.1748 426.767L-76.5811 429.407L-79.1393 434.695L-8.96933 468.704L-10.8946 474.759L-7.06715 476.614L-1.70121 465.521L38.6557 485.169L38.0821 488.394L41.8535 490.222L49.7776 473.84L45.6137 471.822L43.6458 474.531L3.41515 454.944L8.78106 443.851Z" stroke="white" stroke-width="2.32" stroke-linecap="round" stroke-linejoin="round"/>
<path d="M73.1493 918.553L26.208 896.067C21.7478 893.931 16.3451 895.844 14.1409 900.342L-9.05777 947.674C-11.2621 952.172 -9.43322 957.55 -4.97301 959.686L41.9682 982.172C46.4284 984.308 51.8311 982.394 54.0353 977.897L77.234 930.564C79.4383 926.067 77.6095 920.689 73.1493 918.553Z" stroke="white" stroke-width="2.32" stroke-miterlimit="10"/>
<path d="M62.7472 925.338L27.2547 908.292C24.4047 906.923 20.9523 908.15 19.5438 911.032L8.66258 933.294C7.25398 936.176 8.42252 939.622 11.2726 940.99L46.7651 958.037C49.6151 959.405 53.0674 958.179 54.476 955.297L65.3572 933.034C66.7658 930.153 65.5973 926.707 62.7472 925.338Z" stroke="white" stroke-width="1.25" stroke-miterlimit="10"/>
<path d="M2.75345 952.77C4.41054 953.563 6.41772 952.852 7.23667 951.181C8.05562 949.51 7.37624 947.512 5.71914 946.719C4.06204 945.925 2.05478 946.636 1.23583 948.307C0.416884 949.978 1.09635 951.976 2.75345 952.77Z" stroke="white" stroke-width="1.25" stroke-miterlimit="10"/>
<path d="M-16.0299 850.605L-10.1231 838.389C-9.38768 836.867 -8.09151 835.695 -6.51977 835.129C-4.94803 834.564 -3.22947 834.651 -1.74217 835.372L95.166 880.056C96.6533 880.777 97.7875 882.073 98.3191 883.659C98.8508 885.244 98.7362 886.989 98.0008 888.51L90.5411 903.938C89.8056 905.46 88.5094 906.632 86.9377 907.198C85.366 907.763 83.6474 907.676 82.1601 906.955L-13.2719 859.075C-14.7495 858.34 -15.8696 857.035 -16.3867 855.447C-16.9037 853.86 -16.7754 852.118 -16.0299 850.605Z" stroke="white" stroke-width="2.32" stroke-miterlimit="10"/>
<path d="M29.5994 868.603C31.3258 869.442 33.4159 868.69 34.2679 866.922C35.1198 865.154 34.411 863.04 32.6846 862.201L3.68246 848.1C1.95608 847.26 -0.134042 848.013 -0.985992 849.781C-1.83795 851.549 -1.12909 853.662 0.597292 854.502L29.5994 868.603Z" stroke="white" stroke-width="1.34" stroke-miterlimit="10"/>
<path d="M1.40849 886.09L-6.51515 902.413L-10.2871 900.59L-9.71375 897.377L-50.1045 877.772L-44.9954 867.248L-4.73796 886.77L-2.77012 884.071L1.40849 886.09Z" stroke="white" stroke-width="1.7" stroke-linecap="round" stroke-linejoin="round"/>
<path d="M-39.5608 855.834L-43.8089 853.776L-47.2118 859.451L-117.242 825.51L-119.952 831.114L-125.539 828.46L-130.51 838.736L-124.916 841.376L-127.474 846.664L-57.3042 880.673L-59.2505 886.736L-55.409 888.597L-50.0361 877.49L-9.67921 897.138L-10.2528 900.363L-6.48135 902.191L1.44273 885.809L-2.73527 883.784L-4.70311 886.493L-44.9267 866.927L-39.5608 855.834Z" stroke="white" stroke-width="2.32" stroke-linecap="round" stroke-linejoin="round"/>
<path d="M18.7477 739.54L-97.6803 682.592C-100.126 681.396 -103.089 682.476 -104.299 685.005L-104.48 685.381C-105.69 687.91 -104.688 690.93 -102.243 692.126L14.1856 749.074C16.631 750.27 19.5944 749.19 20.8044 746.661L20.9847 746.285C22.1947 743.756 21.1932 740.736 18.7477 739.54Z" stroke="white" stroke-width="2.32" stroke-linecap="round" stroke-linejoin="round"/>
<path d="M96.2749 686.374L3.76288 641.908C0.703652 640.437 -3.0021 641.755 -4.51412 644.852L-31.8639 700.856C-33.3759 703.952 -32.1216 707.654 -29.0624 709.125L63.4496 753.591C66.5088 755.061 70.2146 753.743 71.7266 750.647L99.0763 694.642C100.588 691.546 99.3341 687.844 96.2749 686.374Z" stroke="white" stroke-width="2.32" stroke-linecap="round" stroke-linejoin="round"/>
<path d="M26.4842 663.444L7.93986 654.598C6.70218 654.008 5.20291 654.538 4.59113 655.781L-17.4872 700.659C-18.099 701.903 -17.5916 703.389 -16.3539 703.98L2.19044 712.825C3.42812 713.416 4.92739 712.886 5.53917 711.643L27.6175 666.765C28.2293 665.521 27.7219 664.034 26.4842 663.444Z" stroke="white" stroke-width="0.9" stroke-linecap="round" stroke-linejoin="round"/>
<path d="M-15.1915 625.397L-33.0144 616.887L-39.8523 619.641L-43.9857 617.667L-45.6249 610.866L-63.728 602.222C-65.7838 601.236 -67.3512 599.471 -68.087 597.314C-68.8229 595.156 -68.6671 592.782 -67.6538 590.712L-27.4248 508.876C-26.401 506.812 -24.607 505.223 -22.4342 504.455C-20.2613 503.687 -17.8858 503.803 -15.8257 504.778L-0.524933 512.084C-0.524933 512.084 3.13339 503.516 12.6053 508.038C22.0772 512.561 18.3068 521.075 18.3068 521.075L32.7808 527.986C34.8294 528.978 36.3898 530.744 37.1224 532.898C37.855 535.053 37.7005 537.422 36.6926 539.491L-3.53643 621.326C-4.04417 622.354 -4.74879 623.276 -5.60993 624.037C-6.47106 624.799 -7.47173 625.385 -8.55456 625.764C-9.63739 626.142 -10.7811 626.304 -11.92 626.241C-13.0589 626.179 -14.1707 625.892 -15.1915 625.397Z" stroke="white" stroke-width="2.32" stroke-linecap="round" stroke-linejoin="round"/>
<path d="M16.5407 566.049L-8.09721 616.284C-9.41574 618.513 -11.1522 619.618 -13.8522 618.064L-58.981 596.462C-59.5102 596.323 -59.9965 596.059 -60.3998 595.692C-60.8032 595.326 -61.1119 594.867 -61.3002 594.354C-61.4886 593.841 -61.5512 593.288 -61.483 592.742C-61.4147 592.196 -61.2175 591.672 -60.9078 591.213L-36.1868 540.809C-32.3373 535.36 17.4326 557.807 16.5407 566.049Z" stroke="white" stroke-width="1.18" stroke-linecap="round" stroke-linejoin="round"/>
<path d="M0 1024H649V0H0V1024Z" fill="url(#paint0_linear_317_407)"/>
</g>
<defs>
<linearGradient id="paint0_linear_317_407" x1="221.92" y1="-27.9742" x2="155.325" y2="649.223" gradientUnits="userSpaceOnUse">
<stop offset="0.0210424" stop-color="#4C9E45" stop-opacity="0.8"/>
<stop offset="0.42762" stop-color="#4C9E45" stop-opacity="0.9"/>
<stop offset="0.678719" stop-color="#4C9E45" stop-opacity="0.95"/>
<stop offset="1" stop-color="#4C9E45" stop-opacity="0.7"/>
</linearGradient>
</defs>
</svg>
