<svg width="91" height="68" viewBox="0 0 91 68" fill="none" xmlns="http://www.w3.org/2000/svg">
<path d="M62.065 42.8554C63.2886 42.0156 64.7766 41.7258 66.2016 42.0497C67.6266 42.3736 68.872 43.2846 69.6637 44.5824C70.4554 45.8802 70.7287 47.4584 70.4233 48.9699C70.1215 50.4636 68.9346 51.7776 67.7339 52.6186L48.8378 66.4635C48.2814 66.9125 46.421 67.0732 45.6884 67.0732L19.8637 67.0928C19.1646 67.0928 18.5979 66.4917 18.5979 65.7502L18.6053 58.1051C18.5909 57.4605 18.6997 56.8194 18.925 56.2205C19.1527 55.6153 19.4947 55.0659 19.93 54.606C20.3652 54.1461 20.8845 53.7854 21.456 53.5462C22.0207 53.3098 22.6246 53.1969 23.2313 53.2141L47.578 53.2283L60.8053 43.7886C61.124 43.4635 62.056 42.8615 62.065 42.8554Z" fill="#92C83E"/>
<path d="M60.806 41.6157C62.0296 40.776 63.5175 40.4862 64.9426 40.8101C66.3676 41.1339 67.6129 42.045 68.4047 43.3428C69.1964 44.6406 69.4696 46.2188 69.1643 47.7303C68.8625 49.224 67.6756 49.889 66.4748 50.73L46.319 65.8336C45.7626 66.2825 44.7499 67.153 44.3266 66.5628L18.6121 67.0523C17.913 67.0523 17.3462 66.4512 17.3462 65.7097V56.8654C17.3319 56.2209 17.4406 55.5798 17.666 54.9809C17.8937 54.3757 18.2357 53.8262 18.6709 53.3664C19.1062 52.9065 19.6255 52.5458 20.1969 52.3066C20.7617 52.0702 21.3655 51.9572 21.9723 51.9745L46.319 51.9886L59.5463 42.5489C59.865 42.2238 60.797 41.6219 60.806 41.6157Z" fill="white"/>
<ellipse cx="35.6113" cy="37.5144" rx="13.2273" ry="13.2156" fill="#92C83E"/>
<ellipse cx="34.3516" cy="34.997" rx="11.9675" ry="11.957" fill="white"/>
<path fill-rule="evenodd" clip-rule="evenodd" d="M33.976 24.6355C27.981 24.6355 23.1211 29.4911 23.1211 35.4808C23.1211 41.4704 27.981 46.326 33.976 46.326C39.9709 46.326 44.8308 41.4704 44.8308 35.4808C44.8308 29.4911 39.9709 24.6355 33.976 24.6355ZM20.4833 35.4808C20.4833 28.0355 26.5242 22 33.976 22C41.4278 22 47.4687 28.0355 47.4687 35.4808C47.4687 42.926 41.4278 48.9615 33.976 48.9615C26.5242 48.9615 20.4833 42.926 20.4833 35.4808ZM60.6669 41.3324C61.9418 40.5082 63.4922 40.2237 64.9769 40.5416C66 40.7607 66.9342 41.2533 67.6862 41.9552L73.2245 37.8974C73.8119 37.467 74.6373 37.5939 75.0681 38.1808C75.4988 38.7676 75.3719 39.5923 74.7845 40.0227L69.1479 44.1525C69.5212 45.1619 69.6049 46.2648 69.3757 47.3337C69.0612 48.7997 68.1835 50.0831 66.9324 50.9086L46.9615 66.0873C46.3817 66.5279 45.5542 66.4155 45.1132 65.8363C44.6722 65.2571 44.7846 64.4303 45.3644 63.9897L65.3726 48.7826C65.3992 48.7624 65.4266 48.7432 65.4546 48.7251C66.1422 48.2806 66.6248 47.5815 66.7964 46.7815C66.9649 45.9958 66.8198 45.176 66.3932 44.4963C66.3759 44.4714 66.3595 44.4462 66.3441 44.4205C65.8983 43.7542 65.2098 43.2869 64.4242 43.1187C63.6285 42.9483 62.7979 43.0987 62.1128 43.5368L46.9073 53.9238C46.688 54.0736 46.4286 54.1537 46.1629 54.1537H21.8022C21.7883 54.1537 21.7744 54.1535 21.7605 54.153C21.4801 54.1442 21.2009 54.1927 20.94 54.2956C20.6791 54.3985 20.442 54.5536 20.2433 54.7514C20.0445 54.9492 19.8884 55.1855 19.7844 55.4458C19.6805 55.706 19.6309 55.9848 19.6387 56.265C19.639 56.2772 19.6392 56.2894 19.6392 56.3017V64.9989C19.6392 65.7267 19.0487 66.3167 18.3202 66.3167C17.5918 66.3167 17.0013 65.7267 17.0013 64.9989V56.3185C16.9864 55.6859 17.0997 55.0567 17.3345 54.4689C17.5717 53.8748 17.9281 53.3356 18.3816 52.8842C18.835 52.4328 19.3761 52.0789 19.9716 51.8441C20.56 51.612 21.1892 51.5012 21.8214 51.5182H45.7551L60.639 41.3509L60.6533 41.3413L60.6669 41.3324ZM53.1134 25.4794C52.385 25.4794 51.7945 26.0694 51.7945 26.7972C51.7945 27.525 52.385 28.115 53.1134 28.115H74.0053C74.7337 28.115 75.3242 27.525 75.3242 26.7972C75.3242 26.0694 74.7337 25.4794 74.0053 25.4794H53.1134ZM51.7945 33.7408C51.7945 33.013 52.385 32.423 53.1134 32.423H68.7823C69.5107 32.423 70.1013 33.013 70.1013 33.7408C70.1013 34.4686 69.5107 35.0585 68.7823 35.0585H53.1134C52.385 35.0585 51.7945 34.4686 51.7945 33.7408Z" fill="#4C9E45"/>
<rect x="1.5" y="1.5" width="87.2797" height="64" rx="3.5" stroke="#4C9E45" stroke-width="3"/>
<line y1="10.5" x2="90.2797" y2="10.5" stroke="#4C9E45" stroke-width="3"/>
<circle cx="82.7195" cy="5.83548" r="1.22665" stroke="#4C9E45" stroke-width="0.817764"/>
<circle cx="76.1785" cy="5.83548" r="1.22665" stroke="#4C9E45" stroke-width="0.817764"/>
<circle cx="69.6355" cy="5.83548" r="1.22665" stroke="#4C9E45" stroke-width="0.817764"/>
</svg>
