<svg width="348" height="246" viewBox="0 0 348 246" fill="none" xmlns="http://www.w3.org/2000/svg">
<path d="M348 100.483L317.004 131.481L348 162.479H285.91V100.483H348Z" fill="#4C9E45"/>
<path d="M0 162.479L30.9963 131.481L0 100.483H61.9925V162.479H0Z" fill="#4C9E45"/>
<path d="M172.447 244.612C239.769 244.612 294.346 190.135 294.346 122.931C294.346 55.7271 239.769 1.25 172.447 1.25C105.126 1.25 50.5488 55.7271 50.5488 122.931C50.5488 190.135 105.126 244.612 172.447 244.612Z" fill="#4C9E45" stroke="white" stroke-width="1.5" stroke-miterlimit="10"/>
<path d="M172.491 217.496C224.934 217.496 267.448 175.059 267.448 122.71C267.448 70.3618 224.934 27.9248 172.491 27.9248C120.049 27.9248 77.5352 70.3618 77.5352 122.71C77.5352 175.059 120.049 217.496 172.491 217.496Z" fill="#E3ECE3"/>
<path d="M48.6586 78.7158C48.6586 78.7158 163.495 124.576 297.286 78.7158C297.286 78.7158 309.854 117.335 297.286 152.96C297.286 152.96 177.584 198.144 48.6586 152.96C48.6586 152.96 37.3067 121.1 48.6586 78.7158Z" fill="#4C9E45" stroke="white" stroke-width="1.5" stroke-miterlimit="10" stroke-linejoin="round"/>
<path d="M114.294 160.043C111.307 160.043 109.814 158.503 109.814 155.423V114.193C109.814 111.113 111.307 109.573 114.294 109.573C117.281 109.573 118.774 111.113 118.774 114.193V130.713H144.184V114.193C144.184 111.113 145.677 109.573 148.664 109.573C151.651 109.573 153.144 111.113 153.144 114.193V155.423C153.144 158.503 151.651 160.043 148.664 160.043C145.677 160.043 144.184 158.503 144.184 155.423V138.203H118.774V155.423C118.774 158.503 117.281 160.043 114.294 160.043ZM168.575 160.043C165.495 160.043 163.955 158.457 163.955 155.283V114.893C163.955 111.72 165.541 110.133 168.715 110.133H193.145C195.571 110.133 196.785 111.3 196.785 113.633C196.785 116.06 195.571 117.273 193.145 117.273H172.915V131.203H191.675C194.101 131.203 195.315 132.37 195.315 134.703C195.315 137.13 194.101 138.343 191.675 138.343H172.915V155.283C172.915 158.457 171.468 160.043 168.575 160.043ZM208.021 159.483C204.848 159.483 203.261 157.897 203.261 154.723V114.893C203.261 111.72 204.848 110.133 208.021 110.133H233.011C235.438 110.133 236.651 111.3 236.651 113.633C236.651 116.06 235.438 117.273 233.011 117.273H211.871V130.853H231.471C233.898 130.853 235.111 132.043 235.111 134.423C235.111 136.803 233.898 137.993 231.471 137.993H211.871V152.343H233.011C235.438 152.343 236.651 153.533 236.651 155.913C236.651 158.293 235.438 159.483 233.011 159.483H208.021Z" fill="white"/>
</svg>
