<svg width="69" height="70" viewBox="0 0 69 70" fill="none" xmlns="http://www.w3.org/2000/svg">
<path d="M63.9572 33.5098C63.9572 50.3772 50.2835 64.0509 33.4161 64.0509C16.5487 64.0509 2.875 50.3772 2.875 33.5098C2.875 16.6425 16.5487 2.96875 33.4161 2.96875C50.2835 2.96875 63.9572 16.6425 63.9572 33.5098Z" fill="#D3D6D9"/>
<path fill-rule="evenodd" clip-rule="evenodd" d="M33.4161 59.497C47.7684 59.497 59.4033 47.8622 59.4033 33.5098C59.4033 19.1575 47.7684 7.52265 33.4161 7.52265C19.0638 7.52265 7.4289 19.1575 7.4289 33.5098C7.4289 47.8622 19.0638 59.497 33.4161 59.497ZM33.4161 64.0509C50.2835 64.0509 63.9572 50.3772 63.9572 33.5098C63.9572 16.6425 50.2835 2.96875 33.4161 2.96875C16.5487 2.96875 2.875 16.6425 2.875 33.5098C2.875 50.3772 16.5487 64.0509 33.4161 64.0509Z" fill="white"/>
<path fill-rule="evenodd" clip-rule="evenodd" d="M48.038 19.6228C49.3912 20.6129 49.6855 22.5125 48.6954 23.8656L30.3278 48.968L18.6935 40.6616C17.3289 39.6873 17.0124 37.7913 17.9867 36.4267C18.961 35.0621 20.857 34.7457 22.2216 35.7199L28.9715 40.5391L43.7952 20.2801C44.7853 18.927 46.6849 18.6326 48.038 19.6228Z" fill="white"/>
</svg>
