<svg width="442" height="129" viewBox="0 0 442 129" fill="none" xmlns="http://www.w3.org/2000/svg">
<path d="M81.0354 10.7043H76.8655L75.9289 13.302H74.5754L78.3762 3.34888H79.5246L83.3323 13.302H81.9856L81.0354 10.7043ZM77.2619 9.62427H80.6457L78.9504 4.96899L77.2619 9.62427ZM85.8479 13.302H84.5832V2.802H85.8479V13.302ZM89.2522 13.302H87.9875V2.802H89.2522V13.302ZM97.7219 12.4065C98.1731 12.4065 98.5673 12.2698 98.9045 11.9963C99.2418 11.7229 99.4286 11.3811 99.4651 10.9709H100.661C100.639 11.3948 100.493 11.7981 100.224 12.1809C99.955 12.5637 99.595 12.8691 99.1438 13.0969C98.6972 13.3248 98.2232 13.4387 97.7219 13.4387C96.7147 13.4387 95.9127 13.1038 95.3157 12.4338C94.7232 11.7594 94.427 10.8388 94.427 9.67212V9.46021C94.427 8.74015 94.5591 8.09985 94.8235 7.53931C95.0878 6.97876 95.466 6.54354 95.9582 6.23364C96.455 5.92375 97.0406 5.7688 97.7151 5.7688C98.5445 5.7688 99.2326 6.01717 99.7795 6.51392C100.331 7.01066 100.625 7.65552 100.661 8.44849H99.4651C99.4286 7.96997 99.2463 7.57804 98.9182 7.27271C98.5946 6.96281 98.1936 6.80786 97.7151 6.80786C97.0725 6.80786 96.5735 7.04028 96.218 7.50513C95.8671 7.96541 95.6916 8.63306 95.6916 9.50806V9.74731C95.6916 10.5995 95.8671 11.2558 96.218 11.7161C96.5689 12.1764 97.0702 12.4065 97.7219 12.4065ZM106.65 13.302C106.577 13.1562 106.517 12.8964 106.472 12.5227C105.884 13.1334 105.182 13.4387 104.366 13.4387C103.637 13.4387 103.038 13.2336 102.569 12.8235C102.104 12.4088 101.871 11.8847 101.871 11.2512C101.871 10.481 102.163 9.88403 102.746 9.46021C103.334 9.03182 104.159 8.81763 105.221 8.81763H106.451V8.23657C106.451 7.79451 106.319 7.4436 106.055 7.18384C105.791 6.91951 105.401 6.78735 104.886 6.78735C104.435 6.78735 104.057 6.90129 103.751 7.12915C103.446 7.35701 103.293 7.63273 103.293 7.9563H102.022C102.022 7.58716 102.152 7.23169 102.411 6.88989C102.676 6.54354 103.031 6.2701 103.478 6.06958C103.929 5.86906 104.423 5.7688 104.961 5.7688C105.813 5.7688 106.481 5.98299 106.964 6.41138C107.447 6.83521 107.698 7.42082 107.716 8.16821V11.5725C107.716 12.2515 107.803 12.7916 107.976 13.1926V13.302H106.65ZM104.551 12.3381C104.947 12.3381 105.323 12.2356 105.679 12.0305C106.034 11.8254 106.292 11.5588 106.451 11.2307V9.71313H105.46C103.911 9.71313 103.136 10.1666 103.136 11.0735C103.136 11.47 103.268 11.7799 103.532 12.0032C103.797 12.2265 104.136 12.3381 104.551 12.3381ZM115.947 9.68579C115.947 10.8114 115.689 11.7183 115.174 12.4065C114.659 13.0946 113.962 13.4387 113.082 13.4387C112.184 13.4387 111.478 13.1539 110.963 12.5842V16.1458H109.698V5.90552H110.854L110.915 6.72583C111.43 6.08781 112.146 5.7688 113.062 5.7688C113.95 5.7688 114.652 6.10376 115.167 6.77368C115.687 7.4436 115.947 8.37557 115.947 9.56958V9.68579ZM114.682 9.54224C114.682 8.70825 114.504 8.04972 114.149 7.56665C113.793 7.08358 113.306 6.84204 112.686 6.84204C111.92 6.84204 111.346 7.18156 110.963 7.8606V11.3948C111.341 12.0693 111.92 12.4065 112.699 12.4065C113.306 12.4065 113.786 12.1672 114.142 11.6887C114.502 11.2056 114.682 10.4902 114.682 9.54224ZM121.866 11.3401C121.866 10.9983 121.737 10.734 121.477 10.5471C121.222 10.3557 120.773 10.1917 120.13 10.0549C119.492 9.91821 118.984 9.75415 118.606 9.56274C118.232 9.37134 117.954 9.14347 117.772 8.87915C117.594 8.61483 117.505 8.30037 117.505 7.93579C117.505 7.32967 117.76 6.81698 118.271 6.39771C118.786 5.97843 119.442 5.7688 120.239 5.7688C121.078 5.7688 121.757 5.98527 122.277 6.41821C122.801 6.85116 123.063 7.40487 123.063 8.07935H121.791C121.791 7.73299 121.643 7.43449 121.347 7.18384C121.055 6.93319 120.686 6.80786 120.239 6.80786C119.779 6.80786 119.419 6.90812 119.159 7.10864C118.9 7.30916 118.77 7.57121 118.77 7.89478C118.77 8.20011 118.891 8.43026 119.132 8.58521C119.374 8.74015 119.809 8.88826 120.438 9.02954C121.071 9.17082 121.584 9.33944 121.976 9.5354C122.368 9.73136 122.657 9.96834 122.844 10.2463C123.035 10.5198 123.131 10.8547 123.131 11.2512C123.131 11.912 122.867 12.443 122.338 12.844C121.809 13.2405 121.124 13.4387 120.28 13.4387C119.688 13.4387 119.164 13.3339 118.708 13.1243C118.253 12.9146 117.895 12.623 117.635 12.2493C117.38 11.871 117.252 11.4631 117.252 11.0256H118.517C118.54 11.4495 118.708 11.7867 119.023 12.0374C119.342 12.2834 119.761 12.4065 120.28 12.4065C120.759 12.4065 121.142 12.3108 121.429 12.1194C121.721 11.9234 121.866 11.6637 121.866 11.3401ZM124.738 15.2844L124.02 14.7922C124.448 14.1952 124.671 13.58 124.69 12.9465V11.8049H125.927V12.7961C125.927 13.2564 125.813 13.7167 125.585 14.177C125.362 14.6373 125.079 15.0064 124.738 15.2844ZM130.692 9.54224C130.692 8.40747 130.961 7.49601 131.498 6.80786C132.036 6.11515 132.74 5.7688 133.611 5.7688C134.476 5.7688 135.162 6.06502 135.668 6.65747V2.802H136.933V13.302H135.771L135.709 12.509C135.203 13.1288 134.499 13.4387 133.597 13.4387C132.74 13.4387 132.041 13.0878 131.498 12.386C130.961 11.6842 130.692 10.7681 130.692 9.63794V9.54224ZM131.956 9.68579C131.956 10.5243 132.129 11.1806 132.476 11.6545C132.822 12.1285 133.301 12.3655 133.911 12.3655C134.713 12.3655 135.299 12.0055 135.668 11.2854V7.88794C135.29 7.19067 134.709 6.84204 133.925 6.84204C133.305 6.84204 132.822 7.0813 132.476 7.55981C132.129 8.03833 131.956 8.74699 131.956 9.68579ZM140.276 13.302H139.011V5.90552H140.276V13.302ZM138.908 3.9436C138.908 3.73853 138.97 3.56535 139.093 3.42407C139.221 3.2828 139.407 3.21216 139.654 3.21216C139.9 3.21216 140.086 3.2828 140.214 3.42407C140.342 3.56535 140.406 3.73853 140.406 3.9436C140.406 4.14868 140.342 4.31958 140.214 4.4563C140.086 4.59302 139.9 4.66138 139.654 4.66138C139.407 4.66138 139.221 4.59302 139.093 4.4563C138.97 4.31958 138.908 4.14868 138.908 3.9436ZM142.005 9.54224C142.005 8.38924 142.272 7.47323 142.805 6.79419C143.338 6.1106 144.044 5.7688 144.924 5.7688C145.826 5.7688 146.531 6.08781 147.036 6.72583L147.098 5.90552H148.253V13.1243C148.253 14.0813 147.968 14.8355 147.399 15.387C146.834 15.9384 146.072 16.2141 145.115 16.2141C144.582 16.2141 144.06 16.1002 143.55 15.8723C143.04 15.6444 142.65 15.3323 142.381 14.9358L143.037 14.177C143.58 14.8469 144.243 15.1819 145.027 15.1819C145.642 15.1819 146.12 15.0087 146.462 14.6624C146.808 14.316 146.982 13.8284 146.982 13.1995V12.5637C146.476 13.1471 145.785 13.4387 144.91 13.4387C144.044 13.4387 143.343 13.0901 142.805 12.3928C142.272 11.6956 142.005 10.7454 142.005 9.54224ZM143.277 9.68579C143.277 10.5198 143.447 11.176 143.789 11.6545C144.131 12.1285 144.61 12.3655 145.225 12.3655C146.022 12.3655 146.608 12.0032 146.982 11.2786V7.90161C146.594 7.19523 146.013 6.84204 145.239 6.84204C144.623 6.84204 144.142 7.0813 143.796 7.55981C143.45 8.03833 143.277 8.74699 143.277 9.68579ZM151.541 13.302H150.277V5.90552H151.541V13.302ZM150.174 3.9436C150.174 3.73853 150.236 3.56535 150.359 3.42407C150.486 3.2828 150.673 3.21216 150.919 3.21216C151.165 3.21216 151.352 3.2828 151.48 3.42407C151.607 3.56535 151.671 3.73853 151.671 3.9436C151.671 4.14868 151.607 4.31958 151.48 4.4563C151.352 4.59302 151.165 4.66138 150.919 4.66138C150.673 4.66138 150.486 4.59302 150.359 4.4563C150.236 4.31958 150.174 4.14868 150.174 3.9436ZM155.287 4.1145V5.90552H156.668V6.88306H155.287V11.47C155.287 11.7662 155.349 11.9895 155.472 12.1399C155.595 12.2857 155.805 12.3586 156.101 12.3586C156.247 12.3586 156.447 12.3313 156.702 12.2766V13.302C156.37 13.3931 156.046 13.4387 155.732 13.4387C155.167 13.4387 154.74 13.2678 154.453 12.926C154.166 12.5842 154.023 12.0989 154.023 11.47V6.88306H152.676V5.90552H154.023V4.1145H155.287ZM162.458 11.3401C162.458 10.9983 162.328 10.734 162.069 10.5471C161.813 10.3557 161.364 10.1917 160.722 10.0549C160.084 9.91821 159.576 9.75415 159.197 9.56274C158.824 9.37134 158.546 9.14347 158.364 8.87915C158.186 8.61483 158.097 8.30037 158.097 7.93579C158.097 7.32967 158.352 6.81698 158.863 6.39771C159.378 5.97843 160.034 5.7688 160.831 5.7688C161.67 5.7688 162.349 5.98527 162.868 6.41821C163.392 6.85116 163.655 7.40487 163.655 8.07935H162.383C162.383 7.73299 162.235 7.43449 161.939 7.18384C161.647 6.93319 161.278 6.80786 160.831 6.80786C160.371 6.80786 160.011 6.90812 159.751 7.10864C159.491 7.30916 159.362 7.57121 159.362 7.89478C159.362 8.20011 159.482 8.43026 159.724 8.58521C159.965 8.74015 160.401 8.88826 161.03 9.02954C161.663 9.17082 162.176 9.33944 162.568 9.5354C162.96 9.73136 163.249 9.96834 163.436 10.2463C163.627 10.5198 163.723 10.8547 163.723 11.2512C163.723 11.912 163.459 12.443 162.93 12.844C162.401 13.2405 161.715 13.4387 160.872 13.4387C160.28 13.4387 159.756 13.3339 159.3 13.1243C158.844 12.9146 158.487 12.623 158.227 12.2493C157.972 11.871 157.844 11.4631 157.844 11.0256H159.109C159.131 11.4495 159.3 11.7867 159.614 12.0374C159.933 12.2834 160.353 12.4065 160.872 12.4065C161.351 12.4065 161.734 12.3108 162.021 12.1194C162.312 11.9234 162.458 11.6637 162.458 11.3401Z" fill="black" fill-opacity="0.7"/>
<path d="M238.032 12.2288H242.749V13.302H236.713V3.34888H238.032V12.2288ZM243.713 9.5354C243.713 8.81079 243.854 8.1591 244.137 7.58032C244.424 7.00155 244.82 6.55493 245.326 6.24048C245.836 5.92603 246.417 5.7688 247.069 5.7688C248.076 5.7688 248.89 6.11743 249.51 6.8147C250.134 7.51196 250.446 8.43937 250.446 9.59692V9.68579C250.446 10.4058 250.307 11.053 250.029 11.6272C249.756 12.1969 249.362 12.6412 248.847 12.9602C248.336 13.2792 247.748 13.4387 247.083 13.4387C246.08 13.4387 245.267 13.0901 244.642 12.3928C244.023 11.6956 243.713 10.7727 243.713 9.62427V9.5354ZM244.984 9.68579C244.984 10.5061 245.173 11.1646 245.552 11.6614C245.934 12.1581 246.445 12.4065 247.083 12.4065C247.725 12.4065 248.236 12.1558 248.614 11.6545C248.992 11.1487 249.181 10.4423 249.181 9.5354C249.181 8.7242 248.988 8.06795 248.6 7.56665C248.218 7.06079 247.707 6.80786 247.069 6.80786C246.445 6.80786 245.941 7.05623 245.558 7.55298C245.176 8.04972 244.984 8.76066 244.984 9.68579ZM258.581 11.5588L260.003 5.90552H261.267L259.114 13.302H258.089L256.291 7.69653L254.541 13.302H253.515L251.369 5.90552H252.627L254.083 11.4426L255.806 5.90552H256.824L258.581 11.5588ZM265.629 13.4387C264.626 13.4387 263.81 13.1106 263.181 12.4543C262.553 11.7935 262.238 10.9117 262.238 9.80884V9.57642C262.238 8.84269 262.377 8.18872 262.655 7.6145C262.938 7.03573 263.33 6.58455 263.831 6.26099C264.337 5.93286 264.884 5.7688 265.472 5.7688C266.433 5.7688 267.181 6.08553 267.714 6.71899C268.247 7.35246 268.514 8.25936 268.514 9.4397V9.96606H263.503C263.521 10.6952 263.733 11.2854 264.139 11.7366C264.549 12.1832 265.068 12.4065 265.697 12.4065C266.144 12.4065 266.522 12.3153 266.832 12.1331C267.142 11.9508 267.413 11.7092 267.645 11.4084L268.418 12.01C267.798 12.9625 266.868 13.4387 265.629 13.4387ZM265.472 6.80786C264.961 6.80786 264.533 6.99471 264.186 7.36841C263.84 7.73755 263.626 8.25708 263.544 8.927H267.249V8.8313C267.212 8.18872 267.039 7.69198 266.729 7.34106C266.419 6.9856 266 6.80786 265.472 6.80786ZM273.558 7.04028C273.367 7.00838 273.16 6.99243 272.936 6.99243C272.107 6.99243 271.544 7.34562 271.248 8.052V13.302H269.983V5.90552H271.214L271.234 6.76001C271.649 6.0992 272.237 5.7688 272.998 5.7688C273.244 5.7688 273.431 5.8007 273.558 5.8645V7.04028ZM281.167 12.4065C281.618 12.4065 282.012 12.2698 282.349 11.9963C282.687 11.7229 282.874 11.3811 282.91 10.9709H284.106C284.084 11.3948 283.938 11.7981 283.669 12.1809C283.4 12.5637 283.04 12.8691 282.589 13.0969C282.142 13.3248 281.668 13.4387 281.167 13.4387C280.16 13.4387 279.358 13.1038 278.761 12.4338C278.168 11.7594 277.872 10.8388 277.872 9.67212V9.46021C277.872 8.74015 278.004 8.09985 278.268 7.53931C278.533 6.97876 278.911 6.54354 279.403 6.23364C279.9 5.92375 280.486 5.7688 281.16 5.7688C281.989 5.7688 282.678 6.01717 283.224 6.51392C283.776 7.01066 284.07 7.65552 284.106 8.44849H282.91C282.874 7.96997 282.691 7.57804 282.363 7.27271C282.04 6.96281 281.639 6.80786 281.16 6.80786C280.517 6.80786 280.018 7.04028 279.663 7.50513C279.312 7.96541 279.137 8.63306 279.137 9.50806V9.74731C279.137 10.5995 279.312 11.2558 279.663 11.7161C280.014 12.1764 280.515 12.4065 281.167 12.4065ZM290.095 13.302C290.022 13.1562 289.962 12.8964 289.917 12.5227C289.329 13.1334 288.627 13.4387 287.811 13.4387C287.082 13.4387 286.483 13.2336 286.014 12.8235C285.549 12.4088 285.316 11.8847 285.316 11.2512C285.316 10.481 285.608 9.88403 286.191 9.46021C286.779 9.03182 287.604 8.81763 288.666 8.81763H289.896V8.23657C289.896 7.79451 289.764 7.4436 289.5 7.18384C289.236 6.91951 288.846 6.78735 288.331 6.78735C287.88 6.78735 287.501 6.90129 287.196 7.12915C286.891 7.35701 286.738 7.63273 286.738 7.9563H285.467C285.467 7.58716 285.597 7.23169 285.856 6.88989C286.121 6.54354 286.476 6.2701 286.923 6.06958C287.374 5.86906 287.868 5.7688 288.406 5.7688C289.258 5.7688 289.926 5.98299 290.409 6.41138C290.892 6.83521 291.143 7.42082 291.161 8.16821V11.5725C291.161 12.2515 291.248 12.7916 291.421 13.1926V13.302H290.095ZM287.996 12.3381C288.392 12.3381 288.768 12.2356 289.124 12.0305C289.479 11.8254 289.737 11.5588 289.896 11.2307V9.71313H288.905C287.356 9.71313 286.581 10.1666 286.581 11.0735C286.581 11.47 286.713 11.7799 286.977 12.0032C287.242 12.2265 287.581 12.3381 287.996 12.3381ZM297.45 11.3401C297.45 10.9983 297.32 10.734 297.06 10.5471C296.805 10.3557 296.356 10.1917 295.714 10.0549C295.076 9.91821 294.568 9.75415 294.189 9.56274C293.816 9.37134 293.538 9.14347 293.355 8.87915C293.178 8.61483 293.089 8.30037 293.089 7.93579C293.089 7.32967 293.344 6.81698 293.854 6.39771C294.369 5.97843 295.026 5.7688 295.823 5.7688C296.662 5.7688 297.341 5.98527 297.86 6.41821C298.384 6.85116 298.646 7.40487 298.646 8.07935H297.375C297.375 7.73299 297.227 7.43449 296.931 7.18384C296.639 6.93319 296.27 6.80786 295.823 6.80786C295.363 6.80786 295.003 6.90812 294.743 7.10864C294.483 7.30916 294.353 7.57121 294.353 7.89478C294.353 8.20011 294.474 8.43026 294.716 8.58521C294.957 8.74015 295.392 8.88826 296.021 9.02954C296.655 9.17082 297.167 9.33944 297.559 9.5354C297.951 9.73136 298.241 9.96834 298.428 10.2463C298.619 10.5198 298.715 10.8547 298.715 11.2512C298.715 11.912 298.45 12.443 297.922 12.844C297.393 13.2405 296.707 13.4387 295.864 13.4387C295.272 13.4387 294.748 13.3339 294.292 13.1243C293.836 12.9146 293.478 12.623 293.219 12.2493C292.963 11.871 292.836 11.4631 292.836 11.0256H294.1C294.123 11.4495 294.292 11.7867 294.606 12.0374C294.925 12.2834 295.345 12.4065 295.864 12.4065C296.343 12.4065 296.725 12.3108 297.013 12.1194C297.304 11.9234 297.45 11.6637 297.45 11.3401ZM303.431 13.4387C302.429 13.4387 301.613 13.1106 300.984 12.4543C300.355 11.7935 300.041 10.9117 300.041 9.80884V9.57642C300.041 8.84269 300.18 8.18872 300.458 7.6145C300.74 7.03573 301.132 6.58455 301.634 6.26099C302.139 5.93286 302.686 5.7688 303.274 5.7688C304.236 5.7688 304.983 6.08553 305.516 6.71899C306.05 7.35246 306.316 8.25936 306.316 9.4397V9.96606H301.306C301.324 10.6952 301.536 11.2854 301.941 11.7366C302.351 12.1832 302.871 12.4065 303.5 12.4065C303.946 12.4065 304.325 12.3153 304.635 12.1331C304.945 11.9508 305.216 11.7092 305.448 11.4084L306.221 12.01C305.601 12.9625 304.671 13.4387 303.431 13.4387ZM303.274 6.80786C302.764 6.80786 302.335 6.99471 301.989 7.36841C301.643 7.73755 301.429 8.25708 301.347 8.927H305.052V8.8313C305.015 8.18872 304.842 7.69198 304.532 7.34106C304.222 6.9856 303.803 6.80786 303.274 6.80786Z" fill="black" fill-opacity="0.7"/>
<path d="M92.3574 104.302H78.6367V52.593C73.6237 57.2805 67.7155 60.7473 60.9121 62.9934V50.5422C64.4928 49.3704 68.3828 47.1568 72.582 43.9016C76.7812 40.6139 79.6621 36.789 81.2246 32.427H92.3574V104.302ZM108.666 104.302L133.129 66.9485L110.961 32.72H127.855L142.211 55.718L156.273 32.72H173.021L150.756 67.4856L175.219 104.302H157.787L141.918 79.5461L126 104.302H108.666Z" fill="#0B3C61"/>
<path d="M211.959 104.096L230.66 77.3867L212.74 52.2402H229.488L238.668 66.498L248.336 52.2402H264.449L246.871 76.8008L266.061 104.096H249.215L238.668 88.0312L228.023 104.096H211.959ZM267.721 52.2402H282.32L294.723 89.0566L306.832 52.2402H321.041L302.73 102.143L299.459 111.176C298.255 114.203 297.099 116.514 295.992 118.109C294.918 119.704 293.665 120.99 292.232 121.967C290.833 122.976 289.091 123.757 287.008 124.311C284.957 124.864 282.63 125.141 280.025 125.141C277.389 125.141 274.801 124.864 272.262 124.311L271.041 113.568C273.189 113.992 275.126 114.203 276.852 114.203C280.042 114.203 282.402 113.259 283.932 111.371C285.462 109.516 286.633 107.139 287.447 104.242L267.721 52.2402Z" fill="#0B3C61"/>
<path d="M189.881 32.8894H16.7812V104.302H189.881" stroke="#4C9E45" stroke-linecap="round" stroke-linejoin="round"/>
<path d="M200.723 52.25H392.273V104.302H200.723" stroke="#4C9E45" stroke-linecap="round" stroke-linejoin="round"/>
<path d="M16.1406 70.3125H0.951172" stroke="#4C9E45" stroke-linecap="round" stroke-linejoin="round"/>
<path d="M407.463 70.3125H392.273" stroke="#4C9E45" stroke-linecap="round" stroke-linejoin="round"/>
</svg>
