<svg width="20" height="20" viewBox="0 0 40 40" fill="none" xmlns="http://www.w3.org/2000/svg">
<path fill-rule="evenodd" clip-rule="evenodd" d="M7.79538 7.29664C7.93598 7.15522 8.16712 7 8.44444 7C11.9723 7 14.7673 7.50464 16.8116 8.18852C18.5688 8.77638 19.8204 9.51364 20.4812 10.2157C21.1554 9.523 22.379 8.78377 24.1226 8.1914C26.1407 7.50578 28.9032 7 32.4444 7C32.7183 7 32.949 7.15291 33.09 7.29316C33.2314 7.43376 33.3867 7.6649 33.3867 7.94222V11.4978H36.4444C36.6899 11.4978 36.8889 11.6968 36.8889 11.9422V32.9422C36.8889 33.1877 36.6899 33.3867 36.4444 33.3867H22.8889C22.6434 33.3867 22.4444 33.1877 22.4444 32.9422C22.4444 32.6968 22.6434 32.4978 22.8889 32.4978H36V12.3867H33.3867V28.44C33.3867 28.7139 33.2337 28.9445 33.0935 29.0856C32.9529 29.227 32.7218 29.3822 32.4444 29.3822C22.9 29.3822 21.0636 33.1596 20.8913 33.514C20.8781 33.5411 20.8747 33.5482 20.8783 33.532C20.8327 33.7371 20.6498 33.8822 20.4397 33.88C20.2296 33.8777 20.0498 33.7287 20.0086 33.5227C20.0097 33.528 20.0087 33.5253 20.0051 33.5155C19.9237 33.2929 18.4931 29.3822 8.44444 29.3822C8.17057 29.3822 7.93991 29.2293 7.79886 29.0891C7.65744 28.9485 7.50222 28.7173 7.50222 28.44V12.3867H4.88889V32.4978H18C18.2455 32.4978 18.4444 32.6968 18.4444 32.9422C18.4444 33.1877 18.2455 33.3867 18 33.3867H4.44444C4.19898 33.3867 4 33.1877 4 32.9422V11.9422C4 11.6968 4.19898 11.4978 4.44444 11.4978H7.50222V7.94222C7.50222 7.66835 7.65514 7.43769 7.79538 7.29664ZM8.39111 7.9677V28.4151C8.39737 28.4261 8.40873 28.442 8.42558 28.4587C8.44252 28.4756 8.45867 28.487 8.46994 28.4933C16.678 28.4987 19.5399 31.0834 20.4705 32.4921C21.4773 31.0964 24.4555 28.4987 32.4195 28.4933C32.4305 28.4871 32.4464 28.4757 32.4632 28.4589C32.48 28.4419 32.4914 28.4258 32.4978 28.4145V7.9671C32.4915 7.95612 32.4802 7.94026 32.4633 7.92351C32.4464 7.90669 32.4302 7.89524 32.419 7.8889C28.9726 7.89132 26.3169 8.38471 24.4085 9.03304C22.4778 9.689 21.3582 10.4872 20.9275 11.0552L20.926 11.0571L20.8238 11.1904C20.738 11.3024 20.604 11.367 20.4629 11.3644C20.3218 11.3618 20.1903 11.2923 20.1087 11.1772L20.0109 11.0394L20.0096 11.0376C19.6219 10.4854 18.4958 9.68929 16.5296 9.03148C14.5929 8.38359 11.9029 7.89126 8.46931 7.8889C8.45833 7.89516 8.44247 7.90652 8.42573 7.92336C8.4089 7.94029 8.39745 7.95644 8.39111 7.9677Z" fill="#333333"/>
<path fill-rule="evenodd" clip-rule="evenodd" d="M10.7535 13.3899C10.7787 13.1458 10.9971 12.9683 11.2412 12.9935C13.6133 13.2384 15.7392 13.8593 17.3644 14.5267C17.5915 14.6199 17.6999 14.8795 17.6067 15.1066C17.5135 15.3337 17.2538 15.4422 17.0268 15.3489C15.4698 14.7096 13.4268 14.1127 11.1499 13.8777C10.9058 13.8525 10.7283 13.6341 10.7535 13.3899Z" fill="#333333"/>
<path fill-rule="evenodd" clip-rule="evenodd" d="M10.7535 18.3943C10.7787 18.1502 10.9971 17.9727 11.2412 17.9979C13.6133 18.2428 15.7392 18.8637 17.3644 19.5311C17.5915 19.6243 17.6999 19.884 17.6067 20.111C17.5135 20.3381 17.2538 20.4466 17.0268 20.3534C15.4698 19.714 13.4268 19.1172 11.1499 18.8821C10.9058 18.8569 10.7283 18.6385 10.7535 18.3943Z" fill="#333333"/>
<path fill-rule="evenodd" clip-rule="evenodd" d="M10.7535 23.39C10.7786 23.1458 10.997 22.9683 11.2411 22.9935C13.6176 23.2384 15.7436 23.8593 17.3648 24.5268C17.5918 24.6203 17.7 24.88 17.6065 25.107C17.5131 25.334 17.2533 25.4422 17.0264 25.3488C15.4742 24.7096 13.4313 24.1128 11.15 23.8777C10.9059 23.8525 10.7283 23.6342 10.7535 23.39Z" fill="#333333"/>
<path fill-rule="evenodd" clip-rule="evenodd" d="M30.1354 13.3899C30.1606 13.6341 29.9831 13.8525 29.739 13.8777C27.4622 14.1127 25.4191 14.7096 23.8622 15.3489C23.6351 15.4422 23.3754 15.3337 23.2822 15.1066C23.189 14.8795 23.2975 14.6199 23.5245 14.5267C25.1498 13.8593 27.2756 13.2384 29.6477 12.9935C29.8919 12.9683 30.1102 13.1458 30.1354 13.3899Z" fill="#333333"/>
<path fill-rule="evenodd" clip-rule="evenodd" d="M30.1354 18.3943C30.1606 18.6385 29.9831 18.8569 29.739 18.8821C27.4622 19.1172 25.4191 19.714 23.8622 20.3534C23.6351 20.4466 23.3754 20.3381 23.2822 20.111C23.189 19.884 23.2975 19.6243 23.5245 19.5311C25.1498 18.8637 27.2756 18.2428 29.6477 17.9979C29.8919 17.9727 30.1102 18.1502 30.1354 18.3943Z" fill="#333333"/>
<path fill-rule="evenodd" clip-rule="evenodd" d="M30.1354 23.39C30.1606 23.6342 29.9831 23.8525 29.7389 23.8777C27.4576 24.1128 25.4147 24.7096 23.8626 25.3488C23.6356 25.4422 23.3758 25.334 23.2824 25.107C23.1889 24.88 23.2971 24.6203 23.5241 24.5268C25.1453 23.8593 27.2713 23.2384 29.6478 22.9935C29.8919 22.9683 30.1103 23.1458 30.1354 23.39Z" fill="#333333"/>
<path fill-rule="evenodd" clip-rule="evenodd" d="M20.0266 33.16V10.9156H20.9155V33.16H20.0266Z" fill="#333333"/>
</svg>
