<svg width="145" height="108" viewBox="0 0 145 108" fill="none" xmlns="http://www.w3.org/2000/svg">
<path fill-rule="evenodd" clip-rule="evenodd" d="M117.945 68.3785C111.311 87.1468 93.093 100.625 71.658 100.625C50.2229 100.625 32.0048 87.1468 25.3708 68.3785H1.95862L14.4866 56.0961L1.95862 43.8138H23.5344C27.7954 21.6 47.7208 4.79163 71.658 4.79163C95.5951 4.79163 115.521 21.6 119.781 43.8138H142.612L130.085 56.0961L142.612 68.3785H117.945Z" fill="#0B3C61"/>
<path d="M71.6757 90.1779C92.8719 90.1779 110.055 73.363 110.055 52.6208C110.055 31.8786 92.8719 15.0637 71.6757 15.0637C50.4795 15.0637 33.2965 31.8786 33.2965 52.6208C33.2965 73.363 50.4795 90.1779 71.6757 90.1779Z" fill="white"/>
<path d="M21.6254 35.1887C21.6254 35.1887 68.0397 53.3598 122.115 35.1887C122.115 35.1887 127.194 50.4907 122.115 64.6067C122.115 64.6067 73.734 82.51 21.6254 64.6067C21.6254 64.6067 17.0372 51.9826 21.6254 35.1887Z" fill="#0B3C61" stroke="white" stroke-width="1.5" stroke-miterlimit="10" stroke-linejoin="round"/>
<path d="M63.6524 49.5254C64.1068 49.5254 64.4672 49.6634 64.7336 49.9394C65 50.2001 65.1331 50.5527 65.1331 50.9974V64.4984C65.1331 64.9431 64.9921 65.3034 64.7101 65.5794C64.4437 65.8554 64.0912 65.9934 63.6524 65.9934C63.198 65.9934 62.8376 65.8554 62.5713 65.5794C62.3049 65.3034 62.1717 64.9431 62.1717 64.4984V58.8174H53.687V64.4984C53.687 64.9431 53.5459 65.3034 53.2639 65.5794C52.9975 65.8554 52.6371 65.9934 52.1827 65.9934C51.744 65.9934 51.3836 65.8554 51.1016 65.5794C50.8352 65.3034 50.702 64.9431 50.702 64.4984V50.9974C50.702 50.5527 50.8352 50.2001 51.1016 49.9394C51.368 49.6634 51.7283 49.5254 52.1827 49.5254C52.6371 49.5254 52.9975 49.6634 53.2639 49.9394C53.5459 50.2001 53.687 50.5527 53.687 50.9974V56.4254H62.1717V50.9974C62.1717 50.5527 62.3049 50.2001 62.5713 49.9394C62.8376 49.6634 63.198 49.5254 63.6524 49.5254Z" fill="white"/>
<path d="M70.2011 65.9934C69.7467 65.9934 69.3785 65.8554 69.0964 65.5794C68.83 65.3034 68.6969 64.9431 68.6969 64.4984V51.0434C68.6969 50.5987 68.8222 50.2537 69.0729 50.0084C69.3393 49.7631 69.6997 49.6404 70.1541 49.6404H78.4038C79.3596 49.6404 79.8375 50.0391 79.8375 50.8364C79.8375 51.6184 79.3596 52.0094 78.4038 52.0094H71.6818V56.4254H77.9337C78.8895 56.4254 79.3674 56.8241 79.3674 57.6214C79.3674 58.4034 78.8895 58.7944 77.9337 58.7944H71.6818V64.4984C71.6818 64.9431 71.5486 65.3034 71.2822 65.5794C71.0159 65.8554 70.6555 65.9934 70.2011 65.9934Z" fill="white"/>
<path d="M83.4666 65.8554C83.0122 65.8554 82.6518 65.7327 82.3854 65.4874C82.1347 65.2421 82.0094 64.8971 82.0094 64.4524V51.0434C82.0094 50.5987 82.1347 50.2537 82.3854 50.0084C82.6518 49.7631 83.0122 49.6404 83.4666 49.6404H91.9513C92.4057 49.6404 92.7583 49.7401 93.009 49.9394C93.2597 50.1387 93.385 50.4224 93.385 50.7904C93.385 51.1737 93.2597 51.4727 93.009 51.6874C92.7583 51.8867 92.4057 51.9864 91.9513 51.9864H84.9708V56.4484H91.4813C91.9357 56.4484 92.2882 56.5481 92.5389 56.7474C92.7896 56.9467 92.915 57.2381 92.915 57.6214C92.915 57.9894 92.7896 58.2731 92.5389 58.4724C92.2882 58.6717 91.9357 58.7714 91.4813 58.7714H84.9708V63.5094H91.9513C92.4057 63.5094 92.7583 63.6167 93.009 63.8314C93.2597 64.0307 93.385 64.3221 93.385 64.7054C93.385 65.0734 93.2597 65.3571 93.009 65.5564C92.7583 65.7557 92.4057 65.8554 91.9513 65.8554H83.4666Z" fill="white"/>
</svg>
