<svg width="40" height="40" viewBox="0 0 40 40" fill="none" xmlns="http://www.w3.org/2000/svg">
<path fill-rule="evenodd" clip-rule="evenodd" d="M20 7.29163C12.9814 7.29163 7.29169 12.9813 7.29169 20C7.29169 27.0186 12.9814 32.7083 20 32.7083C27.0186 32.7083 32.7084 27.0186 32.7084 20C32.7084 12.9813 27.0186 7.29163 20 7.29163ZM6.04169 20C6.04169 12.291 12.291 6.04163 20 6.04163C27.709 6.04163 33.9584 12.291 33.9584 20C33.9584 27.7089 27.709 33.9583 20 33.9583C12.291 33.9583 6.04169 27.7089 6.04169 20Z" fill="#333333"/>
<rect x="20" y="17" width="0.86" height="11" rx="0.43" fill="#333333" stroke="#333333" stroke-width="0.5"/>
<path fill-rule="evenodd" clip-rule="evenodd" d="M20.4278 13.75C20.1915 13.75 20 13.9415 20 14.1778V14.6187C20 14.8549 20.1915 15.0464 20.4278 15.0464C20.664 15.0464 20.8556 14.8549 20.8556 14.6187V14.1778C20.8556 13.9415 20.664 13.75 20.4278 13.75Z" fill="#333333"/>
<path d="M20.25 14.1778C20.25 14.0796 20.3296 14 20.4278 14V13.5C20.0535 13.5 19.75 13.8035 19.75 14.1778H20.25ZM20.25 14.6187V14.1778H19.75V14.6187H20.25ZM20.4278 14.7964C20.3296 14.7964 20.25 14.7169 20.25 14.6187H19.75C19.75 14.993 20.0535 15.2964 20.4278 15.2964V14.7964ZM20.6056 14.6187C20.6056 14.7169 20.526 14.7964 20.4278 14.7964V15.2964C20.8021 15.2964 21.1056 14.993 21.1056 14.6187H20.6056ZM20.6056 14.1778V14.6187H21.1056V14.1778H20.6056ZM20.4278 14C20.526 14 20.6056 14.0796 20.6056 14.1778H21.1056C21.1056 13.8035 20.8021 13.5 20.4278 13.5V14Z" fill="#333333"/>
</svg>
