<svg width="24" height="24" viewBox="0 0 24 24" fill="none" xmlns="http://www.w3.org/2000/svg">
<path d="M23.4001 12.0001C23.4001 18.2961 18.2961 23.4001 12.0001 23.4001C5.70405 23.4001 0.600098 18.2961 0.600098 12.0001C0.600098 5.70405 5.70405 0.600098 12.0001 0.600098C18.2961 0.600098 23.4001 5.70405 23.4001 12.0001Z" fill="#4C9E45"/>
<path fill-rule="evenodd" clip-rule="evenodd" d="M16.7206 7.80357C17.2004 8.1546 17.2914 8.83441 16.9209 9.29926L10.8761 16.8835L7.16658 13.4686C6.8404 13.1683 6.78128 12.6753 7.0272 12.3064C7.33014 11.852 7.96453 11.7696 8.37347 12.1316L10.6001 14.1024L15.2735 8.01097C15.6194 7.5601 16.262 7.46801 16.7206 7.80357Z" fill="white"/>
</svg>
