<svg width="182" height="106" viewBox="0 0 182 106" fill="none" xmlns="http://www.w3.org/2000/svg">
<g clip-path="url(#clip0_712_1224)">
<rect width="183" height="106" rx="5" fill="#92C83E"/>
<ellipse cx="92" cy="94" rx="32" ry="3" fill="#82B337"/>
<path d="M80.9519 55.2826L86.1555 54L94.8658 61.9054L93.6321 66.5C89.6321 70.5 80.6321 79 78.6321 81C76.1321 82.5 73.1321 83.5 69.4286 81.2489C65.3101 78.7455 66.0308 72.4468 67.2126 68.9259L80.9519 55.2826Z" fill="#6C9D1F"/>
<path d="M79.6155 54.3229L84.8191 53.0403L93.5294 60.9457L91.5819 66.2058C87.7408 70.4601 79.7161 77.7108 77.5001 79.5C75.1901 81.3651 70.6917 83.3273 66.5001 79C62.3084 74.6728 64.5001 69 65.8762 67.9662L79.6155 54.3229Z" fill="white"/>
<path fill-rule="evenodd" clip-rule="evenodd" d="M82.1721 60.8611C82.4596 61.1593 82.4508 61.6341 82.1525 61.9215L71.6525 72.0397C71.3542 72.3271 70.8794 72.3184 70.592 72.0201C70.3046 71.7218 70.3134 71.247 70.6117 70.9596L81.1117 60.8414C81.4099 60.554 81.8847 60.5628 82.1721 60.8611ZM86.187 63.9952C86.4657 64.3017 86.4431 64.776 86.1366 65.0546L75.1366 75.0546C74.8301 75.3333 74.3558 75.3107 74.0771 75.0042C73.7985 74.6977 73.8211 74.2234 74.1276 73.9447L85.1276 63.9447C85.4341 63.6661 85.9084 63.6887 86.187 63.9952Z" fill="#0B3C61"/>
<path fill-rule="evenodd" clip-rule="evenodd" d="M84.1539 53.5238L80.2621 54.3887L65.9474 68.2097C65.3198 68.9976 64.6321 70.6089 64.5167 72.492C64.4013 74.3753 64.8623 76.4535 66.4481 78.1979C68.0343 79.9428 70.0336 80.5908 71.9153 80.6465C73.7747 80.7015 75.468 80.1748 76.4329 79.6042L91.2099 65.3197L92.0717 61.4416L84.1539 53.5238ZM83.9625 52.0298C84.3797 51.9371 84.8153 52.0639 85.1175 52.3661L93.2294 60.478C93.5316 60.7802 93.6584 61.2158 93.5657 61.633L92.6579 65.7185C92.6047 65.9576 92.4825 66.1758 92.3064 66.346L77.3557 80.7984L77.2862 80.8411C76.0716 81.5886 74.0509 82.2103 71.8709 82.1458C69.6693 82.0807 67.2519 81.312 65.3382 79.2069C63.4239 77.1012 62.8849 74.5961 63.0195 72.4003C63.1525 70.2305 63.9472 68.2853 64.8126 67.2275L64.8405 67.1934L79.2708 53.2607C79.4365 53.1007 79.6431 52.9896 79.8679 52.9397L83.9625 52.0298Z" fill="#0B3C61"/>
<path fill-rule="evenodd" clip-rule="evenodd" d="M120.544 23.1348C121.008 22.8971 121.579 22.9794 121.951 23.3376L125.939 27.1798C126.312 27.5391 126.396 28.0914 126.147 28.5393L121.506 36.8845C121.326 37.2074 120.998 37.4288 120.622 37.4809L116.358 38.0719L103.129 50.788C103.102 50.8134 103.075 50.8375 103.046 50.8603L103.066 50.8793L102.292 51.6253L100.6 49.9952L100.615 49.981L97.4757 46.9076C97.0157 46.4572 97.0178 45.7339 97.4805 45.286L110.663 32.5242L111.276 28.4147C111.331 28.0507 111.562 27.7335 111.899 27.561L120.544 23.1348Z" fill="white"/>
<path fill-rule="evenodd" clip-rule="evenodd" d="M120.544 23.1348C121.008 22.8971 121.579 22.9794 121.951 23.3376L125.939 27.1798C126.312 27.5391 126.396 28.0914 126.147 28.5393L121.506 36.8845C121.326 37.2074 120.998 37.4288 120.622 37.4809L116.358 38.0719L103.129 50.788C103.102 50.8134 103.075 50.8375 103.046 50.8603L103.066 50.8793L102.292 51.6253L100.6 49.9952L100.615 49.981L97.4757 46.9076C97.0157 46.4572 97.0178 45.7339 97.4805 45.286L110.663 32.5242L111.276 28.4147C111.331 28.0507 111.562 27.7335 111.899 27.561L120.544 23.1348Z" fill="url(#paint0_linear_712_1224)"/>
<path fill-rule="evenodd" clip-rule="evenodd" d="M120.202 22.4672C120.948 22.0855 121.866 22.2139 122.472 22.7975L126.459 26.6397C127.073 27.2316 127.22 28.1543 126.803 28.9038L122.161 37.249C121.863 37.7845 121.327 38.1404 120.725 38.2238L116.702 38.7814L103.701 51.2782C103.669 51.3293 103.631 51.3768 103.587 51.4193L102.812 52.1654C102.522 52.4453 102.062 52.4453 101.771 52.1654L100.08 50.5353C100.036 50.4929 99.9973 50.4456 99.9652 50.3946L99.2481 49.6925L99.2314 49.7096L96.951 47.4769L96.9677 47.4599L96.951 47.4435C96.1893 46.6977 96.193 45.4885 96.9588 44.7471L97.4805 45.286L96.9588 44.7471L109.959 32.1621L110.534 28.304C110.626 27.6927 111.012 27.1724 111.557 26.8934L111.899 27.561L111.557 26.8934L120.202 22.4672ZM101.246 49.5765L102.292 50.5838L102.4 50.4792C102.446 50.4012 102.507 50.3314 102.579 50.2737C102.59 50.2653 102.6 50.2565 102.609 50.2473C102.609 50.2473 102.609 50.2473 102.609 50.2473L115.838 37.5312C115.952 37.4215 116.098 37.3507 116.255 37.329L120.519 36.738C120.669 36.7171 120.789 36.6302 120.85 36.5199L121.506 36.8845L120.85 36.5199L125.492 28.1747C125.573 28.0285 125.55 27.8467 125.418 27.7199L121.431 23.8777C121.293 23.7448 121.069 23.7086 120.886 23.8024L112.241 28.2286C112.112 28.2946 112.035 28.4088 112.018 28.5255L111.405 32.6349C111.38 32.7979 111.303 32.9484 111.184 33.063L98.0021 45.8248L97.4844 45.29L98.0021 45.8248C97.8426 45.9793 97.8421 46.2167 98.0004 46.3717L101.139 49.4451C101.18 49.4851 101.216 49.5292 101.246 49.5765Z" fill="#0B3C61"/>
<path d="M82.0438 48.1444L115.414 79.577C119.743 82.0218 122.78 79.8151 124.433 77.4868C126.132 74.6868 125.141 71.8927 124.433 70.8457L91.9647 39.4131C92.3341 32.3794 88.8949 26.2949 84.7495 24.1334C80.7131 22.0288 73.4758 23.2603 73.0248 24.57L82.0438 32.8647L76.6324 38.54L67.1625 29.8087C65.3587 34.6109 65.9006 40.454 68.9663 43.3422C72.2166 46.4043 79.3075 48.5165 82.0438 48.1444Z" fill="#6C9D1F" fill-opacity="0.6"/>
<path d="M79.6321 34.9996L75.6321 38.9996H74.1321C71.9655 36.6663 67.5321 31.8996 67.1322 31.4996C66.7322 31.0996 65.2988 31.333 64.6322 31.4996C63.7988 33.6663 63.1322 39.1996 67.1322 43.9996C71.1322 48.7996 78.1322 49.333 81.1322 48.9996L114.632 80.9996C116.299 81.6663 120.232 82.1996 122.632 78.9996C125.032 75.7996 122.965 71.9996 121.632 70.4996C113.299 62.333 95.3322 44.6996 90.1322 39.4996C91.6322 31.4996 85.1322 25.9996 81.6322 24.4996C78.1322 22.9996 72.1321 23.9996 71.6321 24.4996C71.2321 24.8996 71.4655 25.6663 71.6321 25.9996C74.1321 28.333 79.2321 33.0996 79.6321 33.4996C80.0321 33.8996 79.7988 34.6663 79.6321 34.9996Z" fill="white"/>
<path fill-rule="evenodd" clip-rule="evenodd" d="M80.7534 48.9291L80.7506 48.929L80.7534 48.9291Z" fill="white"/>
<path fill-rule="evenodd" clip-rule="evenodd" d="M80.7534 48.9291L80.7506 48.929L80.7534 48.9291Z" fill="url(#paint1_linear_712_1224)"/>
<path fill-rule="evenodd" clip-rule="evenodd" d="M90.6085 39.6833C90.8644 38.6626 91 37.5965 91 36.5C91 29.0442 84.732 23 77 23C74.9115 23 72.9299 23.441 71.1497 24.2316C70.8657 24.3577 70.5869 24.4928 70.3136 24.6363C70.0236 24.7886 69.9736 25.1768 70.2052 25.4085L78.647 33.8502C79.0375 34.2407 79.0375 34.8739 78.647 35.2644L75.8037 38.1077C75.4132 38.4982 74.78 38.4982 74.3895 38.1077L65.7514 29.4696C65.5304 29.2486 65.1626 29.282 64.9971 29.5471C64.8305 29.8139 64.6733 30.0868 64.5257 30.3652C63.5502 32.2059 63 34.291 63 36.5C63 43.9558 69.268 50 77 50C78.2651 50 79.4911 49.8382 80.6568 49.5348L112.15 80.0165C114.928 82.7051 119.36 82.6328 122.048 79.8549C124.737 77.077 124.665 72.6454 121.887 69.9567L90.6085 39.6833ZM65.642 31.4815C64.9081 33.0092 64.5 34.7086 64.5 36.5C64.5 43.0765 70.0446 48.5 77 48.5C78.1368 48.5 79.2359 48.3546 80.2791 48.0832L81.0945 47.871L113.193 78.9386C115.376 81.0512 118.858 80.9943 120.97 78.8117C123.083 76.629 123.026 73.1471 120.843 71.0345L88.943 40.1587L89.1536 39.3186C89.3798 38.4159 89.5 37.4724 89.5 36.5C89.5 29.9235 83.9554 24.5 77 24.5C75.3334 24.5 73.7462 24.8125 72.2964 25.3783L79.7076 32.7895C80.684 33.7659 80.684 35.3488 79.7076 36.3251L76.8644 39.1683C75.8881 40.1447 74.3052 40.1447 73.3288 39.1683L65.642 31.4815Z" fill="#0B3C61"/>
</g>
<defs>
<linearGradient id="paint0_linear_712_1224" x1="42.9099" y1="27.0205" x2="42.9099" y2="84.6469" gradientUnits="userSpaceOnUse">
<stop stop-color="white"/>
<stop offset="1" stop-color="white" stop-opacity="0"/>
</linearGradient>
<linearGradient id="paint1_linear_712_1224" x1="93.8947" y1="23.8373" x2="93.8947" y2="81.4638" gradientUnits="userSpaceOnUse">
<stop stop-color="white"/>
<stop offset="1" stop-color="white" stop-opacity="0"/>
</linearGradient>
<clipPath id="clip0_712_1224">
<rect width="182" height="106" fill="white"/>
</clipPath>
</defs>
</svg>
