<svg width="32" height="32" viewBox="0 0 32 32" fill="none" xmlns="http://www.w3.org/2000/svg">
<path fill-rule="evenodd" clip-rule="evenodd" d="M6.6665 5.33317C5.93012 5.33317 5.33317 5.93012 5.33317 6.6665V25.3332C5.33317 26.0695 5.93012 26.6665 6.6665 26.6665H25.3332C26.0695 26.6665 26.6665 26.0695 26.6665 25.3332V6.6665C26.6665 5.93012 26.0695 5.33317 25.3332 5.33317H6.6665ZM2.6665 6.6665C2.6665 4.45736 4.45736 2.6665 6.6665 2.6665H25.3332C27.5423 2.6665 29.3332 4.45736 29.3332 6.6665V25.3332C29.3332 27.5423 27.5423 29.3332 25.3332 29.3332H6.6665C4.45736 29.3332 2.6665 27.5423 2.6665 25.3332V6.6665Z" fill="white"/>
<path fill-rule="evenodd" clip-rule="evenodd" d="M2.6665 11.9998C2.6665 11.2635 3.26346 10.6665 3.99984 10.6665H27.9998C28.7362 10.6665 29.3332 11.2635 29.3332 11.9998C29.3332 12.7362 28.7362 13.3332 27.9998 13.3332H3.99984C3.26346 13.3332 2.6665 12.7362 2.6665 11.9998Z" fill="white"/>
<path fill-rule="evenodd" clip-rule="evenodd" d="M11.9998 10.6665C12.7362 10.6665 13.3332 11.2635 13.3332 11.9998V27.9998C13.3332 28.7362 12.7362 29.3332 11.9998 29.3332C11.2635 29.3332 10.6665 28.7362 10.6665 27.9998V11.9998C10.6665 11.2635 11.2635 10.6665 11.9998 10.6665Z" fill="white"/>
</svg>
