<svg width="32" height="32" viewBox="0 0 32 32" fill="none" xmlns="http://www.w3.org/2000/svg">
<path fill-rule="evenodd" clip-rule="evenodd" d="M10.6682 4.62833C12.0436 3.46488 13.9295 2.84424 15.9965 2.84424C18.0703 2.84424 19.9564 3.46476 21.3303 4.62848C22.7101 5.79721 23.552 7.4971 23.552 9.59979C23.552 11.3144 22.7775 12.4465 21.9897 13.598C21.8905 13.743 21.7911 13.8883 21.693 14.0351C20.8154 15.3485 19.9538 16.8796 19.9538 19.598C19.9538 19.7944 19.7946 19.9536 19.5983 19.9536C19.4019 19.9536 19.2427 19.7944 19.2427 19.598C19.2427 16.6879 20.1802 15.0191 21.1017 13.64C21.2037 13.4875 21.3043 13.3396 21.4027 13.1951C22.1944 12.0325 22.8409 11.083 22.8409 9.59979C22.8409 7.70249 22.0882 6.20237 20.8707 5.1711C19.6472 4.13483 17.9333 3.55535 15.9965 3.55535C14.067 3.55535 12.3529 4.13471 11.1274 5.17126C9.90791 6.20281 9.15203 7.70301 9.15203 9.59979C9.15203 11.0886 9.80363 12.052 10.5986 13.2274C10.6945 13.3693 10.7925 13.5142 10.8917 13.6635C11.8122 15.0488 12.7503 16.7176 12.7503 19.598C12.7503 19.7944 12.5911 19.9536 12.3947 19.9536C12.1983 19.9536 12.0391 19.7944 12.0391 19.598C12.0391 16.9104 11.1781 15.3793 10.2994 14.057C10.2034 13.9125 10.1062 13.7694 10.0091 13.6265C9.21886 12.4635 8.44092 11.3185 8.44092 9.59979C8.44092 7.49658 9.28681 5.79678 10.6682 4.62833Z" fill="white" stroke="white" stroke-miterlimit="10" stroke-linecap="round" stroke-linejoin="round"/>
<path fill-rule="evenodd" clip-rule="evenodd" d="M10.8442 21.6002C10.8442 21.4038 11.0034 21.2446 11.1998 21.2446H20.7998C20.9962 21.2446 21.1553 21.4038 21.1553 21.6002C21.1553 21.7966 20.9962 21.9557 20.7998 21.9557H11.1998C11.0034 21.9557 10.8442 21.7966 10.8442 21.6002Z" fill="white" stroke="white" stroke-miterlimit="10" stroke-linecap="round" stroke-linejoin="round"/>
<path fill-rule="evenodd" clip-rule="evenodd" d="M10.8442 24.0001C10.8442 23.8037 11.0034 23.6445 11.1998 23.6445H20.7998C20.9962 23.6445 21.1553 23.8037 21.1553 24.0001C21.1553 24.1965 20.9962 24.3556 20.7998 24.3556H11.1998C11.0034 24.3556 10.8442 24.1965 10.8442 24.0001Z" fill="white" stroke="white" stroke-miterlimit="10" stroke-linecap="round" stroke-linejoin="round"/>
<path fill-rule="evenodd" clip-rule="evenodd" d="M10.8442 26.4C10.8442 26.2036 11.0034 26.0444 11.1998 26.0444H20.7998C20.9962 26.0444 21.1553 26.2036 21.1553 26.4C21.1553 26.5964 20.9962 26.7555 20.7998 26.7555H11.1998C11.0034 26.7555 10.8442 26.5964 10.8442 26.4Z" fill="white" stroke="white" stroke-miterlimit="10" stroke-linecap="round" stroke-linejoin="round"/>
<path fill-rule="evenodd" clip-rule="evenodd" d="M13.2446 28.7999C13.2446 28.6035 13.4038 28.4443 13.6002 28.4443H18.4002C18.5966 28.4443 18.7557 28.6035 18.7557 28.7999C18.7557 28.9963 18.5966 29.1554 18.4002 29.1554H13.6002C13.4038 29.1554 13.2446 28.9963 13.2446 28.7999Z" fill="white" stroke="white" stroke-miterlimit="10" stroke-linecap="round" stroke-linejoin="round"/>
</svg>
