<svg width="32" height="32" viewBox="0 0 32 32" fill="none" xmlns="http://www.w3.org/2000/svg">
<path fill-rule="evenodd" clip-rule="evenodd" d="M8.51213 5.10145C8.65786 5.08636 8.80439 5.07897 8.95113 5.07935L8.95224 5.07935C9.61888 5.07951 10.2773 5.22629 10.8809 5.50927C11.3602 5.74114 11.7973 6.05176 12.1738 6.42817L12.2155 6.47508L12.2244 6.48486C12.725 7.01736 13.0993 7.65569 13.3195 8.35252C13.5398 9.04936 13.6004 9.78684 13.4968 10.5103C13.4936 10.5326 13.492 10.5552 13.492 10.5778C13.4921 10.5774 13.492 10.5776 13.492 10.5778C13.4919 10.5798 13.4913 10.591 13.488 10.6194C13.4874 10.625 13.4865 10.6322 13.4855 10.6405C13.4823 10.6668 13.4779 10.7041 13.4749 10.7362C13.4709 10.7803 13.4665 10.8456 13.4721 10.9157C13.4772 10.9794 13.4939 11.0994 13.572 11.2165C13.5895 11.2428 13.6096 11.2673 13.632 11.2896L26.4066 24.0261L26.4136 24.0329C26.5759 24.1882 26.7051 24.3748 26.7934 24.5814C26.8816 24.788 26.9271 25.0103 26.9271 25.2349C26.9271 25.4595 26.8816 25.6819 26.7934 25.8884C26.7051 26.095 26.5759 26.2816 26.4136 26.4369L26.4061 26.4442C26.0931 26.7572 25.7868 26.8804 25.5084 26.9121C25.2206 26.9448 24.9273 26.8831 24.6491 26.7695C24.3712 26.656 24.128 26.4985 23.9515 26.3656C23.8643 26.3 23.7958 26.2422 23.7502 26.2019C23.7274 26.1818 23.7106 26.1662 23.7001 26.1563L23.6893 26.146L23.6882 26.145L23.6877 26.1445L11.2574 13.7078C11.0746 13.525 10.8383 13.5143 10.742 13.5143C10.6319 13.5143 10.5242 13.5324 10.4709 13.5414C10.4697 13.5416 10.4686 13.5418 10.4675 13.5419C9.74741 13.6417 9.01412 13.579 8.3214 13.3584C7.62669 13.1372 6.99052 12.7628 6.45983 12.2629C6.45558 12.2589 6.45127 12.255 6.44688 12.2511L6.4099 12.2188C6.03985 11.8394 5.73578 11.4009 5.51029 10.9212L5.50839 10.9172C5.21414 10.306 5.061 9.63654 5.06029 8.95822L5.06029 8.95718C5.05986 8.82586 5.06566 8.6947 5.07763 8.56413L7.38043 10.9358C7.4887 11.0711 7.6219 11.1844 7.77291 11.2697C7.93302 11.3602 8.10982 11.4172 8.2926 11.4373C8.47538 11.4574 8.66034 11.4402 8.83628 11.3867C9.01222 11.3332 9.17547 11.2446 9.31615 11.1262C9.32633 11.1176 9.33615 11.1086 9.34558 11.0992L11.0472 9.404C11.0569 9.39434 11.0661 9.38426 11.075 9.3738C11.1929 9.23412 11.2815 9.07219 11.3357 8.89761C11.3898 8.72303 11.4083 8.53936 11.3901 8.35748C11.3719 8.1756 11.3174 7.99923 11.2298 7.83883C11.1465 7.68649 11.0351 7.55149 10.9014 7.44102L8.51213 5.10145ZM4.22579 7.85226L4.30099 7.46997C4.33518 7.29616 4.46304 7.15569 4.63288 7.10534C4.80272 7.05499 4.98647 7.10308 5.10987 7.23017L8.0813 10.2905C8.09442 10.304 8.10673 10.3183 8.11817 10.3333C8.15154 10.377 8.19343 10.4135 8.24131 10.4405C8.2892 10.4676 8.34207 10.4846 8.39673 10.4906C8.4514 10.4966 8.50671 10.4915 8.55933 10.4755C8.60679 10.4611 8.65116 10.4381 8.69028 10.4077L10.3577 8.74656C10.3881 8.70739 10.4113 8.66301 10.426 8.61554C10.4424 8.56275 10.448 8.50723 10.4425 8.45224C10.437 8.39726 10.4205 8.34394 10.394 8.29544C10.3675 8.24695 10.3315 8.20427 10.2882 8.16993C10.2752 8.15963 10.2628 8.14865 10.2509 8.13704L7.19697 5.14657C7.07257 5.02476 7.02457 4.84477 7.07179 4.67719C7.11901 4.50961 7.25392 4.38116 7.42361 4.34221L7.81233 4.253C8.18663 4.1683 8.56927 4.12602 8.95303 4.12697C9.76021 4.12725 10.5574 4.30524 11.2881 4.64831L11.2928 4.65054C11.8738 4.93121 12.4031 5.30829 12.8582 5.76572C12.8645 5.77204 12.8706 5.77854 12.8765 5.78521L12.923 5.8375C13.5191 6.47315 13.965 7.23452 14.2276 8.06548C14.4881 8.88962 14.5618 9.76131 14.4435 10.6173C14.4417 10.6609 14.4373 10.7008 14.4342 10.7282L14.4324 10.7428L27.0758 23.3484C27.3293 23.5919 27.5311 23.884 27.6692 24.2072C27.808 24.5321 27.8795 24.8817 27.8795 25.2349C27.8795 25.5881 27.808 25.9377 27.6692 26.2626C27.5311 26.5858 27.3293 26.8778 27.0759 27.1213C26.6185 27.5773 26.1166 27.8014 25.6159 27.8583C25.1234 27.9143 24.6655 27.8049 24.2889 27.6511C23.9121 27.4972 23.5969 27.2908 23.3788 27.1266C23.2687 27.0437 23.1808 26.9697 23.1193 26.9154C23.0885 26.8881 23.0642 26.8657 23.0469 26.8494C23.0382 26.8412 23.0313 26.8345 23.0261 26.8296L23.0198 26.8234L23.0177 26.8213L23.0169 26.8205C23.0167 26.8203 23.0162 26.8198 23.3524 26.4825L23.0162 26.8198L10.6758 14.4731C10.6584 14.4757 10.64 14.4787 10.6179 14.4824L10.6056 14.4843C9.74236 14.605 8.863 14.5304 8.03242 14.2659C7.20469 14.0023 6.44646 13.5569 5.81329 12.9622L5.76894 12.9234C5.75995 12.9156 5.75125 12.9074 5.74287 12.8988C5.29257 12.4406 4.92286 11.9097 4.64932 11.3284C4.29387 10.5893 4.10885 9.77985 4.10791 8.95973M10.7457 14.4667C10.7457 14.4668 10.7453 14.4667 10.7446 14.4667L10.7457 14.4667Z" fill="white"/>
<path d="M13.492 10.5778C13.492 10.5552 13.4936 10.5326 13.4968 10.5103C13.6004 9.78684 13.5398 9.04936 13.3195 8.35252C13.0993 7.65569 12.725 7.01736 12.2244 6.48486L12.2155 6.47508L12.1738 6.42817C11.7973 6.05176 11.3602 5.74114 10.8809 5.50927C10.2773 5.22629 9.61888 5.07951 8.95224 5.07935L8.95113 5.07935C8.80439 5.07897 8.65786 5.08636 8.51213 5.10145L10.9014 7.44102C11.0351 7.55149 11.1465 7.68649 11.2298 7.83883C11.3174 7.99923 11.3719 8.1756 11.3901 8.35748C11.4083 8.53936 11.3898 8.72303 11.3357 8.89761C11.2815 9.07219 11.1929 9.23412 11.075 9.3738C11.0661 9.38426 11.0569 9.39434 11.0472 9.404L9.34558 11.0992C9.33615 11.1086 9.32633 11.1176 9.31615 11.1262C9.17547 11.2446 9.01222 11.3332 8.83628 11.3867C8.66034 11.4402 8.47538 11.4574 8.2926 11.4373C8.10982 11.4172 7.93302 11.3602 7.77291 11.2697C7.6219 11.1844 7.4887 11.0711 7.38043 10.9358L5.07763 8.56413C5.06566 8.6947 5.05986 8.82586 5.06029 8.95718L5.06029 8.95822C5.061 9.63654 5.21414 10.306 5.50839 10.9172L5.51029 10.9212C5.73578 11.4009 6.03985 11.8394 6.4099 12.2188L6.44688 12.2511C6.45127 12.255 6.45558 12.2589 6.45983 12.2629C6.99052 12.7628 7.62669 13.1372 8.3214 13.3584C9.01412 13.579 9.74741 13.6417 10.4675 13.5419C10.4686 13.5418 10.4697 13.5416 10.4709 13.5414C10.5242 13.5324 10.6319 13.5143 10.742 13.5143C10.8383 13.5143 11.0746 13.525 11.2574 13.7078L23.6877 26.1445L23.6882 26.145L23.6893 26.146L23.7001 26.1563C23.7106 26.1662 23.7274 26.1818 23.7502 26.2019C23.7958 26.2422 23.8643 26.3 23.9515 26.3656C24.128 26.4985 24.3712 26.656 24.6491 26.7695C24.9273 26.8831 25.2206 26.9448 25.5084 26.9121C25.7868 26.8804 26.0931 26.7572 26.4061 26.4442L26.4136 26.4369C26.5759 26.2816 26.7051 26.095 26.7934 25.8884C26.8816 25.6819 26.9271 25.4595 26.9271 25.2349C26.9271 25.0103 26.8816 24.788 26.7934 24.5814C26.7051 24.3748 26.5759 24.1882 26.4136 24.0329L26.4066 24.0261L13.632 11.2896C13.6096 11.2673 13.5895 11.2428 13.572 11.2165C13.4939 11.0994 13.4772 10.9794 13.4721 10.9157C13.4665 10.8456 13.4709 10.7803 13.4749 10.7362C13.4779 10.7041 13.4823 10.6668 13.4855 10.6405C13.4865 10.6322 13.4874 10.625 13.488 10.6194C13.4913 10.591 13.4919 10.5798 13.492 10.5778ZM13.492 10.5778C13.492 10.5776 13.4921 10.5774 13.492 10.5778ZM8.95303 4.12697C8.56927 4.12602 8.18663 4.1683 7.81233 4.253L7.42361 4.34221C7.25392 4.38116 7.11901 4.50961 7.07179 4.67719C7.02457 4.84477 7.07257 5.02476 7.19697 5.14657L10.2509 8.13705C10.2628 8.14865 10.2752 8.15963 10.2882 8.16993C10.3315 8.20427 10.3675 8.24695 10.394 8.29544C10.4205 8.34394 10.437 8.39726 10.4425 8.45224C10.448 8.50723 10.4424 8.56275 10.426 8.61554C10.4113 8.66301 10.3881 8.70739 10.3577 8.74656L8.69028 10.4077C8.65116 10.4381 8.60679 10.4611 8.55933 10.4755C8.50671 10.4915 8.4514 10.4966 8.39673 10.4906C8.34207 10.4846 8.2892 10.4676 8.24131 10.4405C8.19343 10.4135 8.15153 10.377 8.11817 10.3333C8.10673 10.3183 8.09442 10.304 8.0813 10.2905L5.10987 7.23017C4.98647 7.10308 4.80272 7.05499 4.63288 7.10534C4.46304 7.15569 4.33518 7.29616 4.30099 7.46997L4.22579 7.85226L4.10791 8.95973C4.10885 9.77985 4.29387 10.5893 4.64932 11.3284C4.92286 11.9097 5.29257 12.4406 5.74287 12.8988C5.75125 12.9074 5.75995 12.9156 5.76894 12.9234L5.81329 12.9622C6.44646 13.5569 7.20469 14.0023 8.03242 14.2659C8.863 14.5304 9.74236 14.605 10.6056 14.4843L10.6179 14.4824C10.64 14.4787 10.6584 14.4757 10.6758 14.4731L23.0162 26.8198L23.3524 26.4825C23.0162 26.8198 23.0167 26.8203 23.0169 26.8205L23.0177 26.8213L23.0198 26.8234L23.0261 26.8296C23.0313 26.8345 23.0382 26.8412 23.0469 26.8494C23.0642 26.8657 23.0885 26.8881 23.1193 26.9154C23.1808 26.9697 23.2687 27.0437 23.3788 27.1266C23.5969 27.2908 23.9121 27.4972 24.2889 27.6511C24.6655 27.8049 25.1234 27.9143 25.6159 27.8583C26.1166 27.8014 26.6185 27.5773 27.0759 27.1213C27.3293 26.8778 27.5311 26.5858 27.6692 26.2626C27.808 25.9377 27.8795 25.5881 27.8795 25.2349C27.8795 24.8817 27.808 24.5321 27.6692 24.2072C27.5311 23.884 27.3293 23.5919 27.0758 23.3484L14.4324 10.7428L14.4342 10.7282C14.4373 10.7008 14.4417 10.6609 14.4435 10.6173C14.5618 9.76131 14.4881 8.88962 14.2276 8.06548C13.965 7.23452 13.5191 6.47315 12.923 5.8375L12.8765 5.78521C12.8706 5.77854 12.8645 5.77204 12.8582 5.76572C12.4031 5.30829 11.8738 4.93121 11.2928 4.65054L11.2881 4.64831C10.5574 4.30524 9.76021 4.12725 8.95303 4.12697ZM8.95303 4.12697C8.95284 4.12697 8.95321 4.12697 8.95303 4.12697ZM8.95303 4.12697L8.95235 4.60316M10.7457 14.4667C10.7457 14.4668 10.7453 14.4667 10.7446 14.4667L10.7457 14.4667Z" stroke="white" stroke-width="0.25" stroke-linejoin="round"/>
<path fill-rule="evenodd" clip-rule="evenodd" d="M25.5607 4.15091C25.7455 4.05269 25.9728 4.08669 26.1208 4.2347L27.7081 5.822C27.8566 5.97045 27.8903 6.19861 27.7911 6.38365L25.9435 9.83127C25.872 9.96466 25.7414 10.0561 25.5916 10.0777L23.8942 10.3218L18.6284 15.5752C18.6178 15.5857 18.6069 15.5957 18.5955 15.605L18.6034 15.6129L18.2952 15.9211L17.6217 15.2477L17.6276 15.2418L16.378 13.9721C16.1949 13.786 16.1958 13.4872 16.3799 13.3022L21.6273 8.02992L21.8715 6.33219C21.8931 6.18181 21.9852 6.05077 22.1194 5.97948L25.5607 4.15091ZM22.7798 6.70707L22.5475 8.32175C22.5329 8.4232 22.486 8.51723 22.4137 8.58988L17.3874 13.64L18.2952 14.5623L23.3335 9.53589C23.4062 9.46337 23.5004 9.41629 23.602 9.40167L25.2178 9.16927L26.7847 6.24543L25.6965 5.15722L22.7798 6.70707ZM13.1822 15.9613C13.3404 15.9249 13.5063 15.9717 13.6222 16.0853L15.8698 18.2885C15.9896 18.4059 16.0388 18.5776 15.9993 18.7406L15.3644 21.3628C15.3438 21.4479 15.3002 21.5256 15.2383 21.5875L9.40972 27.4161C9.37422 27.4516 9.33332 27.4812 9.28854 27.504L9.07301 27.0794C9.28854 27.504 9.28854 27.504 9.28854 27.504L9.28664 27.5049L9.28395 27.5063L9.27627 27.5101C9.27013 27.5131 9.26196 27.517 9.25184 27.5218C9.2316 27.5313 9.20353 27.5441 9.16825 27.5593C9.09778 27.5896 8.99808 27.6295 8.87434 27.6713C8.62801 27.7546 8.28013 27.8477 7.87401 27.8853C7.05639 27.9609 5.9814 27.8104 5.0601 26.8891C4.11216 25.9411 4.06474 24.7512 4.2216 23.8676C4.30052 23.423 4.43335 23.0369 4.54537 22.7631C4.60166 22.6255 4.65346 22.5144 4.69194 22.4364C4.71119 22.3973 4.72718 22.3664 4.73881 22.3445C4.74462 22.3335 4.74935 22.3247 4.75286 22.3183L4.7572 22.3104L4.75865 22.3078L4.7592 22.3069C4.7592 22.3069 4.75961 22.3061 5.17459 22.5397L4.75961 22.3061C4.78088 22.2683 4.80721 22.2336 4.83787 22.203L10.3553 16.6855C10.4185 16.6223 10.4983 16.5781 10.5854 16.5581L13.1822 15.9613ZM5.56215 22.8256C5.55733 22.835 5.55198 22.8457 5.54614 22.8576C5.51616 22.9184 5.47371 23.0092 5.42683 23.1238C5.3325 23.3543 5.22327 23.6738 5.15933 24.034C5.03047 24.7599 5.09417 25.5763 5.73353 26.2157C6.39953 26.8816 7.16263 26.9946 7.78628 26.9369C8.1008 26.9078 8.37435 26.835 8.56928 26.7691C8.66618 26.7364 8.74207 26.7058 8.79205 26.6843C8.79355 26.6837 8.79649 26.6824 8.79649 26.6824L14.4702 21.0087L15.01 18.7793L13.1416 16.9478L10.932 17.4557L5.56215 22.8256Z" fill="white"/>
<path d="M9.28854 27.504C9.33332 27.4812 9.37422 27.4516 9.40972 27.4161L15.2383 21.5875C15.3002 21.5256 15.3438 21.4479 15.3644 21.3628L15.9993 18.7406C16.0388 18.5776 15.9896 18.4059 15.8698 18.2885L13.6222 16.0853C13.5063 15.9717 13.3404 15.9249 13.1822 15.9613L10.5854 16.5581C10.4983 16.5781 10.4185 16.6223 10.3553 16.6855L4.83787 22.203C4.80721 22.2336 4.78088 22.2683 4.75961 22.3061L5.17459 22.5397C4.75961 22.3061 4.7592 22.3069 4.7592 22.3069L4.75865 22.3078L4.7572 22.3104L4.75286 22.3183C4.74935 22.3247 4.74462 22.3335 4.73881 22.3445C4.72718 22.3664 4.71119 22.3973 4.69194 22.4364C4.65346 22.5144 4.60166 22.6255 4.54537 22.7631C4.43335 23.0369 4.30052 23.423 4.2216 23.8676C4.06474 24.7512 4.11216 25.9411 5.0601 26.8891C5.9814 27.8104 7.05639 27.9609 7.87401 27.8853C8.28013 27.8477 8.62801 27.7546 8.87435 27.6713C8.99808 27.6295 9.09778 27.5896 9.16825 27.5593C9.20353 27.5441 9.2316 27.5313 9.25184 27.5218C9.26196 27.517 9.27013 27.5131 9.27627 27.5101L9.28395 27.5063L9.28664 27.5049L9.28854 27.504ZM9.28854 27.504L9.07301 27.0794C9.28854 27.504 9.28854 27.504 9.28854 27.504ZM26.1208 4.2347C25.9728 4.08669 25.7455 4.05269 25.5607 4.15091L22.1194 5.97948C21.9852 6.05077 21.8931 6.18181 21.8715 6.33219L21.6273 8.02992L16.3799 13.3022C16.1958 13.4872 16.1949 13.786 16.378 13.9721L17.6276 15.2418L17.6217 15.2477L18.2952 15.9211L18.6034 15.6129L18.5955 15.605C18.6069 15.5957 18.6178 15.5857 18.6284 15.5752L23.8942 10.3218L25.5916 10.0777C25.7414 10.0561 25.872 9.96466 25.9435 9.83127L27.7911 6.38365C27.8903 6.19861 27.8566 5.97045 27.7081 5.822L26.1208 4.2347ZM22.5475 8.32175L22.7798 6.70707L25.6965 5.15722L26.7847 6.24543L25.2178 9.16927L23.602 9.40167C23.5004 9.41628 23.4062 9.46337 23.3335 9.53589L18.2952 14.5623L17.3874 13.64L22.4137 8.58988C22.486 8.51723 22.5329 8.4232 22.5475 8.32175ZM5.54614 22.8576C5.55198 22.8457 5.55733 22.835 5.56215 22.8256L10.932 17.4557L13.1416 16.9478L15.01 18.7793L14.4702 21.0087L8.79649 26.6824C8.79649 26.6824 8.79355 26.6837 8.79205 26.6843C8.74207 26.7058 8.66618 26.7364 8.56928 26.7691C8.37435 26.835 8.1008 26.9078 7.78628 26.9369C7.16263 26.9946 6.39953 26.8816 5.73353 26.2156C5.09417 25.5763 5.03047 24.7599 5.15933 24.034C5.22327 23.6738 5.3325 23.3543 5.42683 23.1238C5.47371 23.0092 5.51616 22.9184 5.54614 22.8576Z" stroke="white" stroke-width="0.25" stroke-linejoin="round"/>
<path fill-rule="evenodd" clip-rule="evenodd" d="M11.2891 19.0662C11.4751 19.2522 11.4751 19.5537 11.2891 19.7397L7.05418 23.9746C6.86822 24.1606 6.56671 24.1606 6.38074 23.9746C6.19478 23.7886 6.19478 23.4871 6.38074 23.3012L10.6157 19.0662C10.8016 18.8803 11.1031 18.8803 11.2891 19.0662Z" fill="white" stroke="white" stroke-width="0.25" stroke-linecap="round" stroke-linejoin="round"/>
<path fill-rule="evenodd" clip-rule="evenodd" d="M12.8827 20.6536C13.0687 20.8396 13.0687 21.1411 12.8827 21.3271L8.64146 25.5683C8.4555 25.7543 8.15399 25.7543 7.96803 25.5683C7.78206 25.3824 7.78206 25.0809 7.96803 24.8949L12.2093 20.6536C12.3953 20.4677 12.6968 20.4677 12.8827 20.6536Z" fill="white" stroke="white" stroke-width="0.25" stroke-linecap="round" stroke-linejoin="round"/>
</svg>
