<svg width="582" height="92" viewBox="0 0 582 92" fill="none" xmlns="http://www.w3.org/2000/svg">
<mask id="mask0_201_22080" style="mask-type:alpha" maskUnits="userSpaceOnUse" x="-5" y="6" width="587" height="186">
<rect x="-5" y="6" width="587" height="185.108" fill="white"/>
</mask>
<g mask="url(#mask0_201_22080)">
<rect x="-577.511" y="-33.666" width="1229.36" height="224.774" fill="#4C9E45"/>
<path d="M460.983 105.514L379.011 62.1878C371.618 58.28 362.171 60.5868 357.912 67.3402L337.581 99.5787C333.322 106.332 335.863 114.975 343.256 118.882L425.228 162.209C432.622 166.116 442.068 163.81 446.327 157.056L466.659 124.818C470.918 118.064 468.377 109.422 460.983 105.514Z" stroke="white" stroke-width="2.7" stroke-miterlimit="10"/>
<path d="M454.985 110.579L398.913 80.9409C393.452 78.0546 386.475 79.7584 383.329 84.7464L366.758 111.023C363.612 116.011 365.489 122.395 370.949 125.281L427.022 154.919C432.483 157.805 439.46 156.101 442.606 151.113L459.177 124.836C462.323 119.848 460.446 113.465 454.985 110.579Z" stroke="white" stroke-width="1.55" stroke-miterlimit="10"/>
<path d="M384.534 95.6904L391.19 99.2083L402.743 91.9998L402.395 105.13L409.051 108.647L407.804 116.553L415.355 111.978L430.777 120.129L442.247 112.303L440.932 125.496L448.638 129.568" stroke="white" stroke-width="1.32" stroke-linecap="round" stroke-linejoin="round"/>
<path d="M372.222 70.7991L371.267 70.2941C368.973 69.0822 366.043 69.7976 364.722 71.892L345.286 102.704C343.965 104.799 344.753 107.479 347.047 108.691L348.002 109.196C350.296 110.408 353.226 109.693 354.547 107.598L373.983 76.7858C375.304 74.6913 374.516 72.011 372.222 70.7991Z" stroke="white" stroke-width="2.07" stroke-miterlimit="10"/>
<path d="M-39.0364 67.0525L-33.2542 57.8855C-32.5246 56.7616 -31.3395 55.9467 -29.9557 55.6174C-28.5718 55.288 -27.1007 55.4707 -25.8611 56.1259L55.6915 97.3725C56.9413 98.033 57.8539 99.1198 58.2286 100.394C58.6033 101.668 58.4093 103.025 57.6893 104.167L50.3869 115.744C49.6669 116.885 48.48 117.717 47.0871 118.057C45.6943 118.397 44.2096 118.217 42.9598 117.557L-37.1468 73.9184C-37.7672 73.5832 -38.3088 73.1388 -38.7403 72.611C-39.1717 72.0832 -39.4844 71.4824 -39.6602 70.8437C-39.836 70.205 -39.8714 69.541 -39.7643 68.8902C-39.6572 68.2394 -39.4098 67.6147 -39.0364 67.0525V67.0525Z" stroke="white" stroke-width="2.32" stroke-miterlimit="10"/>
<path d="M-0.494969 84.21C0.955883 84.9766 2.80804 84.5265 3.64194 83.2046C4.47584 81.8826 3.97569 80.1894 2.52484 79.4228L-21.8485 66.5434C-23.2994 65.7767 -25.1515 66.2269 -25.9854 67.5488C-26.8193 68.8708 -26.3192 70.5639 -24.8683 71.3306L-0.494969 84.21Z" stroke="white" stroke-width="1.34" stroke-miterlimit="10"/>
<path d="M14.528 127.438L10.0624 134.517C9.51162 135.39 8.6036 136.027 7.53807 136.287C6.47255 136.547 5.33679 136.41 4.38068 135.904L-58.6436 104.033C-59.5997 103.528 -60.2979 102.696 -60.5845 101.722C-60.8711 100.747 -60.7227 99.709 -60.1719 98.8358L-54.5323 89.8948C-53.9815 89.0216 -53.0735 88.3849 -52.0079 88.1248C-50.9424 87.8646 -49.8067 88.0023 -48.8506 88.5076L12.9947 122.223C13.471 122.473 13.8887 122.806 14.2238 123.204C14.5589 123.602 14.8049 124.056 14.9474 124.541C15.0899 125.025 15.1262 125.531 15.0542 126.028C14.9822 126.525 14.8034 127.004 14.528 127.438V127.438Z" stroke="white" stroke-width="2.32" stroke-miterlimit="10"/>
<path d="M266.899 -22.5936L214.786 -50.1387C210.184 -52.571 204.305 -51.1352 201.654 -46.9319L185.191 -20.8268C182.54 -16.6235 184.121 -11.2443 188.723 -8.81201L240.837 18.7331C245.439 21.1654 251.318 19.7296 253.969 15.5263L270.432 -10.5788C273.083 -14.7821 271.501 -20.1614 266.899 -22.5936Z" stroke="white" stroke-width="2.32" stroke-linecap="round" stroke-linejoin="round"/>
<path d="M200.271 -7.86977C204.966 -14.5183 211.302 -17.2133 219.656 -15.0086C219.656 -15.0086 222.88 -35.872 236.106 -28.8816C249.331 -21.8912 230.471 -9.30617 230.471 -9.30617C240.555 -2.36837 237.586 7.37463 235.208 10.5969" stroke="white" stroke-width="1.32" stroke-linecap="round" stroke-linejoin="round"/>
<path d="M158.191 115.186L118.727 94.3265C114.977 92.3445 110.186 93.5145 108.026 96.9397L85.2919 132.989C83.1318 136.414 84.4205 140.798 88.1703 142.78L127.635 163.64C131.385 165.622 136.176 164.452 138.336 161.026L161.07 124.977C163.23 121.552 161.941 117.168 158.191 115.186Z" stroke="white" stroke-width="2.32" stroke-miterlimit="10"/>
<path d="M210.403 100.988L197.988 94.4259C196.438 93.6068 194.458 94.0903 193.565 95.5059L181.517 114.611C180.624 116.027 181.157 117.838 182.706 118.657L195.121 125.219C196.671 126.038 198.651 125.555 199.544 124.139L211.592 105.034C212.485 103.619 211.952 101.807 210.403 100.988Z" stroke="white" stroke-width="2.32" stroke-miterlimit="10"/>
<path d="M291.148 92.9575L275.632 117.559L272.415 115.859L274.419 111.236L215.446 80.0684L217.951 76.0972L213.246 73.668L218.106 65.9624L222.811 68.3916L225.458 64.1944L284.313 95.3001L287.59 91.0768L291.148 92.9575Z" stroke="white" stroke-width="1.7" stroke-linecap="round" stroke-linejoin="round"/>
<path d="M204.488 63.5688L215.853 69.5727" stroke="white" stroke-width="2.27" stroke-linecap="round" stroke-linejoin="round"/>
<path d="M258.168 91.6803L253.15 99.6332" stroke="white" stroke-width="1.13" stroke-linecap="round" stroke-linejoin="round"/>
<path d="M247.786 86.9557L243.128 94.3375" stroke="white" stroke-width="1.13" stroke-linecap="round" stroke-linejoin="round"/>
<path d="M238.135 81.0972L233.116 89.0501" stroke="white" stroke-width="1.13" stroke-linecap="round" stroke-linejoin="round"/>
<path d="M230.62 82.4292L228.111 86.4057" stroke="white" stroke-width="1.13" stroke-linecap="round" stroke-linejoin="round"/>
<path d="M227.751 76.3748L223.094 83.7565" stroke="white" stroke-width="1.13" stroke-linecap="round" stroke-linejoin="round"/>
<path d="M240.631 87.7183L238.122 91.6948" stroke="white" stroke-width="1.13" stroke-linecap="round" stroke-linejoin="round"/>
<path d="M291.137 92.9495L287.579 91.0693L284.303 95.2917L225.455 64.193L222.809 68.3892L218.104 65.9606L213.245 73.6644L217.949 76.0931L215.445 80.0634L274.41 111.224L272.406 115.846L275.622 117.546L280.875 109.218L314.783 127.209L314.118 129.683L317.287 131.358L325.044 119.06L321.533 117.205L319.674 119.206L285.884 101.277L291.137 92.9495Z" stroke="white" stroke-width="2.83" stroke-linecap="round" stroke-linejoin="round"/>
<path d="M158.217 89.1413C150.298 93.298 124.22 79.3415 122.204 73.3654C120.669 66.5522 131.089 65.4835 139.167 55.7396C147.835 45.3597 142.383 34.0641 144.821 30.1981C151.11 20.2262 174.973 43.0051 175.812 61.1668C176.328 68.7481 166.136 84.9846 158.217 89.1413Z" stroke="white" stroke-width="2.32" stroke-linecap="round" stroke-linejoin="round"/>
<path d="M144.465 31.2176L139.292 28.483L137.957 34.2367L144.316 37.6837L144.465 31.2176Z" stroke="white" stroke-width="2.32" stroke-linecap="round" stroke-linejoin="round"/>
<path d="M124.342 67.7663L117.919 64.3716L122.708 60.4154L129.62 63.9823L124.342 67.7663Z" stroke="white" stroke-width="2.32" stroke-linecap="round" stroke-linejoin="round"/>
<path d="M158.289 74.6146C154.062 76.8313 140.16 69.3395 139.065 66.1905C138.221 62.5428 143.811 61.9795 148.139 56.7864C152.74 51.2351 149.867 45.2224 151.171 43.1548C154.526 37.835 167.292 49.9955 167.714 59.6952C167.972 63.7227 162.517 72.3979 158.289 74.6146Z" stroke="white" stroke-width="0.95" stroke-linecap="round" stroke-linejoin="round"/>
<path d="M101.682 27.541L19.7098 -15.7852C12.3164 -19.693 2.87009 -17.3862 -1.38898 -10.6328L-21.7205 21.6058C-25.9796 28.3591 -23.4386 37.0017 -16.0451 40.9095L65.927 84.2357C73.3205 88.1435 82.7667 85.8367 87.0257 79.0834L107.357 46.8448C111.616 40.0914 109.075 31.4488 101.682 27.541Z" stroke="white" stroke-width="2.32" stroke-miterlimit="10"/>
<path d="M95.684 32.6036L39.6112 2.96602C34.1505 0.0796999 27.1735 1.7835 24.0278 6.77156L7.45629 33.0485C4.31058 38.0365 6.1873 44.42 11.6481 47.3063L67.7209 76.9439C73.1816 79.8302 80.1586 78.1264 83.3043 73.1384L99.8758 46.8615C103.022 41.8734 101.145 35.4899 95.684 32.6036Z" stroke="white" stroke-width="1.55" stroke-miterlimit="10"/>
<path d="M25.233 17.718L31.8895 21.2359L43.4424 14.0274L43.1056 27.1633L49.7622 30.6812L48.4959 38.5914L56.0654 34.0123L71.4758 42.1563L82.9398 34.3413L81.6315 47.5234L89.3366 51.5954" stroke="white" stroke-width="1.32" stroke-linecap="round" stroke-linejoin="round"/>
<path d="M12.9147 -7.16428L11.9592 -7.66924C9.66578 -8.88116 6.73565 -8.16573 5.41453 -6.07131L-14.0213 24.741C-15.3424 26.8354 -14.5542 29.5158 -12.2609 30.7277L-11.3053 31.2326C-9.01193 32.4446 -6.08177 31.7292 -4.76064 29.6347L14.6752 -1.17757C15.9963 -3.27199 15.2081 -5.95235 12.9147 -7.16428Z" stroke="white" stroke-width="2.07" stroke-miterlimit="10"/>
<path d="M12.9223 34.5098L16.3389 36.3153C16.3389 36.3153 20.4157 33.463 21.8377 33.7985C23.2598 34.1339 25.2768 36.7635 25.2768 36.7635C26.4629 38.3081 27.1012 40.1479 27.105 42.0334L31.2167 44.2063" stroke="white" stroke-width="0.81" stroke-linecap="round" stroke-linejoin="round"/>
<path d="M27.9512 42.4507L31.3677 44.2562C31.3677 44.2562 35.4445 41.4039 36.8665 41.7394C38.2886 42.0748 40.3056 44.7045 40.3056 44.7045C41.4055 46.2066 41.9322 47.998 41.804 49.8L46.2219 52.1347" stroke="white" stroke-width="0.81" stroke-linecap="round" stroke-linejoin="round"/>
<path d="M43.6738 50.7555L47.0904 52.561C47.0904 52.561 51.1672 49.7087 52.5892 50.0442C54.0113 50.3797 56.0283 53.0093 56.0283 53.0093C57.2097 54.5559 57.8475 56.3944 57.8565 58.2792L61.9682 60.452" stroke="white" stroke-width="0.81" stroke-linecap="round" stroke-linejoin="round"/>
<path d="M58.7031 58.6927L62.1196 60.4982C62.1196 60.4982 66.1964 57.6459 67.6185 57.9814C69.0405 58.3169 71.0576 60.9464 71.0576 60.9464C72.4375 62.5938 72.1786 64.1499 72.2082 65.6718L77.0856 68.2493" stroke="white" stroke-width="0.81" stroke-linecap="round" stroke-linejoin="round"/>
<path d="M399.436 52.3924L384.532 44.515L378.456 46.2721L374.919 44.4025L373.732 38.8064L358.651 30.8354C356.921 29.9174 355.659 28.4107 355.14 26.6452C354.621 24.8797 354.887 22.9994 355.882 21.4162L395.338 -41.1479C396.341 -42.7243 397.986 -43.8725 399.913 -44.3416C401.841 -44.8107 403.895 -44.5625 405.626 -43.6512L418.455 -36.8706C418.455 -36.8706 422.112 -43.4676 430.071 -39.2609C438.03 -35.0542 434.29 -28.5009 434.29 -28.5009L446.412 -22.0943C448.139 -21.1773 449.401 -19.673 449.921 -17.91C450.441 -16.147 450.178 -14.2688 449.188 -12.6858L409.731 49.8783C408.731 51.4582 407.085 52.61 405.156 53.0812C403.226 53.5524 401.169 53.3047 399.436 52.3924V52.3924Z" stroke="white" stroke-width="2.32" stroke-linecap="round" stroke-linejoin="round"/>
<path d="M430.261 7.31149L406.114 45.6025C404.835 47.2812 403.28 48.0527 401.012 46.6388L363.078 26.5879C362.627 26.4434 362.219 26.2026 361.89 25.8855C361.56 25.5685 361.318 25.1843 361.183 24.7649C361.048 24.3455 361.024 23.9029 361.114 23.4738C361.203 23.0447 361.403 22.6414 361.697 22.2974L385.926 -16.1227C389.566 -20.2001 431.491 0.825787 430.261 7.31149Z" stroke="white" stroke-width="1.18" stroke-linecap="round" stroke-linejoin="round"/>
<path d="M148.327 -50.0621L116.588 -66.8383C113.195 -68.6314 108.861 -67.5729 106.906 -64.474L74.5835 -13.2209C72.6292 -10.122 73.7951 -6.15628 77.1877 -4.36312L108.927 12.413C112.32 14.2062 116.654 13.1477 118.609 10.0488L150.931 -41.2043C152.886 -44.3032 151.72 -48.269 148.327 -50.0621Z" stroke="white" stroke-width="2.32" stroke-linecap="round" stroke-linejoin="round"/>
<path d="M302.251 46.2941L282.588 35.9009C281.139 35.1312 280.081 33.8692 279.644 32.3902C279.208 30.9113 279.428 29.3356 280.258 28.0071L296.328 -6.67209C297.168 -7.99757 298.548 -8.96373 300.167 -9.35913C301.787 -9.75454 303.512 -9.54697 304.967 -8.78188L334.438 6.79552C335.885 7.56805 336.941 8.83217 337.374 10.3119C337.807 11.7917 337.583 13.367 336.75 14.6939L310.86 44.1826C310.021 45.5009 308.646 46.4621 307.034 46.8574C305.422 47.2527 303.703 47.0503 302.251 46.2941V46.2941Z" stroke="white" stroke-width="2.32" stroke-linecap="round" stroke-linejoin="round"/>
<path d="M295.375 -4.58765L335.208 16.4541" stroke="white" stroke-width="1.16" stroke-linecap="round" stroke-linejoin="round"/>
<path d="M529.761 10.9526C519.155 16.5034 484.274 -2.16355 481.604 -10.1938C479.499 -19.3185 493.478 -20.7461 504.321 -33.7525C515.863 -47.6676 508.679 -62.7218 511.922 -67.9141C520.329 -81.2459 552.267 -50.7818 553.379 -26.4737C553.998 -16.3394 540.361 5.38474 529.761 10.9526Z" stroke="white" stroke-width="3.1" stroke-linecap="round" stroke-linejoin="round"/>
<path d="M236.815 43.3466L232.35 50.4262C231.8 51.2976 230.895 51.9335 229.832 52.1947C228.769 52.4559 227.636 52.3211 226.68 51.8197L163.643 19.9423C162.687 19.437 161.989 18.6057 161.703 17.6309C161.416 16.6562 161.564 15.6181 162.115 14.7449L167.755 5.80388C168.306 4.9307 169.214 4.29401 170.279 4.03385C171.345 3.77369 172.48 3.91137 173.437 4.41664L235.319 38.1231C235.794 38.3758 236.209 38.7116 236.541 39.1114C236.873 39.5111 237.116 39.9668 237.255 40.4523C237.394 40.9378 237.427 41.4435 237.351 41.9402C237.276 42.4369 237.094 42.9149 236.815 43.3466V43.3466Z" stroke="white" stroke-width="2.32" stroke-miterlimit="10"/>
<path d="M207.057 30.1009C205.938 29.5095 204.508 29.8586 203.863 30.8806C203.219 31.9025 203.603 33.2102 204.722 33.8016L223.559 43.7552C224.678 44.3466 226.108 43.9975 226.753 42.9756C227.397 41.9537 227.013 40.6459 225.894 40.0546L207.057 30.1009Z" stroke="white" stroke-width="1.04" stroke-miterlimit="10"/>
<path d="M244.954 49.9903L242.489 53.899C242.302 54.1986 242.052 54.4612 241.754 54.6717C241.455 54.8822 241.113 55.0365 240.749 55.1255C240.384 55.2145 240.004 55.2365 239.63 55.1903C239.256 55.1441 238.895 55.0306 238.569 54.8563L232.333 51.5603C231.846 51.1875 232.818 50.4671 233.613 49.2073L236.078 45.2987C236.872 44.0389 237.047 42.9396 237.671 43.0969L243.906 46.393C244.234 46.5661 244.521 46.7967 244.751 47.0715C244.981 47.3462 245.15 47.6598 245.247 47.994C245.345 48.3283 245.369 48.6768 245.318 49.0193C245.268 49.3619 245.144 49.6919 244.954 49.9903V49.9903Z" stroke="white" stroke-width="2.46" stroke-miterlimit="10"/>
<path d="M526.585 92.5083L536.635 97.8196C537.887 98.4809 538.8 99.5691 539.175 100.845C539.551 102.121 539.356 103.48 538.635 104.622L493.609 179.224C492.878 180.349 491.692 181.165 490.306 181.495C488.92 181.824 487.447 181.641 486.206 180.985L473.56 174.303C472.319 173.647 471.409 172.571 471.028 171.307C470.648 170.044 470.826 168.695 471.526 167.554L519.168 94.2917C519.895 93.1593 521.082 92.3364 522.472 92.0023C523.861 91.6683 525.339 91.8501 526.585 92.5083Z" stroke="white" stroke-width="2.32" stroke-miterlimit="10"/>
<path d="M536.015 82.8639L541.614 85.8233C542.039 86.0458 542.411 86.3427 542.71 86.6968C543.009 87.051 543.229 87.4556 543.357 87.8873C543.485 88.319 543.518 88.7693 543.455 89.2125C543.392 89.6557 543.234 90.083 542.99 90.47L538.339 97.8455C537.809 98.4123 536.779 97.2792 534.987 96.3322L529.447 93.4039C527.667 92.4631 526.08 92.213 526.351 91.5092L531.003 84.1336C531.488 83.3632 532.286 82.7985 533.223 82.561C534.161 82.3236 535.163 82.4323 536.015 82.8639V82.8639Z" stroke="white" stroke-width="3.19" stroke-miterlimit="10"/>
<path d="M463.363 67.8019L448.98 60.1997C447.776 59.5595 446.897 58.5098 446.536 57.2802C446.174 56.0505 446.36 54.7409 447.051 53.6377L456.233 39.0784C456.933 37.981 458.079 37.1815 459.422 36.8536C460.765 36.5256 462.196 36.6957 463.405 37.327L466.611 39.0219L469.369 34.6498L477.762 39.0864L474.71 43.3028L477.764 44.9167C478.965 45.5592 479.842 46.6089 480.203 47.8375C480.564 49.0662 480.381 50.3747 479.693 51.4787L470.511 66.038C469.816 67.1342 468.675 67.9344 467.336 68.2647C465.998 68.5949 464.57 68.4286 463.363 67.8019Z" stroke="white" stroke-width="2.32" stroke-linecap="round" stroke-linejoin="round"/>
<path d="M481.292 33.5689L472.891 29.1286C471.225 28.2481 469.097 28.7679 468.137 30.2895L468.13 30.3002C467.17 31.8219 467.743 33.7692 469.409 34.6497L477.81 39.0899C479.476 39.9704 481.605 39.4506 482.564 37.929L482.571 37.9182C483.531 36.3966 482.958 34.4493 481.292 33.5689Z" stroke="white" stroke-width="2.32" stroke-linecap="round" stroke-linejoin="round"/>
<path d="M612.599 10.1555L580.86 -6.62062C577.467 -8.41378 573.133 -7.3553 571.178 -4.25642L538.855 46.9967C536.901 50.0956 538.067 54.0614 541.46 55.8545L573.199 72.6306C576.592 74.4238 580.926 73.3653 582.881 70.2664L615.203 19.0133C617.158 15.9144 615.992 11.9487 612.599 10.1555Z" stroke="white" stroke-width="2" stroke-linecap="round" stroke-linejoin="round"/>
<path d="M606.842 12.2078L581.811 -1.02214C579.207 -2.39881 575.879 -1.58616 574.379 0.792982L550.152 39.2079C548.652 41.5871 549.547 44.6318 552.152 46.0084L577.182 59.2384C579.786 60.6151 583.114 59.8024 584.615 57.4233L608.841 19.0083C610.341 16.6292 609.446 13.5845 606.842 12.2078Z" stroke="white" stroke-width="1.31" stroke-linecap="round" stroke-linejoin="round"/>
<path d="M559.505 60.7795C560.918 61.5262 562.723 61.0854 563.536 59.795C564.35 58.5045 563.865 56.8531 562.452 56.1064C561.039 55.3597 559.234 55.8005 558.421 57.0909C557.607 58.3813 558.092 60.0328 559.505 60.7795Z" stroke="white" stroke-width="1.31" stroke-linecap="round" stroke-linejoin="round"/>
<rect x="-577.511" y="-33.666" width="1229.36" height="224.774" fill="url(#paint0_linear_201_22080)"/>
</g>
<defs>
<linearGradient id="paint0_linear_201_22080" x1="651.846" y1="33.261" x2="5.95751" y2="209.274" gradientUnits="userSpaceOnUse">
<stop offset="0.0833333" stop-color="#4C9E45" stop-opacity="0.95"/>
<stop offset="0.583333" stop-color="#4C9E45" stop-opacity="0.7"/>
<stop offset="0.828125" stop-color="#4C9E45" stop-opacity="0.95"/>
</linearGradient>
</defs>
</svg>
