<svg width="24" height="24" viewBox="0 0 24 24" fill="none" xmlns="http://www.w3.org/2000/svg">
<path fill-rule="evenodd" clip-rule="evenodd" d="M17.5667 11.3581L17.5738 11.3464C18.1616 10.37 18.5 9.22681 18.5 8C18.5 4.41015 15.5899 1.5 12 1.5C8.41015 1.5 5.5 4.41015 5.5 8C5.5 9.22682 5.83844 10.37 6.42621 11.3464L6.43328 11.3582L6.44013 11.37L12 21L17.5599 11.37L17.5667 11.3581ZM12.866 22.5L12 24L11.134 22.5L5.1411 12.12C4.41667 10.9166 4 9.50697 4 8C4 3.58172 7.58172 0 12 0C16.4183 0 20 3.58172 20 8C20 9.50696 19.5833 10.9166 18.8589 12.12L12.866 22.5Z" fill="white"/>
<path d="M9.66493 9.33156C9.93061 9.06588 10.2909 8.91663 10.6667 8.91663H13.3333C13.7091 8.91663 14.0694 9.06588 14.3351 9.33156L14.5082 9.15839L14.3351 9.33156C14.6007 9.59723 14.75 9.95757 14.75 10.3333V11C14.75 11.046 14.7127 11.0833 14.6667 11.0833C14.6206 11.0833 14.5833 11.046 14.5833 11V10.3333C14.5833 10.0018 14.4516 9.68383 14.2172 9.44941C13.9828 9.21499 13.6649 9.08329 13.3333 9.08329H10.6667C10.3351 9.08329 10.0172 9.21499 9.78278 9.44941C9.54836 9.68383 9.41667 10.0018 9.41667 10.3333V11C9.41667 11.046 9.37936 11.0833 9.33333 11.0833C9.28731 11.0833 9.25 11.046 9.25 11V10.3333C9.25 9.95757 9.39926 9.59723 9.66493 9.33156Z" fill="white" stroke="white" stroke-width="0.5" stroke-linecap="round" stroke-linejoin="round"/>
<path d="M12.0007 5.08329C11.3103 5.08329 10.7507 5.64294 10.7507 6.33329C10.7507 7.02365 11.3103 7.58329 12.0007 7.58329C12.691 7.58329 13.2507 7.02365 13.2507 6.33329C13.2507 5.64294 12.691 5.08329 12.0007 5.08329ZM10.584 6.33329C10.584 5.55089 11.2182 4.91663 12.0007 4.91663C12.7831 4.91663 13.4173 5.55089 13.4173 6.33329C13.4173 7.1157 12.7831 7.74996 12.0007 7.74996C11.2182 7.74996 10.584 7.1157 10.584 6.33329Z" fill="white" stroke="white" stroke-width="0.5" stroke-linecap="round" stroke-linejoin="round"/>
</svg>
