<?xml version="1.0" standalone="no"?>
<!DOCTYPE svg PUBLIC "-//W3C//DTD SVG 1.1//EN" "http://www.w3.org/Graphics/SVG/1.1/DTD/svg11.dtd">                                                                        
<svg width="24" height="24" viewBox="0 0 24 24" fill="none" xmlns="http://www.w3.org/2000/svg">
<path fill-rule="evenodd" clip-rule="evenodd" d="M11.6489 1.06367C11.8753 0.978776 12.1247 0.978776 12.3511 1.06367L20.3511 4.06369C20.7414 4.21006 21 4.58318 21 5.00003V12.0001C21 15.4465 18.7183 18.2004 16.6585 20.0027C15.6076 20.9222 14.5615 21.641 13.78 22.1294C13.3882 22.3743 13.0603 22.5629 12.8281 22.6915C12.7119 22.7558 12.6194 22.8052 12.5547 22.8392C12.5223 22.8562 12.4968 22.8693 12.4788 22.8786L12.4573 22.8895L12.4508 22.8928L12.4486 22.8939C12.4483 22.894 12.4472 22.8946 12 22.0001C11.5528 22.8946 11.5525 22.8944 11.5522 22.8943L11.5492 22.8928L11.5427 22.8895L11.5212 22.8786C11.5032 22.8693 11.4777 22.8562 11.4453 22.8392C11.3806 22.8052 11.2881 22.7558 11.1719 22.6915C10.9397 22.5629 10.6118 22.3743 10.22 22.1294C9.43854 21.641 8.39238 20.9222 7.3415 20.0027C5.28175 18.2004 3 15.4465 3 12.0001V5.00003C3 4.58318 3.25857 4.21006 3.64888 4.06369L11.6489 1.06367ZM12 22.0001L11.5522 22.8943C11.8337 23.035 12.1657 23.0353 12.4472 22.8946L12 22.0001ZM12 20.8629C12.1916 20.7543 12.4367 20.6105 12.72 20.4334C13.4385 19.9843 14.3924 19.328 15.3415 18.4975C17.2817 16.7998 19 14.5537 19 12.0001V5.69303L12 3.06802L5 5.69303V12.0001C5 14.5537 6.71825 16.7998 8.6585 18.4975C9.60762 19.328 10.5615 19.9843 11.28 20.4334C11.5633 20.6105 11.8084 20.7543 12 20.8629Z" fill="#4c9e45" fill-opacity="0.7"/>
</svg>
