<svg width="24" height="24" viewBox="0 0 24 24" fill="none" xmlns="http://www.w3.org/2000/svg">
<path fill-rule="evenodd" clip-rule="evenodd" d="M18.8589 12.12C19.5833 10.9166 20 9.50696 20 8C20 3.58172 16.4183 0 12 0C7.58172 0 4 3.58172 4 8C4 9.50697 4.41667 10.9166 5.1411 12.12L12 24L18.8589 12.12ZM7.21814 3.57137C7.70382 3.06629 9.56106 1.13485 12.5607 1.50379C13.615 1.63347 14.4278 1.90032 15.1159 2.27936C15.8008 2.65663 16.3395 3.1328 16.8532 3.64656C17.8331 4.62648 18.2764 6.00426 18.3986 7.29205C18.5207 8.57785 18.3312 9.85806 17.9556 10.7031L17.9448 10.7275L11.9959 21.0029L11.5646 20.2481C11.1361 19.4982 10.5101 18.4715 9.82385 17.3459C9.44809 16.7295 9.05425 16.0835 8.6648 15.437C7.57643 13.6303 6.51461 11.807 6.0391 10.6969C4.42186 6.92153 6.58239 4.20926 7.14515 3.64651C7.16443 3.62722 7.18878 3.6019 7.21814 3.57137ZM7.92995 4.27423C7.90008 4.30501 7.87417 4.3317 7.85226 4.35361C7.41501 4.79086 5.57701 7.07858 6.95831 10.3032C7.40118 11.3371 8.42269 13.0971 9.52139 14.921C9.90236 15.5535 10.2918 16.1922 10.6657 16.8056L10.6659 16.8059L10.6661 16.8062C11.1534 17.6057 11.6146 18.3621 11.9967 19.0056L17.0521 10.2736C17.3371 9.61604 17.5115 8.52762 17.4031 7.38657C17.2937 6.23386 16.9041 5.11165 16.1461 4.35365C15.6598 3.86738 15.1985 3.46652 14.6334 3.15527C14.0716 2.84579 13.3843 2.61262 12.4386 2.49631C9.95221 2.1905 8.41595 3.77346 7.92995 4.27423ZM9.66667 10.3333C9.66667 10.0681 9.77202 9.81372 9.95956 9.62619C10.1471 9.43865 10.4015 9.33329 10.6667 9.33329H13.3333C13.5985 9.33329 13.8529 9.43865 14.0404 9.62619C14.228 9.81372 14.3333 10.0681 14.3333 10.3333V11C14.3333 11.1841 14.4826 11.3333 14.6667 11.3333C14.8508 11.3333 15 11.1841 15 11V10.3333C15 9.89126 14.8244 9.46734 14.5118 9.15478C14.1993 8.84222 13.7754 8.66663 13.3333 8.66663H10.6667C10.2246 8.66663 9.80072 8.84222 9.48816 9.15478C9.17559 9.46734 9 9.89127 9 10.3333V11C9 11.1841 9.14924 11.3333 9.33333 11.3333C9.51743 11.3333 9.66667 11.1841 9.66667 11V10.3333ZM11.0007 6.33329C11.0007 5.78101 11.4484 5.33329 12.0007 5.33329C12.5529 5.33329 13.0007 5.78101 13.0007 6.33329C13.0007 6.88558 12.5529 7.33329 12.0007 7.33329C11.4484 7.33329 11.0007 6.88558 11.0007 6.33329ZM12.0007 4.66663C11.0802 4.66663 10.334 5.41282 10.334 6.33329C10.334 7.25377 11.0802 7.99996 12.0007 7.99996C12.9211 7.99996 13.6673 7.25377 13.6673 6.33329C13.6673 5.41282 12.9211 4.66663 12.0007 4.66663Z" fill="white"/>
</svg>
