<svg width="40" height="40" viewBox="0 0 40 40" fill="none" xmlns="http://www.w3.org/2000/svg">
<path fill-rule="evenodd" clip-rule="evenodd" d="M12.6463 16.6827C12.451 16.4874 12.451 16.1708 12.6463 15.9755L19.4755 9.14628C19.6708 8.95102 19.9874 8.95102 20.1827 9.14628C20.3779 9.34154 20.3779 9.65812 20.1827 9.85338L13.3534 16.6827C13.1581 16.8779 12.8415 16.8779 12.6463 16.6827Z" fill="#333333"/>
<path fill-rule="evenodd" clip-rule="evenodd" d="M27.0122 16.6827C26.817 16.8779 26.5004 16.8779 26.3051 16.6827L19.4759 9.85338C19.2806 9.65812 19.2806 9.34154 19.4759 9.14628C19.6711 8.95102 19.9877 8.95102 20.183 9.14628L27.0122 15.9755C27.2075 16.1708 27.2075 16.4874 27.0122 16.6827Z" fill="#333333"/>
<path fill-rule="evenodd" clip-rule="evenodd" d="M19.8291 31.4639C19.553 31.4639 19.3291 31.24 19.3291 30.9639L19.3291 9.50045C19.3291 9.22431 19.553 9.00045 19.8291 9.00045C20.1052 9.00045 20.3291 9.22431 20.3291 9.50045L20.3291 30.9639C20.3291 31.24 20.1052 31.4639 19.8291 31.4639Z" fill="#333333"/>
<path fill-rule="evenodd" clip-rule="evenodd" d="M19.5 36C28.6127 36 36 28.6127 36 19.5C36 10.3873 28.6127 3 19.5 3C10.3873 3 3 10.3873 3 19.5C3 28.6127 10.3873 36 19.5 36ZM19.5 37C29.165 37 37 29.165 37 19.5C37 9.83502 29.165 2 19.5 2C9.83502 2 2 9.83502 2 19.5C2 29.165 9.83502 37 19.5 37Z" fill="#333333"/>
</svg>
