<svg width="27" height="25" viewBox="0 0 27 25" fill="none" xmlns="http://www.w3.org/2000/svg">
<path d="M6.70227 9.01494C6.78779 8.15973 5.91834 7.5896 5.47292 7.41143L2.21246 13.4513C1.17909 14.7519 -0.150041 18.2511 2.80041 21.843C5.75086 25.4348 9.99765 24.7096 11.6731 23.0189C13.633 21.0412 17.7237 16.8828 18.4079 16.0704C19.2631 15.0548 18.9471 14.1948 18.5851 13.7523C18.1041 13.1644 17.5705 13.2534 17.2854 13.1109C17.5696 12.8437 18.0506 12.3092 18.4079 11.9547C18.9471 11.4196 19.1731 10.7057 18.8524 9.95735C18.5317 9.20905 17.6765 8.8349 17.2854 9.01494C17.5847 8.67286 17.623 8.58547 17.6765 8.35385C17.7628 7.9797 17.6123 7.27416 17.142 6.8038C16.6716 6.33344 15.5385 6.1624 15.1643 6.59L14.5229 7.17795C14.5229 6.98197 14.5229 6.37614 13.9715 5.86138C13.5026 5.42368 12.5452 5.46748 12.2076 5.86138L5.47292 12.703C5.84707 11.83 6.61675 9.87014 6.70227 9.01494Z" stroke="white"/>
<path d="M8.7334 13.0236L15.1474 6.60956M11.0318 15.3219L17.4458 8.90792M12.4215 17.9748L17.4458 12.9504" stroke="white"/>
<mask id="mask0_1820_6705" style="mask-type:alpha" maskUnits="userSpaceOnUse" x="8" y="5" width="18" height="18">
<path fill-rule="evenodd" clip-rule="evenodd" d="M24.3261 16.0109C23.1926 20.08 18.975 22.4597 14.906 21.3261C10.837 20.1925 8.45727 15.975 9.59083 11.906C10.7244 7.83691 14.9419 5.45723 19.011 6.59078C23.08 7.72434 25.4597 11.9419 24.3261 16.0109ZM24.7472 16.1282C23.5488 20.4298 19.0903 22.9454 14.7887 21.7471C10.4872 20.5488 7.97149 16.0902 9.16982 11.7887C10.3682 7.4871 14.8267 4.97144 19.1283 6.16978C23.4298 7.36811 25.9455 11.8267 24.7472 16.1282ZM22.5049 15.5315C21.6528 18.5901 18.4826 20.3789 15.424 19.5268C12.3654 18.6748 10.5766 15.5045 11.4287 12.4459C12.2808 9.38732 15.451 7.59857 18.5096 8.45064C21.5682 9.30271 23.357 12.4729 22.5049 15.5315ZM22.9479 15.655C22.0277 18.9583 18.6039 20.8901 15.3006 19.9699C11.9973 19.0496 10.0654 15.6258 10.9857 12.3225C11.9059 9.01921 15.3297 7.08736 18.633 8.00759C21.9363 8.92783 23.8682 12.3517 22.9479 15.655Z" fill="white"/>
</mask>
<g mask="url(#mask0_1820_6705)">
<path d="M29.0001 11L33.5 12L28.3777 27.5284L21.9381 24.378L17.3769 13.3781L29.0001 11Z" fill="white"/>
</g>
<mask id="mask1_1820_6705" style="mask-type:alpha" maskUnits="userSpaceOnUse" x="4" y="0" width="17" height="17">
<path fill-rule="evenodd" clip-rule="evenodd" d="M12.0852 0.436952C16.3092 0.436952 19.7335 3.86117 19.7335 8.08516C19.7335 12.3091 16.3092 15.7334 12.0852 15.7334C7.86126 15.7334 4.43704 12.3091 4.43704 8.08516C4.43704 3.86117 7.86126 0.436952 12.0852 0.436952ZM12.0852 -8.80915e-05C16.5506 -8.82866e-05 20.1705 3.6198 20.1705 8.08516C20.1705 12.5505 16.5506 16.1704 12.0852 16.1704C7.61989 16.1704 4 12.5505 4 8.08516C4 3.6198 7.61989 -8.78963e-05 12.0852 -8.80915e-05ZM12.1122 2.32005C15.2873 2.32005 17.8612 4.89396 17.8612 8.06903C17.8612 11.2441 15.2873 13.818 12.1122 13.818C8.93713 13.818 6.36322 11.2441 6.36322 8.06903C6.36322 4.89396 8.93712 2.32005 12.1122 2.32005ZM12.1122 1.86013C15.5413 1.86013 18.3211 4.63995 18.3211 8.06903C18.3211 11.4981 15.5413 14.2779 12.1122 14.2779C8.68312 14.2779 5.9033 11.4981 5.9033 8.06903C5.9033 4.63995 8.68312 1.86013 12.1122 1.86013Z" fill="white"/>
</mask>
<g mask="url(#mask1_1820_6705)">
<path d="M0.898279 -0.652383L-0.746583 -6.55681L14.5 -6.55681L14.5 -2.50006L11.4139 7.83789L0.898279 -0.652383Z" fill="white"/>
</g>
</svg>
