<svg width="24" height="24" viewBox="0 0 24 24" fill="none" xmlns="http://www.w3.org/2000/svg">
<path d="M21.724 12C21.724 17.5343 17.2946 22 11.856 22C6.41742 22 1.98804 17.5343 1.98804 12C1.98804 6.46573 6.41742 2 11.856 2C17.2946 2 21.724 6.46573 21.724 12Z" fill="#4C9E45" stroke="#4C9E45" stroke-width="2"/>
<path d="M17.1767 9.01071C17.5036 8.67987 17.5036 8.14469 17.1767 7.81385C16.8482 7.48132 16.3143 7.48132 15.9857 7.81385L10.0841 13.7872L7.7263 11.4008C7.39777 11.0683 6.86385 11.0683 6.53532 11.4008C6.20844 11.7316 6.20844 12.2668 6.53532 12.5977L9.48857 15.5868C9.8171 15.9193 10.351 15.9193 10.6796 15.5868L17.1767 9.01071Z" fill="white" stroke="white" stroke-width="0.5" stroke-linecap="round" stroke-linejoin="round"/>
</svg>
