<svg width="24" height="24" viewBox="0 0 24 24" fill="none" xmlns="http://www.w3.org/2000/svg">
<path fill-rule="evenodd" clip-rule="evenodd" d="M4.01209 2.81561C3.93006 2.90078 3.86634 3.05148 3.86634 3.3173V20.7173C3.86634 20.9589 3.92667 21.1027 4.00659 21.1862C4.08455 21.2676 4.22129 21.3333 4.46634 21.3333H19.4983C19.7899 21.3333 19.9277 21.274 19.9991 21.2031C20.0702 21.1325 20.133 20.9931 20.133 20.6906V8.51832L14.2891 2.66663H4.49034C4.23357 2.66663 4.09229 2.73233 4.01209 2.81561ZM3.62793 2.44565C3.84306 2.22227 4.14712 2.1333 4.49034 2.1333H14.3997C14.4705 2.1333 14.5383 2.16144 14.5884 2.21153L20.5884 8.21953C20.6383 8.26953 20.6663 8.33731 20.6663 8.40797V20.6906C20.6663 21.0468 20.5958 21.3621 20.3749 21.5815C20.1543 21.8006 19.8414 21.8666 19.4983 21.8666H4.46634C4.1274 21.8666 3.8308 21.7737 3.62142 21.5551C3.41402 21.3385 3.33301 21.041 3.33301 20.7173V3.3173C3.33301 2.97513 3.41462 2.66715 3.62793 2.44565Z" fill="white" stroke="white" stroke-width="0.5" stroke-miterlimit="10" stroke-linecap="round" stroke-linejoin="round"/>
<path fill-rule="evenodd" clip-rule="evenodd" d="M14.1338 8.3999V2.3999H14.6671V8.13323H20.4005V8.66657H14.4005C14.2532 8.66657 14.1338 8.54718 14.1338 8.3999Z" fill="white" stroke="white" stroke-width="0.5" stroke-miterlimit="10" stroke-linejoin="round"/>
<path fill-rule="evenodd" clip-rule="evenodd" d="M6.93359 12.6002C6.93359 12.4529 7.05298 12.3335 7.20026 12.3335H16.8003C16.9475 12.3335 17.0669 12.4529 17.0669 12.6002C17.0669 12.7474 16.9475 12.8668 16.8003 12.8668H7.20026C7.05298 12.8668 6.93359 12.7474 6.93359 12.6002Z" fill="white" stroke="white" stroke-width="0.5" stroke-miterlimit="10" stroke-linecap="round" stroke-linejoin="round"/>
<path fill-rule="evenodd" clip-rule="evenodd" d="M6.93359 15.0001C6.93359 14.8528 7.05298 14.7334 7.20026 14.7334H16.8003C16.9475 14.7334 17.0669 14.8528 17.0669 15.0001C17.0669 15.1473 16.9475 15.2667 16.8003 15.2667H7.20026C7.05298 15.2667 6.93359 15.1473 6.93359 15.0001Z" fill="white" stroke="white" stroke-width="0.5" stroke-miterlimit="10" stroke-linecap="round" stroke-linejoin="round"/>
<path fill-rule="evenodd" clip-rule="evenodd" d="M6.93359 17.4C6.93359 17.2527 7.05298 17.1333 7.20026 17.1333H16.8003C16.9475 17.1333 17.0669 17.2527 17.0669 17.4C17.0669 17.5472 16.9475 17.6666 16.8003 17.6666H7.20026C7.05298 17.6666 6.93359 17.5472 6.93359 17.4Z" fill="white" stroke="white" stroke-width="0.5" stroke-miterlimit="10" stroke-linecap="round" stroke-linejoin="round"/>
</svg>
