<svg width="18" height="18" viewBox="0 0 18 18" fill="none" xmlns="http://www.w3.org/2000/svg">
<path fill-rule="evenodd" clip-rule="evenodd" d="M3.00931 2.11183C2.94779 2.17571 2.9 2.28873 2.9 2.4881V15.5381C2.9 15.7193 2.94524 15.8272 3.00519 15.8898C3.06366 15.9508 3.16621 16.0001 3.35 16.0001H14.624C14.8427 16.0001 14.946 15.9556 14.9996 15.9024C15.0529 15.8495 15.1 15.745 15.1 15.5181V6.38886L10.7171 2.0001H3.368C3.17542 2.0001 3.06946 2.04937 3.00931 2.11183ZM2.72119 1.83436C2.88254 1.66682 3.11058 1.6001 3.368 1.6001H10.8C10.8531 1.6001 10.904 1.62121 10.9415 1.65877L15.4415 6.16477C15.479 6.20227 15.5 6.2531 15.5 6.3061V15.5181C15.5 15.7852 15.4471 16.0217 15.2814 16.1863C15.116 16.3506 14.8813 16.4001 14.624 16.4001H3.35C3.09579 16.4001 2.87334 16.3304 2.71631 16.1664C2.56076 16.004 2.5 15.7809 2.5 15.5381V2.4881C2.5 2.23147 2.56121 2.00049 2.72119 1.83436Z" fill="#333333"/>
<path fill-rule="evenodd" clip-rule="evenodd" d="M10.6001 6.30005V1.80005H11.0001V6.10005H15.3001V6.50005H10.8001C10.6896 6.50005 10.6001 6.41051 10.6001 6.30005Z" fill="#333333"/>
<path fill-rule="evenodd" clip-rule="evenodd" d="M5.2002 9.45C5.2002 9.33954 5.28974 9.25 5.4002 9.25H12.6002C12.7107 9.25 12.8002 9.33954 12.8002 9.45C12.8002 9.56046 12.7107 9.65 12.6002 9.65H5.4002C5.28974 9.65 5.2002 9.56046 5.2002 9.45Z" fill="#333333"/>
<path fill-rule="evenodd" clip-rule="evenodd" d="M5.2002 11.25C5.2002 11.1396 5.28974 11.05 5.4002 11.05H12.6002C12.7107 11.05 12.8002 11.1396 12.8002 11.25C12.8002 11.3605 12.7107 11.45 12.6002 11.45H5.4002C5.28974 11.45 5.2002 11.3605 5.2002 11.25Z" fill="#333333"/>
<path fill-rule="evenodd" clip-rule="evenodd" d="M5.2002 13.0501C5.2002 12.9396 5.28974 12.8501 5.4002 12.8501H12.6002C12.7107 12.8501 12.8002 12.9396 12.8002 13.0501C12.8002 13.1606 12.7107 13.2501 12.6002 13.2501H5.4002C5.28974 13.2501 5.2002 13.1606 5.2002 13.0501Z" fill="#333333"/>
</svg>
