<?xml version="1.0" standalone="no"?>
<!DOCTYPE svg PUBLIC "-//W3C//DTD SVG 1.1//EN" "http://www.w3.org/Graphics/SVG/1.1/DTD/svg11.dtd">
<svg width="18" height="22" viewBox="0 0 30 38" fill="#0B3C61" xmlns="http://www.w3.org/2000/svg">
<path fill-rule="evenodd" clip-rule="evenodd" d="M1.46447 2.13115C2.40215 1.19347 3.67392 0.666687 5 0.666687H18.3333C18.7754 0.666687 19.1993 0.842282 19.5118 1.15484L29.5118 11.1548C29.8244 11.4674 30 11.8913 30 12.3334V32.3334C30 33.6594 29.4732 34.9312 28.5355 35.8689C27.5979 36.8066 26.3261 37.3334 25 37.3334H5C3.67392 37.3334 2.40215 36.8066 1.46447 35.8689C0.526784 34.9312 0 33.6594 0 32.3334V5.66669C0 4.3406 0.526784 3.06883 1.46447 2.13115ZM5 4.00002C4.55797 4.00002 4.13405 4.17561 3.82149 4.48818C3.50893 4.80074 3.33333 5.22466 3.33333 5.66669V32.3334C3.33333 32.7754 3.50893 33.1993 3.82149 33.5119C4.13405 33.8244 4.55797 34 5 34H25C25.442 34 25.8659 33.8244 26.1785 33.5119C26.4911 33.1993 26.6667 32.7754 26.6667 32.3334V13.0237L17.643 4.00002H5Z" fill="#0B3C61"/>
<path fill-rule="evenodd" clip-rule="evenodd" d="M18.3333 0.666687C19.2538 0.666687 20 1.41288 20 2.33335V10.6667H28.3333C29.2538 10.6667 30 11.4129 30 12.3334C30 13.2538 29.2538 14 28.3333 14H18.3333C17.4129 14 16.6667 13.2538 16.6667 12.3334V2.33335C16.6667 1.41288 17.4129 0.666687 18.3333 0.666687Z" fill="#0B3C61"/>
<path fill-rule="evenodd" clip-rule="evenodd" d="M6.66667 20.6667C6.66667 19.7462 7.41286 19 8.33333 19H21.6667C22.5871 19 23.3333 19.7462 23.3333 20.6667C23.3333 21.5872 22.5871 22.3334 21.6667 22.3334H8.33333C7.41286 22.3334 6.66667 21.5872 6.66667 20.6667Z" fill="#0B3C61"/>
<path fill-rule="evenodd" clip-rule="evenodd" d="M6.66667 27.3334C6.66667 26.4129 7.41286 25.6667 8.33333 25.6667H21.6667C22.5871 25.6667 23.3333 26.4129 23.3333 27.3334C23.3333 28.2538 22.5871 29 21.6667 29H8.33333C7.41286 29 6.66667 28.2538 6.66667 27.3334Z" fill="#0B3C61"/>
<path fill-rule="evenodd" clip-rule="evenodd" d="M6.66667 14C6.66667 13.0795 7.41286 12.3334 8.33333 12.3334H11.6667C12.5871 12.3334 13.3333 13.0795 13.3333 14C13.3333 14.9205 12.5871 15.6667 11.6667 15.6667H8.33333C7.41286 15.6667 6.66667 14.9205 6.66667 14Z" fill="#0B3C61"/>
</svg>
