<svg width="40" height="40" viewBox="0 0 40 40" fill="none" xmlns="http://www.w3.org/2000/svg">
<path fill-rule="evenodd" clip-rule="evenodd" d="M5.47165 3.47297C5.36207 3.58599 5.25294 3.80941 5.25294 4.26153V35.2991C5.25294 35.7067 5.35505 35.9194 5.46199 36.0305C5.56478 36.1374 5.76518 36.2471 6.17773 36.2471H33.0861C33.593 36.2471 33.7903 36.1433 33.876 36.0584C33.9605 35.9748 34.0706 35.7766 34.0706 35.2527V13.604L23.6984 3.25294H6.22188C5.78594 3.25294 5.57772 3.36357 5.47165 3.47297ZM4.57213 2.60077C4.99558 2.16406 5.58507 2 6.22188 2H23.9576C24.1235 2 24.2826 2.06583 24.4001 2.18304L35.1396 12.9007C35.2574 13.0182 35.3235 13.1778 35.3235 13.3441V35.2527C35.3235 35.9037 35.1949 36.5159 34.7574 36.949C34.3211 37.3808 33.7129 37.5 33.0861 37.5H6.17773C5.54616 37.5 4.97093 37.3273 4.55913 36.8993C4.15146 36.4756 4 35.9011 4 35.2991V4.26153C4 3.62797 4.1522 3.03386 4.57213 2.60077Z" fill="#0B3C61"/>
<path fill-rule="evenodd" clip-rule="evenodd" d="M23.2117 13.4853V2.62646H24.4646V12.8588H34.697V14.1118H23.8381C23.4922 14.1118 23.2117 13.8313 23.2117 13.4853Z" fill="#0B3C61"/>
<path fill-rule="evenodd" clip-rule="evenodd" d="M10.2646 28.5205C10.2646 28.1745 10.5451 27.894 10.8911 27.894H28.0146C28.3606 27.894 28.6411 28.1745 28.6411 28.5205C28.6411 28.8665 28.3606 29.147 28.0146 29.147H10.8911C10.5451 29.147 10.2646 28.8665 10.2646 28.5205Z" fill="#0B3C61"/>
<path fill-rule="evenodd" clip-rule="evenodd" d="M10.2646 32.6973C10.2646 32.3513 10.5451 32.0708 10.8911 32.0708H28.0146C28.3606 32.0708 28.6411 32.3513 28.6411 32.6973C28.6411 33.0433 28.3606 33.3237 28.0146 33.3237H10.8911C10.5451 33.3237 10.2646 33.0433 10.2646 32.6973Z" fill="#0B3C61"/>
<path fill-rule="evenodd" clip-rule="evenodd" d="M10.2646 17.4531H28.6411V24.5531H10.2646V17.4531ZM11.5176 18.7061V23.3002H27.3882V18.7061H11.5176Z" fill="#0B3C61"/>
<path fill-rule="evenodd" clip-rule="evenodd" d="M14.8588 7.42921C13.0135 7.42921 11.5176 8.92511 11.5176 10.7704C11.5176 12.6157 13.0135 14.1116 14.8588 14.1116C16.704 14.1116 18.1999 12.6157 18.1999 10.7704C18.1999 8.92511 16.704 7.42921 14.8588 7.42921ZM10.2646 10.7704C10.2646 8.23313 12.3215 6.17627 14.8588 6.17627C17.396 6.17627 19.4529 8.23313 19.4529 10.7704C19.4529 13.3076 17.396 15.3645 14.8588 15.3645C12.3215 15.3645 10.2646 13.3076 10.2646 10.7704Z" fill="#0B3C61"/>
<path fill-rule="evenodd" clip-rule="evenodd" d="M15.0676 14.1118C15.4136 14.1118 15.6941 14.3923 15.6941 14.7383V18.0795C15.6941 18.4255 15.4136 18.7059 15.0676 18.7059C14.7216 18.7059 14.4412 18.4255 14.4412 18.0795V14.7383C14.4412 14.3923 14.7216 14.1118 15.0676 14.1118Z" fill="#0B3C61"/>
<path fill-rule="evenodd" clip-rule="evenodd" d="M16.6378 9.87242C16.7879 10.0475 16.7676 10.3112 16.5925 10.4613L14.6435 12.1319C14.4871 12.266 14.2563 12.266 14.0999 12.1319L13.1253 11.2966C12.9502 11.1465 12.9299 10.8828 13.08 10.7077C13.2302 10.5326 13.4938 10.5123 13.6689 10.6624L14.3717 11.2647L16.0489 9.82712C16.224 9.677 16.4877 9.69729 16.6378 9.87242Z" fill="#0B3C61"/>
</svg>
