<?xml version="1.0" standalone="no"?>
<!DOCTYPE svg PUBLIC "-//W3C//DTD SVG 1.1//EN" "http://www.w3.org/Graphics/SVG/1.1/DTD/svg11.dtd">
<svg width="18" height="18" viewBox="0 0 18 18" fill="none" xmlns="http://www.w3.org/2000/svg">
<path fill-rule="evenodd" clip-rule="evenodd" d="M9.5821 2.06301C10.4308 1.2433 11.5675 0.789722 12.7474 0.799975C13.9273 0.810228 15.056 1.28349 15.8903 2.11782C16.7246 2.95216 17.1979 4.08082 17.2081 5.2607C17.2184 6.44059 16.7648 7.5773 15.9451 8.42601L15.936 8.4353L13.6861 10.6852C13.2299 11.1416 12.6809 11.4945 12.0763 11.72C11.4717 11.9455 10.8257 12.0384 10.182 11.9923C9.53842 11.9462 8.91223 11.7622 8.34596 11.4529C7.77969 11.1435 7.28657 10.7159 6.90006 10.1992C6.65196 9.86752 6.71972 9.3975 7.0514 9.1494C7.38309 8.90129 7.85311 8.96905 8.10121 9.30074C8.35888 9.64522 8.68763 9.93025 9.06514 10.1365C9.44266 10.3428 9.86012 10.4654 10.2892 10.4961C10.7183 10.5269 11.149 10.465 11.552 10.3146C11.9551 10.1643 12.3211 9.92898 12.6252 9.62474L14.8704 7.37951C15.4142 6.81418 15.715 6.05827 15.7082 5.27374C15.7014 4.48715 15.3859 3.73471 14.8296 3.17848C14.2734 2.62226 13.521 2.30675 12.7344 2.29992C11.9495 2.2931 11.1933 2.59415 10.6279 3.13838L9.34192 4.41685C9.04817 4.70889 8.5733 4.7075 8.28126 4.41376C7.98923 4.12001 7.99061 3.64514 8.28436 3.3531L9.57436 2.0706L9.5821 2.06301Z" fill="#0B3C61"/>
<path fill-rule="evenodd" clip-rule="evenodd" d="M5.925 6.27994C6.52958 6.05441 7.1756 5.96154 7.81923 6.00764C8.46286 6.05373 9.08904 6.23771 9.65532 6.54709C10.2216 6.85648 10.7147 7.28402 11.1012 7.80074C11.3493 8.13243 11.2816 8.60244 10.9499 8.85055C10.6182 9.09865 10.1482 9.0309 9.90006 8.69921C9.64239 8.35473 9.31365 8.0697 8.93613 7.86344C8.55862 7.65719 8.14116 7.53454 7.71207 7.50381C7.28299 7.47308 6.85231 7.53499 6.44926 7.68534C6.0462 7.83569 5.6802 8.07097 5.37606 8.37521L3.13083 10.6204C2.58705 11.1858 2.28626 11.9417 2.29308 12.7262C2.29992 13.5128 2.61542 14.2652 3.17165 14.8215C3.72787 15.3777 4.48031 15.6932 5.2669 15.7C6.05143 15.7068 6.80734 15.4061 7.37266 14.8623L8.65031 13.5846C8.9432 13.2917 9.41807 13.2917 9.71097 13.5846C10.0039 13.8775 10.0039 14.3524 9.71097 14.6453L8.42847 15.9278L8.41917 15.9369C7.57046 16.7567 6.43375 17.2102 5.25387 17.2C4.07398 17.1897 2.94533 16.7165 2.11099 15.8821C1.27665 15.0478 0.803392 13.9191 0.793139 12.7392C0.782886 11.5594 1.23646 10.4226 2.05617 9.57394L2.06531 9.56464L4.31521 7.31474C4.31518 7.31477 4.31524 7.31471 4.31521 7.31474C4.77139 6.85842 5.32046 6.50545 5.925 6.27994Z" fill="#0B3C61"/>
</svg>
