<svg width="24" height="24" viewBox="0 0 24 24" fill="none" xmlns="http://www.w3.org/2000/svg">
<path d="M19.6742 5.18134C21.1072 10.3065 17.7682 12.6553 15.4816 12.6553H10.6748C10.7814 12.8728 10.8443 13.1106 10.8595 13.3543H14.6158C17.7899 13.3543 18.2433 15.9463 17.9746 17.3209C17.7619 18.4101 17.6164 19.0159 17.3253 20.4779C17.0342 21.9399 16.396 23 14.6214 23H8.41874C5.41259 23 4.78 20.5769 5.05991 19.0858C5.18866 18.381 5.31182 17.7228 5.39019 17.3093C5.52647 16.6302 5.78478 15.984 6.15153 15.4046C5.81764 14.829 5.64867 14.1662 5.6645 13.4941C5.68835 12.9828 5.85523 12.4899 6.14464 12.076C6.43405 11.6621 6.83337 11.3452 7.29353 11.1642C6.96719 10.5115 6.79995 9.78548 6.8065 9.04982C6.8065 4.66964 9.72309 2.98629 11.7888 2.98629H16.5135V1.51279L19.7953 4.70458L15.4816 9.37397L15.9608 6.51718H10.8666L10.4005 9.14884H15.4816M14.3639 16.8899L13.8041 19.4528H8.63147L9.19128 16.8899H14.3639Z" stroke="white"/>
</svg>
