<svg width="24" height="24" viewBox="0 0 24 24" fill="none" xmlns="http://www.w3.org/2000/svg">
<path d="M20.3126 4.90405C19.8454 5.3599 16.0363 8.73677 16.0363 8.73677H10.7778L11.2629 6.10965H16.7131L16.3987 7.49701L19.7077 4.1603L17.4957 1.00001L17.318 2.39089H12.2631C10.0531 2.39089 6.93272 4.12431 6.93272 8.6348C6.92571 9.39234 7.10464 10.14 7.45378 10.8121C6.96147 10.9984 6.53424 11.3248 6.22461 11.751C5.91499 12.1773 5.73644 12.6848 5.71093 13.2113C5.69399 13.9034 5.87476 14.5859 6.23199 15.1786C5.83961 15.7752 5.56326 16.4407 5.41746 17.14C5.33361 17.5658 5.20185 18.2436 5.06409 18.9693C4.76463 20.5048 5.44141 23 8.65761 23H15.2936C17.1922 23 17.875 21.9084 18.1864 20.4029C18.4979 18.8974 18.6536 18.2736 18.8812 17.152C19.1686 15.7364 18.6835 13.0673 15.2876 13.0673H11.2689C11.2526 12.8164 11.1854 12.5715 11.0713 12.3476H15.3595C17.3779 12.3476 19.6897 11.2379 20.4683 7.99901C20.5535 7.56277 20.6155 7.12229 20.654 6.67945C20.7498 5.88172 20.7198 5.29992 20.3126 4.90405ZM15.0181 16.7081L14.4192 19.3472H8.8852L9.48412 16.7081H15.0181Z" fill="white"/>
</svg>
