<svg width="18" height="19" viewBox="0 0 18 19" fill="none" xmlns="http://www.w3.org/2000/svg">
<path fill-rule="evenodd" clip-rule="evenodd" d="M9.12421 1.31619C4.63949 1.31619 1.125 5.13522 1.125 9.21363C1.125 13.292 4.63949 17.1111 8.93455 17.1111C13.3605 17.1111 16.875 13.5866 16.875 9.06641C16.875 4.988 13.6089 1.31619 9.12421 1.31619ZM0 9.21363C0 4.22891 4.02944 0.187988 9 0.187988C13.9706 0.187988 18 4.22891 18 9.21363C18 14.1984 13.9706 18.2393 9 18.2393C4.02944 18.2393 0 14.1984 0 9.21363Z" fill="#0B3C61"/>
<path fill-rule="evenodd" clip-rule="evenodd" d="M9.21119 5.95153C8.83031 5.88601 8.43859 5.95779 8.10543 6.15416C7.77227 6.35052 7.51915 6.65879 7.39091 7.02437C7.24096 7.45185 6.77385 7.67649 6.34758 7.52611C5.92132 7.37573 5.69732 6.90729 5.84727 6.47981C6.10375 5.74864 6.60998 5.1321 7.27631 4.73937C7.94264 4.34665 8.72607 4.20309 9.48783 4.33413C10.2496 4.46516 10.9405 4.86233 11.4383 5.45529C11.9359 6.04813 12.2083 6.79843 12.2073 7.57335C12.207 8.45144 11.7465 9.12258 11.2705 9.57992C10.7944 10.0374 10.2298 10.3549 9.83117 10.5464C9.79934 10.5617 9.7762 10.5835 9.76338 10.6024C9.75741 10.6112 9.75475 10.6177 9.75366 10.6212C9.75271 10.6241 9.75273 10.6255 9.75273 10.6255V10.8547C9.75273 11.3078 9.38641 11.6752 8.93455 11.6752C8.48268 11.6752 8.11636 11.3078 8.11636 10.8547V10.6255C8.11636 9.91184 8.56518 9.33497 9.12421 9.06641C9.44858 8.91058 9.83968 8.68207 10.1385 8.39498C10.4373 8.10786 10.5709 7.83602 10.5709 7.5726L10.5709 7.57138C10.5715 7.18384 10.4353 6.8086 10.1864 6.51212C9.93754 6.21563 9.59207 6.01705 9.21119 5.95153Z" fill="#0B3C61"/>
<path d="M9.81818 13.3162C9.81818 13.7694 9.45187 14.1367 9 14.1367C8.54813 14.1367 8.18182 13.7694 8.18182 13.3162C8.18182 12.863 8.54813 12.4957 9 12.4957C9.45187 12.4957 9.81818 12.863 9.81818 13.3162Z" fill="#0B3C61"/>
</svg>
