<svg width="13" height="18" viewBox="0 0 13 18" fill="none" xmlns="http://www.w3.org/2000/svg">
<path fill-rule="evenodd" clip-rule="evenodd" d="M5.83792 0.180757C6.07893 -0.0602523 6.46968 -0.0602523 6.71069 0.180757L11.0307 4.50075C11.2717 4.74176 11.2717 5.13252 11.0307 5.37352C10.7897 5.61453 10.3989 5.61453 10.1579 5.37352L6.89146 2.10706V12.3429C6.89146 12.7973 6.61515 12.96 6.27432 12.96C5.93348 12.96 5.65717 12.7973 5.65717 12.3429V2.10705L2.3907 5.37352C2.14969 5.61453 1.75893 5.61453 1.51792 5.37352C1.27691 5.13252 1.27691 4.74176 1.51792 4.50075L5.83792 0.180757ZM1.44 7.30283C0.644711 7.30283 0 7.94754 0 8.74283V16.56C0 17.3553 0.64471 18 1.44 18H11.1086C11.9039 18 12.5486 17.3553 12.5486 16.56V8.74283C12.5486 7.94754 11.9039 7.30283 11.1086 7.30283H9.05142V8.74283H11.1086V16.56H1.44V8.74283H3.49714V7.30283H1.44Z" fill="#0B3C61"/>
</svg>