<svg width="25" height="24" viewBox="0 0 25 24" fill="none" xmlns="http://www.w3.org/2000/svg">
<path fill-rule="evenodd" clip-rule="evenodd" d="M13.7898 6.09549C13.8537 6.2092 13.9158 6.32548 13.9758 6.44435C14.6783 5.40224 15.7273 4.61301 16.9576 4.24182C15.3016 2.26043 12.8118 1 10.0275 1C5.04176 1 1 5.04176 1 10.0275C1 14.6744 4.51092 18.5012 9.0248 19C9.02986 18.5724 9.09386 18.1337 9.21035 17.6925C8.30057 17.1136 7.14756 16.0222 6.40253 14.3304C7.315 14.0873 8.43488 13.9129 9.76892 13.8976V16.2545C10.0465 15.7118 10.3946 15.18 10.8006 14.6759V13.9158C11.0199 13.9261 11.2319 13.9403 11.4367 13.958C11.753 13.6327 12.0938 13.3244 12.4553 13.0385C11.9495 12.9636 11.3984 12.9095 10.8006 12.883V10.2854H13.0888C13.0544 10.0366 13.0367 9.78252 13.0367 9.52428C13.0367 9.43355 13.0389 9.34334 13.0432 9.25368H10.8006V6.63095C11.9552 6.54722 12.9517 6.34918 13.7898 6.09549ZM9.76892 6.67339V9.25368H5.72615C5.87 8.18524 6.18911 7.24156 6.60612 6.4214C7.45312 6.57725 8.44112 6.67441 9.5792 6.67441C9.64284 6.67441 9.70609 6.67406 9.76892 6.67339ZM10.8006 5.59649C11.7235 5.5251 12.5248 5.37652 13.2074 5.18993C12.4433 4.14348 11.5494 3.38307 10.8006 2.90432V5.59649ZM9.76892 2.90478V5.64161C9.70616 5.64233 9.64292 5.64269 9.5792 5.64269C8.66681 5.64269 7.86475 5.57687 7.16654 5.4697C7.97008 4.27835 8.95509 3.42525 9.76892 2.90478ZM9.76892 10.2854H5.64516C5.64329 10.3635 5.64234 10.4421 5.64234 10.5213C5.64234 11.5876 5.79387 12.5311 6.04396 13.3589C7.06847 13.0775 8.31022 12.8817 9.76892 12.8658V10.2854ZM4.61062 10.5213C4.61062 10.4422 4.61147 10.3635 4.61315 10.2854H2.0358C2.08525 11.8463 2.58208 13.2943 3.4023 14.5055C3.821 14.227 4.37402 13.9355 5.06121 13.6768C4.7799 12.7519 4.61062 11.7023 4.61062 10.5213ZM5.5706 6.18525C5.14336 7.08199 4.8235 8.10429 4.6855 9.25368H2.06868C2.20492 7.83504 2.71186 6.52469 3.49147 5.42063C3.80042 5.58147 4.22151 5.73299 4.84503 5.95637C5.06964 6.03684 5.31135 6.11372 5.5706 6.18525ZM4.03679 15.3233C4.3746 15.1061 4.83261 14.8664 5.41398 14.6464C5.94761 15.8968 6.68573 16.872 7.43538 17.5938C6.11155 17.1404 4.94442 16.3493 4.03679 15.3233ZM11.5754 2.18143C13.0826 2.47706 14.438 3.19615 15.5126 4.20969C15.1946 4.41518 14.7686 4.64122 14.232 4.85184C13.4166 3.65795 12.4358 2.76977 11.5754 2.18143ZM9.14704 2.07964C8.15988 2.72531 6.98517 3.7797 6.0785 5.25215C5.75231 5.17032 5.45751 5.07987 5.19299 4.9851C4.79207 4.84147 4.4656 4.6898 4.2064 4.54594C5.47542 3.19882 7.20685 2.29216 9.14704 2.07964Z" fill="white"/>
<path d="M13.9758 6.44435L13.8642 6.50068L13.9603 6.69099L14.0795 6.51422L13.9758 6.44435ZM13.7898 6.09549L13.8988 6.03426L13.8497 5.94678L13.7536 5.97585L13.7898 6.09549ZM16.9576 4.24182L16.9937 4.36149L17.1748 4.30684L17.0535 4.16166L16.9576 4.24182ZM9.0248 19L9.01107 19.1242L9.14815 19.1394L9.14979 19.0015L9.0248 19ZM9.21035 17.6925L9.33121 17.7244L9.35453 17.636L9.27745 17.587L9.21035 17.6925ZM6.40253 14.3304L6.37036 14.2096L6.2293 14.2471L6.28813 14.3807L6.40253 14.3304ZM9.76892 13.8976H9.89392V13.7712L9.76749 13.7726L9.76892 13.8976ZM9.76892 16.2545H9.64392L9.88021 16.3114L9.76892 16.2545ZM10.8006 14.6759L10.898 14.7543L10.9256 14.7199V14.6759H10.8006ZM10.8006 13.9158L10.8065 13.791L10.6756 13.7848V13.9158H10.8006ZM11.4367 13.958L11.4259 14.0826L11.4849 14.0877L11.5263 14.0452L11.4367 13.958ZM12.4553 13.0385L12.5328 13.1365L12.7596 12.9572L12.4736 12.9148L12.4553 13.0385ZM10.8006 12.883H10.6756V13.0026L10.7951 13.0079L10.8006 12.883ZM10.8006 10.2854V10.1604H10.6756V10.2854H10.8006ZM13.0888 10.2854V10.4104H13.2322L13.2126 10.2683L13.0888 10.2854ZM13.0432 9.25368L13.1681 9.25971L13.1744 9.12868H13.0432V9.25368ZM10.8006 9.25368H10.6756V9.37868H10.8006V9.25368ZM10.8006 6.63095L10.7916 6.50628L10.6756 6.51468V6.63095H10.8006ZM9.76892 9.25368V9.37868H9.89392V9.25368H9.76892ZM9.76892 6.67339H9.89392V6.54704L9.76758 6.5484L9.76892 6.67339ZM5.72615 9.25368L5.60227 9.237L5.5832 9.37868H5.72615V9.25368ZM6.60612 6.4214L6.62874 6.29846L6.53698 6.28158L6.49469 6.36475L6.60612 6.4214ZM13.2074 5.18993L13.2403 5.3105L13.4153 5.26268L13.3083 5.11622L13.2074 5.18993ZM10.8006 5.59649H10.6756V5.73153L10.8103 5.72112L10.8006 5.59649ZM10.8006 2.90432L10.868 2.799L10.6756 2.67603V2.90432H10.8006ZM9.76892 5.64161L9.77035 5.76661L9.89392 5.7652V5.64161H9.76892ZM9.76892 2.90478H9.89392V2.67646L9.70158 2.79947L9.76892 2.90478ZM7.16654 5.4697L7.0629 5.3998L6.95261 5.56333L7.14757 5.59325L7.16654 5.4697ZM5.64516 10.2854V10.1604H5.52312L5.5202 10.2824L5.64516 10.2854ZM9.76892 10.2854H9.89392V10.1604H9.76892V10.2854ZM6.04396 13.3589L5.9243 13.395L5.95955 13.5117L6.07707 13.4794L6.04396 13.3589ZM9.76892 12.8658L9.77028 12.9908L9.89392 12.9895V12.8658H9.76892ZM4.61315 10.2854L4.73812 10.2881L4.74086 10.1604H4.61315V10.2854ZM2.0358 10.2854V10.1604H1.90677L1.91086 10.2894L2.0358 10.2854ZM3.4023 14.5055L3.2988 14.5756L3.36831 14.6782L3.47152 14.6096L3.4023 14.5055ZM5.06121 13.6768L5.10526 13.7938L5.2149 13.7525L5.1808 13.6404L5.06121 13.6768ZM4.6855 9.25368V9.37868H4.79639L4.80961 9.26858L4.6855 9.25368ZM5.5706 6.18525L5.68345 6.23901L5.74758 6.10441L5.60385 6.06475L5.5706 6.18525ZM2.06868 9.25368L1.94426 9.24173L1.9311 9.37868H2.06868V9.25368ZM3.49147 5.42063L3.54919 5.30975L3.45234 5.25933L3.38936 5.34853L3.49147 5.42063ZM4.84503 5.95637L4.88719 5.83869L4.84503 5.95637ZM5.41398 14.6464L5.52895 14.5974L5.48189 14.4871L5.36976 14.5295L5.41398 14.6464ZM4.03679 15.3233L3.96918 15.2182L3.84661 15.297L3.94316 15.4061L4.03679 15.3233ZM7.43538 17.5938L7.39488 17.7121L7.52208 17.5038L7.43538 17.5938ZM15.5126 4.20969L15.5804 4.31468L15.7144 4.22815L15.5984 4.11876L15.5126 4.20969ZM11.5754 2.18143L11.5995 2.05877L11.5048 2.28461L11.5754 2.18143ZM14.232 4.85184L14.1288 4.92234L14.185 5.00458L14.2777 4.96819L14.232 4.85184ZM6.0785 5.25215L6.04808 5.3734L6.13692 5.39568L6.18494 5.31769L6.0785 5.25215ZM9.14704 2.07964L9.21546 2.18425L9.13343 1.95539L9.14704 2.07964ZM5.19299 4.9851L5.15083 5.10278H5.15083L5.19299 4.9851ZM4.2064 4.54594L4.11541 4.46023L4.0052 4.57723L4.14574 4.65523L4.2064 4.54594ZM14.0874 6.38802C14.0265 6.26748 13.9636 6.14956 13.8988 6.03426L13.6809 6.15672C13.7439 6.26884 13.8051 6.38349 13.8642 6.50068L14.0874 6.38802ZM16.9215 4.12215C15.6631 4.50182 14.5905 5.30895 13.8722 6.37448L14.0795 6.51422C14.7662 5.49553 15.7915 4.7242 16.9937 4.36149L16.9215 4.12215ZM10.0275 1.125C12.7732 1.125 15.2284 2.36779 16.8617 4.32198L17.0535 4.16166C15.3748 2.15307 12.8504 0.875 10.0275 0.875V1.125ZM1.125 10.0275C1.125 5.1108 5.1108 1.125 10.0275 1.125V0.875C4.97273 0.875 0.875 4.97273 0.875 10.0275H1.125ZM9.03853 18.8757C4.58729 18.3839 1.125 14.6099 1.125 10.0275H0.875C0.875 14.7388 4.43456 18.6185 9.01107 19.1242L9.03853 18.8757ZM9.14979 19.0015C9.15472 18.5853 9.21703 18.1568 9.33121 17.7244L9.08949 17.6606C8.97068 18.1105 8.90501 18.5595 8.8998 18.9985L9.14979 19.0015ZM9.27745 17.587C8.3859 17.0197 7.2508 15.9465 6.51693 14.28L6.28813 14.3807C7.04432 16.0979 8.21523 17.2074 9.14325 17.7979L9.27745 17.587ZM6.43471 14.4511C7.33692 14.2108 8.44647 14.0378 9.77036 14.0226L9.76749 13.7726C8.4233 13.7881 7.29309 13.9638 6.37036 14.2096L6.43471 14.4511ZM9.64392 13.8976V16.2545H9.89392V13.8976H9.64392ZM9.88021 16.3114C10.1537 15.7768 10.4969 15.2522 10.898 14.7543L10.7033 14.5974C10.2922 15.1077 9.93942 15.6467 9.65764 16.1976L9.88021 16.3114ZM10.6756 13.9158V14.6759H10.9256V13.9158H10.6756ZM11.4474 13.8335C11.241 13.8156 11.0274 13.8013 10.8065 13.791L10.7948 14.0407C11.0125 14.0509 11.2228 14.065 11.4259 14.0826L11.4474 13.8335ZM11.5263 14.0452C11.8388 13.7237 12.1757 13.419 12.5328 13.1365L12.3777 12.9404C12.012 13.2297 11.6671 13.5417 11.347 13.8709L11.5263 14.0452ZM10.7951 13.0079C11.3888 13.0342 11.9355 13.0879 12.437 13.1621L12.4736 12.9148C11.9634 12.8393 11.4081 12.7848 10.8062 12.7582L10.7951 13.0079ZM10.6756 10.2854V12.883H10.9256V10.2854H10.6756ZM13.0888 10.1604H10.8006V10.4104H13.0888V10.1604ZM12.9117 9.52428C12.9117 9.78825 12.9298 10.048 12.9649 10.3025L13.2126 10.2683C13.179 10.0252 13.1617 9.77678 13.1617 9.52428H12.9117ZM12.9184 9.24765C12.9139 9.33931 12.9117 9.43154 12.9117 9.52428H13.1617C13.1617 9.43556 13.1638 9.34736 13.1681 9.25971L12.9184 9.24765ZM10.8006 9.37868H13.0432V9.12868H10.8006V9.37868ZM10.6756 6.63095V9.25368H10.9256V6.63095H10.6756ZM13.7536 5.97585C12.9245 6.22681 11.9371 6.4232 10.7916 6.50628L10.8097 6.75562C11.9733 6.67124 12.9788 6.47155 13.8261 6.21513L13.7536 5.97585ZM9.89392 9.25368V6.67339H9.64392V9.25368H9.89392ZM5.72615 9.37868H9.76892V9.12868H5.72615V9.37868ZM6.49469 6.36475C6.07173 7.19661 5.74811 8.15375 5.60227 9.237L5.85004 9.27036C5.99189 8.21674 6.30648 7.2865 6.71754 6.47805L6.49469 6.36475ZM9.5792 6.54941C8.44823 6.54941 7.46782 6.45286 6.62874 6.29846L6.5835 6.54434C7.43841 6.70164 8.43401 6.79941 9.5792 6.79941V6.54941ZM9.76758 6.5484C9.70519 6.54907 9.6424 6.54941 9.5792 6.54941V6.79941C9.64329 6.79941 9.70698 6.79906 9.77027 6.79838L9.76758 6.5484ZM13.1744 5.06935C12.4996 5.25383 11.7061 5.40108 10.791 5.47186L10.8103 5.72112C11.741 5.64913 12.55 5.49921 13.2403 5.3105L13.1744 5.06935ZM10.7333 3.00963C11.4704 3.48088 12.3524 4.23095 13.1064 5.26364L13.3083 5.11622C12.5342 4.05602 11.6285 3.28525 10.868 2.799L10.7333 3.00963ZM10.9256 5.59649V2.90432H10.6756V5.59649H10.9256ZM9.89392 5.64161V2.90478H9.64392V5.64161H9.89392ZM9.5792 5.76769C9.64339 5.76769 9.7071 5.76732 9.77035 5.76661L9.7675 5.51662C9.70521 5.51733 9.64244 5.51769 9.5792 5.51769V5.76769ZM7.14757 5.59325C7.85238 5.70143 8.6608 5.76769 9.5792 5.76769V5.51769C8.67282 5.51769 7.87711 5.4523 7.1855 5.34615L7.14757 5.59325ZM9.70158 2.79947C8.87512 3.32801 7.8771 4.19266 7.0629 5.3998L7.27017 5.5396C8.06305 4.36405 9.03506 3.52248 9.83627 3.01009L9.70158 2.79947ZM5.64516 10.4104H9.76892V10.1604H5.64516V10.4104ZM5.76734 10.5213C5.76734 10.4431 5.76827 10.3655 5.77012 10.2884L5.5202 10.2824C5.5183 10.3615 5.51734 10.4411 5.51734 10.5213H5.76734ZM6.16362 13.3227C5.91714 12.5069 5.76734 11.5756 5.76734 10.5213H5.51734C5.51734 11.5996 5.6706 12.5553 5.9243 13.395L6.16362 13.3227ZM9.76757 12.7408C8.29841 12.7568 7.04598 12.954 6.01085 13.2383L6.07707 13.4794C7.09097 13.2009 8.32203 13.0065 9.77028 12.9908L9.76757 12.7408ZM9.64392 10.2854V12.8658H9.89392V10.2854H9.64392ZM4.48818 10.2827C4.48648 10.3617 4.48562 10.4413 4.48562 10.5213H4.73562C4.73562 10.4431 4.73646 10.3653 4.73812 10.2881L4.48818 10.2827ZM2.0358 10.4104H4.61315V10.1604H2.0358V10.4104ZM3.5058 14.4354C2.69843 13.2432 2.20942 11.818 2.16073 10.2814L1.91086 10.2894C1.96109 11.8746 2.46573 13.3454 3.2988 14.5756L3.5058 14.4354ZM5.01717 13.5598C4.32188 13.8216 3.76031 14.1173 3.33307 14.4014L3.47152 14.6096C3.8817 14.3368 4.42616 14.0495 5.10526 13.7938L5.01717 13.5598ZM4.48562 10.5213C4.48562 11.7144 4.65666 12.7763 4.94162 13.7132L5.1808 13.6404C4.90314 12.7276 4.73562 11.6902 4.73562 10.5213H4.48562ZM4.80961 9.26858C4.9459 8.1334 5.26173 7.12418 5.68345 6.23901L5.45775 6.13149C5.025 7.0398 4.7011 8.07518 4.56139 9.23878L4.80961 9.26858ZM2.06868 9.37868H4.6855V9.12868H2.06868V9.37868ZM3.38936 5.34853C2.59756 6.46984 2.08263 7.80082 1.94426 9.24173L2.19311 9.26563C2.32721 7.86927 2.82615 6.57954 3.59358 5.49273L3.38936 5.34853ZM4.88719 5.83869C4.26023 5.61408 3.84879 5.46572 3.54919 5.30975L3.43375 5.5315C3.75206 5.69722 4.18279 5.8519 4.80287 6.07405L4.88719 5.83869ZM5.60385 6.06475C5.34753 5.99403 5.10879 5.91809 4.88719 5.83869L4.80287 6.07405C5.03048 6.15559 5.27518 6.23341 5.53735 6.30575L5.60385 6.06475ZM5.36976 14.5295C4.78073 14.7524 4.31481 14.9959 3.96918 15.2182L4.1044 15.4285C4.43438 15.2163 4.88449 14.9804 5.45821 14.7634L5.36976 14.5295ZM7.52208 17.5038C6.78334 16.7925 6.05539 15.8309 5.52895 14.5974L5.29902 14.6955C5.83982 15.9627 6.58811 16.9516 7.34868 17.6838L7.52208 17.5038ZM3.94316 15.4061C4.86486 16.448 6.05017 17.2515 7.39488 17.7121L7.47588 17.4755C6.17292 17.0293 5.02398 16.2506 4.13041 15.2405L3.94316 15.4061ZM15.5984 4.11876C14.5071 3.08949 13.1304 2.35907 11.5995 2.05877L11.5513 2.30409C13.0347 2.59506 14.3689 3.30281 15.4268 4.30063L15.5984 4.11876ZM14.2777 4.96819C14.8215 4.75474 15.255 4.52498 15.5804 4.31468L15.4448 4.1047C15.1342 4.30538 14.7157 4.5277 14.1863 4.73548L14.2777 4.96819ZM11.5048 2.28461C12.354 2.86529 13.3231 3.74281 14.1288 4.92234L14.3352 4.78133C13.51 3.5731 12.5175 2.67425 11.646 2.07825L11.5048 2.28461ZM6.18494 5.31769C7.08062 3.86309 8.24139 2.82136 9.21546 2.18425L9.07862 1.97503C8.07837 2.62926 6.88972 3.69631 5.97206 5.18661L6.18494 5.31769ZM5.15083 5.10278C5.41933 5.19897 5.71805 5.2906 6.04808 5.3734L6.10892 5.13091C5.78656 5.05004 5.49569 4.96077 5.23515 4.86743L5.15083 5.10278ZM4.14574 4.65523C4.41123 4.80259 4.74393 4.957 5.15083 5.10278L5.23515 4.86743C4.84021 4.72593 4.51996 4.57702 4.26706 4.43665L4.14574 4.65523ZM9.13343 1.95539C7.16266 2.17126 5.4041 3.09223 4.11541 4.46023L4.29739 4.63165C5.54674 3.3054 7.25105 2.41307 9.16065 2.2039L9.13343 1.95539Z" fill="white"/>
<path fill-rule="evenodd" clip-rule="evenodd" d="M18.1746 5.69189C17.2388 5.69442 16.3417 6.06579 15.6779 6.72544C15.0142 7.3851 14.6373 8.27984 14.6289 9.2156C14.6265 9.91504 14.8316 10.5995 15.2182 11.1823C15.6049 11.7652 16.1557 12.2203 16.801 12.4901C17.4463 12.7598 18.1571 12.8322 18.8436 12.6979C19.53 12.5636 20.1612 12.2288 20.6573 11.7358C21.1534 11.2427 21.4921 10.6136 21.6307 9.92806C21.7692 9.24247 21.7013 8.53121 21.4355 7.88423C21.1697 7.23726 20.7181 6.68363 20.1376 6.29339C19.5572 5.90315 18.874 5.69383 18.1746 5.69189ZM16.0365 9.22429C16.0358 9.64396 16.1592 10.0545 16.3912 10.4043C16.6239 10.7551 16.9555 11.0291 17.3439 11.1914C17.7323 11.3538 18.1602 11.3974 18.5734 11.3165C18.9865 11.2357 19.3665 11.0342 19.6651 10.7374C19.9637 10.4406 20.1676 10.062 20.251 9.64929C20.3344 9.23662 20.2935 8.80849 20.1335 8.41906C19.9735 8.02963 19.7017 7.69639 19.3523 7.46149C19.004 7.22731 18.5942 7.10136 18.1745 7.09945C17.6106 7.10198 17.0702 7.32621 16.6701 7.72381C16.2701 8.12141 16.0425 8.66038 16.0365 9.22429Z" fill="white"/>
<path fill-rule="evenodd" clip-rule="evenodd" d="M12.0983 16.0984C12.8016 15.3951 13.7554 15 14.75 15H20.75C21.7446 15 22.6984 15.3951 23.4017 16.0984C24.1049 16.8016 24.5 17.7554 24.5 18.75V20.25C24.5 20.6642 24.1642 21 23.75 21C23.3358 21 23 20.6642 23 20.25V18.75C23 18.1533 22.7629 17.581 22.341 17.159C21.919 16.7371 21.3467 16.5 20.75 16.5H14.75C14.1533 16.5 13.581 16.7371 13.159 17.159C12.7371 17.581 12.5 18.1533 12.5 18.75V20.25C12.5 20.6642 12.1642 21 11.75 21C11.3358 21 11 20.6642 11 20.25V18.75C11 17.7554 11.3951 16.8016 12.0983 16.0984Z" fill="white"/>
</svg>
