<svg width="24" height="24" viewBox="0 0 24 24" fill="none" xmlns="http://www.w3.org/2000/svg">
<path fill-rule="evenodd" clip-rule="evenodd" d="M1 12C1 5.92487 5.92487 1 12 1C18.0751 1 23 5.92487 23 12C23 18.0751 18.0751 23 12 23C5.92487 23 1 18.0751 1 12Z" fill="#0B3C61"/>
<path fill-rule="evenodd" clip-rule="evenodd" d="M12 11C12.5523 11 13 11.4477 13 12V16C13 16.5523 12.5523 17 12 17C11.4477 17 11 16.5523 11 16V12C11 11.4477 11.4477 11 12 11Z" fill="#0B3C61"/>
<path d="M13 8C13 8.55228 12.5523 9 12 9C11.4477 9 11 8.55228 11 8C11 7.44771 12 7 12 7C12 7 13 7.44771 13 8Z" fill="#0B3C61"/>
<path fill-rule="evenodd" clip-rule="evenodd" d="M11.667 11C12.2193 11 12.667 11.4477 12.667 12V16C12.667 16.5523 12.2193 17 11.667 17C11.1147 17 10.667 16.5523 10.667 16V12C10.667 11.4477 11.1147 11 11.667 11Z" fill="#F2F2F2"/>
<path d="M12.667 8C12.667 8.55228 12.2193 9 11.667 9C11.1147 9 10.667 8.55228 10.667 8C10.667 7.44772 11.1147 7 11.667 7C12.2193 7 12.667 7.44772 12.667 8Z" fill="#F2F2F2"/>
</svg>
