<?xml version="1.0" standalone="no"?>
<!DOCTYPE svg PUBLIC "-//W3C//DTD SVG 1.1//EN" "http://www.w3.org/Graphics/SVG/1.1/DTD/svg11.dtd">

<svg width="18" height="18" viewBox="0 0 18 18" fill="none" xmlns="http://www.w3.org/2000/svg">
<path fill-rule="evenodd" clip-rule="evenodd" d="M9 0.75C9.41421 0.75 9.75 1.08579 9.75 1.5V4.5C9.75 4.91421 9.41421 5.25 9 5.25C8.58579 5.25 8.25 4.91421 8.25 4.5V1.5C8.25 1.08579 8.58579 0.75 9 0.75Z" fill="black"/>
<path fill-rule="evenodd" clip-rule="evenodd" d="M9 12.75C9.41421 12.75 9.75 13.0858 9.75 13.5V16.5C9.75 16.9142 9.41421 17.25 9 17.25C8.58579 17.25 8.25 16.9142 8.25 16.5V13.5C8.25 13.0858 8.58579 12.75 9 12.75Z" fill="black"/>
<path fill-rule="evenodd" clip-rule="evenodd" d="M3.16694 3.16718C3.45983 2.87429 3.9347 2.87429 4.2276 3.16718L6.3501 5.28968C6.64299 5.58257 6.64299 6.05745 6.3501 6.35034C6.0572 6.64323 5.58233 6.64323 5.28944 6.35034L3.16694 4.22784C2.87404 3.93495 2.87404 3.46007 3.16694 3.16718Z" fill="black"/>
<path fill-rule="evenodd" clip-rule="evenodd" d="M11.6494 11.6497C11.9423 11.3568 12.4171 11.3568 12.71 11.6497L14.8325 13.7722C15.1254 14.0651 15.1254 14.5399 14.8325 14.8328C14.5396 15.1257 14.0648 15.1257 13.7719 14.8328L11.6494 12.7103C11.3565 12.4174 11.3565 11.9426 11.6494 11.6497Z" fill="black"/>
<path fill-rule="evenodd" clip-rule="evenodd" d="M0.75 9C0.75 8.58579 1.08579 8.25 1.5 8.25H4.5C4.91421 8.25 5.25 8.58579 5.25 9C5.25 9.41421 4.91421 9.75 4.5 9.75H1.5C1.08579 9.75 0.75 9.41421 0.75 9Z" fill="black"/>
<path fill-rule="evenodd" clip-rule="evenodd" d="M12.75 9C12.75 8.58579 13.0858 8.25 13.5 8.25H16.5C16.9142 8.25 17.25 8.58579 17.25 9C17.25 9.41421 16.9142 9.75 16.5 9.75H13.5C13.0858 9.75 12.75 9.41421 12.75 9Z" fill="black"/>
<path fill-rule="evenodd" clip-rule="evenodd" d="M6.3501 11.6497C6.64299 11.9426 6.64299 12.4174 6.3501 12.7103L4.2276 14.8328C3.9347 15.1257 3.45983 15.1257 3.16694 14.8328C2.87404 14.5399 2.87404 14.0651 3.16694 13.7722L5.28944 11.6497C5.58233 11.3568 6.0572 11.3568 6.3501 11.6497Z" fill="black"/>
<path fill-rule="evenodd" clip-rule="evenodd" d="M14.8325 3.16718C15.1254 3.46007 15.1254 3.93495 14.8325 4.22784L12.71 6.35034C12.4171 6.64323 11.9423 6.64323 11.6494 6.35034C11.3565 6.05745 11.3565 5.58257 11.6494 5.28968L13.7719 3.16718C14.0647 2.87429 14.5396 2.87429 14.8325 3.16718Z" fill="black"/>
</svg>
