<svg width="18" height="18" viewBox="0 0 18 18" fill="none" xmlns="http://www.w3.org/2000/svg">
<path d="M8.30713 11.4287C8.30713 10.8442 8.37964 10.3784 8.52466 10.0312C8.66968 9.68408 8.95532 9.30396 9.38159 8.89087C9.81226 8.47339 10.0847 8.17676 10.199 8.00098C10.3748 7.73291 10.4626 7.44287 10.4626 7.13086C10.4626 6.71777 10.3594 6.40356 10.1528 6.18823C9.95068 5.96851 9.65186 5.85864 9.25635 5.85864C8.87842 5.85864 8.573 5.96631 8.34009 6.18164C8.11157 6.39258 7.99731 6.68042 7.99731 7.04517H6.39551C6.4043 6.26733 6.66797 5.6521 7.18652 5.19946C7.70947 4.74683 8.39941 4.52051 9.25635 4.52051C10.1396 4.52051 10.8274 4.74463 11.3196 5.19287C11.8162 5.64111 12.0645 6.26733 12.0645 7.07153C12.0645 7.78784 11.7305 8.49316 11.0625 9.1875L10.2517 9.98511C9.96167 10.3147 9.81226 10.7959 9.80347 11.4287H8.30713ZM8.19507 13.4788C8.19507 13.2195 8.27637 13.0107 8.43896 12.8525C8.60156 12.6899 8.82129 12.6086 9.09814 12.6086C9.37939 12.6086 9.60132 12.6921 9.76392 12.8591C9.92651 13.0217 10.0078 13.2283 10.0078 13.4788C10.0078 13.7205 9.92871 13.9226 9.77051 14.0852C9.6123 14.2478 9.38818 14.3291 9.09814 14.3291C8.80811 14.3291 8.58398 14.2478 8.42578 14.0852C8.27197 13.9226 8.19507 13.7205 8.19507 13.4788Z" fill="#00518A"/>
<circle cx="9" cy="9" r="8.25" stroke="#00518A" stroke-width="1.5"/>
</svg>
