<svg width="14" height="15" viewBox="0 0 14 15" fill="none" xmlns="http://www.w3.org/2000/svg">
<path fill-rule="evenodd" clip-rule="evenodd" d="M3.13734 6.39893C3.15089 5.48506 3.22892 4.37695 3.61769 3.46258C3.83399 2.95387 4.13408 2.53716 4.54716 2.24495C4.95553 1.95608 5.52897 1.75 6.36237 1.75C7.30726 1.75 7.94167 1.96351 8.37854 2.25593C8.81508 2.54812 9.11421 2.95914 9.32051 3.45649C9.69829 4.36719 9.73057 5.46313 9.73278 6.39893H3.13734ZM1.63688 6.39893C1.64918 5.43574 1.73013 4.06844 2.23729 2.87565C2.53337 2.1793 2.98667 1.51145 3.68091 1.02036C4.37986 0.525946 5.26768 0.25 6.36237 0.25C7.5384 0.25 8.47951 0.518512 9.21289 1.00939C9.9466 1.50049 10.4125 2.17403 10.706 2.88175C11.2019 4.07719 11.2335 5.45576 11.2335 6.39893H12.1111C12.6634 6.39893 13.1111 6.84664 13.1111 7.39893V13.8826C13.1111 14.4349 12.6634 14.8826 12.1111 14.8826H1C0.447715 14.8826 0 14.4349 0 13.8826V7.39893C0 6.84664 0.447715 6.39893 1 6.39893H1.63688ZM1.5 13.3826V7.89893H11.6111V13.3826H1.5Z" fill="#0B3C61"/>
</svg>
