<svg width="24" height="24" viewBox="0 0 24 24" fill="none" xmlns="http://www.w3.org/2000/svg">
<path fill-rule="evenodd" clip-rule="evenodd" d="M20.7652 8.92776V22.3291C20.7652 22.6967 20.3818 22.9386 20.0499 22.7803L15.3981 20.5615C15.2241 20.4785 15.1133 20.3029 15.1133 20.1102V10.2622L14.1828 9.12183C14.1595 9.09787 14.1363 9.07369 14.1133 9.04929V20.1102C14.1133 20.3029 14.0026 20.4785 13.8286 20.5615L9.17672 22.7803C8.84489 22.9386 8.46146 22.6967 8.46146 22.3291V8.15174C8.46146 7.959 8.57224 7.78342 8.7462 7.70045L12.4959 5.91187C12.4295 5.5713 12.3947 5.22902 12.3947 4.89149C12.3947 4.87837 12.3947 4.86526 12.3948 4.85216L8.31568 6.79787C8.19665 6.85464 8.08748 6.92587 7.98986 7.00886C7.90498 6.92889 7.81008 6.85818 7.70635 6.79881L4.16312 4.77071C3.16313 4.19832 1.91797 4.92032 1.91797 6.07253V20.1613C1.91797 20.6992 2.20599 21.1959 2.67282 21.4631L6.21604 23.4912C6.78364 23.8161 7.43023 23.7239 7.88327 23.3728C8.30813 23.8089 8.98767 23.9785 9.60724 23.6829L14.2591 21.464C14.3898 21.4017 14.5086 21.3219 14.6133 21.2283C14.718 21.3219 14.8368 21.4017 14.9675 21.464L19.6194 23.6829C20.6149 24.1578 21.7652 23.432 21.7652 22.3291V8.15174C21.7652 7.96614 21.731 7.78585 21.6672 7.61835C21.4206 8.09068 21.1162 8.53436 20.7652 8.92776ZM2.91797 6.07253C2.91797 5.68846 3.33302 5.4478 3.66635 5.63859L7.20958 7.66669C7.36519 7.75576 7.4612 7.92133 7.4612 8.10063V22.1894C7.4612 22.5734 7.04614 22.8141 6.71281 22.6233L3.16959 20.5952C3.01398 20.5061 2.91797 20.3406 2.91797 20.1613V6.07253Z" fill="#0B3C61"/>
<path fill-rule="evenodd" clip-rule="evenodd" d="M19.8306 8.39805L19.7978 8.43156L17.3829 11.3913L14.9632 8.42563L14.931 8.39264C14.0106 7.44818 13.4394 6.10212 13.4394 4.89152C13.4394 2.78638 15.1857 1.04485 17.3834 1.04485C19.5812 1.04485 21.3275 2.78638 21.3275 4.89152C21.3275 6.10458 20.7539 7.45348 19.8306 8.39805ZM14.1827 9.12186L17.3829 13.044L20.5777 9.12842C21.6745 8.00647 22.3723 6.40154 22.3723 4.89152C22.3723 2.19001 20.1387 0 17.3834 0C14.6281 0 12.3945 2.19001 12.3945 4.89152C12.3945 6.3986 13.0897 8.00021 14.1827 9.12186ZM18.0012 4.89158C18.0012 5.19571 17.744 5.47724 17.3831 5.47724C17.0222 5.47724 16.7649 5.19571 16.7649 4.89158C16.7649 4.58746 17.0222 4.30593 17.3831 4.30593C17.744 4.30593 18.0012 4.58746 18.0012 4.89158ZM19.046 4.89158C19.046 5.79208 18.3015 6.52209 17.3831 6.52209C16.4646 6.52209 15.7201 5.79208 15.7201 4.89158C15.7201 3.99108 16.4646 3.26108 17.3831 3.26108C18.3015 3.26108 19.046 3.99108 19.046 4.89158Z" fill="#0B3C61"/>
</svg>
