<svg width="24" height="25" viewBox="0 0 24 25" fill="none" xmlns="http://www.w3.org/2000/svg">
<path fill-rule="evenodd" clip-rule="evenodd" d="M20.167 8.75592L20.1336 8.79011L17.6698 11.8097L15.2011 8.78406L15.1936 8.7764V8.7159H15.135C14.2279 7.76718 13.6619 6.43527 13.6468 5.22778C14.2446 5.10476 14.8447 5.55843 14.8447 6.20883V8.14344C14.8447 7.5418 15.3721 7.07638 15.9691 7.1512L20.7555 7.75116C20.8109 7.7581 20.8647 7.76948 20.9167 7.78492C20.7035 8.1361 20.4515 8.46483 20.167 8.75592ZM21.6268 8.64941C21.4178 8.95421 21.1841 9.24042 20.9293 9.50107L17.6698 13.4959L15.1936 10.4611L15.1936 21.4769C15.2595 21.5334 15.3335 21.5819 15.4142 21.6204L20.2006 23.9035C20.8643 24.22 21.6312 23.7362 21.6312 23.0009V8.7434C21.6312 8.71173 21.6297 8.68038 21.6268 8.64941ZM14.3408 9.42768L14.3408 21.5861C14.3195 21.5983 14.2976 21.6098 14.2752 21.6205L9.48873 23.9036C9.091 24.0933 8.6562 23.9955 8.37161 23.7284L8.37161 7.76485C8.44612 7.69447 8.53214 7.63493 8.62769 7.58935L12.6061 5.69168C12.7395 7.04179 13.3843 8.4158 14.3408 9.42768ZM7.51881 23.7487C7.23425 23.8969 6.87901 23.9112 6.56097 23.7292L2.90558 21.6369C2.59436 21.4587 2.40234 21.1276 2.40234 20.769V6.34853C2.40234 5.58038 3.23245 5.09905 3.89911 5.48064L7.51882 7.55252L7.51881 23.7487Z" fill="#0B3C61"/>
<path fill-rule="evenodd" clip-rule="evenodd" d="M20.1666 8.75591L20.1332 8.79011L17.6694 11.8097L15.2007 8.78405L15.1679 8.7504C14.2289 7.78683 13.6461 6.41352 13.6461 5.17843C13.6461 3.0307 15.4277 1.25392 17.6699 1.25392C19.9122 1.25392 21.6938 3.0307 21.6938 5.17843C21.6938 6.41604 21.1086 7.79223 20.1666 8.75591ZM18.3007 5.17851C18.3007 5.48879 18.0383 5.77601 17.6701 5.77601C17.3019 5.77601 17.0394 5.48879 17.0394 5.17851C17.0394 4.86823 17.3019 4.581 17.6701 4.581C18.0383 4.581 18.3007 4.86823 18.3007 5.17851ZM19.3667 5.17851C19.3667 6.09723 18.6071 6.84201 17.6701 6.84201C16.733 6.84201 15.9734 6.09723 15.9734 5.17851C15.9734 4.25978 16.733 3.51501 17.6701 3.51501C18.6071 3.51501 19.3667 4.25978 19.3667 5.17851Z" fill="#0B3C61"/>
</svg>
