<svg width="24" height="25" viewBox="0 0 24 25" fill="none" xmlns="http://www.w3.org/2000/svg">
<path fill-rule="evenodd" clip-rule="evenodd" d="M10 12.7612C10 11.6567 10.8954 10.7612 12 10.7612C13.1046 10.7612 14 11.6567 14 12.7612C14 13.8658 13.1046 14.7612 12 14.7612C10.8954 14.7612 10 13.8658 10 12.7612Z" fill="black"/>
<path fill-rule="evenodd" clip-rule="evenodd" d="M17 12.7612C17 11.6567 17.8954 10.7612 19 10.7612C20.1046 10.7612 21 11.6567 21 12.7612C21 13.8658 20.1046 14.7612 19 14.7612C17.8954 14.7612 17 13.8658 17 12.7612Z" fill="black"/>
<path fill-rule="evenodd" clip-rule="evenodd" d="M3 12.7612C3 11.6567 3.89543 10.7612 5 10.7612C6.10457 10.7612 7 11.6567 7 12.7612C7 13.8658 6.10457 14.7612 5 14.7612C3.89543 14.7612 3 13.8658 3 12.7612Z" fill="black"/>
</svg>
