<svg width="202" height="203" viewBox="0 0 202 203" fill="none" xmlns="http://www.w3.org/2000/svg">
<g opacity="0.25">
<path d="M149.329 183.401H33.8857C30.2514 183.387 26.7706 181.934 24.2055 179.36C21.6404 176.785 20.2002 173.299 20.2002 169.665V53.5146C20.1986 50.1678 21.4189 46.9356 23.632 44.4249C25.8451 41.9143 28.8986 40.298 32.2192 39.8796C32.6255 36.8937 34.0024 34.1242 36.1378 31.9979C38.2732 29.8717 41.0485 28.5066 44.0362 28.1131C44.4647 24.8103 46.0787 21.7758 48.5776 19.5741C51.0765 17.3724 54.2902 16.1537 57.6207 16.1446H173.064C174.868 16.138 176.655 16.4867 178.324 17.1709C179.993 17.855 181.511 18.8613 182.791 20.1321C184.072 21.4029 185.089 22.9134 185.785 24.5774C186.482 26.2414 186.844 28.0263 186.85 29.8301V146.283C186.841 149.614 185.622 152.827 183.421 155.326C181.219 157.825 178.184 159.439 174.882 159.868C174.483 162.883 173.098 165.683 170.942 167.829C168.786 169.976 165.981 171.349 162.964 171.735C162.477 174.996 160.83 177.971 158.325 180.114C155.82 182.258 152.625 183.425 149.329 183.401ZM33.8857 44.5761C31.5908 44.5895 29.3944 45.5105 27.7764 47.138C26.1584 48.7655 25.2502 50.9672 25.2502 53.2621V169.412C25.2502 171.707 26.1584 173.909 27.7764 175.536C29.3944 177.164 31.5908 178.085 33.8857 178.098H149.329C151.624 178.085 153.82 177.164 155.438 175.536C157.056 173.909 157.964 171.707 157.964 169.412V80.6836H140.996C134.078 80.6836 122.513 80.6836 122.513 67.7051V44.5761H33.8857ZM126.705 40.1826L162.055 75.5326C162.512 76.007 162.766 76.6413 162.762 77.3001V166.584C164.686 166.16 166.409 165.095 167.648 163.562C168.887 162.029 169.568 160.121 169.579 158.151V41.6976C169.566 39.4114 168.652 37.2227 167.035 35.606C165.419 33.9894 163.23 33.0754 160.944 33.0621H45.7532C43.8367 33.0566 41.9728 33.6887 40.4551 34.859C38.9374 36.0293 37.8521 37.6712 37.3702 39.5261H125.038C125.656 39.5292 126.251 39.7634 126.705 40.1826ZM49.1367 28.0121H161.196C164.822 28.0254 168.295 29.4716 170.859 32.0352C173.422 34.5989 174.868 38.0721 174.882 41.6976V154.717C176.829 154.322 178.581 153.267 179.841 151.731C181.101 150.194 181.793 148.27 181.8 146.283V29.8301C181.794 28.6895 181.562 27.5613 181.12 26.51C180.677 25.4587 180.032 24.5048 179.22 23.7029C178.409 22.9011 177.448 22.2668 176.392 21.8364C175.335 21.4061 174.204 21.188 173.064 21.1946H57.6207C55.6438 21.2035 53.7284 21.8825 52.1874 23.1209C50.6464 24.3592 49.5709 26.0835 49.1367 28.0121ZM127.563 48.2121V67.7556C127.563 73.9671 130.442 75.6841 140.996 75.6841H154.985L127.563 48.2121ZM140.794 162.595H40.4002C39.7346 162.582 39.0998 162.312 38.6291 161.841C38.1583 161.37 37.8881 160.735 37.8752 160.07C37.8752 159.4 38.1412 158.758 38.6148 158.284C39.0883 157.811 39.7305 157.545 40.4002 157.545H140.794C141.464 157.545 142.106 157.811 142.58 158.284C143.053 158.758 143.319 159.4 143.319 160.07C143.319 160.739 143.053 161.382 142.58 161.855C142.106 162.329 141.464 162.595 140.794 162.595ZM140.794 146.788H40.4002C39.7346 146.775 39.0998 146.505 38.6291 146.034C38.1583 145.564 37.8881 144.929 37.8752 144.263C37.8752 143.593 38.1412 142.951 38.6148 142.478C39.0883 142.004 39.7305 141.738 40.4002 141.738H140.794C141.464 141.738 142.106 142.004 142.58 142.478C143.053 142.951 143.319 143.593 143.319 144.263C143.347 144.611 143.303 144.961 143.188 145.292C143.074 145.622 142.892 145.924 142.655 146.181C142.418 146.437 142.13 146.641 141.81 146.781C141.489 146.92 141.143 146.991 140.794 146.99V146.788ZM139.178 130.931H40.4002C39.7305 130.931 39.0883 130.665 38.6148 130.192C38.1412 129.718 37.8752 129.076 37.8752 128.406C37.8881 127.74 38.1583 127.106 38.6291 126.635C39.0998 126.164 39.7346 125.894 40.4002 125.881H139.178C139.844 125.894 140.479 126.164 140.949 126.635C141.42 127.106 141.69 127.74 141.703 128.406C141.731 128.754 141.687 129.104 141.572 129.435C141.458 129.765 141.276 130.067 141.039 130.324C140.802 130.58 140.514 130.784 140.194 130.924C139.873 131.063 139.527 131.134 139.178 131.133V130.931ZM139.178 115.175H40.4002C39.7305 115.175 39.0883 114.909 38.6148 114.436C38.1412 113.962 37.8752 113.32 37.8752 112.65C37.8881 111.985 38.1583 111.35 38.6291 110.879C39.0998 110.408 39.7346 110.138 40.4002 110.125H139.178C139.844 110.138 140.479 110.408 140.949 110.879C141.42 111.35 141.69 111.985 141.703 112.65C141.731 112.998 141.687 113.348 141.572 113.679C141.458 114.009 141.276 114.311 141.039 114.568C140.802 114.824 140.514 115.028 140.194 115.168C139.873 115.307 139.527 115.378 139.178 115.377V115.175ZM139.178 99.3686H40.4002C39.7305 99.3686 39.0883 99.1026 38.6148 98.6291C38.1412 98.1555 37.8752 97.5133 37.8752 96.8436C37.8881 96.178 38.1583 95.5432 38.6291 95.0725C39.0998 94.6017 39.7346 94.3315 40.4002 94.3186H139.178C139.844 94.3315 140.479 94.6017 140.949 95.0725C141.42 95.5432 141.69 96.178 141.703 96.8436C141.731 97.1918 141.687 97.542 141.572 97.872C141.458 98.2021 141.276 98.5048 141.039 98.7611C140.802 99.0174 140.514 99.2217 140.194 99.3611C139.873 99.5004 139.527 99.5717 139.178 99.5706V99.3686ZM106.959 82.9561H40.4002C39.7305 82.9561 39.0883 82.6901 38.6148 82.2166C38.1412 81.743 37.8752 81.1008 37.8752 80.4311C37.8881 79.7655 38.1583 79.1307 38.6291 78.66C39.0998 78.1892 39.7346 77.919 40.4002 77.9061H106.959C107.629 77.9061 108.271 78.1721 108.745 78.6457C109.218 79.1192 109.484 79.7614 109.484 80.4311C109.512 80.7793 109.468 81.1295 109.353 81.4595C109.239 81.7896 109.057 82.0923 108.82 82.3486C108.583 82.6049 108.295 82.8092 107.975 82.9485C107.654 83.0879 107.308 83.1592 106.959 83.1581V82.9561ZM106.959 67.8061H40.4002C39.7346 67.7932 39.0998 67.523 38.6291 67.0523C38.1583 66.5815 37.8881 65.9467 37.8752 65.2811C37.8752 64.6114 38.1412 63.9692 38.6148 63.4957C39.0883 63.0221 39.7305 62.7561 40.4002 62.7561H106.959C107.629 62.7561 108.271 63.0221 108.745 63.4957C109.218 63.9692 109.484 64.6114 109.484 65.2811C109.512 65.6293 109.468 65.9795 109.353 66.3095C109.239 66.6396 109.057 66.9423 108.82 67.1986C108.583 67.4549 108.295 67.6592 107.975 67.7985C107.654 67.9379 107.308 68.0092 106.959 68.0081V67.8061Z" fill="#333333"/>
</g>
</svg>
