<svg width="40" height="40" viewBox="0 0 40 40" fill="none" xmlns="http://www.w3.org/2000/svg">
<path fill-rule="evenodd" clip-rule="evenodd" d="M3.55554 3.00444C3.55554 2.75898 3.75453 2.56 3.99999 2.56H13C13.2454 2.56 13.4444 2.75898 13.4444 3.00444V12.0044C13.4444 12.2499 13.2454 12.4489 13 12.4489H3.99999C3.75453 12.4489 3.55554 12.2499 3.55554 12.0044V3.00444ZM4.44443 3.44889V11.56H12.5555V3.44889H4.44443Z" fill="#333333"/>
<path fill-rule="evenodd" clip-rule="evenodd" d="M16.5555 5.50221C16.5555 5.25675 16.7545 5.05777 17 5.05777H36C36.2454 5.05777 36.4444 5.25675 36.4444 5.50221C36.4444 5.74767 36.2454 5.94666 36 5.94666H17C16.7545 5.94666 16.5555 5.74767 16.5555 5.50221Z" fill="#333333"/>
<path fill-rule="evenodd" clip-rule="evenodd" d="M16.5555 9.50221C16.5555 9.25675 16.7545 9.05777 17 9.05777H29C29.2454 9.05777 29.4444 9.25675 29.4444 9.50221C29.4444 9.74767 29.2454 9.94666 29 9.94666H17C16.7545 9.94666 16.5555 9.74767 16.5555 9.50221Z" fill="#333333"/>
<path fill-rule="evenodd" clip-rule="evenodd" d="M16.5555 18.0044C16.5555 17.759 16.7545 17.56 17 17.56H36C36.2454 17.56 36.4444 17.759 36.4444 18.0044C36.4444 18.2499 36.2454 18.4489 36 18.4489H17C16.7545 18.4489 16.5555 18.2499 16.5555 18.0044Z" fill="#333333"/>
<path fill-rule="evenodd" clip-rule="evenodd" d="M16.5555 22C16.5555 21.7545 16.7545 21.5555 17 21.5555H29C29.2454 21.5555 29.4444 21.7545 29.4444 22C29.4444 22.2454 29.2454 22.4444 29 22.4444H17C16.7545 22.4444 16.5555 22.2454 16.5555 22Z" fill="#333333"/>
<path fill-rule="evenodd" clip-rule="evenodd" d="M16.5555 30.5022C16.5555 30.2568 16.7545 30.0578 17 30.0578H36C36.2454 30.0578 36.4444 30.2568 36.4444 30.5022C36.4444 30.7477 36.2454 30.9467 36 30.9467H17C16.7545 30.9467 16.5555 30.7477 16.5555 30.5022Z" fill="#333333"/>
<path fill-rule="evenodd" clip-rule="evenodd" d="M16.5555 34.5022C16.5555 34.2567 16.7545 34.0577 17 34.0577H29C29.2454 34.0577 29.4444 34.2567 29.4444 34.5022C29.4444 34.7476 29.2454 34.9466 29 34.9466H17C16.7545 34.9466 16.5555 34.7476 16.5555 34.5022Z" fill="#333333"/>
<path fill-rule="evenodd" clip-rule="evenodd" d="M15.3266 2.69859C15.4931 2.87898 15.4818 3.16016 15.3014 3.32662L8.79919 9.32662C8.70675 9.41192 8.58249 9.45406 8.45723 9.44258C8.33197 9.4311 8.21744 9.36708 8.14205 9.2664L6.64427 7.2664C6.49713 7.06993 6.53713 6.79138 6.7336 6.64424C6.93007 6.49711 7.20862 6.5371 7.35576 6.73357L8.55833 8.33938L14.6986 2.67336C14.879 2.5069 15.1602 2.51819 15.3266 2.69859Z" fill="#333333"/>
<path fill-rule="evenodd" clip-rule="evenodd" d="M15.3266 15.2008C15.4931 15.3812 15.4818 15.6624 15.3014 15.8288L8.79919 21.8288C8.70675 21.9141 8.58249 21.9563 8.45723 21.9448C8.33197 21.9333 8.21744 21.8693 8.14205 21.7686L6.64427 19.7686C6.49713 19.5722 6.53713 19.2936 6.7336 19.1465C6.93007 18.9993 7.20862 19.0393 7.35576 19.2358L8.55833 20.8416L14.6986 15.1756C14.879 15.0091 15.1602 15.0204 15.3266 15.2008Z" fill="#333333"/>
<path fill-rule="evenodd" clip-rule="evenodd" d="M15.3266 27.6986C15.4931 27.879 15.4818 28.1602 15.3014 28.3266L8.79919 34.3266C8.70675 34.4119 8.58249 34.4541 8.45723 34.4426C8.33197 34.4311 8.21744 34.3671 8.14205 34.2664L6.64427 32.2664C6.49713 32.0699 6.53713 31.7914 6.7336 31.6442C6.93007 31.4971 7.20862 31.5371 7.35576 31.7336L8.55833 33.3394L14.6986 27.6734C14.879 27.5069 15.1602 27.5182 15.3266 27.6986Z" fill="#333333"/>
<path fill-rule="evenodd" clip-rule="evenodd" d="M3.55554 15.5022C3.55554 15.2568 3.75453 15.0578 3.99999 15.0578H13C13.2454 15.0578 13.4444 15.2568 13.4444 15.5022V24.5022C13.4444 24.7477 13.2454 24.9467 13 24.9467H3.99999C3.75453 24.9467 3.55554 24.7477 3.55554 24.5022V15.5022ZM4.44443 15.9467V24.0578H12.5555V15.9467H4.44443Z" fill="#333333"/>
<path fill-rule="evenodd" clip-rule="evenodd" d="M3.55554 28C3.55554 27.7545 3.75453 27.5555 3.99999 27.5555H13C13.2454 27.5555 13.4444 27.7545 13.4444 28V37C13.4444 37.2454 13.2454 37.4444 13 37.4444H3.99999C3.75453 37.4444 3.55554 37.2454 3.55554 37V28ZM4.44443 28.4444V36.5555H12.5555V28.4444H4.44443Z" fill="#333333"/>
</svg>
