<svg width="16" height="16" viewBox="0 0 16 16" fill="none" xmlns="http://www.w3.org/2000/svg">
<path fill-rule="evenodd" clip-rule="evenodd" d="M8.19995 1.56535C8.19995 1.14269 7.97609 0.800049 7.69995 0.800049C7.42381 0.800049 7.19995 1.14269 7.19995 1.56535V7.80005H0.965257C0.54259 7.80005 0.199951 8.02391 0.199951 8.30005C0.199951 8.57619 0.54259 8.80005 0.965257 8.80005H7.19995V15.0347C7.19995 15.4574 7.42381 15.8 7.69995 15.8C7.97609 15.8 8.19995 15.4574 8.19995 15.0347V8.80005H14.4346C14.8573 8.80005 15.2 8.57619 15.2 8.30005C15.2 8.02391 14.8573 7.80005 14.4346 7.80005H8.19995V1.56535Z" fill="white"/>
</svg>
