<svg width="40" height="41" viewBox="0 0 40 41" fill="none" xmlns="http://www.w3.org/2000/svg">
<path fill-rule="evenodd" clip-rule="evenodd" d="M20.3333 9.7655C20.3333 9.06106 19.9602 8.48999 19.5 8.48999C19.0398 8.48999 18.6667 9.06106 18.6667 9.7655V20.1567H8.27551C7.57107 20.1567 7 20.5298 7 20.99C7 21.4502 7.57107 21.8233 8.27551 21.8233H18.6667V32.2145C18.6667 32.9189 19.0398 33.49 19.5 33.49C19.9602 33.49 20.3333 32.9189 20.3333 32.2145V21.8233H30.7245C31.4289 21.8233 32 21.4502 32 20.99C32 20.5298 31.4289 20.1567 30.7245 20.1567H20.3333V9.7655Z" fill="#333333"/>
</svg>
