<svg width="24" height="24" viewBox="0 0 24 24" fill="none" xmlns="http://www.w3.org/2000/svg">
<path fill-rule="evenodd" clip-rule="evenodd" d="M12.6529 10.1936C12.6529 7.69941 10.6526 6.00018 8.38691 6.00018C5.89272 6.00018 3.99976 7.69941 3.99976 10.1936C3.99976 12.6878 5.89272 14.5002 8.38691 14.5002C10.9998 14.5002 12.6529 12.3248 12.6529 10.1936ZM8.38691 4.38715C11.5937 4.38715 14.1934 6.98678 14.1934 10.1936C14.1934 13.4004 11.5937 16 8.38691 16C5.18009 16 2.58046 13.4004 2.58046 10.1936C2.58046 6.98678 5.18009 4.38715 8.38691 4.38715Z" fill="white"/>
<path fill-rule="evenodd" clip-rule="evenodd" d="M4.99975 13.5001C5.25171 13.7521 5.44974 14.043 5.19779 14.295L2.39134 17.1014C2.13939 17.3534 1.53286 17.2522 1.28091 17.0002C1.02896 16.7483 1.02896 16.0586 1.28091 15.8067L4.08736 13.0002C4.33931 12.7482 4.7478 13.2482 4.99975 13.5001Z" fill="white"/>
<path fill-rule="evenodd" clip-rule="evenodd" d="M21.9995 1.22581H10.4995C10.0719 1.22581 9.72532 1.57242 9.72532 2V3.27059C9.33295 3.18373 8.9288 3.12821 8.51562 3.10679V1.54839C8.51562 0.693236 9.20886 0 10.064 0H22.4511C23.3063 0 23.9995 0.693237 23.9995 1.54839V11.6129C23.9995 12.4681 23.3063 13.1613 22.4511 13.1613H14.9681C15.1633 12.669 15.3069 12.1507 15.3922 11.6129H21.9995C22.4271 11.6129 22.7737 11.2663 22.7737 10.8387V2C22.7737 1.57243 22.4271 1.22581 21.9995 1.22581ZM14.1415 6.21516L15.5966 4.45631L17.5328 8.27674L19.2484 5.97058L20.998 8.77043C21.0934 8.92298 21.4996 9 21.6291 8.77043C21.72 8.60949 21.7245 8.26115 21.6291 8.10861L19.353 4.4662L17.7138 6.66962L15.6524 2.78906L13.5841 5.51888C13.7834 5.73925 13.9696 5.97176 14.1415 6.21516ZM12.5247 4.55469L11.2255 3.09676C11.0515 2.92758 10.7523 2.78906 10.4996 3C10.3344 3.13787 10.3768 3.31654 10.4463 3.46943C11.2007 3.71973 11.9009 4.08889 12.5247 4.55469Z" fill="white"/>
</svg>
