<svg width="18" height="18" viewBox="0 0 18 18" fill="none" xmlns="http://www.w3.org/2000/svg">
<path fill-rule="evenodd" clip-rule="evenodd" d="M2.46205 1.56274C2.41274 1.6136 2.36363 1.71414 2.36363 1.91759V15.8845C2.36363 16.0679 2.40958 16.1636 2.4577 16.2136C2.50396 16.2617 2.59414 16.3111 2.77978 16.3111H14.8886C15.1167 16.3111 15.2054 16.2644 15.244 16.2262C15.2821 16.1886 15.3316 16.0994 15.3316 15.8636V6.1217L10.6641 1.46373H2.79965C2.60348 1.46373 2.50978 1.51351 2.46205 1.56274ZM2.05726 1.17025C2.24781 0.973729 2.51308 0.899902 2.79965 0.899902H10.7807C10.8554 0.899902 10.927 0.929525 10.9798 0.98227L15.8126 5.80522C15.8656 5.8581 15.8954 5.9299 15.8954 6.00476V15.8636C15.8954 16.1566 15.8375 16.4321 15.6406 16.6269C15.4443 16.8213 15.1706 16.8749 14.8886 16.8749H2.77978C2.49558 16.8749 2.23673 16.7972 2.05141 16.6046C1.86796 16.4139 1.7998 16.1554 1.7998 15.8845V1.91759C1.7998 1.63249 1.8683 1.36514 2.05726 1.17025Z" fill="#333333"/>
<path fill-rule="evenodd" clip-rule="evenodd" d="M10.4453 6.06836V1.18188H11.0091V5.78644H15.6137V6.35027H10.7272C10.5715 6.35027 10.4453 6.22405 10.4453 6.06836Z" fill="#333333"/>
<path fill-rule="evenodd" clip-rule="evenodd" d="M4.61914 12.8342C4.61914 12.6785 4.74536 12.5522 4.90105 12.5522H12.6066C12.7623 12.5522 12.8886 12.6785 12.8886 12.8342C12.8886 12.9899 12.7623 13.1161 12.6066 13.1161H4.90105C4.74536 13.1161 4.61914 12.9899 4.61914 12.8342Z" fill="#333333"/>
<path fill-rule="evenodd" clip-rule="evenodd" d="M4.61914 14.7136C4.61914 14.5579 4.74536 14.4316 4.90105 14.4316H12.6066C12.7623 14.4316 12.8886 14.5579 12.8886 14.7136C12.8886 14.8692 12.7623 14.9955 12.6066 14.9955H4.90105C4.74536 14.9955 4.61914 14.8692 4.61914 14.7136Z" fill="#333333"/>
</svg>
