<svg width="25" height="27" viewBox="0 0 25 27" fill="none" xmlns="http://www.w3.org/2000/svg">
<path d="M9.55251 19.3014C9.21529 18.1197 8.5829 17.0417 7.71316 16.1697L7.71249 16.1691C7.09836 15.5549 6.62789 14.8124 6.33491 13.9948C6.04192 13.1772 5.9337 12.3048 6.01801 11.4404L6.01805 11.4404L6.01872 11.4326C6.14657 9.96439 6.80597 8.59331 7.87312 7.5768C8.94026 6.5603 10.3418 5.96828 11.8145 5.9119C13.2872 5.85552 14.7298 6.33866 15.8716 7.2706C17.0125 8.2019 17.7745 9.51737 18.0148 10.9703C18.3312 12.9994 17.755 14.7379 16.334 16.2255C15.4854 17.083 14.8705 18.142 14.5458 19.3014H12.0269H9.55251ZM7.00644 12.0288C7.00385 12.2611 7.02408 12.4932 7.06682 12.7216C7.20698 13.582 7.5675 14.3915 8.11336 15.0713C8.18716 15.1641 8.42779 15.4505 8.8425 15.4505C9.22538 15.4505 9.46357 15.2033 9.54808 15.1071C9.75532 14.8876 9.95824 14.6809 10.1756 14.4765C10.26 14.4054 10.3313 14.3198 10.386 14.2236C10.451 14.1094 10.4912 13.9828 10.5039 13.852C10.5167 13.7212 10.5018 13.5891 10.4601 13.4645C10.428 13.3685 10.3806 13.2785 10.3199 13.198C10.0378 12.7513 9.91884 12.3371 9.91903 11.9492C9.91923 11.5618 10.0384 11.1458 10.3196 10.6954C10.3784 10.6179 10.4248 10.5313 10.4567 10.4389C10.4998 10.3142 10.5157 10.1818 10.5034 10.0504C10.491 9.91911 10.4507 9.79193 10.3851 9.67746C10.3335 9.58734 10.2671 9.50674 10.189 9.43891C10.1121 9.3623 10.039 9.29064 9.96856 9.22167C9.82611 9.08208 9.6949 8.95351 9.56653 8.81726C9.45588 8.69504 9.15977 8.40845 8.71028 8.47883C8.50149 8.51152 8.35105 8.61214 8.26045 8.6888C8.17362 8.76229 8.10843 8.84216 8.06552 8.89882C7.37376 9.79508 7.00104 10.8966 7.00644 12.0288Z" fill="white" stroke="white" stroke-width="1.5" stroke-miterlimit="10"/>
<path d="M9.40248 22.2082C9.40226 22.208 9.40584 22.2075 9.41387 22.2072C9.40672 22.2082 9.4027 22.2083 9.40248 22.2082ZM9.79153 22.2055C10.3298 22.2038 10.8668 22.2042 11.4056 22.2045C11.627 22.2046 11.8488 22.2048 12.0711 22.2048H12.0762H12.0814H12.0865H12.0916H12.0968H12.1019H12.107H12.1122H12.1173H12.1224H12.1276H12.1327H12.1378H12.143H12.1481H12.1532H12.1583H12.1635H12.1686H12.1737H12.1789H12.184H12.1891H12.1943H12.1994H12.2045H12.2097H12.2148H12.2199H12.2251H12.2302H12.2353H12.2405H12.2456H12.2507H12.2559H12.261H12.2661H12.2713H12.2764H12.2815H12.2867H12.2918H12.2969H12.3021H12.3072H12.3123H12.3175H12.3226H12.3277H12.3329H12.338H12.3431H12.3483H12.3534H12.3585H12.3637H12.3688H12.3739H12.3791H12.3842H12.3893H12.3945H12.3996H12.4047H12.4098H12.415H12.4201H12.4252H12.4304H12.4355H12.4406H12.4458H12.4509H12.456H12.4612H12.4663H12.4714H12.4766H12.4817H12.4868H12.492H12.4971H12.5022H12.5074H12.5125H12.5176H12.5228H12.5279H12.533H12.5382H12.5433H12.5484H12.5536H12.5587H12.5638H12.569H12.5741H12.5792H12.5844H12.5895H12.5946H12.5998H12.6049H12.61H12.6152H12.6203H12.6254H12.6306H12.6357H12.6408H12.646H12.6511H12.6562H12.6614H12.6665H12.6716H12.6767H12.6819H12.687H12.6921H12.6973H12.7024H12.7075H12.7127H12.7178H12.7229H12.7281H12.7332H12.7383H12.7435H12.7486H12.7537H12.7589H12.764H12.7691H12.7743H12.7794H12.7845H12.7897H12.7948H12.7999H12.8051H12.8102H12.8153H12.8205H12.8256H12.8307H12.8359H12.841H12.8461H12.8513H12.8564H12.8615H12.8667H12.8718H12.8769H12.8821H12.8872H12.8923H12.8975H12.9026H12.9077H12.9129H12.918H12.9231H12.9283H12.9334H12.9385H12.9436H12.9488H12.9539H12.959H12.9642H12.9693H12.9744H12.9796H12.9847H12.9898H12.995H13.0001H13.0052H13.0104H13.0155H13.0206H13.0258H13.0309H13.036H13.0412H13.0463H13.0514H13.0566H13.0617H13.0668H13.072H13.0771H13.0822H13.0874H13.0925H13.0976H13.1028H13.1079H13.113H13.1182H13.1233H13.1284H13.1336H13.1387H13.1438H13.149H13.1541H13.1592H13.1644H13.1695H13.1746H13.1798H13.1849H13.19H13.1952H13.2003H13.2054H13.2105H13.2157H13.2208H13.2259H13.2311H13.2362H13.2413H13.2465H13.2516H13.2567H13.2619H13.267H13.2721H13.2773H13.2824H13.2875H13.2927H13.2978H13.3029H13.3081H13.3132H13.3183H13.3235H13.3286H13.3337H13.3389H13.344H13.3491H13.3543H13.3594H13.3645H13.3697H13.3748H13.3799H13.3851H13.3902H13.3953H13.4005H13.4056H13.4107H13.4159H13.421H13.4261H13.4313H13.4364H13.4415H13.4467H13.4518H13.4569H13.462H13.4672H13.4723H13.4774H13.4826H13.4877H13.4928H13.498H13.5031H13.5082H13.5134H13.5185H13.5236H13.5288H13.5339H13.539H13.5442H13.5493H13.5544H13.5596H13.5647H13.5698H13.575H13.5801H13.5852H13.5904H13.5955H13.6006H13.6058H13.6109H13.616H13.6212H13.6263H13.6314H13.6366H13.6417H13.6468H13.652H13.6571H13.6622H13.6674H13.6725H13.6776H13.6828H13.6879H13.693H13.6982H13.7033H13.7084H13.7136H13.7187H13.7238H13.7289H13.7341H13.7392H13.7443H13.7495H13.7546H13.7597H13.7649H13.77H13.7751H13.7803H13.7854H13.7905H13.7957H13.8008H13.8059H13.8111H13.8162H13.8213H13.8265H13.8316H13.8367H13.8419H13.847H13.8521H13.8573H13.8624H13.8675H13.8727H13.8778H13.8829H13.8881H13.8932H13.8983H13.9035H13.9086H13.9137H13.9189H13.924H13.9291H13.9343H13.9394H13.9445H13.9497H13.9548H13.9599H13.9651H13.9702H13.9753H13.9805H13.9856H13.9907H13.9958H14.001H14.0061H14.0112H14.0164H14.0215H14.0266H14.0318H14.0369H14.042H14.0472H14.0523H14.0574H14.0626H14.0677H14.0728H14.078H14.0831H14.0882H14.0934H14.0985H14.1036H14.1088H14.1139H14.119H14.1242H14.1293H14.1344H14.1396H14.1447H14.1498H14.155H14.1601H14.1652H14.1704H14.1755H14.1806H14.1858H14.1909H14.196H14.2012H14.2063H14.2114H14.2166H14.2217H14.2268H14.232H14.2371H14.2422H14.2474H14.2525H14.2576H14.2627H14.2679H14.273H14.2781H14.2833H14.2884H14.2902C14.2923 22.2952 14.2947 22.3833 14.2971 22.4694C14.3123 23.0262 14.3253 23.5026 14.235 24.0019C14.1266 24.5365 13.8302 25.0147 13.3995 25.3497C12.9713 25.6828 12.4386 25.8523 11.897 25.8283C11.3869 25.7775 10.9077 25.5592 10.5344 25.2074C10.1635 24.8579 9.91806 24.3963 9.83546 23.8939C9.79171 23.3322 9.77705 22.7686 9.79153 22.2055ZM14.699 22.2048C14.7024 22.2048 14.7016 22.205 14.6974 22.2048H14.699Z" stroke="white" stroke-width="1.5" stroke-miterlimit="10"/>
<path d="M3.4581 11.9443H1" stroke="white" stroke-width="1.25" stroke-miterlimit="10" stroke-linecap="round"/>
<path d="M5.55105 5.73855L3.8125 4" stroke="white" stroke-width="1.25" stroke-miterlimit="10" stroke-linecap="round"/>
<path d="M20.7385 4L19 5.73855" stroke="white" stroke-width="1.25" stroke-miterlimit="10" stroke-linecap="round"/>
<path d="M5.55105 18L3.8125 19.7385" stroke="white" stroke-width="1.25" stroke-miterlimit="10" stroke-linecap="round"/>
<path d="M20.7385 19.7385L19 18" stroke="white" stroke-width="1.25" stroke-miterlimit="10" stroke-linecap="round"/>
<path d="M23.4581 11.9443H21" stroke="white" stroke-width="1.25" stroke-miterlimit="10" stroke-linecap="round"/>
<path d="M12.0557 1V3.4581" stroke="white" stroke-width="1.25" stroke-miterlimit="10" stroke-linecap="round"/>
</svg>
