<svg width="192" height="192" viewBox="0 0 192 192" fill="none" xmlns="http://www.w3.org/2000/svg">
<path d="M149.285 28.5713C154.305 28.5713 159.119 30.8289 162.668 34.8476C166.217 38.8662 168.211 44.3167 168.211 49.9999V164.286C168.211 169.969 166.217 175.419 162.668 179.438C159.119 183.456 154.305 185.714 149.285 185.714H73.5825C68.5631 185.714 63.7493 183.456 60.2 179.438C56.6507 175.419 54.6568 173.031 54.6568 168H68.0079C68.0079 168 67.9386 167.997 69.1217 169.336C70.3048 170.676 71.9094 171.428 73.5825 171.428H149.285C150.958 171.428 152.563 170.676 153.746 169.336C154.929 167.997 155.594 166.18 155.594 164.286V49.9999C155.594 48.1055 154.929 46.2886 153.746 44.9491C152.563 43.6096 150.958 42.857 149.285 42.857H139.992L140.008 28.5713H149.285Z" fill="white"/>
<path fill-rule="evenodd" clip-rule="evenodd" d="M22.08 0C16.224 0 10.6079 2.34126 6.46708 6.50874C2.32628 10.6762 0 16.3285 0 22.2222V140.741C0 146.634 2.32628 152.287 6.46708 156.454C10.6079 160.622 16.224 162.963 22.08 162.963H110.4C116.256 162.963 121.872 160.622 126.013 156.454C130.154 152.287 132.48 146.634 132.48 140.741V51.8609V22.2222C132.48 18.2222 131.39 10.5087 126.91 6.50874C122.43 2.50874 116 0 112 0H22.08ZM63.5754 40.8066C65.6152 43.0574 65.4441 46.5356 63.1934 48.5754L57.2076 54L95.5 54C96.9587 54 98.3577 54.5795 99.3891 55.6109C100.421 56.6424 101 58.0413 101 59.5V77.5C101 80.5376 98.5376 83 95.5 83C92.4625 83 90 80.5376 90 77.5V65H58.3111L63.1934 69.4245C65.4441 71.4643 65.6152 74.9425 63.5754 77.1933C61.5356 79.4441 58.0574 79.6152 55.8066 77.5754L35.3096 59L55.8066 40.4245C58.0574 38.3848 61.5356 38.5558 63.5754 40.8066ZM77.5434 118.68C75.4335 120.865 75.4946 124.347 77.6798 126.457C79.865 128.567 83.3469 128.505 85.4568 126.32L103.145 108L85.4568 89.6797C83.3469 87.4945 79.865 87.4334 77.6798 89.5433C75.4946 91.6532 75.4335 95.135 77.5434 97.3203L83.0272 103H46L46 87.5C46 84.4624 43.5376 82 40.5 82C37.4625 82 35 84.4624 35 87.5L35 108.5C35 109.959 35.5795 111.358 36.611 112.389C37.6424 113.421 39.0414 114 40.5 114H82.0617L77.5434 118.68Z" fill="white"/>
</svg>
