<?xml version="1.0" standalone="no"?>
<!DOCTYPE svg PUBLIC "-//W3C//DTD SVG 1.1//EN" "http://www.w3.org/Graphics/SVG/1.1/DTD/svg11.dtd">
<svg width="24" height="24" viewBox="0 0 24 24" fill="none" xmlns="http://www.w3.org/2000/svg">
<path d="M18.6606 3.57141C19.288 3.57141 19.8898 3.85362 20.3334 4.35595C20.7771 4.85828 21.0263 5.53958 21.0263 6.24998V20.5357C21.0263 21.2461 20.7771 21.9274 20.3334 22.4297C19.8898 22.9321 19.288 23.2143 18.6606 23.2143H9.19775C8.57032 23.2143 7.96859 22.9321 7.52493 22.4297C7.08128 21.9274 6.83203 21.4286 6.83203 21H8.50093C8.50093 21 8.49226 20.9996 8.64014 21.167C8.78803 21.3345 8.9886 21.4286 9.19775 21.4286H18.6606C18.8697 21.4286 19.0703 21.3345 19.2182 21.167C19.3661 20.9996 19.4492 20.7725 19.4492 20.5357V6.24998C19.4492 6.01318 19.3661 5.78608 19.2182 5.61864C19.0703 5.45119 18.8697 5.35713 18.6606 5.35713H17.499L17.5009 3.57141H18.6606Z" fill="white"/>
<path fill-rule="evenodd" clip-rule="evenodd" d="M0.808385 0.813592C1.32599 0.292658 2.028 0 2.76 0H14C14.5 0 15.3037 0.313592 15.8637 0.813592C16.4237 1.31359 16.56 2.27778 16.56 2.77778V6.48261V17.5926C16.56 18.3293 16.2692 19.0358 15.7516 19.5568C15.234 20.0777 14.532 20.3704 13.8 20.3704H2.76C2.028 20.3704 1.32599 20.0777 0.808385 19.5568C0.290785 19.0358 0 18.3293 0 17.5926V2.77778C0 2.04107 0.290785 1.33453 0.808385 0.813592ZM8.09766 6.85366C8.09766 6.59773 8.30513 6.39026 8.56106 6.39026H12.2683C12.5242 6.39026 12.7317 6.59773 12.7317 6.85366C12.7317 7.1096 12.5242 7.31707 12.2683 7.31707H8.56106C8.30513 7.31707 8.09766 7.1096 8.09766 6.85366ZM8.56106 10.5608C8.30513 10.5608 8.09766 10.7683 8.09766 11.0242C8.09766 11.2801 8.30513 11.4876 8.56106 11.4876H12.2683C12.5242 11.4876 12.7317 11.2801 12.7317 11.0242C12.7317 10.7683 12.5242 10.5608 12.2683 10.5608H8.56106ZM8.09766 15.195C8.09766 14.939 8.30513 14.7316 8.56106 14.7316H12.2683C12.5242 14.7316 12.7317 14.939 12.7317 15.195C12.7317 15.4509 12.5242 15.6584 12.2683 15.6584H8.56106C8.30513 15.6584 8.09766 15.4509 8.09766 15.195ZM6.85355 5.85355C7.04882 5.65829 7.04882 5.34171 6.85355 5.14645C6.65829 4.95118 6.34171 4.95118 6.14645 5.14645L4.5 6.79289L3.85355 6.14645C3.65829 5.95118 3.34171 5.95118 3.14645 6.14645C2.95118 6.34171 2.95118 6.65829 3.14645 6.85355L4.5 8.20711L6.85355 5.85355ZM6.85355 9.14645C7.04882 9.34171 7.04882 9.65829 6.85355 9.85355L4.5 12.2071L3.14645 10.8536C2.95118 10.6583 2.95118 10.3417 3.14645 10.1464C3.34171 9.95118 3.65829 9.95118 3.85355 10.1464L4.5 10.7929L6.14645 9.14645C6.34171 8.95118 6.65829 8.95118 6.85355 9.14645ZM6.85355 13.8536C7.04882 13.6583 7.04882 13.3417 6.85355 13.1464C6.65829 12.9512 6.34171 12.9512 6.14645 13.1464L4.5 14.7929L3.85355 14.1464C3.65829 13.9512 3.34171 13.9512 3.14645 14.1464C2.95118 14.3417 2.95118 14.6583 3.14645 14.8536L4.5 16.2071L6.85355 13.8536Z" fill="white"/>
</svg>
