<svg width="40" height="40" viewBox="0 0 40 40" fill="none" xmlns="http://www.w3.org/2000/svg">
<path fill-rule="evenodd" clip-rule="evenodd" d="M6.68746 4.69285C6.55076 4.8348 6.44455 5.08596 6.44455 5.529V34.529C6.44455 34.9317 6.54509 35.1714 6.6783 35.3105C6.80824 35.4461 7.03613 35.5557 7.44455 35.5557H32.4979C32.9839 35.5557 33.2135 35.4569 33.3325 35.3386C33.451 35.2209 33.5557 34.9887 33.5557 34.4845V14.1974L23.8158 4.44455H7.48455C7.05659 4.44455 6.82113 4.55405 6.68746 4.69285ZM6.0472 4.07625C6.40576 3.70394 6.91251 3.55566 7.48455 3.55566H24.0001C24.1181 3.55566 24.2312 3.60257 24.3146 3.68605L34.3146 13.6994C34.3978 13.7827 34.4446 13.8957 34.4446 14.0134V34.4845C34.4446 35.0782 34.327 35.6037 33.9589 35.9693C33.5912 36.3345 33.0696 36.4445 32.4979 36.4445H7.44455C6.87965 36.4445 6.38531 36.2896 6.03636 35.9253C5.69068 35.5644 5.55566 35.0686 5.55566 34.529V5.529C5.55566 4.9587 5.69168 4.44542 6.0472 4.07625Z" fill="#0B3C61"/>
<path fill-rule="evenodd" clip-rule="evenodd" d="M23.5557 14V4H24.4446V13.5556H34.0001V14.4444H24.0001C23.7546 14.4444 23.5557 14.2455 23.5557 14Z" fill="#0B3C61"/>
<path fill-rule="evenodd" clip-rule="evenodd" d="M11.5557 21.0001C11.5557 20.7546 11.7546 20.5557 12.0001 20.5557H28.0001C28.2456 20.5557 28.4446 20.7546 28.4446 21.0001C28.4446 21.2456 28.2456 21.4446 28.0001 21.4446H12.0001C11.7546 21.4446 11.5557 21.2456 11.5557 21.0001Z" fill="#0B3C61"/>
<path fill-rule="evenodd" clip-rule="evenodd" d="M11.5557 25.0001C11.5557 24.7546 11.7546 24.5557 12.0001 24.5557H28.0001C28.2456 24.5557 28.4446 24.7546 28.4446 25.0001C28.4446 25.2456 28.2456 25.4445 28.0001 25.4445H12.0001C11.7546 25.4445 11.5557 25.2456 11.5557 25.0001Z" fill="#0B3C61"/>
<path fill-rule="evenodd" clip-rule="evenodd" d="M11.5557 29.0001C11.5557 28.7546 11.7546 28.5557 12.0001 28.5557H28.0001C28.2456 28.5557 28.4446 28.7546 28.4446 29.0001C28.4446 29.2456 28.2456 29.4446 28.0001 29.4446H12.0001C11.7546 29.4446 11.5557 29.2456 11.5557 29.0001Z" fill="#0B3C61"/>
</svg>
