<svg width="41" height="49" viewBox="0 0 41 49" fill="none" xmlns="http://www.w3.org/2000/svg">
<path fill-rule="evenodd" clip-rule="evenodd" d="M8.6874 13.475C8.6874 6.95116 13.976 1.66252 20.4999 1.66252C27.0238 1.66252 32.3124 6.95116 32.3124 13.475V16.625H8.6874V13.475ZM7.1124 16.625V13.475C7.1124 6.08131 13.1062 0.0875244 20.4999 0.0875244C27.8936 0.0875244 33.8874 6.08131 33.8874 13.475V16.625H37.8249C39.5646 16.625 40.9749 18.0353 40.9749 19.775V44.975C40.9749 46.7147 39.5646 48.125 37.8249 48.125H3.1749C1.43521 48.125 0.0249023 46.7147 0.0249023 44.975V19.775C0.0249023 18.0353 1.43521 16.625 3.1749 16.625H7.1124ZM1.5999 19.775C1.5999 18.9052 2.30505 18.2 3.1749 18.2H37.8249C38.6947 18.2 39.3999 18.9052 39.3999 19.775V44.975C39.3999 45.8449 38.6947 46.55 37.8249 46.55H3.1749C2.30505 46.55 1.5999 45.8449 1.5999 44.975V19.775Z" fill="#4C9E45"/>
</svg>
