<svg width="39" height="39" viewBox="0 0 39 39" fill="none" xmlns="http://www.w3.org/2000/svg">
<path fill-rule="evenodd" clip-rule="evenodd" d="M10.3742 6.21739C10.5518 6.199 10.7304 6.18999 10.9092 6.19046L10.9106 6.19046C11.7231 6.19065 12.5255 6.36954 13.2611 6.71442C13.8453 6.99702 14.378 7.37558 14.8369 7.83434L14.8877 7.8915L14.8986 7.90343C15.5086 8.55241 15.9648 9.33037 16.2332 10.1796C16.5017 11.0289 16.5755 11.9277 16.4493 12.8094C16.4454 12.8367 16.4435 12.8641 16.4435 12.8916C16.4435 12.8912 16.4435 12.8914 16.4435 12.8916C16.4433 12.8941 16.4425 12.9078 16.4386 12.9424C16.4378 12.9492 16.4367 12.958 16.4355 12.9681C16.4317 13.0002 16.4262 13.0456 16.4226 13.0848C16.4178 13.1384 16.4124 13.2181 16.4192 13.3036C16.4254 13.3811 16.4458 13.5274 16.5409 13.6701C16.5623 13.7022 16.5868 13.732 16.6141 13.7592L32.1831 29.2818L32.1917 29.2902C32.3895 29.4794 32.5469 29.7068 32.6545 29.9586C32.762 30.2103 32.8175 30.4813 32.8175 30.755C32.8175 31.0288 32.762 31.2998 32.6545 31.5515C32.5469 31.8033 32.3895 32.0307 32.1917 32.2199L32.1825 32.2289C31.801 32.6103 31.4277 32.7605 31.0884 32.7991C30.7377 32.8389 30.3803 32.7638 30.0411 32.6253C29.7025 32.487 29.406 32.295 29.1909 32.1331C29.0846 32.0531 29.0011 31.9827 28.9456 31.9335C28.9179 31.909 28.8973 31.89 28.8845 31.878L28.8713 31.8654L28.8701 31.8642L28.8694 31.8636L13.72 16.7064C13.4973 16.4836 13.2092 16.4705 13.0919 16.4705C12.9577 16.4705 12.8264 16.4926 12.7614 16.5036C12.76 16.5038 12.7586 16.504 12.7573 16.5043C11.8797 16.6259 10.986 16.5494 10.1418 16.2806C9.29508 16.011 8.51974 15.5547 7.87296 14.9454C7.86779 14.9405 7.86253 14.9358 7.85718 14.9311L7.81212 14.8916C7.36111 14.4293 6.99052 13.8948 6.71571 13.3102L6.7134 13.3054C6.35478 12.5605 6.16814 11.7445 6.16728 10.9178L6.16727 10.9166C6.16675 10.7565 6.17382 10.5967 6.1884 10.4375L8.99495 13.328C9.1269 13.4929 9.28924 13.631 9.47328 13.735C9.66841 13.8452 9.88388 13.9147 10.1067 13.9392C10.3294 13.9637 10.5548 13.9427 10.7693 13.8776C10.9837 13.8124 11.1826 13.7044 11.3541 13.5601C11.3665 13.5496 11.3785 13.5386 11.39 13.5272L13.4638 11.4611C13.4756 11.4493 13.4869 11.4371 13.4977 11.4243C13.6414 11.2541 13.7494 11.0567 13.8154 10.844C13.8813 10.6312 13.9039 10.4073 13.8818 10.1857C13.8596 9.96401 13.7931 9.74906 13.6863 9.55357C13.5849 9.3679 13.449 9.20338 13.2861 9.06874L10.3742 6.21739ZM5.15022 9.56994L5.24188 9.10403C5.28355 8.89219 5.43937 8.721 5.64636 8.65963C5.85336 8.59827 6.0773 8.65687 6.2277 8.81177L9.84913 12.5415C9.86512 12.558 9.88013 12.5754 9.89406 12.5937C9.93473 12.6469 9.98579 12.6914 10.0441 12.7244C10.1025 12.7573 10.1669 12.7781 10.2336 12.7854C10.3002 12.7928 10.3676 12.7865 10.4317 12.767C10.4896 12.7494 10.5436 12.7214 10.5913 12.6844L12.6235 10.6599C12.6606 10.6121 12.6888 10.558 12.7067 10.5002C12.7267 10.4359 12.7335 10.3682 12.7268 10.3012C12.7201 10.2342 12.7 10.1692 12.6677 10.1101C12.6354 10.051 12.5916 9.99895 12.5388 9.95711C12.523 9.94455 12.5078 9.93117 12.4934 9.91702L8.77135 6.27238C8.61974 6.12392 8.56124 5.90456 8.61879 5.70032C8.67634 5.49608 8.84076 5.33953 9.04757 5.29207L9.52133 5.18334C9.9775 5.08011 10.4438 5.02859 10.9115 5.02974C11.8953 5.03008 12.8669 5.24701 13.7574 5.66513L13.7632 5.66785C14.4713 6.00992 15.1163 6.46948 15.671 7.02697C15.6786 7.03468 15.6861 7.0426 15.6933 7.05072L15.75 7.11446C16.4765 7.88915 17.0198 8.81707 17.34 9.82981C17.6574 10.8342 17.7473 11.8966 17.6031 12.9398C17.6009 12.9929 17.5955 13.0416 17.5917 13.075L17.5896 13.0927L32.9986 28.4559C33.3076 28.7526 33.5536 29.1086 33.7219 29.5026C33.891 29.8985 33.9782 30.3245 33.9782 30.755C33.9782 31.1856 33.891 31.6116 33.7219 32.0075C33.5536 32.4014 33.3077 32.7573 32.9988 33.054C32.4413 33.6098 31.8296 33.883 31.2195 33.9524C30.6191 34.0206 30.0611 33.8873 29.6022 33.6998C29.1429 33.5122 28.7588 33.2606 28.493 33.0605C28.3588 32.9596 28.2517 32.8694 28.1767 32.8031C28.1392 32.7699 28.1095 32.7426 28.0884 32.7227C28.0779 32.7127 28.0694 32.7046 28.0632 32.6985L28.0554 32.691L28.0528 32.6884L28.0518 32.6874C28.0517 32.6872 28.0511 32.6867 28.4607 32.2756L28.0511 32.6867L13.0112 17.6391C12.99 17.6422 12.9676 17.6459 12.9407 17.6504L12.9256 17.6527C11.8735 17.7999 10.8018 17.7089 9.78956 17.3866C8.78076 17.0653 7.85667 16.5224 7.08499 15.7977L7.03094 15.7504C7.01998 15.7408 7.00938 15.7308 6.99917 15.7205C6.45036 15.162 5.99978 14.5149 5.66641 13.8064C5.2332 12.9057 5.0077 11.9192 5.00656 10.9197M13.0964 17.6313C13.0964 17.6314 13.0959 17.6313 13.095 17.6313L13.0964 17.6313Z" fill="#333333"/>
<path fill-rule="evenodd" clip-rule="evenodd" d="M31.1521 5.05896C31.3773 4.93926 31.6544 4.9807 31.8348 5.16109L33.7693 7.09561C33.9502 7.27653 33.9913 7.5546 33.8704 7.78012L31.6187 11.9819C31.5315 12.1445 31.3723 12.256 31.1898 12.2822L29.121 12.5798L22.7033 18.9823C22.6905 18.9951 22.6771 19.0072 22.6633 19.0187L22.6729 19.0283L22.2972 19.4039L21.4765 18.5832L21.4836 18.576L19.9607 17.0285C19.7376 16.8018 19.7386 16.4376 19.963 16.2121L26.3583 9.78651L26.6559 7.71741C26.6823 7.53412 26.7945 7.37442 26.958 7.28753L31.1521 5.05896ZM27.7628 8.17428L27.4798 10.1422C27.462 10.2658 27.4048 10.3804 27.3167 10.469L21.1909 16.6238L22.2972 17.7479L28.4377 11.6219C28.5263 11.5335 28.6411 11.4761 28.765 11.4583L30.7342 11.1751L32.6438 7.61166L31.3176 6.28541L27.7628 8.17428ZM16.0658 19.4529C16.2587 19.4086 16.4608 19.4655 16.6021 19.604L19.3414 22.2892C19.4873 22.4322 19.5473 22.6415 19.4992 22.8402L18.7254 26.036C18.7003 26.1397 18.6471 26.2344 18.5717 26.3098L11.4681 33.4134C11.4248 33.4567 11.375 33.4928 11.3204 33.5205L11.0577 33.003C11.3204 33.5205 11.3204 33.5205 11.3204 33.5205L11.3181 33.5217L11.3148 33.5233L11.3055 33.5279C11.298 33.5316 11.288 33.5364 11.2757 33.5422C11.251 33.5538 11.2168 33.5694 11.1738 33.5879C11.0879 33.6248 10.9664 33.6735 10.8156 33.7245C10.5154 33.826 10.0914 33.9394 9.59646 33.9852C8.59998 34.0774 7.28983 33.894 6.167 32.7711C5.0117 31.6158 4.95391 30.1656 5.14508 29.0886C5.24126 28.5468 5.40315 28.0763 5.53967 27.7426C5.60828 27.5749 5.67141 27.4395 5.7183 27.3444C5.74177 27.2968 5.76125 27.2591 5.77542 27.2324C5.78251 27.219 5.78828 27.2083 5.79255 27.2005L5.79784 27.1909L5.79961 27.1877L5.80027 27.1865C5.80027 27.1865 5.80078 27.1856 6.30654 27.4703L5.80078 27.1856C5.8267 27.1396 5.85879 27.0973 5.89616 27.0599L12.6206 20.3355C12.6976 20.2585 12.7948 20.2047 12.9009 20.1803L16.0658 19.4529ZM6.77887 27.8187C6.773 27.8302 6.76648 27.8433 6.75936 27.8577C6.72282 27.9318 6.67109 28.0425 6.61395 28.1821C6.49899 28.4631 6.36586 28.8525 6.28793 29.2915C6.13089 30.1761 6.20852 31.1711 6.98774 31.9504C7.79943 32.7621 8.72946 32.8997 9.48953 32.8294C9.87286 32.794 10.2062 32.7052 10.4438 32.6249C10.5619 32.585 10.6544 32.5478 10.7153 32.5216C10.7171 32.5208 10.7207 32.5193 10.7207 32.5193L17.6356 25.6044L18.2935 22.8873L16.0163 20.6552L13.3234 21.2741L6.77887 27.8187Z" fill="#333333"/>
<path fill-rule="evenodd" clip-rule="evenodd" d="M13.7586 23.2372C13.9852 23.4639 13.9852 23.8313 13.7586 24.058L8.59727 29.2193C8.37062 29.4459 8.00316 29.4459 7.77652 29.2193C7.54988 28.9927 7.54988 28.6252 7.77652 28.3986L12.9378 23.2372C13.1645 23.0106 13.5319 23.0106 13.7586 23.2372Z" fill="#333333"/>
<path fill-rule="evenodd" clip-rule="evenodd" d="M15.7009 25.1718C15.9275 25.3984 15.9275 25.7659 15.7009 25.9925L10.5318 31.1615C10.3052 31.3882 9.9377 31.3882 9.71106 31.1615C9.48442 30.9349 9.48442 30.5674 9.71106 30.3408L14.8801 25.1718C15.1068 24.9451 15.4742 24.9451 15.7009 25.1718Z" fill="#333333"/>
</svg>
