<svg width="34" height="42" viewBox="0 0 34 42" fill="none" xmlns="http://www.w3.org/2000/svg">
<path d="M6 6.08569C6 4.42884 7.34315 3.08569 9 3.08569H28V31.0857H9C7.34315 31.0857 6 29.7425 6 28.0857V6.08569Z" fill="white"/>
<path fill-rule="evenodd" clip-rule="evenodd" d="M6.32782 26.6794V6.13567C6.34204 5.45112 6.56915 4.9036 6.934 4.52892C7.29827 4.15483 7.82744 3.92448 8.50004 3.92448H8.97227V25.6132H8.92316C7.94898 25.6142 6.97309 25.9957 6.32782 26.6794ZM9.72782 25.6132H27.6723V3.92448H9.72782V25.6132ZM8.92934 26.3809L8.92693 26.3809C7.51087 26.3809 6.32782 27.3067 6.32782 28.5882C6.32782 29.8699 7.5112 30.7954 8.92316 30.7954H27.6723V28.972H9.35004C9.1414 28.972 8.97227 28.8002 8.97227 28.5882C8.97227 28.3762 9.1414 28.2043 9.35004 28.2043H27.6723V26.3809H8.92934ZM28.4278 3.54061V28.5882V31.1793C28.4278 31.3913 28.2587 31.5632 28.05 31.5632H8.92316C7.25244 31.5632 5.57227 30.4388 5.57227 28.5882V6.13174L5.57234 6.12408C5.58909 5.27105 5.87559 4.52431 6.39692 3.98893C6.91948 3.45229 7.6502 3.15674 8.50004 3.15674H28.05C28.2587 3.15674 28.4278 3.3286 28.4278 3.54061Z" fill="#333333"/>
</svg>