<svg width="202" height="202" viewBox="0 0 202 202" fill="none" xmlns="http://www.w3.org/2000/svg">
<g opacity="0.25">
<path d="M81.021 183.627H80.516C79.8499 183.539 79.2448 183.194 78.8296 182.665C78.4145 182.137 78.2223 181.467 78.294 180.799L80.011 166.609C80.3991 164.542 80.6354 162.449 80.718 160.347C76.7802 161.261 72.9281 162.511 69.204 164.084H68.5475C60.821 166.912 54.963 166.609 50.721 163.68C46.479 160.751 44.257 153.277 45.166 142.722C45.671 137.369 45.166 134.137 44.358 133.127C43.55 132.117 40.621 132.42 37.086 132.774C35.1925 133.134 33.2353 132.946 31.4456 132.23C29.656 131.514 28.1085 130.301 26.986 128.734C25.8006 126.764 25.1997 124.499 25.2533 122.201C25.307 119.903 26.013 117.667 27.289 115.755C31.7835 106.867 45.469 78.0823 47.489 68.9923C49.9635 58.2863 53.246 51.2668 67.3355 35.7633C81.425 20.2598 116.371 15.1088 143.54 25.9663C170.709 36.8238 175.81 67.6793 176.618 93.4343C177.628 124.492 151.822 146.661 146.318 150.903L144.5 171.103L157.074 169.639C157.406 169.602 157.741 169.632 158.061 169.725C158.382 169.818 158.681 169.973 158.941 170.182C159.201 170.391 159.418 170.649 159.578 170.941C159.739 171.233 159.84 171.554 159.877 171.886C159.913 172.218 159.884 172.553 159.791 172.873C159.698 173.194 159.542 173.493 159.334 173.753C159.125 174.013 158.867 174.23 158.575 174.39C158.282 174.551 157.961 174.652 157.63 174.689L141.975 176.456C141.606 176.509 141.23 176.472 140.878 176.349C140.527 176.226 140.21 176.02 139.955 175.749C139.674 175.499 139.459 175.184 139.327 174.833C139.195 174.481 139.15 174.102 139.197 173.729L141.369 149.489C141.467 148.779 141.827 148.13 142.379 147.671C142.682 147.671 172.376 124.946 171.416 93.7373C170.456 57.6803 161.215 38.2883 141.621 30.6628C116.371 20.9163 84.253 24.7543 71.2745 39.1468C57.3365 54.4988 54.8115 60.5588 52.64 70.1538C50.216 80.7588 34.864 112.271 31.935 118.028C31.1597 119.165 30.6919 120.484 30.5768 121.855C30.4618 123.227 30.7035 124.605 31.2785 125.855C31.9129 126.615 32.7401 127.189 33.6732 127.518C34.6063 127.846 35.6108 127.918 36.581 127.724C41.0755 127.269 45.3175 126.865 48.0445 129.542C50.7715 132.218 51.024 135.652 50.3675 143.177C49.61 151.61 50.8725 157.317 53.953 159.64C57.0335 161.963 60.821 161.559 66.8305 159.387L67.4365 159.135C77.9405 155.246 81.526 154.085 84.1015 156.054C86.677 158.024 85.9195 161.104 85.0105 167.215V168.78L83.5965 181.405C83.5106 182.025 83.2018 182.593 82.7278 183.002C82.2538 183.411 81.647 183.633 81.021 183.627Z" fill="#333333"/>
<path d="M66.8304 185.647C66.231 185.653 65.6498 185.442 65.1946 185.051C64.7395 184.661 64.4415 184.119 64.3559 183.526C64.3057 183.198 64.3208 182.863 64.4003 182.54C64.4798 182.218 64.6221 181.914 64.8191 181.647C65.0162 181.379 65.264 181.153 65.5485 180.982C65.8329 180.811 66.1484 180.697 66.4769 180.648L94.4034 176.709C94.7325 176.651 95.0699 176.661 95.3951 176.738C95.7203 176.814 96.0267 176.956 96.2956 177.154C96.5646 177.352 96.7907 177.603 96.9602 177.891C97.1297 178.179 97.2391 178.498 97.2819 178.83C97.3698 179.491 97.1979 180.16 96.8023 180.697C96.4067 181.234 95.8183 181.596 95.1609 181.708L67.2344 185.799L66.8304 185.647Z" fill="#333333"/>
<path d="M109.452 103.231C105.16 103.253 100.992 101.793 97.6519 99.0971C94.3118 96.4012 92.0049 92.6348 91.1209 88.4346C91.0545 88.1096 91.0528 87.7747 91.1159 87.4491C91.1789 87.1235 91.3055 86.8135 91.4884 86.5368C91.6713 86.2601 91.9069 86.0222 92.1818 85.8366C92.4567 85.651 92.7654 85.5213 93.0904 85.4551C93.4159 85.3816 93.7528 85.3746 94.081 85.4347C94.4092 85.4947 94.7218 85.6205 95.0001 85.8045C95.2785 85.9885 95.5167 86.2268 95.7005 86.5052C95.8844 86.7836 96.01 87.0963 96.0699 87.4246C96.5854 89.9207 97.7979 92.2197 99.5667 94.0548C101.336 95.89 103.588 97.1862 106.064 97.7932C108.539 98.4001 111.136 98.293 113.553 97.4842C115.971 96.6754 118.109 95.198 119.721 93.2234C121.332 91.2488 122.351 88.8578 122.659 86.3276C122.968 83.7975 122.552 81.2318 121.462 78.9281C120.371 76.6243 118.65 74.6769 116.497 73.3116C114.345 71.9463 111.85 71.219 109.301 71.2141C106.615 71.2067 103.991 72.017 101.776 73.5371C101.212 73.9052 100.525 74.0373 99.8646 73.9052C99.2037 73.773 98.621 73.387 98.2414 72.8301C97.876 72.2734 97.7452 71.5949 97.8776 70.9423C98.0101 70.2897 98.3949 69.7158 98.9484 69.3456C101.927 67.3119 105.442 66.2049 109.048 66.1641C113.964 66.1641 118.678 68.1167 122.154 71.5924C125.629 75.0681 127.582 79.7822 127.582 84.6976C127.582 89.613 125.629 94.327 122.154 97.8027C118.678 101.278 113.964 103.231 109.048 103.231H109.452Z" fill="#333333"/>
<path d="M116.371 137.369H102.635C102.031 137.363 101.449 137.141 100.995 136.742C100.541 136.344 100.245 135.796 100.161 135.198L98.7466 124.542C95.3777 123.642 92.1367 122.319 89.1011 120.603L80.2131 127.017C79.7304 127.361 79.1421 127.524 78.5512 127.478C77.9604 127.431 77.4045 127.179 76.9811 126.764L67.3861 117.169C66.9709 116.713 66.7408 116.119 66.7408 115.503C66.7408 114.886 66.9709 114.292 67.3861 113.836L73.9006 105.302C72.0799 102.139 70.7034 98.7401 69.8101 95.2016L59.1546 93.8381C58.5431 93.7534 57.9824 93.4519 57.5745 92.9884C57.1667 92.525 56.9389 91.9304 56.9326 91.3131V77.9306C56.9389 77.3133 57.1667 76.7187 57.5745 76.2553C57.9824 75.7918 58.5431 75.4903 59.1546 75.4056L69.8101 73.9916C70.7188 70.6418 72.042 67.4186 73.7491 64.3966L67.1336 55.5086C66.7761 55.0217 66.605 54.4228 66.6513 53.8205C66.6977 53.2183 66.9584 52.6526 67.3861 52.2261L76.9811 42.6311C77.4419 42.2263 78.0343 42.003 78.6476 42.003C79.261 42.003 79.8533 42.2263 80.3141 42.6311L88.7981 49.1961C91.9591 47.3595 95.3576 45.9661 98.8981 45.0551L100.312 34.3996C100.386 33.7971 100.68 33.243 101.136 32.8426C101.592 32.4422 102.18 32.2235 102.787 32.2281H116.371C116.978 32.2235 117.566 32.4422 118.022 32.8426C118.478 33.243 118.771 33.7971 118.846 34.3996L120.26 45.0551C123.8 45.9661 127.199 47.3595 130.36 49.1961L138.844 42.6311C139.304 42.2263 139.897 42.003 140.51 42.003C141.123 42.003 141.716 42.2263 142.177 42.6311L151.721 52.2261C152.122 52.6787 152.344 53.2626 152.344 53.8673C152.344 54.4721 152.122 55.056 151.721 55.5086L145.156 64.0936C146.981 67.2545 148.358 70.6537 149.247 74.1936L159.902 75.6076C160.514 75.6923 161.074 75.9938 161.482 76.4573C161.89 76.9207 162.118 77.5153 162.124 78.1326V91.6666C162.118 92.2839 161.89 92.8784 161.482 93.3419C161.074 93.8054 160.514 94.1069 159.902 94.1916L149.247 95.5551C148.369 98.9314 147.045 102.175 145.308 105.201L151.721 113.887C152.089 114.369 152.267 114.971 152.22 115.576C152.173 116.181 151.906 116.748 151.469 117.169L141.874 126.764C141.408 127.159 140.818 127.376 140.207 127.376C139.597 127.376 139.006 127.159 138.541 126.764L130.057 120.199C126.885 122.014 123.49 123.406 119.957 124.34L118.543 134.996C118.513 135.582 118.28 136.14 117.884 136.573C117.487 137.006 116.953 137.288 116.371 137.369ZM105.009 132.319H114.149L115.462 122.219C115.544 121.705 115.773 121.225 116.123 120.84C116.473 120.454 116.928 120.179 117.432 120.048C121.532 119.146 125.445 117.54 128.996 115.301C129.424 114.996 129.936 114.833 130.461 114.833C130.986 114.833 131.497 114.996 131.925 115.301L140.056 121.563L146.52 115.048L140.409 106.564C140.127 106.147 139.976 105.654 139.976 105.15C139.976 104.646 140.127 104.154 140.409 103.736C142.589 100.281 144.145 96.4688 145.005 92.4746C145.133 92.0916 145.351 91.7449 145.641 91.4637C145.931 91.1825 146.284 90.975 146.671 90.8586L156.771 89.4951V80.4051L146.671 79.0416C146.161 78.9636 145.686 78.7342 145.308 78.383C144.93 78.0318 144.666 77.5751 144.55 77.0721C143.634 72.9682 142.01 69.0551 139.753 65.5076C139.459 65.0849 139.302 64.5828 139.302 64.0683C139.302 63.5539 139.459 63.0518 139.753 62.6291L145.964 54.4986L139.904 47.7821L131.774 54.0441C131.346 54.3486 130.834 54.5122 130.309 54.5122C129.784 54.5122 129.272 54.3486 128.845 54.0441C125.32 51.6884 121.404 49.9785 117.28 48.9941C116.774 48.8851 116.314 48.6232 115.961 48.2438C115.609 47.8644 115.382 47.3859 115.311 46.8731L113.998 36.7731H104.857L103.544 46.8731C103.48 47.3886 103.255 47.8709 102.902 48.2516C102.548 48.6323 102.084 48.892 101.575 48.9941C97.4542 49.9885 93.5401 51.6978 90.0101 54.0441C89.5933 54.3517 89.0889 54.5176 88.5709 54.5176C88.0528 54.5176 87.5484 54.3517 87.1316 54.0441L79.0011 47.7821L72.4866 54.2966L78.5971 62.7806C78.8817 63.1878 79.0344 63.6726 79.0344 64.1693C79.0344 64.6661 78.8817 65.1509 78.5971 65.5581C76.4464 69.0286 74.893 72.8352 74.0016 76.8196C73.8926 77.3257 73.6307 77.7861 73.2513 78.1384C72.8719 78.4907 72.3934 78.7179 71.8806 78.7891L61.7806 80.1526V89.2426L71.8806 90.6061C72.3893 90.667 72.8666 90.8844 73.2465 91.2281C73.6264 91.5718 73.8902 92.025 74.0016 92.5251C74.9076 96.6481 76.5315 100.58 78.7991 104.14C79.0923 104.563 79.2495 105.065 79.2495 105.579C79.2495 106.094 79.0923 106.596 78.7991 107.019L72.5371 115.149L79.0011 121.664L87.4851 115.503C87.9074 115.233 88.398 115.089 88.8991 115.089C89.4002 115.089 89.8909 115.233 90.3131 115.503C93.7732 117.674 97.5835 119.228 101.575 120.098C102.085 120.217 102.547 120.488 102.898 120.876C103.25 121.264 103.476 121.75 103.544 122.27L105.009 132.319Z" fill="#333333"/>
</g>
</svg>
