<?xml version="1.0" standalone="no"?>
<!DOCTYPE svg PUBLIC "-//W3C//DTD SVG 1.1//EN" "http://www.w3.org/Graphics/SVG/1.1/DTD/svg11.dtd">                                                                        
<svg width="24" height="24" viewBox="0 0 24 24" fill="none" xmlns="http://www.w3.org/2000/svg">
<path fill-rule="evenodd" clip-rule="evenodd" d="M4.21119 22.0241C3.75231 22.0241 3.29343 21.924 2.83455 21.6236C1.54968 20.8227 1.0908 18.9204 1.82501 17.5188L9.62597 3.30182L9.62598 3.30181C9.9013 2.90133 10.1766 2.50086 10.5437 2.30062C11.1862 1.90015 11.9204 1.80003 12.6546 2.00027C13.3888 2.2005 13.9394 2.7011 14.3983 3.40194L22.1075 17.5188C22.3828 18.0194 22.4746 18.5199 22.4746 19.0205C22.4746 19.8215 22.1993 20.6225 21.6486 21.123C21.1897 21.7238 20.5473 22.0241 19.8131 22.0241H4.21119ZM11.9741 15.0201C11.1353 15.0201 10.576 14.3875 10.576 13.4385V7.11246C10.576 6.16355 11.3933 5.64697 11.9741 5.64697C12.5549 5.64697 13.3721 6.16355 13.3721 7.11246V13.4385C13.3721 14.3875 12.8129 15.0201 11.9741 15.0201ZM13.5795 18.5C13.5795 19.3284 12.9079 20 12.0795 20C11.251 20 10.5795 19.3284 10.5795 18.5C10.5795 17.6716 11.251 17 12.0795 17C12.9079 17 13.5795 17.6716 13.5795 18.5Z" fill="#efb61e"/>
<path fill-rule="evenodd" clip-rule="evenodd" d="M10.6001 13.4416C10.6001 14.3905 11.1593 15.0231 11.9981 15.0231C12.837 15.0231 13.3962 14.3905 13.3962 13.4416V7.11548C13.3962 6.16657 12.5789 5.64999 11.9981 5.64999C11.4173 5.64999 10.6001 6.16657 10.6001 7.11548V13.4416ZM12.1035 20.003C12.9319 20.003 13.6035 19.3314 13.6035 18.503C13.6035 17.6746 12.9319 17.003 12.1035 17.003C11.2751 17.003 10.6035 17.6746 10.6035 18.503C10.6035 19.3314 11.2751 20.003 12.1035 20.003Z" fill="white"/>
</svg>

