<svg width="16" height="12" viewBox="0 0 16 12" fill="none" xmlns="http://www.w3.org/2000/svg">
<path fill-rule="evenodd" clip-rule="evenodd" d="M2.2212 0.249434H13.8525C14.02 0.245142 14.1867 0.274793 14.3424 0.336612C14.499 0.398775 14.6413 0.492164 14.7607 0.611092C14.88 0.730019 14.9739 0.871996 15.0366 1.02838C15.0991 1.184 15.1293 1.35064 15.1256 1.51825V8.83926C15.1299 9.00714 15.1001 9.17416 15.038 9.33022C14.9756 9.48713 14.8818 9.62966 14.7623 9.74908C14.6429 9.8685 14.5004 9.96231 14.3435 10.0247C14.1874 10.0868 14.0204 10.1166 13.8526 10.1123H2.22119C2.0537 10.1166 1.88708 10.087 1.73134 10.0251C1.57473 9.96297 1.43242 9.86958 1.31307 9.75065C1.19371 9.63173 1.09981 9.48975 1.03709 9.33337C0.974669 9.17774 0.944422 9.01109 0.948164 8.84347V1.52247C0.943848 1.35459 0.973633 1.18758 1.03573 1.03153C1.09817 0.874611 1.19197 0.732081 1.31139 0.612661C1.43081 0.49324 1.57334 0.39944 1.73026 0.336998C1.88631 0.274903 2.05333 0.245117 2.2212 0.249434ZM13.8551 0.442219V0.635004H2.21862C2.21682 0.635004 2.21502 0.634978 2.21323 0.634928C2.09683 0.631672 1.981 0.652197 1.87282 0.695247C1.76463 0.738297 1.66636 0.802966 1.58403 0.8853C1.5017 0.967633 1.43703 1.0659 1.39398 1.17409C1.35093 1.28227 1.3304 1.3981 1.33366 1.5145C1.33371 1.51629 1.33373 1.51809 1.33373 1.51989V8.84571L1.33368 8.8504C1.33086 8.96653 1.3517 9.08202 1.39495 9.18983C1.43819 9.29765 1.50293 9.39553 1.58522 9.47753C1.6675 9.55952 1.76562 9.62391 1.87359 9.66676C1.98156 9.70962 2.09713 9.73005 2.21324 9.72682C2.21503 9.72677 2.21683 9.72674 2.21862 9.72674H13.8551C13.8559 9.72674 13.8567 9.72675 13.8576 9.72676C13.8585 9.72677 13.8595 9.72679 13.8605 9.72682C13.9769 9.73007 14.0927 9.70955 14.2009 9.6665C14.3091 9.62345 14.4074 9.55878 14.4897 9.47645C14.572 9.39411 14.6367 9.29585 14.6798 9.18766C14.7228 9.07947 14.7433 8.96364 14.7401 8.84725C14.74 8.84545 14.74 8.84366 14.74 8.84186V1.51603L14.7401 1.51135C14.7429 1.39522 14.722 1.27973 14.6788 1.17191C14.6355 1.0641 14.5708 0.966213 14.4885 0.884219C14.4062 0.802225 14.3081 0.737839 14.2001 0.694981C14.0922 0.652124 13.9766 0.631691 13.8605 0.634929L13.8551 0.442219Z" fill="#333333"/>
<path fill-rule="evenodd" clip-rule="evenodd" d="M4.39697 11.685C4.39697 11.5785 4.48329 11.4922 4.58976 11.4922H11.4837C11.5902 11.4922 11.6765 11.5785 11.6765 11.685C11.6765 11.7914 11.5902 11.8778 11.4837 11.8778H4.58976C4.48329 11.8778 4.39697 11.7914 4.39697 11.685Z" fill="#333333"/>
<path fill-rule="evenodd" clip-rule="evenodd" d="M10.1923 9.73047C10.2988 9.73047 10.3851 9.81678 10.3851 9.92325V11.6853C10.3851 11.7918 10.2988 11.8781 10.1923 11.8781C10.0858 11.8781 9.99951 11.7918 9.99951 11.6853V9.92325C9.99951 9.81678 10.0858 9.73047 10.1923 9.73047Z" fill="#333333"/>
<path fill-rule="evenodd" clip-rule="evenodd" d="M5.88175 9.73047C5.98822 9.73047 6.07454 9.81678 6.07454 9.92325V11.6853C6.07454 11.7918 5.98822 11.8781 5.88175 11.8781C5.77528 11.8781 5.68896 11.7918 5.68896 11.6853V9.92325C5.68896 9.81678 5.77528 9.73047 5.88175 9.73047Z" fill="#333333"/>
<path fill-rule="evenodd" clip-rule="evenodd" d="M0.948242 8.41349C0.948242 8.30702 1.03455 8.2207 1.14103 8.2207H14.9329C15.0393 8.2207 15.1256 8.30702 15.1256 8.41349C15.1256 8.51996 15.0393 8.60627 14.9329 8.60627H1.14103C1.03455 8.60627 0.948242 8.51996 0.948242 8.41349Z" fill="#333333"/>
<path fill-rule="evenodd" clip-rule="evenodd" d="M6.69338 2.32405C5.81712 2.32405 5.10676 3.0344 5.10676 3.91067C5.10676 4.78693 5.81712 5.49729 6.69338 5.49729C7.56965 5.49729 8.28 4.78693 8.28 3.91067C8.28 3.0344 7.56965 2.32405 6.69338 2.32405ZM4.72119 3.91067C4.72119 2.82146 5.60417 1.93848 6.69338 1.93848C7.78259 1.93848 8.66557 2.82146 8.66557 3.91067C8.66557 4.99988 7.78259 5.88286 6.69338 5.88286C5.60417 5.88286 4.72119 4.99988 4.72119 3.91067Z" fill="#333333"/>
<path fill-rule="evenodd" clip-rule="evenodd" d="M10.5946 4.7661C10.7809 4.64552 11.0075 4.60391 11.2246 4.65042C11.4416 4.69692 11.6313 4.82774 11.7518 5.01408C11.8724 5.20043 11.914 5.42704 11.8675 5.64407C11.8216 5.85855 11.6933 6.04631 11.5104 6.16706L8.5913 8.38765C8.50656 8.45212 8.38561 8.43568 8.32115 8.35094C8.25668 8.2662 8.27312 8.14525 8.35786 8.08078L11.2824 5.85604C11.2863 5.85309 11.2903 5.85028 11.2944 5.84762C11.3949 5.7826 11.4654 5.68032 11.4905 5.56328C11.5156 5.44624 11.4932 5.32404 11.4281 5.22354C11.3631 5.12305 11.2608 5.05251 11.1438 5.02743C11.0275 5.0025 10.9061 5.02451 10.8059 5.0886L8.58339 6.60817C8.55134 6.63009 8.51341 6.64181 8.47458 6.64181H4.91384C4.91181 6.64181 4.90978 6.64178 4.90774 6.64172C4.86676 6.64042 4.82595 6.64752 4.78781 6.66257C4.74968 6.67762 4.71502 6.70031 4.68597 6.72925C4.65693 6.75819 4.6341 6.79276 4.61891 6.83084C4.60371 6.86892 4.59646 6.9097 4.5976 6.95069C4.59765 6.95248 4.59768 6.95426 4.59768 6.95605V8.22844C4.59768 8.33491 4.51136 8.42122 4.40489 8.42122C4.29842 8.42122 4.21211 8.33491 4.21211 8.22844V6.95852C4.20992 6.86597 4.22648 6.77392 4.2608 6.68792C4.29548 6.60102 4.34757 6.52213 4.41385 6.45609C4.48014 6.39006 4.55923 6.33828 4.64626 6.30392C4.73226 6.26998 4.82423 6.25376 4.91664 6.25624H8.41498L10.5905 4.76881C10.5919 4.76789 10.5932 4.76699 10.5946 4.7661Z" fill="#333333"/>
<path fill-rule="evenodd" clip-rule="evenodd" d="M9.29785 2.64005C9.29785 2.53358 9.38416 2.44727 9.49064 2.44727H12.5443C12.6508 2.44727 12.7371 2.53358 12.7371 2.64005C12.7371 2.74652 12.6508 2.83284 12.5443 2.83284H9.49064C9.38416 2.83284 9.29785 2.74652 9.29785 2.64005Z" fill="#333333"/>
<path fill-rule="evenodd" clip-rule="evenodd" d="M9.29785 3.65568C9.29785 3.5492 9.38416 3.46289 9.49064 3.46289H11.7809C11.8874 3.46289 11.9737 3.5492 11.9737 3.65568C11.9737 3.76215 11.8874 3.84846 11.7809 3.84846H9.49064C9.38416 3.84846 9.29785 3.76215 9.29785 3.65568Z" fill="#333333"/>
<path fill-rule="evenodd" clip-rule="evenodd" d="M12.6995 4.30535C12.7625 4.39121 12.7439 4.51186 12.6581 4.57482L11.7038 5.27463C11.6179 5.3376 11.4973 5.31904 11.4343 5.23318C11.3713 5.14732 11.3899 5.02667 11.4758 4.96371L12.43 4.2639C12.5159 4.20093 12.6366 4.21949 12.6995 4.30535Z" fill="#333333"/>
</svg>
