<svg width="38" height="41" viewBox="0 0 38 41" fill="none" xmlns="http://www.w3.org/2000/svg">
<path fill-rule="evenodd" clip-rule="evenodd" d="M17.5498 4.094C9.6211 4.094 3.19361 10.5215 3.19361 18.4502C3.19361 26.3789 9.6211 32.8064 17.5498 32.8064C25.4785 32.8064 31.906 26.3789 31.906 18.4502C31.906 10.5215 25.4785 4.094 17.5498 4.094ZM1.7998 18.4502C1.7998 9.75171 8.85132 2.7002 17.5498 2.7002C26.2483 2.7002 33.2998 9.75171 33.2998 18.4502C33.2998 27.1487 26.2483 34.2002 17.5498 34.2002C8.85132 34.2002 1.7998 27.1487 1.7998 18.4502ZM17.5498 11.7002C17.7983 11.7002 17.9998 12.0086 17.9998 12.389V18.0002H23.611C23.9914 18.0002 24.2998 18.2017 24.2998 18.4502C24.2998 18.6987 23.9914 18.9002 23.611 18.9002H17.9998V24.5114C17.9998 24.8918 17.7983 25.2002 17.5498 25.2002C17.3013 25.2002 17.0998 24.8918 17.0998 24.5114V18.9002H11.4886C11.1082 18.9002 10.7998 18.6987 10.7998 18.4502C10.7998 18.2017 11.1082 18.0002 11.4886 18.0002H17.0998V12.389C17.0998 12.0086 17.3013 11.7002 17.5498 11.7002Z" fill="#333333"/>
<path fill-rule="evenodd" clip-rule="evenodd" d="M37.0007 41.0003L27.0007 31.0003L27.9199 30.0811L37.9199 40.0811L37.0007 41.0003Z" fill="#333333"/>
</svg>
