<svg width="183" height="106" viewBox="0 0 183 106" fill="none" xmlns="http://www.w3.org/2000/svg">
<rect width="183" height="106" fill="#92C83E"/>
<ellipse cx="92" cy="94" rx="32" ry="3" fill="#82B337"/>
<path d="M78.4833 54.3233L83.687 53.0406L92.3973 60.946L90.4497 66.2061C86.6087 70.4605 78.3947 79.2333 76.2673 80.2895C73.6081 81.6098 72.7217 82.0499 66.9601 80.2895C62.3508 78.8812 63.5622 71.4874 64.7441 67.9665L78.4833 54.3233Z" fill="white"/>
<path d="M79.2342 49.158L112.604 80.5906C116.933 83.0354 120.872 79.4265 122.525 77.0981L121.623 71.8593L89.155 40.4267C89.5245 33.393 86.0853 27.3085 81.9398 25.147C77.9034 23.0424 70.6661 24.2739 70.2152 25.5836L79.2342 33.8783L73.8228 39.5536L64.3529 30.8223C62.5491 35.6245 63.0909 41.4676 66.1566 44.3558C69.407 47.4179 76.4979 49.5301 79.2342 49.158Z" fill="white"/>
<path fill-rule="evenodd" clip-rule="evenodd" d="M79.6213 48.9295L79.6186 48.9293L79.6213 48.9295Z" fill="white"/>
<path fill-rule="evenodd" clip-rule="evenodd" d="M79.6213 48.9295L79.6186 48.9293L79.6213 48.9295Z" fill="url(#paint0_linear)"/>
<path fill-rule="evenodd" clip-rule="evenodd" d="M119.316 23.1348C119.78 22.8971 120.351 22.9794 120.723 23.3376L124.711 27.1798C125.083 27.5391 125.168 28.0914 124.919 28.5393L120.277 36.8845C120.098 37.2074 119.77 37.4288 119.393 37.4809L115.129 38.0719L101.901 50.788C101.874 50.8134 101.847 50.8375 101.818 50.8603L101.838 50.8793L101.063 51.6253L99.3717 49.9952L99.3865 49.981L96.2474 46.9076C95.7874 46.4572 95.7895 45.7339 96.2521 45.286L109.434 32.5242L110.048 28.4147C110.102 28.0507 110.334 27.7335 110.671 27.561L119.316 23.1348Z" fill="white"/>
<path fill-rule="evenodd" clip-rule="evenodd" d="M119.316 23.1348C119.78 22.8971 120.351 22.9794 120.723 23.3376L124.711 27.1798C125.083 27.5391 125.168 28.0914 124.919 28.5393L120.277 36.8845C120.098 37.2074 119.77 37.4288 119.393 37.4809L115.129 38.0719L101.901 50.788C101.874 50.8134 101.847 50.8375 101.818 50.8603L101.838 50.8793L101.063 51.6253L99.3717 49.9952L99.3865 49.981L96.2474 46.9076C95.7874 46.4572 95.7895 45.7339 96.2521 45.286L109.434 32.5242L110.048 28.4147C110.102 28.0507 110.334 27.7335 110.671 27.561L119.316 23.1348Z" fill="url(#paint1_linear)"/>
<path d="M63.4835 31.95L64.2185 32.0992L63.4835 31.95ZM63.2952 32.8777L62.5602 32.7285C62.5556 32.7508 62.5521 32.7733 62.5497 32.7959L63.2952 32.8777ZM64.3145 31.0651L64.5216 31.786H64.5216L64.3145 31.0651ZM65.509 31.3681L66.0388 30.8372L65.509 31.3681ZM72.9496 38.7947L73.4794 38.2639L73.4794 38.2639L72.9496 38.7947ZM73.0419 38.8985L73.6311 38.4345L73.6311 38.4345L73.0419 38.8985ZM73.3502 39.1588L72.9901 39.8167H72.9901L73.3502 39.1588ZM73.7394 39.2804L73.6599 40.0262H73.6599L73.7394 39.2804ZM74.1466 39.2437L73.9347 38.5243L73.9347 38.5243L74.1466 39.2437ZM74.4745 39.0793L74.9252 39.6787C74.9498 39.6602 74.9733 39.6402 74.9954 39.6188L74.4745 39.0793ZM78.6497 35.048L79.1707 35.5875C79.1935 35.5655 79.2149 35.542 79.2348 35.5172L78.6497 35.048ZM78.8208 34.73L79.5351 34.9586V34.9586L78.8208 34.73ZM78.862 34.3338L79.6081 34.2568V34.2568L78.862 34.3338ZM78.7407 33.9532L78.0873 34.3215L78.0873 34.3215L78.7407 33.9532ZM78.4758 33.6487L78.0188 34.2433L78.0188 34.2433L78.4758 33.6487ZM78.3824 33.5688L77.8662 34.1129L77.8662 34.1129L78.3824 33.5688ZM70.7352 26.3117L71.2514 25.7677V25.7677L70.7352 26.3117ZM71.3027 24.3597L71.4655 25.0918L71.3027 24.3597ZM72.276 24.1432L72.1154 23.4106L72.1132 23.4111L72.276 24.1432ZM75.1324 23.8374L75.1306 24.5874L75.1322 24.5874L75.1324 23.8374ZM80.9795 25.1025L81.2901 24.4199V24.4199L80.9795 25.1025ZM80.9914 25.1079L81.3094 24.4287L81.302 24.4253L80.9914 25.1079ZM84.9111 27.8142L85.4345 27.277L85.4345 27.277L84.9111 27.8142ZM84.957 27.8615L84.4043 28.3685L84.4043 28.3685L84.957 27.8615ZM85.0734 27.9884L84.5207 28.4954C84.5252 28.5003 84.5298 28.5052 84.5344 28.51L85.0734 27.9884ZM88.3402 33.3952L89.0533 33.1626L88.3402 33.3952ZM88.8809 39.5878L88.1384 39.4819C88.135 39.5061 88.1327 39.5305 88.1316 39.555L88.8809 39.5878ZM88.8574 39.8569L89.6019 39.948L89.6022 39.9452L88.8574 39.8569ZM88.8531 39.8923L88.1086 39.8011C88.08 40.0347 88.1627 40.2681 88.3319 40.4316L88.8531 39.8923ZM120.513 70.4831L119.991 71.0226L120.002 71.0321L120.513 70.4831ZM121.999 72.5673L121.312 72.8698V72.8698L121.999 72.5673ZM121.999 77.5551L121.312 77.2526V77.2526L121.999 77.5551ZM120.513 79.6389L120.002 79.0899L119.992 79.0995L120.513 79.6389ZM116.663 81.4637L116.745 82.2092H116.745L116.663 81.4637ZM113.534 80.9248L113.258 81.6222L113.534 80.9248ZM111.255 79.6519L110.813 80.2578L110.813 80.2578L111.255 79.6519ZM110.606 79.1393L110.117 79.7088L110.117 79.7088L110.606 79.1393ZM110.424 78.9791L109.918 79.5328L109.918 79.5329L110.424 78.9791ZM110.372 78.9311L109.857 79.4759L109.858 79.4775L110.372 78.9311ZM110.356 78.916L109.838 79.4578L109.841 79.4608L110.356 78.916ZM110.351 78.9109L109.831 79.4518L109.832 79.4527L110.351 78.9109ZM79.4463 48.945L79.9684 48.4065C79.8022 48.2453 79.5708 48.1699 79.3415 48.2023L79.4463 48.945ZM79.3014 48.9675L79.4116 49.7094L79.421 49.7079L79.3014 48.9675ZM79.2706 48.972L79.3713 49.7153L79.3807 49.7139L79.2706 48.972ZM72.8272 48.4422L72.606 49.1588H72.606L72.8272 48.4422ZM67.2704 45.2784L67.7752 44.7238C67.7687 44.7179 67.7621 44.7121 67.7554 44.7064L67.2704 45.2784ZM67.1593 45.1843L67.6444 44.6122L67.6444 44.6122L67.1593 45.1843ZM67.094 45.1246L66.5674 45.6586H66.5674L67.094 45.1246ZM64.3557 41.3134L65.0304 40.9858L65.0275 40.98L64.3557 41.3134ZM63 35.5653L62.2545 35.4834C62.2515 35.5109 62.25 35.5385 62.25 35.5662L63 35.5653ZM120.723 23.3376L121.243 22.7975V22.7975L120.723 23.3376ZM119.316 23.1348L119.658 23.8024L119.658 23.8024L119.316 23.1348ZM124.711 27.1798L124.19 27.7199L124.19 27.7199L124.711 27.1798ZM124.919 28.5393L124.264 28.1748V28.1748L124.919 28.5393ZM120.277 36.8845L119.622 36.5199V36.5199L120.277 36.8845ZM119.393 37.4809L119.29 36.738V36.738L119.393 37.4809ZM115.129 38.0719L115.026 37.329C114.869 37.3507 114.724 37.4215 114.609 37.5312L115.129 38.0719ZM101.901 50.788L102.42 51.3287L102.42 51.3287L101.901 50.788ZM101.818 50.8603L101.351 50.2737C101.182 50.4084 101.079 50.6093 101.069 50.8251C101.059 51.0409 101.142 51.2505 101.298 51.4004L101.818 50.8603ZM101.838 50.8793L102.358 51.4194C102.505 51.278 102.588 51.083 102.588 50.8792C102.588 50.6755 102.505 50.4805 102.358 50.3391L101.838 50.8793ZM101.063 51.6253L100.543 52.1654C100.834 52.4453 101.293 52.4453 101.584 52.1654L101.063 51.6253ZM99.3717 49.9952L98.8512 49.4553C98.7045 49.5967 98.6217 49.7916 98.6217 49.9953C98.6217 50.199 98.7046 50.394 98.8513 50.5353L99.3717 49.9952ZM99.3865 49.981L99.907 50.521C100.053 50.3803 100.136 50.1866 100.136 49.9839C100.137 49.7813 100.056 49.5869 99.9112 49.4451L99.3865 49.981ZM96.2474 46.9076L95.7227 47.4435L96.2474 46.9076ZM96.2521 45.286L96.7738 45.8249L96.7738 45.8249L96.2521 45.286ZM109.434 32.5242L109.956 33.0631C110.075 32.9484 110.152 32.798 110.176 32.6349L109.434 32.5242ZM110.048 28.4147L109.306 28.304V28.304L110.048 28.4147ZM110.671 27.561L110.329 26.8934V26.8934L110.671 27.561ZM91.1652 65.6347L90.4394 65.4457L90.4378 65.4519L91.1652 65.6347ZM90.8484 66.1785L91.3688 66.7186L91.3688 66.7186L90.8484 66.1785ZM76.2061 80.2869L75.6857 79.7468H75.6857L76.2061 80.2869ZM75.9016 80.4997L76.2301 81.1739L76.2311 81.1734L75.9016 80.4997ZM75.8968 80.502L76.2231 81.1773L76.2254 81.1763L75.8968 80.502ZM75.8901 80.5053L76.2121 81.1826L76.2164 81.1806L75.8901 80.5053ZM75.8708 80.5145L76.1905 81.1929L76.1928 81.1918L75.8708 80.5145ZM75.8094 80.5428L75.4999 79.8597L75.4999 79.8597L75.8094 80.5428ZM75.5994 80.6336L75.8865 81.3265L75.8865 81.3264L75.5994 80.6336ZM74.8611 80.9048L74.6288 80.1917H74.6288L74.8611 80.9048ZM72.3481 81.4226L72.4147 82.1697H72.4147L72.3481 81.4226ZM65.2791 79.0113L64.7587 79.5514H64.7587L65.2791 79.0113ZM63.1726 71.6975L63.9102 71.8334H63.9102L63.1726 71.6975ZM63.986 69.0242L64.6763 69.3173H64.6763L63.986 69.0242ZM64.3542 68.2333L65.0218 68.575L65.0218 68.575L64.3542 68.2333ZM64.4719 68.0108L65.1292 68.372L65.1292 68.372L64.4719 68.0108ZM64.5072 67.9475L63.8559 67.5756L63.8548 67.5775L64.5072 67.9475ZM64.5181 67.9284L63.8688 67.5531L63.8668 67.5565L64.5181 67.9284ZM64.5218 67.9221L63.8734 67.545L63.8724 67.5468L64.5218 67.9221ZM64.7208 67.6682L65.2412 68.2083L65.2412 68.2083L64.7208 67.6682ZM78.5816 54.3129L78.0612 53.7728L78.0612 53.7728L78.5816 54.3129ZM79.1595 54.0046L79.3217 54.7368C79.3316 54.7346 79.3416 54.7322 79.3514 54.7296L79.1595 54.0046ZM69.4796 70.9599C69.1813 71.2474 69.1725 71.7222 69.4599 72.0204C69.7474 72.3187 70.2222 72.3275 70.5204 72.0401L69.4796 70.9599ZM81.0204 61.9219C81.3187 61.6344 81.3275 61.1596 81.0401 60.8614C80.7526 60.5631 80.2778 60.5543 79.9796 60.8417L81.0204 61.9219ZM85.0045 65.055C85.311 64.7763 85.3336 64.302 85.055 63.9955C84.7763 63.689 84.302 63.6664 83.9955 63.945L85.0045 65.055ZM72.9955 73.945C72.689 74.2237 72.6664 74.698 72.945 75.0045C73.2237 75.311 73.698 75.3336 74.0045 75.055L72.9955 73.945ZM82.7562 30.0502L82.7786 30.074L83.8698 29.0448L83.8474 29.0211L82.7562 30.0502ZM78.8125 45.9436C78.809 45.9442 78.8069 45.9445 78.8042 45.945L79.0451 47.4255C79.0479 47.425 79.0515 47.4245 79.0538 47.4241L78.8125 45.9436ZM62.7485 31.8008L62.5602 32.7285L64.0302 33.0269L64.2185 32.0992L62.7485 31.8008ZM64.1074 30.3443C63.4229 30.541 62.8917 31.0954 62.7485 31.8008L64.2185 32.0992C64.2465 31.961 64.3556 31.8337 64.5216 31.786L64.1074 30.3443ZM66.0388 30.8372C65.5337 30.3331 64.7902 30.1481 64.1074 30.3443L64.5216 31.786C64.6894 31.7378 64.8662 31.7862 64.9791 31.8989L66.0388 30.8372ZM73.4794 38.2639L66.0388 30.8372L64.9791 31.8989L72.4197 39.3256L73.4794 38.2639ZM73.6311 38.4345C73.5839 38.3746 73.5333 38.3177 73.4794 38.2639L72.4197 39.3256C72.4316 39.3374 72.4426 39.3498 72.4527 39.3626L73.6311 38.4345ZM73.7104 38.5009C73.678 38.4832 73.6513 38.4602 73.6311 38.4345L72.4527 39.3626C72.5995 39.5491 72.7827 39.7031 72.9901 39.8167L73.7104 38.5009ZM73.8189 38.5346C73.7798 38.5304 73.7428 38.5187 73.7104 38.5009L72.9901 39.8167C73.1975 39.9302 73.4253 40.0012 73.6599 40.0262L73.8189 38.5346ZM73.9347 38.5243C73.8976 38.5352 73.8581 38.5388 73.8189 38.5346L73.6599 40.0262C73.8945 40.0512 74.132 40.0298 74.3585 39.9631L73.9347 38.5243ZM74.0237 38.4798C73.9981 38.4991 73.968 38.5144 73.9347 38.5243L74.3585 39.9631C74.5628 39.903 74.7549 39.8068 74.9252 39.6787L74.0237 38.4798ZM78.1288 34.5084L73.9535 38.5397L74.9954 39.6188L79.1707 35.5875L78.1288 34.5084ZM78.1065 34.5015C78.0979 34.5283 78.084 34.5546 78.0646 34.5788L79.2348 35.5172C79.3679 35.3512 79.47 35.1621 79.5351 34.9586L78.1065 34.5015ZM78.116 34.4107C78.1191 34.4409 78.116 34.4717 78.1065 34.5015L79.5351 34.9586C79.6076 34.7322 79.6325 34.4934 79.6081 34.2568L78.116 34.4107ZM78.0873 34.3215C78.1034 34.3502 78.1129 34.3805 78.116 34.4107L79.6081 34.2568C79.5837 34.0202 79.5105 33.7917 79.394 33.5849L78.0873 34.3215ZM78.0188 34.2433C78.0483 34.266 78.0711 34.2929 78.0873 34.3215L79.394 33.5849C79.2775 33.3782 79.1203 33.198 78.9328 33.054L78.0188 34.2433ZM77.8662 34.1129C77.9148 34.159 77.9657 34.2025 78.0188 34.2433L78.9328 33.054C78.9208 33.0448 78.9095 33.035 78.8987 33.0248L77.8662 34.1129ZM70.2189 26.8557L77.8662 34.1129L78.8987 33.0248L71.2514 25.7677L70.2189 26.8557ZM69.7015 24.9632C69.5035 25.6441 69.7074 26.3703 70.2189 26.8557L71.2514 25.7677C71.1399 25.6618 71.1034 25.5144 71.1419 25.382L69.7015 24.9632ZM71.1398 23.6276C70.4569 23.7795 69.8988 24.2846 69.7015 24.9632L71.1419 25.382C71.1811 25.2472 71.2986 25.1289 71.4655 25.0918L71.1398 23.6276ZM75.1342 23.0874C74.1187 23.0849 73.1061 23.1933 72.1154 23.4106L72.4367 24.8758C73.3205 24.682 74.2242 24.5852 75.1306 24.5874L75.1342 23.0874ZM81.2901 24.4199C79.3625 23.5427 77.2603 23.0881 75.1327 23.0874L75.1322 24.5874C77.0469 24.588 78.9373 24.9972 80.6688 25.7852L81.2901 24.4199ZM81.302 24.4253L81.2901 24.4199L80.6688 25.7852L80.6808 25.7906L81.302 24.4253ZM85.4345 27.277C84.2343 26.1079 82.8394 25.145 81.3094 24.4287L80.6734 25.7872C82.0531 26.4331 83.3088 27.3004 84.3878 28.3514L85.4345 27.277ZM85.5097 27.3546C85.4854 27.328 85.4603 27.3021 85.4345 27.277L84.3878 28.3514C84.3935 28.357 84.399 28.3627 84.4043 28.3685L85.5097 27.3546ZM85.6261 27.4815L85.5097 27.3545L84.4043 28.3685L84.5207 28.4954L85.6261 27.4815ZM89.0533 33.1626C88.3598 31.0364 87.1833 29.0902 85.6124 27.4669L84.5344 28.51C85.9489 29.9717 87.0053 31.7208 87.6272 33.6277L89.0533 33.1626ZM89.6234 39.6936C89.9358 37.5026 89.7411 35.2714 89.0533 33.1626L87.6272 33.6277C88.244 35.5189 88.4184 37.5185 88.1384 39.4819L89.6234 39.6936ZM89.6022 39.9452C89.6104 39.8757 89.6243 39.7557 89.6302 39.6205L88.1316 39.555C88.1283 39.6314 88.1201 39.7053 88.1126 39.7685L89.6022 39.9452ZM89.5975 39.9834L89.6019 39.948L88.113 39.7657L88.1086 39.8011L89.5975 39.9834ZM121.034 69.9438L89.3742 39.3529L88.3319 40.4316L119.991 71.0225L121.034 69.9438ZM122.685 72.2648C122.297 71.386 121.732 70.5936 121.024 69.9342L120.002 71.0321C120.563 71.5544 121.008 72.1796 121.312 72.8698L122.685 72.2648ZM123.275 75.0612C123.275 74.0993 123.074 73.1479 122.685 72.2648L121.312 72.8698C121.618 73.5633 121.775 74.3087 121.775 75.0612H123.275ZM122.685 77.8577C123.074 76.9745 123.275 76.0232 123.275 75.0612H121.775C121.775 75.8137 121.618 76.5591 121.312 77.2526L122.685 77.8577ZM121.024 80.1878C121.732 79.5285 122.298 78.7362 122.685 77.8577L121.312 77.2526C121.008 77.9426 120.563 78.5678 120.002 79.09L121.024 80.1878ZM116.745 82.2092C118.15 82.0545 119.759 81.4098 121.034 80.1783L119.992 79.0995C118.976 80.0814 117.683 80.5968 116.581 80.7183L116.745 82.2092ZM113.258 81.6222C114.239 82.0104 115.329 82.3652 116.745 82.2092L116.581 80.7183C115.53 80.834 114.715 80.5857 113.81 80.2275L113.258 81.6222ZM110.813 80.2578C111.393 80.6803 112.238 81.2182 113.258 81.6222L113.81 80.2275C112.943 79.8842 112.21 79.4203 111.697 79.0459L110.813 80.2578ZM110.117 79.7088C110.284 79.8516 110.52 80.0436 110.813 80.2578L111.697 79.0459C111.44 78.858 111.235 78.6909 111.094 78.5698L110.117 79.7088ZM109.918 79.5329C109.967 79.5775 110.034 79.6372 110.117 79.7088L111.094 78.5698C111.023 78.5092 110.968 78.46 110.93 78.4253L109.918 79.5329ZM109.858 79.4775C109.874 79.4921 109.894 79.5107 109.918 79.5328L110.93 78.4254C110.911 78.4079 110.896 78.3942 110.886 78.3846L109.858 79.4775ZM109.841 79.4608L109.857 79.4759L110.888 78.3863L110.872 78.3712L109.841 79.4608ZM109.832 79.4527L109.838 79.4578L110.875 78.3743L110.87 78.3691L109.832 79.4527ZM109.829 79.4498L109.831 79.4518L110.871 78.37L110.868 78.3681L109.829 79.4498ZM79.421 49.7079C79.4781 49.6987 79.5164 49.6925 79.5512 49.6876L79.3415 48.2023C79.2891 48.2097 79.2353 48.2184 79.1818 48.2271L79.421 49.7079ZM79.3807 49.7139L79.4116 49.7093L79.1913 48.2256L79.1604 48.2302L79.3807 49.7139ZM72.606 49.1588C74.7901 49.8329 77.102 50.0229 79.3713 49.7153L79.1698 48.2288C77.1159 48.5073 75.0238 48.3352 73.0483 47.7255L72.606 49.1588ZM66.7655 45.8331C68.4335 47.3512 70.4293 48.487 72.606 49.1588L73.0483 47.7255C71.0797 47.1179 69.2782 46.0917 67.7752 44.7238L66.7655 45.8331ZM66.6742 45.7563L66.7853 45.8505L67.7554 44.7064L67.6444 44.6122L66.6742 45.7563ZM66.5674 45.6586C66.6018 45.6925 66.6374 45.725 66.6742 45.7563L67.6444 44.6122C67.6361 44.6053 67.6282 44.598 67.6207 44.5905L66.5674 45.6586ZM63.681 41.641C64.4036 43.1291 65.3797 44.4873 66.5674 45.6586L67.6207 44.5905C66.5532 43.5378 65.6777 42.319 65.0304 40.9858L63.681 41.641ZM62.25 35.5662C62.2525 37.6725 62.7429 39.7505 63.6839 41.6468L65.0275 40.98C64.1884 39.2891 63.7522 37.4385 63.75 35.5644L62.25 35.5662ZM63.7455 35.6472L64.0407 32.9596L62.5497 32.7959L62.2545 35.4834L63.7455 35.6472ZM79.6613 48.1806L79.6585 48.1804L79.5786 49.6783L79.5814 49.6784L79.6613 48.1806ZM72.1132 23.4111L71.1398 23.6276L71.4655 25.0918L72.4389 24.8753L72.1132 23.4111ZM78.9243 49.4834L109.825 79.4459L110.869 78.369L79.9684 48.4065L78.9243 49.4834ZM121.243 22.7975C120.638 22.2139 119.719 22.0855 118.974 22.4672L119.658 23.8024C119.841 23.7086 120.065 23.7448 120.203 23.8777L121.243 22.7975ZM125.231 26.6397L121.243 22.7975L120.203 23.8777L124.19 27.7199L125.231 26.6397ZM125.574 28.9039C125.991 28.1543 125.845 27.2316 125.231 26.6397L124.19 27.7199C124.322 27.8467 124.345 28.0285 124.264 28.1748L125.574 28.9039ZM120.933 37.249L125.574 28.9039L124.264 28.1748L119.622 36.5199L120.933 37.249ZM119.496 38.2238C120.098 38.1404 120.635 37.7846 120.933 37.249L119.622 36.5199C119.561 36.6302 119.441 36.7171 119.29 36.738L119.496 38.2238ZM115.232 38.8148L119.496 38.2238L119.29 36.738L115.026 37.329L115.232 38.8148ZM102.42 51.3287L115.649 38.6126L114.609 37.5312L101.381 50.2473L102.42 51.3287ZM102.285 51.4468C102.332 51.4097 102.377 51.3704 102.42 51.3287L101.381 50.2473C101.371 50.2565 101.361 50.2653 101.351 50.2737L102.285 51.4468ZM102.358 50.3391L102.338 50.3201L101.298 51.4004L101.317 51.4194L102.358 50.3391ZM101.584 52.1654L102.358 51.4194L101.317 50.3392L100.543 51.0853L101.584 52.1654ZM98.8513 50.5353L100.543 52.1654L101.584 51.0853L99.8921 49.4552L98.8513 50.5353ZM98.866 49.441L98.8512 49.4553L99.8922 50.5352L99.907 50.521L98.866 49.441ZM95.7227 47.4435L98.8618 50.5169L99.9112 49.4451L96.7721 46.3717L95.7227 47.4435ZM95.7305 44.7471C94.9647 45.4885 94.961 46.6977 95.7227 47.4435L96.7721 46.3717C96.6138 46.2167 96.6143 45.9793 96.7738 45.8249L95.7305 44.7471ZM108.913 31.9853L95.7305 44.7471L96.7738 45.8249L109.956 33.0631L108.913 31.9853ZM109.306 28.304L108.693 32.4135L110.176 32.6349L110.79 28.5255L109.306 28.304ZM110.329 26.8934C109.784 27.1724 109.397 27.6927 109.306 28.304L110.79 28.5255C110.807 28.4088 110.883 28.2947 111.012 28.2286L110.329 26.8934ZM118.974 22.4672L110.329 26.8934L111.012 28.2286L119.658 23.8024L118.974 22.4672ZM99.0525 48.6378L96.7721 46.4051L95.7227 47.4769L98.0031 49.7096L99.0525 48.6378ZM91.891 65.8237L92.9985 61.5708L91.547 61.1928L90.4394 65.4457L91.891 65.8237ZM91.3688 66.7186C91.6235 66.4732 91.806 66.1619 91.8926 65.8175L90.4378 65.4519C90.4209 65.5192 90.3842 65.5843 90.328 65.6384L91.3688 66.7186ZM76.7264 80.827L91.3688 66.7186L90.328 65.6384L75.6857 79.7468L76.7264 80.827ZM76.2311 81.1734C76.413 81.0845 76.5804 80.9678 76.7264 80.827L75.6857 79.7468C75.6534 79.778 75.6152 79.8049 75.5721 79.826L76.2311 81.1734ZM76.2164 81.1806L76.2231 81.1773L75.5706 79.8267L75.5638 79.83L76.2164 81.1806ZM76.1928 81.1918L76.2121 81.1826L75.5681 79.8279L75.5488 79.8371L76.1928 81.1918ZM76.119 81.2259C76.1481 81.2128 76.172 81.2016 76.1905 81.1929L75.5511 79.836C75.5388 79.8418 75.5216 79.8498 75.4999 79.8597L76.119 81.2259ZM75.8865 81.3264C75.9831 81.2864 76.0611 81.2522 76.119 81.2259L75.4999 79.8597C75.4561 79.8795 75.393 79.9073 75.3123 79.9407L75.8865 81.3264ZM75.0934 81.6179C75.4249 81.5099 75.6937 81.4063 75.8865 81.3265L75.3124 79.9407C75.1512 80.0075 74.919 80.0971 74.6288 80.1917L75.0934 81.6179ZM72.4147 82.1697C73.5045 82.0725 74.4351 81.8324 75.0934 81.6179L74.6288 80.1917C74.0494 80.3804 73.2322 80.5909 72.2815 80.6756L72.4147 82.1697ZM64.7587 79.5514C67.2754 81.9764 70.2169 82.3656 72.4147 82.1697L72.2815 80.6756C70.3713 80.8459 67.9117 80.5064 65.7994 78.4712L64.7587 79.5514ZM62.435 71.5616C62.0168 73.8315 62.1247 77.0135 64.7587 79.5514L65.7994 78.4712C63.6706 76.42 63.5403 73.8413 63.9102 71.8334L62.435 71.5616ZM63.2956 68.731C62.9995 69.4285 62.6459 70.4169 62.435 71.5616L63.9102 71.8334C64.0958 70.826 64.4096 69.9454 64.6763 69.3173L63.2956 68.731ZM63.6865 67.8917C63.5828 68.0944 63.4449 68.3795 63.2956 68.731L64.6763 69.3173C64.8099 69.0027 64.9322 68.7501 65.0218 68.575L63.6865 67.8917ZM63.8146 67.6496C63.7821 67.7088 63.7384 67.7902 63.6865 67.8917L65.0218 68.575C65.0667 68.4874 65.1033 68.4191 65.1292 68.372L63.8146 67.6496ZM63.8548 67.5775C63.8444 67.5958 63.8309 67.6199 63.8146 67.6496L65.1292 68.372C65.1421 68.3485 65.1524 68.3302 65.1596 68.3175L63.8548 67.5775ZM63.8668 67.5565L63.8559 67.5756L65.1585 68.3194L65.1694 68.3003L63.8668 67.5565ZM63.8724 67.5468L63.8688 67.5531L65.1675 68.3037L65.1711 68.2974L63.8724 67.5468ZM63.8748 67.5427L63.8734 67.545L65.1701 68.2991L65.1715 68.2968L63.8748 67.5427ZM64.2004 67.1281C64.0742 67.2497 63.9651 67.3881 63.8766 67.5396L65.1718 68.2962C65.1901 68.2649 65.2133 68.2352 65.2412 68.2083L64.2004 67.1281ZM78.0612 53.7728L64.2004 67.1282L65.2412 68.2083L79.102 54.853L78.0612 53.7728ZM78.9974 53.2723C78.646 53.3501 78.3212 53.5223 78.0612 53.7728L79.102 54.853C79.1596 54.7974 79.2353 54.756 79.3217 54.7368L78.9974 53.2723ZM83.2923 52.1351L78.9677 53.2795L79.3514 54.7296L83.676 53.5852L83.2923 52.1351ZM85.0662 55.4931L89.76 59.9264L90.79 58.8359L86.0962 54.4027L85.0662 55.4931ZM76.2254 81.1763L76.2301 81.1739L75.5731 79.8255L75.5683 79.8278L76.2254 81.1763ZM79.9796 60.8417L69.4796 70.9599L70.5204 72.0401L81.0204 61.9219L79.9796 60.8417ZM74.0045 75.055L85.0045 65.055L83.9955 63.945L72.9955 73.945L74.0045 75.055Z" fill="#0B3C61"/>
<defs>
<linearGradient id="paint0_linear" x1="92.7626" y1="23.8373" x2="92.7626" y2="81.4637" gradientUnits="userSpaceOnUse">
<stop stop-color="white"/>
<stop offset="1" stop-color="white" stop-opacity="0"/>
</linearGradient>
<linearGradient id="paint1_linear" x1="92.7626" y1="23.8373" x2="92.7626" y2="81.4637" gradientUnits="userSpaceOnUse">
<stop stop-color="white"/>
<stop offset="1" stop-color="white" stop-opacity="0"/>
</linearGradient>
</defs>
</svg>
