<svg width="911" height="173" viewBox="0 0 911 173" fill="none" xmlns="http://www.w3.org/2000/svg">
<path d="M406.275 165.304H402.105L401.169 167.902H399.815L403.616 157.948H404.765L408.572 167.902H407.226L406.275 165.304ZM402.502 164.224H405.886L404.19 159.569L402.502 164.224ZM409.673 167.239C409.673 167.02 409.737 166.837 409.864 166.692C409.996 166.546 410.192 166.473 410.452 166.473C410.712 166.473 410.908 166.546 411.04 166.692C411.177 166.837 411.245 167.02 411.245 167.239C411.245 167.448 411.177 167.624 411.04 167.765C410.908 167.906 410.712 167.977 410.452 167.977C410.192 167.977 409.996 167.906 409.864 167.765C409.737 167.624 409.673 167.448 409.673 167.239ZM409.68 161.202C409.68 160.984 409.743 160.801 409.871 160.656C410.003 160.51 410.199 160.437 410.459 160.437C410.719 160.437 410.915 160.51 411.047 160.656C411.184 160.801 411.252 160.984 411.252 161.202C411.252 161.412 411.184 161.587 411.047 161.729C410.915 161.87 410.719 161.941 410.459 161.941C410.199 161.941 410.003 161.87 409.871 161.729C409.743 161.587 409.68 161.412 409.68 161.202ZM420.07 166.158L422.914 157.948H424.35L420.658 167.902H419.496L415.812 157.948H417.24L420.07 166.158ZM426.865 167.902H425.601V160.505H426.865V167.902ZM425.498 158.543C425.498 158.338 425.56 158.165 425.683 158.024C425.81 157.882 425.997 157.812 426.243 157.812C426.489 157.812 426.676 157.882 426.804 158.024C426.931 158.165 426.995 158.338 426.995 158.543C426.995 158.748 426.931 158.919 426.804 159.056C426.676 159.193 426.489 159.261 426.243 159.261C425.997 159.261 425.81 159.193 425.683 159.056C425.56 158.919 425.498 158.748 425.498 158.543ZM431.965 168.038C430.962 168.038 430.146 167.71 429.518 167.054C428.889 166.393 428.574 165.511 428.574 164.408V164.176C428.574 163.442 428.713 162.788 428.991 162.214C429.274 161.635 429.666 161.184 430.167 160.861C430.673 160.532 431.22 160.368 431.808 160.368C432.769 160.368 433.517 160.685 434.05 161.319C434.583 161.952 434.85 162.859 434.85 164.039V164.566H429.839C429.857 165.295 430.069 165.885 430.475 166.336C430.885 166.783 431.404 167.006 432.033 167.006C432.48 167.006 432.858 166.915 433.168 166.733C433.478 166.55 433.749 166.309 433.981 166.008L434.754 166.61C434.134 167.562 433.204 168.038 431.965 168.038ZM431.808 161.407C431.297 161.407 430.869 161.594 430.522 161.968C430.176 162.337 429.962 162.857 429.88 163.527H433.585V163.431C433.549 162.788 433.375 162.292 433.065 161.941C432.756 161.585 432.336 161.407 431.808 161.407ZM442.868 166.158L444.29 160.505H445.555L443.401 167.902H442.376L440.578 162.296L438.828 167.902H437.803L435.656 160.505H436.914L438.37 166.042L440.093 160.505H441.111L442.868 166.158ZM448.221 167.902H446.956V160.505H448.221V167.902ZM446.854 158.543C446.854 158.338 446.915 158.165 447.038 158.024C447.166 157.882 447.353 157.812 447.599 157.812C447.845 157.812 448.032 157.882 448.159 158.024C448.287 158.165 448.351 158.338 448.351 158.543C448.351 158.748 448.287 158.919 448.159 159.056C448.032 159.193 447.845 159.261 447.599 159.261C447.353 159.261 447.166 159.193 447.038 159.056C446.915 158.919 446.854 158.748 446.854 158.543ZM451.447 160.505L451.488 161.435C452.053 160.724 452.792 160.368 453.703 160.368C455.266 160.368 456.055 161.25 456.068 163.014V167.902H454.804V163.007C454.799 162.474 454.676 162.08 454.435 161.824C454.198 161.569 453.826 161.442 453.32 161.442C452.91 161.442 452.55 161.551 452.24 161.77C451.93 161.989 451.689 162.276 451.516 162.631V167.902H450.251V160.505H451.447ZM457.675 164.142C457.675 162.989 457.941 162.073 458.475 161.394C459.008 160.71 459.714 160.368 460.594 160.368C461.496 160.368 462.2 160.687 462.706 161.325L462.768 160.505H463.923V167.724C463.923 168.681 463.638 169.435 463.068 169.987C462.503 170.538 461.742 170.814 460.785 170.814C460.252 170.814 459.73 170.7 459.22 170.472C458.709 170.244 458.32 169.932 458.051 169.535L458.707 168.777C459.249 169.447 459.912 169.781 460.696 169.781C461.312 169.781 461.79 169.608 462.132 169.262C462.478 168.916 462.651 168.428 462.651 167.799V167.163C462.146 167.747 461.455 168.038 460.58 168.038C459.714 168.038 459.012 167.69 458.475 166.992C457.941 166.295 457.675 165.345 457.675 164.142ZM458.946 164.285C458.946 165.119 459.117 165.776 459.459 166.254C459.801 166.728 460.279 166.965 460.895 166.965C461.692 166.965 462.278 166.603 462.651 165.878V162.501C462.264 161.795 461.683 161.442 460.908 161.442C460.293 161.442 459.812 161.681 459.466 162.159C459.119 162.638 458.946 163.347 458.946 164.285ZM473.876 167.902C473.803 167.756 473.744 167.496 473.698 167.122C473.11 167.733 472.409 168.038 471.593 168.038C470.864 168.038 470.264 167.833 469.795 167.423C469.33 167.008 469.098 166.484 469.098 165.851C469.098 165.081 469.389 164.484 469.973 164.06C470.561 163.631 471.385 163.417 472.447 163.417H473.678V162.836C473.678 162.394 473.546 162.043 473.281 161.783C473.017 161.519 472.627 161.387 472.112 161.387C471.661 161.387 471.283 161.501 470.978 161.729C470.672 161.957 470.52 162.232 470.52 162.556H469.248C469.248 162.187 469.378 161.831 469.638 161.49C469.902 161.143 470.257 160.87 470.704 160.669C471.155 160.469 471.65 160.368 472.188 160.368C473.04 160.368 473.707 160.583 474.19 161.011C474.674 161.435 474.924 162.02 474.942 162.768V166.172C474.942 166.851 475.029 167.391 475.202 167.792V167.902H473.876ZM471.777 166.938C472.174 166.938 472.55 166.835 472.905 166.63C473.261 166.425 473.518 166.158 473.678 165.83V164.313H472.687C471.137 164.313 470.362 164.766 470.362 165.673C470.362 166.07 470.494 166.379 470.759 166.603C471.023 166.826 471.363 166.938 471.777 166.938ZM478.121 160.505L478.162 161.435C478.727 160.724 479.465 160.368 480.377 160.368C481.94 160.368 482.729 161.25 482.742 163.014V167.902H481.478V163.007C481.473 162.474 481.35 162.08 481.108 161.824C480.871 161.569 480.5 161.442 479.994 161.442C479.584 161.442 479.224 161.551 478.914 161.77C478.604 161.989 478.363 162.276 478.189 162.631V167.902H476.925V160.505H478.121ZM484.349 164.142C484.349 162.989 484.615 162.073 485.148 161.394C485.682 160.71 486.388 160.368 487.268 160.368C488.17 160.368 488.874 160.687 489.38 161.325L489.441 160.505H490.597V167.724C490.597 168.681 490.312 169.435 489.742 169.987C489.177 170.538 488.416 170.814 487.459 170.814C486.926 170.814 486.404 170.7 485.894 170.472C485.383 170.244 484.993 169.932 484.725 169.535L485.381 168.777C485.923 169.447 486.586 169.781 487.37 169.781C487.985 169.781 488.464 169.608 488.806 169.262C489.152 168.916 489.325 168.428 489.325 167.799V167.163C488.819 167.747 488.129 168.038 487.254 168.038C486.388 168.038 485.686 167.69 485.148 166.992C484.615 166.295 484.349 165.345 484.349 164.142ZM485.62 164.285C485.62 165.119 485.791 165.776 486.133 166.254C486.475 166.728 486.953 166.965 487.568 166.965C488.366 166.965 488.951 166.603 489.325 165.878V162.501C488.938 161.795 488.357 161.442 487.582 161.442C486.967 161.442 486.486 161.681 486.14 162.159C485.793 162.638 485.62 163.347 485.62 164.285ZM493.885 167.902H492.62V157.402H493.885V167.902ZM498.984 168.038C497.982 168.038 497.166 167.71 496.537 167.054C495.908 166.393 495.594 165.511 495.594 164.408V164.176C495.594 163.442 495.733 162.788 496.011 162.214C496.293 161.635 496.685 161.184 497.187 160.861C497.692 160.532 498.239 160.368 498.827 160.368C499.789 160.368 500.536 160.685 501.069 161.319C501.603 161.952 501.869 162.859 501.869 164.039V164.566H496.858C496.877 165.295 497.089 165.885 497.494 166.336C497.904 166.783 498.424 167.006 499.053 167.006C499.499 167.006 499.878 166.915 500.188 166.733C500.497 166.55 500.769 166.309 501.001 166.008L501.773 166.61C501.154 167.562 500.224 168.038 498.984 168.038ZM498.827 161.407C498.317 161.407 497.888 161.594 497.542 161.968C497.196 162.337 496.981 162.857 496.899 163.527H500.604V163.431C500.568 162.788 500.395 162.292 500.085 161.941C499.775 161.585 499.356 161.407 498.827 161.407ZM503.298 169.884L502.58 169.392C503.008 168.795 503.232 168.18 503.25 167.546V166.405H504.487V167.396C504.487 167.856 504.373 168.316 504.146 168.777C503.922 169.237 503.64 169.606 503.298 169.884ZM509.758 167.902V157.948H512.567C513.433 157.948 514.199 158.14 514.864 158.523C515.53 158.906 516.042 159.45 516.402 160.156C516.767 160.863 516.951 161.674 516.956 162.59V163.226C516.956 164.165 516.774 164.987 516.409 165.694C516.049 166.4 515.532 166.942 514.857 167.321C514.188 167.699 513.406 167.892 512.513 167.902H509.758ZM511.07 159.029V166.828H512.451C513.463 166.828 514.249 166.514 514.81 165.885C515.375 165.256 515.657 164.361 515.657 163.198V162.617C515.657 161.487 515.391 160.61 514.857 159.986C514.329 159.357 513.577 159.038 512.602 159.029H511.07ZM518.706 167.239C518.706 167.02 518.77 166.837 518.897 166.692C519.03 166.546 519.226 166.473 519.485 166.473C519.745 166.473 519.941 166.546 520.073 166.692C520.21 166.837 520.278 167.02 520.278 167.239C520.278 167.448 520.21 167.624 520.073 167.765C519.941 167.906 519.745 167.977 519.485 167.977C519.226 167.977 519.03 167.906 518.897 167.765C518.77 167.624 518.706 167.448 518.706 167.239ZM518.713 161.202C518.713 160.984 518.777 160.801 518.904 160.656C519.036 160.51 519.232 160.437 519.492 160.437C519.752 160.437 519.948 160.51 520.08 160.656C520.217 160.801 520.285 160.984 520.285 161.202C520.285 161.412 520.217 161.587 520.08 161.729C519.948 161.87 519.752 161.941 519.492 161.941C519.232 161.941 519.036 161.87 518.904 161.729C518.777 161.587 518.713 161.412 518.713 161.202ZM529.104 166.158L531.947 157.948H533.383L529.691 167.902H528.529L524.845 157.948H526.273L529.104 166.158ZM535.898 167.902H534.634V160.505H535.898V167.902ZM534.531 158.543C534.531 158.338 534.593 158.165 534.716 158.024C534.843 157.882 535.03 157.812 535.276 157.812C535.522 157.812 535.709 157.882 535.837 158.024C535.965 158.165 536.028 158.338 536.028 158.543C536.028 158.748 535.965 158.919 535.837 159.056C535.709 159.193 535.522 159.261 535.276 159.261C535.03 159.261 534.843 159.193 534.716 159.056C534.593 158.919 534.531 158.748 534.531 158.543ZM540.998 168.038C539.995 168.038 539.18 167.71 538.551 167.054C537.922 166.393 537.607 165.511 537.607 164.408V164.176C537.607 163.442 537.746 162.788 538.024 162.214C538.307 161.635 538.699 161.184 539.2 160.861C539.706 160.532 540.253 160.368 540.841 160.368C541.802 160.368 542.55 160.685 543.083 161.319C543.616 161.952 543.883 162.859 543.883 164.039V164.566H538.872C538.89 165.295 539.102 165.885 539.508 166.336C539.918 166.783 540.438 167.006 541.066 167.006C541.513 167.006 541.891 166.915 542.201 166.733C542.511 166.55 542.782 166.309 543.015 166.008L543.787 166.61C543.167 167.562 542.238 168.038 540.998 168.038ZM540.841 161.407C540.33 161.407 539.902 161.594 539.556 161.968C539.209 162.337 538.995 162.857 538.913 163.527H542.618V163.431C542.582 162.788 542.409 162.292 542.099 161.941C541.789 161.585 541.369 161.407 540.841 161.407ZM551.901 166.158L553.323 160.505H554.588L552.435 167.902H551.409L549.611 162.296L547.861 167.902H546.836L544.689 160.505H545.947L547.403 166.042L549.126 160.505H550.145L551.901 166.158ZM557.254 167.902H555.989V160.505H557.254V167.902ZM555.887 158.543C555.887 158.338 555.948 158.165 556.071 158.024C556.199 157.882 556.386 157.812 556.632 157.812C556.878 157.812 557.065 157.882 557.192 158.024C557.32 158.165 557.384 158.338 557.384 158.543C557.384 158.748 557.32 158.919 557.192 159.056C557.065 159.193 556.878 159.261 556.632 159.261C556.386 159.261 556.199 159.193 556.071 159.056C555.948 158.919 555.887 158.748 555.887 158.543ZM560.48 160.505L560.521 161.435C561.087 160.724 561.825 160.368 562.736 160.368C564.299 160.368 565.088 161.25 565.102 163.014V167.902H563.837V163.007C563.832 162.474 563.709 162.08 563.468 161.824C563.231 161.569 562.859 161.442 562.354 161.442C561.943 161.442 561.583 161.551 561.273 161.77C560.964 161.989 560.722 162.276 560.549 162.631V167.902H559.284V160.505H560.48ZM566.708 164.142C566.708 162.989 566.975 162.073 567.508 161.394C568.041 160.71 568.747 160.368 569.627 160.368C570.529 160.368 571.233 160.687 571.739 161.325L571.801 160.505H572.956V167.724C572.956 168.681 572.671 169.435 572.102 169.987C571.536 170.538 570.775 170.814 569.818 170.814C569.285 170.814 568.763 170.7 568.253 170.472C567.743 170.244 567.353 169.932 567.084 169.535L567.74 168.777C568.283 169.447 568.946 169.781 569.729 169.781C570.345 169.781 570.823 169.608 571.165 169.262C571.511 168.916 571.685 168.428 571.685 167.799V167.163C571.179 167.747 570.488 168.038 569.613 168.038C568.747 168.038 568.046 167.69 567.508 166.992C566.975 166.295 566.708 165.345 566.708 164.142ZM567.979 164.285C567.979 165.119 568.15 165.776 568.492 166.254C568.834 166.728 569.312 166.965 569.928 166.965C570.725 166.965 571.311 166.603 571.685 165.878V162.501C571.297 161.795 570.716 161.442 569.941 161.442C569.326 161.442 568.845 161.681 568.499 162.159C568.153 162.638 567.979 163.347 567.979 164.285ZM578.035 164.142C578.035 163.007 578.304 162.096 578.842 161.407C579.38 160.715 580.084 160.368 580.954 160.368C581.82 160.368 582.506 160.665 583.012 161.257V157.402H584.276V167.902H583.114L583.053 167.109C582.547 167.728 581.843 168.038 580.94 168.038C580.084 168.038 579.384 167.687 578.842 166.986C578.304 166.284 578.035 165.368 578.035 164.238V164.142ZM579.3 164.285C579.3 165.124 579.473 165.78 579.819 166.254C580.166 166.728 580.644 166.965 581.255 166.965C582.057 166.965 582.643 166.605 583.012 165.885V162.488C582.633 161.79 582.052 161.442 581.269 161.442C580.649 161.442 580.166 161.681 579.819 162.159C579.473 162.638 579.3 163.347 579.3 164.285ZM587.619 167.902H586.354V160.505H587.619V167.902ZM586.252 158.543C586.252 158.338 586.313 158.165 586.437 158.024C586.564 157.882 586.751 157.812 586.997 157.812C587.243 157.812 587.43 157.882 587.558 158.024C587.685 158.165 587.749 158.338 587.749 158.543C587.749 158.748 587.685 158.919 587.558 159.056C587.43 159.193 587.243 159.261 586.997 159.261C586.751 159.261 586.564 159.193 586.437 159.056C586.313 158.919 586.252 158.748 586.252 158.543ZM593.956 165.94C593.956 165.598 593.826 165.334 593.566 165.147C593.311 164.955 592.862 164.791 592.22 164.655C591.582 164.518 591.074 164.354 590.695 164.162C590.322 163.971 590.044 163.743 589.861 163.479C589.684 163.214 589.595 162.9 589.595 162.535C589.595 161.929 589.85 161.417 590.36 160.997C590.875 160.578 591.532 160.368 592.329 160.368C593.168 160.368 593.847 160.585 594.366 161.018C594.89 161.451 595.152 162.004 595.152 162.679H593.881C593.881 162.333 593.733 162.034 593.437 161.783C593.145 161.533 592.776 161.407 592.329 161.407C591.869 161.407 591.509 161.508 591.249 161.708C590.989 161.909 590.859 162.171 590.859 162.494C590.859 162.8 590.98 163.03 591.222 163.185C591.463 163.34 591.898 163.488 592.527 163.629C593.161 163.77 593.674 163.939 594.065 164.135C594.457 164.331 594.747 164.568 594.934 164.846C595.125 165.119 595.221 165.454 595.221 165.851C595.221 166.512 594.956 167.043 594.428 167.444C593.899 167.84 593.213 168.038 592.37 168.038C591.778 168.038 591.254 167.934 590.798 167.724C590.342 167.514 589.984 167.223 589.725 166.849C589.469 166.471 589.342 166.063 589.342 165.625H590.606C590.629 166.049 590.798 166.386 591.112 166.637C591.431 166.883 591.851 167.006 592.37 167.006C592.849 167.006 593.231 166.91 593.519 166.719C593.81 166.523 593.956 166.263 593.956 165.94ZM598.584 158.714V160.505H599.965V161.483H598.584V166.07C598.584 166.366 598.646 166.589 598.769 166.74C598.892 166.885 599.101 166.958 599.397 166.958C599.543 166.958 599.744 166.931 599.999 166.876V167.902C599.666 167.993 599.343 168.038 599.028 168.038C598.463 168.038 598.037 167.867 597.75 167.526C597.463 167.184 597.319 166.698 597.319 166.07V161.483H595.973V160.505H597.319V158.714H598.584ZM606.015 167.902C605.942 167.756 605.882 167.496 605.837 167.122C605.249 167.733 604.547 168.038 603.731 168.038C603.002 168.038 602.403 167.833 601.934 167.423C601.469 167.008 601.236 166.484 601.236 165.851C601.236 165.081 601.528 164.484 602.111 164.06C602.699 163.631 603.524 163.417 604.586 163.417H605.816V162.836C605.816 162.394 605.684 162.043 605.42 161.783C605.156 161.519 604.766 161.387 604.251 161.387C603.8 161.387 603.422 161.501 603.116 161.729C602.811 161.957 602.658 162.232 602.658 162.556H601.387C601.387 162.187 601.517 161.831 601.776 161.49C602.041 161.143 602.396 160.87 602.843 160.669C603.294 160.469 603.788 160.368 604.326 160.368C605.178 160.368 605.846 160.583 606.329 161.011C606.812 161.435 607.063 162.02 607.081 162.768V166.172C607.081 166.851 607.168 167.391 607.341 167.792V167.902H606.015ZM603.916 166.938C604.312 166.938 604.688 166.835 605.044 166.63C605.399 166.425 605.657 166.158 605.816 165.83V164.313H604.825C603.276 164.313 602.501 164.766 602.501 165.673C602.501 166.07 602.633 166.379 602.897 166.603C603.162 166.826 603.501 166.938 603.916 166.938ZM610.26 160.505L610.301 161.435C610.866 160.724 611.604 160.368 612.516 160.368C614.079 160.368 614.867 161.25 614.881 163.014V167.902H613.616V163.007C613.612 162.474 613.489 162.08 613.247 161.824C613.01 161.569 612.639 161.442 612.133 161.442C611.723 161.442 611.363 161.551 611.053 161.77C610.743 161.989 610.501 162.276 610.328 162.631V167.902H609.063V160.505H610.26ZM619.755 167.006C620.206 167.006 620.6 166.869 620.938 166.596C621.275 166.323 621.462 165.981 621.498 165.571H622.694C622.672 165.994 622.526 166.398 622.257 166.781C621.988 167.163 621.628 167.469 621.177 167.697C620.73 167.924 620.256 168.038 619.755 168.038C618.748 168.038 617.946 167.703 617.349 167.033C616.756 166.359 616.46 165.438 616.46 164.272V164.06C616.46 163.34 616.592 162.699 616.856 162.139C617.121 161.578 617.499 161.143 617.991 160.833C618.488 160.523 619.074 160.368 619.748 160.368C620.577 160.368 621.266 160.617 621.812 161.114C622.364 161.61 622.658 162.255 622.694 163.048H621.498C621.462 162.57 621.279 162.178 620.951 161.872C620.628 161.562 620.227 161.407 619.748 161.407C619.105 161.407 618.606 161.64 618.251 162.105C617.9 162.565 617.725 163.233 617.725 164.108V164.347C617.725 165.199 617.9 165.855 618.251 166.316C618.602 166.776 619.103 167.006 619.755 167.006ZM627.186 168.038C626.183 168.038 625.367 167.71 624.738 167.054C624.109 166.393 623.795 165.511 623.795 164.408V164.176C623.795 163.442 623.934 162.788 624.212 162.214C624.494 161.635 624.886 161.184 625.388 160.861C625.894 160.532 626.44 160.368 627.028 160.368C627.99 160.368 628.737 160.685 629.271 161.319C629.804 161.952 630.07 162.859 630.07 164.039V164.566H625.06C625.078 165.295 625.29 165.885 625.695 166.336C626.105 166.783 626.625 167.006 627.254 167.006C627.701 167.006 628.079 166.915 628.389 166.733C628.699 166.55 628.97 166.309 629.202 166.008L629.975 166.61C629.355 167.562 628.425 168.038 627.186 168.038ZM627.028 161.407C626.518 161.407 626.09 161.594 625.743 161.968C625.397 162.337 625.183 162.857 625.101 163.527H628.806V163.431C628.769 162.788 628.596 162.292 628.286 161.941C627.976 161.585 627.557 161.407 627.028 161.407ZM631.499 169.884L630.781 169.392C631.21 168.795 631.433 168.18 631.451 167.546V166.405H632.688V167.396C632.688 167.856 632.575 168.316 632.347 168.777C632.123 169.237 631.841 169.606 631.499 169.884ZM645.608 167.902H644.289V163.301H639.271V167.902H637.959V157.948H639.271V162.228H644.289V157.948H645.608V167.902ZM647.7 167.239C647.7 167.02 647.764 166.837 647.892 166.692C648.024 166.546 648.22 166.473 648.479 166.473C648.739 166.473 648.935 166.546 649.067 166.692C649.204 166.837 649.272 167.02 649.272 167.239C649.272 167.448 649.204 167.624 649.067 167.765C648.935 167.906 648.739 167.977 648.479 167.977C648.22 167.977 648.024 167.906 647.892 167.765C647.764 167.624 647.7 167.448 647.7 167.239ZM647.707 161.202C647.707 160.984 647.771 160.801 647.898 160.656C648.031 160.51 648.227 160.437 648.486 160.437C648.746 160.437 648.942 160.51 649.074 160.656C649.211 160.801 649.279 160.984 649.279 161.202C649.279 161.412 649.211 161.587 649.074 161.729C648.942 161.87 648.746 161.941 648.486 161.941C648.227 161.941 648.031 161.87 647.898 161.729C647.771 161.587 647.707 161.412 647.707 161.202ZM662.124 164.743C662.001 165.796 661.611 166.61 660.955 167.184C660.303 167.753 659.435 168.038 658.351 168.038C657.175 168.038 656.231 167.617 655.521 166.774C654.814 165.931 654.461 164.803 654.461 163.39V162.433C654.461 161.508 654.625 160.694 654.953 159.992C655.286 159.291 655.755 158.753 656.361 158.379C656.967 158.001 657.669 157.812 658.467 157.812C659.524 157.812 660.372 158.108 661.01 158.7C661.648 159.288 662.019 160.104 662.124 161.148H660.805C660.691 160.355 660.442 159.781 660.06 159.425C659.681 159.07 659.15 158.892 658.467 158.892C657.628 158.892 656.97 159.202 656.491 159.822C656.017 160.441 655.78 161.323 655.78 162.467V163.431C655.78 164.511 656.006 165.37 656.457 166.008C656.908 166.646 657.539 166.965 658.351 166.965C659.08 166.965 659.638 166.801 660.025 166.473C660.417 166.14 660.677 165.564 660.805 164.743H662.124ZM664.988 161.401C665.549 160.712 666.278 160.368 667.176 160.368C668.739 160.368 669.527 161.25 669.541 163.014V167.902H668.276V163.007C668.272 162.474 668.149 162.08 667.907 161.824C667.67 161.569 667.299 161.442 666.793 161.442C666.383 161.442 666.023 161.551 665.713 161.77C665.403 161.989 665.161 162.276 664.988 162.631V167.902H663.724V157.402H664.988V161.401ZM676.001 167.902C675.928 167.756 675.869 167.496 675.823 167.122C675.235 167.733 674.534 168.038 673.718 168.038C672.989 168.038 672.389 167.833 671.92 167.423C671.455 167.008 671.223 166.484 671.223 165.851C671.223 165.081 671.514 164.484 672.098 164.06C672.686 163.631 673.51 163.417 674.572 163.417H675.803V162.836C675.803 162.394 675.671 162.043 675.406 161.783C675.142 161.519 674.752 161.387 674.237 161.387C673.786 161.387 673.408 161.501 673.103 161.729C672.797 161.957 672.645 162.232 672.645 162.556H671.373C671.373 162.187 671.503 161.831 671.763 161.49C672.027 161.143 672.382 160.87 672.829 160.669C673.28 160.469 673.775 160.368 674.312 160.368C675.165 160.368 675.832 160.583 676.315 161.011C676.799 161.435 677.049 162.02 677.067 162.768V166.172C677.067 166.851 677.154 167.391 677.327 167.792V167.902H676.001ZM673.902 166.938C674.299 166.938 674.675 166.835 675.03 166.63C675.386 166.425 675.643 166.158 675.803 165.83V164.313H674.812C673.262 164.313 672.487 164.766 672.487 165.673C672.487 166.07 672.619 166.379 672.884 166.603C673.148 166.826 673.488 166.938 673.902 166.938ZM682.625 161.64C682.434 161.608 682.226 161.592 682.003 161.592C681.174 161.592 680.611 161.945 680.314 162.652V167.902H679.05V160.505H680.28L680.301 161.36C680.715 160.699 681.303 160.368 682.064 160.368C682.311 160.368 682.497 160.4 682.625 160.464V161.64ZM688.087 167.902C688.014 167.756 687.955 167.496 687.909 167.122C687.321 167.733 686.619 168.038 685.804 168.038C685.075 168.038 684.475 167.833 684.006 167.423C683.541 167.008 683.309 166.484 683.309 165.851C683.309 165.081 683.6 164.484 684.184 164.06C684.771 163.631 685.596 163.417 686.658 163.417H687.889V162.836C687.889 162.394 687.757 162.043 687.492 161.783C687.228 161.519 686.838 161.387 686.323 161.387C685.872 161.387 685.494 161.501 685.188 161.729C684.883 161.957 684.73 162.232 684.73 162.556H683.459C683.459 162.187 683.589 161.831 683.849 161.49C684.113 161.143 684.468 160.87 684.915 160.669C685.366 160.469 685.861 160.368 686.398 160.368C687.251 160.368 687.918 160.583 688.401 161.011C688.884 161.435 689.135 162.02 689.153 162.768V166.172C689.153 166.851 689.24 167.391 689.413 167.792V167.902H688.087ZM685.988 166.938C686.385 166.938 686.761 166.835 687.116 166.63C687.472 166.425 687.729 166.158 687.889 165.83V164.313H686.897C685.348 164.313 684.573 164.766 684.573 165.673C684.573 166.07 684.705 166.379 684.97 166.603C685.234 166.826 685.574 166.938 685.988 166.938ZM694.103 167.006C694.554 167.006 694.948 166.869 695.285 166.596C695.622 166.323 695.809 165.981 695.846 165.571H697.042C697.019 165.994 696.873 166.398 696.604 166.781C696.336 167.163 695.976 167.469 695.524 167.697C695.078 167.924 694.604 168.038 694.103 168.038C693.095 168.038 692.293 167.703 691.696 167.033C691.104 166.359 690.808 165.438 690.808 164.272V164.06C690.808 163.34 690.94 162.699 691.204 162.139C691.468 161.578 691.847 161.143 692.339 160.833C692.836 160.523 693.421 160.368 694.096 160.368C694.925 160.368 695.613 160.617 696.16 161.114C696.712 161.61 697.006 162.255 697.042 163.048H695.846C695.809 162.57 695.627 162.178 695.299 161.872C694.975 161.562 694.574 161.407 694.096 161.407C693.453 161.407 692.954 161.64 692.599 162.105C692.248 162.565 692.072 163.233 692.072 164.108V164.347C692.072 165.199 692.248 165.855 692.599 166.316C692.95 166.776 693.451 167.006 694.103 167.006ZM700.18 158.714V160.505H701.561V161.483H700.18V166.07C700.18 166.366 700.241 166.589 700.364 166.74C700.487 166.885 700.697 166.958 700.993 166.958C701.139 166.958 701.34 166.931 701.595 166.876V167.902C701.262 167.993 700.938 168.038 700.624 168.038C700.059 168.038 699.633 167.867 699.346 167.526C699.059 167.184 698.915 166.698 698.915 166.07V161.483H697.568V160.505H698.915V158.714H700.18ZM706.113 168.038C705.111 168.038 704.295 167.71 703.666 167.054C703.037 166.393 702.723 165.511 702.723 164.408V164.176C702.723 163.442 702.862 162.788 703.14 162.214C703.422 161.635 703.814 161.184 704.315 160.861C704.821 160.532 705.368 160.368 705.956 160.368C706.918 160.368 707.665 160.685 708.198 161.319C708.731 161.952 708.998 162.859 708.998 164.039V164.566H703.987C704.006 165.295 704.217 165.885 704.623 166.336C705.033 166.783 705.553 167.006 706.182 167.006C706.628 167.006 707.007 166.915 707.316 166.733C707.626 166.55 707.897 166.309 708.13 166.008L708.902 166.61C708.283 167.562 707.353 168.038 706.113 168.038ZM705.956 161.407C705.446 161.407 705.017 161.594 704.671 161.968C704.325 162.337 704.11 162.857 704.028 163.527H707.733V163.431C707.697 162.788 707.524 162.292 707.214 161.941C706.904 161.585 706.485 161.407 705.956 161.407ZM714.043 161.64C713.852 161.608 713.644 161.592 713.421 161.592C712.591 161.592 712.029 161.945 711.732 162.652V167.902H710.468V160.505H711.698L711.719 161.36C712.133 160.699 712.721 160.368 713.482 160.368C713.729 160.368 713.915 160.4 714.043 160.464V161.64ZM719.949 161.401C720.51 160.712 721.239 160.368 722.137 160.368C723.7 160.368 724.488 161.25 724.502 163.014V167.902H723.237V163.007C723.233 162.474 723.11 162.08 722.868 161.824C722.631 161.569 722.26 161.442 721.754 161.442C721.344 161.442 720.984 161.551 720.674 161.77C720.364 161.989 720.122 162.276 719.949 162.631V167.902H718.685V157.402H719.949V161.401ZM729.465 168.038C728.462 168.038 727.646 167.71 727.018 167.054C726.389 166.393 726.074 165.511 726.074 164.408V164.176C726.074 163.442 726.213 162.788 726.491 162.214C726.774 161.635 727.166 161.184 727.667 160.861C728.173 160.532 728.72 160.368 729.308 160.368C730.269 160.368 731.017 160.685 731.55 161.319C732.083 161.952 732.35 162.859 732.35 164.039V164.566H727.339C727.357 165.295 727.569 165.885 727.975 166.336C728.385 166.783 728.904 167.006 729.533 167.006C729.98 167.006 730.358 166.915 730.668 166.733C730.978 166.55 731.249 166.309 731.481 166.008L732.254 166.61C731.634 167.562 730.704 168.038 729.465 168.038ZM729.308 161.407C728.797 161.407 728.369 161.594 728.022 161.968C727.676 162.337 727.462 162.857 727.38 163.527H731.085V163.431C731.049 162.788 730.875 162.292 730.565 161.941C730.256 161.585 729.836 161.407 729.308 161.407ZM735.193 167.902H733.929V160.505H735.193V167.902ZM733.826 158.543C733.826 158.338 733.888 158.165 734.011 158.024C734.138 157.882 734.325 157.812 734.571 157.812C734.817 157.812 735.004 157.882 735.132 158.024C735.259 158.165 735.323 158.338 735.323 158.543C735.323 158.748 735.259 158.919 735.132 159.056C735.004 159.193 734.817 159.261 734.571 159.261C734.325 159.261 734.138 159.193 734.011 159.056C733.888 158.919 733.826 158.748 733.826 158.543ZM736.923 164.142C736.923 162.989 737.189 162.073 737.723 161.394C738.256 160.71 738.962 160.368 739.842 160.368C740.744 160.368 741.448 160.687 741.954 161.325L742.016 160.505H743.171V167.724C743.171 168.681 742.886 169.435 742.316 169.987C741.751 170.538 740.99 170.814 740.033 170.814C739.5 170.814 738.978 170.7 738.468 170.472C737.957 170.244 737.568 169.932 737.299 169.535L737.955 168.777C738.497 169.447 739.16 169.781 739.944 169.781C740.56 169.781 741.038 169.608 741.38 169.262C741.726 168.916 741.899 168.428 741.899 167.799V167.163C741.394 167.747 740.703 168.038 739.828 168.038C738.962 168.038 738.26 167.69 737.723 166.992C737.189 166.295 736.923 165.345 736.923 164.142ZM738.194 164.285C738.194 165.119 738.365 165.776 738.707 166.254C739.049 166.728 739.527 166.965 740.143 166.965C740.94 166.965 741.526 166.603 741.899 165.878V162.501C741.512 161.795 740.931 161.442 740.156 161.442C739.541 161.442 739.06 161.681 738.714 162.159C738.368 162.638 738.194 163.347 738.194 164.285ZM746.35 161.401C746.91 160.712 747.639 160.368 748.537 160.368C750.1 160.368 750.889 161.25 750.902 163.014V167.902H749.638V163.007C749.633 162.474 749.51 162.08 749.269 161.824C749.032 161.569 748.66 161.442 748.154 161.442C747.744 161.442 747.384 161.551 747.074 161.77C746.764 161.989 746.523 162.276 746.35 162.631V167.902H745.085V157.402H746.35V161.401ZM754.512 158.714V160.505H755.893V161.483H754.512V166.07C754.512 166.366 754.573 166.589 754.696 166.74C754.819 166.885 755.029 166.958 755.325 166.958C755.471 166.958 755.672 166.931 755.927 166.876V167.902C755.594 167.993 755.271 168.038 754.956 168.038C754.391 168.038 753.965 167.867 753.678 167.526C753.391 167.184 753.247 166.698 753.247 166.07V161.483H751.9V160.505H753.247V158.714H754.512Z" fill="black" fill-opacity="0.7"/>
<rect x="319.402" y="47.6335" width="517.238" height="99.1715" rx="9" fill="#FFA800"/>
<path d="M354.678 134.067L337.588 62.4851H352.383L363.174 111.655L376.26 62.4851H393.447L405.996 112.485L416.982 62.4851H431.533L414.15 134.067H398.818L384.561 80.5515L370.352 134.067H354.678ZM497.939 134.067H482.217L475.967 117.807H447.354L441.445 134.067H426.113L453.994 62.4851H469.277L497.939 134.067ZM471.328 105.747L461.465 79.1843L451.797 105.747H471.328ZM505.703 134.067V62.4851H536.123C543.773 62.4851 549.323 63.1361 552.773 64.4382C556.257 65.7078 559.04 67.9864 561.123 71.2742C563.206 74.5619 564.248 78.3217 564.248 82.5535C564.248 87.9246 562.669 92.3679 559.512 95.8835C556.354 99.3666 551.634 101.564 545.352 102.475C548.477 104.298 551.048 106.3 553.066 108.481C555.117 110.662 557.868 114.536 561.318 120.102L570.059 134.067H552.773L542.324 118.491C538.613 112.925 536.074 109.425 534.707 107.993C533.34 106.528 531.891 105.535 530.361 105.014C528.831 104.461 526.406 104.184 523.086 104.184H520.156V134.067H505.703ZM520.156 92.7585H530.85C537.783 92.7585 542.113 92.4656 543.838 91.8796C545.563 91.2937 546.914 90.2846 547.891 88.8523C548.867 87.42 549.355 85.6296 549.355 83.4812C549.355 81.0723 548.704 79.1355 547.402 77.6707C546.133 76.1733 544.326 75.2292 541.982 74.8386C540.811 74.6759 537.295 74.5945 531.436 74.5945H520.156V92.7585ZM578.066 134.067V62.4851H592.129L621.426 110.288V62.4851H634.854V134.067H620.352L591.494 87.3875V134.067H578.066ZM649.746 134.067V62.4851H664.199V134.067H649.746ZM678.164 134.067V62.4851H692.227L721.523 110.288V62.4851H734.951V134.067H720.449L691.592 87.3875V134.067H678.164ZM783.584 107.749V95.6882H814.736V124.204C811.709 127.134 807.314 129.721 801.553 131.968C795.824 134.181 790.013 135.288 784.121 135.288C776.634 135.288 770.107 133.725 764.541 130.6C758.975 127.443 754.792 122.951 751.992 117.124C749.193 111.264 747.793 104.9 747.793 98.032C747.793 90.5776 749.355 83.9532 752.48 78.1589C755.605 72.3647 760.179 67.9213 766.201 64.8289C770.791 62.4526 776.504 61.2644 783.34 61.2644C792.227 61.2644 799.16 63.1361 804.141 66.8796C809.154 70.5906 812.376 75.7338 813.809 82.3093L799.453 84.9949C798.444 81.4792 796.54 78.7123 793.74 76.6941C790.973 74.6433 787.507 73.6179 783.34 73.6179C777.025 73.6179 771.995 75.6199 768.252 79.6238C764.541 83.6277 762.686 89.5684 762.686 97.446C762.686 105.942 764.574 112.322 768.35 116.587C772.126 120.818 777.074 122.934 783.193 122.934C786.221 122.934 789.248 122.348 792.275 121.177C795.335 119.972 797.956 118.524 800.137 116.831V107.749H783.584Z" fill="#0B3C61"/>
<path d="M57.6016 154.901H57.901C58.2959 154.849 58.6546 154.644 58.9008 154.331C59.1469 154.018 59.2608 153.621 59.2183 153.225L58.2004 144.812C57.9703 143.586 57.8302 142.345 57.7812 141.099C60.1158 141.641 62.3995 142.383 64.6074 143.315H64.9966C69.5774 144.992 73.0503 144.812 75.5653 143.075C78.0802 141.339 79.3975 136.908 78.8586 130.651C78.5592 127.477 78.8586 125.561 79.3376 124.962C79.8167 124.363 81.5532 124.543 83.6489 124.752C84.7715 124.966 85.9318 124.854 86.9929 124.43C88.0539 124.005 88.9713 123.286 89.6368 122.357C90.3396 121.19 90.6959 119.846 90.6641 118.484C90.6323 117.122 90.2137 115.796 89.4572 114.663C86.7926 109.393 78.679 92.328 77.4814 86.9389C76.0143 80.5917 74.0683 76.4301 65.7152 67.2387C57.3621 58.0473 36.644 54.9935 20.5365 61.4305C4.42908 67.8674 1.40519 86.1605 0.926155 101.43C0.32737 119.842 15.6264 132.986 18.8898 135.501L19.9677 147.476L12.5127 146.608C12.3161 146.587 12.1172 146.604 11.9273 146.659C11.7374 146.714 11.5603 146.807 11.406 146.93C11.2517 147.054 11.1233 147.207 11.0281 147.38C10.9328 147.554 10.8727 147.744 10.8511 147.941C10.8295 148.137 10.8468 148.336 10.902 148.526C10.9573 148.716 11.0494 148.893 11.1731 149.047C11.2968 149.202 11.4497 149.33 11.6231 149.425C11.7964 149.52 11.9868 149.581 12.1834 149.602L21.4646 150.65C21.6832 150.681 21.9061 150.66 22.1146 150.587C22.323 150.514 22.5108 150.392 22.6622 150.231C22.8283 150.083 22.956 149.896 23.0342 149.687C23.1124 149.479 23.1389 149.254 23.1113 149.033L21.8239 134.662C21.7656 134.241 21.5521 133.857 21.2251 133.585C21.0455 133.585 3.44108 120.112 4.00993 101.609C4.57877 80.2324 10.0577 68.7357 21.6742 64.2148C36.6439 58.4365 55.6854 60.7119 63.3799 69.2447C71.6432 78.3463 73.1402 81.939 74.4276 87.6275C75.8646 93.9148 84.9662 112.597 86.7027 116.01C87.1624 116.684 87.4398 117.466 87.508 118.279C87.5762 119.092 87.4328 119.909 87.092 120.651C86.7159 121.101 86.2254 121.441 85.6722 121.636C85.119 121.831 84.5235 121.873 83.9483 121.758C81.2837 121.489 78.7688 121.25 77.152 122.836C75.5353 124.423 75.3856 126.459 75.7748 130.92C76.2239 135.92 75.4754 139.303 73.6491 140.68C71.8228 142.057 69.5774 141.818 66.0146 140.531L65.6553 140.381C59.4279 138.076 57.3022 137.387 55.7753 138.555C54.2484 139.722 54.6974 141.548 55.2364 145.171V146.099L56.0747 153.584C56.1256 153.952 56.3087 154.288 56.5897 154.531C56.8707 154.773 57.2304 154.905 57.6016 154.901Z" fill="#333333"/>
<path d="M66.0158 156.099C66.3711 156.103 66.7157 155.978 66.9855 155.746C67.2554 155.515 67.4321 155.194 67.4828 154.842C67.5126 154.647 67.5036 154.449 67.4565 154.257C67.4094 154.066 67.325 153.886 67.2082 153.728C67.0914 153.569 66.9444 153.435 66.7758 153.334C66.6071 153.232 66.4201 153.165 66.2254 153.135L49.6688 150.8C49.4737 150.766 49.2737 150.772 49.0809 150.817C48.8881 150.863 48.7065 150.947 48.547 151.064C48.3875 151.182 48.2535 151.33 48.153 151.501C48.0525 151.672 47.9876 151.861 47.9623 152.058C47.9102 152.449 48.0121 152.846 48.2466 153.165C48.4811 153.483 48.83 153.698 49.2197 153.764L65.7763 156.189L66.0158 156.099Z" fill="#333333"/>
<path d="M67.5 67.2202V39.7527H338.268V55.1244" stroke="black"/>
<path d="M802.459 61.3318H858.799V134.067H802.459" stroke="black"/>
<path d="M254.807 107.119C254.871 107.247 254.903 107.375 254.903 107.503C254.903 107.737 254.807 107.94 254.615 108.111C254.423 108.26 254.199 108.335 253.943 108.335C253.772 108.335 253.601 108.281 253.431 108.175C253.281 108.068 253.164 107.919 253.079 107.727L250.647 102.159H238.231L235.767 107.727C235.575 108.132 235.276 108.335 234.871 108.335C234.615 108.335 234.391 108.26 234.199 108.111C234.028 107.94 233.943 107.727 233.943 107.471C233.943 107.321 233.964 107.204 234.007 107.119L243.351 86.1266C243.543 85.6572 243.895 85.4226 244.407 85.4226C244.641 85.4226 244.855 85.4866 245.047 85.6146C245.26 85.7426 245.409 85.9132 245.495 86.1266L254.807 107.119ZM238.967 100.431H249.879L244.439 88.0466L238.967 100.431Z" fill="#0B3C61"/>
<path d="M189.886 33.5C189.587 33.5 189.331 33.404 189.118 33.212C188.926 33.02 188.83 32.7853 188.83 32.508V11.932C188.83 11.6547 188.926 11.42 189.118 11.228C189.331 11.036 189.587 10.94 189.886 10.94H196.094C199.657 10.94 202.409 11.9107 204.35 13.852C206.313 15.7933 207.294 18.5773 207.294 22.204C207.294 25.8307 206.313 28.6253 204.35 30.588C202.409 32.5293 199.657 33.5 196.094 33.5H189.886ZM195.998 31.772C202.142 31.772 205.214 28.5827 205.214 22.204C205.214 15.8467 202.142 12.668 195.998 12.668H190.814V31.772H195.998Z" fill="#0B3C61"/>
<path d="M885.378 90.9951C885.698 90.9951 885.944 91.0911 886.114 91.2831C886.285 91.4538 886.37 91.6991 886.37 92.0191V112.851C886.37 113.171 886.285 113.427 886.114 113.619C885.944 113.79 885.698 113.875 885.378 113.875C885.08 113.875 884.845 113.779 884.674 113.587C884.504 113.395 884.418 113.15 884.418 112.851V103.123H870.018V112.851C870.018 113.15 869.933 113.395 869.762 113.587C869.592 113.779 869.357 113.875 869.058 113.875C868.76 113.875 868.514 113.779 868.322 113.587C868.152 113.395 868.066 113.15 868.066 112.851V92.0191C868.066 91.7204 868.152 91.4751 868.322 91.2831C868.514 91.0911 868.76 90.9951 869.058 90.9951C869.357 90.9951 869.592 91.0911 869.762 91.2831C869.933 91.4751 870.018 91.7204 870.018 92.0191V101.395H884.418V92.0191C884.418 91.7204 884.504 91.4751 884.674 91.2831C884.845 91.0911 885.08 90.9951 885.378 90.9951Z" fill="#0B3C61"/>
<path d="M338.268 133.07L68.9141 99.1682L338.268 61.6545" stroke="black"/>
<path d="M341.143 61.3318H802.459" stroke="black" stroke-dasharray="2 2"/>
<path d="M341.143 134.067H802.459" stroke="black" stroke-dasharray="2 2"/>
</svg>
