<svg width="331" height="1366" viewBox="0 0 331 1366" fill="none" xmlns="http://www.w3.org/2000/svg">
<g clip-path="url(#clip0_326_866)">
<mask id="mask0_326_866" style="mask-type:alpha" maskUnits="userSpaceOnUse" x="0" y="0" width="331" height="1370">
<rect width="331" height="1370" fill="#C4C4C4"/>
</mask>
<g mask="url(#mask0_326_866)">
<path d="M-719 1697H1049.12V1.02478H-719V1697Z" fill="#4C9E45"/>
<path d="M-3.72461 82.5306L-21.7897 73.851C-24.0445 72.7675 -26.7737 73.7223 -27.8852 75.9838L-42.8873 106.505C-43.9988 108.766 -43.072 111.478 -40.8172 112.561L-22.752 121.241C-20.4973 122.324 -17.768 121.369 -16.6566 119.108L-1.65446 88.5871C-0.542965 86.3256 -1.46983 83.6141 -3.72461 82.5306Z" stroke="white" stroke-width="2.51" stroke-miterlimit="10"/>
<path d="M428.114 248.99L352.242 212.37C345.542 209.136 337.434 211.986 334.131 218.737L313.62 260.658C310.317 267.408 313.071 275.501 319.77 278.734L395.643 315.356C402.342 318.589 410.452 315.739 413.754 308.989L434.265 267.068C437.568 260.317 434.814 252.223 428.114 248.99Z" stroke="white" stroke-width="2.64" stroke-linecap="round" stroke-linejoin="round"/>
<path d="M73.3711 1057.19L27.1909 1035.01C22.2546 1032.64 16.2802 1034.73 13.8469 1039.68L-26.398 1121.53C-28.8313 1126.48 -26.8027 1132.42 -21.8664 1134.79L24.315 1156.97C29.2513 1159.34 35.2245 1157.25 37.6578 1152.3L77.9039 1070.45C80.3372 1065.5 78.3074 1059.56 73.3711 1057.19Z" stroke="white" stroke-width="2.32" stroke-linecap="round" stroke-linejoin="round"/>
<path d="M65.4892 1060.98L29.0679 1043.48C25.2773 1041.66 20.6907 1043.27 18.8224 1047.07L-11.342 1108.43C-13.2104 1112.23 -11.6526 1116.79 -7.86327 1118.61L28.558 1136.11C32.3474 1137.93 36.934 1136.32 38.8023 1132.52L68.9679 1071.16C70.8363 1067.36 69.2785 1062.8 65.4892 1060.98Z" stroke="white" stroke-width="1.31" stroke-linecap="round" stroke-linejoin="round"/>
<path d="M4.0184 1140.16C6.0751 1141.15 8.56341 1140.27 9.57708 1138.21C10.5908 1136.14 9.74584 1133.66 7.68914 1132.68C5.63245 1131.69 3.14412 1132.56 2.13045 1134.62C1.11678 1136.69 1.96171 1139.17 4.0184 1140.16Z" stroke="white" stroke-width="1.31" stroke-linecap="round" stroke-linejoin="round"/>
<path d="M-4.80588 1300.12L-124.151 1242.46C-134.915 1237.26 -147.943 1241.85 -153.25 1252.71L-178.582 1304.53C-183.889 1315.39 -179.465 1328.41 -168.701 1333.61L-49.3561 1391.27C-38.5921 1396.47 -25.5635 1391.88 -20.2567 1381.03L5.07651 1329.19C10.3833 1318.33 5.95812 1305.32 -4.80588 1300.12Z" stroke="white" stroke-width="2.32" stroke-miterlimit="10"/>
<path d="M61.5031 888.242L-14.3695 851.62C-21.069 848.387 -29.1784 851.238 -32.4811 857.987L-52.9917 899.909C-56.2944 906.66 -53.5408 914.752 -46.8412 917.986L29.0313 954.607C35.7309 957.841 43.839 954.991 47.1417 948.24L67.6536 906.318C70.9563 899.569 68.2026 891.475 61.5031 888.242Z" stroke="white" stroke-width="2.32" stroke-linecap="round" stroke-linejoin="round"/>
<path d="M-30.5317 918.112C-24.6038 907.409 -15.9809 902.587 -4.03933 905.054C-4.03933 905.054 -1.58768 872.722 17.6648 881.994C36.916 891.265 11.6867 912.606 11.6867 912.606C26.542 922.148 23.3433 937.407 20.3096 942.598" stroke="white" stroke-width="1.32" stroke-linecap="round" stroke-linejoin="round"/>
<path d="M124.049 972.285L48.1759 935.665C41.4764 932.43 33.3683 935.282 30.0656 942.032L9.55368 983.953C6.25099 990.703 9.00465 998.796 15.7042 1002.03L91.5768 1038.65C98.2763 1041.88 106.386 1039.03 109.688 1032.28L130.2 990.363C133.503 983.613 130.748 975.519 124.049 972.285Z" stroke="white" stroke-width="2.32" stroke-linecap="round" stroke-linejoin="round"/>
<path d="M32.0088 1002.21C37.9453 991.489 46.5511 986.658 58.4829 989.142C58.4829 989.142 60.9443 956.794 80.1955 966.065C99.448 975.337 74.2358 996.686 74.2358 996.686C89.0655 1006.24 85.8753 1021.48 82.8502 1026.69" stroke="white" stroke-width="1.32" stroke-linecap="round" stroke-linejoin="round"/>
<path d="M300.001 1038.81L280.665 1078.49L275.982 1076.22L278.337 1068.87L192.5 1027.29L195.622 1020.89L188.778 1017.66L194.833 1005.23L201.677 1008.46L204.985 1001.67L290.666 1043.17L294.82 1036.3L300.001 1038.81Z" stroke="white" stroke-width="1.7" stroke-linecap="round" stroke-linejoin="round"/>
<path d="M175.559 1002.55L192.085 1010.68" stroke="white" stroke-width="2.27" stroke-linecap="round" stroke-linejoin="round"/>
<path d="M253.577 1040.59L247.355 1053.23" stroke="white" stroke-width="1.13" stroke-linecap="round" stroke-linejoin="round"/>
<path d="M243.186 1043.33L240.075 1049.65" stroke="white" stroke-width="1.13" stroke-linecap="round" stroke-linejoin="round"/>
<path d="M238.572 1034.33L232.797 1046.06" stroke="white" stroke-width="1.13" stroke-linecap="round" stroke-linejoin="round"/>
<path d="M224.444 1026.24L218.223 1038.88" stroke="white" stroke-width="1.13" stroke-linecap="round" stroke-linejoin="round"/>
<path d="M214.053 1028.99L210.943 1035.31" stroke="white" stroke-width="1.13" stroke-linecap="round" stroke-linejoin="round"/>
<path d="M209.439 1019.99L203.664 1031.72" stroke="white" stroke-width="1.13" stroke-linecap="round" stroke-linejoin="round"/>
<path d="M228.629 1036.16L225.519 1042.48" stroke="white" stroke-width="1.13" stroke-linecap="round" stroke-linejoin="round"/>
<path d="M268.212 1047.64L262.446 1059.35" stroke="white" stroke-width="1.13" stroke-linecap="round" stroke-linejoin="round"/>
<path d="M258.278 1049.45L255.167 1055.77" stroke="white" stroke-width="1.13" stroke-linecap="round" stroke-linejoin="round"/>
<path d="M350.062 1075.91L340.394 1095.77L335.797 1093.55L336.494 1089.63L287.062 1065.58L293.303 1052.76L342.565 1076.73L344.967 1073.45L350.062 1075.91Z" stroke="white" stroke-width="1.7" stroke-linecap="round" stroke-linejoin="round"/>
<path d="M299.951 1038.96L294.772 1036.45L290.62 1043.34L204.965 1001.71L201.657 1008.53L194.816 1005.29L188.76 1017.76L195.602 1021L192.481 1027.43L278.289 1069.14L275.936 1076.52L280.616 1078.8L287.163 1065.31L336.549 1089.4L335.852 1093.32L340.449 1095.56L350.116 1075.64L345.023 1073.16L342.62 1076.45L293.405 1052.45L299.951 1038.96Z" stroke="white" stroke-width="2.32" stroke-linecap="round" stroke-linejoin="round"/>
<path d="M-134.002 732.839L-126.796 717.986C-125.883 716.162 -124.301 714.769 -122.392 714.103C-120.482 713.438 -118.4 713.558 -116.596 714.435L1.92184 769.273C3.74131 770.157 5.12916 771.74 5.78089 773.673C6.43263 775.606 6.29445 777.731 5.39816 779.58L-3.70287 798.336C-4.60038 800.186 -6.18386 801.608 -8.1036 802.29C-10.0246 802.973 -12.1265 802.859 -13.9448 801.975L-130.67 743.269C-131.574 742.819 -132.378 742.19 -133.036 741.42C-133.694 740.65 -134.192 739.753 -134.502 738.784C-134.812 737.813 -134.927 736.788 -134.841 735.767C-134.755 734.747 -134.47 733.751 -134.002 732.839Z" stroke="white" stroke-width="2.32" stroke-miterlimit="10"/>
<path d="M-7.79139 1244.42L-25.7538 1235.79C-26.9729 1235.2 -27.9034 1234.15 -28.3399 1232.87C-28.7777 1231.59 -28.686 1230.18 -28.0844 1228.96L-12.8182 1192.2C-11.5661 1189.66 -10.5512 1187.59 -8.02982 1188.8L17.9613 1201.29C20.501 1202.51 20.2723 1203.02 18.2511 1207.13L-0.995264 1241.97C-1.59075 1243.18 -2.63743 1244.12 -3.90911 1244.58C-5.17956 1245.03 -6.57474 1244.97 -7.79139 1244.42Z" stroke="white" stroke-width="2.32" stroke-linecap="round" stroke-linejoin="round"/>
<path d="M32.6469 1264.31L14.7187 1255.7C13.4996 1255.12 12.5691 1254.07 12.1313 1252.79C11.6948 1251.51 11.7865 1250.1 12.3869 1248.88L27.6543 1212.13C28.9052 1209.58 29.9201 1207.51 32.4427 1208.73L58.4338 1221.22C60.9722 1222.44 60.7448 1222.94 58.7236 1227.06L39.476 1261.9C38.8781 1263.11 37.8253 1264.06 36.5451 1264.51C35.266 1264.96 33.8648 1264.89 32.6469 1264.31Z" stroke="white" stroke-width="2.32" stroke-linecap="round" stroke-linejoin="round"/>
<path d="M-7.20264 1183.38L21.9579 1197.51C21.9579 1197.51 27.7012 1185.72 13.1038 1178.65C-1.49478 1171.58 -7.20264 1183.38 -7.20264 1183.38Z" stroke="white" stroke-width="2.32" stroke-linecap="round" stroke-linejoin="round"/>
<path d="M33.1987 1203.26L62.3605 1217.39C62.3605 1217.39 68.1025 1205.6 53.5052 1198.53C38.9078 1191.46 33.1987 1203.26 33.1987 1203.26Z" stroke="white" stroke-width="2.32" stroke-linecap="round" stroke-linejoin="round"/>
<path d="M127.124 1322.12L-38.54 1241.01C-42.0225 1239.29 -46.2386 1240.81 -47.9578 1244.38L-48.2109 1244.91C-49.9301 1248.49 -48.5007 1252.77 -45.0182 1254.47L120.646 1335.59C124.128 1337.3 128.345 1335.78 130.065 1332.2L130.318 1331.67C132.037 1328.1 130.606 1323.82 127.124 1322.12Z" stroke="white" stroke-width="2.32" stroke-linecap="round" stroke-linejoin="round"/>
<path d="M237.411 1246.7L105.707 1183.13C101.348 1181.02 96.0713 1182.88 93.9229 1187.27L55.0903 1266.65C52.9419 1271.04 54.7333 1276.31 59.0924 1278.41L190.796 1341.99C195.156 1344.1 200.431 1342.24 202.58 1337.85L241.413 1258.47C243.561 1254.08 241.77 1248.81 237.411 1246.7Z" stroke="white" stroke-width="2.32" stroke-linecap="round" stroke-linejoin="round"/>
<path d="M138.109 1213.84L111.717 1201.17C109.945 1200.33 107.801 1201.08 106.928 1202.85L75.5608 1266.59C74.6877 1268.36 75.4153 1270.49 77.1858 1271.34L103.579 1284C105.35 1284.85 107.493 1284.1 108.366 1282.32L139.734 1218.59C140.608 1216.81 139.879 1214.69 138.109 1213.84Z" stroke="white" stroke-width="1.04" stroke-linecap="round" stroke-linejoin="round"/>
<path d="M218.269 1254.31L150.642 1221.5C149.097 1220.75 147.229 1221.41 146.467 1222.98L137.4 1241.62C136.639 1243.18 137.273 1245.07 138.818 1245.81L206.445 1278.62C207.989 1279.36 209.858 1278.7 210.62 1277.14L219.686 1258.49C220.447 1256.93 219.814 1255.06 218.269 1254.31Z" stroke="white" stroke-width="0.91" stroke-linecap="round" stroke-linejoin="round"/>
<path d="M161.751 1263.19L135.706 1250.67C134.437 1250.05 132.9 1250.59 132.274 1251.86L115.597 1285.82C114.971 1287.09 115.493 1288.62 116.762 1289.23L142.807 1301.75C144.076 1302.36 145.613 1301.83 146.239 1300.56L162.918 1266.6C163.544 1265.33 163.022 1263.8 161.751 1263.19Z" stroke="white" stroke-width="0.75" stroke-linecap="round" stroke-linejoin="round"/>
<path d="M276.644 1108.23L157.299 1050.57C146.535 1045.37 133.507 1049.96 128.2 1060.81L102.868 1112.65C97.561 1123.5 101.985 1136.52 112.749 1141.72L232.094 1199.38C242.858 1204.58 255.886 1200 261.193 1189.14L286.526 1137.31C291.833 1126.45 287.409 1113.43 276.644 1108.23Z" stroke="white" stroke-width="2.32" stroke-miterlimit="10"/>
<path d="M268.711 1116.84L187.073 1077.43C179.122 1073.59 169.5 1076.97 165.581 1084.99L144.934 1127.19C141.015 1135.2 144.283 1144.81 152.234 1148.65L233.87 1188.06C241.821 1191.9 251.443 1188.51 255.363 1180.5L276.009 1138.3C279.928 1130.28 276.661 1120.68 268.711 1116.84Z" stroke="white" stroke-width="1.55" stroke-miterlimit="10"/>
<path d="M168.339 1101.7L178.029 1106.4L193.527 1093.96L194.356 1114.33L204.045 1119.04L203.052 1131.42L213.219 1123.49L235.651 1134.38L250.965 1121.02L250.434 1141.56L261.65 1147.01" stroke="white" stroke-width="1.32" stroke-linecap="round" stroke-linejoin="round"/>
<path d="M148.656 1064.34L147.27 1063.67C143.94 1062.08 139.908 1063.49 138.266 1066.82L114.103 1115.88C112.461 1119.21 113.828 1123.21 117.159 1124.8L118.546 1125.47C121.876 1127.06 125.907 1125.65 127.549 1122.32L151.712 1073.26C153.355 1069.93 151.987 1065.93 148.656 1064.34Z" stroke="white" stroke-width="2.07" stroke-miterlimit="10"/>
<path d="M152.853 1128.3L157.86 1130.73C157.86 1130.73 163.297 1125.86 165.326 1126.22C167.355 1126.58 170.446 1130.43 170.446 1130.43C172.263 1132.69 173.341 1135.47 173.533 1138.39L179.517 1141.3" stroke="white" stroke-width="0.81" stroke-linecap="round" stroke-linejoin="round"/>
<path d="M174.705 1139.05L179.678 1141.47C179.678 1141.47 185.116 1136.59 187.144 1136.95C189.173 1137.31 192.264 1141.17 192.264 1141.17C193.956 1143.37 194.872 1146.09 194.871 1148.9L201.404 1152.07" stroke="white" stroke-width="0.81" stroke-linecap="round" stroke-linejoin="round"/>
<path d="M197.569 1150.31L202.542 1152.73C202.542 1152.73 207.981 1147.85 210.01 1148.21C212.038 1148.57 215.128 1152.42 215.128 1152.42C216.939 1154.69 218.016 1157.47 218.216 1160.39L224.2 1163.3" stroke="white" stroke-width="0.81" stroke-linecap="round" stroke-linejoin="round"/>
<path d="M219.512 1161.11L224.485 1163.52C224.485 1163.52 229.922 1158.65 231.951 1159.01C233.979 1159.37 237.071 1163.22 237.071 1163.22C239.153 1165.61 238.96 1168.06 239.153 1170.42L246.251 1173.87" stroke="white" stroke-width="0.81" stroke-linecap="round" stroke-linejoin="round"/>
<path d="M330.717 1297.99L309.018 1287.57L300.672 1290.92L295.526 1288.45L293.306 1280.02L271.349 1269.48C268.838 1268.27 266.923 1266.11 266.024 1263.47C265.124 1260.83 265.312 1257.93 266.549 1255.41L315.671 1155.53C316.918 1153.01 319.108 1151.08 321.76 1150.16C324.413 1149.23 327.315 1149.38 329.833 1150.58L348.513 1159.55C348.513 1159.55 352.97 1149.06 364.565 1154.63C376.161 1160.2 371.55 1170.61 371.55 1170.61L389.2 1179.08C391.713 1180.29 393.633 1182.46 394.537 1185.09C395.441 1187.73 395.258 1190.63 394.027 1193.15L344.905 1293.03C343.659 1295.55 341.466 1297.49 338.807 1298.42C336.147 1299.36 333.238 1299.2 330.717 1297.99Z" stroke="white" stroke-width="2.32" stroke-linecap="round" stroke-linejoin="round"/>
<path d="M369.515 1225.65L339.413 1286.96C337.785 1289.67 335.68 1291.02 332.359 1289.11L277.126 1262.53C276.481 1262.36 275.889 1262.03 275.399 1261.59C274.907 1261.13 274.532 1260.57 274.303 1259.95C274.073 1259.31 273.997 1258.64 274.081 1257.98C274.162 1257.32 274.402 1256.68 274.78 1256.12L304.982 1194.6C309.667 1187.95 370.596 1215.58 369.515 1225.65Z" stroke="white" stroke-width="1.18" stroke-linecap="round" stroke-linejoin="round"/>
<path d="M152.85 -34.8389L106.669 -57.0223C101.733 -59.3935 95.7582 -57.3034 93.3249 -52.3542L53.08 29.5027C50.6467 34.452 52.6753 40.3863 57.6116 42.7574L103.793 64.9408C108.729 67.312 114.703 65.2219 117.136 60.2727L157.382 -21.5843C159.815 -26.5335 157.785 -32.4679 152.85 -34.8389Z" stroke="white" stroke-width="2.32" stroke-linecap="round" stroke-linejoin="round"/>
<path d="M144.952 -31.0638L108.53 -48.562C104.741 -50.3828 100.154 -48.7779 98.286 -44.9776L68.1204 16.3867C66.252 20.1872 67.8098 24.7441 71.5991 26.565L108.02 44.0631C111.811 45.8839 116.398 44.279 118.266 40.4786L148.43 -20.8857C150.299 -24.6861 148.741 -29.243 144.952 -31.0638Z" stroke="white" stroke-width="1.31" stroke-linecap="round" stroke-linejoin="round"/>
<path d="M83.4974 48.1294C85.5541 49.1194 88.0424 48.2472 89.0561 46.1812C90.0698 44.1152 89.2248 41.6378 87.1681 40.6478C85.1114 39.6579 82.6231 40.5301 81.6095 42.5962C80.5958 44.6622 81.4407 47.1395 83.4974 48.1294Z" stroke="white" stroke-width="1.31" stroke-linecap="round" stroke-linejoin="round"/>
<path d="M347.512 475.421L290.064 447.766C284.605 445.138 278 447.453 275.309 452.937L246.992 510.651C244.301 516.135 246.544 522.711 252.003 525.339L309.451 552.996C314.909 555.623 321.515 553.307 324.206 547.825L352.523 490.109C355.214 484.625 352.97 478.049 347.512 475.421Z" stroke="white" stroke-width="2.32" stroke-miterlimit="10"/>
<path d="M391.154 483.349C391.154 483.349 384.134 514.404 369.62 527.204C355.106 540.003 327.726 541.12 327.726 541.12L324.063 548.578C324.063 548.578 358.742 571.648 384.9 563.171C411.057 554.695 417.359 530.11 417.359 530.11" stroke="white" stroke-width="2.32" stroke-miterlimit="10"/>
<path d="M334.806 483.676L291.378 462.725C287.891 461.042 283.67 462.526 281.951 466.036L268.671 493.163C266.952 496.675 268.386 500.886 271.873 502.568L315.302 523.52C318.789 525.202 323.009 523.719 324.728 520.207L338.008 493.08C339.727 489.57 338.293 485.358 334.806 483.676Z" stroke="white" stroke-width="1.25" stroke-miterlimit="10"/>
<path d="M309.975 540.964C312.002 541.941 314.456 541.08 315.456 539.043C316.455 537.006 315.623 534.562 313.594 533.586C311.567 532.61 309.112 533.469 308.113 535.506C307.112 537.545 307.946 539.988 309.975 540.964Z" stroke="white" stroke-width="1.25" stroke-miterlimit="10"/>
<path d="M285.671 529.005C287.7 529.981 290.154 529.12 291.153 527.083C292.153 525.046 291.319 522.603 289.292 521.627C287.263 520.65 284.809 521.511 283.809 523.548C282.81 525.585 283.644 528.028 285.671 529.005Z" stroke="white" stroke-width="1.25" stroke-miterlimit="10"/>
<path d="M261.455 517.082C263.483 518.059 265.937 517.198 266.936 515.161C267.937 513.124 267.103 510.681 265.075 509.704C263.047 508.728 260.593 509.588 259.592 511.626C258.593 513.663 259.426 516.106 261.455 517.082Z" stroke="white" stroke-width="1.25" stroke-miterlimit="10"/>
<path d="M281.059 77.5019L288.264 62.6501C289.169 60.8417 290.733 59.4539 292.624 58.7827C294.513 58.1114 296.578 58.21 298.379 59.0573L417.024 113.849C418.844 114.734 420.231 116.317 420.883 118.25C421.535 120.183 421.398 122.307 420.5 124.157L411.399 142.913C410.502 144.762 408.92 146.184 406.999 146.866C405.078 147.549 402.977 147.436 401.157 146.551L284.415 87.8371C282.61 86.9312 281.243 85.3343 280.614 83.3968C279.985 81.4592 280.144 79.3393 281.059 77.5019Z" stroke="white" stroke-width="2.32" stroke-miterlimit="10"/>
<path d="M336.853 99.6283C338.964 100.657 341.519 99.7498 342.558 97.6019C343.597 95.454 342.728 92.8788 340.616 91.8499L305.146 74.5665C303.035 73.5377 300.481 74.445 299.442 76.5929C298.403 78.7408 299.271 81.3161 301.383 82.3449L336.853 99.6283Z" stroke="white" stroke-width="1.34" stroke-miterlimit="10"/>
<path d="M265.461 64.8919L269.437 56.7911C270.052 55.5385 271.136 54.5756 272.452 54.1144C273.769 53.6531 275.209 53.7312 276.455 54.3313L288.21 59.9889C289.121 60.683 287.46 62.2494 286.184 64.852L282.208 72.9528C280.931 75.5555 280.704 77.8328 279.599 77.535L267.846 71.8775C266.599 71.2774 265.647 70.2042 265.2 68.8941C264.752 67.584 264.846 66.1443 265.461 64.8919Z" stroke="white" stroke-width="2.32" stroke-miterlimit="10"/>
<path d="M211.892 275.632L92.5467 217.973C81.7827 212.772 68.7554 217.359 63.4486 228.216L38.1153 280.048C32.8085 290.904 37.2325 303.923 47.9977 309.124L167.342 366.783C178.106 371.984 191.135 367.397 196.441 356.539L221.773 304.708C227.08 293.85 222.656 280.833 211.892 275.632Z" stroke="white" stroke-width="2.32" stroke-miterlimit="10"/>
<path d="M203.957 284.239L122.321 244.829C114.37 240.991 104.747 244.375 100.828 252.386L80.1816 294.594C76.2614 302.605 79.5299 312.211 87.4803 316.049L169.117 355.46C177.067 359.297 186.691 355.914 190.61 347.902L211.257 305.696C215.176 297.685 211.908 288.077 203.957 284.239Z" stroke="white" stroke-width="1.55" stroke-miterlimit="10"/>
<path d="M103.589 269.098L113.278 273.803L128.775 261.362L129.587 281.722L139.276 286.427L138.301 298.818L148.469 290.89L170.901 301.782L186.214 288.414L185.684 308.961L196.899 314.407" stroke="white" stroke-width="1.32" stroke-linecap="round" stroke-linejoin="round"/>
<path d="M83.9042 231.746L82.5176 231.081C79.188 229.486 75.1565 230.897 73.5143 234.232L49.3513 283.284C47.7091 286.619 49.0762 290.615 52.407 292.209L53.7936 292.873C57.1232 294.468 61.1546 293.057 62.7968 289.723L86.9599 240.67C88.602 237.335 87.235 233.34 83.9042 231.746Z" stroke="white" stroke-width="2.07" stroke-miterlimit="10"/>
<path d="M88.0488 295.678L93.0218 298.096C93.0218 298.096 98.4509 293.239 100.488 293.582C102.525 293.927 105.599 297.812 105.599 297.812C107.424 300.069 108.503 302.851 108.687 305.774L114.671 308.683" stroke="white" stroke-width="0.81" stroke-linecap="round" stroke-linejoin="round"/>
<path d="M109.954 306.459L114.927 308.877C114.927 308.877 120.357 304.02 122.395 304.365C124.432 304.708 127.504 308.593 127.504 308.593C129.204 310.794 130.122 313.515 130.111 316.323L136.645 319.499" stroke="white" stroke-width="0.81" stroke-linecap="round" stroke-linejoin="round"/>
<path d="M132.819 317.709L137.723 320.093C137.723 320.093 143.153 315.236 145.173 315.571C147.193 315.908 150.301 319.809 150.301 319.809C152.121 322.069 153.198 324.85 153.387 327.772L159.373 330.681" stroke="white" stroke-width="0.81" stroke-linecap="round" stroke-linejoin="round"/>
<path d="M154.672 328.468L159.645 330.885C159.645 330.885 165.074 326.027 167.111 326.372C169.148 326.716 172.222 330.602 172.222 330.602C174.313 332.975 174.121 335.423 174.313 337.779L181.413 341.23" stroke="white" stroke-width="0.81" stroke-linecap="round" stroke-linejoin="round"/>
<path d="M337.151 315.283L290.969 293.099C286.034 290.728 280.06 292.818 277.627 297.768L237.382 379.625C234.948 384.574 236.977 390.508 241.913 392.879L288.094 415.063C293.03 417.434 299.004 415.344 301.438 410.394L341.682 328.538C344.116 323.589 342.087 317.654 337.151 315.283Z" stroke="white" stroke-width="2" stroke-linecap="round" stroke-linejoin="round"/>
<path d="M329.27 319.07L292.849 301.571C289.059 299.75 284.472 301.355 282.604 305.156L252.439 366.52C250.57 370.321 252.128 374.877 255.917 376.697L292.339 394.196C296.128 396.017 300.715 394.412 302.583 390.611L332.749 329.247C334.617 325.446 333.059 320.89 329.27 319.07Z" stroke="white" stroke-width="1.31" stroke-linecap="round" stroke-linejoin="round"/>
<path d="M267.798 398.251C269.854 399.241 272.343 398.368 273.357 396.303C274.371 394.237 273.524 391.759 271.469 390.77C269.412 389.78 266.924 390.651 265.91 392.718C264.897 394.783 265.741 397.261 267.798 398.251Z" stroke="white" stroke-width="1.31" stroke-linecap="round" stroke-linejoin="round"/>
<path d="M223.034 481.918L147.162 445.297C140.462 442.063 132.354 444.914 129.051 451.664L108.54 493.585C105.237 500.335 107.99 508.428 114.69 511.663L190.564 548.283C197.263 551.517 205.372 548.666 208.674 541.916L229.186 499.995C232.489 493.245 229.735 485.152 223.034 481.918Z" stroke="white" stroke-width="2.32" stroke-linecap="round" stroke-linejoin="round"/>
<path d="M131.018 511.799C136.946 501.097 145.551 496.265 157.492 498.733C157.492 498.733 159.943 466.401 179.213 475.681C198.482 484.961 173.235 506.293 173.235 506.293C188.066 515.844 184.876 531.086 181.859 536.284" stroke="white" stroke-width="1.32" stroke-linecap="round" stroke-linejoin="round"/>
<path d="M285.589 565.985L209.716 529.364C203.017 526.131 194.908 528.982 191.605 535.731L171.094 577.653C167.792 584.402 170.545 592.496 177.245 595.73L253.117 632.351C259.817 635.585 267.926 632.733 271.229 625.984L291.74 584.062C295.042 577.313 292.289 569.219 285.589 565.985Z" stroke="white" stroke-width="2.32" stroke-linecap="round" stroke-linejoin="round"/>
<path d="M193.557 595.856C199.485 585.152 208.108 580.329 220.049 582.798C220.049 582.798 222.501 550.466 241.753 559.737C261.006 569.009 235.792 590.359 235.792 590.359C250.63 599.892 247.432 615.15 244.415 620.349" stroke="white" stroke-width="1.32" stroke-linecap="round" stroke-linejoin="round"/>
<path d="M207.452 403.174L188.117 442.854L183.433 440.586L185.78 433.248L99.943 391.669L103.065 385.264L96.2295 382.018L102.285 369.589L109.128 372.819L112.427 366.049L198.109 407.553L202.271 400.665L207.452 403.174Z" stroke="white" stroke-width="1.7" stroke-linecap="round" stroke-linejoin="round"/>
<path d="M83.0078 366.901L99.5359 375.036" stroke="white" stroke-width="2.27" stroke-linecap="round" stroke-linejoin="round"/>
<path d="M161.029 404.946L154.808 417.585" stroke="white" stroke-width="1.13" stroke-linecap="round" stroke-linejoin="round"/>
<path d="M150.638 407.686L147.527 414.004" stroke="white" stroke-width="1.13" stroke-linecap="round" stroke-linejoin="round"/>
<path d="M146.023 398.692L140.248 410.425" stroke="white" stroke-width="1.13" stroke-linecap="round" stroke-linejoin="round"/>
<path d="M131.895 390.606L125.674 403.246" stroke="white" stroke-width="1.13" stroke-linecap="round" stroke-linejoin="round"/>
<path d="M121.504 393.343L118.395 399.661" stroke="white" stroke-width="1.13" stroke-linecap="round" stroke-linejoin="round"/>
<path d="M116.889 384.347L111.114 396.078" stroke="white" stroke-width="1.13" stroke-linecap="round" stroke-linejoin="round"/>
<path d="M136.079 400.518L132.969 406.836" stroke="white" stroke-width="1.13" stroke-linecap="round" stroke-linejoin="round"/>
<path d="M175.664 411.999L169.889 423.731" stroke="white" stroke-width="1.13" stroke-linecap="round" stroke-linejoin="round"/>
<path d="M165.721 413.828L162.61 420.146" stroke="white" stroke-width="1.13" stroke-linecap="round" stroke-linejoin="round"/>
<path d="M257.505 440.292L247.837 460.152L243.24 457.923L243.937 454.009L194.513 429.94L200.755 417.118L250.008 441.103L252.411 437.823L257.505 440.292Z" stroke="white" stroke-width="1.7" stroke-linecap="round" stroke-linejoin="round"/>
<path d="M207.402 403.323L202.223 400.807L198.061 407.721L112.406 366.094L109.109 372.89L102.266 369.651L96.2109 382.126L103.044 385.383L99.9232 391.813L185.732 433.516L183.386 440.883L188.067 443.157L194.613 429.67L243.992 453.776L243.295 457.701L247.89 459.935L257.557 440.017L252.464 437.542L250.063 440.833L200.855 416.81L207.402 403.323Z" stroke="white" stroke-width="2.32" stroke-linecap="round" stroke-linejoin="round"/>
<path d="M147.312 787.09L89.8636 759.434C84.4052 756.806 77.7998 759.121 75.1085 764.605L46.7917 822.321C44.1004 827.805 46.3442 834.379 51.8026 837.007L109.251 864.664C114.709 867.291 121.314 864.977 124.006 859.493L152.322 801.777C155.014 796.293 152.77 789.718 147.312 787.09Z" stroke="white" stroke-width="2.32" stroke-miterlimit="10"/>
<path d="M218.925 760.891L200.861 752.212C198.605 751.129 195.876 752.084 194.764 754.345L179.762 784.866C178.651 787.127 179.577 789.839 181.832 790.922L199.897 799.602C202.152 800.685 204.881 799.73 205.993 797.469L220.996 766.948C222.108 764.687 221.181 761.975 218.925 760.891Z" stroke="white" stroke-width="2.32" stroke-miterlimit="10"/>
<path d="M245.094 807.927L227.029 799.248C224.774 798.165 222.045 799.12 220.933 801.381L205.93 831.901C204.819 834.163 205.745 836.874 208.001 837.957L226.065 846.638C228.321 847.721 231.051 846.766 232.162 844.505L247.164 813.984C248.276 811.723 247.349 809.011 245.094 807.927Z" stroke="white" stroke-width="2.32" stroke-miterlimit="10"/>
<path d="M190.938 795.01C190.938 795.01 183.936 826.072 169.404 838.863C154.872 851.655 127.509 852.78 127.509 852.78L123.797 860.341C123.797 860.341 158.493 883.42 184.65 874.943C210.808 866.467 217.093 841.874 217.093 841.874" stroke="white" stroke-width="2.32" stroke-miterlimit="10"/>
<path d="M134.589 795.339L91.1615 774.388C87.6742 772.706 83.4532 774.189 81.734 777.701L68.4548 804.828C66.7356 808.338 68.1687 812.55 71.656 814.232L115.085 835.183C118.571 836.865 122.792 835.382 124.511 831.87L137.79 804.745C139.51 801.233 138.077 797.022 134.589 795.339Z" stroke="white" stroke-width="1.25" stroke-miterlimit="10"/>
<path d="M109.784 852.619C111.811 853.595 114.267 852.736 115.266 850.699C116.266 848.66 115.432 846.217 113.403 845.241C111.376 844.264 108.922 845.125 107.922 847.162C106.923 849.199 107.755 851.642 109.784 852.619Z" stroke="white" stroke-width="1.25" stroke-miterlimit="10"/>
<path d="M85.4804 840.66C87.509 841.637 89.9631 840.776 90.9633 838.739C91.9623 836.702 91.1284 834.258 89.1011 833.281C87.0725 832.306 84.6184 833.165 83.6194 835.204C82.6192 837.241 83.4531 839.684 85.4804 840.66Z" stroke="white" stroke-width="1.25" stroke-miterlimit="10"/>
<path d="M61.2463 828.73C63.2736 829.706 65.7277 828.845 66.7279 826.808C67.7269 824.771 66.8942 822.328 64.8657 821.351C62.8383 820.375 60.383 821.236 59.384 823.273C58.3838 825.31 59.2177 827.753 61.2463 828.73Z" stroke="white" stroke-width="1.25" stroke-miterlimit="10"/>
<path d="M316.666 832.544L323.863 817.71C324.761 815.861 326.344 814.439 328.265 813.756C330.185 813.074 332.287 813.188 334.105 814.072L452.734 868.855C454.554 869.741 455.941 871.323 456.593 873.256C457.245 875.189 457.107 877.313 456.211 879.163L447.109 897.919C446.212 899.769 444.63 901.191 442.709 901.874C440.788 902.556 438.687 902.442 436.868 901.558L320.142 842.852C318.323 841.967 316.935 840.384 316.283 838.451C315.63 836.518 315.769 834.394 316.666 832.544Z" stroke="white" stroke-width="2.32" stroke-miterlimit="10"/>
<path d="M301.078 819.963L305.062 811.845C305.681 810.598 306.765 809.641 308.079 809.183C309.393 808.725 310.829 808.804 312.073 809.403L323.81 815.052C324.729 815.729 323.07 817.295 321.792 819.898L317.808 828.016C316.532 830.618 316.313 832.879 315.207 832.581L303.454 826.923C302.216 826.321 301.27 825.252 300.825 823.948C300.38 822.645 300.472 821.212 301.078 819.963Z" stroke="white" stroke-width="3.19" stroke-miterlimit="10"/>
<path d="M331.256 740.647L311.92 780.327L307.237 778.059L309.592 770.703L223.738 729.117L226.858 722.712L220.015 719.482L226.071 707.054L232.915 710.284L236.214 703.514L321.895 745.017L326.075 738.138L331.256 740.647Z" stroke="white" stroke-width="1.7" stroke-linecap="round" stroke-linejoin="round"/>
<path d="M206.795 704.368L223.322 712.503" stroke="white" stroke-width="2.27" stroke-linecap="round" stroke-linejoin="round"/>
<path d="M284.832 742.415L278.61 755.055" stroke="white" stroke-width="1.13" stroke-linecap="round" stroke-linejoin="round"/>
<path d="M274.444 745.154L271.333 751.472" stroke="white" stroke-width="1.13" stroke-linecap="round" stroke-linejoin="round"/>
<path d="M269.81 736.147L264.035 747.879" stroke="white" stroke-width="1.13" stroke-linecap="round" stroke-linejoin="round"/>
<path d="M255.698 728.076L249.477 740.716" stroke="white" stroke-width="1.13" stroke-linecap="round" stroke-linejoin="round"/>
<path d="M245.31 730.811L242.199 737.13" stroke="white" stroke-width="1.13" stroke-linecap="round" stroke-linejoin="round"/>
<path d="M240.677 721.811L234.903 733.543" stroke="white" stroke-width="1.13" stroke-linecap="round" stroke-linejoin="round"/>
<path d="M259.868 737.979L256.757 744.297" stroke="white" stroke-width="1.13" stroke-linecap="round" stroke-linejoin="round"/>
<path d="M299.45 749.463L293.675 761.195" stroke="white" stroke-width="1.13" stroke-linecap="round" stroke-linejoin="round"/>
<path d="M289.506 751.293L286.396 757.611" stroke="white" stroke-width="1.13" stroke-linecap="round" stroke-linejoin="round"/>
<path d="M381.317 777.746L371.65 797.605L367.035 795.368L367.725 791.472L318.316 767.411L324.559 754.589L373.794 778.566L376.206 775.267L381.317 777.746Z" stroke="white" stroke-width="1.7" stroke-linecap="round" stroke-linejoin="round"/>
<path d="M331.206 740.796L326.026 738.279L321.848 745.186L236.194 703.558L232.895 710.353L226.053 707.115L219.998 719.591L226.839 722.83L223.719 729.261L309.545 770.972L307.19 778.355L311.872 780.63L318.417 767.143L367.779 791.24L367.091 795.148L371.703 797.39L381.37 777.473L376.26 774.99L373.849 778.297L324.659 754.284L331.206 740.796Z" stroke="white" stroke-width="2.83" stroke-linecap="round" stroke-linejoin="round"/>
<path d="M38.1613 355.384L-75.0301 300.742C-78.773 298.934 -83.3032 300.528 -85.1485 304.3L-118.525 372.528C-120.37 376.3 -118.832 380.822 -115.089 382.629L-1.89773 437.272C1.84516 439.078 6.37549 437.486 8.22065 433.714L41.5972 365.486C43.4424 361.714 41.9041 357.191 38.1613 355.384Z" stroke="white" stroke-width="2.32" stroke-linecap="round" stroke-linejoin="round"/>
<path d="M21.7144 361.915L-36.4109 333.718C-37.7364 333.075 -39.3419 333.643 -39.9961 334.988L-47.7863 351.001C-48.4393 352.346 -47.8951 353.958 -46.5684 354.601L11.5569 382.798C12.8824 383.441 14.4879 382.872 15.1421 381.529L22.9323 365.514C23.5853 364.169 23.0411 362.559 21.7144 361.915Z" stroke="white" stroke-width="0.78" stroke-linecap="round" stroke-linejoin="round"/>
<path d="M9.69579 387.524L-12.6942 376.757C-13.7837 376.234 -15.1031 376.695 -15.6399 377.789L-29.9756 406.973C-30.5124 408.066 -30.0649 409.377 -28.9754 409.902L-6.58531 420.667C-5.4946 421.191 -4.17647 420.729 -3.63967 419.636L10.696 390.452C11.2328 389.359 10.7853 388.048 9.69579 387.524Z" stroke="white" stroke-width="0.64" stroke-linecap="round" stroke-linejoin="round"/>
<path d="M71.6868 152.39L53.7587 143.775C52.5396 143.189 51.609 142.142 51.1713 140.863C50.7347 139.584 50.8265 138.177 51.4281 136.955L66.6857 100.216C67.9464 97.6519 68.9613 95.5872 71.4655 96.7908L97.4737 109.288C100.013 110.508 99.7847 111.016 97.755 115.145L78.5172 149.972C77.9193 151.189 76.8652 152.125 75.5862 152.579C74.306 153.031 72.9047 152.964 71.6868 152.39Z" stroke="white" stroke-width="2.32" stroke-linecap="round" stroke-linejoin="round"/>
<path d="M112.123 172.294L94.1952 163.679C92.9761 163.094 92.0455 162.046 91.6078 160.767C91.1713 159.487 91.263 158.082 91.8646 156.859L107.122 120.119C108.383 117.555 109.397 115.49 111.902 116.694L137.962 129.216C140.501 130.437 140.273 130.944 138.243 135.073L119.005 169.9C118.707 170.507 118.291 171.05 117.784 171.5C117.276 171.949 116.685 172.295 116.046 172.518C115.406 172.739 114.731 172.834 114.058 172.796C113.385 172.757 112.727 172.587 112.123 172.294Z" stroke="white" stroke-width="2.32" stroke-linecap="round" stroke-linejoin="round"/>
<path d="M72.2744 91.3493L101.436 105.474C101.436 105.474 107.178 93.6887 92.5809 86.6179C77.9835 79.5471 72.2744 91.3493 72.2744 91.3493Z" stroke="white" stroke-width="2.32" stroke-linecap="round" stroke-linejoin="round"/>
<path d="M112.677 111.237L141.838 125.362C141.838 125.362 147.581 113.576 132.983 106.505C118.386 99.4345 112.677 111.237 112.677 111.237Z" stroke="white" stroke-width="2.32" stroke-linecap="round" stroke-linejoin="round"/>
<path d="M206.585 230.085L40.9214 148.966C37.439 147.261 33.2217 148.775 31.5037 152.349L31.2493 152.876C29.5301 156.449 30.9608 160.729 34.4432 162.435L200.107 243.553C203.59 245.259 207.806 243.745 209.525 240.171L209.778 239.644C211.497 236.071 210.068 231.791 206.585 230.085Z" stroke="white" stroke-width="2.32" stroke-linecap="round" stroke-linejoin="round"/>
<path d="M316.882 154.695L185.178 91.1148C180.819 89.0105 175.543 90.8657 173.395 95.2583L134.562 174.639C132.414 179.031 134.205 184.298 138.564 186.402L270.268 249.982C274.627 252.087 279.902 250.232 282.052 245.838L320.885 166.459C323.033 162.065 321.242 156.799 316.882 154.695Z" stroke="white" stroke-width="2.32" stroke-linecap="round" stroke-linejoin="round"/>
<path d="M217.581 121.82L191.187 109.158C189.417 108.308 187.273 109.058 186.4 110.832L155.031 174.572C154.158 176.346 154.887 178.474 156.657 179.322L183.05 191.985C184.821 192.835 186.965 192.086 187.838 190.31L219.206 126.571C220.079 124.797 219.351 122.67 217.581 121.82Z" stroke="white" stroke-width="1.04" stroke-linecap="round" stroke-linejoin="round"/>
<path d="M297.74 162.293L230.112 129.487C228.568 128.738 226.7 129.4 225.938 130.965L216.871 149.604C216.109 151.169 216.744 153.046 218.288 153.795L285.915 186.601C287.459 187.35 289.329 186.688 290.089 185.123L299.156 166.483C299.918 164.918 299.283 163.042 297.74 162.293Z" stroke="white" stroke-width="0.91" stroke-linecap="round" stroke-linejoin="round"/>
<path d="M241.23 171.16L215.186 158.637C213.916 158.027 212.379 158.565 211.753 159.839L195.075 193.791C194.449 195.065 194.971 196.593 196.241 197.204L222.286 209.728C223.556 210.338 225.092 209.8 225.718 208.526L242.396 174.573C243.022 173.299 242.5 171.77 241.23 171.16Z" stroke="white" stroke-width="0.75" stroke-linecap="round" stroke-linejoin="round"/>
<path d="M283.757 192.094L257.713 179.57C256.442 178.96 254.906 179.498 254.28 180.772L237.602 214.725C236.976 215.999 237.498 217.528 238.767 218.138L264.812 230.661C266.082 231.271 267.619 230.733 268.244 229.459L284.923 195.507C285.549 194.233 285.027 192.704 283.757 192.094Z" stroke="white" stroke-width="0.75" stroke-linecap="round" stroke-linejoin="round"/>
<path d="M84.2186 491.454C73.5231 498.676 35.5526 480.167 32.1313 471.243C29.2933 461.005 43.8124 458.218 54.168 442.448C65.245 425.599 56.6049 408.953 59.6239 402.766C67.446 386.841 103.194 419.072 106.165 446.783C107.599 458.283 94.9142 484.232 84.2186 491.454Z" stroke="white" stroke-width="2.32" stroke-linecap="round" stroke-linejoin="round"/>
<path d="M59.1492 404.15L51.5998 400.506L50.2988 409.494L59.5906 414.086L59.1492 404.15Z" stroke="white" stroke-width="2.32" stroke-linecap="round" stroke-linejoin="round"/>
<path d="M34.6491 462.004L25.2974 457.489L31.6252 450.881L41.6714 455.624L34.6491 462.004Z" stroke="white" stroke-width="2.32" stroke-linecap="round" stroke-linejoin="round"/>
<path d="M82.8614 469.281C77.151 473.133 56.9045 463.186 55.0557 458.488C53.5016 453.017 61.2869 451.546 66.8431 443.13C72.754 434.118 68.1442 425.242 69.7509 421.929C73.9291 413.424 93.036 430.654 94.5999 445.43C95.3617 451.564 88.579 465.413 82.8614 469.281Z" stroke="white" stroke-width="0.95" stroke-linecap="round" stroke-linejoin="round"/>
<path d="M144.534 747.697C133.839 754.918 95.8694 736.409 92.4481 727.485C89.6174 717.23 104.129 714.459 114.493 698.673C125.622 681.849 116.852 665.162 119.888 658.982C127.72 643.043 163.458 675.29 166.439 702.982C167.916 714.525 155.231 740.475 144.534 747.697Z" stroke="white" stroke-width="2.32" stroke-linecap="round" stroke-linejoin="round"/>
<path d="M119.459 660.363L111.925 656.728L110.624 665.715L119.89 670.316L119.459 660.363Z" stroke="white" stroke-width="2.32" stroke-linecap="round" stroke-linejoin="round"/>
<path d="M94.966 718.247L85.6143 713.733L91.9421 707.126L101.997 711.852L94.966 718.247Z" stroke="white" stroke-width="2.32" stroke-linecap="round" stroke-linejoin="round"/>
<path d="M143.185 725.506C137.475 729.357 117.229 719.411 115.38 714.712C113.834 709.225 121.62 707.754 127.175 699.337C133.078 690.344 128.451 681.458 130.075 678.153C134.253 669.649 153.369 686.861 154.924 701.654C155.686 707.788 148.895 721.654 143.185 725.506Z" stroke="white" stroke-width="0.95" stroke-linecap="round" stroke-linejoin="round"/>
<path d="M59.3362 657.714L-60.0081 600.055C-70.7721 594.855 -83.8008 599.441 -89.1076 610.298L-114.44 662.13C-119.747 672.987 -115.323 686.004 -104.559 691.206L14.786 748.864C25.5512 754.065 38.5785 749.479 43.8853 738.621L69.2186 686.791C74.5254 675.932 70.1002 662.915 59.3362 657.714Z" stroke="white" stroke-width="2.32" stroke-miterlimit="10"/>
<path d="M51.4006 666.319L-30.2361 626.908C-38.1865 623.07 -47.8097 626.453 -51.7286 634.466L-72.375 676.672C-76.2952 684.684 -73.0268 694.291 -65.0763 698.128L16.5603 737.539C24.5108 741.377 34.1339 737.994 38.0529 729.981L58.6993 687.775C62.6195 679.763 59.351 670.157 51.4006 666.319Z" stroke="white" stroke-width="1.55" stroke-miterlimit="10"/>
<path d="M-48.9702 651.18L-39.281 655.884L-23.7837 643.445L-22.9547 663.812L-13.2655 668.516L-14.2584 680.9L-4.08983 672.972L18.3418 683.864L33.6545 670.496L33.1238 691.042L44.3402 696.488" stroke="white" stroke-width="1.32" stroke-linecap="round" stroke-linejoin="round"/>
<path d="M-19.7554 699.825L-14.7824 702.243C-14.7824 702.243 -9.34351 697.369 -7.31495 697.729C-5.28638 698.091 -2.19646 701.942 -2.19646 701.942C-0.385549 704.206 0.691719 706.984 0.891029 709.904L6.87524 712.813" stroke="white" stroke-width="0.81" stroke-linecap="round" stroke-linejoin="round"/>
<path d="M2.09766 710.579L7.07064 712.997C7.07064 712.997 12.5083 708.123 14.5368 708.484C16.5654 708.845 19.6566 712.696 19.6566 712.696C21.7561 715.095 21.5469 717.536 21.7389 719.891L28.8383 723.343" stroke="white" stroke-width="0.81" stroke-linecap="round" stroke-linejoin="round"/>
<path d="M116.727 535.123L70.5464 512.939C65.6101 510.568 59.6356 512.658 57.2023 517.608L16.9575 599.464C14.5242 604.414 16.5527 610.348 21.489 612.719L67.6704 634.903C72.6067 637.274 78.5799 635.184 81.0132 630.234L121.259 548.377C123.693 543.429 121.663 537.495 116.727 535.123Z" stroke="white" stroke-width="2.32" stroke-linecap="round" stroke-linejoin="round"/>
<path d="M108.853 538.9L72.4322 521.402C68.6428 519.58 64.0562 521.185 62.1878 524.986L32.0222 586.35C30.1538 590.151 31.7116 594.708 35.501 596.529L71.9223 614.026C75.7128 615.847 80.2994 614.243 82.1678 610.442L112.332 549.078C114.201 545.278 112.643 540.72 108.853 538.9Z" stroke="white" stroke-width="1.31" stroke-linecap="round" stroke-linejoin="round"/>
<path d="M47.38 618.078C49.4367 619.069 51.925 618.196 52.9387 616.131C53.9524 614.064 53.1074 611.587 51.0507 610.596C48.9953 609.607 46.5057 610.479 45.4921 612.545C44.4784 614.611 45.3245 617.088 47.38 618.078Z" stroke="white" stroke-width="1.31" stroke-linecap="round" stroke-linejoin="round"/>
<path d="M341.904 668.917L313.284 655.15C311.174 654.129 309.564 652.314 308.805 650.097C308.045 647.88 308.198 645.444 309.23 643.32L328.331 588.478C329.378 586.356 331.219 584.726 333.451 583.945C335.683 583.164 338.125 583.293 340.242 584.306L383.138 604.941C385.245 605.966 386.851 607.785 387.606 610.003C388.36 612.222 388.202 614.658 387.166 616.78L353.772 664.747C352.725 666.857 350.891 668.479 348.669 669.259C346.447 670.04 344.015 669.918 341.904 668.917Z" stroke="white" stroke-width="2.32" stroke-linecap="round" stroke-linejoin="round"/>
<path d="M327.175 591.6L385.098 620.111" stroke="white" stroke-width="1.16" stroke-linecap="round" stroke-linejoin="round"/>
<path d="M-19.0272 568.917L-47.6802 555.133C-49.7883 554.113 -51.3962 552.297 -52.1531 550.082C-52.91 547.866 -52.7535 545.432 -51.7178 543.311L-32.617 488.469C-31.5679 486.356 -29.7313 484.734 -27.5046 483.953C-25.278 483.173 -22.8434 483.3 -20.7305 484.306L22.1641 504.941C24.2685 505.964 25.874 507.78 26.6296 509.995C27.3853 512.209 27.2312 514.642 26.2017 516.763L-7.19203 564.729C-8.23261 566.837 -10.0594 568.459 -12.2751 569.243C-14.4907 570.026 -16.9167 569.91 -19.0272 568.917Z" stroke="white" stroke-width="2.32" stroke-linecap="round" stroke-linejoin="round"/>
<path d="M10.7311 491.33L-2.69849 484.817C-4.55464 483.917 -6.80208 484.711 -7.71793 486.593C-8.63378 488.475 -7.87077 490.731 -6.01461 491.631L7.41502 498.145C9.2724 499.046 11.5198 498.25 12.4345 496.368C13.3503 494.486 12.5873 492.231 10.7311 491.33Z" stroke="white" stroke-width="2.32" stroke-linecap="round" stroke-linejoin="round"/>
<path d="M-33.7373 491.614L24.1692 520.117" stroke="white" stroke-width="1.16" stroke-linecap="round" stroke-linejoin="round"/>
<path d="M214.579 80.8372L185.907 67.0448C183.803 66.0213 182.199 64.2046 181.443 61.9905C180.686 59.7763 180.84 57.3437 181.871 55.2223L200.98 0.363002C202.028 -1.74958 203.866 -3.37243 206.093 -4.15207C208.318 -4.9317 210.753 -4.80503 212.866 -3.79967L255.761 16.8352C257.866 17.8587 259.47 19.6753 260.226 21.8895C260.983 24.1037 260.828 26.5363 259.798 28.6576L226.395 76.6414C225.354 78.7423 223.53 80.3593 221.32 81.1442C219.11 81.929 216.689 81.8187 214.579 80.8372Z" stroke="white" stroke-width="2.32" stroke-linecap="round" stroke-linejoin="round"/>
<path d="M244.326 3.231L230.896 -3.28275C229.04 -4.18331 226.793 -3.38778 225.877 -1.50595C224.962 0.375951 225.725 2.63152 227.582 3.53204L241.011 10.0458C242.867 10.9464 245.115 10.1508 246.031 8.26897C246.946 6.3871 246.183 4.13152 244.326 3.231Z" stroke="white" stroke-width="2.32" stroke-linecap="round" stroke-linejoin="round"/>
<path d="M199.861 3.50507L257.768 32.008" stroke="white" stroke-width="1.16" stroke-linecap="round" stroke-linejoin="round"/>
<path d="M360.733 -13.3594L341.399 26.3201L336.698 24.0435L339.044 16.7053L253.208 -24.8728L256.328 -31.2778L249.493 -34.5244L255.55 -46.9525L262.385 -43.7059L265.692 -50.4927L351.374 -8.9894L355.536 -15.8771L360.733 -13.3594Z" stroke="white" stroke-width="1.7" stroke-linecap="round" stroke-linejoin="round"/>
<path d="M360.685 -13.2109L355.488 -15.736L351.327 -8.82117L265.672 -50.4491L262.365 -43.6357L255.532 -46.8921L249.477 -34.4155L256.309 -31.1591L253.189 -24.7292L338.998 16.9737L336.651 24.3401L341.35 26.6236L347.896 13.1363L397.258 37.2334L396.561 41.1587L401.156 43.3921L410.823 23.4749L405.73 20.9998L403.327 24.2902L354.138 0.276353L360.685 -13.2109Z" stroke="white" stroke-width="2.32" stroke-linecap="round" stroke-linejoin="round"/>
<path d="M-18.5943 206.65L-39.5084 196.594C-41.2582 195.742 -42.5922 194.23 -43.2207 192.39C-43.8492 190.55 -43.7221 188.527 -42.8661 186.764L-31.4492 163.522C-30.5798 161.762 -29.0513 160.411 -27.1988 159.762C-25.3463 159.114 -23.319 159.221 -21.5619 160.06L-16.913 162.295L-13.4696 155.289L-1.16862 161.203L-5.02277 168.013L-0.596363 170.141C1.16075 170.985 2.50091 172.496 3.13063 174.338C3.76035 176.182 3.62828 178.208 2.76257 179.97L-8.67151 203.247C-9.5519 205.005 -11.0914 206.35 -12.9512 206.987C-14.811 207.626 -16.8408 207.503 -18.5943 206.65Z" stroke="white" stroke-width="2.32" stroke-linecap="round" stroke-linejoin="round"/>
<path d="M3.11161 152.487L-9.11848 146.566C-11.5444 145.391 -14.4791 146.427 -15.6749 148.88L-15.6835 148.897C-16.8794 151.351 -15.8828 154.292 -13.4581 155.466L-1.22676 161.388C1.19798 162.563 4.13384 161.526 5.3297 159.073L5.33827 159.056C6.53413 156.602 5.53758 153.663 3.11161 152.487Z" stroke="white" stroke-width="2.32" stroke-linecap="round" stroke-linejoin="round"/>
<path d="M136.222 956.172L115.308 946.116C113.558 945.268 112.221 943.762 111.59 941.924C110.961 940.086 111.085 938.065 111.94 936.303L123.384 913.009C124.256 911.256 125.784 909.91 127.634 909.264C129.486 908.62 131.508 908.727 133.263 909.566L137.929 911.81L141.371 904.802L153.57 910.668L149.716 917.476L154.143 919.605C155.896 920.448 157.235 921.955 157.866 923.794C158.497 925.633 158.368 927.656 157.509 929.418L146.066 952.711C145.2 954.462 143.679 955.809 141.835 956.457C139.991 957.105 137.974 957.002 136.222 956.172Z" stroke="white" stroke-width="2.32" stroke-linecap="round" stroke-linejoin="round"/>
<path d="M157.931 901.996L145.701 896.074C143.275 894.899 140.339 895.936 139.143 898.389L139.135 898.406C137.939 900.86 138.937 903.801 141.361 904.975L153.593 910.896C156.017 912.072 158.953 911.035 160.149 908.582L160.158 908.565C161.353 906.112 160.357 903.171 157.931 901.996Z" stroke="white" stroke-width="2.32" stroke-linecap="round" stroke-linejoin="round"/>
<path d="M243.854 950.729L225.926 942.114C224.704 941.528 223.772 940.479 223.332 939.2C222.892 937.92 222.98 936.512 223.577 935.286L238.853 898.554C240.113 895.99 241.127 893.926 243.633 895.129L269.692 907.651C272.232 908.872 272.003 909.379 269.973 913.508L250.736 948.335C250.437 948.943 250.022 949.486 249.514 949.935C249.007 950.384 248.416 950.729 247.777 950.952C247.137 951.174 246.462 951.27 245.788 951.231C245.116 951.193 244.458 951.022 243.854 950.729Z" stroke="white" stroke-width="2.32" stroke-linecap="round" stroke-linejoin="round"/>
<path d="M284.289 970.631L266.429 962.05C265.823 961.761 265.281 961.355 264.835 960.856C264.389 960.356 264.046 959.772 263.828 959.138C263.61 958.504 263.52 957.831 263.563 957.159C263.607 956.486 263.783 955.828 264.082 955.221L279.399 918.404C280.659 915.841 281.674 913.776 284.179 914.979L310.17 927.469C312.709 928.689 312.48 929.196 310.451 933.326L291.212 968.151C290.921 968.771 290.51 969.329 290.003 969.79C289.496 970.252 288.903 970.608 288.257 970.839C287.612 971.07 286.929 971.17 286.248 971.135C285.566 971.099 284.9 970.928 284.289 970.631Z" stroke="white" stroke-width="2.32" stroke-linecap="round" stroke-linejoin="round"/>
<path d="M244.499 889.526L273.66 903.652C273.66 903.652 279.403 891.865 264.806 884.794C250.208 877.724 244.499 889.526 244.499 889.526Z" stroke="white" stroke-width="2.32" stroke-linecap="round" stroke-linejoin="round"/>
<path d="M284.902 909.413L314.063 923.539C314.063 923.539 319.806 911.752 305.209 904.682C290.61 897.611 284.902 909.413 284.902 909.413Z" stroke="white" stroke-width="2.32" stroke-linecap="round" stroke-linejoin="round"/>
<path d="M378.793 1028.34L213.129 947.22C209.647 945.514 205.431 947.029 203.712 950.602L203.459 951.13C201.739 954.703 203.169 958.983 206.651 960.687L372.315 1041.81C375.798 1043.51 380.015 1042 381.733 1038.42L381.987 1037.9C383.705 1034.32 382.276 1030.05 378.793 1028.34Z" stroke="white" stroke-width="2.32" stroke-linecap="round" stroke-linejoin="round"/>
<path d="M489.072 952.946L357.368 889.367C353.009 887.263 347.732 889.118 345.584 893.51L306.751 972.891C304.603 977.283 306.394 982.551 310.754 984.654L442.458 1048.23C446.817 1050.34 452.092 1048.48 454.241 1044.09L493.074 964.71C495.222 960.317 493.431 955.051 489.072 952.946Z" stroke="white" stroke-width="2.32" stroke-linecap="round" stroke-linejoin="round"/>
<path d="M389.77 920.066L363.378 907.403C361.607 906.553 359.464 907.303 358.589 909.078L327.222 972.817C326.349 974.592 327.076 976.718 328.848 977.568L355.24 990.231C357.012 991.081 359.156 990.331 360.029 988.557L391.396 924.817C392.269 923.042 391.542 920.916 389.77 920.066Z" stroke="white" stroke-width="1.04" stroke-linecap="round" stroke-linejoin="round"/>
<path d="M250.082 670.002L244.517 681.473C243.831 682.885 242.624 683.971 241.158 684.494C239.693 685.018 238.089 684.936 236.698 684.264L145.091 641.883C143.699 641.207 142.637 639.995 142.138 638.517C141.639 637.039 141.746 635.412 142.432 633.998L149.46 619.512C150.146 618.097 151.358 617.009 152.827 616.486C154.296 615.966 155.903 616.052 157.296 616.729L247.465 662.074C248.156 662.412 248.772 662.887 249.278 663.469C249.783 664.051 250.17 664.731 250.413 665.468C250.655 666.204 250.752 666.984 250.694 667.763C250.638 668.541 250.43 669.303 250.082 670.002Z" stroke="white" stroke-width="2.32" stroke-miterlimit="10"/>
<path d="M206.995 652.898C205.366 652.104 203.395 652.806 202.592 654.467C201.789 656.127 202.457 658.117 204.086 658.91L231.498 672.268C233.127 673.061 235.098 672.358 235.901 670.698C236.706 669.037 236.036 667.048 234.408 666.254L206.995 652.898Z" stroke="white" stroke-width="1.04" stroke-miterlimit="10"/>
<path d="M262.108 679.733L259.039 685.99C258.805 686.469 258.481 686.898 258.083 687.254C257.685 687.609 257.22 687.882 256.718 688.059C256.215 688.235 255.685 688.309 255.155 688.28C254.626 688.249 254.109 688.115 253.633 687.884L244.556 683.515C243.835 682.996 245.129 681.787 246.118 679.771L249.188 673.514C250.177 671.497 250.313 669.794 251.204 669.968L260.281 674.337C260.758 674.565 261.183 674.888 261.534 675.283C261.884 675.679 262.152 676.141 262.322 676.643C262.492 677.144 262.56 677.676 262.524 678.205C262.487 678.736 262.346 679.255 262.108 679.733Z" stroke="white" stroke-width="2.46" stroke-miterlimit="10"/>
<path d="M0 1370H331L331 0H0L0 1370Z" fill="url(#paint0_linear_326_866)"/>
</g>
</g>
<defs>
<linearGradient id="paint0_linear_326_866" x1="113.183" y1="-37.4264" x2="-108.077" y2="820.273" gradientUnits="userSpaceOnUse">
<stop offset="0.0210424" stop-color="#4C9E45" stop-opacity="0.8"/>
<stop offset="0.42762" stop-color="#4C9E45" stop-opacity="0.9"/>
<stop offset="0.678719" stop-color="#4C9E45" stop-opacity="0.95"/>
<stop offset="1" stop-color="#4C9E45" stop-opacity="0.7"/>
</linearGradient>
<clipPath id="clip0_326_866">
<rect width="331" height="1366" fill="white"/>
</clipPath>
</defs>
</svg>
