<!-- <svg width="21" height="18" viewBox="0 0 21 18" fill="none" xmlns="http://www.w3.org/2000/svg">
<path d="M19.1118 17.655H2.38985C2.11071 17.6554 1.83646 17.5818 1.59508 17.4416C1.3537 17.3014 1.15382 17.0997 1.01585 16.857C0.874509 16.6159 0.800003 16.3415 0.800003 16.062C0.800003 15.7826 0.874509 15.5081 1.01585 15.267L4.95785 8.43903C4.99763 8.36981 5.06328 8.31923 5.14036 8.29841C5.21744 8.2776 5.29963 8.28825 5.36885 8.32803C5.43807 8.36782 5.48865 8.43347 5.50947 8.51054C5.53028 8.58762 5.51963 8.66981 5.47985 8.73903L1.53785 15.597C1.45233 15.7475 1.40751 15.9177 1.40779 16.0907C1.40807 16.2638 1.45345 16.4338 1.53945 16.584C1.62545 16.7342 1.7491 16.8594 1.89823 16.9473C2.04735 17.0351 2.21679 17.0826 2.38985 17.085H19.1118C19.2943 17.088 19.4739 17.0402 19.6307 16.9469C19.7875 16.8537 19.9153 16.7187 19.9998 16.557C20.0802 16.4098 20.1223 16.2448 20.1223 16.077C20.1223 15.9093 20.0802 15.7443 19.9998 15.597L11.5998 1.09503C11.5148 0.945232 11.3919 0.820392 11.2434 0.732998C11.0949 0.645605 10.9261 0.59872 10.7538 0.597034C10.5793 0.595349 10.4075 0.640703 10.2565 0.728332C10.1056 0.81596 9.98097 0.94263 9.89585 1.09503L6.69785 6.59703C6.65877 6.66617 6.59389 6.71698 6.51741 6.73835C6.44093 6.75972 6.3591 6.7499 6.28985 6.71103C6.23051 6.66767 6.18877 6.6044 6.17224 6.53279C6.15572 6.46118 6.16552 6.38601 6.19985 6.32103L9.39185 0.795034C9.5314 0.553314 9.73212 0.352587 9.97383 0.213029C10.2155 0.0734715 10.4897 0 10.7688 0C11.048 0 11.3222 0.0734715 11.5639 0.213029C11.8056 0.352587 12.0063 0.553314 12.1458 0.795034L20.4858 15.267C20.6271 15.5092 20.702 15.7843 20.7031 16.0647C20.7043 16.345 20.6315 16.6207 20.4922 16.864C20.3529 17.1073 20.152 17.3096 19.9097 17.4506C19.6674 17.5916 19.3922 17.6662 19.1118 17.667V17.655Z" fill="#333333"/>
<path d="M10.7538 15.6451C10.4866 15.6462 10.225 15.5681 10.0022 15.4205C9.7794 15.2728 9.60544 15.0624 9.50234 14.8158C9.39924 14.5693 9.37164 14.2976 9.42306 14.0354C9.47447 13.7731 9.60257 13.532 9.79113 13.3426C9.97968 13.1532 10.2202 13.024 10.4823 12.9715C10.7443 12.9189 11.016 12.9453 11.2631 13.0473C11.5101 13.1493 11.7213 13.3223 11.8699 13.5444C12.0185 13.7666 12.0978 14.0278 12.0978 14.2951C12.0978 14.6521 11.9564 14.9945 11.7046 15.2475C11.4527 15.5005 11.1108 15.6435 10.7538 15.6451ZM10.7538 13.5451C10.6053 13.5439 10.4597 13.5868 10.3355 13.6685C10.2114 13.7502 10.1144 13.8669 10.0567 14.0039C9.99898 14.1408 9.98327 14.2918 10.0115 14.4377C10.0398 14.5835 10.1107 14.7177 10.2154 14.8232C10.32 14.9287 10.4537 15.0007 10.5993 15.0302C10.745 15.0596 10.8961 15.0451 11.0335 14.9885C11.1708 14.9319 11.2883 14.8358 11.371 14.7124C11.4537 14.5889 11.4978 14.4436 11.4978 14.2951C11.4979 14.0972 11.4197 13.9073 11.2803 13.7668C11.1409 13.6264 10.9517 13.5466 10.7538 13.5451Z" fill="#333333"/>
<path d="M10.7839 12.501C10.7111 12.5017 10.6405 12.476 10.5853 12.4285C10.5301 12.381 10.494 12.3151 10.4839 12.243L9.49385 4.84502C9.4907 4.67955 9.52017 4.51509 9.58058 4.36101C9.64099 4.20694 9.73115 4.06627 9.84593 3.94704C9.9607 3.82781 10.0978 3.73235 10.2495 3.66612C10.4012 3.59988 10.5644 3.56417 10.7299 3.56102C11.064 3.55465 11.387 3.6813 11.6278 3.91309C11.8686 4.14489 12.0075 4.46285 12.0139 4.79702L11.0779 12.237C11.0691 12.3092 11.0345 12.3757 10.9805 12.4243C10.9264 12.4728 10.8565 12.5001 10.7839 12.501ZM10.7539 4.14302C10.5793 4.14299 10.4117 4.21151 10.2871 4.33383C10.1625 4.45614 10.091 4.62247 10.0879 4.79702L10.7719 9.86702L11.4139 4.79702C11.4123 4.62302 11.342 4.45668 11.2184 4.3342C11.0948 4.21172 10.9279 4.14301 10.7539 4.14302Z" fill="#333333"/>
</svg> -->

<svg width="25" height="25" viewBox="0 0 25 25" fill="none" xmlns="http://www.w3.org/2000/svg">
<path d="M20.5413 21.4922H3.81934C3.5402 21.4926 3.26595 21.4189 3.02457 21.2787C2.78319 21.1386 2.58331 20.9368 2.44534 20.6942C2.304 20.4531 2.22949 20.1787 2.22949 19.8992C2.22949 19.6197 2.304 19.3453 2.44534 19.1042L6.38734 12.2762C6.42712 12.207 6.49277 12.1564 6.56985 12.1356C6.64692 12.1148 6.72912 12.1254 6.79834 12.1652C6.86756 12.205 6.91814 12.2706 6.93896 12.3477C6.95977 12.4248 6.94912 12.507 6.90934 12.5762L2.96734 19.4342C2.88182 19.5847 2.837 19.7548 2.83728 19.9279C2.83756 20.101 2.88294 20.271 2.96894 20.4212C3.05494 20.5714 3.17859 20.6966 3.32771 20.7844C3.47684 20.8723 3.64628 20.9198 3.81934 20.9222H20.5413C20.7237 20.9252 20.9034 20.8773 21.0602 20.7841C21.217 20.6909 21.3448 20.5559 21.4293 20.3942C21.5097 20.247 21.5518 20.0819 21.5518 19.9142C21.5518 19.7465 21.5097 19.5814 21.4293 19.4342L13.0293 4.93219C12.9443 4.78239 12.8213 4.65755 12.6729 4.57016C12.5244 4.48276 12.3556 4.43588 12.1833 4.43419C12.0088 4.43251 11.837 4.47786 11.686 4.56549C11.535 4.65312 11.4105 4.77979 11.3253 4.93219L8.12734 10.4342C8.08826 10.5033 8.02338 10.5541 7.9469 10.5755C7.87042 10.5969 7.78858 10.5871 7.71934 10.5482C7.66 10.5048 7.61826 10.4416 7.60173 10.3699C7.58521 10.2983 7.595 10.2232 7.62934 10.1582L10.8213 4.63219C10.9609 4.39047 11.1616 4.18975 11.4033 4.05019C11.645 3.91063 11.9192 3.83716 12.1983 3.83716C12.4774 3.83716 12.7516 3.91063 12.9934 4.05019C13.2351 4.18975 13.4358 4.39047 13.5753 4.63219L21.9153 19.1042C22.0566 19.3464 22.1315 19.6215 22.1326 19.9018C22.1338 20.1822 22.061 20.4579 21.9217 20.7012C21.7824 20.9445 21.5815 21.1468 21.3392 21.2877C21.0969 21.4287 20.8217 21.5034 20.5413 21.5042V21.4922Z" fill="#333333"/>
<path d="M12.1831 19.4822C11.9159 19.4834 11.6543 19.4052 11.4315 19.2576C11.2087 19.11 11.0347 18.8996 10.9316 18.653C10.8285 18.4064 10.801 18.1348 10.8524 17.8725C10.9038 17.6103 11.0319 17.3692 11.2204 17.1798C11.409 16.9904 11.6495 16.8612 11.9116 16.8086C12.1736 16.756 12.4453 16.7824 12.6924 16.8844C12.9394 16.9864 13.1506 17.1594 13.2992 17.3816C13.4478 17.6037 13.5271 17.865 13.5272 18.1322C13.5272 18.4892 13.3857 18.8317 13.1339 19.0847C12.882 19.3377 12.5402 19.4806 12.1831 19.4822ZM12.1831 17.3822C12.0346 17.381 11.889 17.424 11.7648 17.5057C11.6407 17.5874 11.5437 17.7041 11.486 17.841C11.4283 17.978 11.4126 18.1289 11.4408 18.2748C11.4691 18.4207 11.54 18.5549 11.6447 18.6604C11.7493 18.7659 11.883 18.8379 12.0286 18.8673C12.1743 18.8968 12.3254 18.8823 12.4628 18.8257C12.6002 18.7691 12.7176 18.673 12.8003 18.5495C12.883 18.426 12.9271 18.2808 12.9272 18.1322C12.9272 17.9343 12.849 17.7445 12.7096 17.604C12.5702 17.4635 12.381 17.3838 12.1831 17.3822Z" fill="#333333"/>
<path d="M12.2131 16.3382C12.1403 16.3389 12.0697 16.3131 12.0145 16.2656C11.9593 16.2182 11.9233 16.1523 11.9131 16.0802L10.9231 8.68218C10.9199 8.51671 10.9494 8.35225 11.0098 8.19817C11.0702 8.04409 11.1604 7.90342 11.2752 7.78419C11.3899 7.66496 11.5271 7.56951 11.6787 7.50327C11.8304 7.43704 11.9936 7.40133 12.1591 7.39818C12.4933 7.39181 12.8163 7.51846 13.0571 7.75025C13.2979 7.98205 13.4367 8.30001 13.4431 8.63418L12.5071 16.0742C12.4984 16.1463 12.4638 16.2129 12.4097 16.2614C12.3556 16.31 12.2857 16.3372 12.2131 16.3382ZM12.1831 7.98018C12.0085 7.98015 11.8409 8.04867 11.7163 8.17098C11.5918 8.2933 11.5202 8.45963 11.5171 8.63418L12.2011 13.7042L12.8431 8.63418C12.8415 8.46018 12.7713 8.29384 12.6477 8.17136C12.5241 8.04888 12.3571 7.98017 12.1831 7.98018Z" fill="#333333"/>
</svg>
