<!-- <svg width="21" height="21" viewBox="0 0 21 21" fill="none" xmlns="http://www.w3.org/2000/svg">
<path d="M3.96703 8.40239C3.90694 8.40127 3.84851 8.38249 3.79903 8.34839C3.76631 8.32667 3.73827 8.29863 3.71656 8.2659C3.69486 8.23318 3.67993 8.19643 3.67266 8.15785C3.66539 8.11926 3.66593 8.0796 3.67423 8.04122C3.68254 8.00284 3.69845 7.96652 3.72103 7.93439C4.85117 6.2883 6.27494 4.86453 7.92103 3.73438C7.98733 3.68662 8.06973 3.66678 8.15051 3.67912C8.23129 3.69146 8.30401 3.735 8.35303 3.80038C8.37733 3.82973 8.3953 3.86378 8.4058 3.90041C8.4163 3.93704 8.4191 3.97544 8.41403 4.01321C8.40896 4.05097 8.39612 4.08727 8.37633 4.11983C8.35653 4.15239 8.33022 4.1805 8.29903 4.20238H8.26303C6.67677 5.29868 5.30592 6.67767 4.21903 8.27039C4.19049 8.31079 4.15276 8.34383 4.10895 8.36678C4.06513 8.38973 4.01649 8.40193 3.96703 8.40239Z" fill="#333333"/>
<path d="M12.967 17.4024C12.9069 17.4013 12.8485 17.3825 12.799 17.3484C12.7663 17.3267 12.7383 17.2986 12.7166 17.2659C12.6949 17.2332 12.6799 17.1964 12.6727 17.1578C12.6654 17.1192 12.6659 17.0796 12.6742 17.0412C12.6825 17.0028 12.6985 16.9665 12.721 16.9344C13.8527 15.2896 15.2762 13.8661 16.921 12.7344L17.125 12.9564L17.299 13.2024L17.257 13.2324C15.6765 14.3219 14.3098 15.6926 13.225 17.2764C13.196 17.3173 13.1572 17.3502 13.1121 17.3722C13.067 17.3943 13.0171 17.4046 12.967 17.4024Z" fill="#333333"/>
<path d="M12.967 17.4023C12.8879 17.4011 12.8124 17.3688 12.757 17.3123L1.95702 6.51227C1.9073 6.46369 1.87641 6.39907 1.86982 6.32986C1.86323 6.26066 1.88137 6.19137 1.92102 6.13427C3.05117 4.48819 4.47494 3.06442 6.12102 1.93427C6.18148 1.88853 6.25521 1.86377 6.33103 1.86377C6.40684 1.86377 6.48057 1.88853 6.54102 1.93427L17.341 12.7343C17.3691 12.7622 17.3915 12.7953 17.4067 12.8319C17.4219 12.8685 17.4298 12.9077 17.4298 12.9473C17.4298 12.9869 17.4219 13.0261 17.4067 13.0626C17.3915 13.0992 17.3691 13.1324 17.341 13.1603C17.2849 13.2152 17.2096 13.246 17.131 13.246C17.0525 13.246 16.9771 13.2152 16.921 13.1603L6.28902 2.54027C4.84542 3.56484 3.58391 4.82432 2.55702 6.26627L13.183 16.8923C13.238 16.9484 13.2688 17.0237 13.2688 17.1023C13.2688 17.1808 13.238 17.2562 13.183 17.3123C13.1258 17.3697 13.0481 17.4021 12.967 17.4023Z" fill="#333333"/>
<path d="M19.663 20.6663C17.863 20.6663 14.161 18.2663 12.841 17.3723C12.8082 17.3601 12.7792 17.3394 12.757 17.3123L1.95702 6.51227C1.9073 6.46369 1.87641 6.39907 1.86982 6.32987C1.86323 6.26066 1.88137 6.19137 1.92102 6.13427C3.05117 4.48819 4.47494 3.06442 6.12102 1.93427C6.18148 1.88853 6.25521 1.86377 6.33102 1.86377C6.40684 1.86377 6.48057 1.88853 6.54102 1.93427L17.341 12.7343C18.397 14.2763 21.631 19.2443 20.449 20.4203C20.3423 20.5137 20.2173 20.5838 20.082 20.6261C19.9466 20.6685 19.8039 20.6822 19.663 20.6663ZM13.147 16.8563C16.009 18.8003 19.435 20.5523 19.999 20.0003C20.563 19.4363 18.799 15.9923 16.855 13.1243L6.28902 2.54027C4.84542 3.56484 3.58391 4.82432 2.55702 6.26627L13.147 16.8563Z" fill="#333333"/>
<path d="M17.407 20.0003H17.371C17.3317 19.9959 17.2937 19.9836 17.2593 19.9642C17.2248 19.9448 17.1946 19.9186 17.1706 19.8872C17.1465 19.8558 17.129 19.8199 17.1191 19.7816C17.1092 19.7433 17.1071 19.7034 17.113 19.6643V19.4843C17.1976 18.8641 17.4942 18.2922 17.9524 17.8656C18.4106 17.4391 19.0023 17.1843 19.627 17.1443C19.7062 17.141 19.7837 17.1685 19.843 17.2211C19.9023 17.2737 19.9389 17.3473 19.945 17.4263C19.9475 17.4657 19.9421 17.5052 19.9292 17.5426C19.9164 17.5799 19.8963 17.6143 19.8701 17.6439C19.8439 17.6734 19.8121 17.6975 19.7766 17.7147C19.741 17.732 19.7024 17.742 19.663 17.7443C19.1801 17.7749 18.7224 17.9703 18.3663 18.298C18.0103 18.6256 17.7775 19.0656 17.707 19.5443V19.7243C17.6997 19.7991 17.665 19.8686 17.6097 19.9195C17.5543 19.9704 17.4822 19.9992 17.407 20.0003Z" fill="#333333"/>
<path d="M13.027 15.0743C12.9492 15.0724 12.8747 15.0426 12.817 14.9903L5.83302 8.00031C5.77653 7.94382 5.7448 7.8672 5.7448 7.78731C5.7448 7.70742 5.77653 7.6308 5.83302 7.57431C5.88952 7.51782 5.96613 7.48608 6.04602 7.48608C6.12591 7.48608 6.20253 7.51782 6.25902 7.57431L13.243 14.5643C13.2984 14.6214 13.3293 14.6978 13.3293 14.7773C13.3293 14.8568 13.2984 14.9332 13.243 14.9903C13.1838 15.044 13.1069 15.0739 13.027 15.0743Z" fill="#333333"/>
<path d="M14.827 13.2743C14.7492 13.2724 14.6747 13.2426 14.617 13.1903L7.63303 6.20026C7.57654 6.14377 7.5448 6.06715 7.5448 5.98726C7.5448 5.90737 7.57654 5.83075 7.63303 5.77426C7.68952 5.71777 7.76614 5.68604 7.84603 5.68604C7.92592 5.68604 8.00254 5.71777 8.05903 5.77426L15.043 12.7643C15.0984 12.8214 15.1293 12.8977 15.1293 12.9773C15.1293 13.0568 15.0984 13.1332 15.043 13.1903C14.9838 13.2439 14.9069 13.2739 14.827 13.2743Z" fill="#333333"/>
<path d="M13.867 6.31431C13.8251 6.31116 13.7843 6.29941 13.7472 6.2798C13.71 6.26018 13.6773 6.23313 13.651 6.20031L12.451 5.00031C12.423 4.97234 12.4009 4.93913 12.3857 4.90259C12.3706 4.86604 12.3628 4.82687 12.3628 4.78731C12.3628 4.74775 12.3706 4.70858 12.3857 4.67204C12.4009 4.63549 12.423 4.60228 12.451 4.57431C12.479 4.54634 12.5122 4.52415 12.5487 4.50901C12.5853 4.49388 12.6245 4.48608 12.664 4.48608C12.7036 4.48608 12.7427 4.49388 12.7793 4.50901C12.8158 4.52415 12.849 4.54634 12.877 4.57431L14.077 5.77431C14.1051 5.8022 14.1275 5.83538 14.1427 5.87194C14.1579 5.9085 14.1658 5.94771 14.1658 5.98731C14.1658 6.02691 14.1579 6.06613 14.1427 6.10268C14.1275 6.13924 14.1051 6.17242 14.077 6.20031C14.0519 6.23295 14.0203 6.25997 13.9841 6.27961C13.9479 6.29925 13.9081 6.31107 13.867 6.31431Z" fill="#333333"/>
<path d="M16.429 5.27626C16.3479 5.27606 16.2703 5.24369 16.213 5.18626L14.251 3.20026C14.2231 3.17229 14.2009 3.13908 14.1857 3.10254C14.1706 3.06599 14.1628 3.02682 14.1628 2.98726C14.1628 2.9477 14.1706 2.90853 14.1857 2.87199C14.2009 2.83544 14.2231 2.80223 14.251 2.77426C14.279 2.74629 14.3122 2.7241 14.3487 2.70896C14.3853 2.69383 14.4245 2.68604 14.464 2.68604C14.5036 2.68604 14.5428 2.69383 14.5793 2.70896C14.6158 2.7241 14.6491 2.74629 14.677 2.77426L16.639 4.76026C16.6671 4.78815 16.6895 4.82133 16.7047 4.85789C16.7199 4.89445 16.7278 4.93366 16.7278 4.97326C16.7278 5.01287 16.7199 5.05208 16.7047 5.08864C16.6895 5.12519 16.6671 5.15837 16.639 5.18626C16.6118 5.21452 16.5792 5.23704 16.5431 5.2525C16.5071 5.26795 16.4683 5.27603 16.429 5.27626Z" fill="#333333"/>
<path d="M6.06703 14.1144C6.02512 14.1112 5.98432 14.0995 5.94716 14.0798C5.91 14.0602 5.87727 14.0332 5.85103 14.0004L4.65103 12.8004C4.62305 12.7724 4.60087 12.7392 4.58573 12.7026C4.57059 12.6661 4.5628 12.6269 4.5628 12.5874C4.5628 12.5478 4.57059 12.5086 4.58573 12.4721C4.60087 12.4355 4.62305 12.4023 4.65103 12.3744C4.679 12.3464 4.7122 12.3242 4.74875 12.3091C4.7853 12.2939 4.82447 12.2861 4.86403 12.2861C4.90358 12.2861 4.94275 12.2939 4.9793 12.3091C5.01585 12.3242 5.04905 12.3464 5.07703 12.3744L6.27703 13.5744C6.30514 13.6022 6.32746 13.6354 6.34269 13.672C6.35792 13.7085 6.36576 13.7478 6.36576 13.7874C6.36576 13.827 6.35792 13.8662 6.34269 13.9027C6.32746 13.9393 6.30514 13.9725 6.27703 14.0004C6.25195 14.033 6.2203 14.06 6.18413 14.0797C6.14795 14.0993 6.10806 14.1111 6.06703 14.1144Z" fill="#333333"/>
<path d="M5.02902 16.6764C4.94794 16.6762 4.87025 16.6438 4.81302 16.5864L2.85102 14.6004C2.82305 14.5724 2.80086 14.5392 2.78572 14.5027C2.77059 14.4661 2.76279 14.427 2.76279 14.3874C2.76279 14.3479 2.77059 14.3087 2.78572 14.2721C2.80086 14.2356 2.82305 14.2024 2.85102 14.1744C2.87899 14.1464 2.9122 14.1242 2.94875 14.1091C2.98529 14.094 3.02446 14.0862 3.06402 14.0862C3.10358 14.0862 3.14275 14.094 3.1793 14.1091C3.21584 14.1242 3.24905 14.1464 3.27702 14.1744L5.23902 16.1604C5.26714 16.1883 5.28946 16.2215 5.30469 16.258C5.31992 16.2946 5.32776 16.3338 5.32776 16.3734C5.32776 16.413 5.31992 16.4522 5.30469 16.4888C5.28946 16.5253 5.26714 16.5585 5.23902 16.5864C5.2118 16.6147 5.17919 16.6372 5.14312 16.6526C5.10706 16.6681 5.06826 16.6762 5.02902 16.6764Z" fill="#333333"/>
<path d="M2.27502 6.44635C2.19589 6.44522 2.12041 6.41287 2.06502 6.35635L1.46503 5.75635C1.25594 5.55069 1.08956 5.30574 0.975441 5.03558C0.861321 4.76541 0.801712 4.47536 0.800039 4.18209C0.798367 3.88882 0.854663 3.59811 0.965694 3.32666C1.07673 3.05521 1.2403 2.80838 1.44703 2.60035L2.59902 1.43035C3.02123 1.02586 3.58333 0.800049 4.16802 0.800049C4.75272 0.800049 5.31482 1.02586 5.73702 1.43035L6.33702 2.03035C6.39199 2.08643 6.42278 2.16182 6.42278 2.24035C6.42278 2.31887 6.39199 2.39427 6.33702 2.45035C6.30913 2.47847 6.27596 2.50079 6.2394 2.51602C6.20284 2.53125 6.16363 2.53909 6.12402 2.53909C6.08442 2.53909 6.04521 2.53125 6.00865 2.51602C5.97209 2.50079 5.93891 2.47847 5.91102 2.45035L5.31102 1.85035C5.00201 1.55615 4.59169 1.39206 4.16502 1.39206C3.73836 1.39206 3.32804 1.55615 3.01902 1.85035L1.84902 3.05035C1.54638 3.35497 1.37652 3.76694 1.37652 4.19635C1.37652 4.62575 1.54638 5.03772 1.84902 5.34235L2.44902 5.94235C2.50399 5.99843 2.53478 6.07382 2.53478 6.15235C2.53478 6.23087 2.50399 6.30627 2.44902 6.36235C2.40162 6.40841 2.34057 6.43787 2.27502 6.44635Z" fill="#333333"/>
<path d="M15.961 10.1123C15.8799 10.1121 15.8023 10.0797 15.745 10.0223C15.6901 9.96619 15.6593 9.8908 15.6593 9.81227C15.6593 9.73375 15.6901 9.65835 15.745 9.60227L19.825 5.52227L16.093 1.79627L11.071 6.80027C11.0431 6.82839 11.01 6.85071 10.9734 6.86594C10.9368 6.88117 10.8976 6.88901 10.858 6.88901C10.8184 6.88901 10.7792 6.88117 10.7426 6.86594C10.7061 6.85071 10.6729 6.82839 10.645 6.80027C10.5901 6.74419 10.5593 6.6688 10.5593 6.59027C10.5593 6.51175 10.5901 6.43635 10.645 6.38027L15.883 1.16027C15.9109 1.13215 15.9441 1.10984 15.9806 1.09461C16.0172 1.07937 16.0564 1.07153 16.096 1.07153C16.1356 1.07153 16.1748 1.07937 16.2114 1.09461C16.248 1.10984 16.2811 1.13215 16.309 1.16027L20.461 5.31227C20.5153 5.36863 20.5455 5.44399 20.545 5.52227C20.5458 5.60239 20.5157 5.67973 20.461 5.73827L16.171 10.0223C16.1438 10.0505 16.1112 10.073 16.0751 10.0885C16.0391 10.104 16.0003 10.112 15.961 10.1123Z" fill="#333333"/>
<path d="M5.54503 20.5283C5.46395 20.5281 5.38626 20.4958 5.32903 20.4383L1.17703 16.2863C1.12206 16.2303 1.09127 16.1549 1.09127 16.0763C1.09127 15.9978 1.12206 15.9224 1.17703 15.8663L5.52103 11.5223C5.54892 11.4942 5.5821 11.4719 5.61865 11.4567C5.65521 11.4414 5.69442 11.4336 5.73403 11.4336C5.77363 11.4336 5.81284 11.4414 5.8494 11.4567C5.88596 11.4719 5.91914 11.4942 5.94703 11.5223C6.002 11.5784 6.03278 11.6538 6.03278 11.7323C6.03278 11.8109 6.002 11.8863 5.94703 11.9423L1.81303 16.0763L5.54503 19.8023L10.597 14.7503C10.6531 14.6954 10.7285 14.6646 10.807 14.6646C10.8856 14.6646 10.9609 14.6954 11.017 14.7503C11.0479 14.7797 11.0721 14.8154 11.0881 14.8549C11.104 14.8944 11.1114 14.9368 11.1097 14.9794C11.108 15.022 11.0973 15.0637 11.0782 15.1018C11.0591 15.1399 11.0321 15.1735 10.999 15.2003L5.75503 20.4383C5.69964 20.4949 5.62416 20.5272 5.54503 20.5283Z" fill="#333333"/>
</svg> -->

<svg width="25" height="25" viewBox="0 0 25 25" fill="none" xmlns="http://www.w3.org/2000/svg">
<path d="M5.39613 10.2395C5.33604 10.2384 5.27761 10.2197 5.22813 10.1855C5.19541 10.1638 5.16737 10.1358 5.14566 10.1031C5.12396 10.0703 5.10903 10.0336 5.10176 9.995C5.09449 9.95641 5.09503 9.91676 5.10333 9.87838C5.11164 9.84 5.12755 9.80367 5.15013 9.77154C6.28027 8.12546 7.70404 6.70169 9.35013 5.57154C9.41643 5.52378 9.49883 5.50393 9.57961 5.51628C9.66039 5.52862 9.73311 5.57216 9.78213 5.63754C9.80643 5.66688 9.8244 5.70094 9.8349 5.73757C9.8454 5.7742 9.8482 5.8126 9.84313 5.85036C9.83806 5.88813 9.82522 5.92443 9.80543 5.95699C9.78563 5.98955 9.75932 6.01766 9.72813 6.03954H9.69213C8.10587 7.13584 6.73502 8.51483 5.64813 10.1075C5.61959 10.1479 5.58186 10.181 5.53805 10.2039C5.49423 10.2269 5.44559 10.2391 5.39613 10.2395Z" fill="#333333"/>
<path d="M14.3961 19.2395C14.336 19.2384 14.2776 19.2196 14.2281 19.1855C14.1954 19.1638 14.1674 19.1358 14.1457 19.1031C14.124 19.0703 14.109 19.0336 14.1018 18.995C14.0945 18.9564 14.095 18.9168 14.1033 18.8784C14.1116 18.84 14.1276 18.8037 14.1501 18.7715C15.2818 17.1268 16.7053 15.7033 18.3501 14.5715L18.5541 14.7935L18.7281 15.0395L18.6861 15.0695C17.1056 16.159 15.7389 17.5298 14.6541 19.1135C14.6251 19.1544 14.5863 19.1874 14.5412 19.2094C14.4961 19.2314 14.4462 19.2418 14.3961 19.2395Z" fill="#333333"/>
<path d="M14.3964 19.2394C14.3173 19.2383 14.2418 19.206 14.1864 19.1494L3.38638 8.34943C3.33666 8.30085 3.30577 8.23622 3.29918 8.16702C3.29259 8.09782 3.31073 8.02853 3.35038 7.97143C4.48053 6.32534 5.9043 4.90158 7.55038 3.77143C7.61084 3.72568 7.68457 3.70093 7.76038 3.70093C7.8362 3.70093 7.90993 3.72568 7.97038 3.77143L18.7704 14.5714C18.7985 14.5993 18.8208 14.6325 18.8361 14.6691C18.8513 14.7056 18.8591 14.7448 18.8591 14.7844C18.8591 14.824 18.8513 14.8632 18.8361 14.8998C18.8208 14.9364 18.7985 14.9695 18.7704 14.9974C18.7143 15.0524 18.6389 15.0832 18.5604 15.0832C18.4819 15.0832 18.4065 15.0524 18.3504 14.9974L7.71838 4.37743C6.27478 5.402 5.01327 6.66147 3.98638 8.10343L14.6124 18.7294C14.6674 18.7855 14.6981 18.8609 14.6981 18.9394C14.6981 19.018 14.6674 19.0934 14.6124 19.1494C14.5552 19.2069 14.4775 19.2392 14.3964 19.2394Z" fill="#333333"/>
<path d="M21.0924 22.5034C19.2924 22.5034 15.5904 20.1034 14.2704 19.2094C14.2376 19.1972 14.2086 19.1765 14.1864 19.1494L3.38638 8.34943C3.33666 8.30085 3.30577 8.23622 3.29918 8.16702C3.29259 8.09782 3.31073 8.02853 3.35038 7.97143C4.48053 6.32534 5.9043 4.90158 7.55038 3.77143C7.61084 3.72568 7.68457 3.70093 7.76038 3.70093C7.83619 3.70093 7.90993 3.72568 7.97038 3.77143L18.7704 14.5714C19.8264 16.1134 23.0604 21.0814 21.8784 22.2574C21.7717 22.3508 21.6467 22.4209 21.5113 22.4633C21.376 22.5056 21.2333 22.5193 21.0924 22.5034ZM14.5764 18.6934C17.4384 20.6374 20.8644 22.3894 21.4284 21.8374C21.9924 21.2734 20.2284 17.8294 18.2844 14.9614L7.71838 4.37743C6.27477 5.402 5.01327 6.66147 3.98638 8.10343L14.5764 18.6934Z" fill="#333333"/>
<path d="M18.8363 21.8375H18.8003C18.761 21.8331 18.723 21.8208 18.6886 21.8013C18.6541 21.7819 18.624 21.7557 18.5999 21.7244C18.5758 21.693 18.5583 21.6571 18.5484 21.6188C18.5385 21.5805 18.5365 21.5406 18.5423 21.5015V21.3215C18.6269 20.7012 18.9235 20.1293 19.3817 19.7028C19.84 19.2763 20.4316 19.0214 21.0563 18.9815C21.1356 18.9781 21.213 19.0057 21.2723 19.0583C21.3316 19.1109 21.3682 19.1844 21.3743 19.2635C21.3768 19.3029 21.3714 19.3424 21.3586 19.3797C21.3457 19.4171 21.3256 19.4515 21.2994 19.481C21.2732 19.5106 21.2414 19.5347 21.2059 19.5519C21.1703 19.5691 21.1318 19.5792 21.0923 19.5815C20.6095 19.612 20.1517 19.8075 19.7957 20.1352C19.4396 20.4628 19.2069 20.9028 19.1363 21.3815V21.5615C19.129 21.6363 19.0943 21.7058 19.039 21.7567C18.9837 21.8076 18.9115 21.8364 18.8363 21.8375Z" fill="#333333"/>
<path d="M14.4561 16.9115C14.3782 16.9096 14.3037 16.8798 14.2461 16.8275L7.26206 9.83747C7.20556 9.78098 7.17383 9.70436 7.17383 9.62447C7.17383 9.54458 7.20556 9.46796 7.26206 9.41147C7.31855 9.35498 7.39516 9.32324 7.47506 9.32324C7.55495 9.32324 7.63156 9.35498 7.68806 9.41147L14.6721 16.4015C14.7274 16.4586 14.7584 16.535 14.7584 16.6145C14.7584 16.694 14.7274 16.7704 14.6721 16.8275C14.6129 16.8811 14.5359 16.9111 14.4561 16.9115Z" fill="#333333"/>
<path d="M16.2568 15.1114C16.179 15.1096 16.1045 15.0797 16.0468 15.0274L9.06284 8.03742C9.00635 7.98093 8.97461 7.90431 8.97461 7.82442C8.97461 7.74453 9.00635 7.66791 9.06284 7.61142C9.11933 7.55493 9.19595 7.52319 9.27584 7.52319C9.35573 7.52319 9.43235 7.55493 9.48884 7.61142L16.4728 14.6014C16.5282 14.6585 16.5591 14.7349 16.5591 14.8144C16.5591 14.8939 16.5282 14.9703 16.4728 15.0274C16.4137 15.0811 16.3367 15.111 16.2568 15.1114Z" fill="#333333"/>
<path d="M15.2962 8.15147C15.2543 8.14832 15.2135 8.13657 15.1764 8.11695C15.1392 8.09734 15.1065 8.07028 15.0802 8.03747L13.8802 6.83747C13.8522 6.8095 13.8301 6.77629 13.8149 6.73974C13.7998 6.7032 13.792 6.66403 13.792 6.62447C13.792 6.58491 13.7998 6.54574 13.8149 6.50919C13.8301 6.47265 13.8522 6.43944 13.8802 6.41147C13.9082 6.3835 13.9414 6.36131 13.9779 6.34617C14.0145 6.33103 14.0537 6.32324 14.0932 6.32324C14.1328 6.32324 14.1719 6.33103 14.2085 6.34617C14.245 6.36131 14.2782 6.3835 14.3062 6.41147L15.5062 7.61147C15.5343 7.63936 15.5567 7.67254 15.5719 7.7091C15.5871 7.74565 15.595 7.78487 15.595 7.82447C15.595 7.86407 15.5871 7.90328 15.5719 7.93984C15.5567 7.9764 15.5343 8.00958 15.5062 8.03747C15.4811 8.07011 15.4495 8.09713 15.4133 8.11677C15.3771 8.1364 15.3373 8.14823 15.2962 8.15147Z" fill="#333333"/>
<path d="M17.859 7.11342C17.7779 7.11322 17.7002 7.08085 17.643 7.02342L15.681 5.03742C15.653 5.00945 15.6308 4.97624 15.6157 4.9397C15.6006 4.90315 15.5928 4.86398 15.5928 4.82442C15.5928 4.78486 15.6006 4.74569 15.6157 4.70915C15.6308 4.6726 15.653 4.63939 15.681 4.61142C15.709 4.58345 15.7422 4.56126 15.7787 4.54612C15.8153 4.53098 15.8544 4.52319 15.894 4.52319C15.9336 4.52319 15.9727 4.53098 16.0093 4.54612C16.0458 4.56126 16.079 4.58345 16.107 4.61142L18.069 6.59742C18.0971 6.62531 18.1194 6.65849 18.1347 6.69505C18.1499 6.73161 18.1577 6.77082 18.1577 6.81042C18.1577 6.85002 18.1499 6.88924 18.1347 6.92579C18.1194 6.96235 18.0971 6.99553 18.069 7.02342C18.0418 7.05168 18.0092 7.0742 17.9731 7.08965C17.937 7.10511 17.8982 7.11319 17.859 7.11342Z" fill="#333333"/>
<path d="M7.49642 15.9515C7.45451 15.9484 7.41371 15.9366 7.37655 15.917C7.33939 15.8974 7.30666 15.8703 7.28042 15.8375L6.08042 14.6375C6.05244 14.6095 6.03026 14.5763 6.01512 14.5398C5.99998 14.5032 5.99219 14.4641 5.99219 14.4245C5.99219 14.385 5.99998 14.3458 6.01512 14.3092C6.03026 14.2727 6.05244 14.2395 6.08042 14.2115C6.10839 14.1835 6.14159 14.1614 6.17814 14.1462C6.21469 14.1311 6.25386 14.1233 6.29342 14.1233C6.33297 14.1233 6.37214 14.1311 6.40869 14.1462C6.44524 14.1614 6.47844 14.1835 6.50642 14.2115L7.70642 15.4115C7.73453 15.4394 7.75685 15.4726 7.77208 15.5091C7.78731 15.5457 7.79515 15.5849 7.79515 15.6245C7.79515 15.6641 7.78731 15.7033 7.77208 15.7399C7.75685 15.7764 7.73453 15.8096 7.70642 15.8375C7.68134 15.8702 7.64969 15.8972 7.61352 15.9168C7.57734 15.9365 7.53745 15.9483 7.49642 15.9515Z" fill="#333333"/>
<path d="M6.45861 18.5136C6.37753 18.5134 6.29984 18.481 6.24261 18.4236L4.28061 16.4376C4.25264 16.4096 4.23045 16.3764 4.21531 16.3398C4.20017 16.3033 4.19238 16.2641 4.19238 16.2246C4.19238 16.185 4.20017 16.1458 4.21531 16.1093C4.23045 16.0727 4.25264 16.0395 4.28061 16.0116C4.30858 15.9836 4.34179 15.9614 4.37834 15.9463C4.41488 15.9311 4.45405 15.9233 4.49361 15.9233C4.53317 15.9233 4.57234 15.9311 4.60889 15.9463C4.64543 15.9614 4.67864 15.9836 4.70661 16.0116L6.66861 17.9976C6.69673 18.0255 6.71905 18.0586 6.73428 18.0952C6.74951 18.1318 6.75735 18.171 6.75735 18.2106C6.75735 18.2502 6.74951 18.2894 6.73428 18.3259C6.71905 18.3625 6.69673 18.3957 6.66861 18.4236C6.64138 18.4518 6.60878 18.4743 6.57271 18.4898C6.53664 18.5053 6.49785 18.5133 6.45861 18.5136Z" fill="#333333"/>
<path d="M3.70451 8.28351C3.62538 8.28238 3.5499 8.25003 3.49451 8.19351L2.89451 7.59351C2.68543 7.38785 2.51905 7.1429 2.40493 6.87273C2.29081 6.60257 2.2312 6.31252 2.22953 6.01925C2.22786 5.72598 2.28415 5.43526 2.39518 5.16382C2.50621 4.89237 2.66979 4.64554 2.87651 4.43751L4.02851 3.26751C4.45072 2.86302 5.01282 2.63721 5.59751 2.63721C6.18221 2.63721 6.74431 2.86302 7.16651 3.26751L7.76651 3.86751C7.82148 3.92359 7.85227 3.99898 7.85227 4.07751C7.85227 4.15603 7.82148 4.23143 7.76651 4.28751C7.73862 4.31563 7.70544 4.33794 7.66889 4.35317C7.63233 4.3684 7.59312 4.37625 7.55351 4.37625C7.51391 4.37625 7.4747 4.3684 7.43814 4.35317C7.40158 4.33794 7.3684 4.31563 7.34051 4.28751L6.74051 3.68751C6.4315 3.39331 6.02118 3.22922 5.59451 3.22922C5.16785 3.22922 4.75753 3.39331 4.44851 3.68751L3.27851 4.88751C2.97587 5.19213 2.80601 5.6041 2.80601 6.03351C2.80601 6.46291 2.97587 6.87488 3.27851 7.17951L3.87851 7.77951C3.93348 7.83559 3.96427 7.91098 3.96427 7.98951C3.96427 8.06803 3.93348 8.14343 3.87851 8.19951C3.83111 8.24556 3.77006 8.27503 3.70451 8.28351Z" fill="#333333"/>
<path d="M17.39 11.9494C17.309 11.9492 17.2313 11.9169 17.174 11.8594C17.1191 11.8034 17.0883 11.728 17.0883 11.6494C17.0883 11.5709 17.1191 11.4955 17.174 11.4394L21.254 7.35943L17.522 3.63343L12.5 8.63743C12.4722 8.66555 12.439 8.68787 12.4024 8.7031C12.3659 8.71833 12.3266 8.72617 12.287 8.72617C12.2474 8.72617 12.2082 8.71833 12.1717 8.7031C12.1351 8.68787 12.1019 8.66555 12.074 8.63743C12.0191 8.58135 11.9883 8.50596 11.9883 8.42743C11.9883 8.3489 12.0191 8.27351 12.074 8.21743L17.312 2.99743C17.3399 2.96931 17.3731 2.94699 17.4097 2.93176C17.4462 2.91653 17.4854 2.90869 17.525 2.90869C17.5646 2.90869 17.6039 2.91653 17.6404 2.93176C17.677 2.94699 17.7102 2.96931 17.738 2.99743L21.89 7.14943C21.9444 7.20579 21.9745 7.28115 21.974 7.35943C21.9748 7.43955 21.9447 7.51689 21.89 7.57543L17.6 11.8594C17.5728 11.8877 17.5402 11.9102 17.5041 11.9257C17.4681 11.9411 17.4293 11.9492 17.39 11.9494Z" fill="#333333"/>
<path d="M6.97426 22.3655C6.89318 22.3653 6.8155 22.3329 6.75826 22.2755L2.60626 18.1235C2.5513 18.0674 2.52051 17.992 2.52051 17.9135C2.52051 17.835 2.5513 17.7596 2.60626 17.7035L6.95026 13.3595C6.97815 13.3314 7.01133 13.3091 7.04789 13.2938C7.08445 13.2786 7.12366 13.2708 7.16326 13.2708C7.20287 13.2708 7.24208 13.2786 7.27864 13.2938C7.3152 13.3091 7.34838 13.3314 7.37627 13.3595C7.43123 13.4156 7.46202 13.491 7.46202 13.5695C7.46202 13.648 7.43123 13.7234 7.37627 13.7795L3.24226 17.9135L6.97426 21.6395L12.0263 16.5875C12.0823 16.5325 12.1577 16.5017 12.2363 16.5017C12.3148 16.5017 12.3902 16.5325 12.4463 16.5875C12.4771 16.6169 12.5013 16.6525 12.5173 16.692C12.5333 16.7315 12.5407 16.774 12.539 16.8166C12.5373 16.8591 12.5265 16.9009 12.5074 16.939C12.4883 16.977 12.4613 17.0106 12.4283 17.0375L7.18426 22.2755C7.12888 22.332 7.0534 22.3644 6.97426 22.3655Z" fill="#333333"/>
</svg>

