<!-- <svg width="21" height="21" viewBox="0 0 21 21" fill="none" xmlns="http://www.w3.org/2000/svg">
<path d="M12.748 20.0198C12.7086 20.0168 12.6701 20.006 12.6349 19.9881C12.5996 19.9701 12.5682 19.9454 12.5426 19.9153C12.5169 19.8851 12.4975 19.8503 12.4854 19.8126C12.4733 19.7749 12.4687 19.7353 12.472 19.6958L12.598 18.0998C12.6029 18.0391 12.6262 17.9813 12.6648 17.9342C12.7034 17.887 12.7554 17.8527 12.814 17.8358C13.084 17.7518 13.576 17.1218 14.398 14.5718C14.5083 14.3227 14.5247 14.0421 14.4442 13.7818C14.3637 13.5215 14.1917 13.2992 13.96 13.1558C13.0075 12.7287 12.0172 12.3912 11.002 12.1478C10.9386 12.1308 10.8825 12.0933 10.8424 12.0413C10.8023 11.9893 10.7804 11.9255 10.78 11.8598C10.78 11.8238 10.702 7.97784 10.702 7.11384C10.702 7.04184 10.702 6.99984 10.66 6.98784C10.5564 6.96464 10.449 6.96444 10.3454 6.98725C10.2417 7.01005 10.1443 7.05531 10.06 7.11984C9.91819 7.19337 9.79683 7.30091 9.70678 7.43285C9.61673 7.56478 9.5608 7.71699 9.544 7.87584C9.544 8.75784 9.544 10.1078 9.544 11.0018V11.7038C9.57606 12.0956 9.48673 12.4877 9.28813 12.827C9.08954 13.1662 8.79132 13.436 8.434 13.5998C7.636 13.8758 7.294 13.1318 7.066 12.6398C7.012 12.5138 6.952 12.3878 6.886 12.2678C6.82 12.1478 6.58 12.1778 6.442 12.2678C6.304 12.3578 6.052 12.5318 6.118 12.7298C6.352 13.4078 7.474 16.2398 7.576 16.4438C7.678 16.6478 8.716 17.5958 9.43 18.2918C9.48324 18.3446 9.51526 18.415 9.52 18.4898L9.598 19.6898C9.60127 19.7289 9.59668 19.7683 9.5845 19.8056C9.57231 19.8429 9.55278 19.8774 9.52706 19.907C9.50134 19.9367 9.46994 19.9609 9.43472 19.9782C9.39951 19.9955 9.36118 20.0056 9.322 20.0078C9.24178 20.0128 9.16283 19.986 9.10221 19.9332C9.04158 19.8805 9.00415 19.806 8.998 19.7258L8.926 18.6158C7.726 17.4758 7.126 16.8158 7.054 16.7138C6.982 16.6118 5.758 13.5038 5.554 12.9038C5.49205 12.659 5.52426 12.3998 5.64426 12.1776C5.76426 11.9554 5.9633 11.7863 6.202 11.7038C6.4014 11.5913 6.636 11.5585 6.85862 11.6119C7.08124 11.6654 7.27538 11.8011 7.402 11.9918C7.47517 12.1242 7.54126 12.2604 7.6 12.3998C7.882 12.9998 7.99 13.1258 8.2 13.0418C8.866 12.8138 8.896 11.8838 8.896 11.6978V10.9958C8.896 10.1078 8.896 8.76384 8.896 7.88784C8.90981 7.62317 8.99159 7.36652 9.13348 7.14266C9.27536 6.9188 9.47254 6.73529 9.706 6.60984C9.8754 6.48182 10.0757 6.40103 10.2866 6.37574C10.4974 6.35044 10.7111 6.38153 10.906 6.46584C11.0176 6.53137 11.1088 6.62672 11.1692 6.74119C11.2296 6.85566 11.2569 6.98471 11.248 7.11384C11.248 7.85184 11.302 10.7858 11.32 11.6258C12.04 11.8298 13.87 12.3578 14.278 12.6878C14.6042 12.9029 14.8466 13.2235 14.9646 13.596C15.0826 13.9685 15.0689 14.3702 14.926 14.7338C14.398 16.3598 13.822 17.8838 13.126 18.3338L13.012 19.7618C13.0031 19.8281 12.9722 19.8895 12.9244 19.9362C12.8766 19.983 12.8145 20.0124 12.748 20.0198Z" fill="#333333"/>
<path d="M11.8 12.364C11.7204 12.3767 11.6391 12.3573 11.5738 12.31C11.5085 12.2628 11.4647 12.1915 11.452 12.112C11.4393 12.0324 11.4587 11.951 11.5059 11.8858C11.5532 11.8205 11.6244 11.7767 11.704 11.764C12.6592 11.4517 13.4857 10.835 14.057 10.0083C14.6283 9.18159 14.9129 8.19041 14.8672 7.18653C14.8215 6.18265 14.4481 5.22141 13.8041 4.44999C13.16 3.67857 12.2809 3.13949 11.3013 2.91529C10.3218 2.6911 9.29568 2.79414 8.38023 3.20864C7.46478 3.62315 6.71042 4.32627 6.23264 5.21035C5.75487 6.09442 5.58002 7.11073 5.73486 8.10364C5.88971 9.09656 6.36571 10.0114 7.09 10.708C7.11812 10.7359 7.14043 10.769 7.15567 10.8056C7.1709 10.8422 7.17874 10.8814 7.17874 10.921C7.17874 10.9606 7.1709 10.9998 7.15567 11.0363C7.14043 11.0729 7.11812 11.1061 7.09 11.134C7.03291 11.1893 6.95651 11.2203 6.877 11.2203C6.79748 11.2203 6.72109 11.1893 6.664 11.134C5.846 10.3455 5.309 9.3106 5.13521 8.18781C4.96142 7.06503 5.16043 5.91623 5.70177 4.91733C6.2431 3.91843 7.09692 3.12449 8.13248 2.65708C9.16803 2.18968 10.3282 2.07458 11.4355 2.3294C12.5427 2.58423 13.5358 3.19493 14.2629 4.068C14.9899 4.94106 15.4108 6.02837 15.461 7.16341C15.5112 8.29845 15.188 9.41867 14.5409 10.3525C13.8938 11.2864 12.9584 11.9824 11.878 12.334C11.854 12.3485 11.8276 12.3586 11.8 12.364Z" fill="#333333"/>
<path d="M8.002 9.80187C7.96019 9.80334 7.91858 9.79548 7.88018 9.77888C7.84179 9.76227 7.80756 9.73734 7.78 9.70587C7.35023 9.23388 7.06407 8.64904 6.95515 8.02006C6.84623 7.39109 6.91906 6.74408 7.16508 6.15506C7.41111 5.56604 7.82012 5.05945 8.34407 4.69482C8.86801 4.33018 9.48513 4.12263 10.1229 4.09655C10.7607 4.07047 11.3928 4.22695 11.9447 4.54759C12.4967 4.86824 12.9457 5.33974 13.239 5.90671C13.5323 6.47368 13.6577 7.11258 13.6005 7.74835C13.5433 8.38412 13.3058 8.99037 12.916 9.49587C12.8657 9.55332 12.7954 9.58942 12.7194 9.59682C12.6434 9.60422 12.5674 9.58235 12.507 9.53568C12.4465 9.48901 12.4061 9.42105 12.3941 9.34565C12.382 9.27024 12.3991 9.19307 12.442 9.12987C12.7624 8.71583 12.9579 8.21888 13.0054 7.69752C13.0529 7.17615 12.9505 6.65205 12.7102 6.18691C12.47 5.72177 12.1018 5.33495 11.6491 5.07196C11.1964 4.80898 10.6781 4.68078 10.155 4.70245C9.63189 4.72412 9.12588 4.89476 8.6965 5.19429C8.26712 5.49382 7.93224 5.90977 7.73127 6.39318C7.53029 6.8766 7.47159 7.40737 7.56207 7.92302C7.65255 8.43868 7.88845 8.91775 8.242 9.30387C8.26994 9.33124 8.29213 9.36392 8.30728 9.39998C8.32244 9.43604 8.33024 9.47476 8.33024 9.51387C8.33024 9.55298 8.32244 9.5917 8.30728 9.62776C8.29213 9.66382 8.26994 9.6965 8.242 9.72387C8.21108 9.75502 8.17317 9.77834 8.13144 9.79191C8.0897 9.80547 8.04532 9.80889 8.002 9.80187Z" fill="#333333"/>
<path d="M18.628 14.0619H16.528C16.4484 14.0619 16.3721 14.0303 16.3159 13.974C16.2596 13.9178 16.228 13.8415 16.228 13.7619C16.228 13.6823 16.2596 13.606 16.3159 13.5498C16.3721 13.4935 16.4484 13.4619 16.528 13.4619H18.628C18.8641 13.4619 19.0906 13.3685 19.258 13.2022C19.4255 13.0358 19.5204 12.81 19.522 12.5739V1.8939C19.522 1.6568 19.4278 1.42941 19.2602 1.26175C19.0925 1.09409 18.8651 0.999902 18.628 0.999902H1.894C1.6569 0.999902 1.42951 1.09409 1.26185 1.26175C1.09419 1.42941 1 1.6568 1 1.8939V12.5739C1.00159 12.81 1.09647 13.0358 1.26396 13.2022C1.43145 13.3685 1.65793 13.4619 1.894 13.4619H4.39C4.46957 13.4619 4.54587 13.4935 4.60213 13.5498C4.65839 13.606 4.69 13.6823 4.69 13.7619C4.69 13.8415 4.65839 13.9178 4.60213 13.974C4.54587 14.0303 4.46957 14.0619 4.39 14.0619H1.894C1.49881 14.0619 1.11971 13.9053 0.8397 13.6264C0.559692 13.3476 0.401589 12.9691 0.400002 12.5739L0.400002 1.8939C0.401581 1.49816 0.559492 1.11907 0.839329 0.83923C1.11917 0.559393 1.49825 0.401482 1.894 0.399902L18.628 0.399902C19.0237 0.401482 19.4028 0.559393 19.6827 0.83923C19.9625 1.11907 20.1204 1.49816 20.122 1.8939V12.5739C20.1204 12.9691 19.9623 13.3476 19.6823 13.6264C19.4023 13.9053 19.0232 14.0619 18.628 14.0619Z" fill="#333333"/>
</svg> -->

<svg width="25" height="25" viewBox="0 0 25 25" fill="none" xmlns="http://www.w3.org/2000/svg">
<path d="M15.1779 22.857C15.1385 22.854 15.1 22.8432 15.0648 22.8252C15.0295 22.8073 14.9982 22.7825 14.9725 22.7524C14.9469 22.7223 14.9274 22.6874 14.9153 22.6498C14.9032 22.6121 14.8986 22.5724 14.9019 22.533L15.0279 20.937C15.0329 20.8763 15.0562 20.8185 15.0948 20.7713C15.1333 20.7242 15.1854 20.6899 15.2439 20.673C15.5139 20.589 16.0059 19.959 16.8279 17.409C16.9382 17.1599 16.9547 16.8792 16.8741 16.619C16.7936 16.3587 16.6216 16.1363 16.3899 15.993C15.4374 15.5658 14.4471 15.2284 13.4319 14.985C13.3685 14.9679 13.3124 14.9305 13.2723 14.8785C13.2322 14.8264 13.2103 14.7627 13.2099 14.697C13.2099 14.661 13.1319 10.815 13.1319 9.951C13.1319 9.879 13.1319 9.837 13.0899 9.825C12.9863 9.8018 12.8789 9.8016 12.7753 9.8244C12.6716 9.84721 12.5742 9.89247 12.4899 9.957C12.3481 10.0305 12.2268 10.1381 12.1367 10.27C12.0467 10.4019 11.9907 10.5541 11.9739 10.713C11.9739 11.595 11.9739 12.945 11.9739 13.839V14.541C12.006 14.9328 11.9167 15.3249 11.7181 15.6641C11.5195 16.0033 11.2212 16.2732 10.8639 16.437C10.0659 16.713 9.72393 15.969 9.49593 15.477C9.44193 15.351 9.38193 15.225 9.31593 15.105C9.24993 14.985 9.00993 15.015 8.87193 15.105C8.73393 15.195 8.48193 15.369 8.54793 15.567C8.78193 16.245 9.90393 19.077 10.0059 19.281C10.1079 19.485 11.1459 20.433 11.8599 21.129C11.9132 21.1817 11.9452 21.2522 11.9499 21.327L12.0279 22.527C12.0312 22.5661 12.0266 22.6055 12.0144 22.6428C12.0022 22.6801 11.9827 22.7146 11.957 22.7442C11.9313 22.7738 11.8999 22.798 11.8646 22.8153C11.8294 22.8326 11.7911 22.8427 11.7519 22.845C11.6717 22.85 11.5928 22.8232 11.5321 22.7704C11.4715 22.7176 11.4341 22.6431 11.4279 22.563L11.3559 21.453C10.1559 20.313 9.55593 19.653 9.48393 19.551C9.41193 19.449 8.18793 16.341 7.98393 15.741C7.92197 15.4962 7.95418 15.237 8.07418 15.0148C8.19418 14.7926 8.39322 14.6235 8.63193 14.541C8.83133 14.4285 9.06592 14.3957 9.28854 14.4491C9.51116 14.5025 9.7053 14.6383 9.83193 14.829C9.90509 14.9614 9.97119 15.0976 10.0299 15.237C10.3119 15.837 10.4199 15.963 10.6299 15.879C11.2959 15.651 11.3259 14.721 11.3259 14.535V13.833C11.3259 12.945 11.3259 11.601 11.3259 10.725C11.3397 10.4603 11.4215 10.2037 11.5634 9.97982C11.7053 9.75596 11.9025 9.57245 12.1359 9.447C12.3053 9.31898 12.5057 9.23819 12.7165 9.21289C12.9273 9.1876 13.1411 9.21869 13.3359 9.303C13.4475 9.36852 13.5387 9.46388 13.5991 9.57835C13.6595 9.69282 13.6868 9.82187 13.6779 9.951C13.6779 10.689 13.7319 13.623 13.7499 14.463C14.4699 14.667 16.2999 15.195 16.7079 15.525C17.0341 15.7401 17.2765 16.0607 17.3945 16.4332C17.5125 16.8056 17.4989 17.2074 17.3559 17.571C16.8279 19.197 16.2519 20.721 15.5559 21.171L15.4419 22.599C15.433 22.6653 15.4021 22.7267 15.3543 22.7734C15.3065 22.8202 15.2444 22.8496 15.1779 22.857Z" fill="#333333"/>
<path d="M14.2298 15.2011C14.1503 15.2139 14.0689 15.1945 14.0037 15.1472C13.9384 15.0999 13.8946 15.0287 13.8818 14.9491C13.8691 14.8696 13.8885 14.7882 13.9358 14.7229C13.983 14.6577 14.0543 14.6139 14.1338 14.6011C15.089 14.2889 15.9155 13.6722 16.4868 12.8455C17.0581 12.0188 17.3427 11.0276 17.2971 10.0237C17.2514 9.01981 16.8779 8.05857 16.2339 7.28715C15.5899 6.51573 14.7108 5.97665 13.7312 5.75245C12.7516 5.52826 11.7255 5.6313 10.8101 6.0458C9.89463 6.46031 9.14026 7.16343 8.66249 8.0475C8.18472 8.93158 8.00986 9.94788 8.16471 10.9408C8.31955 11.9337 8.79556 12.8485 9.51985 13.5451C9.54796 13.573 9.57028 13.6062 9.58551 13.6428C9.60074 13.6793 9.60858 13.7185 9.60858 13.7581C9.60858 13.7977 9.60074 13.8369 9.58551 13.8735C9.57028 13.9101 9.54796 13.9432 9.51985 13.9711C9.46276 14.0265 9.38636 14.0574 9.30685 14.0574C9.22733 14.0574 9.15094 14.0265 9.09385 13.9711C8.27585 13.1826 7.73885 12.1478 7.56506 11.025C7.39127 9.90219 7.59028 8.75339 8.13162 7.75449C8.67295 6.75559 9.52677 5.96165 10.5623 5.49424C11.5979 5.02684 12.7581 4.91174 13.8653 5.16656C14.9725 5.42138 15.9657 6.03209 16.6927 6.90515C17.4198 7.77822 17.8406 8.86552 17.8908 10.0006C17.941 11.1356 17.6178 12.2558 16.9707 13.1897C16.3236 14.1235 15.3882 14.8195 14.3078 15.1711C14.2838 15.1856 14.2574 15.1958 14.2298 15.2011Z" fill="#333333"/>
<path d="M10.432 12.639C10.3902 12.6405 10.3486 12.6326 10.3102 12.616C10.2718 12.5994 10.2375 12.5745 10.21 12.543C9.78021 12.071 9.49405 11.4862 9.38513 10.8572C9.2762 10.2282 9.34903 9.58124 9.59506 8.99222C9.84109 8.40319 10.2501 7.89661 10.774 7.53197C11.298 7.16734 11.9151 6.95979 12.5529 6.93371C13.1907 6.90763 13.8227 7.0641 14.3747 7.38475C14.9267 7.7054 15.3757 8.1769 15.669 8.74387C15.9622 9.31084 16.0877 9.94974 16.0304 10.5855C15.9732 11.2213 15.7358 11.8275 15.346 12.333C15.2957 12.3905 15.2253 12.4266 15.1493 12.434C15.0733 12.4414 14.9974 12.4195 14.9369 12.3728C14.8765 12.3262 14.8361 12.2582 14.824 12.1828C14.812 12.1074 14.8291 12.0302 14.872 11.967C15.1924 11.553 15.3878 11.056 15.4354 10.5347C15.4829 10.0133 15.3805 9.48921 15.1402 9.02407C14.8999 8.55893 14.5318 8.17211 14.0791 7.90912C13.6264 7.64614 13.108 7.51794 12.5849 7.53961C12.0619 7.56128 11.5559 7.73192 11.1265 8.03145C10.6971 8.33097 10.3622 8.74692 10.1612 9.23034C9.96027 9.71376 9.90157 10.2445 9.99205 10.7602C10.0825 11.2758 10.3184 11.7549 10.672 12.141C10.6999 12.1684 10.7221 12.2011 10.7373 12.2371C10.7524 12.2732 10.7602 12.3119 10.7602 12.351C10.7602 12.3901 10.7524 12.4289 10.7373 12.4649C10.7221 12.501 10.6999 12.5337 10.672 12.561C10.6411 12.5922 10.6032 12.6155 10.5614 12.6291C10.5197 12.6426 10.4753 12.646 10.432 12.639Z" fill="#333333"/>
<path d="M21.0581 16.8991H18.9581C18.8785 16.8991 18.8022 16.8675 18.7459 16.8112C18.6897 16.7549 18.6581 16.6786 18.6581 16.5991C18.6581 16.5195 18.6897 16.4432 18.7459 16.3869C18.8022 16.3307 18.8785 16.2991 18.9581 16.2991H21.0581C21.2941 16.2991 21.5206 16.2057 21.6881 16.0393C21.8556 15.873 21.9505 15.6471 21.9521 15.4111V4.73106C21.9521 4.49396 21.8579 4.26656 21.6902 4.09891C21.5226 3.93125 21.2952 3.83706 21.0581 3.83706H4.32408C4.08697 3.83706 3.85958 3.93125 3.69192 4.09891C3.52427 4.26656 3.43008 4.49396 3.43008 4.73106V15.4111C3.43166 15.6471 3.52655 15.873 3.69404 16.0393C3.86152 16.2057 4.08801 16.2991 4.32408 16.2991H6.82008C6.89964 16.2991 6.97595 16.3307 7.03221 16.3869C7.08847 16.4432 7.12008 16.5195 7.12008 16.5991C7.12008 16.6786 7.08847 16.7549 7.03221 16.8112C6.97595 16.8675 6.89964 16.8991 6.82008 16.8991H4.32408C3.92888 16.8991 3.54978 16.7425 3.26978 16.4636C2.98977 16.1847 2.83167 15.8063 2.83008 15.4111V4.73106C2.83166 4.33531 2.98957 3.95623 3.26941 3.67639C3.54924 3.39655 3.92833 3.23864 4.32408 3.23706H21.0581C21.4538 3.23864 21.8329 3.39655 22.1127 3.67639C22.3926 3.95623 22.5505 4.33531 22.5521 4.73106V15.4111C22.5505 15.8063 22.3924 16.1847 22.1124 16.4636C21.8324 16.7425 21.4533 16.8991 21.0581 16.8991Z" fill="#333333"/>
</svg>