<svg width="24" height="24" viewBox="0 0 24 24" fill="none" xmlns="http://www.w3.org/2000/svg">
<path fill-rule="evenodd" clip-rule="evenodd" d="M6.3841 3.82657C6.49339 3.81526 6.60329 3.80972 6.71335 3.81L6.71418 3.81C7.21416 3.81012 7.70799 3.9202 8.16068 4.13244C8.52018 4.30635 8.84794 4.53931 9.13035 4.82162L9.16162 4.8568L9.16833 4.86413C9.54374 5.26351 9.82445 5.74225 9.98965 6.26488C10.1548 6.78751 10.2003 7.34062 10.1226 7.88321C10.1202 7.89997 10.119 7.91688 10.119 7.93381C10.119 7.93353 10.119 7.93368 10.119 7.93381C10.1189 7.93532 10.1185 7.94375 10.116 7.96505C10.1155 7.96926 10.1149 7.97464 10.1141 7.98084C10.1118 8.00058 10.1084 8.02855 10.1062 8.05267C10.1032 8.08569 10.0999 8.13469 10.1041 8.18729C10.1079 8.23502 10.1204 8.32502 10.179 8.41287C10.1922 8.43259 10.2072 8.45095 10.224 8.46768L19.805 18.0201L19.8102 18.0252C19.932 18.1417 20.0288 18.2816 20.095 18.4365C20.1612 18.5915 20.1953 18.7582 20.1953 18.9267C20.1953 19.0951 20.1612 19.2619 20.095 19.4168C20.0288 19.5717 19.932 19.7117 19.8102 19.8281L19.8046 19.8337C19.5698 20.0684 19.3401 20.1608 19.1313 20.1845C18.9155 20.2091 18.6955 20.1628 18.4868 20.0776C18.2784 19.9925 18.096 19.8743 17.9636 19.7747C17.8982 19.7255 17.8468 19.6821 17.8126 19.6519C17.7956 19.6368 17.7829 19.6251 17.7751 19.6177L17.7669 19.61L17.7662 19.6092L17.7658 19.6088L8.44306 10.2813C8.30599 10.1443 8.12874 10.1362 8.05653 10.1362C7.97396 10.1362 7.89315 10.1498 7.85315 10.1565C7.85228 10.1567 7.85143 10.1568 7.8506 10.157C7.31056 10.2318 6.76059 10.1848 6.24105 10.0193C5.72002 9.8534 5.24289 9.57261 4.84487 9.19766C4.84169 9.19466 4.83845 9.19172 4.83516 9.18884L4.80743 9.16458C4.52989 8.88007 4.30183 8.55115 4.13271 8.19139L4.13129 8.18841C3.91061 7.73002 3.79575 7.2279 3.79522 6.71915L3.79522 6.71837C3.7949 6.61988 3.79924 6.52151 3.80822 6.42358L5.53532 8.20235C5.61652 8.30379 5.71642 8.38882 5.82968 8.4528C5.94976 8.52063 6.08236 8.56338 6.21945 8.57846C6.35654 8.59353 6.49526 8.58063 6.62721 8.54053C6.75916 8.50042 6.8816 8.43395 6.98711 8.34514C6.99475 8.33871 7.00212 8.33196 7.00919 8.32492L8.28538 7.05349C8.29265 7.04624 8.29961 7.03868 8.30623 7.03084C8.39466 6.92608 8.46114 6.80463 8.50174 6.6737C8.54234 6.54276 8.55623 6.40501 8.54259 6.2686C8.52895 6.13219 8.48806 5.99991 8.42233 5.87961C8.35991 5.76535 8.2763 5.66411 8.17603 5.58125L6.3841 3.82657ZM3.16934 5.88968L3.22574 5.60297C3.25139 5.47261 3.34728 5.36726 3.47466 5.32949C3.60204 5.29173 3.73985 5.3278 3.8324 5.42312L6.06097 7.71835C6.07082 7.72849 6.08005 7.73921 6.08863 7.75044C6.11365 7.78322 6.14507 7.81059 6.18098 7.83087C6.2169 7.85116 6.25655 7.86394 6.29755 7.86845C6.33855 7.87296 6.38003 7.8691 6.4195 7.85711C6.45509 7.84629 6.48837 7.82906 6.51771 7.80629L7.76826 6.56041C7.79109 6.53103 7.80846 6.49775 7.8195 6.46214C7.83178 6.42255 7.83598 6.38091 7.83185 6.33967C7.82773 6.29843 7.81536 6.25844 7.79549 6.22207C7.77562 6.1857 7.74865 6.15369 7.71618 6.12794C7.70643 6.12021 7.69709 6.11198 7.6882 6.10327L5.39773 3.86042C5.30443 3.76906 5.26843 3.63406 5.30384 3.50838C5.33926 3.38269 5.44044 3.28636 5.56771 3.25715L5.85925 3.19023C6.13997 3.12671 6.42695 3.095 6.71477 3.09571C7.32015 3.09592 7.91807 3.22942 8.46606 3.48672L8.46962 3.4884C8.90538 3.6989 9.30233 3.98171 9.64364 4.32478C9.64836 4.32952 9.65294 4.33439 9.65739 4.33939L9.69225 4.37862C10.1393 4.85535 10.4737 5.42638 10.6707 6.0496C10.8661 6.66771 10.9214 7.32147 10.8327 7.96344C10.8313 7.99613 10.828 8.0261 10.8256 8.04662L10.8243 8.05755L20.3068 17.5118C20.4969 17.6944 20.6483 17.9135 20.7519 18.1559C20.856 18.3995 20.9096 18.6617 20.9096 18.9267C20.9096 19.1916 20.856 19.4538 20.7519 19.6974C20.6483 19.9398 20.497 20.1588 20.307 20.3414C19.9638 20.6834 19.5874 20.8516 19.212 20.8942C18.8425 20.9362 18.4991 20.8542 18.2167 20.7388C17.934 20.6234 17.6977 20.4686 17.5341 20.3454C17.4515 20.2833 17.3856 20.2278 17.3395 20.187C17.3164 20.1666 17.2982 20.1498 17.2852 20.1375C17.2787 20.1314 17.2735 20.1264 17.2696 20.1227L17.2649 20.118L17.2632 20.1164L17.2626 20.1158C17.2625 20.1157 17.2622 20.1154 17.5143 19.8624L17.2622 20.1154L8.00686 10.8553C7.99379 10.8572 7.98001 10.8595 7.96346 10.8623L7.95422 10.8637C7.30677 10.9543 6.64725 10.8983 6.02432 10.6999C5.40351 10.5022 4.83484 10.1681 4.35997 9.72217L4.3267 9.69306C4.31996 9.68716 4.31344 9.68101 4.30715 9.67461C3.96943 9.33095 3.69214 8.93273 3.48699 8.49676C3.2204 7.94245 3.08163 7.33537 3.08093 6.72028M8.05928 10.8505C8.05927 10.8506 8.05898 10.8505 8.05844 10.8505L8.05928 10.8505Z" fill="#FFFFFF"/>
<path d="M10.119 7.93381C10.119 7.91688 10.1202 7.89997 10.1226 7.88321C10.2003 7.34062 10.1548 6.78751 9.98965 6.26488C9.82445 5.74225 9.54374 5.26351 9.16833 4.86413L9.16162 4.8568L9.13035 4.82162C8.84794 4.53931 8.52018 4.30635 8.16068 4.13244C7.70799 3.9202 7.21416 3.81012 6.71418 3.81L6.71335 3.81C6.60329 3.80972 6.49339 3.81526 6.3841 3.82657L8.17603 5.58125C8.2763 5.66411 8.35991 5.76535 8.42233 5.87961C8.48806 5.99991 8.52895 6.13219 8.54259 6.2686C8.55623 6.40501 8.54234 6.54276 8.50174 6.6737C8.46114 6.80463 8.39466 6.92608 8.30623 7.03084C8.29961 7.03868 8.29265 7.04624 8.28538 7.05349L7.00919 8.32492C7.00212 8.33196 6.99475 8.33871 6.98711 8.34514C6.8816 8.43395 6.75916 8.50042 6.62721 8.54053C6.49526 8.58063 6.35654 8.59353 6.21945 8.57846C6.08236 8.56338 5.94976 8.52063 5.82968 8.4528C5.71642 8.38882 5.61652 8.30379 5.53532 8.20235L3.80822 6.42358C3.79924 6.52151 3.7949 6.61989 3.79522 6.71837L3.79522 6.71915C3.79575 7.2279 3.91061 7.73002 4.13129 8.18841L4.13271 8.19139C4.30183 8.55115 4.52989 8.88007 4.80743 9.16458L4.83516 9.18884C4.83845 9.19172 4.84169 9.19466 4.84487 9.19766C5.24289 9.57261 5.72002 9.8534 6.24105 10.0193C6.76059 10.1848 7.31056 10.2318 7.8506 10.157C7.85143 10.1568 7.85228 10.1567 7.85315 10.1565C7.89315 10.1498 7.97396 10.1362 8.05653 10.1362C8.12874 10.1362 8.30599 10.1443 8.44306 10.2813L17.7658 19.6088L17.7662 19.6092L17.7669 19.61L17.7751 19.6177C17.7829 19.6251 17.7956 19.6368 17.8126 19.6519C17.8468 19.6821 17.8982 19.7255 17.9636 19.7747C18.096 19.8744 18.2784 19.9925 18.4868 20.0776C18.6955 20.1628 18.9155 20.2091 19.1313 20.1845C19.3401 20.1608 19.5698 20.0684 19.8046 19.8337L19.8102 19.8281C19.932 19.7117 20.0288 19.5717 20.095 19.4168C20.1612 19.2619 20.1953 19.0951 20.1953 18.9267C20.1953 18.7582 20.1612 18.5915 20.095 18.4365C20.0288 18.2816 19.932 18.1417 19.8102 18.0252L19.805 18.0201L10.224 8.46768C10.2072 8.45095 10.1922 8.43259 10.179 8.41287C10.1204 8.32502 10.1079 8.23502 10.1041 8.18729C10.0999 8.13469 10.1032 8.08569 10.1062 8.05267C10.1084 8.02855 10.1118 8.00058 10.1141 7.98084C10.1149 7.97464 10.1155 7.96926 10.116 7.96505C10.1185 7.94375 10.1189 7.93532 10.119 7.93381ZM10.119 7.93381C10.119 7.93368 10.119 7.93353 10.119 7.93381ZM6.71477 3.09571C6.42695 3.095 6.13997 3.12671 5.85925 3.19023L5.56771 3.25715C5.44044 3.28636 5.33926 3.38269 5.30384 3.50838C5.26843 3.63406 5.30443 3.76906 5.39773 3.86042L7.6882 6.10327C7.69709 6.11198 7.70643 6.12021 7.71618 6.12794C7.74865 6.15369 7.77562 6.1857 7.79549 6.22207C7.81537 6.25844 7.82773 6.29843 7.83185 6.33967C7.83598 6.38091 7.83178 6.42255 7.8195 6.46214C7.80846 6.49775 7.79109 6.53103 7.76826 6.56041L6.51771 7.80629C6.48837 7.82906 6.45509 7.84629 6.4195 7.85711C6.38003 7.8691 6.33855 7.87296 6.29755 7.86845C6.25655 7.86394 6.2169 7.85116 6.18098 7.83087C6.14507 7.81059 6.11365 7.78322 6.08863 7.75044C6.08005 7.73921 6.07082 7.72849 6.06097 7.71835L3.8324 5.42312C3.73985 5.3278 3.60204 5.29173 3.47466 5.32949C3.34728 5.36726 3.25139 5.47261 3.22574 5.60297L3.16934 5.88968L3.08093 6.72028C3.08163 7.33537 3.2204 7.94245 3.48699 8.49676C3.69214 8.93273 3.96943 9.33095 4.30715 9.67461C4.31344 9.68101 4.31996 9.68716 4.3267 9.69306L4.35997 9.72217C4.83484 10.1681 5.40351 10.5022 6.02432 10.6999C6.64725 10.8983 7.30677 10.9543 7.95422 10.8637L7.96346 10.8623C7.98001 10.8595 7.99379 10.8572 8.00686 10.8553L17.2622 20.1154L17.5143 19.8624C17.2622 20.1154 17.2625 20.1157 17.2626 20.1158L17.2632 20.1164L17.2649 20.118L17.2696 20.1227C17.2735 20.1264 17.2787 20.1314 17.2852 20.1375C17.2982 20.1498 17.3164 20.1666 17.3395 20.187C17.3856 20.2278 17.4515 20.2833 17.5341 20.3454C17.6977 20.4686 17.934 20.6234 18.2167 20.7388C18.4991 20.8542 18.8425 20.9362 19.212 20.8942C19.5874 20.8516 19.9638 20.6834 20.307 20.3414C20.497 20.1588 20.6483 19.9398 20.7519 19.6974C20.856 19.4538 20.9096 19.1916 20.9096 18.9267C20.9096 18.6617 20.856 18.3995 20.7519 18.1559C20.6483 17.9135 20.4969 17.6944 20.3068 17.5118L10.8243 8.05755L10.8256 8.04662C10.828 8.0261 10.8313 7.99613 10.8327 7.96344C10.9214 7.32147 10.8661 6.66771 10.6707 6.0496C10.4737 5.42638 10.1393 4.85535 9.69225 4.37862L9.65739 4.33939C9.65294 4.33439 9.64836 4.32952 9.64364 4.32478C9.30233 3.98171 8.90538 3.6989 8.46963 3.4884L8.46606 3.48672C7.91807 3.22942 7.32015 3.09592 6.71477 3.09571ZM6.71477 3.09571C6.71463 3.09571 6.71491 3.09572 6.71477 3.09571ZM6.71477 3.09571L6.71427 3.45286M8.05928 10.8505C8.05927 10.8506 8.05898 10.8505 8.05844 10.8505L8.05928 10.8505Z" stroke="#FFFFFF" stroke-width="0" stroke-linejoin="round"/>
<path fill-rule="evenodd" clip-rule="evenodd" d="M19.1705 3.11306C19.3091 3.03939 19.4796 3.0649 19.5906 3.1759L20.7811 4.36638C20.8924 4.47772 20.9177 4.64883 20.8433 4.78762L19.4576 7.37333C19.404 7.47337 19.306 7.54198 19.1937 7.55814L17.9206 7.74125L13.9712 11.6813C13.9633 11.6891 13.9551 11.6966 13.9466 11.7037L13.9525 11.7095L13.7213 11.9407L13.2162 11.4356L13.2207 11.4312L12.2835 10.479C12.1462 10.3394 12.1468 10.1153 12.2849 9.9765L16.2204 6.02232L16.4036 4.74902C16.4198 4.63623 16.4889 4.53796 16.5895 4.48449L19.1705 3.11306ZM17.0848 5.03018L16.9106 6.24119C16.8997 6.31728 16.8645 6.3878 16.8102 6.44229L13.0405 10.2299L13.7213 10.9216L17.5001 7.15179C17.5546 7.0974 17.6253 7.06209 17.7015 7.05113L18.9133 6.87683L20.0885 4.68395L19.2723 3.8678L17.0848 5.03018ZM9.88662 11.9708C10.0053 11.9436 10.1297 11.9786 10.2166 12.0639L11.9023 13.7162C11.9922 13.8043 12.029 13.9331 11.9994 14.0553L11.5232 16.022C11.5078 16.0858 11.4751 16.1441 11.4287 16.1905L7.05725 20.5619C7.03062 20.5886 6.99994 20.6108 6.96636 20.6279L6.80471 20.3094C6.96636 20.6279 6.96636 20.6279 6.96636 20.6279L6.96493 20.6286L6.96292 20.6296L6.95716 20.6324C6.95255 20.6347 6.94642 20.6376 6.93883 20.6412C6.92366 20.6483 6.9026 20.658 6.87614 20.6693C6.82329 20.6921 6.74851 20.722 6.65571 20.7534C6.47096 20.8158 6.21005 20.8856 5.90546 20.9138C5.29225 20.9706 4.486 20.8577 3.79503 20.1667C3.08408 19.4557 3.04851 18.5633 3.16616 17.9005C3.22534 17.5671 3.32497 17.2776 3.40898 17.0722C3.4512 16.969 3.49005 16.8857 3.51891 16.8272C3.53335 16.7979 3.54534 16.7747 3.55406 16.7582C3.55842 16.75 3.56197 16.7434 3.5646 16.7386L3.56786 16.7327L3.56895 16.7307L3.56935 16.73C3.56935 16.73 3.56967 16.7295 3.8809 16.9046L3.56967 16.7295C3.58562 16.7011 3.60536 16.6751 3.62836 16.6521L7.76646 12.514C7.81386 12.4666 7.87366 12.4335 7.939 12.4185L9.88662 11.9708ZM4.17156 17.119C4.16796 17.1262 4.16394 17.1342 4.15956 17.143C4.13707 17.1886 4.10524 17.2568 4.07008 17.3427C3.99933 17.5156 3.91741 17.7552 3.86945 18.0254C3.77281 18.5698 3.82058 19.1821 4.3001 19.6616C4.7996 20.1611 5.37193 20.2458 5.83967 20.2026C6.07556 20.1808 6.28072 20.1262 6.42692 20.0767C6.49959 20.0521 6.55651 20.0293 6.59399 20.0131C6.59512 20.0127 6.59732 20.0117 6.59732 20.0117L10.8526 15.7564L11.2575 14.0844L9.85616 12.7108L8.19898 13.0916L4.17156 17.119Z" fill="#FFFFFF"/>
<path d="M6.96636 20.6279C6.99994 20.6108 7.03062 20.5886 7.05725 20.5619L11.4287 16.1905C11.4751 16.1441 11.5078 16.0858 11.5233 16.022L11.9994 14.0553C12.029 13.9331 11.9922 13.8043 11.9023 13.7162L10.2166 12.0639C10.1297 11.9786 10.0053 11.9436 9.88662 11.9708L7.939 12.4185C7.87366 12.4335 7.81386 12.4666 7.76646 12.514L3.62836 16.6521C3.60536 16.6751 3.58562 16.7011 3.56967 16.7295L3.8809 16.9046C3.56967 16.7295 3.56935 16.73 3.56935 16.73L3.56895 16.7307L3.56786 16.7327L3.5646 16.7386C3.56197 16.7434 3.55842 16.75 3.55406 16.7582C3.54534 16.7747 3.53335 16.7979 3.51891 16.8272C3.49005 16.8857 3.4512 16.969 3.40898 17.0722C3.32497 17.2776 3.22534 17.5671 3.16616 17.9005C3.04851 18.5633 3.08408 19.4557 3.79503 20.1667C4.486 20.8577 5.29225 20.9706 5.90546 20.9138C6.21005 20.8856 6.47096 20.8158 6.65571 20.7534C6.74851 20.722 6.82329 20.6921 6.87614 20.6693C6.9026 20.658 6.92366 20.6483 6.93883 20.6412C6.94642 20.6376 6.95255 20.6347 6.95716 20.6324L6.96292 20.6296L6.96493 20.6286L6.96636 20.6279ZM6.96636 20.6279L6.80471 20.3094C6.96636 20.6279 6.96636 20.6279 6.96636 20.6279ZM19.5906 3.1759C19.4796 3.0649 19.3091 3.03939 19.1705 3.11306L16.5895 4.48449C16.4889 4.53796 16.4198 4.63623 16.4036 4.74902L16.2204 6.02232L12.2849 9.9765C12.1468 10.1153 12.1462 10.3394 12.2835 10.479L13.2207 11.4312L13.2162 11.4356L13.7213 11.9407L13.9525 11.7095L13.9466 11.7037C13.9551 11.6966 13.9633 11.6891 13.9712 11.6813L17.9206 7.74125L19.1937 7.55814C19.306 7.54198 19.404 7.47337 19.4576 7.37333L20.8433 4.78762C20.9177 4.64883 20.8924 4.47772 20.7811 4.36638L19.5906 3.1759ZM16.9106 6.24119L17.0848 5.03018L19.2723 3.8678L20.0885 4.68395L18.9133 6.87683L17.7015 7.05113C17.6253 7.06209 17.5546 7.0974 17.5001 7.15179L13.7213 10.9216L13.0405 10.2299L16.8102 6.44229C16.8645 6.3878 16.8997 6.31728 16.9106 6.24119ZM4.15956 17.143C4.16394 17.1342 4.16796 17.1261 4.17156 17.119L8.19898 13.0916L9.85616 12.7108L11.2575 14.0844L10.8526 15.7564L6.59732 20.0117C6.59732 20.0117 6.59512 20.0127 6.59399 20.0131C6.55651 20.0293 6.49959 20.0521 6.42692 20.0767C6.28072 20.1262 6.07556 20.1808 5.83967 20.2026C5.37193 20.2458 4.7996 20.1611 4.3001 19.6616C3.82058 19.1821 3.77281 18.5698 3.86945 18.0254C3.91741 17.7552 3.99933 17.5156 4.07008 17.3427C4.10524 17.2568 4.13707 17.1886 4.15956 17.143Z" stroke="#FFFFF" stroke-width="0" stroke-linejoin="round"/>
<path fill-rule="evenodd" clip-rule="evenodd" d="M8.46678 14.2999C8.60625 14.4394 8.60625 14.6655 8.46678 14.805L5.29059 17.9812C5.15112 18.1207 4.92499 18.1207 4.78551 17.9812C4.64604 17.8417 4.64604 17.6156 4.78551 17.4761L7.9617 14.2999C8.10118 14.1604 8.32731 14.1604 8.46678 14.2999Z" fill="#FFFFFF"/>
<path fill-rule="evenodd" clip-rule="evenodd" d="M9.66209 15.4903C9.80157 15.6298 9.80157 15.8559 9.66209 15.9954L6.48114 19.1764C6.34167 19.3158 6.11554 19.3158 5.97606 19.1764C5.83659 19.0369 5.83659 18.8108 5.97606 18.6713L9.15702 15.4903C9.29649 15.3509 9.52262 15.3509 9.66209 15.4903Z" fill="#FFFFFF"/>
</svg>