<!-- <svg width="24" height="24" viewBox="0 0 24 24" fill="none" xmlns="http://www.w3.org/2000/svg">
<path fill-rule="evenodd" clip-rule="evenodd" d="M4.8 5.10005C4.8 4.93436 4.94711 4.80005 5.12857 4.80005H18.2714C18.4529 4.80005 18.6 4.93436 18.6 5.10005C18.6 5.26573 18.4529 5.40005 18.2714 5.40005H5.12857C4.94711 5.40005 4.8 5.26573 4.8 5.10005Z" fill="black"/>
<path fill-rule="evenodd" clip-rule="evenodd" d="M16.48 10.2C16.6567 10.2 16.8 10.3535 16.8 10.5428L16.8 11.5714C16.8 12.1394 16.3702 12.5999 15.84 12.5999L8.16 12.5999C7.6298 12.5999 7.2 12.1394 7.2 11.5714L7.2 10.5428C7.2 10.3535 7.34327 10.2 7.52 10.2C7.69673 10.2 7.84 10.3535 7.84 10.5428L7.84 11.5714C7.84 11.7607 7.98327 11.9142 8.16 11.9142L15.84 11.9142C16.0167 11.9142 16.16 11.7607 16.16 11.5714L16.16 10.5428C16.16 10.3535 16.3033 10.2 16.48 10.2Z" fill="black"/>
<path fill-rule="evenodd" clip-rule="evenodd" d="M6.6 3.3C6.6 3.13431 6.7511 3 6.9375 3L17.0625 3C17.2489 3 17.4 3.13432 17.4 3.3C17.4 3.46569 17.2489 3.6 17.0625 3.6L6.9375 3.6C6.7511 3.6 6.6 3.46568 6.6 3.3Z" fill="black"/>
<path fill-rule="evenodd" clip-rule="evenodd" d="M20.28 7.85709H3.12C2.7555 7.85709 2.46 8.15131 2.46 8.51424V19.6857C2.46 20.0486 2.7555 20.3428 3.12 20.3428H20.28C20.6445 20.3428 20.94 20.0486 20.94 19.6857V8.51424C20.94 8.15131 20.6445 7.85709 20.28 7.85709ZM3.12 7.19995C2.39099 7.19995 1.8 7.78838 1.8 8.51424V19.6857C1.8 20.4115 2.39099 21 3.12 21H20.28C21.009 21 21.6 20.4115 21.6 19.6857V8.51424C21.6 7.78838 21.009 7.19995 20.28 7.19995H3.12Z" fill="#333333"/>
</svg> -->

<svg width="25" height="25" viewBox="0 0 25 25" fill="none" xmlns="http://www.w3.org/2000/svg">
<path fill-rule="evenodd" clip-rule="evenodd" d="M5.22949 5.93672C5.22949 5.77103 5.3766 5.63672 5.55806 5.63672H18.7009C18.8824 5.63672 19.0295 5.77103 19.0295 5.93672C19.0295 6.1024 18.8824 6.23672 18.7009 6.23672H5.55806C5.3766 6.23672 5.22949 6.1024 5.22949 5.93672Z" fill="black"/>
<path fill-rule="evenodd" clip-rule="evenodd" d="M16.9099 11.0371C17.0866 11.0371 17.2299 11.1906 17.2299 11.38L17.2299 12.4085C17.2299 12.9766 16.8001 13.4371 16.2699 13.4371L8.58988 13.4371C8.05969 13.4371 7.62988 12.9766 7.62988 12.4085L7.62988 11.38C7.62988 11.1906 7.77315 11.0371 7.94988 11.0371C8.12661 11.0371 8.26988 11.1906 8.26988 11.38L8.26988 12.4085C8.26988 12.5979 8.41315 12.7514 8.58988 12.7514L16.2699 12.7514C16.4466 12.7514 16.5899 12.5979 16.5899 12.4085L16.5899 11.38C16.5899 11.1906 16.7332 11.0371 16.9099 11.0371Z" fill="black"/>
<path fill-rule="evenodd" clip-rule="evenodd" d="M7.0293 4.13691C7.0293 3.97123 7.1804 3.83691 7.3668 3.83691L17.4918 3.83691C17.6782 3.83691 17.8293 3.97123 17.8293 4.13691C17.8293 4.3026 17.6782 4.43691 17.4918 4.43691L7.3668 4.43691C7.1804 4.43691 7.0293 4.3026 7.0293 4.13691Z" fill="black"/>
<path fill-rule="evenodd" clip-rule="evenodd" d="M20.7095 8.69425H3.54949C3.18498 8.69425 2.88949 8.98847 2.88949 9.35139V20.5228C2.88949 20.8858 3.18498 21.18 3.54949 21.18H20.7095C21.074 21.18 21.3695 20.8858 21.3695 20.5228V9.3514C21.3695 8.98847 21.074 8.69425 20.7095 8.69425ZM3.54949 8.03711C2.82048 8.03711 2.22949 8.62554 2.22949 9.35139V20.5228C2.22949 21.2487 2.82048 21.8371 3.54949 21.8371H20.7095C21.4385 21.8371 22.0295 21.2487 22.0295 20.5228V9.3514C22.0295 8.62554 21.4385 8.03711 20.7095 8.03711H3.54949Z" fill="#333333"/>
</svg>

