<svg width="24" height="24" viewBox="0 0 24 24" fill="none" xmlns="http://www.w3.org/2000/svg">
<path d="M23.4001 12.0001C23.4001 18.2961 18.2961 23.4001 12.0001 23.4001C5.70405 23.4001 0.600098 18.2961 0.600098 12.0001C0.600098 5.70405 5.70405 0.600098 12.0001 0.600098C18.2961 0.600098 23.4001 5.70405 23.4001 12.0001Z" fill="#B00505"/>
<path fill-rule="evenodd" clip-rule="evenodd" d="M13.3156 11.8272L15.6039 9.52792C16.0255 9.10429 16.0096 8.41488 15.569 8.01109C15.1511 7.62818 14.5049 7.64541 14.1081 8.05004L11.8595 10.3425L9.61091 8.05004C9.21404 7.64541 8.56786 7.62818 8.14999 8.01109C7.70935 8.41488 7.69348 9.10429 8.11508 9.52792L10.4033 11.8272L8.04275 14.2339C7.6533 14.6309 7.65378 15.2668 8.04382 15.6632C8.44179 16.0678 9.09342 16.0697 9.49372 15.6674L11.8595 13.2903L14.2253 15.6674C14.6256 16.0697 15.2772 16.0678 15.6752 15.6632C16.0652 15.2668 16.0657 14.6309 15.6762 14.2339L13.3156 11.8272Z" fill="white"/>
</svg>
