<svg width="24" height="25" viewBox="0 0 24 25" fill="none" xmlns="http://www.w3.org/2000/svg">
<path fill-rule="evenodd" clip-rule="evenodd" d="M13.585 2.6333H10.4161L10.4152 2.6333C10.1286 2.63423 9.854 2.74851 9.65133 2.95118C9.44865 3.15386 9.33438 3.42848 9.33345 3.7151V5.0333H6.00011H4.80011C4.65284 5.0333 4.53345 5.15269 4.53345 5.29997C4.53345 5.44724 4.65284 5.56664 4.80011 5.56664H5.73345V21.284L5.73345 21.2848C5.73438 21.5715 5.84866 21.8461 6.05133 22.0488C6.25401 22.2514 6.52862 22.3657 6.81525 22.3666H6.81611H17.1841H17.185C17.4716 22.3657 17.7462 22.2514 17.9489 22.0488C18.1516 21.8461 18.2658 21.5715 18.2668 21.2848V21.284V5.56664H19.2001C19.3474 5.56664 19.4668 5.44724 19.4668 5.29997C19.4668 5.15269 19.3474 5.0333 19.2001 5.0333H18.0001H14.6668L14.6668 3.71597L14.6668 3.7151C14.6658 3.42848 14.5516 3.15386 14.3489 2.95118C14.1462 2.74851 13.8716 2.63423 13.585 2.6333ZM14.1334 5.0333H9.86678V3.71644C9.86736 3.57081 9.92547 3.43129 10.0285 3.32831C10.1314 3.22532 10.271 3.16721 10.4166 3.16663H13.5836C13.7293 3.16721 13.8688 3.22532 13.9718 3.32831C14.0748 3.43129 14.1329 3.57079 14.1334 3.71641V5.0333ZM6.26678 21.2835V5.56664H17.7334L17.7334 21.2831L17.7334 21.2834C17.7329 21.4291 17.6748 21.5686 17.5718 21.6716C17.4688 21.7746 17.3292 21.8328 17.1835 21.8333H17.1832H6.81698H6.81669C6.67102 21.8328 6.53147 21.7746 6.42845 21.6716C6.32547 21.5686 6.26736 21.4291 6.26678 21.2835ZM12.2668 7.69997C12.2668 7.55269 12.1474 7.4333 12.0001 7.4333C11.8528 7.4333 11.7334 7.55269 11.7334 7.69997V19.7C11.7334 19.8472 11.8528 19.9666 12.0001 19.9666C12.1474 19.9666 12.2668 19.8472 12.2668 19.7V7.69997ZM9.00011 7.4333C9.14739 7.4333 9.26678 7.55269 9.26678 7.69997V19.7C9.26678 19.8472 9.14739 19.9666 9.00011 19.9666C8.85284 19.9666 8.73345 19.8472 8.73345 19.7V7.69997C8.73345 7.55269 8.85284 7.4333 9.00011 7.4333ZM15.2668 7.69997C15.2668 7.55269 15.1474 7.4333 15.0001 7.4333C14.8528 7.4333 14.7334 7.55269 14.7334 7.69997V19.7C14.7334 19.8472 14.8528 19.9666 15.0001 19.9666C15.1474 19.9666 15.2668 19.8472 15.2668 19.7V7.69997Z" fill="#B00505"/>
</svg>
