<!-- <svg width="21" height="20" viewBox="0 0 21 20" fill="none" xmlns="http://www.w3.org/2000/svg">
<path fill-rule="evenodd" clip-rule="evenodd" d="M2 19.25H15C15.8284 19.25 16.5 18.5784 16.5 17.75V7.57843C16.5 7.1806 16.342 6.79907 16.0607 6.51777L13.2322 3.68934C12.9509 3.40804 12.5694 3.25 12.1716 3.25H2C1.17157 3.25 0.5 3.92157 0.5 4.75V17.75C0.5 18.5784 1.17157 19.25 2 19.25ZM2 2.75C0.895431 2.75 0 3.64543 0 4.75V17.75C0 18.8546 0.89543 19.75 2 19.75H15C16.1046 19.75 17 18.8546 17 17.75V7.57843C17 7.04799 16.7893 6.53929 16.4142 6.16421L13.5858 3.33579C13.2107 2.96071 12.702 2.75 12.1716 2.75H2Z" fill="#333333"/>
<path fill-rule="evenodd" clip-rule="evenodd" d="M1.75 3.25C1.75 2.2835 2.5335 1.5 3.5 1.5H16.5C17.7426 1.5 18.75 2.50736 18.75 3.75V16.25C18.75 17.2165 17.9665 18 17 18V17.5C17.6904 17.5 18.25 16.9404 18.25 16.25V3.75C18.25 2.7835 17.4665 2 16.5 2H3.5C2.80964 2 2.25 2.55964 2.25 3.25H1.75Z" fill="#333333"/>
<path fill-rule="evenodd" clip-rule="evenodd" d="M3.75 1.75C3.75 0.783502 4.5335 0 5.5 0H18C19.2426 0 20.25 1.00736 20.25 2.25V14.75C20.25 15.7165 19.4665 16.5 18.5 16.5V16C19.1904 16 19.75 15.4404 19.75 14.75V2.25C19.75 1.2835 18.9665 0.5 18 0.5H5.5C4.80964 0.5 4.25 1.05964 4.25 1.75H3.75Z" fill="#333333"/>
<path fill-rule="evenodd" clip-rule="evenodd" d="M2 5.5C2 5.36193 2.11193 5.25 2.25 5.25L10.75 5.25C10.8881 5.25 11 5.36193 11 5.5C11 5.63807 10.8881 5.75 10.75 5.75L2.25 5.75C2.11193 5.75 2 5.63807 2 5.5Z" fill="#333333"/>
<path fill-rule="evenodd" clip-rule="evenodd" d="M2 7.5C2 7.36193 2.11193 7.25 2.25 7.25L10.75 7.25C10.8881 7.25 11 7.36193 11 7.5C11 7.63807 10.8881 7.75 10.75 7.75L2.25 7.75C2.11193 7.75 2 7.63807 2 7.5Z" fill="#333333"/>
<path fill-rule="evenodd" clip-rule="evenodd" d="M2 9.5C2 9.36193 2.11193 9.25 2.25 9.25L14.75 9.25C14.8881 9.25 15 9.36193 15 9.5C15 9.63807 14.8881 9.75 14.75 9.75L2.25 9.75C2.11193 9.75 2 9.63807 2 9.5Z" fill="#333333"/>
<path fill-rule="evenodd" clip-rule="evenodd" d="M2 11.5C2 11.3619 2.11193 11.25 2.25 11.25L14.75 11.25C14.8881 11.25 15 11.3619 15 11.5C15 11.6381 14.8881 11.75 14.75 11.75L2.25 11.75C2.11193 11.75 2 11.6381 2 11.5Z" fill="#333333"/>
<path fill-rule="evenodd" clip-rule="evenodd" d="M2 13.5C2 13.3619 2.11193 13.25 2.25 13.25L14.75 13.25C14.8881 13.25 15 13.3619 15 13.5C15 13.6381 14.8881 13.75 14.75 13.75L2.25 13.75C2.11193 13.75 2 13.6381 2 13.5Z" fill="#333333"/>
<path fill-rule="evenodd" clip-rule="evenodd" d="M2 15.5C2 15.3619 2.11193 15.25 2.25 15.25L14.75 15.25C14.8881 15.25 15 15.3619 15 15.5C15 15.6381 14.8881 15.75 14.75 15.75L2.25 15.75C2.11193 15.75 2 15.6381 2 15.5Z" fill="#333333"/>
<path fill-rule="evenodd" clip-rule="evenodd" d="M2 17.5C2 17.3619 2.11193 17.25 2.25 17.25L14.75 17.25C14.8881 17.25 15 17.3619 15 17.5C15 17.6381 14.8881 17.75 14.75 17.75L2.25 17.75C2.11193 17.75 2 17.6381 2 17.5Z" fill="#333333"/>
<path fill-rule="evenodd" clip-rule="evenodd" d="M12.75 5.75V3.25H13.25V5.75C13.25 6.16421 13.5858 6.5 14 6.5H16.5V7H14C13.3096 7 12.75 6.44036 12.75 5.75Z" fill="#333333"/>
</svg> -->

<svg width="22" height="21" viewBox="0 0 22 21" fill="none" xmlns="http://www.w3.org/2000/svg">
<path fill-rule="evenodd" clip-rule="evenodd" d="M3 20.25H16C16.8284 20.25 17.5 19.5784 17.5 18.75V8.57843C17.5 8.1806 17.342 7.79907 17.0607 7.51777L14.2322 4.68934C13.9509 4.40804 13.5694 4.25 13.1716 4.25H3C2.17157 4.25 1.5 4.92157 1.5 5.75V18.75C1.5 19.5784 2.17157 20.25 3 20.25ZM3 3.75C1.89543 3.75 1 4.64543 1 5.75V18.75C1 19.8546 1.89543 20.75 3 20.75H16C17.1046 20.75 18 19.8546 18 18.75V8.57843C18 8.04799 17.7893 7.53929 17.4142 7.16421L14.5858 4.33579C14.2107 3.96071 13.702 3.75 13.1716 3.75H3Z" fill="#333333" stroke="#333333" stroke-width="0.5"/>
<path fill-rule="evenodd" clip-rule="evenodd" d="M2.75 4.25C2.75 3.2835 3.5335 2.5 4.5 2.5H17.5C18.7426 2.5 19.75 3.50736 19.75 4.75V17.25C19.75 18.2165 18.9665 19 18 19V18.5C18.6904 18.5 19.25 17.9404 19.25 17.25V4.75C19.25 3.7835 18.4665 3 17.5 3H4.5C3.80964 3 3.25 3.55964 3.25 4.25H2.75Z" fill="#333333" stroke="#333333" stroke-width="0.5"/>
<path fill-rule="evenodd" clip-rule="evenodd" d="M4.75 2.75C4.75 1.7835 5.5335 1 6.5 1H19C20.2426 1 21.25 2.00736 21.25 3.25V15.75C21.25 16.7165 20.4665 17.5 19.5 17.5V17C20.1904 17 20.75 16.4404 20.75 15.75V3.25C20.75 2.2835 19.9665 1.5 19 1.5H6.5C5.80964 1.5 5.25 2.05964 5.25 2.75H4.75Z" fill="#333333" stroke="#333333" stroke-width="0.5"/>
<path fill-rule="evenodd" clip-rule="evenodd" d="M3 6.5C3 6.36193 3.11193 6.25 3.25 6.25L11.75 6.25C11.8881 6.25 12 6.36193 12 6.5C12 6.63807 11.8881 6.75 11.75 6.75L3.25 6.75C3.11193 6.75 3 6.63807 3 6.5Z" fill="#333333" stroke="#333333" stroke-width="0.5" stroke-linecap="round"/>
<path fill-rule="evenodd" clip-rule="evenodd" d="M3 8.5C3 8.36193 3.11193 8.25 3.25 8.25L11.75 8.25C11.8881 8.25 12 8.36193 12 8.5C12 8.63807 11.8881 8.75 11.75 8.75L3.25 8.75C3.11193 8.75 3 8.63807 3 8.5Z" fill="#333333" stroke="#333333" stroke-width="0.5" stroke-linecap="round"/>
<path fill-rule="evenodd" clip-rule="evenodd" d="M3 10.5C3 10.3619 3.11193 10.25 3.25 10.25L15.75 10.25C15.8881 10.25 16 10.3619 16 10.5C16 10.6381 15.8881 10.75 15.75 10.75L3.25 10.75C3.11193 10.75 3 10.6381 3 10.5Z" fill="#333333" stroke="#333333" stroke-width="0.5" stroke-linecap="round"/>
<path fill-rule="evenodd" clip-rule="evenodd" d="M3 12.5C3 12.3619 3.11193 12.25 3.25 12.25L15.75 12.25C15.8881 12.25 16 12.3619 16 12.5C16 12.6381 15.8881 12.75 15.75 12.75L3.25 12.75C3.11193 12.75 3 12.6381 3 12.5Z" fill="#333333" stroke="#333333" stroke-width="0.5" stroke-linecap="round"/>
<path fill-rule="evenodd" clip-rule="evenodd" d="M3 14.5C3 14.3619 3.11193 14.25 3.25 14.25L15.75 14.25C15.8881 14.25 16 14.3619 16 14.5C16 14.6381 15.8881 14.75 15.75 14.75L3.25 14.75C3.11193 14.75 3 14.6381 3 14.5Z" fill="#333333" stroke="#333333" stroke-width="0.5" stroke-linecap="round"/>
<path fill-rule="evenodd" clip-rule="evenodd" d="M3 16.5C3 16.3619 3.11193 16.25 3.25 16.25L15.75 16.25C15.8881 16.25 16 16.3619 16 16.5C16 16.6381 15.8881 16.75 15.75 16.75L3.25 16.75C3.11193 16.75 3 16.6381 3 16.5Z" fill="#333333" stroke="#333333" stroke-width="0.5" stroke-linecap="round"/>
<path fill-rule="evenodd" clip-rule="evenodd" d="M3 18.5C3 18.3619 3.11193 18.25 3.25 18.25L15.75 18.25C15.8881 18.25 16 18.3619 16 18.5C16 18.6381 15.8881 18.75 15.75 18.75L3.25 18.75C3.11193 18.75 3 18.6381 3 18.5Z" fill="#333333" stroke="#333333" stroke-width="0.5" stroke-linecap="round"/>
<path fill-rule="evenodd" clip-rule="evenodd" d="M13.75 6.75V4.25H14.25V6.75C14.25 7.16421 14.5858 7.5 15 7.5H17.5V8H15C14.3096 8 13.75 7.44036 13.75 6.75Z" fill="#333333" stroke="#333333" stroke-width="0.5"/>
</svg>

