<!-- <svg width="24" height="24" viewBox="0 0 24 24" fill="none" xmlns="http://www.w3.org/2000/svg">
<path fill-rule="evenodd" clip-rule="evenodd" d="M4.80005 5.0998C4.80005 4.93412 4.94716 4.7998 5.12862 4.7998H18.2715C18.4529 4.7998 18.6 4.93412 18.6 5.0998C18.6 5.26549 18.4529 5.3998 18.2715 5.3998H5.12862C4.94716 5.3998 4.80005 5.26549 4.80005 5.0998Z" fill="#333333"/>
<path fill-rule="evenodd" clip-rule="evenodd" d="M16.4799 10.2002C16.6567 10.2002 16.7999 10.3537 16.7999 10.5431L16.7999 11.5716C16.7999 12.1397 16.3701 12.6002 15.84 12.6002L8.15995 12.6002C7.62976 12.6002 7.19995 12.1397 7.19995 11.5716L7.19995 10.5431C7.19995 10.3537 7.34322 10.2002 7.51995 10.2002C7.69668 10.2002 7.83995 10.3537 7.83995 10.5431L7.83995 11.5716C7.83995 11.761 7.98322 11.9145 8.15995 11.9145L15.84 11.9145C16.0167 11.9145 16.16 11.761 16.16 11.5716L16.16 10.5431C16.16 10.3537 16.3032 10.2002 16.4799 10.2002Z" fill="#333333"/>
<path fill-rule="evenodd" clip-rule="evenodd" d="M6.59998 3.3C6.59998 3.13431 6.75108 3 6.93748 3L17.0625 3C17.2489 3 17.4 3.13432 17.4 3.3C17.4 3.46569 17.2489 3.6 17.0625 3.6L6.93748 3.6C6.75108 3.6 6.59998 3.46568 6.59998 3.3Z" fill="#333333"/>
<path fill-rule="evenodd" clip-rule="evenodd" d="M20.28 7.85734H3.12005C2.75554 7.85734 2.46005 8.15155 2.46005 8.51448V19.6859C2.46005 20.0488 2.75554 20.3431 3.12005 20.3431H20.28C20.6446 20.3431 20.94 20.0488 20.94 19.6859V8.51448C20.94 8.15155 20.6446 7.85734 20.28 7.85734ZM3.12005 7.2002C2.39103 7.2002 1.80005 7.78862 1.80005 8.51448V19.6859C1.80005 20.4118 2.39103 21.0002 3.12005 21.0002H20.28C21.0091 21.0002 21.6 20.4118 21.6 19.6859V8.51448C21.6 7.78862 21.0091 7.2002 20.28 7.2002H3.12005Z" fill="#333333"/>
</svg> -->

<svg width="24" height="24" viewBox="0 0 24 24" fill="none" xmlns="http://www.w3.org/2000/svg">
<path fill-rule="evenodd" clip-rule="evenodd" d="M4.80005 5.0998C4.80005 4.93412 4.94716 4.7998 5.12862 4.7998H18.2715C18.4529 4.7998 18.6 4.93412 18.6 5.0998C18.6 5.26549 18.4529 5.3998 18.2715 5.3998H5.12862C4.94716 5.3998 4.80005 5.26549 4.80005 5.0998Z" fill="#333333" stroke="#333333" stroke-width="0.5" stroke-linecap="round"/>
<path fill-rule="evenodd" clip-rule="evenodd" d="M16.4799 10.2002C16.6567 10.2002 16.7999 10.3537 16.7999 10.5431L16.7999 11.5716C16.7999 12.1397 16.3701 12.6002 15.84 12.6002L8.15995 12.6002C7.62976 12.6002 7.19995 12.1397 7.19995 11.5716L7.19995 10.5431C7.19995 10.3537 7.34322 10.2002 7.51995 10.2002C7.69668 10.2002 7.83995 10.3537 7.83995 10.5431L7.83995 11.5716C7.83995 11.761 7.98322 11.9145 8.15995 11.9145L15.84 11.9145C16.0167 11.9145 16.16 11.761 16.16 11.5716L16.16 10.5431C16.16 10.3537 16.3032 10.2002 16.4799 10.2002Z" fill="#333333" stroke="#333333" stroke-width="0.5" stroke-linecap="round"/>
<path fill-rule="evenodd" clip-rule="evenodd" d="M6.59998 3.3C6.59998 3.13431 6.75108 3 6.93748 3L17.0625 3C17.2489 3 17.4 3.13432 17.4 3.3C17.4 3.46569 17.2489 3.6 17.0625 3.6L6.93748 3.6C6.75108 3.6 6.59998 3.46568 6.59998 3.3Z" fill="#333333" stroke="#333333" stroke-width="0.5" stroke-linecap="round"/>
<path fill-rule="evenodd" clip-rule="evenodd" d="M20.28 7.85734H3.12005C2.75554 7.85734 2.46005 8.15155 2.46005 8.51448V19.6859C2.46005 20.0488 2.75554 20.3431 3.12005 20.3431H20.28C20.6446 20.3431 20.94 20.0488 20.94 19.6859V8.51448C20.94 8.15155 20.6446 7.85734 20.28 7.85734ZM3.12005 7.2002C2.39103 7.2002 1.80005 7.78862 1.80005 8.51448V19.6859C1.80005 20.4118 2.39103 21.0002 3.12005 21.0002H20.28C21.0091 21.0002 21.6 20.4118 21.6 19.6859V8.51448C21.6 7.78862 21.0091 7.2002 20.28 7.2002H3.12005Z" fill="#333333" stroke="#333333" stroke-width="0.5"/>
</svg>

