<svg width="25" height="25" viewBox="0 0 25 25" fill="none" xmlns="http://www.w3.org/2000/svg">
<path d="M20.4811 15.4523C20.2125 15.4559 19.9491 15.3785 19.7251 15.2303L16.7251 13.1363C15.7764 13.9551 14.5817 14.4342 13.3302 14.4978C12.0786 14.5614 10.8415 14.2059 9.81468 13.4876C8.78781 12.7693 8.02975 11.7291 7.66041 10.5316C7.29106 9.33403 7.33152 8.04755 7.77537 6.8756C8.21923 5.70366 9.04115 4.71314 10.1111 4.06074C11.1811 3.40834 12.438 3.13129 13.6831 3.27342C14.9282 3.41555 16.0904 3.96874 16.9858 4.8455C17.8812 5.72225 18.4588 6.87252 18.6271 8.11434C18.7688 9.17513 18.6087 10.2544 18.1651 11.2283C18.13 11.3 18.0688 11.3555 17.994 11.3834C17.9192 11.4113 17.8366 11.4095 17.7631 11.3783C17.7271 11.3616 17.6947 11.3379 17.668 11.3085C17.6412 11.2792 17.6205 11.2448 17.6071 11.2074C17.5937 11.17 17.5879 11.1304 17.5899 11.0907C17.592 11.051 17.6019 11.0121 17.6191 10.9763C17.9411 10.2754 18.0976 9.50978 18.0767 8.73869C18.0558 7.9676 17.8579 7.21163 17.4984 6.52915C17.1389 5.84667 16.6274 5.25594 16.0033 4.80256C15.3792 4.34919 14.6593 4.04529 13.8991 3.91434C13.0535 3.76831 12.1847 3.84085 11.375 4.12507C10.5653 4.40929 9.84178 4.89577 9.27302 5.5383C8.70426 6.18082 8.30919 6.95807 8.12532 7.79624C7.94145 8.6344 7.97488 9.50566 8.22245 10.3273C8.47002 11.1489 8.9235 11.8936 9.53983 12.4906C10.1562 13.0876 10.9149 13.5172 11.7439 13.7386C12.573 13.9599 13.4449 13.9656 14.2768 13.7552C15.1087 13.5448 15.873 13.1252 16.4971 12.5363C16.5476 12.4896 16.6123 12.4612 16.6809 12.4557C16.7495 12.4503 16.8179 12.4681 16.8751 12.5063L20.0551 14.7383C20.2142 14.8481 20.4105 14.8902 20.6006 14.8553C20.7908 14.8205 20.9593 14.7115 21.0691 14.5523C21.1789 14.3932 21.221 14.197 21.1861 14.0068C21.1512 13.8167 21.0422 13.6481 20.8831 13.5383L18.6511 11.9783C18.5869 11.9314 18.5434 11.8613 18.53 11.7829C18.5165 11.7045 18.5342 11.624 18.5791 11.5583C18.6018 11.5259 18.6308 11.4983 18.6642 11.4771C18.6977 11.4559 18.7351 11.4415 18.7741 11.4348C18.8132 11.4281 18.8531 11.4292 18.8918 11.4381C18.9304 11.4469 18.9669 11.4633 18.9991 11.4863L21.2311 13.0463C21.373 13.1455 21.4938 13.2719 21.5865 13.4182C21.6792 13.5644 21.742 13.7277 21.7711 13.8983C21.8304 14.2439 21.7529 14.5989 21.5551 14.8883C21.4339 15.061 21.2732 15.2023 21.0864 15.3004C20.8996 15.3985 20.6921 15.4506 20.4811 15.4523Z" fill="#333333"/>
<path d="M9.35734 13.0162C9.28612 13.017 9.21707 12.9918 9.16299 12.9455C9.10892 12.8991 9.07351 12.8347 9.06334 12.7642C9.04931 12.6863 9.06667 12.606 9.11163 12.5408C9.15659 12.4756 9.2255 12.4308 9.30334 12.4162C9.48301 12.3776 9.65951 12.3254 9.83134 12.2602C10.0053 12.2002 10.4313 11.3962 10.5933 10.3162C10.7193 9.60823 10.5393 5.56423 10.4553 4.06423C10.4537 4.02482 10.4599 3.98549 10.4735 3.94847C10.4871 3.91146 10.5079 3.87749 10.5346 3.84851C10.5614 3.81953 10.5936 3.79611 10.6294 3.77959C10.6652 3.76307 10.7039 3.75377 10.7433 3.75223C10.7826 3.74893 10.8222 3.75375 10.8595 3.76636C10.8969 3.77897 10.9312 3.79912 10.9605 3.82556C10.9897 3.852 11.0133 3.88416 11.0296 3.92005C11.0459 3.95595 11.0547 3.99481 11.0553 4.03423C11.0553 4.25623 11.3493 9.50023 11.1873 10.4182C11.1453 10.6402 10.7853 12.5722 10.0233 12.8182C9.8267 12.8889 9.62641 12.949 9.42334 12.9982L9.35734 13.0162Z" fill="#333333"/>
<path d="M7.731 9.47029C7.69025 9.47048 7.64993 9.46202 7.6127 9.44547C7.57546 9.42892 7.54216 9.40466 7.515 9.37429C7.48706 9.34692 7.46487 9.31424 7.44971 9.27818C7.43456 9.24212 7.42676 9.2034 7.42676 9.16429C7.42676 9.12518 7.43456 9.08646 7.44971 9.0504C7.46487 9.01434 7.48706 8.98166 7.515 8.95429C7.80364 8.67591 8.13607 8.44686 8.499 8.27629C8.89112 8.07781 9.34493 8.03909 9.765 8.16829C10.119 8.28829 10.965 8.48629 11.001 8.48629C11.0806 8.50379 11.1499 8.55219 11.1938 8.62083C11.2377 8.68946 11.2525 8.77272 11.235 8.85229C11.2175 8.93185 11.1691 9.00121 11.1005 9.04509C11.0318 9.08897 10.9486 9.10379 10.869 9.08629C10.827 9.08629 9.957 8.88229 9.573 8.75029C9.43181 8.70832 9.28361 8.6952 9.13724 8.71169C8.99087 8.72818 8.84932 8.77396 8.721 8.84629C8.4343 8.99233 8.16968 9.17817 7.935 9.39829C7.87862 9.44734 7.80568 9.47309 7.731 9.47029Z" fill="#333333"/>
<path d="M10.5689 11.8702C10.5117 11.8683 10.456 11.8518 10.4069 11.8222C9.95406 11.549 9.52099 11.2442 9.11092 10.9102C9.02675 10.8004 8.96579 10.6747 8.93175 10.5406C8.89771 10.4065 8.8913 10.2669 8.91292 10.1302C8.91804 10.0908 8.93087 10.0528 8.95068 10.0184C8.97049 9.98395 8.99689 9.95375 9.02837 9.92951C9.05985 9.90528 9.09579 9.88748 9.13415 9.87714C9.1725 9.86679 9.21252 9.8641 9.25192 9.86922C9.29132 9.87435 9.32932 9.88718 9.36376 9.90698C9.3982 9.92679 9.42839 9.95319 9.45263 9.98467C9.47687 10.0161 9.49466 10.0521 9.50501 10.0904C9.51535 10.1288 9.51804 10.1688 9.51292 10.2082C9.49691 10.3088 9.51374 10.4119 9.56092 10.5022C9.94362 10.7988 10.3444 11.0714 10.7609 11.3182C10.8277 11.3613 10.8746 11.429 10.8915 11.5066C10.9084 11.5842 10.8938 11.6654 10.8509 11.7322C10.8223 11.78 10.7804 11.8185 10.7304 11.843C10.6803 11.8675 10.6242 11.877 10.5689 11.8702Z" fill="#333333"/>
<path d="M9.77129 7.13644H9.73529C9.30929 7.13644 8.78729 6.89044 8.68529 6.53644C8.63129 6.37444 8.57129 6.17044 8.57129 6.17044L9.17129 6.00244L9.27929 6.35644C9.42636 6.45156 9.59628 6.50544 9.77129 6.51244C10.1302 6.48955 10.4871 6.44143 10.8393 6.36844C10.8787 6.36056 10.9192 6.36052 10.9587 6.36832C10.9981 6.37611 11.0356 6.3916 11.069 6.41388C11.1024 6.43617 11.1311 6.46482 11.1535 6.4982C11.1758 6.53159 11.1914 6.56904 11.1993 6.60844C11.2072 6.64784 11.2072 6.6884 11.1994 6.72781C11.1916 6.76723 11.1761 6.80472 11.1538 6.83815C11.1316 6.87158 11.1029 6.90029 11.0695 6.92264C11.0361 6.945 10.9987 6.96056 10.9593 6.96844C10.5678 7.05257 10.1708 7.10871 9.77129 7.13644Z" fill="#333333"/>
<path d="M13.3769 12.9923C13.1725 12.9926 12.9696 12.9581 12.7769 12.8903C12.4744 12.7607 12.2132 12.5507 12.0218 12.2831C11.8303 12.0154 11.7159 11.7004 11.6909 11.3723C11.4547 9.85416 11.4446 8.3094 11.6609 6.7883C11.6678 6.74015 11.6861 6.69436 11.7143 6.65471C11.7425 6.61506 11.7797 6.58269 11.8229 6.5603C11.8661 6.53667 11.9146 6.52428 11.9639 6.52428C12.0132 6.52428 12.0616 6.53667 12.1049 6.5603C12.2479 6.64379 12.4159 6.67357 12.5789 6.6443C12.7204 6.60955 12.8429 6.5214 12.9209 6.3983C12.9611 6.33041 13.0256 6.28028 13.1013 6.25801C13.177 6.23575 13.2583 6.243 13.3289 6.2783C13.3974 6.31642 13.4486 6.37937 13.4721 6.45416C13.4955 6.52896 13.4894 6.6099 13.4549 6.6803C13.2969 6.94444 13.0434 7.13776 12.7469 7.2203C12.5677 7.26526 12.3801 7.26526 12.2009 7.2203C12.0473 8.55978 12.0736 9.91377 12.2789 11.2463C12.2851 11.4697 12.3535 11.6869 12.4765 11.8734C12.5994 12.06 12.7721 12.2085 12.9749 12.3023C13.7129 12.5663 14.8529 11.9663 15.3029 11.5883C15.9749 10.9883 16.5029 9.2843 16.7429 7.8623C16.9229 6.6023 16.1429 4.8083 16.1429 4.7903C16.1183 4.72566 16.1169 4.65452 16.1387 4.58892C16.1606 4.52332 16.2045 4.46728 16.2629 4.4303C16.3353 4.39783 16.4176 4.39539 16.4919 4.4235C16.5661 4.45162 16.6261 4.508 16.6589 4.5803C16.6949 4.6643 17.5289 6.5543 17.3189 7.9883C17.1569 9.1343 16.6229 11.2823 15.6809 12.0803C15.0291 12.6211 14.2222 12.9405 13.3769 12.9923Z" fill="#333333"/>
<path d="M11.8228 6.16446C11.7468 6.16452 11.6738 6.1352 11.619 6.08263C11.5642 6.03006 11.5319 5.95833 11.5288 5.88246C11.4641 5.09612 11.5085 4.30462 11.6608 3.53046C11.6937 3.45807 11.753 3.401 11.8266 3.37089C11.9002 3.34078 11.9826 3.33991 12.0568 3.36846C12.1291 3.40131 12.1858 3.46099 12.2149 3.53489C12.244 3.60879 12.2432 3.69111 12.2128 3.76446C12.0974 4.45411 12.0652 5.15512 12.1168 5.85246C12.1192 5.89156 12.1138 5.93076 12.1009 5.96774C12.0879 6.00472 12.0677 6.03875 12.0415 6.06782C12.0152 6.09688 11.9834 6.12041 11.9479 6.137C11.9124 6.1536 11.8739 6.16293 11.8348 6.16446H11.8228Z" fill="#333333"/>
<path d="M12.9092 5.07225C12.8552 5.07306 12.8019 5.05892 12.7553 5.0314C12.7087 5.00388 12.6706 4.96403 12.6452 4.91625C12.6085 4.84596 12.6004 4.76412 12.6228 4.688C12.6452 4.61188 12.6963 4.54743 12.7652 4.50825C13.3062 4.21774 13.822 3.88258 14.3072 3.50625C14.3661 3.45215 14.4441 3.42365 14.524 3.42703C14.6039 3.4304 14.6791 3.46538 14.7332 3.52425C14.7874 3.58313 14.8159 3.66109 14.8125 3.74098C14.8091 3.82087 14.7741 3.89615 14.7152 3.95025C14.194 4.3583 13.6378 4.71969 13.0532 5.03025C13.0093 5.05554 12.9599 5.06994 12.9092 5.07225Z" fill="#333333"/>
<path d="M14.3071 5.63041H14.2591C14.2203 5.6246 14.183 5.61107 14.1495 5.59061C14.116 5.57016 14.0869 5.5432 14.064 5.51132C14.041 5.47944 14.0247 5.44329 14.016 5.40501C14.0073 5.36672 14.0063 5.32708 14.0131 5.28841C14.0076 5.16251 13.9874 5.03768 13.9531 4.91641C13.93 4.82954 13.9119 4.74139 13.8991 4.65241C13.8705 4.30787 13.9525 3.96319 14.1331 3.66841C14.1553 3.63616 14.1837 3.60867 14.2166 3.58754C14.2496 3.56641 14.2864 3.55207 14.325 3.54536C14.3635 3.53866 14.4031 3.53972 14.4412 3.54848C14.4794 3.55725 14.5154 3.57354 14.5471 3.59641C14.5798 3.61812 14.6079 3.64617 14.6296 3.67889C14.6513 3.71162 14.6662 3.74836 14.6735 3.78695C14.6808 3.82554 14.6802 3.86519 14.6719 3.90357C14.6636 3.94195 14.6477 3.97828 14.6251 4.01041C14.5218 4.19248 14.4778 4.40218 14.4991 4.61041C14.5046 4.6735 14.5167 4.73584 14.5351 4.79641C14.5951 4.99039 14.6175 5.19403 14.6011 5.39641C14.5861 5.46306 14.5488 5.52259 14.4953 5.56514C14.4418 5.60769 14.3755 5.63072 14.3071 5.63041Z" fill="#333333"/>
<path d="M14.3792 6.96238C14.3398 6.96711 14.2998 6.96403 14.2616 6.95332C14.2234 6.94261 14.1877 6.92449 14.1565 6.89997C14.1253 6.87546 14.0992 6.84504 14.0798 6.81045C14.0603 6.77586 14.0479 6.73778 14.0432 6.69838C14.0384 6.65899 14.0415 6.61904 14.0522 6.58084C14.0629 6.54263 14.0811 6.50691 14.1056 6.47571C14.1301 6.44451 14.1605 6.41844 14.1951 6.399C14.2297 6.37955 14.2678 6.36711 14.3072 6.36238C14.4674 6.32106 14.6156 6.24246 14.7397 6.13297C14.8638 6.02349 14.9602 5.88623 15.0212 5.73238C15.0404 5.64328 15.0544 5.55312 15.0632 5.46238C15.0623 5.29982 15.0937 5.13871 15.1555 4.98835C15.2173 4.83798 15.3083 4.70136 15.4232 4.58638C15.7472 4.34038 16.2212 4.51438 16.4792 4.58638H16.5392C16.6187 4.58638 16.695 4.61799 16.7513 4.67425C16.8076 4.73051 16.8392 4.80682 16.8392 4.88638C16.8392 4.96595 16.8076 5.04225 16.7513 5.09852C16.695 5.15478 16.6187 5.18638 16.5392 5.18638C16.4498 5.19249 16.3606 5.17381 16.2812 5.13238C15.9332 5.00638 15.8252 5.01238 15.7892 5.03038C15.721 5.17956 15.6823 5.34051 15.6752 5.50438C15.6633 5.63194 15.6412 5.75835 15.6092 5.88238C15.5181 6.13456 15.3666 6.36054 15.1678 6.54047C14.969 6.72041 14.7291 6.8488 14.4692 6.91438L14.3792 6.96238Z" fill="#333333"/>
<path d="M16.9714 8.57028C16.9325 8.57191 16.8936 8.56526 16.8574 8.55078C16.8212 8.5363 16.7885 8.51432 16.7614 8.48628C16.7614 8.48628 16.5514 8.28228 16.0234 7.77828C15.9791 7.72909 15.9243 7.69058 15.863 7.66564C15.8016 7.6407 15.7355 7.62998 15.6694 7.63428C15.3712 7.70529 15.1114 7.88778 14.9434 8.14428C14.8939 8.2061 14.822 8.24583 14.7433 8.25483C14.6646 8.26382 14.5856 8.24134 14.5234 8.19228C14.4607 8.14366 14.4198 8.07216 14.4097 7.99344C14.3996 7.91472 14.421 7.8352 14.4694 7.77228C14.7427 7.38293 15.1591 7.1176 15.6274 7.03428C15.775 7.02447 15.9231 7.04614 16.0617 7.09786C16.2003 7.14958 16.3263 7.23017 16.4314 7.33428C16.9954 7.85628 17.1994 8.06028 17.1994 8.06028C17.2275 8.08817 17.2499 8.12135 17.2651 8.15791C17.2803 8.19447 17.2882 8.23368 17.2882 8.27328C17.2882 8.31289 17.2803 8.3521 17.2651 8.38866C17.2499 8.42521 17.2275 8.4584 17.1994 8.48628C17.169 8.51482 17.1331 8.53696 17.0939 8.55139C17.0548 8.56582 17.0131 8.57224 16.9714 8.57028Z" fill="#333333"/>
<path d="M15.1947 10.2743C15.1398 10.2754 15.0856 10.2609 15.0387 10.2323C14.8213 10.0603 14.6293 9.85824 14.4687 9.63226C14.2727 9.3842 14.0623 9.1478 13.8387 8.92426C13.7022 8.77351 13.5278 8.66223 13.3335 8.60206C13.1393 8.54189 12.9325 8.53505 12.7347 8.58226C12.4584 8.63939 12.1995 8.76065 11.9787 8.93626C11.9174 8.98718 11.8385 9.01168 11.7591 9.00437C11.6798 8.99705 11.6066 8.95852 11.5557 8.89726C11.5048 8.83599 11.4803 8.75701 11.4876 8.67768C11.4949 8.59835 11.5334 8.52518 11.5947 8.47426C11.8977 8.23299 12.2533 8.06649 12.6327 7.98826C12.9228 7.92688 13.2237 7.94039 13.5072 8.02752C13.7906 8.11464 14.0472 8.27252 14.2527 8.48626C14.4938 8.72008 14.7202 8.96855 14.9307 9.23026C15.0598 9.39952 15.2001 9.55988 15.3507 9.71026C15.4046 9.74507 15.446 9.79627 15.4687 9.85633C15.4914 9.91639 15.4942 9.98214 15.4767 10.0439C15.4593 10.1057 15.4225 10.1603 15.3717 10.1996C15.3209 10.2389 15.2589 10.2608 15.1947 10.2623V10.2743Z" fill="#333333"/>
<path d="M14.8228 11.9244C14.6027 11.9553 14.3784 11.9321 14.1694 11.8568C13.9603 11.7816 13.7727 11.6565 13.6228 11.4924C13.3948 11.1564 13.4308 10.6824 13.7368 10.0404C13.7706 9.9692 13.8311 9.91415 13.9053 9.8872C13.9794 9.86025 14.0611 9.86357 14.1328 9.89643C14.1688 9.91317 14.2012 9.93689 14.2279 9.96623C14.2547 9.99557 14.2754 10.0299 14.2888 10.0673C14.3022 10.1047 14.308 10.1444 14.306 10.1841C14.3039 10.2238 14.294 10.2626 14.2768 10.2984C14.0008 10.8984 14.0728 11.0844 14.1148 11.1504C14.2708 11.3784 14.9668 11.3244 15.4288 11.2884H15.7228C15.7622 11.2861 15.8017 11.2915 15.839 11.3044C15.8763 11.3173 15.9107 11.3374 15.9402 11.3636C15.9697 11.3898 15.9938 11.4215 16.0111 11.457C16.0283 11.4925 16.0384 11.531 16.0408 11.5704C16.0432 11.6098 16.0377 11.6493 16.0248 11.6866C16.0119 11.7239 15.9918 11.7583 15.9656 11.7878C15.9395 11.8174 15.9077 11.8414 15.8722 11.8587C15.8367 11.876 15.7982 11.8861 15.7588 11.8884H15.4768C15.2608 11.9064 15.0328 11.9244 14.8228 11.9244Z" fill="#333333"/>
<path d="M12.039 11.9243C11.9798 11.9232 11.9219 11.9066 11.871 11.8763C11.8048 11.8312 11.759 11.762 11.7432 11.6835C11.7275 11.605 11.7432 11.5234 11.787 11.4563C12.0737 11.0191 12.4281 10.6303 12.837 10.3043C12.9038 10.2606 12.9853 10.2452 13.0635 10.2615C13.1417 10.2778 13.2102 10.3245 13.254 10.3913C13.2977 10.4582 13.3132 10.5397 13.2968 10.6179C13.2805 10.6961 13.2338 10.7646 13.167 10.8083C12.8229 11.086 12.527 11.4185 12.291 11.7923C12.2624 11.8327 12.2247 11.8658 12.1809 11.8887C12.1371 11.9117 12.0884 11.9239 12.039 11.9243Z" fill="#333333"/>
<path d="M8.63661 14.9665C7.41889 14.9229 6.26557 14.4086 5.41949 13.5318C4.57341 12.6549 4.10059 11.4839 4.10059 10.2655C4.10059 9.04696 4.57341 7.876 5.41949 6.99915C6.26557 6.1223 7.41889 5.60796 8.63661 5.56445C8.71618 5.56445 8.79248 5.59606 8.84874 5.65232C8.905 5.70858 8.93661 5.78489 8.93661 5.86445C8.93661 5.94402 8.905 6.02032 8.84874 6.07658C8.79248 6.13285 8.71618 6.16445 8.63661 6.16445C7.99057 6.16295 7.48099 6.30445 6.90435 6.59574C6.3277 6.88703 5.82797 7.31034 5.44581 7.83123C5.06365 8.35212 4.80987 8.95587 4.7051 9.59336C4.60033 10.2308 4.64754 10.8841 4.84289 11.4999C5.03824 12.1157 5.37621 12.6766 5.8293 13.1372C6.28239 13.5977 6.8378 13.9447 7.45034 14.1501C8.06288 14.3554 8.71525 14.4133 9.35436 14.3189C9.99347 14.2245 10.4736 13.9901 11.0006 13.6165C11.0329 13.5934 11.0693 13.577 11.108 13.5682C11.1466 13.5593 11.1866 13.5582 11.2256 13.5649C11.2647 13.5716 11.302 13.586 11.3355 13.6072C11.3689 13.6284 11.3979 13.656 11.4206 13.6885C11.4656 13.7541 11.4832 13.8346 11.4697 13.913C11.4563 13.9914 11.4128 14.0615 11.3486 14.1085C10.5546 14.6671 9.60743 14.9668 8.63661 14.9665Z" fill="#333333"/>
<path d="M10.065 22.9642H7.665C7.07171 22.9598 6.49219 22.7849 5.99543 22.4605C5.49867 22.136 5.1056 21.6757 4.863 21.1342L3.513 18.0982C3.45804 17.9703 3.42969 17.8325 3.42969 17.6932C3.42969 17.554 3.45804 17.4162 3.513 17.2882C3.56837 17.1584 3.65039 17.0416 3.75375 16.9455C3.85711 16.8494 3.9795 16.776 4.113 16.7302C7.20554 15.5574 10.6205 15.5574 13.713 16.7302C13.8459 16.7757 13.9679 16.8482 14.0713 16.9433C14.1746 17.0383 14.2571 17.1538 14.3136 17.2824C14.37 17.411 14.399 17.5499 14.3989 17.6904C14.3988 17.8308 14.3696 17.9697 14.313 18.0982L12.963 21.1342C12.7145 21.6912 12.3067 22.1622 11.791 22.4879C11.2753 22.8135 10.6747 22.9793 10.065 22.9642ZM8.877 16.4302C7.31086 16.4316 5.75787 16.7162 4.293 17.2702C4.23882 17.2905 4.1894 17.3217 4.14785 17.362C4.1063 17.4022 4.07351 17.4506 4.05154 17.5041C4.02957 17.5577 4.0189 17.6151 4.02018 17.673C4.02146 17.7308 4.03468 17.7877 4.059 17.8402L5.409 20.8702C5.60596 21.3101 5.92607 21.6836 6.33067 21.9455C6.73526 22.2074 7.20703 22.3466 7.689 22.3462H10.089C10.571 22.3466 11.0428 22.2074 11.4473 21.9455C11.8519 21.6836 12.172 21.3101 12.369 20.8702L13.719 17.8402C13.7433 17.7877 13.7565 17.7308 13.7578 17.673C13.7591 17.6151 13.7484 17.5577 13.7265 17.5041C13.7045 17.4506 13.6717 17.4022 13.6302 17.362C13.5886 17.3217 13.5392 17.2905 13.485 17.2702C12.0127 16.7128 10.4513 16.4282 8.877 16.4302Z" fill="#333333"/>
</svg>
