<!-- <svg width="21" height="23" viewBox="0 0 21 23" fill="none" xmlns="http://www.w3.org/2000/svg">
<path d="M17.6045 8.29139H16.3208C15.8714 8.29139 15.6468 7.74578 15.9677 7.44089L16.8664 6.54224C17.0589 6.34967 17.0589 6.02873 16.8664 5.83616L15.7912 4.761C15.5986 4.56843 15.2777 4.56843 15.0851 4.761L14.1865 5.65964C13.8655 5.98059 13.336 5.75593 13.336 5.3066V4.02282C13.336 3.75002 13.1113 3.52536 12.8385 3.52536H11.314C11.0412 3.52536 10.8166 3.75002 10.8166 4.02282V5.3066C10.8166 5.75593 10.271 5.98059 9.96606 5.65964L9.06742 4.761C8.87485 4.56843 8.55391 4.56843 8.36134 4.761L7.28617 5.83616C7.09361 6.02873 7.09361 6.34967 7.28617 6.54224L8.18482 7.44089C8.50576 7.76183 8.2811 8.29139 7.83178 8.29139H6.548C6.2752 8.29139 6.05054 8.51605 6.05054 8.78885V10.3133C6.05054 10.5861 6.2752 10.8108 6.548 10.8108H7.83178C8.2811 10.8108 8.50576 11.3564 8.18482 11.6613L7.28617 12.56C7.09361 12.7525 7.09361 13.0735 7.28617 13.266L8.36134 14.3412C8.55391 14.5338 8.87485 14.5338 9.06742 14.3412L9.96606 13.4426C10.287 13.1216 10.8166 13.3463 10.8166 13.7956V15.0794C10.8166 15.3522 11.0412 15.5768 11.314 15.5768H12.8385C13.1113 15.5768 13.336 15.3522 13.336 15.0794V13.7956C13.336 13.3463 13.8816 13.1216 14.1865 13.4426L15.0851 14.3412C15.2777 14.5338 15.5986 14.5338 15.7912 14.3412L16.8664 13.266C17.0589 13.0735 17.0589 12.7525 16.8664 12.56L15.9677 11.6774C15.6468 11.3564 15.8714 10.8269 16.3208 10.8269H17.6045C17.8774 10.8269 18.102 10.6022 18.102 10.3294V8.78885C18.102 8.51605 17.8774 8.29139 17.6045 8.29139Z" stroke="#333333" stroke-width="0.6" stroke-miterlimit="10"/>
<path d="M12.0679 11.5648C13.1757 11.5648 14.0738 10.6667 14.0738 9.55891C14.0738 8.45108 13.1757 7.55301 12.0679 7.55301C10.9601 7.55301 10.062 8.45108 10.062 9.55891C10.062 10.6667 10.9601 11.5648 12.0679 11.5648Z" stroke="#333333" stroke-width="0.6" stroke-miterlimit="10"/>
<path d="M16.0555 21.1703C16.0383 20.514 16.0383 19.9614 16.0728 19.4952C16.1073 18.6144 16.5045 17.8028 17.1608 17.2156C18.7668 15.8341 21.6852 12.2422 19.682 5.71445C18.5941 2.15703 14.8985 1 11.5828 1C6.02221 1 4.17442 5.3518 4.05354 6.42248C4.019 6.76786 3.82904 7.85581 3.69089 8.16666C3.10374 9.65179 1.94671 11.914 1.44591 12.8466C1.44591 12.8466 0.599728 14.1417 1.23868 14.7116C1.49772 14.9534 1.77402 15.0743 2.13667 15.0397C2.74109 14.9879 3.70816 14.6771 3.50093 18.4935C3.34551 21.3257 7.35193 19.167 7.35193 19.167C7.35193 19.167 9.14791 17.9927 8.05996 21.861C7.97362 22.1546 8.18084 22.4482 8.49169 22.4654C10.3567 22.6036 16.1073 22.8799 16.0555 21.1703Z" stroke="#333333" stroke-width="0.6" stroke-miterlimit="10"/>
</svg> -->

<svg width="21" height="24" viewBox="0 0 21 24" fill="none" xmlns="http://www.w3.org/2000/svg">
<path d="M17.6044 8.29142H16.3206C15.8713 8.29142 15.6467 7.74581 15.9676 7.44092L16.8663 6.54227C17.0588 6.3497 17.0588 6.02876 16.8663 5.83619L15.7911 4.76103C15.5985 4.56846 15.2776 4.56846 15.085 4.76103L14.1864 5.65967C13.8654 5.98062 13.3359 5.75596 13.3359 5.30663V4.02286C13.3359 3.75005 13.1112 3.52539 12.8384 3.52539H11.3139C11.0411 3.52539 10.8164 3.75005 10.8164 4.02286V5.30663C10.8164 5.75596 10.2708 5.98062 9.96594 5.65967L9.0673 4.76103C8.87473 4.56846 8.55378 4.56846 8.36122 4.76103L7.28605 5.83619C7.09349 6.02876 7.09349 6.3497 7.28605 6.54227L8.1847 7.44092C8.50564 7.76186 8.28098 8.29142 7.83166 8.29142H6.54788C6.27508 8.29142 6.05042 8.51608 6.05042 8.78888V10.3134C6.05042 10.5862 6.27508 10.8108 6.54788 10.8108H7.83166C8.28098 10.8108 8.50564 11.3564 8.1847 11.6613L7.28605 12.56C7.09349 12.7526 7.09349 13.0735 7.28605 13.2661L8.36122 14.3412C8.55378 14.5338 8.87473 14.5338 9.0673 14.3412L9.96594 13.4426C10.2869 13.1216 10.8164 13.3463 10.8164 13.7956V15.0794C10.8164 15.3522 11.0411 15.5769 11.3139 15.5769H12.8384C13.1112 15.5769 13.3359 15.3522 13.3359 15.0794V13.7956C13.3359 13.3463 13.8815 13.1216 14.1864 13.4426L15.085 14.3412C15.2776 14.5338 15.5985 14.5338 15.7911 14.3412L16.8663 13.2661C17.0588 13.0735 17.0588 12.7526 16.8663 12.56L15.9676 11.6774C15.6467 11.3564 15.8713 10.8269 16.3206 10.8269H17.6044C17.8772 10.8269 18.1019 10.6022 18.1019 10.3294V8.78888C18.1019 8.51608 17.8772 8.29142 17.6044 8.29142Z" stroke="#333333" stroke-miterlimit="10"/>
<path d="M12.0677 11.5645C13.1755 11.5645 14.0736 10.6665 14.0736 9.55864C14.0736 8.45081 13.1755 7.55273 12.0677 7.55273C10.9598 7.55273 10.0618 8.45081 10.0618 9.55864C10.0618 10.6665 10.9598 11.5645 12.0677 11.5645Z" stroke="#333333" stroke-miterlimit="10"/>
<path d="M16.0555 21.1703C16.0383 20.514 16.0383 19.9614 16.0728 19.4952C16.1073 18.6144 16.5045 17.8028 17.1608 17.2156C18.7668 15.8341 21.6852 12.2422 19.682 5.71445C18.5941 2.15703 14.8985 1 11.5828 1C6.02221 1 4.17442 5.3518 4.05354 6.42248C4.019 6.76786 3.82904 7.85581 3.69089 8.16666C3.10374 9.65179 1.94671 11.914 1.44591 12.8466C1.44591 12.8466 0.599728 14.1417 1.23868 14.7116C1.49772 14.9534 1.77402 15.0743 2.13667 15.0397C2.74109 14.9879 3.70816 14.6771 3.50093 18.4935C3.34551 21.3257 7.35193 19.167 7.35193 19.167C7.35193 19.167 9.14791 17.9927 8.05996 21.861C7.97362 22.1546 8.18084 22.4482 8.49169 22.4654C10.3567 22.6036 16.1073 22.8799 16.0555 21.1703Z" stroke="#333333" stroke-miterlimit="10"/>
</svg>

