<svg width="144" height="104" viewBox="0 0 144 104" fill="none" xmlns="http://www.w3.org/2000/svg">
<path d="M143.625 42.7188L130.833 55.5351L143.625 68.3515H118V42.7188H143.625Z" fill="#F2F2F2"/>
<path d="M0 68.3515L12.7927 55.5351L0 42.7188H25.5853V68.3515H0Z" fill="#F2F2F2"/>
<path d="M71.1719 102.75C99.2003 102.75 121.922 80.0285 121.922 52C121.922 23.9715 99.2003 1.25 71.1719 1.25C43.1434 1.25 20.4219 23.9715 20.4219 52C20.4219 80.0285 43.1434 102.75 71.1719 102.75Z" fill="#F2F2F2" stroke="white" stroke-width="1.5" stroke-miterlimit="10"/>
<path d="M71.19 91.0987C92.834 91.0987 110.38 73.5528 110.38 51.9087C110.38 30.2647 92.834 12.7188 71.19 12.7188C49.546 12.7188 32 30.2647 32 51.9087C32 73.5528 49.546 91.0987 71.19 91.0987Z" fill="white"/>
<path d="M20.0823 33.7188C20.0823 33.7188 67.4772 52.6799 122.695 33.7188C122.695 33.7188 127.882 49.686 122.695 64.4158C122.695 64.4158 73.2918 83.0975 20.0823 64.4158C20.0823 64.4158 15.3972 51.2428 20.0823 33.7188Z" fill="#F2F2F2" stroke="white" stroke-width="1.5" stroke-miterlimit="10" stroke-linejoin="round"/>
<path d="M62.9972 48.6787C63.4612 48.6787 63.8292 48.8227 64.1012 49.1107C64.3732 49.3827 64.5092 49.7507 64.5092 50.2147V64.3027C64.5092 64.7667 64.3652 65.1427 64.0772 65.4307C63.8052 65.7188 63.4452 65.8628 62.9972 65.8628C62.5332 65.8628 62.1652 65.7188 61.8932 65.4307C61.6212 65.1427 61.4852 64.7667 61.4852 64.3027V58.3747H52.8212V64.3027C52.8212 64.7667 52.6772 65.1427 52.3892 65.4307C52.1172 65.7188 51.7492 65.8628 51.2852 65.8628C50.8372 65.8628 50.4692 65.7188 50.1812 65.4307C49.9092 65.1427 49.7732 64.7667 49.7732 64.3027V50.2147C49.7732 49.7507 49.9092 49.3827 50.1812 49.1107C50.4532 48.8227 50.8212 48.6787 51.2852 48.6787C51.7492 48.6787 52.1172 48.8227 52.3892 49.1107C52.6772 49.3827 52.8212 49.7507 52.8212 50.2147V55.8787H61.4852V50.2147C61.4852 49.7507 61.6212 49.3827 61.8932 49.1107C62.1652 48.8227 62.5332 48.6787 62.9972 48.6787ZM69.6842 65.8628C69.2202 65.8628 68.8442 65.7188 68.5562 65.4307C68.2842 65.1427 68.1482 64.7667 68.1482 64.3027V50.2627C68.1482 49.7987 68.2762 49.4387 68.5322 49.1827C68.8042 48.9267 69.1722 48.7987 69.6362 48.7987H78.0602C79.0362 48.7987 79.5242 49.2147 79.5242 50.0467C79.5242 50.8627 79.0362 51.2707 78.0602 51.2707H71.1962V55.8787H77.5802C78.5562 55.8787 79.0442 56.2947 79.0442 57.1267C79.0442 57.9427 78.5562 58.3507 77.5802 58.3507H71.1962V64.3027C71.1962 64.7667 71.0602 65.1427 70.7882 65.4307C70.5162 65.7188 70.1482 65.8628 69.6842 65.8628ZM83.23 65.7188C82.766 65.7188 82.398 65.5907 82.126 65.3347C81.87 65.0787 81.742 64.7187 81.742 64.2547V50.2627C81.742 49.7987 81.87 49.4387 82.126 49.1827C82.398 48.9267 82.766 48.7987 83.23 48.7987H91.894C92.358 48.7987 92.718 48.9027 92.974 49.1107C93.23 49.3187 93.358 49.6147 93.358 49.9987C93.358 50.3987 93.23 50.7107 92.974 50.9347C92.718 51.1427 92.358 51.2467 91.894 51.2467H84.766V55.9027H91.414C91.878 55.9027 92.238 56.0067 92.494 56.2147C92.75 56.4227 92.878 56.7267 92.878 57.1267C92.878 57.5107 92.75 57.8067 92.494 58.0147C92.238 58.2227 91.878 58.3267 91.414 58.3267H84.766V63.2707H91.894C92.358 63.2707 92.718 63.3827 92.974 63.6067C93.23 63.8147 93.358 64.1187 93.358 64.5187C93.358 64.9027 93.23 65.1987 92.974 65.4067C92.718 65.6147 92.358 65.7188 91.894 65.7188H83.23Z" fill="white"/>
</svg>
