<svg width="34" height="41" viewBox="0 0 34 41" fill="none" xmlns="http://www.w3.org/2000/svg">
<path d="M31.8062 39.2098C31.8062 39.967 25.2999 40.5808 17.274 40.5808C9.24801 40.5808 2.7417 39.967 2.7417 39.2098C2.7417 38.4527 9.24801 37.8389 17.274 37.8389C25.2999 37.8389 31.8062 38.4527 31.8062 39.2098Z" fill="#3A9AC2"/>
<path d="M13.7437 31.2578H13.8241C13.9239 31.2588 14.0206 31.2207 14.0962 31.1507L23.1168 29.7527C23.1378 29.8129 23.1721 29.8667 23.2168 29.9096C23.2575 29.956 23.3079 29.9912 23.364 30.0123C23.42 30.0333 23.4799 30.0396 23.5387 30.0306L23.9411 29.1145L24.2309 25.6576C25.1082 24.9317 29.221 21.1377 29.06 15.8228C28.9312 11.4153 28.1183 6.13488 23.7882 4.27681C19.4581 2.41873 13.8885 3.30024 11.643 5.9534C9.39745 8.60655 8.8743 9.80782 8.47992 11.64C8.15798 13.1956 5.97683 18.1216 5.26052 19.6426C5.05715 19.9698 4.94462 20.3524 4.93607 20.7456C4.92752 21.1389 5.0233 21.5267 5.21223 21.8637C5.39113 22.1318 5.63775 22.3394 5.92299 22.462C6.20822 22.5845 6.52015 22.6168 6.82193 22.5551L6.83728 22.5534C7.39379 22.4936 7.85331 22.4443 7.98092 22.6156C8.10969 22.7884 8.19018 23.3415 8.10969 24.2576C7.96482 26.0638 8.31895 27.3428 8.99503 27.8441C9.6711 28.3453 10.6047 28.3972 11.8362 27.9132H11.9408C12.5343 27.6441 13.1483 27.4302 13.7758 27.2737C13.7627 27.6334 13.725 27.9916 13.6632 28.3453L13.3895 30.7738C13.3781 30.8881 13.4087 31.0027 13.4749 31.0931C13.541 31.1836 13.6375 31.2426 13.7437 31.2578Z" fill="white"/>
<path d="M20.0253 24.1294H17.8054C17.7078 24.1284 17.6138 24.0913 17.5404 24.0248C17.467 23.9583 17.4192 23.8668 17.4055 23.767L17.177 21.9886C16.6326 21.8384 16.1088 21.6175 15.6182 21.3311L14.1818 22.4016C14.1038 22.459 14.0087 22.4862 13.9132 22.4785C13.8177 22.4708 13.7279 22.4287 13.6595 22.3594L12.1088 20.758C12.0417 20.6819 12.0045 20.5827 12.0045 20.4799C12.0045 20.377 12.0417 20.2778 12.1088 20.2017L13.1616 18.7773C12.8674 18.2494 12.6449 17.6821 12.5006 17.0915L10.7785 16.864C10.6797 16.8498 10.5891 16.7995 10.5232 16.7222C10.4573 16.6448 10.4204 16.5456 10.4194 16.4425V14.209C10.4204 14.1059 10.4573 14.0067 10.5232 13.9293C10.5891 13.852 10.6797 13.8017 10.7785 13.7875L12.5006 13.5515C12.6474 12.9924 12.8613 12.4545 13.1371 11.9501L12.068 10.4667C12.0102 10.3854 11.9826 10.2854 11.9901 10.1849C11.9976 10.0844 12.0397 9.98998 12.1088 9.9188L13.6595 8.31736C13.7339 8.2498 13.8297 8.21254 13.9288 8.21254C14.0279 8.21254 14.1237 8.2498 14.1981 8.31736L15.5692 9.41308C16.0801 9.10655 16.6293 8.87399 17.2015 8.72193L17.43 6.9435C17.442 6.84294 17.4894 6.75046 17.5631 6.68363C17.6369 6.61681 17.7318 6.5803 17.8299 6.58107H20.0253C20.1234 6.5803 20.2183 6.61681 20.2921 6.68363C20.3658 6.75046 20.4132 6.84294 20.4252 6.9435L20.6537 8.72193C21.2259 8.87399 21.7751 9.10655 22.286 9.41308L23.6571 8.31736C23.7315 8.2498 23.8273 8.21254 23.9264 8.21254C24.0255 8.21254 24.1213 8.2498 24.1957 8.31736L25.7382 9.9188C25.803 9.99434 25.8388 10.0918 25.8388 10.1927C25.8388 10.2937 25.803 10.3911 25.7382 10.4667L24.6772 11.8995C24.9721 12.4271 25.1946 12.9944 25.3383 13.5852L27.0603 13.8212C27.1592 13.8354 27.2498 13.8857 27.3157 13.9631C27.3816 14.0404 27.4184 14.1396 27.4194 14.2427V16.5015C27.4184 16.6046 27.3816 16.7038 27.3157 16.7812C27.2498 16.8585 27.1592 16.9088 27.0603 16.923L25.3383 17.1505C25.1965 17.7141 24.9824 18.2555 24.7017 18.7604L25.7382 20.2101C25.7977 20.2907 25.8263 20.3911 25.8188 20.4921C25.8113 20.5931 25.7681 20.6877 25.6974 20.758L24.1467 22.3594C24.0715 22.4254 23.9761 22.4616 23.8774 22.4616C23.7788 22.4616 23.6833 22.4254 23.6081 22.3594L22.237 21.2637C21.7245 21.5667 21.1757 21.799 20.6047 21.9549L20.3762 23.7333C20.3715 23.8312 20.3338 23.9243 20.2698 23.9966C20.2057 24.0689 20.1193 24.1158 20.0253 24.1294Z" fill="#79B0DE"/>
<path d="M19.4056 23.0327H17.3289C17.2376 23.0317 17.1496 22.9969 17.081 22.9346C17.0123 22.8722 16.9676 22.7865 16.9548 22.6929L16.741 21.0256C16.2317 20.8848 15.7417 20.6777 15.2828 20.4093L13.9391 21.4128C13.8661 21.4666 13.7771 21.4921 13.6878 21.4849C13.5985 21.4777 13.5145 21.4382 13.4504 21.3733L11.9998 19.8719C11.9371 19.8006 11.9023 19.7076 11.9023 19.6112C11.9023 19.5147 11.9371 19.4217 11.9998 19.3504L12.9847 18.015C12.7094 17.5201 12.5014 16.9883 12.3663 16.4346L10.7554 16.2213C10.6629 16.208 10.5781 16.1609 10.5165 16.0883C10.4548 16.0158 10.4204 15.9228 10.4194 15.8262V13.7322C10.4204 13.6356 10.4548 13.5426 10.5165 13.4701C10.5781 13.3976 10.6629 13.3504 10.7554 13.3371L12.3663 13.1159C12.5037 12.5917 12.7037 12.0874 12.9618 11.6145L11.9617 10.2238C11.9076 10.1476 11.8817 10.0539 11.8887 9.95967C11.8957 9.86544 11.9352 9.77692 11.9998 9.71019L13.4504 8.20884C13.5201 8.1455 13.6097 8.11057 13.7024 8.11057C13.7951 8.11057 13.8847 8.1455 13.9543 8.20884L15.237 9.23608C15.7149 8.94871 16.2287 8.73068 16.7639 8.58813L16.9777 6.92084C16.9889 6.82658 17.0333 6.73987 17.1022 6.67722C17.1712 6.61457 17.26 6.58035 17.3518 6.58107H19.4056C19.4973 6.58035 19.5861 6.61457 19.6551 6.67722C19.7241 6.73987 19.7684 6.82658 19.7797 6.92084L19.9934 8.58813C20.5287 8.73068 21.0425 8.94871 21.5204 9.23608L22.803 8.20884C22.8727 8.1455 22.9623 8.11057 23.055 8.11057C23.1477 8.11057 23.2373 8.1455 23.3069 8.20884L24.7499 9.71019C24.8105 9.78101 24.844 9.87237 24.844 9.967C24.844 10.0616 24.8105 10.153 24.7499 10.2238L23.7574 11.5671C24.0333 12.0617 24.2414 12.5936 24.3758 13.1475L25.9867 13.3687C26.0792 13.382 26.164 13.4292 26.2256 13.5017C26.2873 13.5742 26.3217 13.6672 26.3227 13.7638V15.8815C26.3217 15.9781 26.2873 16.0711 26.2256 16.1437C26.164 16.2162 26.0792 16.2634 25.9867 16.2766L24.3758 16.49C24.2432 17.0183 24.0429 17.5258 23.7803 17.9992L24.7499 19.3583C24.8055 19.4339 24.8324 19.528 24.8253 19.6227C24.8183 19.7174 24.7778 19.8061 24.7117 19.8719L23.2611 21.3733C23.1908 21.4351 23.1015 21.469 23.0092 21.469C22.9169 21.469 22.8276 21.4351 22.7572 21.3733L21.4746 20.346C20.9951 20.6301 20.4818 20.8479 19.9476 20.994L19.7339 22.6613C19.7294 22.753 19.6942 22.8403 19.6342 22.9081C19.5743 22.9759 19.4935 23.0199 19.4056 23.0327Z" fill="white"/>
<ellipse cx="17.8227" cy="14.2585" rx="2.46774" ry="2.74194" fill="#79B0DE"/>
<ellipse cx="17.5485" cy="13.9843" rx="2.19355" ry="2.46774" fill="white"/>
<path d="M13.6372 31.4063H13.5522C13.4401 31.3912 13.3382 31.3321 13.2684 31.2418C13.1985 31.1514 13.1661 31.0369 13.1782 30.9226L13.4672 28.4956C13.5325 28.142 13.5723 27.784 13.5862 27.4246C12.9234 27.5809 12.275 27.7948 11.6482 28.0637H11.5377C10.2372 28.5474 9.2512 28.4956 8.5372 27.9946C7.8232 27.4937 7.4492 26.2154 7.6022 24.4102C7.6872 23.4947 7.6022 22.9419 7.4662 22.7692C7.3302 22.5964 6.8372 22.6483 6.2422 22.7087C5.92349 22.7704 5.59406 22.7381 5.29283 22.6157C4.9916 22.4932 4.73113 22.2858 4.5422 22.0178C4.34267 21.6809 4.24153 21.2934 4.25056 20.9004C4.25959 20.5073 4.37842 20.125 4.5932 19.798C5.3497 18.2779 7.6532 13.3547 7.9932 11.8001C8.4097 9.96901 8.9622 8.76845 11.3337 6.11686C13.7052 3.46527 19.5872 2.58429 24.1602 4.44126C28.7332 6.29824 29.5917 11.5755 29.7277 15.9804C29.8977 21.2922 25.5542 25.0839 24.6277 25.8094L24.3217 29.2643L26.4382 29.0138C26.494 29.0076 26.5505 29.0126 26.6044 29.0285C26.6583 29.0444 26.7086 29.071 26.7524 29.1067C26.7962 29.1424 26.8327 29.1865 26.8597 29.2365C26.8867 29.2865 26.9038 29.3414 26.9099 29.3982C26.9161 29.4549 26.9112 29.5123 26.8955 29.567C26.8798 29.6218 26.8536 29.6729 26.8185 29.7174C26.7834 29.7619 26.74 29.799 26.6908 29.8265C26.6416 29.8539 26.5875 29.8713 26.5317 29.8775L23.8967 30.1798C23.8346 30.1888 23.7714 30.1826 23.7122 30.1615C23.653 30.1405 23.5997 30.1053 23.5567 30.0589C23.5095 30.0161 23.4733 29.9623 23.4511 29.9021C23.4289 29.8419 23.4214 29.7772 23.4292 29.7134L23.7947 25.5676C23.8113 25.4461 23.8719 25.3352 23.9647 25.2567C24.0157 25.2567 29.0137 21.37 28.8522 16.0322C28.6907 9.86536 27.1352 6.54872 23.8372 5.24451C19.5872 3.57755 14.1812 4.23397 11.9967 6.69555C9.6507 9.32122 9.2257 10.3577 8.8602 11.9987C8.4522 13.8125 5.8682 19.2021 5.3752 20.1867C5.24471 20.3812 5.16596 20.6067 5.14659 20.8413C5.12723 21.0759 5.16792 21.3116 5.2647 21.5254C5.37147 21.6553 5.51071 21.7535 5.66777 21.8097C5.82483 21.866 5.9939 21.8782 6.1572 21.845C6.9137 21.7673 7.6277 21.6982 8.0867 22.1559C8.5457 22.6137 8.5882 23.201 8.4777 24.488C8.3502 25.9304 8.5627 26.9064 9.0812 27.3037C9.5997 27.701 10.2372 27.6319 11.2487 27.2605L11.3507 27.2173C13.1187 26.5522 13.7222 26.3536 14.1557 26.6904C14.5892 27.0273 14.4617 27.5541 14.3087 28.5992V28.867L14.0707 31.0262C14.0562 31.1323 14.0043 31.2294 13.9245 31.2993C13.8447 31.3693 13.7426 31.4073 13.6372 31.4063Z" fill="#333333"/>
<path d="M11.2485 31.7518C11.1476 31.7529 11.0498 31.7167 10.9732 31.65C10.8966 31.5832 10.8464 31.4905 10.832 31.3891C10.8236 31.3329 10.8261 31.2756 10.8395 31.2205C10.8529 31.1653 10.8768 31.1134 10.91 31.0676C10.9432 31.0219 10.9849 30.9833 11.0328 30.954C11.0806 30.9246 11.1337 30.9052 11.189 30.8968L15.8895 30.2231C15.9449 30.2133 16.0017 30.215 16.0565 30.2281C16.1112 30.2412 16.1627 30.2654 16.208 30.2993C16.2533 30.3332 16.2913 30.3761 16.3199 30.4253C16.3484 30.4745 16.3668 30.5292 16.374 30.5858C16.3888 30.6989 16.3599 30.8134 16.2933 30.9052C16.2267 30.997 16.1277 31.059 16.017 31.0781L11.3165 31.7777L11.2485 31.7518Z" fill="#333333"/>
<path d="M18.4227 17.656C17.7003 17.6598 16.9987 17.4101 16.4365 16.949C15.8743 16.4879 15.486 15.8437 15.3372 15.1254C15.326 15.0698 15.3258 15.0125 15.3364 14.9568C15.347 14.9011 15.3683 14.8481 15.3991 14.8008C15.4299 14.7535 15.4695 14.7128 15.5158 14.681C15.562 14.6493 15.614 14.6271 15.6687 14.6158C15.7235 14.6032 15.7802 14.602 15.8354 14.6123C15.8907 14.6226 15.9433 14.6441 15.9902 14.6755C16.037 14.707 16.0771 14.7478 16.108 14.7954C16.139 14.843 16.1601 14.8965 16.1702 14.9526C16.257 15.3795 16.4611 15.7727 16.7588 16.0866C17.0565 16.4005 17.4357 16.6222 17.8524 16.726C18.269 16.8298 18.7061 16.8115 19.113 16.6731C19.5198 16.5348 19.8797 16.2821 20.151 15.9444C20.4223 15.6067 20.5938 15.1977 20.6457 14.765C20.6975 14.3323 20.6276 13.8935 20.4441 13.4995C20.2605 13.1054 19.9708 12.7724 19.6085 12.5389C19.2462 12.3054 18.8262 12.181 18.3972 12.1801C17.9451 12.1789 17.5034 12.3174 17.1307 12.5774C17.0357 12.6404 16.9202 12.663 16.8089 12.6404C16.6977 12.6178 16.5996 12.5518 16.5357 12.4565C16.4742 12.3613 16.4522 12.2452 16.4745 12.1336C16.4968 12.022 16.5615 11.9239 16.6547 11.8605C17.1561 11.5127 17.7476 11.3234 18.3547 11.3164C19.1821 11.3164 19.9755 11.6504 20.5605 12.2448C21.1456 12.8393 21.4742 13.6455 21.4742 14.4862C21.4742 15.3269 21.1456 16.1332 20.5605 16.7276C19.9755 17.3221 19.1821 17.656 18.3547 17.656H18.4227Z" fill="#333333"/>
<path d="M19.587 23.4951H17.275C17.1734 23.4941 17.0754 23.456 16.999 23.3879C16.9226 23.3198 16.8727 23.226 16.8585 23.1237L16.6205 21.3013C16.0535 21.1475 15.508 20.9211 14.997 20.6276L13.501 21.7245C13.4198 21.7834 13.3208 21.8113 13.2213 21.8034C13.1218 21.7955 13.0283 21.7523 12.957 21.6814L11.342 20.0403C11.2721 19.9624 11.2334 19.8607 11.2334 19.7553C11.2334 19.6498 11.2721 19.5482 11.342 19.4703L12.4385 18.0106C12.1321 17.4696 11.9004 16.8884 11.75 16.2832L9.95652 16.05C9.85359 16.0355 9.75921 15.9839 9.69056 15.9046C9.62192 15.8254 9.58357 15.7237 9.58252 15.6181V13.3293C9.58357 13.2237 9.62192 13.122 9.69056 13.0427C9.75921 12.9635 9.85359 12.9119 9.95652 12.8974L11.75 12.6556C11.903 12.0827 12.1257 11.5314 12.413 11.0145L11.2995 9.49441C11.2393 9.41114 11.2105 9.3087 11.2183 9.2057C11.2261 9.10269 11.27 9.00594 11.342 8.933L12.957 7.29195C13.0346 7.22271 13.1343 7.18453 13.2375 7.18453C13.3408 7.18453 13.4405 7.22271 13.518 7.29195L14.946 8.41477C15.4781 8.10066 16.0501 7.86235 16.646 7.70653L16.884 5.8841C16.8965 5.78106 16.9459 5.68629 17.0227 5.61781C17.0995 5.54933 17.1983 5.51193 17.3005 5.51271H19.587C19.6892 5.51193 19.7881 5.54933 19.8649 5.61781C19.9417 5.68629 19.991 5.78106 20.0035 5.8841L20.2415 7.70653C20.8374 7.86235 21.4095 8.10066 21.9415 8.41477L23.3695 7.29195C23.4471 7.22271 23.5468 7.18453 23.65 7.18453C23.7533 7.18453 23.853 7.22271 23.9305 7.29195L25.537 8.933C25.6045 9.01041 25.6418 9.11027 25.6418 9.2137C25.6418 9.31714 25.6045 9.417 25.537 9.49441L24.432 10.9627C24.7392 11.5033 24.9709 12.0847 25.1205 12.6901L26.914 12.932C27.0169 12.9465 27.1113 12.998 27.18 13.0773C27.2486 13.1566 27.287 13.2582 27.288 13.3638V15.6786C27.287 15.7842 27.2486 15.8858 27.18 15.9651C27.1113 16.0444 27.0169 16.0959 26.914 16.1104L25.1205 16.3436C24.9729 16.9211 24.7499 17.4759 24.4575 17.9933L25.537 19.4789C25.5989 19.5615 25.6288 19.6643 25.621 19.7678C25.6131 19.8713 25.5681 19.9683 25.4945 20.0403L23.8795 21.6814C23.8012 21.7489 23.7018 21.786 23.599 21.786C23.4963 21.786 23.3969 21.7489 23.3185 21.6814L21.8905 20.5585C21.3567 20.869 20.7852 21.1071 20.1905 21.2668L19.9525 23.0892C19.9475 23.1895 19.9083 23.2849 19.8416 23.359C19.7749 23.4331 19.6849 23.4812 19.587 23.4951ZM17.6745 22.6314H19.213L19.434 20.904C19.4477 20.816 19.4864 20.7341 19.5453 20.6681C19.6042 20.6021 19.6807 20.555 19.7655 20.5326C20.4557 20.3784 21.1143 20.1037 21.712 19.7207C21.784 19.6687 21.8702 19.6407 21.9585 19.6407C22.0469 19.6407 22.133 19.6687 22.205 19.7207L23.5735 20.7917L24.6615 19.6775L23.633 18.2265C23.5855 18.1551 23.5601 18.0709 23.5601 17.9847C23.5601 17.8985 23.5855 17.8142 23.633 17.7428C24 17.1519 24.2618 16.4999 24.4065 15.8168C24.4281 15.7513 24.4649 15.692 24.5137 15.6439C24.5625 15.5958 24.6219 15.5603 24.687 15.5404L26.387 15.3072V13.7525L24.687 13.5193C24.6011 13.506 24.5212 13.4667 24.4575 13.4067C24.3939 13.3466 24.3495 13.2685 24.33 13.1824C24.1758 12.4806 23.9025 11.8113 23.5225 11.2046C23.4732 11.1323 23.4467 11.0464 23.4467 10.9584C23.4467 10.8704 23.4732 10.7845 23.5225 10.7122L24.568 9.32167L23.548 8.17293L22.1795 9.24393C22.1075 9.29601 22.0214 9.32399 21.933 9.32399C21.8447 9.32399 21.7585 9.29601 21.6865 9.24393C21.0932 8.84104 20.4341 8.54858 19.74 8.38022C19.6548 8.36158 19.5773 8.31679 19.518 8.2519C19.4587 8.18701 19.4205 8.10517 19.4085 8.01746L19.1875 6.29005H17.649L17.428 8.01746C17.4172 8.10564 17.3794 8.18812 17.3199 8.25323C17.2604 8.31834 17.1823 8.36277 17.0965 8.38022C16.403 8.55031 15.7442 8.84263 15.15 9.24393C15.0799 9.29654 14.995 9.32492 14.9078 9.32492C14.8206 9.32492 14.7357 9.29654 14.6655 9.24393L13.297 8.17293L12.2005 9.28712L13.229 10.7382C13.2769 10.8078 13.3026 10.8907 13.3026 10.9757C13.3026 11.0606 13.2769 11.1436 13.229 11.2132C12.867 11.8068 12.6056 12.4578 12.4555 13.1393C12.4372 13.2258 12.3931 13.3046 12.3292 13.3648C12.2654 13.4251 12.1848 13.4639 12.0985 13.4761L10.3985 13.7093V15.264L12.0985 15.4972C12.1841 15.5076 12.2645 15.5448 12.3284 15.6036C12.3924 15.6624 12.4368 15.7399 12.4555 15.8254C12.608 16.5306 12.8813 17.203 13.263 17.8119C13.3124 17.8842 13.3388 17.9701 13.3388 18.0581C13.3388 18.1461 13.3124 18.232 13.263 18.3042L12.209 19.6948L13.297 20.809L14.725 19.7553C14.7961 19.7091 14.8787 19.6846 14.963 19.6846C15.0474 19.6846 15.1299 19.7091 15.201 19.7553C15.7834 20.1266 16.4247 20.3925 17.0965 20.5413C17.1824 20.5616 17.2601 20.608 17.3193 20.6743C17.3786 20.7407 17.4165 20.8238 17.428 20.9126L17.6745 22.6314Z" fill="#333333"/>
</svg>
