<svg width="100" height="100" viewBox="0 0 100 100" fill="none" xmlns="http://www.w3.org/2000/svg">
<circle cx="50" cy="50" r="50" fill="#F2F2F2"/>
<ellipse cx="50.0002" cy="49.9999" rx="39.1892" ry="39.1892" fill="white"/>
<path d="M64.4422 74.1981H34.9328C33.8898 74.1981 32.8894 73.7901 32.1519 73.0639C31.4144 72.3377 31 71.3528 31 70.3258V33.5774C31 32.5504 31.4144 31.5655 32.1519 30.8393C32.8894 30.1131 33.8898 29.7051 34.9328 29.7051H37.5547C37.7286 29.7051 37.8953 29.7731 38.0182 29.8941C38.1411 30.0151 38.2102 30.1793 38.2102 30.3505C38.2102 30.5216 38.1411 30.6858 38.0182 30.8068C37.8953 30.9279 37.7286 30.9959 37.5547 30.9959H34.9328C34.2375 30.9959 33.5706 31.2678 33.0789 31.752C32.5872 32.2361 32.3109 32.8927 32.3109 33.5774V70.3387C32.3109 71.0233 32.5872 71.68 33.0789 72.1641C33.5706 72.6482 34.2375 72.9202 34.9328 72.9202H64.4422C65.1375 72.9202 65.8044 72.6482 66.2961 72.1641C66.7878 71.68 67.0641 71.0233 67.0641 70.3387V33.5774C67.0641 32.8927 66.7878 32.2361 66.2961 31.752C65.8044 31.2678 65.1375 30.9959 64.4422 30.9959H61.8203C61.6464 30.9959 61.4797 30.9279 61.3568 30.8068C61.2339 30.6858 61.1648 30.5216 61.1648 30.3505C61.1682 30.1803 61.2383 30.0181 61.3605 29.8978C61.4827 29.7774 61.6475 29.7084 61.8203 29.7051H64.4422C65.4852 29.7051 66.4855 30.1131 67.2231 30.8393C67.9606 31.5655 68.375 32.5504 68.375 33.5774V70.3387C68.3715 71.3634 67.9556 72.3451 67.2185 73.0685C66.4813 73.7919 65.483 74.1981 64.4422 74.1981Z" fill="#BDBDBD"/>
<path d="M61.8336 34.4939H37.5549C37.3821 34.4906 37.2173 34.4215 37.0951 34.3012C36.9729 34.1809 36.9028 34.0187 36.8994 33.8485V30.8668C36.8994 29.8398 37.3138 28.8549 38.0513 28.1287C38.7889 27.4025 39.7892 26.9945 40.8322 26.9945H44.1096C44.2834 26.9945 44.4502 27.0625 44.5731 27.1835C44.696 27.3046 44.7651 27.4687 44.7651 27.6399C44.7617 27.81 44.6916 27.9723 44.5694 28.0926C44.4472 28.2129 44.2824 28.282 44.1096 28.2853H40.8454C40.15 28.2853 39.4831 28.5573 38.9914 29.0414C38.4997 29.5255 38.2235 30.1822 38.2235 30.8668V33.2031H61.1519V30.8668C61.1519 30.1822 60.8756 29.5255 60.3839 29.0414C59.8922 28.5573 59.2254 28.2853 58.53 28.2853H55.2526C55.0798 28.282 54.9151 28.2129 54.7929 28.0926C54.6706 27.9723 54.6005 27.81 54.5972 27.6399C54.5972 27.4687 54.6662 27.3046 54.7891 27.1835C54.9121 27.0625 55.0788 26.9945 55.2526 26.9945H58.53C59.573 26.9945 60.5734 27.4025 61.3109 28.1287C62.0485 28.8549 62.4628 29.8398 62.4628 30.8668V33.8485C62.4629 34.0153 62.3975 34.1757 62.2802 34.296C62.1629 34.4163 62.0028 34.4872 61.8336 34.4939Z" fill="#BDBDBD"/>
<path d="M52.1455 30.8668H47.2295C46.4108 30.7946 45.6493 30.4234 45.0946 29.8263C44.54 29.2291 44.2324 28.4491 44.2324 27.6399C44.2324 26.8306 44.54 26.0507 45.0946 25.4535C45.6493 24.8563 46.4108 24.4851 47.2295 24.4129H52.1455C52.6005 24.3728 53.059 24.4264 53.4919 24.5704C53.9247 24.7143 54.3223 24.9454 54.6595 25.249C54.9966 25.5525 55.2659 25.9219 55.4501 26.3335C55.6343 26.7452 55.7294 27.1901 55.7294 27.6399C55.7294 28.0897 55.6343 28.5346 55.4501 28.9462C55.2659 29.3578 54.9966 29.7272 54.6595 30.0308C54.3223 30.3343 53.9247 30.5654 53.4919 30.7094C53.059 30.8533 52.6005 30.9069 52.1455 30.8668ZM47.6273 25.6908C47.35 25.6592 47.0691 25.6857 46.8029 25.7686C46.5368 25.8515 46.2914 25.9889 46.083 26.1717C45.8746 26.3546 45.7078 26.5788 45.5936 26.8296C45.4794 27.0804 45.4203 27.3521 45.4203 27.627C45.4203 27.9018 45.4794 28.1736 45.5936 28.4244C45.7078 28.6752 45.8746 28.8993 46.083 29.0822C46.2914 29.265 46.5368 29.4024 46.8029 29.4853C47.0691 29.5682 47.35 29.5947 47.6273 29.5631H52.39C52.6673 29.5947 52.9482 29.5682 53.2144 29.4853C53.4805 29.4024 53.7259 29.265 53.9343 29.0822C54.1427 28.8993 54.3095 28.6752 54.4237 28.4244C54.5379 28.1736 54.5969 27.9018 54.5969 27.627C54.5969 27.3521 54.5379 27.0804 54.4237 26.8296C54.3095 26.5788 54.1427 26.3546 53.9343 26.1717C53.7259 25.9889 53.4805 25.8515 53.2144 25.7686C52.9482 25.6857 52.6673 25.6592 52.39 25.6908H47.6273Z" fill="#BDBDBD"/>
<path fill-rule="evenodd" clip-rule="evenodd" d="M60.6625 40.7771C60.9571 41.0435 60.981 41.4994 60.7159 41.7953L46.1845 58.0174C46.0528 58.1644 45.8668 58.2506 45.67 58.2558C45.4732 58.261 45.2829 58.1847 45.1437 58.0449L38.6853 51.5561C38.405 51.2745 38.405 50.818 38.6853 50.5364C38.9655 50.2549 39.4199 50.2549 39.7001 50.5364L45.6237 56.4879L59.6491 40.8307C59.9142 40.5347 60.368 40.5108 60.6625 40.7771Z" fill="#BDBDBD"/>
</svg>
