<svg width="290" height="172" viewBox="0 0 290 172" fill="none" xmlns="http://www.w3.org/2000/svg">
<rect width="290" height="172" rx="5" fill="#43B4E4"/>
<path d="M199 150.433C199 153.194 175.495 155.433 146.5 155.433C117.505 155.433 94 153.194 94 150.433C94 147.671 117.505 145.433 146.5 145.433C175.495 145.433 199 147.671 199 150.433Z" fill="#3A9AC2"/>
<path d="M133 121.594H133.296C133.664 121.597 134.02 121.465 134.299 121.222L167.54 116.364C167.617 116.573 167.744 116.76 167.908 116.909C168.058 117.07 168.244 117.192 168.451 117.266C168.657 117.339 168.878 117.361 169.094 117.329L170.577 114.146L171.645 102.133C174.878 99.6108 190.034 86.4271 189.44 67.9579C188.966 52.642 185.97 34.2929 170.014 27.8362C154.057 21.3795 133.534 24.4427 125.259 33.6622C116.984 42.8818 115.056 47.0562 113.603 53.4228C112.417 58.8284 104.379 75.9462 101.74 81.2317C100.99 82.3686 100.575 83.698 100.544 85.0645C100.512 86.4311 100.865 87.7785 101.562 88.9497C102.221 89.8815 103.13 90.6029 104.181 91.0286C105.232 91.4543 106.381 91.5666 107.493 91.3522L107.55 91.3465C109.601 91.1387 111.294 90.9672 111.764 91.5624C112.239 92.163 112.535 94.085 112.239 97.2683C111.705 103.545 113.01 107.989 115.501 109.731C117.993 111.473 121.433 111.653 125.971 109.972H126.356C128.543 109.036 130.806 108.293 133.118 107.749C133.07 108.999 132.931 110.244 132.703 111.473L131.695 119.912C131.653 120.309 131.766 120.707 132.009 121.022C132.253 121.336 132.609 121.541 133 121.594Z" fill="white"/>
<path d="M156.272 96.78H148.172C147.816 96.7764 147.473 96.6451 147.205 96.4101C146.937 96.175 146.763 95.8517 146.713 95.4988L145.879 89.212C143.892 88.6812 141.981 87.9003 140.191 86.8879L134.949 90.672C134.665 90.8749 134.318 90.9711 133.969 90.9439C133.621 90.9167 133.293 90.7677 133.043 90.523L127.385 84.8619C127.14 84.593 127.004 84.2424 127.004 83.8786C127.004 83.5149 127.14 83.1642 127.385 82.8954L131.227 77.86C130.153 75.9938 129.341 73.9886 128.814 71.9009L122.531 71.0964C122.17 71.0465 121.839 70.8685 121.599 70.5951C121.358 70.3217 121.224 69.9709 121.22 69.6067V61.7109C121.224 61.3467 121.358 60.9959 121.599 60.7225C121.839 60.449 122.17 60.2711 122.531 60.2211L128.814 59.3869C129.35 57.4105 130.131 55.5088 131.137 53.7258L127.236 48.4818C127.025 48.1945 126.924 47.8411 126.952 47.4858C126.979 47.1305 127.133 46.7967 127.385 46.5451L133.043 40.884C133.315 40.6451 133.664 40.5134 134.026 40.5134C134.388 40.5134 134.737 40.6451 135.009 40.884L140.012 44.7574C141.876 43.6738 143.88 42.8517 145.968 42.3141L146.802 36.0273C146.846 35.6719 147.019 35.3449 147.288 35.1087C147.557 34.8725 147.903 34.7434 148.261 34.7461H156.272C156.63 34.7434 156.977 34.8725 157.246 35.1087C157.515 35.3449 157.688 35.6719 157.732 36.0273L158.566 42.3141C160.654 42.8517 162.658 43.6738 164.522 44.7574L169.525 40.884C169.797 40.6451 170.146 40.5134 170.508 40.5134C170.87 40.5134 171.219 40.6451 171.491 40.884L177.119 46.5451C177.356 46.8121 177.486 47.1566 177.486 47.5134C177.486 47.8703 177.356 48.2147 177.119 48.4818L173.248 53.547C174.324 55.4119 175.136 57.4175 175.66 59.506L181.944 60.3403C182.304 60.3903 182.635 60.5682 182.876 60.8416C183.116 61.1151 183.25 61.4659 183.254 61.8301V69.8152C183.25 70.1795 183.116 70.5302 182.876 70.8037C182.635 71.0771 182.304 71.255 181.944 71.305L175.66 72.1095C175.143 74.1015 174.361 76.0155 173.337 77.8004L177.119 82.9252C177.336 83.2101 177.441 83.5648 177.413 83.9219C177.386 84.279 177.228 84.6135 176.97 84.8619L171.312 90.523C171.037 90.756 170.689 90.884 170.329 90.884C169.969 90.884 169.621 90.756 169.346 90.523L164.343 86.6496C162.473 87.7206 160.47 88.542 158.387 89.0928L157.553 95.3796C157.536 95.7256 157.398 96.0547 157.165 96.3102C156.931 96.5658 156.615 96.7319 156.272 96.78Z" fill="#79B0DE"/>
<path d="M153.936 92.6444H146.375C146.043 92.641 145.723 92.5185 145.473 92.2991C145.223 92.0797 145.06 91.778 145.013 91.4486L144.235 85.5809C142.381 85.0855 140.597 84.3567 138.926 83.4118L134.034 86.9436C133.768 87.133 133.444 87.2228 133.119 87.1974C132.794 87.172 132.488 87.0329 132.255 86.8045L126.974 81.5208C126.745 81.2699 126.619 80.9426 126.619 80.6031C126.619 80.2636 126.745 79.9364 126.974 79.6854L130.56 74.9857C129.557 73.244 128.8 71.3725 128.308 69.4239L122.443 68.6731C122.107 68.6264 121.798 68.4604 121.573 68.2052C121.349 67.95 121.224 67.6226 121.22 67.2826V59.9132C121.224 59.5733 121.349 59.2459 121.573 58.9907C121.798 58.7355 122.107 58.5694 122.443 58.5228L128.308 57.7442C128.808 55.8995 129.537 54.1246 130.476 52.4604L126.835 47.5661C126.638 47.298 126.544 46.9681 126.569 46.6365C126.595 46.3049 126.738 45.9933 126.974 45.7585L132.255 40.4748C132.509 40.2519 132.835 40.1289 133.172 40.1289C133.51 40.1289 133.836 40.2519 134.09 40.4748L138.759 44.0899C140.499 43.0786 142.37 42.3113 144.318 41.8096L145.097 35.9419C145.138 35.6102 145.299 35.305 145.55 35.0845C145.801 34.8641 146.125 34.7436 146.459 34.7461H153.936C154.27 34.7436 154.593 34.8641 154.844 35.0845C155.095 35.305 155.257 35.6102 155.298 35.9419L156.076 41.8096C158.025 42.3113 159.895 43.0786 161.635 44.0899L166.305 40.4748C166.558 40.2519 166.884 40.1289 167.222 40.1289C167.56 40.1289 167.886 40.2519 168.139 40.4748L173.393 45.7585C173.613 46.0077 173.735 46.3292 173.735 46.6623C173.735 46.9953 173.613 47.3168 173.393 47.5661L169.779 52.2936C170.784 54.0342 171.541 55.906 172.031 57.8554L177.895 58.634C178.232 58.6807 178.541 58.8467 178.765 59.1019C178.99 59.3572 179.115 59.6845 179.118 60.0245V67.4773C179.115 67.8172 178.99 68.1446 178.765 68.3998C178.541 68.655 178.232 68.8211 177.895 68.8677L172.031 69.6186C171.548 71.4778 170.819 73.2642 169.863 74.9301L173.393 79.7132C173.595 79.9791 173.693 80.3102 173.667 80.6435C173.642 80.9768 173.494 81.289 173.254 81.5208L167.972 86.8045C167.716 87.022 167.391 87.1414 167.055 87.1414C166.719 87.1414 166.394 87.022 166.138 86.8045L161.468 83.1894C159.723 84.1889 157.854 84.9556 155.909 85.4697L155.131 91.3374C155.115 91.6603 154.986 91.9674 154.768 92.206C154.55 92.4445 154.256 92.5995 153.936 92.6444Z" fill="white"/>
<circle cx="149.135" cy="62.6606" r="9.30508" fill="#79B0DE"/>
<circle cx="148.101" cy="61.6267" r="8.27119" fill="white"/>
<path d="M132.933 122.904H132.628C132.226 122.85 131.861 122.642 131.61 122.323C131.359 122.004 131.243 121.599 131.286 121.196L132.323 112.625C132.558 111.377 132.701 110.113 132.75 108.843C130.372 109.395 128.046 110.15 125.796 111.1H125.4C120.733 112.808 117.195 112.625 114.633 110.856C112.071 109.087 110.729 104.573 111.278 98.1987C111.583 94.9657 111.278 93.0137 110.79 92.4037C110.302 91.7937 108.533 91.9767 106.398 92.1902C105.255 92.408 104.073 92.2939 102.992 91.8616C101.911 91.4292 100.976 90.6966 100.298 89.7502C99.5825 88.5608 99.2196 87.1923 99.252 85.8044C99.2844 84.4165 99.7108 83.0664 100.481 81.9117C103.196 76.5437 111.461 59.1587 112.681 53.6687C114.176 47.2027 116.158 42.9632 124.668 33.5997C133.177 24.2362 154.283 21.1252 170.692 27.6827C187.101 34.2402 190.182 52.8757 190.67 68.4307C191.28 87.1882 175.694 100.578 172.37 103.14L171.272 115.34L178.866 114.455C179.067 114.433 179.269 114.451 179.463 114.507C179.656 114.563 179.837 114.657 179.994 114.783C180.151 114.909 180.282 115.065 180.379 115.242C180.476 115.418 180.537 115.612 180.559 115.812C180.581 116.013 180.564 116.215 180.507 116.409C180.451 116.602 180.357 116.783 180.231 116.94C180.105 117.097 179.949 117.228 179.773 117.325C179.596 117.422 179.402 117.483 179.202 117.505L169.747 118.573C169.524 118.605 169.297 118.582 169.085 118.508C168.873 118.434 168.681 118.309 168.527 118.146C168.358 117.994 168.228 117.805 168.148 117.592C168.068 117.38 168.041 117.151 168.069 116.926L169.381 102.286C169.44 101.856 169.658 101.465 169.991 101.188C170.174 101.188 188.108 87.4627 187.528 68.6137C186.949 46.8367 181.367 35.1247 169.533 30.5192C154.283 24.6327 134.885 26.9507 127.047 35.6432C118.629 44.9152 117.104 48.5752 115.792 54.3702C114.328 60.7752 105.056 79.8072 103.287 83.2842C102.819 83.9711 102.537 84.7674 102.467 85.5958C102.398 86.4242 102.544 87.2564 102.891 88.0117C103.274 88.4702 103.774 88.817 104.337 89.0156C104.901 89.2142 105.508 89.2572 106.093 89.1402C108.808 88.8657 111.37 88.6217 113.017 90.2382C114.664 91.8547 114.816 93.9287 114.42 98.4732C113.962 103.567 114.725 107.013 116.585 108.416C118.446 109.819 120.733 109.575 124.363 108.264L124.729 108.111C131.073 105.763 133.238 105.061 134.794 106.251C136.349 107.44 135.892 109.301 135.343 112.991V113.937L134.489 121.562C134.437 121.936 134.251 122.279 133.964 122.526C133.678 122.773 133.312 122.907 132.933 122.904V122.904Z" fill="#333333"/>
<path d="M124.363 124.124C124.001 124.127 123.65 124 123.375 123.764C123.1 123.528 122.92 123.201 122.868 122.843C122.838 122.644 122.847 122.442 122.895 122.247C122.943 122.053 123.029 121.869 123.148 121.708C123.267 121.546 123.417 121.41 123.589 121.306C123.761 121.203 123.951 121.134 124.149 121.104L141.016 118.725C141.215 118.691 141.419 118.697 141.615 118.743C141.811 118.789 141.996 118.875 142.159 118.994C142.321 119.114 142.458 119.266 142.56 119.439C142.663 119.613 142.729 119.806 142.754 120.006C142.808 120.406 142.704 120.81 142.465 121.134C142.226 121.458 141.871 121.677 141.473 121.745L124.607 124.215L124.363 124.124Z" fill="#333333"/>
<path d="M150.105 74.3479C147.513 74.3614 144.995 73.4794 142.978 71.8512C140.961 70.223 139.567 67.9482 139.033 65.4114C138.993 65.2152 138.992 65.0129 139.03 64.8163C139.069 64.6196 139.145 64.4324 139.255 64.2653C139.366 64.0982 139.508 63.9545 139.674 63.8424C139.84 63.7303 140.027 63.652 140.223 63.6119C140.42 63.5675 140.623 63.5634 140.821 63.5996C141.019 63.6359 141.208 63.7119 141.376 63.823C141.544 63.9341 141.688 64.078 141.799 64.2462C141.91 64.4143 141.986 64.6032 142.022 64.8014C142.334 66.309 143.066 67.6975 144.134 68.8059C145.203 69.9142 146.563 70.6971 148.058 71.0637C149.554 71.4302 151.122 71.3655 152.582 70.877C154.042 70.3886 155.333 69.4963 156.307 68.3037C157.28 67.1111 157.895 65.667 158.081 64.1389C158.268 62.6108 158.017 61.0613 157.358 59.6699C156.699 58.2785 155.66 57.1024 154.36 56.2778C153.06 55.4532 151.553 55.0139 150.013 55.0109C148.391 55.0065 146.806 55.4959 145.469 56.4139C145.128 56.6363 144.713 56.7161 144.314 56.6363C143.915 56.5564 143.563 56.3233 143.334 55.9869C143.113 55.6507 143.034 55.2409 143.114 54.8468C143.194 54.4526 143.427 54.106 143.761 53.8824C145.56 52.6542 147.683 51.9856 149.861 51.9609C152.83 51.9609 155.677 53.1403 157.776 55.2394C159.875 57.3386 161.054 60.1857 161.054 63.1544C161.054 66.1231 159.875 68.9703 157.776 71.0694C155.677 73.1686 152.83 74.3479 149.861 74.3479H150.105Z" fill="#333333"/>
<path d="M154.283 94.9659H145.987C145.623 94.9622 145.271 94.8278 144.997 94.5872C144.723 94.3466 144.544 94.0156 144.493 93.6544L143.639 87.2189C141.604 86.6756 139.647 85.8762 137.813 84.8399L132.445 88.7134C132.154 88.9211 131.799 89.0197 131.442 88.9918C131.085 88.9639 130.749 88.8114 130.493 88.5609L124.698 82.7659C124.448 82.4907 124.309 82.1317 124.309 81.7594C124.309 81.3871 124.448 81.0281 124.698 80.7529L128.633 75.5984C127.533 73.6881 126.702 71.6355 126.162 69.4984L119.727 68.6749C119.358 68.6237 119.019 68.4416 118.773 68.1617C118.526 67.8818 118.389 67.5227 118.385 67.1499V59.0674C118.389 58.6946 118.526 58.3355 118.773 58.0556C119.019 57.7757 119.358 57.5935 119.727 57.5424L126.162 56.6884C126.711 54.6653 127.51 52.7186 128.541 50.8934L124.546 45.5254C124.33 45.2313 124.227 44.8696 124.255 44.5059C124.283 44.1421 124.44 43.8005 124.698 43.5429L130.493 37.7479C130.772 37.5034 131.13 37.3686 131.5 37.3686C131.87 37.3686 132.228 37.5034 132.506 37.7479L137.63 41.7129C139.54 40.6037 141.592 39.7621 143.73 39.2119L144.584 32.7764C144.629 32.4125 144.806 32.0779 145.082 31.836C145.358 31.5942 145.712 31.4621 146.079 31.4649H154.283C154.65 31.4621 155.005 31.5942 155.28 31.836C155.556 32.0779 155.733 32.4125 155.778 32.7764L156.632 39.2119C158.77 39.7621 160.823 40.6037 162.732 41.7129L167.856 37.7479C168.134 37.5034 168.492 37.3686 168.862 37.3686C169.233 37.3686 169.591 37.5034 169.869 37.7479L175.633 43.5429C175.876 43.8162 176.01 44.1689 176.01 44.5341C176.01 44.8994 175.876 45.252 175.633 45.5254L171.668 50.7104C172.771 52.6194 173.602 54.6724 174.139 56.8104L180.574 57.6644C180.944 57.7155 181.282 57.8977 181.529 58.1776C181.775 58.4575 181.913 58.8166 181.916 59.1894V67.3634C181.913 67.7362 181.775 68.0953 181.529 68.3752C181.282 68.6551 180.944 68.8372 180.574 68.8884L174.139 69.7119C173.609 71.7511 172.809 73.7103 171.76 75.5374L175.633 80.7834C175.856 81.075 175.963 81.4381 175.935 81.8037C175.907 82.1692 175.745 82.5117 175.481 82.7659L169.686 88.5609C169.405 88.7995 169.048 88.9304 168.679 88.9304C168.311 88.9304 167.954 88.7995 167.673 88.5609L162.549 84.5959C160.634 85.6922 158.583 86.533 156.449 87.0969L155.595 93.5324C155.577 93.8865 155.436 94.2234 155.197 94.485C154.958 94.7467 154.635 94.9167 154.283 94.9659ZM147.421 91.9159H152.941L153.734 85.8159C153.784 85.5053 153.922 85.2157 154.134 84.9828C154.345 84.7498 154.62 84.5836 154.924 84.5044C157.4 83.9597 159.764 82.9897 161.908 81.6374C162.167 81.4535 162.476 81.3547 162.793 81.3547C163.11 81.3547 163.419 81.4535 163.677 81.6374L168.588 85.4194L172.492 81.4849L168.801 76.3609C168.631 76.1087 168.54 75.8113 168.54 75.5069C168.54 75.2025 168.631 74.9051 168.801 74.6529C170.118 72.566 171.058 70.2637 171.577 67.8514C171.654 67.6201 171.786 67.4107 171.961 67.2409C172.137 67.071 172.35 66.9457 172.583 66.8754L178.683 66.0519V60.5619L172.583 59.7384C172.275 59.6913 171.988 59.5527 171.76 59.3406C171.532 59.1285 171.372 58.8527 171.302 58.5489C170.749 56.0703 169.768 53.7069 168.405 51.5644C168.228 51.3091 168.133 51.0058 168.133 50.6951C168.133 50.3844 168.228 50.0812 168.405 49.8259L172.156 44.9154L168.496 40.8589L163.586 44.6409C163.328 44.8248 163.019 44.9236 162.701 44.9236C162.384 44.9236 162.075 44.8248 161.817 44.6409C159.688 43.2182 157.323 42.1854 154.832 41.5909C154.527 41.5251 154.249 41.3669 154.036 41.1377C153.823 40.9086 153.686 40.6196 153.643 40.3099L152.85 34.2099H147.329L146.536 40.3099C146.498 40.6212 146.362 40.9125 146.149 41.1424C145.935 41.3724 145.655 41.5293 145.347 41.5909C142.858 42.1915 140.494 43.2238 138.362 44.6409C138.111 44.8267 137.806 44.9269 137.493 44.9269C137.18 44.9269 136.876 44.8267 136.624 44.6409L131.713 40.8589L127.779 44.7934L131.469 49.9174C131.641 50.1633 131.734 50.4561 131.734 50.7561C131.734 51.0562 131.641 51.349 131.469 51.5949C130.171 53.6909 129.232 55.99 128.694 58.3964C128.628 58.7021 128.47 58.9801 128.241 59.1929C128.012 59.4057 127.723 59.5429 127.413 59.5859L121.313 60.4094V65.8994L127.413 66.7229C127.72 66.7597 128.008 66.891 128.238 67.0986C128.467 67.3062 128.627 67.5799 128.694 67.8819C129.241 70.372 130.222 72.7465 131.591 74.8969C131.769 75.1522 131.863 75.4555 131.863 75.7661C131.863 76.0768 131.769 76.3801 131.591 76.6354L127.809 81.5459L131.713 85.4804L136.837 81.7594C137.093 81.5964 137.389 81.5098 137.691 81.5098C137.994 81.5098 138.29 81.5964 138.545 81.7594C140.635 83.0706 142.936 84.0096 145.347 84.5349C145.655 84.6066 145.934 84.7706 146.147 85.0049C146.359 85.2392 146.495 85.5328 146.536 85.8464L147.421 91.9159Z" fill="#333333"/>
</svg>
