<svg width="24" height="24" viewBox="0 0 24 24" fill="none" xmlns="http://www.w3.org/2000/svg">
<path fill-rule="evenodd" clip-rule="evenodd" d="M3.28314 2.083C3.21739 2.15081 3.15191 2.28487 3.15191 2.55614V21.1787C3.15191 21.4232 3.21318 21.5509 3.27734 21.6175C3.33901 21.6816 3.45926 21.7475 3.70679 21.7475H19.8518C20.156 21.7475 20.2743 21.6852 20.3258 21.6343C20.3765 21.5841 20.4425 21.4652 20.4425 21.1509V8.16162L14.2192 1.95098H3.73328C3.47171 1.95098 3.34678 2.01736 3.28314 2.083ZM2.74343 1.55968C2.99749 1.29765 3.35119 1.19922 3.73328 1.19922H14.3747C14.4742 1.19922 14.5697 1.23872 14.6402 1.30904L21.0839 7.73964C21.1546 7.81015 21.1943 7.90588 21.1943 8.0057V21.1509C21.1943 21.5415 21.1171 21.9088 20.8546 22.1686C20.5928 22.4277 20.2279 22.4992 19.8518 22.4992H3.70679C3.32784 22.4992 2.98271 22.3956 2.73562 22.1388C2.49102 21.8846 2.40015 21.5399 2.40015 21.1787V2.55614C2.40015 2.176 2.49147 1.81954 2.74343 1.55968Z" fill="#333333"/>
<path fill-rule="evenodd" clip-rule="evenodd" d="M13.9268 8.09147V1.57617H14.6785V7.71558H20.8179V8.46735H14.3026C14.095 8.46735 13.9268 8.29906 13.9268 8.09147Z" fill="#333333"/>
<path fill-rule="evenodd" clip-rule="evenodd" d="M6.15869 17.1122C6.15869 16.9046 6.32698 16.7363 6.53457 16.7363H16.8087C17.0163 16.7363 17.1846 16.9046 17.1846 17.1122C17.1846 17.3198 17.0163 17.4881 16.8087 17.4881H6.53457C6.32698 17.4881 6.15869 17.3198 6.15869 17.1122Z" fill="#333333"/>
<path fill-rule="evenodd" clip-rule="evenodd" d="M6.15869 19.6181C6.15869 19.4105 6.32698 19.2422 6.53457 19.2422H16.8087C17.0163 19.2422 17.1846 19.4105 17.1846 19.6181C17.1846 19.8257 17.0163 19.994 16.8087 19.994H6.53457C6.32698 19.994 6.15869 19.8257 6.15869 19.6181Z" fill="#333333"/>
<path fill-rule="evenodd" clip-rule="evenodd" d="M6.15869 10.4707H17.1846V14.7307H6.15869V10.4707ZM6.91046 11.2225V13.9789H16.4328V11.2225H6.91046Z" fill="#333333"/>
<path fill-rule="evenodd" clip-rule="evenodd" d="M8.91516 4.45684C7.80799 4.45684 6.91046 5.35438 6.91046 6.46155C6.91046 7.56872 7.80799 8.46625 8.91516 8.46625C10.0223 8.46625 10.9199 7.56872 10.9199 6.46155C10.9199 5.35438 10.0223 4.45684 8.91516 4.45684ZM6.15869 6.46155C6.15869 4.93919 7.39281 3.70508 8.91516 3.70508C10.4375 3.70508 11.6716 4.93919 11.6716 6.46155C11.6716 7.98391 10.4375 9.21802 8.91516 9.21802C7.39281 9.21802 6.15869 7.98391 6.15869 6.46155Z" fill="#333333"/>
<path fill-rule="evenodd" clip-rule="evenodd" d="M9.04068 8.4668C9.24827 8.4668 9.41656 8.63509 9.41656 8.84268V10.8474C9.41656 11.055 9.24827 11.2233 9.04068 11.2233C8.83308 11.2233 8.66479 11.055 8.66479 10.8474V8.84268C8.66479 8.63509 8.83308 8.4668 9.04068 8.4668Z" fill="#333333"/>
<path fill-rule="evenodd" clip-rule="evenodd" d="M9.98281 5.9215C10.0729 6.02657 10.0607 6.18477 9.95563 6.27484L8.78622 7.27719C8.69238 7.35763 8.5539 7.35763 8.46006 7.27719L7.87535 6.77601C7.77028 6.68595 7.75811 6.52775 7.84817 6.42267C7.93824 6.31759 8.09644 6.30543 8.20152 6.39549L8.62314 6.75689L9.62947 5.89432C9.73455 5.80425 9.89275 5.81642 9.98281 5.9215Z" fill="#333333"/>
</svg>
