<svg width="24" height="24" viewBox="0 0 24 24" fill="none" xmlns="http://www.w3.org/2000/svg">
<path fill-rule="evenodd" clip-rule="evenodd" d="M4.01257 2.81512C3.93055 2.90029 3.86683 3.05099 3.86683 3.31681V20.7168C3.86683 20.9584 3.92715 21.1022 4.00708 21.1857C4.08504 21.2671 4.22177 21.3328 4.46683 21.3328H19.4988C19.7904 21.3328 19.9282 21.2735 19.9996 21.2026C20.0707 21.132 20.1335 20.9926 20.1335 20.6901V8.51783L14.2896 2.66615H4.49083C4.23405 2.66615 4.09277 2.73185 4.01257 2.81512ZM3.62842 2.44517C3.84355 2.22178 4.14761 2.13281 4.49083 2.13281H14.4002C14.4709 2.13281 14.5388 2.16096 14.5888 2.21104L20.5888 8.21904C20.6388 8.26904 20.6668 8.33682 20.6668 8.40748V20.6901C20.6668 21.0463 20.5963 21.3616 20.3754 21.581C20.1548 21.8001 19.8419 21.8661 19.4988 21.8661H4.46683C4.12789 21.8661 3.83129 21.7732 3.62191 21.5546C3.4145 21.338 3.3335 21.0406 3.3335 20.7168V3.31681C3.3335 2.97464 3.41511 2.66667 3.62842 2.44517Z" fill="#333333"/>
<path fill-rule="evenodd" clip-rule="evenodd" d="M14.1333 8.40039V2.40039H14.6666V8.13372H20.4V8.66706H14.4C14.2527 8.66706 14.1333 8.54767 14.1333 8.40039Z" fill="#333333"/>
<path fill-rule="evenodd" clip-rule="evenodd" d="M6.93359 12.5987C6.93359 12.4514 7.05298 12.332 7.20026 12.332H16.8003C16.9475 12.332 17.0669 12.4514 17.0669 12.5987C17.0669 12.746 16.9475 12.8654 16.8003 12.8654H7.20026C7.05298 12.8654 6.93359 12.746 6.93359 12.5987Z" fill="#333333"/>
<path fill-rule="evenodd" clip-rule="evenodd" d="M6.93359 14.9991C6.93359 14.8518 7.05298 14.7324 7.20026 14.7324H16.8003C16.9475 14.7324 17.0669 14.8518 17.0669 14.9991C17.0669 15.1464 16.9475 15.2658 16.8003 15.2658H7.20026C7.05298 15.2658 6.93359 15.1464 6.93359 14.9991Z" fill="#333333"/>
<path fill-rule="evenodd" clip-rule="evenodd" d="M6.93359 17.3995C6.93359 17.2522 7.05298 17.1328 7.20026 17.1328H16.8003C16.9475 17.1328 17.0669 17.2522 17.0669 17.3995C17.0669 17.5468 16.9475 17.6661 16.8003 17.6661H7.20026C7.05298 17.6661 6.93359 17.5468 6.93359 17.3995Z" fill="#333333"/>
</svg>
