<svg width="39" height="39" viewBox="0 0 39 39" fill="none" xmlns="http://www.w3.org/2000/svg">
<path fill-rule="evenodd" clip-rule="evenodd" d="M6.95208 6.43061H32.4796C32.8472 6.42096 33.2129 6.48761 33.5547 6.62656C33.8984 6.76629 34.2107 6.97621 34.4727 7.24353C34.7346 7.51085 34.9407 7.82998 35.0783 8.18149C35.2153 8.53128 35.2817 8.90585 35.2735 9.2826V25.7384C35.283 26.1158 35.2176 26.4912 35.0813 26.842C34.9443 27.1947 34.7384 27.5151 34.4763 27.7835C34.2142 28.0519 33.9014 28.2628 33.557 28.4031C33.2146 28.5427 32.848 28.6096 32.4796 28.5999H6.95205C6.58447 28.6096 6.21877 28.5429 5.87697 28.404C5.53327 28.2643 5.22093 28.0543 4.95898 27.787C4.69704 27.5197 4.49095 27.2006 4.35329 26.8491C4.2163 26.4993 4.14991 26.1247 4.15813 25.7479V9.29208C4.14865 8.91474 4.21402 8.53933 4.35031 8.18857C4.48735 7.83586 4.69321 7.51548 4.95531 7.24705C5.2174 6.97863 5.53021 6.76779 5.87461 6.62743C6.21709 6.48786 6.58364 6.42091 6.95208 6.43061ZM32.4852 6.86394V7.29728H6.94641C6.94247 7.29728 6.93852 7.29722 6.93458 7.29711C6.67913 7.28979 6.42491 7.33592 6.18748 7.43269C5.95004 7.52945 5.73437 7.67482 5.55367 7.85988C5.37297 8.04495 5.23104 8.26582 5.13656 8.509C5.04208 8.75218 4.99703 9.01254 5.00418 9.27416C5.00429 9.2782 5.00434 9.28224 5.00434 9.28628V25.7529L5.00422 25.7635C4.99803 26.0245 5.04378 26.2841 5.13869 26.5264C5.2336 26.7688 5.37568 26.9888 5.55628 27.1731C5.73688 27.3574 5.95221 27.5021 6.18918 27.5985C6.42614 27.6948 6.67977 27.7407 6.93462 27.7334C6.93855 27.7333 6.94248 27.7333 6.94641 27.7333H32.4852C32.487 27.7333 32.4888 27.7333 32.4906 27.7333C32.4927 27.7333 32.4949 27.7334 32.4971 27.7334C32.7525 27.7408 33.0067 27.6946 33.2442 27.5979C33.4816 27.5011 33.6973 27.3557 33.878 27.1707C34.0587 26.9856 34.2006 26.7647 34.2951 26.5216C34.3896 26.2784 34.4346 26.018 34.4275 25.7564C34.4273 25.7524 34.4273 25.7483 34.4273 25.7443V9.27761L34.4274 9.26709C34.4336 9.00605 34.3879 8.74646 34.293 8.50412C34.198 8.26178 34.056 8.04175 33.8754 7.85745C33.6948 7.67315 33.4794 7.52842 33.2425 7.43209C33.0055 7.33576 32.7519 7.28983 32.497 7.29711L32.4852 6.86394Z" fill="#333333"/>
<path fill-rule="evenodd" clip-rule="evenodd" d="M11.7275 32.1365C11.7275 31.8971 11.917 31.7031 12.1506 31.7031H27.281C27.5147 31.7031 27.7041 31.8971 27.7041 32.1365C27.7041 32.3758 27.5147 32.5698 27.281 32.5698H12.1506C11.917 32.5698 11.7275 32.3758 11.7275 32.1365Z" fill="#333333"/>
<path fill-rule="evenodd" clip-rule="evenodd" d="M24.4461 27.7422C24.6797 27.7422 24.8692 27.9362 24.8692 28.1755V32.1362C24.8692 32.3755 24.6797 32.5695 24.4461 32.5695C24.2124 32.5695 24.0229 32.3755 24.0229 32.1362V28.1755C24.0229 27.9362 24.2124 27.7422 24.4461 27.7422Z" fill="#333333"/>
<path fill-rule="evenodd" clip-rule="evenodd" d="M14.9856 27.7422C15.2193 27.7422 15.4087 27.9362 15.4087 28.1755V32.1362C15.4087 32.3755 15.2193 32.5695 14.9856 32.5695C14.7519 32.5695 14.5625 32.3755 14.5625 32.1362V28.1755C14.5625 27.9362 14.7519 27.7422 14.9856 27.7422Z" fill="#333333"/>
<path fill-rule="evenodd" clip-rule="evenodd" d="M4.1582 24.7829C4.1582 24.5436 4.34764 24.3496 4.58131 24.3496H34.8505C35.0842 24.3496 35.2736 24.5436 35.2736 24.7829C35.2736 25.0223 35.0842 25.2163 34.8505 25.2163H4.58131C4.34764 25.2163 4.1582 25.0223 4.1582 24.7829Z" fill="#333333"/>
<path fill-rule="evenodd" clip-rule="evenodd" d="M16.7669 11.0932C14.8437 11.0932 13.2847 12.6899 13.2847 14.6596C13.2847 16.6292 14.8437 18.2259 16.7669 18.2259C18.69 18.2259 20.2491 16.6292 20.2491 14.6596C20.2491 12.6899 18.69 11.0932 16.7669 11.0932ZM12.4385 14.6596C12.4385 12.2113 14.3764 10.2266 16.7669 10.2266C19.1574 10.2266 21.0953 12.2113 21.0953 14.6596C21.0953 17.1078 19.1574 19.0926 16.7669 19.0926C14.3764 19.0926 12.4385 17.1078 12.4385 14.6596Z" fill="#333333"/>
<path fill-rule="evenodd" clip-rule="evenodd" d="M25.329 16.583C25.7379 16.312 26.2353 16.2185 26.7116 16.323C27.1879 16.4275 27.6042 16.7216 27.8688 17.1404C28.1334 17.5593 28.2248 18.0687 28.1227 18.5565C28.0218 19.0386 27.7402 19.4606 27.3389 19.7321L20.9323 24.7234C20.7463 24.8683 20.4809 24.8314 20.3394 24.6409C20.1979 24.4504 20.234 24.1785 20.42 24.0336L26.8385 19.033C26.8471 19.0263 26.8558 19.02 26.8648 19.014C27.0854 18.8679 27.2402 18.638 27.2953 18.3749C27.3503 18.1118 27.3011 17.8371 27.1583 17.6113C27.0156 17.3854 26.7912 17.2268 26.5343 17.1704C26.279 17.1144 26.0126 17.1639 25.7928 17.3079L20.9149 20.7236C20.8446 20.7728 20.7614 20.7992 20.6761 20.7992H12.8613C12.8569 20.7992 12.8524 20.7991 12.8479 20.799C12.758 20.7961 12.6684 20.812 12.5847 20.8458C12.501 20.8797 12.425 20.9307 12.3612 20.9957C12.2975 21.0608 12.2474 21.1385 12.214 21.2241C12.1807 21.3097 12.1648 21.4013 12.1673 21.4935C12.1674 21.4975 12.1674 21.5015 12.1674 21.5055V24.3655C12.1674 24.6048 11.978 24.7989 11.7443 24.7989C11.5107 24.7989 11.3212 24.6048 11.3212 24.3655V21.5111C11.3164 21.303 11.3528 21.0961 11.4281 20.9028C11.5042 20.7075 11.6185 20.5302 11.764 20.3817C11.9095 20.2333 12.0831 20.1169 12.2741 20.0397C12.4628 19.9634 12.6647 19.9269 12.8675 19.9325H20.5453L25.32 16.5891C25.323 16.5871 25.326 16.585 25.329 16.583Z" fill="#333333"/>
<path fill-rule="evenodd" clip-rule="evenodd" d="M22.4829 11.8044C22.4829 11.5651 22.6723 11.3711 22.906 11.3711H29.6081C29.8417 11.3711 30.0312 11.5651 30.0312 11.8044C30.0312 12.0438 29.8417 12.2378 29.6081 12.2378H22.906C22.6723 12.2378 22.4829 12.0438 22.4829 11.8044Z" fill="#333333"/>
<path fill-rule="evenodd" clip-rule="evenodd" d="M22.4829 14.0876C22.4829 13.8483 22.6723 13.6543 22.906 13.6543H27.9325C28.1662 13.6543 28.3557 13.8483 28.3557 14.0876C28.3557 14.327 28.1662 14.521 27.9325 14.521H22.906C22.6723 14.521 22.4829 14.327 22.4829 14.0876Z" fill="#333333"/>
<path fill-rule="evenodd" clip-rule="evenodd" d="M29.949 15.5482C30.0872 15.7412 30.0465 16.0124 29.8581 16.1539L27.7637 17.7269C27.5752 17.8684 27.3105 17.8267 27.1723 17.6337C27.0341 17.4407 27.0748 17.1695 27.2633 17.028L29.3576 15.455C29.5461 15.3135 29.8109 15.3552 29.949 15.5482Z" fill="#333333"/>
</svg>
