<svg width="26" height="21" viewBox="0 0 26 21" fill="none" xmlns="http://www.w3.org/2000/svg">
<path d="M11.1474 7.76623C11.3671 7.61407 11.6343 7.56156 11.8902 7.62025C12.1461 7.67893 12.3697 7.84401 12.5119 8.07916C12.654 8.3143 12.7031 8.60027 12.6482 8.87413C12.5941 9.14478 12.3809 9.38287 12.1653 9.53525L8.77238 12.0438C8.67247 12.1252 8.33842 12.1543 8.20688 12.1543L3.56982 12.1579C3.44429 12.1579 3.34253 12.0489 3.34253 11.9146L3.34385 10.5293C3.34127 10.4126 3.3608 10.2964 3.40127 10.1879C3.44215 10.0782 3.50356 9.97867 3.58171 9.89534C3.65986 9.81201 3.75311 9.74667 3.85572 9.70332C3.95712 9.66048 4.06555 9.64002 4.1745 9.64315L8.54617 9.64571L10.9212 7.93532C10.9785 7.87641 11.1458 7.76735 11.1474 7.76623Z" fill="#828282"/>
<path d="M10.9203 7.54174C11.14 7.38959 11.4072 7.33707 11.663 7.39576C11.9189 7.45445 12.1425 7.61952 12.2847 7.85467C12.4268 8.08982 12.4759 8.37578 12.4211 8.64964C12.3669 8.9203 12.1538 9.04079 11.9382 9.19317L8.319 11.9298C8.21909 12.0112 8.03726 12.1689 7.96126 12.0619L3.34398 12.1506C3.21844 12.1506 3.11668 12.0417 3.11668 11.9074V10.3049C3.1141 10.1881 3.13363 10.0719 3.17409 9.96339C3.21498 9.85373 3.27639 9.75418 3.35454 9.67086C3.43269 9.58753 3.52594 9.52218 3.62855 9.47883C3.72995 9.436 3.83838 9.41554 3.94733 9.41867L8.319 9.42123L10.6941 7.71083C10.7513 7.65192 10.9187 7.54286 10.9203 7.54174Z" fill="white"/>
<ellipse cx="6.3968" cy="6.798" rx="2.37508" ry="2.39455" fill="#828282"/>
<ellipse cx="6.17061" cy="6.34106" rx="2.14888" ry="2.1665" fill="white"/>
<path fill-rule="evenodd" clip-rule="evenodd" d="M6.1054 4.4646C5.02896 4.4646 4.15632 5.34439 4.15632 6.42966C4.15632 7.51494 5.02896 8.39473 6.1054 8.39473C7.18185 8.39473 8.05449 7.51494 8.05449 6.42966C8.05449 5.34439 7.18185 4.4646 6.1054 4.4646ZM3.68267 6.42966C3.68267 5.08065 4.76736 3.98706 6.1054 3.98706C7.44344 3.98706 8.52814 5.08065 8.52814 6.42966C8.52814 7.77868 7.44344 8.87227 6.1054 8.87227C4.76736 8.87227 3.68267 7.77868 3.68267 6.42966ZM10.8974 7.48929C11.1263 7.33995 11.4047 7.28841 11.6713 7.34601C11.855 7.38569 12.0227 7.47493 12.1577 7.60208L13.152 6.86698C13.2575 6.789 13.4057 6.81198 13.483 6.91832C13.5604 7.02466 13.5376 7.17408 13.4321 7.25207L12.4202 8.00018C12.4873 8.18311 12.5023 8.38297 12.4612 8.57667C12.4047 8.84231 12.2471 9.07485 12.0224 9.22441L8.43649 11.9747C8.33239 12.0545 8.18381 12.0341 8.10462 11.9292C8.02543 11.8242 8.04562 11.6744 8.14972 11.5946L11.7424 8.83921C11.7472 8.83555 11.7521 8.83207 11.7571 8.82878C11.8806 8.74825 11.9672 8.62157 11.998 8.47661C12.028 8.33567 12.0027 8.18867 11.9279 8.06623C11.923 8.05938 11.9185 8.05236 11.9144 8.04519C11.8343 7.9264 11.7117 7.84312 11.5721 7.81295C11.4292 7.78208 11.2801 7.80933 11.1571 7.88871L8.42677 9.77074C8.3874 9.79788 8.34081 9.8124 8.29311 9.8124H3.91892L3.91143 9.81228C3.86109 9.81068 3.81095 9.81947 3.7641 9.83811C3.71726 9.85675 3.67468 9.88486 3.639 9.9207C3.60332 9.95654 3.57528 9.99935 3.55661 10.0465C3.53794 10.0937 3.52903 10.1442 3.53044 10.1949L3.53053 10.2016V11.7775C3.53053 11.9093 3.4245 12.0162 3.2937 12.0162C3.16291 12.0162 3.05688 11.9093 3.05688 11.7775V10.2046C3.05419 10.09 3.07453 9.97602 3.1167 9.86951C3.1593 9.76188 3.22328 9.66417 3.30471 9.58239C3.38614 9.5006 3.4833 9.43646 3.59021 9.39392C3.69586 9.35188 3.80884 9.3318 3.92236 9.33487H8.21989L10.8924 7.49265L10.8974 7.48929ZM9.54079 4.61741C9.41 4.61741 9.30397 4.72431 9.30397 4.85617C9.30397 4.98804 9.41 5.09494 9.54079 5.09494H13.2921C13.4229 5.09494 13.529 4.98804 13.529 4.85617C13.529 4.72431 13.4229 4.61741 13.2921 4.61741H9.54079ZM9.30397 6.11399C9.30397 5.98212 9.41 5.87522 9.54079 5.87522H12.3543C12.4851 5.87522 12.5911 5.98212 12.5911 6.11399C12.5911 6.24586 12.4851 6.35276 12.3543 6.35276H9.54079C9.41 6.35276 9.30397 6.24586 9.30397 6.11399Z" fill="#333333"/>
<rect x="0.265109" y="0.265109" width="15.6803" height="11.6096" rx="0.618587" stroke="#333333" stroke-width="0.530217"/>
<line y1="1.90945" x2="16.2105" y2="1.90945" stroke="#333333" stroke-width="0.530217"/>
<path d="M15.0749 1.0577C15.0749 1.18207 14.9752 1.28178 14.8535 1.28178C14.7318 1.28178 14.6321 1.18207 14.6321 1.0577C14.6321 0.933323 14.7318 0.833618 14.8535 0.833618C14.9752 0.833618 15.0749 0.933323 15.0749 1.0577Z" stroke="#333333" stroke-width="0.144531"/>
<path d="M13.9006 1.0577C13.9006 1.18207 13.8008 1.28178 13.6792 1.28178C13.5575 1.28178 13.4578 1.18207 13.4578 1.0577C13.4578 0.933323 13.5575 0.833618 13.6792 0.833618C13.8008 0.833618 13.9006 0.933323 13.9006 1.0577Z" stroke="#333333" stroke-width="0.144531"/>
<path d="M12.7248 1.0577C12.7248 1.18207 12.6251 1.28178 12.5034 1.28178C12.3817 1.28178 12.282 1.18207 12.282 1.0577C12.282 0.933323 12.3817 0.833618 12.5034 0.833618C12.6251 0.833618 12.7248 0.933323 12.7248 1.0577Z" stroke="#333333" stroke-width="0.144531"/>
<rect x="8.84253" y="8.1051" width="16.2105" height="12.1579" rx="0.906661" fill="white"/>
<rect x="9.85134" y="9.11392" width="15.6665" height="11.6139" rx="0.634663" stroke="#333333" stroke-width="0.543997"/>
<line x1="9.57935" y1="10.7474" x2="25.7899" y2="10.7474" stroke="#333333" stroke-width="0.543997"/>
<path d="M24.6524 9.89985C24.6524 10.0234 24.5534 10.1223 24.4328 10.1223C24.3123 10.1223 24.2133 10.0234 24.2133 9.89985C24.2133 9.77631 24.3123 9.67741 24.4328 9.67741C24.5534 9.67741 24.6524 9.77631 24.6524 9.89985Z" stroke="#333333" stroke-width="0.148287"/>
<path d="M23.4766 9.89985C23.4766 10.0234 23.3776 10.1223 23.2571 10.1223C23.1365 10.1223 23.0375 10.0234 23.0375 9.89985C23.0375 9.77631 23.1365 9.67741 23.2571 9.67741C23.3776 9.67741 23.4766 9.77631 23.4766 9.89985Z" stroke="#333333" stroke-width="0.148287"/>
<path d="M22.3023 9.89985C22.3023 10.0234 22.2033 10.1223 22.0827 10.1223C21.9622 10.1223 21.8632 10.0234 21.8632 9.89985C21.8632 9.77631 21.9622 9.67741 22.0827 9.67741C22.2033 9.67741 22.3023 9.77631 22.3023 9.89985Z" stroke="#333333" stroke-width="0.148287"/>
<path d="M20.5629 15.5407L16.438 17.9474C16.4134 17.9618 16.3826 17.9441 16.3826 17.9156L16.3826 13.1021C16.3826 13.0737 16.4134 13.0559 16.438 13.0703L20.5629 15.477C20.5873 15.4912 20.5873 15.5265 20.5629 15.5407Z" stroke="#92C83E" stroke-width="0.543997"/>
<path d="M20.383 15.3594L16.2581 17.7662C16.2335 17.7805 16.2026 17.7628 16.2026 17.7343L16.2026 12.9208C16.2026 12.8924 16.2335 12.8746 16.2581 12.889L20.383 15.2957C20.4074 15.31 20.4074 15.3452 20.383 15.3594Z" fill="white" stroke="#333333" stroke-width="0.543997"/>
</svg>
