<svg width="76" height="56" viewBox="0 0 76 56" fill="none" xmlns="http://www.w3.org/2000/svg">
<path d="M30.1562 26.7177C30.7289 26.324 31.4254 26.1881 32.0925 26.34C32.7595 26.4918 33.3425 26.919 33.7131 27.5276C34.0837 28.1361 34.2116 28.8761 34.0686 29.5848C33.9274 30.2852 33.3718 30.9014 32.8097 31.2957L23.9646 37.7875C23.7042 37.9981 22.8334 38.0734 22.4904 38.0734L10.4021 38.0826C10.0749 38.0826 9.80957 37.8008 9.80957 37.4531L9.81302 33.8683C9.8063 33.5661 9.8572 33.2655 9.96269 32.9846C10.0693 32.7008 10.2294 32.4432 10.4331 32.2276C10.6368 32.0119 10.8799 31.8428 11.1474 31.7306C11.4118 31.6198 11.6944 31.5668 11.9784 31.5749L23.3749 31.5816L29.5665 27.1553C29.7157 27.0029 30.152 26.7206 30.1562 26.7177Z" fill="#92C83E"/>
<path d="M29.5669 26.1364C30.1396 25.7427 30.8362 25.6068 31.5032 25.7587C32.1702 25.9105 32.7532 26.3377 33.1238 26.9463C33.4944 27.5548 33.6223 28.2948 33.4793 29.0035C33.3381 29.7039 32.7825 30.0158 32.2204 30.4101L22.7857 37.4921C22.5252 37.7026 22.0512 38.1108 21.8531 37.8341L9.81627 38.0636C9.48902 38.0636 9.22373 37.7817 9.22373 37.434V33.287C9.21701 32.9848 9.26791 32.6842 9.3734 32.4033C9.48 32.1195 9.64008 31.8619 9.84381 31.6463C10.0475 31.4306 10.2906 31.2615 10.5581 31.1494C10.8225 31.0385 11.1051 30.9855 11.3892 30.9936L22.7857 31.0003L28.9772 26.574C29.1264 26.4216 29.5627 26.1393 29.5669 26.1364Z" fill="white"/>
<ellipse cx="17.7731" cy="24.2133" rx="6.19158" ry="6.19675" fill="#92C83E"/>
<ellipse cx="17.1834" cy="23.0331" rx="5.6019" ry="5.60658" fill="white"/>
<path fill-rule="evenodd" clip-rule="evenodd" d="M17.0079 18.1745C14.2017 18.1745 11.9269 20.4513 11.9269 23.2598C11.9269 26.0683 14.2017 28.3451 17.0079 28.3451C19.8141 28.3451 22.089 26.0683 22.089 23.2598C22.089 20.4513 19.8141 18.1745 17.0079 18.1745ZM10.6921 23.2598C10.6921 19.7688 13.5198 16.9387 17.0079 16.9387C20.4961 16.9387 23.3237 19.7688 23.3237 23.2598C23.3237 26.7509 20.4961 29.5809 17.0079 29.5809C13.5198 29.5809 10.6921 26.7509 10.6921 23.2598ZM29.5017 26.0036C30.0984 25.6172 30.8241 25.4838 31.5191 25.6328C31.9981 25.7355 32.4354 25.9666 32.7873 26.2957L35.3798 24.393C35.6547 24.1912 36.0411 24.2507 36.2427 24.5259C36.4444 24.801 36.3849 25.1877 36.11 25.3895L33.4716 27.326C33.6463 27.7993 33.6855 28.3164 33.5782 28.8176C33.431 29.505 33.0201 30.1068 32.4345 30.4939L23.0862 37.6111C22.8149 37.8177 22.4275 37.765 22.2211 37.4934C22.0147 37.2218 22.0673 36.8342 22.3387 36.6276L31.7044 29.497C31.7168 29.4875 31.7296 29.4785 31.7428 29.47C32.0646 29.2616 32.2905 28.9338 32.3708 28.5587C32.4497 28.1903 32.3818 27.8059 32.1821 27.4872C32.174 27.4755 32.1663 27.4637 32.1591 27.4517C31.9504 27.1392 31.6282 26.9201 31.2604 26.8412C30.888 26.7613 30.4991 26.8319 30.1785 27.0373L23.0609 31.9077C22.9583 31.9779 22.8368 32.0155 22.7125 32.0155H11.3094L11.3011 32.0154L11.2899 32.0152C11.1586 32.011 11.0279 32.0338 10.9058 32.082C10.7837 32.1303 10.6727 32.203 10.5797 32.2957C10.4867 32.3885 10.4136 32.4993 10.3649 32.6213C10.3162 32.7434 10.293 32.8741 10.2967 33.0055L10.2969 33.0227V37.1008C10.2969 37.4421 10.0205 37.7187 9.67952 37.7187C9.33855 37.7187 9.06214 37.4421 9.06214 37.1008V33.0306C9.05514 32.7339 9.10817 32.4389 9.21809 32.1633C9.32915 31.8847 9.49594 31.6319 9.70822 31.4202C9.9205 31.2086 10.1738 31.0426 10.4525 30.9325C10.7279 30.8237 11.0224 30.7718 11.3184 30.7797H22.5216L29.4886 26.0123L29.5017 26.0036ZM25.9659 18.5702C25.625 18.5702 25.3485 18.8469 25.3485 19.1881C25.3485 19.5294 25.625 19.806 25.9659 19.806H35.7453C36.0862 19.806 36.3626 19.5294 36.3626 19.1881C36.3626 18.8469 36.0862 18.5702 35.7453 18.5702H25.9659ZM25.3485 22.444C25.3485 22.1027 25.625 21.8261 25.9659 21.8261H33.3004C33.6414 21.8261 33.9178 22.1027 33.9178 22.444C33.9178 22.7852 33.6414 23.0619 33.3004 23.0619H25.9659C25.625 23.0619 25.3485 22.7852 25.3485 22.444Z" fill="#4C9E45"/>
<path fill-rule="evenodd" clip-rule="evenodd" d="M41.0155 8.03169H3.45174C2.93309 8.03169 2.51264 8.45213 2.51264 8.97078V35.6914C2.51264 36.21 2.93309 36.6305 3.45174 36.6305H41.0155C41.5341 36.6305 41.9545 36.21 41.9545 35.6914V8.97078C41.9545 8.45213 41.5341 8.03169 41.0155 8.03169ZM3.45174 6.62305C2.15512 6.62305 1.104 7.67416 1.104 8.97078V35.6914C1.104 36.988 2.15512 38.0391 3.45174 38.0391H41.0155C42.3121 38.0391 43.3632 36.988 43.3632 35.6914V8.97078C43.3632 7.67416 42.3121 6.62305 41.0155 6.62305H3.45174Z" fill="#4C9E45"/>
<path fill-rule="evenodd" clip-rule="evenodd" d="M43.3632 12.2497H1.104V10.8411H43.3632V12.2497Z" fill="#4C9E45"/>
<path fill-rule="evenodd" clip-rule="evenodd" d="M39.8242 9.74234C40.0343 9.74234 40.2058 9.57152 40.2058 9.35942C40.2058 9.14732 40.0343 8.97651 39.8242 8.97651C39.614 8.97651 39.4426 9.14732 39.4426 9.35942C39.4426 9.57152 39.614 9.74234 39.8242 9.74234ZM39.8242 10.1263C40.247 10.1263 40.5897 9.78297 40.5897 9.35942C40.5897 8.93588 40.247 8.59253 39.8242 8.59253C39.4014 8.59253 39.0586 8.93588 39.0586 9.35942C39.0586 9.78297 39.4014 10.1263 39.8242 10.1263Z" fill="#4C9E45"/>
<path fill-rule="evenodd" clip-rule="evenodd" d="M36.7626 9.74234C36.9728 9.74234 37.1442 9.57152 37.1442 9.35942C37.1442 9.14732 36.9728 8.97651 36.7626 8.97651C36.5525 8.97651 36.381 9.14732 36.381 9.35942C36.381 9.57152 36.5525 9.74234 36.7626 9.74234ZM36.7626 10.1263C37.1855 10.1263 37.5282 9.78297 37.5282 9.35942C37.5282 8.93588 37.1855 8.59253 36.7626 8.59253C36.3398 8.59253 35.9971 8.93588 35.9971 9.35942C35.9971 9.78297 36.3398 10.1263 36.7626 10.1263Z" fill="#4C9E45"/>
<path fill-rule="evenodd" clip-rule="evenodd" d="M33.6997 9.74234C33.9098 9.74234 34.0813 9.57152 34.0813 9.35942C34.0813 9.14732 33.9098 8.97651 33.6997 8.97651C33.4895 8.97651 33.3181 9.14732 33.3181 9.35942C33.3181 9.57152 33.4895 9.74234 33.6997 9.74234ZM33.6997 10.1263C34.1225 10.1263 34.4652 9.78297 34.4652 9.35942C34.4652 8.93588 34.1225 8.59253 33.6997 8.59253C33.2768 8.59253 32.9341 8.93588 32.9341 9.35942C32.9341 9.78297 33.2768 10.1263 33.6997 10.1263Z" fill="#4C9E45"/>
<rect x="32.3076" y="17.7693" width="43.0769" height="32.3077" rx="2.69231" fill="white"/>
<rect x="33.9571" y="19.0931" width="39.9075" height="29.2003" rx="1.88462" stroke="#4C9E45" stroke-width="1.61538"/>
<line x1="33.1494" y1="22.997" x2="74.6723" y2="22.997" stroke="#4C9E45" stroke-width="1.61538"/>
<path d="M71.7272 20.9693C71.7272 21.2631 71.489 21.5013 71.1951 21.5013C70.9013 21.5013 70.663 21.2631 70.663 20.9693C70.663 20.6754 70.9013 20.4372 71.1951 20.4372C71.489 20.4372 71.7272 20.6754 71.7272 20.9693Z" stroke="#4C9E45" stroke-width="0.440334"/>
<path d="M68.7189 20.9693C68.7189 21.2631 68.4807 21.5013 68.1868 21.5013C67.893 21.5013 67.6547 21.2631 67.6547 20.9693C67.6547 20.6754 67.893 20.4372 68.1868 20.4372C68.4807 20.4372 68.7189 20.6754 68.7189 20.9693Z" stroke="#4C9E45" stroke-width="0.440334"/>
<path d="M65.7096 20.9693C65.7096 21.2631 65.4714 21.5013 65.1775 21.5013C64.8837 21.5013 64.6455 21.2631 64.6455 20.9693C64.6455 20.6754 64.8837 20.4372 65.1775 20.4372C65.4714 20.4372 65.7096 20.6754 65.7096 20.9693Z" stroke="#4C9E45" stroke-width="0.440334"/>
<path d="M61.024 35.0873C61.0971 35.1295 61.0971 35.2349 61.024 35.277L50.8488 41.1517C50.7757 41.1939 50.6845 41.1412 50.6845 41.0569L50.6845 29.3074C50.6845 29.2231 50.7757 29.1705 50.8488 29.2126L61.024 35.0873Z" stroke="#92C83E" stroke-width="1.61538"/>
<path d="M60.5641 34.6274C60.6371 34.6695 60.6371 34.7749 60.5641 34.817L50.3888 40.6918C50.3158 40.7339 50.2245 40.6812 50.2245 40.5969L50.2245 28.8475C50.2245 28.7632 50.3158 28.7105 50.3888 28.7526L60.5641 34.6274Z" fill="white" stroke="#4C9E45" stroke-width="1.61538"/>
</svg>
