<svg width="22" height="17" viewBox="0 0 22 17" fill="none" xmlns="http://www.w3.org/2000/svg">
<rect x="0.369141" y="0.369141" width="21.2617" height="15.7617" rx="0.861328" stroke="#333333" stroke-width="0.738281"/>
<line y1="2.58606" x2="22" y2="2.58606" stroke="#333333" stroke-width="0.738281"/>
<path d="M20.4563 1.43643C20.4563 1.60408 20.3219 1.7383 20.1583 1.7383C19.9947 1.7383 19.8604 1.60408 19.8604 1.43643C19.8604 1.26878 19.9947 1.13456 20.1583 1.13456C20.3219 1.13456 20.4563 1.26878 20.4563 1.43643Z" stroke="#333333" stroke-width="0.201247"/>
<path d="M18.8606 1.43643C18.8606 1.60408 18.7262 1.7383 18.5626 1.7383C18.399 1.7383 18.2647 1.60408 18.2647 1.43643C18.2647 1.26878 18.399 1.13456 18.5626 1.13456C18.7262 1.13456 18.8606 1.26878 18.8606 1.43643Z" stroke="#333333" stroke-width="0.201247"/>
<path d="M17.2668 1.43643C17.2668 1.60408 17.1325 1.7383 16.9689 1.7383C16.8053 1.7383 16.6709 1.60408 16.6709 1.43643C16.6709 1.26878 16.8053 1.13456 16.9689 1.13456C17.1325 1.13456 17.2668 1.26878 17.2668 1.43643Z" stroke="#333333" stroke-width="0.201247"/>
<path d="M14.9063 9.00404C14.9394 9.02335 14.9394 9.07118 14.9063 9.0905L9.30825 12.3568C9.27488 12.3762 9.23297 12.3522 9.23297 12.3135L9.23297 5.78099C9.23297 5.74236 9.27488 5.71829 9.30825 5.73776L14.9063 9.00404Z" stroke="#92C83E" stroke-width="0.738281"/>
<path d="M14.6622 8.7577C14.6953 8.77701 14.6953 8.82485 14.6622 8.84416L9.06411 12.1104C9.03074 12.1299 8.98883 12.1058 8.98883 12.0672L8.98883 5.53465C8.98883 5.49602 9.03074 5.47195 9.06411 5.49142L14.6622 8.7577Z" fill="white" stroke="#333333" stroke-width="0.738281"/>
</svg>
