<svg width="233" height="233" viewBox="0 0 233 233" fill="none" xmlns="http://www.w3.org/2000/svg">
<path fill-rule="evenodd" clip-rule="evenodd" d="M122.5 126.999C131.06 126.999 138 120.059 138 111.499C138 102.939 131.06 95.999 122.5 95.999C113.94 95.999 107 102.939 107 111.499C107 120.059 113.94 126.999 122.5 126.999ZM141 111.499C141 121.211 133.516 129.176 124 129.939V140.999H136V143.999H124V155.999H121V143.999H108V140.999H121V129.939C111.484 129.176 104 121.211 104 111.499C104 101.282 112.283 92.999 122.5 92.999C132.717 92.999 141 101.282 141 111.499Z" fill="#4C9E45"/>
<path fill-rule="evenodd" clip-rule="evenodd" d="M32.2029 119.587C38.2561 113.534 48.0701 113.534 54.1232 119.587C60.1764 125.64 60.1764 135.454 54.1232 141.507C48.0701 147.56 38.2561 147.56 32.2029 141.507C26.1498 135.454 26.1498 125.64 32.2029 119.587ZM54.9677 116.301C47.6998 110.264 36.8947 110.652 30.0816 117.466C22.8569 124.69 22.8569 136.404 30.0816 143.628C37.3063 150.853 49.0199 150.853 56.2446 143.628C63.1665 136.707 63.4566 125.664 57.1147 118.397L68.6212 106.89L68.6214 118.609L71.6214 118.609L71.6211 102.007L71.3403 102.007L71.3403 102L55.1211 102L55.1211 105L66.2688 105L54.9677 116.301Z" fill="#4C9E45"/>
<path fill-rule="evenodd" clip-rule="evenodd" d="M170 93.8896L177.198 101.087L173.999 104.285L176.121 106.407L179.319 103.209L181.981 105.87C178.891 109.176 177 113.617 177 118.499C177 128.211 184.484 136.176 194 136.939V147.999H181V150.999H194V162.999H197V150.999H209V147.999H197V136.939C206.516 136.176 214 128.211 214 118.499C214 113.645 212.131 109.228 209.072 105.927L220.5 94.4998L220.5 106.218L223.5 106.218L223.5 89.6166L223.219 89.6166V89.6094L207 89.6098L207 92.6098L218.148 92.6095L206.86 103.897C203.725 101.454 199.782 99.999 195.5 99.999C191.246 99.999 187.327 101.435 184.202 103.849L181.44 101.087L184.407 98.1204L182.286 95.999L179.319 98.9659L172.352 91.999L179 91.999L179 88.999L167.281 88.9991V89.0063L167 89.0062L167 101.499L170 101.499L170 93.8896ZM211 118.499C211 127.059 204.06 133.999 195.5 133.999C186.94 133.999 180 127.059 180 118.499C180 109.939 186.94 102.999 195.5 102.999C204.06 102.999 211 109.939 211 118.499Z" fill="#4C9E45"/>
</svg>
