<svg width="18" height="19" viewBox="0 0 18 19" fill="none" xmlns="http://www.w3.org/2000/svg">
<g clip-path="url(#clip0_680_17622)">
<path fill-rule="evenodd" clip-rule="evenodd" d="M9 3.24414C5.27208 3.24414 2.25 6.26622 2.25 9.99414C2.25 13.7221 5.27208 16.7441 9 16.7441C12.7279 16.7441 15.75 13.7221 15.75 9.99414C15.75 6.26622 12.7279 3.24414 9 3.24414ZM0.75 9.99414C0.75 5.43779 4.44365 1.74414 9 1.74414C13.5563 1.74414 17.25 5.43779 17.25 9.99414C17.25 14.5505 13.5563 18.2441 9 18.2441C4.44365 18.2441 0.75 14.5505 0.75 9.99414Z" fill="#333333"/>
<path fill-rule="evenodd" clip-rule="evenodd" d="M9 4.74414C9.41421 4.74414 9.75 5.07993 9.75 5.49414V9.53061L12.3354 10.8233C12.7059 11.0086 12.8561 11.4591 12.6708 11.8296C12.4856 12.2 12.0351 12.3502 11.6646 12.165L8.66459 10.665C8.4105 10.5379 8.25 10.2782 8.25 9.99414V5.49414C8.25 5.07993 8.58579 4.74414 9 4.74414Z" fill="#333333"/>
</g>
<defs>
<clipPath id="clip0_680_17622">
<rect width="18" height="18" fill="white" transform="translate(0 0.994141)"/>
</clipPath>
</defs>
</svg>
