<svg width="24" height="24" viewBox="0 0 24 24" fill="none" xmlns="http://www.w3.org/2000/svg">
<path fill-rule="evenodd" clip-rule="evenodd" d="M6.00007 4.53345C6.14734 4.53345 6.26673 4.65284 6.26673 4.80011V20.7836C6.26731 20.9293 6.32542 21.0688 6.4284 21.1718C6.53142 21.2748 6.67097 21.3329 6.81664 21.3334C6.81674 21.3334 6.81684 21.3334 6.81693 21.3334H17.1832C17.1833 21.3334 17.1834 21.3334 17.1835 21.3334C17.3292 21.3329 17.4687 21.2748 17.5717 21.1718C17.6747 21.0688 17.7328 20.9292 17.7334 20.7835C17.7334 20.7834 17.7334 20.7833 17.7334 20.7832L17.7334 4.80011C17.7334 4.65284 17.8528 4.53345 18.0001 4.53345C18.1473 4.53345 18.2667 4.65284 18.2667 4.80011V20.7841L18.2667 20.785C18.2658 21.0716 18.1515 21.3462 17.9488 21.5489C17.7462 21.7516 17.4716 21.8658 17.1849 21.8668H17.1841H6.81606H6.8152C6.52857 21.8658 6.25396 21.7516 6.05128 21.5489C5.84861 21.3462 5.73433 21.0716 5.7334 20.785L5.7334 20.7841V4.80011C5.7334 4.65284 5.85279 4.53345 6.00007 4.53345Z" fill="#0B3C61"/>
<path fill-rule="evenodd" clip-rule="evenodd" d="M10.4157 2.1333H13.5845C13.8712 2.13423 14.1458 2.24851 14.3485 2.45118C14.5511 2.65386 14.6654 2.92848 14.6663 3.2151L14.6663 3.21597L14.6663 4.79997C14.6663 4.94724 14.547 5.06663 14.3997 5.06663C14.2524 5.06663 14.133 4.94724 14.133 4.79997V3.21641C14.1324 3.07079 14.0743 2.93129 13.9713 2.82831C13.8683 2.72532 13.7288 2.66721 13.5832 2.66663H10.4162C10.2705 2.66721 10.131 2.72532 10.028 2.82831C9.92503 2.93129 9.86692 3.07081 9.86634 3.21644V4.79997C9.86634 4.94724 9.74695 5.06663 9.59967 5.06663C9.4524 5.06663 9.33301 4.94724 9.33301 4.79997V3.2151C9.33394 2.92848 9.44822 2.65386 9.65089 2.45118C9.85357 2.24851 10.1282 2.13423 10.4148 2.1333L10.4157 2.1333Z" fill="#0B3C61"/>
<path fill-rule="evenodd" clip-rule="evenodd" d="M4.5332 4.80011C4.5332 4.65284 4.65259 4.53345 4.79987 4.53345H19.1999C19.3471 4.53345 19.4665 4.65284 19.4665 4.80011C19.4665 4.94739 19.3471 5.06678 19.1999 5.06678H4.79987C4.65259 5.06678 4.5332 4.94739 4.5332 4.80011Z" fill="#0B3C61"/>
<path fill-rule="evenodd" clip-rule="evenodd" d="M12.0001 6.93335C12.1473 6.93335 12.2667 7.05274 12.2667 7.20002V19.2C12.2667 19.3473 12.1473 19.4667 12.0001 19.4667C11.8528 19.4667 11.7334 19.3473 11.7334 19.2V7.20002C11.7334 7.05274 11.8528 6.93335 12.0001 6.93335Z" fill="#0B3C61"/>
<path fill-rule="evenodd" clip-rule="evenodd" d="M9.00006 6.93335C9.14734 6.93335 9.26673 7.05274 9.26673 7.20002V19.2C9.26673 19.3473 9.14734 19.4667 9.00006 19.4667C8.85279 19.4667 8.7334 19.3473 8.7334 19.2V7.20002C8.7334 7.05274 8.85279 6.93335 9.00006 6.93335Z" fill="#0B3C61"/>
<path fill-rule="evenodd" clip-rule="evenodd" d="M15.0001 6.93335C15.1473 6.93335 15.2667 7.05274 15.2667 7.20002V19.2C15.2667 19.3473 15.1473 19.4667 15.0001 19.4667C14.8528 19.4667 14.7334 19.3473 14.7334 19.2V7.20002C14.7334 7.05274 14.8528 6.93335 15.0001 6.93335Z" fill="#0B3C61"/>
</svg>
