<svg width="32" height="32" viewBox="0 0 32 32" fill="none" xmlns="http://www.w3.org/2000/svg">
<path fill-rule="evenodd" clip-rule="evenodd" d="M5.33335 28.3335H22.6667C23.7713 28.3335 24.6667 27.4381 24.6667 26.3335V12.7714C24.6667 12.241 24.456 11.7323 24.0809 11.3572L20.3097 7.58595C19.9346 7.21088 19.4259 7.00016 18.8955 7.00016H5.33335C4.22878 7.00016 3.33335 7.89559 3.33335 9.00016V26.3335C3.33335 27.4381 4.22878 28.3335 5.33335 28.3335ZM5.33335 6.3335C3.86059 6.3335 2.66669 7.5274 2.66669 9.00016V26.3335C2.66669 27.8063 3.86059 29.0002 5.33335 29.0002H22.6667C24.1394 29.0002 25.3334 27.8063 25.3334 26.3335V12.7714C25.3334 12.0642 25.0524 11.3859 24.5523 10.8858L20.7811 7.11454C20.281 6.61445 19.6027 6.3335 18.8955 6.3335H5.33335Z" fill="white" stroke="white" stroke-width="0.5"/>
<path fill-rule="evenodd" clip-rule="evenodd" d="M5 6.99984C5 5.71117 6.04467 4.6665 7.33333 4.6665H24.6667C26.3235 4.6665 27.6667 6.00965 27.6667 7.6665V24.3332C27.6667 25.6218 26.622 26.6665 25.3333 26.6665V25.9998C26.2538 25.9998 27 25.2536 27 24.3332V7.6665C27 6.37784 25.9553 5.33317 24.6667 5.33317H7.33333C6.41286 5.33317 5.66667 6.07936 5.66667 6.99984H5Z" fill="white" stroke="white" stroke-width="0.5"/>
<path fill-rule="evenodd" clip-rule="evenodd" d="M7.66669 4.99984C7.66669 3.71117 8.71136 2.6665 10 2.6665H26.6667C28.3235 2.6665 29.6667 4.00965 29.6667 5.6665V22.3332C29.6667 23.6218 28.622 24.6665 27.3334 24.6665V23.9998C28.2538 23.9998 29 23.2536 29 22.3332V5.6665C29 4.37784 27.9554 3.33317 26.6667 3.33317H10C9.07955 3.33317 8.33335 4.07936 8.33335 4.99984H7.66669Z" fill="white" stroke="white" stroke-width="0.5"/>
<path fill-rule="evenodd" clip-rule="evenodd" d="M5.33331 9.99984C5.33331 9.81574 5.48255 9.6665 5.66665 9.6665L17 9.6665C17.1841 9.6665 17.3333 9.81574 17.3333 9.99984C17.3333 10.1839 17.1841 10.3332 17 10.3332L5.66665 10.3332C5.48255 10.3332 5.33331 10.1839 5.33331 9.99984Z" fill="white" stroke="white" stroke-width="0.5" stroke-linecap="round"/>
<path fill-rule="evenodd" clip-rule="evenodd" d="M5.33331 12.6668C5.33331 12.4827 5.48255 12.3335 5.66665 12.3335L17 12.3335C17.1841 12.3335 17.3333 12.4827 17.3333 12.6668C17.3333 12.8509 17.1841 13.0002 17 13.0002L5.66665 13.0002C5.48255 13.0002 5.33331 12.8509 5.33331 12.6668Z" fill="white" stroke="white" stroke-width="0.5" stroke-linecap="round"/>
<path fill-rule="evenodd" clip-rule="evenodd" d="M5.33331 15.3333C5.33331 15.1492 5.48255 15 5.66665 15L22.3333 15C22.5174 15 22.6666 15.1492 22.6666 15.3333C22.6666 15.5174 22.5174 15.6667 22.3333 15.6667L5.66665 15.6667C5.48255 15.6667 5.33331 15.5174 5.33331 15.3333Z" fill="white" stroke="white" stroke-width="0.5" stroke-linecap="round"/>
<path fill-rule="evenodd" clip-rule="evenodd" d="M5.33331 17.9998C5.33331 17.8157 5.48255 17.6665 5.66665 17.6665L22.3333 17.6665C22.5174 17.6665 22.6666 17.8157 22.6666 17.9998C22.6666 18.1839 22.5174 18.3332 22.3333 18.3332L5.66665 18.3332C5.48255 18.3332 5.33331 18.1839 5.33331 17.9998Z" fill="white" stroke="white" stroke-width="0.5" stroke-linecap="round"/>
<path fill-rule="evenodd" clip-rule="evenodd" d="M5.33331 20.6668C5.33331 20.4827 5.48255 20.3335 5.66665 20.3335L22.3333 20.3335C22.5174 20.3335 22.6666 20.4827 22.6666 20.6668C22.6666 20.8509 22.5174 21.0002 22.3333 21.0002L5.66665 21.0002C5.48255 21.0002 5.33331 20.8509 5.33331 20.6668Z" fill="white" stroke="white" stroke-width="0.5" stroke-linecap="round"/>
<path fill-rule="evenodd" clip-rule="evenodd" d="M5.33331 23.3333C5.33331 23.1492 5.48255 23 5.66665 23L22.3333 23C22.5174 23 22.6666 23.1492 22.6666 23.3333C22.6666 23.5174 22.5174 23.6667 22.3333 23.6667L5.66665 23.6667C5.48255 23.6667 5.33331 23.5174 5.33331 23.3333Z" fill="white" stroke="white" stroke-width="0.5" stroke-linecap="round"/>
<path fill-rule="evenodd" clip-rule="evenodd" d="M5.33331 25.9998C5.33331 25.8157 5.48255 25.6665 5.66665 25.6665L22.3333 25.6665C22.5174 25.6665 22.6666 25.8157 22.6666 25.9998C22.6666 26.1839 22.5174 26.3332 22.3333 26.3332L5.66665 26.3332C5.48255 26.3332 5.33331 26.1839 5.33331 25.9998Z" fill="white" stroke="white" stroke-width="0.5" stroke-linecap="round"/>
<path fill-rule="evenodd" clip-rule="evenodd" d="M19.6667 10.3333V7H20.3334V10.3333C20.3334 10.8856 20.7811 11.3333 21.3334 11.3333H24.6667V12H21.3334C20.4129 12 19.6667 11.2538 19.6667 10.3333Z" fill="white" stroke="white" stroke-width="0.5"/>
</svg>
