<svg width="32" height="32" viewBox="0 0 32 32" fill="none" xmlns="http://www.w3.org/2000/svg">
<path fill-rule="evenodd" clip-rule="evenodd" d="M5.10645 26.9614V12.6636H5.58304V26.7231H27.0299V12.6636H27.5064V26.9614C27.5064 27.0931 27.3998 27.1997 27.2681 27.1997H5.34474C5.21313 27.1997 5.10645 27.0931 5.10645 26.9614Z" fill="white" stroke="white" stroke-width="0.5" stroke-linejoin="round"/>
<path fill-rule="evenodd" clip-rule="evenodd" d="M7.07291 4.87979C7.11813 4.82891 7.18295 4.7998 7.25102 4.7998H25.8383C25.9118 4.7998 25.9812 4.83376 26.0264 4.8918L29.3625 9.18116C29.4184 9.25301 29.4285 9.3504 29.3885 9.43216C29.3485 9.51392 29.2654 9.56576 29.1744 9.56576H3.43825C3.34441 9.56576 3.25931 9.51069 3.22087 9.42508C3.18243 9.33948 3.1978 9.23928 3.26015 9.16915L7.07291 4.87979ZM7.35803 5.2764L3.96891 9.08917H28.6872L25.7217 5.2764H7.35803Z" fill="white" stroke="white" stroke-width="0.5"/>
<path fill-rule="evenodd" clip-rule="evenodd" d="M3.19995 11.0298L3.19995 9.32764H3.67655V11.0298C3.67655 11.2636 3.8615 11.6096 4.27284 11.9107C4.67302 12.2035 5.25438 12.4255 5.96139 12.4255H9.49383C10.1209 12.4255 10.7043 12.1995 11.1294 11.8976C11.3416 11.7469 11.5084 11.5814 11.6201 11.4233C11.734 11.2621 11.7787 11.126 11.7787 11.0298V9.32764H12.2553V11.0298C12.2553 11.2603 12.1552 11.4919 12.0093 11.6983C11.8613 11.9079 11.6533 12.1101 11.4053 12.2862C10.9102 12.6379 10.232 12.9021 9.49383 12.9021H5.96139C5.15451 12.9021 4.47431 12.6487 3.99139 12.2953C3.51962 11.95 3.19995 11.479 3.19995 11.0298Z" fill="white" stroke="white" stroke-width="0.5"/>
<path fill-rule="evenodd" clip-rule="evenodd" d="M11.7786 11.0298L11.7786 9.32764H12.2552V11.0298C12.2552 11.2636 12.4401 11.6096 12.8515 11.9107C13.2516 12.2035 13.833 12.4255 14.54 12.4255H18.0724C18.6995 12.4255 19.2829 12.1995 19.708 11.8976C19.9202 11.7469 20.087 11.5814 20.1987 11.4233C20.3126 11.2621 20.3573 11.126 20.3573 11.0298V9.32764H20.8339V11.0298C20.8339 11.2603 20.7338 11.4919 20.5879 11.6983C20.4399 11.9079 20.2319 12.1101 19.984 12.2862C19.4888 12.6379 18.8106 12.9021 18.0724 12.9021H14.54C13.7331 12.9021 13.0529 12.6487 12.57 12.2953C12.0982 11.95 11.7786 11.479 11.7786 11.0298Z" fill="white" stroke="white" stroke-width="0.5"/>
<path fill-rule="evenodd" clip-rule="evenodd" d="M20.3574 11.0298L20.3574 9.32764H20.834V11.0298C20.834 11.2636 21.019 11.6096 21.4303 11.9107C21.8305 12.2035 22.4119 12.4255 23.1189 12.4255H26.6513C27.2784 12.4255 27.8618 12.1995 28.2868 11.8976C28.4991 11.7469 28.6659 11.5814 28.7776 11.4233C28.8915 11.2621 28.9361 11.126 28.9361 11.0298V9.32764H29.4127V11.0298C29.4127 11.2603 29.3127 11.4919 29.1668 11.6983C29.0187 11.9079 28.8107 12.1101 28.5628 12.2862C28.0676 12.6379 27.3894 12.9021 26.6513 12.9021H23.1189C22.312 12.9021 21.6318 12.6487 21.1489 12.2953C20.6771 11.95 20.3574 11.479 20.3574 11.0298Z" fill="white" stroke="white" stroke-width="0.5"/>
<path fill-rule="evenodd" clip-rule="evenodd" d="M14.1495 5.1136L12.7197 9.40296L12.2676 9.25225L13.6974 4.96289L14.1495 5.1136Z" fill="white" stroke="white" stroke-width="0.5"/>
<path fill-rule="evenodd" clip-rule="evenodd" d="M18.4633 5.1136L19.8931 9.40296L20.3452 9.25225L18.9154 4.96289L18.4633 5.1136Z" fill="white" stroke="white" stroke-width="0.5"/>
<path fill-rule="evenodd" clip-rule="evenodd" d="M16.3064 17.4297C16.3064 17.1665 16.5198 16.9531 16.783 16.9531H24.4085C24.6717 16.9531 24.8851 17.1665 24.8851 17.4297V21.2425C24.8851 21.5057 24.6717 21.7191 24.4085 21.7191H16.783C16.5198 21.7191 16.3064 21.5057 16.3064 21.2425V17.4297ZM16.783 17.4297V21.2425H24.4085V17.4297H16.783Z" fill="white" stroke="white" stroke-width="0.5" stroke-linecap="round" stroke-linejoin="round"/>
<path fill-rule="evenodd" clip-rule="evenodd" d="M13.9233 16.2383C14.0549 16.2383 14.1616 16.345 14.1616 16.4766L14.1616 26.9617C14.1616 27.0933 14.0549 27.2 13.9233 27.2C13.7917 27.2 13.685 27.0933 13.685 26.9617L13.685 16.7149L8.44247 16.7149L8.44247 26.9617C8.44247 27.0933 8.33578 27.2 8.20417 27.2C8.07257 27.2 7.96588 27.0933 7.96588 26.9617L7.96588 16.4766C7.96588 16.345 8.07257 16.2383 8.20417 16.2383L13.9233 16.2383Z" fill="white" stroke="white" stroke-width="0.5" stroke-linecap="round" stroke-linejoin="round"/>
<path fill-rule="evenodd" clip-rule="evenodd" d="M12.4937 19.5742C12.6253 19.5742 12.732 19.6809 12.732 19.8125V21.7189C12.732 21.8505 12.6253 21.9572 12.4937 21.9572C12.3621 21.9572 12.2554 21.8505 12.2554 21.7189V19.8125C12.2554 19.6809 12.3621 19.5742 12.4937 19.5742Z" fill="white" stroke="white" stroke-width="0.5"/>
</svg>
