<svg width="32" height="32" viewBox="0 0 32 32" fill="none" xmlns="http://www.w3.org/2000/svg">
<path fill-rule="evenodd" clip-rule="evenodd" d="M13.9727 4.92012C14.4561 4.23217 15.2318 3.6001 16.4 3.6001C17.5326 3.6001 18.251 4.06519 18.7234 4.71483C19.1171 5.25615 19.3349 5.92465 19.5113 6.4661C19.5199 6.49258 19.5285 6.51876 19.5369 6.54461C21.8763 8.12878 23.0139 9.66538 23.5499 11.1466C24.0231 12.4542 24.0121 13.6913 24.0026 14.7663C24.0012 14.914 24 15.0587 24 15.2001V15.2126L23.9992 15.225C23.9347 16.2565 24.034 17.7939 24.5229 19.0556C25.0091 20.3103 25.8334 21.2001 27.2 21.2001C27.4209 21.2001 27.6 21.3792 27.6 21.6001V24.0001H5.19995V21.6001C5.19995 21.3792 5.37904 21.2001 5.59995 21.2001C6.16064 21.2001 6.91597 21.1256 7.55158 20.4137C8.20437 19.6826 8.79995 18.2032 8.79995 15.2001C8.79995 12.2085 9.51628 10.1584 10.4709 8.77768C11.3488 7.50803 12.4136 6.82565 13.2594 6.4978C13.3637 6.09507 13.5792 5.48008 13.9727 4.92012ZM14.6272 5.38008C14.237 5.93543 14.0525 6.57678 13.9922 6.87854C13.964 7.0193 13.8626 7.13418 13.7264 7.17957C13.0009 7.4214 11.9753 8.0086 11.129 9.23265C10.2836 10.4553 9.59995 12.3386 9.59995 15.2001C9.59995 18.277 8.99553 19.9976 8.14833 20.9465C7.44656 21.7325 6.62598 21.9367 5.99995 21.9857V23.2001H26.8V21.9795C25.2127 21.8123 24.283 20.6505 23.777 19.3446C23.2346 17.945 23.1326 16.2896 23.2 15.1877C23.2 15.0426 23.2011 14.8974 23.2022 14.7522C23.2104 13.6708 23.2187 12.5822 22.7977 11.4188C22.3249 10.1124 21.2911 8.67492 18.9781 7.13292C18.9041 7.08358 18.8486 7.01097 18.8205 6.92659C18.7965 6.85461 18.7729 6.7827 18.7494 6.71107C18.5671 6.15574 18.3902 5.61682 18.0765 5.18537C17.7489 4.735 17.2673 4.4001 16.4 4.4001C15.5681 4.4001 15.0105 4.83469 14.6272 5.38008Z" fill="white" stroke="white" stroke-linecap="round"/>
<path fill-rule="evenodd" clip-rule="evenodd" d="M12.5665 25.9485C11.8404 25.0317 11.6001 23.9391 11.6001 23.2002H12.4001C12.4001 23.7946 12.5998 24.7021 13.1937 25.4518C13.7735 26.1839 14.7551 26.8002 16.4001 26.8002C18.0451 26.8002 19.0267 26.1839 19.6065 25.4518C20.2004 24.7021 20.4001 23.7946 20.4001 23.2002H21.2001C21.2001 23.9391 20.9598 25.0317 20.2337 25.9485C19.4935 26.8832 18.2751 27.6002 16.4001 27.6002C14.5251 27.6002 13.3067 26.8832 12.5665 25.9485Z" fill="white" stroke="white"/>
</svg>
