<svg width="24" height="24" viewBox="0 0 24 24" fill="none" xmlns="http://www.w3.org/2000/svg">
<path fill-rule="evenodd" clip-rule="evenodd" d="M9.22266 4.64173C9.22266 4.48363 9.35697 4.35547 9.52266 4.35547H10.0627C10.2283 4.35547 10.3627 4.48363 10.3627 4.64173C10.3627 4.79982 10.2283 4.92799 10.0627 4.92799H9.52266C9.35697 4.92799 9.22266 4.79982 9.22266 4.64173Z" fill="#333333" stroke="#333333"  stroke-width="0.5"/>
<path fill-rule="evenodd" clip-rule="evenodd" d="M11.8027 4.64173C11.8027 4.48363 11.937 4.35547 12.1027 4.35547H12.6427C12.8084 4.35547 12.9427 4.48363 12.9427 4.64173C12.9427 4.79982 12.8084 4.92799 12.6427 4.92799H12.1027C11.937 4.92799 11.8027 4.79982 11.8027 4.64173Z" fill="#333333" stroke="#333333"  stroke-width="0.5"/>
<path fill-rule="evenodd" clip-rule="evenodd" d="M14.3828 4.64173C14.3828 4.48363 14.5171 4.35547 14.6828 4.35547H15.2228C15.3885 4.35547 15.5228 4.48363 15.5228 4.64173C15.5228 4.79982 15.3885 4.92799 15.2228 4.92799H14.6828C14.5171 4.92799 14.3828 4.79982 14.3828 4.64173Z" fill="#333333" stroke="#333333"  stroke-width="0.5"/>
<path fill-rule="evenodd" clip-rule="evenodd" d="M17.0997 12.5955C15.5848 12.5955 14.3637 13.7506 14.3637 15.1675C14.3637 16.5844 15.5848 17.7396 17.0997 17.7396C18.6145 17.7396 19.8357 16.5844 19.8357 15.1675C19.8357 13.7506 18.6145 12.5955 17.0997 12.5955ZM13.7637 15.1675C13.7637 13.4272 15.2611 12.0229 17.0997 12.0229C18.9383 12.0229 20.4357 13.4272 20.4357 15.1675C20.4357 16.9078 18.9383 18.3121 17.0997 18.3121C15.2611 18.3121 13.7637 16.9078 13.7637 15.1675Z" fill="#333333" stroke="#333333"  stroke-width="0.5"/>
<path fill-rule="evenodd" clip-rule="evenodd" d="M6.30084 12.5955C4.78598 12.5955 3.56484 13.7506 3.56484 15.1675C3.56484 16.5844 4.78598 17.7396 6.30084 17.7396C7.8157 17.7396 9.03684 16.5844 9.03684 15.1675C9.03684 13.7506 7.8157 12.5955 6.30084 12.5955ZM2.96484 15.1675C2.96484 13.4272 4.46223 12.0229 6.30084 12.0229C8.13946 12.0229 9.63684 13.4272 9.63684 15.1675C9.63684 16.9078 8.13946 18.3121 6.30084 18.3121C4.46223 18.3121 2.96484 16.9078 2.96484 15.1675Z" fill="#333333" stroke="#333333"  stroke-width="0.5"/>
<path fill-rule="evenodd" clip-rule="evenodd" d="M3.2766 19.4283H9.35241C9.52727 19.4146 9.70333 19.4365 9.86872 19.4924C10.0388 19.55 10.1937 19.6424 10.322 19.7633C10.4504 19.8841 10.549 20.0304 10.6107 20.1918C10.6706 20.3486 10.6941 20.5158 10.6795 20.682V22.4768C10.6795 22.6349 10.5452 22.7631 10.3795 22.7631C10.2138 22.7631 10.0795 22.6349 10.0795 22.4768V20.6692C10.0795 20.66 10.08 20.6508 10.0809 20.6417C10.0896 20.5558 10.078 20.4692 10.047 20.3879C10.0159 20.3066 9.96602 20.2324 9.9006 20.1708C9.83517 20.1092 9.75582 20.0617 9.66809 20.032C9.58035 20.0023 9.48659 19.9912 9.39358 19.9995C9.38424 20.0004 9.37488 20.0008 9.3655 20.0008H3.2635C3.25413 20.0008 3.24476 20.0004 3.23543 19.9995C3.14242 19.9912 3.04866 20.0023 2.96092 20.032C2.87319 20.0617 2.79384 20.1092 2.72841 20.1708C2.66299 20.2324 2.61311 20.3066 2.58204 20.3879C2.55098 20.4692 2.53943 20.5558 2.54812 20.6417C2.54904 20.6508 2.5495 20.66 2.5495 20.6692V22.4768C2.5495 22.6349 2.41519 22.7631 2.2495 22.7631C2.08382 22.7631 1.9495 22.6349 1.9495 22.4768V20.682C1.93495 20.5158 1.95842 20.3486 2.01832 20.1918C2.07998 20.0304 2.17865 19.8841 2.307 19.7633C2.43533 19.6424 2.59016 19.55 2.76029 19.4924C2.92568 19.4365 3.10174 19.4146 3.2766 19.4283Z" fill="#333333" stroke="#333333"  stroke-width="0.5"/>
<path fill-rule="evenodd" clip-rule="evenodd" d="M14.0774 19.4283H20.1532C20.3281 19.4146 20.5041 19.4365 20.6695 19.4924C20.8396 19.55 20.9945 19.6424 21.1228 19.7633C21.2511 19.8841 21.3498 20.0304 21.4115 20.1918C21.4714 20.3486 21.4948 20.5158 21.4803 20.682V22.4768C21.4803 22.6349 21.346 22.7631 21.1803 22.7631C21.0146 22.7631 20.8803 22.6349 20.8803 22.4768V20.6692C20.8803 20.66 20.8807 20.6508 20.8817 20.6417C20.8904 20.5558 20.8788 20.4692 20.8477 20.3879C20.8167 20.3066 20.7668 20.2324 20.7014 20.1708C20.636 20.1092 20.5566 20.0617 20.4689 20.032C20.3811 20.0023 20.2874 19.9912 20.1944 19.9995C20.185 20.0004 20.1757 20.0008 20.1663 20.0008H14.0643C14.0549 20.0008 14.0455 20.0004 14.0362 19.9995C13.9432 19.9912 13.8494 20.0023 13.7617 20.032C13.674 20.0617 13.5946 20.1092 13.5292 20.1708C13.4638 20.2324 13.4139 20.3066 13.3828 20.3879C13.3518 20.4692 13.3402 20.5558 13.3489 20.6417C13.3498 20.6508 13.3503 20.66 13.3503 20.6692V22.4768C13.3503 22.6349 13.216 22.7631 13.0503 22.7631C12.8846 22.7631 12.7503 22.6349 12.7503 22.4768V20.682C12.7357 20.5158 12.7592 20.3487 12.8191 20.1918C12.8808 20.0304 12.9794 19.8841 13.1078 19.7633C13.2361 19.6424 13.3909 19.55 13.5611 19.4924C13.7265 19.4365 13.9025 19.4146 14.0774 19.4283Z" fill="#333333" stroke="#333333"  stroke-width="0.5"/>
<path fill-rule="evenodd" clip-rule="evenodd" d="M5.69922 2.00405C5.69922 1.21357 6.37079 0.572754 7.19922 0.572754H17.3992C18.2276 0.572754 18.8992 1.21357 18.8992 2.00405V7.44296C18.8992 8.23344 18.2276 8.87425 17.3992 8.87425H12.424L10.5008 10.7201C10.1233 11.0823 9.47528 10.8273 9.47528 10.3164V8.87425H7.19922C6.37079 8.87425 5.69922 8.23344 5.69922 7.44296V2.00405ZM7.19922 1.14527C6.70216 1.14527 6.29922 1.52976 6.29922 2.00405V7.44296C6.29922 7.91725 6.70216 8.30173 7.19922 8.30173H10.0753V10.3164L12.1744 8.30173H17.3992C17.8963 8.30173 18.2992 7.91725 18.2992 7.44296V2.00405C18.2992 1.52976 17.8963 1.14527 17.3992 1.14527H7.19922Z" fill="#333333" stroke="#333333" stroke-width="0.5"/>
</svg>
