<svg width="334" height="265" viewBox="0 0 334 265" fill="none" xmlns="http://www.w3.org/2000/svg">
<path opacity="0.1" d="M160.342 29.3001C96.0521 28.8396 44.2429 80.5451 26.3745 106.455C1.35911 142.73 33.7359 200.125 96.746 217.773C295.405 273.414 336.283 117.953 278.072 92.661C222.355 68.4526 240.703 29.8757 160.342 29.3001Z" fill="#4C9E45"/>
<path d="M67.1914 129.688L123.975 75.4654C124.465 74.9979 125.274 75.2088 125.482 75.8582L155.16 168.384C155.358 169.001 154.883 169.623 154.241 169.588L78.7165 165.384C78.3357 165.363 78.0062 165.107 77.8888 164.741L66.9514 130.642C66.8427 130.303 66.936 129.932 67.1914 129.688Z" stroke="#173415" stroke-width="3"/>
<path d="M57.0433 134.914L46.4852 135.034C45.8684 135.041 45.4371 135.647 45.6271 136.239L57.6113 173.602C57.7939 174.171 58.4552 174.422 58.9617 174.115L67.8309 168.729C68.1943 168.509 68.3584 168.064 68.2274 167.656L57.932 135.559C57.8077 135.171 57.447 134.91 57.0433 134.914Z" stroke="#173415" stroke-width="3"/>
<path d="M134.499 70.9334C133.015 66.3082 135.528 61.3672 140.111 59.8972C144.693 58.4273 149.611 60.9851 151.095 65.6102L181.915 161.697C183.399 166.322 180.886 171.264 176.303 172.733C171.721 174.203 166.803 171.646 165.319 167.02L134.499 70.9334Z" stroke="#173415" stroke-width="3"/>
<path d="M129.669 179.316C115.964 191.974 98.934 183.432 92.1322 177.58C88.8661 174.771 85.5142 180.596 87.9616 182.704C108.946 202.283 131.212 190.022 135.49 182.244C136.803 179.856 132.438 176.122 129.669 179.316Z" stroke="#173415" stroke-width="3"/>
<path d="M67.2134 129.416L124.352 75.5674C124.845 75.1031 125.652 75.3193 125.856 75.9701L154.926 168.689C155.12 169.307 154.641 169.926 153.999 169.886L78.5038 165.187C78.1231 165.163 77.7954 164.905 77.6804 164.538L66.9672 130.368C66.8607 130.028 66.9565 129.659 67.2134 129.416Z" fill="white"/>
<path d="M57.0312 134.575L46.4726 134.626C45.8558 134.629 45.4204 135.232 45.6065 135.825L57.3451 173.266C57.5239 173.836 58.1836 174.092 58.6921 173.787L67.5965 168.46C67.9614 168.242 68.1283 167.799 68 167.39L57.9157 135.226C57.7939 134.837 57.4349 134.573 57.0312 134.575Z" fill="white"/>
<path d="M134.905 71.1046C133.452 66.4698 135.997 61.5454 140.589 60.1055C145.182 58.6657 150.083 61.2557 151.536 65.8905L181.724 162.178C183.178 166.813 180.633 171.737 176.04 173.177C171.448 174.617 166.547 172.027 165.094 167.392L134.905 71.1046Z" fill="white"/>
<path d="M129.364 179.453C115.576 192.021 98.6024 183.368 91.8392 177.47C88.5915 174.64 85.2014 180.443 87.635 182.567C108.49 202.284 130.837 190.169 135.165 182.419C136.494 180.04 132.153 176.278 129.364 179.453Z" fill="white"/>
<path d="M67.2134 129.416L124.352 75.5674C124.845 75.1031 125.652 75.3193 125.856 75.9701L154.926 168.689C155.12 169.307 154.641 169.926 153.999 169.886L78.5038 165.187C78.1231 165.163 77.7954 164.905 77.6804 164.538L66.9672 130.368C66.8607 130.028 66.9565 129.659 67.2134 129.416Z" stroke="#2B4828" stroke-width="3"/>
<path d="M57.0312 134.575L46.4726 134.626C45.8558 134.629 45.4204 135.232 45.6065 135.825L57.3451 173.266C57.5239 173.836 58.1836 174.092 58.6921 173.787L67.5965 168.46C67.9614 168.242 68.1283 167.799 68 167.39L57.9157 135.226C57.7939 134.837 57.4349 134.573 57.0312 134.575Z" stroke="#2B4828" stroke-width="3"/>
<path d="M134.905 71.1046C133.452 66.4698 135.997 61.5454 140.589 60.1055C145.182 58.6657 150.083 61.2557 151.536 65.8905L181.724 162.178C183.178 166.813 180.633 171.737 176.04 173.177C171.448 174.617 166.547 172.027 165.094 167.392L134.905 71.1046Z" stroke="#2B4828" stroke-width="3"/>
<path d="M129.364 179.453C115.576 192.021 98.6024 183.368 91.8392 177.47C88.5915 174.64 85.2014 180.443 87.635 182.567C108.49 202.284 130.837 190.169 135.165 182.419C136.494 180.04 132.153 176.278 129.364 179.453Z" stroke="#2B4828" stroke-width="3"/>
<g filter="url(#filter0_i_1818_14456)">
<path d="M67.2134 129.416L124.352 75.5674C124.845 75.1031 125.652 75.3193 125.856 75.9701L154.926 168.689C155.12 169.307 154.641 169.926 153.999 169.886L78.5038 165.187C78.1231 165.163 77.7954 164.905 77.6804 164.538L66.9672 130.368C66.8607 130.028 66.9565 129.659 67.2134 129.416Z" fill="white"/>
<path d="M57.0312 134.575L46.4726 134.626C45.8558 134.629 45.4204 135.232 45.6065 135.825L57.3451 173.266C57.5239 173.836 58.1836 174.092 58.6921 173.787L67.5965 168.46C67.9614 168.242 68.1283 167.799 68 167.39L57.9157 135.226C57.7939 134.837 57.4349 134.573 57.0312 134.575Z" fill="white"/>
<path d="M134.905 71.1046C133.452 66.4698 135.997 61.5454 140.589 60.1055C145.182 58.6657 150.083 61.2557 151.536 65.8905L181.724 162.178C183.178 166.813 180.633 171.737 176.04 173.177C171.448 174.617 166.547 172.027 165.094 167.392L134.905 71.1046Z" fill="white"/>
</g>
<path d="M67.2134 129.416L124.352 75.5674C124.845 75.1031 125.652 75.3193 125.856 75.9701L154.926 168.689C155.12 169.307 154.641 169.926 153.999 169.886L78.5038 165.187C78.1231 165.163 77.7954 164.905 77.6804 164.538L66.9672 130.368C66.8607 130.028 66.9565 129.659 67.2134 129.416Z" stroke="#2B4828" stroke-width="3"/>
<path d="M57.0312 134.575L46.4726 134.626C45.8558 134.629 45.4204 135.232 45.6065 135.825L57.3451 173.266C57.5239 173.836 58.1836 174.092 58.6921 173.787L67.5965 168.46C67.9614 168.242 68.1283 167.799 68 167.39L57.9157 135.226C57.7939 134.837 57.4349 134.573 57.0312 134.575Z" stroke="#2B4828" stroke-width="3"/>
<path d="M134.905 71.1046C133.452 66.4698 135.997 61.5454 140.589 60.1055C145.182 58.6657 150.083 61.2557 151.536 65.8905L181.724 162.178C183.178 166.813 180.633 171.737 176.04 173.177C171.448 174.617 166.547 172.027 165.094 167.392L134.905 71.1046Z" stroke="#2B4828" stroke-width="3"/>
<path d="M219.146 142.228L242.818 135.221C243.969 134.88 245.203 134.99 246.247 135.527C247.291 136.064 248.061 136.984 248.387 138.084L262.91 187.143C263.07 187.688 263.117 188.26 263.048 188.828C262.978 189.395 262.793 189.947 262.504 190.451C262.215 190.954 261.827 191.401 261.362 191.765C260.897 192.128 260.365 192.402 259.795 192.57L226.308 202.483C225.739 202.652 225.143 202.712 224.555 202.66C223.967 202.608 223.399 202.445 222.882 202.18C222.365 201.914 221.91 201.552 221.542 201.114C221.175 200.676 220.903 200.17 220.741 199.626L208.797 159.277C208.694 158.928 208.666 158.559 208.715 158.195C208.764 157.831 208.89 157.478 209.084 157.159L217.397 143.56C217.788 142.922 218.413 142.446 219.146 142.228Z" fill="white"/>
<g filter="url(#filter1_d_1818_14456)">
<path fill-rule="evenodd" clip-rule="evenodd" d="M217.985 140.738C217.245 140.957 216.62 141.46 216.244 142.139L208.097 156.859C207.708 157.56 207.618 158.392 207.847 159.165L219.96 200.084C220.741 202.722 223.493 204.234 226.107 203.46L260.497 193.28C263.111 192.506 264.596 189.74 263.815 187.102L248.918 136.777C248.137 134.139 245.385 132.627 242.771 133.401L217.985 140.738ZM218.402 142.706C218.221 142.794 218.07 142.937 217.971 143.116L209.823 157.836C209.694 158.07 209.664 158.347 209.74 158.604L221.853 199.523C222.321 201.106 223.973 202.014 225.541 201.549L259.931 191.369C261.499 190.905 262.391 189.245 261.922 187.662L247.025 137.338C246.557 135.754 244.905 134.847 243.337 135.312L220.237 142.15L223.338 152.629C223.628 153.607 223.509 154.652 223.023 155.533C222.537 156.412 221.727 157.058 220.774 157.339L216.056 158.736C215.548 158.887 215.011 158.584 214.856 158.059C214.701 157.535 214.987 156.989 215.494 156.839L220.213 155.442C220.704 155.297 221.109 154.967 221.346 154.537C221.583 154.109 221.632 153.619 221.5 153.173L218.402 142.706Z" fill="#2B4828"/>
</g>
<path fill-rule="evenodd" clip-rule="evenodd" d="M229.047 162.229C228.524 162.384 228.211 162.885 228.348 163.349C228.485 163.812 229.021 164.062 229.544 163.907L247.89 158.476C248.413 158.321 248.726 157.82 248.589 157.357C248.452 156.893 247.916 156.643 247.393 156.798L229.047 162.229ZM225.247 163.349C225.55 162.854 225.381 162.231 224.871 161.958C224.36 161.686 223.7 161.866 223.397 162.361L220.717 166.738L219.106 165.938C218.587 165.68 217.932 165.878 217.644 166.381C217.356 166.884 217.543 167.501 218.063 167.759L220.587 169.013C221.096 169.266 221.737 169.082 222.034 168.597L225.247 163.349ZM227.12 169.549C227.631 169.821 227.8 170.442 227.497 170.937L224.285 176.187C223.987 176.673 223.345 176.857 222.836 176.604L220.31 175.345C219.792 175.087 219.605 174.47 219.894 173.968C220.183 173.466 220.838 173.268 221.357 173.527L222.968 174.33L225.647 169.952C225.95 169.457 226.609 169.277 227.12 169.549ZM231.545 170.664C231.022 170.818 230.709 171.32 230.846 171.783C230.983 172.246 231.519 172.497 232.042 172.342L250.388 166.911C250.911 166.756 251.224 166.255 251.087 165.791C250.95 165.328 250.415 165.078 249.891 165.233L231.545 170.664ZM229.615 177.983C230.126 178.256 230.294 178.878 229.991 179.373L226.778 184.621C226.482 185.106 225.841 185.291 225.332 185.038L222.807 183.784C222.288 183.525 222.101 182.909 222.389 182.406C222.677 181.903 223.331 181.704 223.851 181.962L225.462 182.763L228.142 178.386C228.445 177.891 229.105 177.71 229.615 177.983ZM233.789 178.254C233.266 178.409 232.953 178.91 233.09 179.373C233.227 179.837 233.763 180.087 234.286 179.932L252.632 174.501C253.155 174.346 253.468 173.845 253.331 173.381C253.194 172.918 252.659 172.668 252.135 172.823L233.789 178.254ZM231.862 185.573C232.373 185.844 232.541 186.466 232.238 186.961L229.026 192.211C228.729 192.697 228.087 192.881 227.578 192.628L225.052 191.369C224.533 191.11 224.347 190.494 224.636 189.992C224.925 189.49 225.58 189.292 226.099 189.551L227.71 190.354L230.388 185.976C230.691 185.481 231.351 185.301 231.862 185.573ZM236.289 186.687C235.766 186.841 235.453 187.343 235.59 187.806C235.727 188.269 236.263 188.519 236.786 188.365L255.132 182.934C255.655 182.779 255.968 182.278 255.831 181.814C255.694 181.351 255.159 181.101 254.635 181.256L236.289 186.687Z" fill="#2B4828"/>
<path fill-rule="evenodd" clip-rule="evenodd" d="M300.788 90.3258L298.642 92.7904L299.983 93.9834L298.345 92.7947L295.556 95.8272L299.352 99.0002L302.303 96.0482L302.655 96.3614L307.004 91.3854L305.479 90.033C304.818 89.4451 303.953 89.1458 303.074 89.2006C302.194 89.2555 301.372 89.6601 300.788 90.3258ZM268.777 124.529L295.671 96.3617L299.835 99.7269L273.394 127.42C271.977 126.3 270.429 125.331 268.777 124.529ZM269.411 125.031L267.584 131.307L267.587 131.309C268.145 131.541 268.668 131.839 269.139 132.198L273.557 127.606C272.285 126.609 270.894 125.745 269.411 125.031Z" fill="#D3D6D9"/>
<path fill-rule="evenodd" clip-rule="evenodd" d="M306.844 99.475L307.002 99.5978L304.17 102.334L304.128 102.304L299.519 98.7367L302.352 96.0002L302.465 96.088L306.562 91.5834L308.272 93.0425C308.93 93.6071 309.33 94.4022 309.384 95.253C309.439 96.1038 309.143 96.9407 308.561 97.5797L306.844 99.475ZM273.557 126.912L299.194 98.7508L303.379 102.311L303.42 102.344L277.34 131.003C277.34 131.003 276.156 129.065 273.557 126.912ZM273.44 127.419L268.777 132.922C269.294 133.337 269.714 133.866 270.009 134.471L270.051 134.586L277.139 131.692C277.139 131.692 275.983 129.679 273.44 127.419Z" fill="white"/>
<path fill-rule="evenodd" clip-rule="evenodd" d="M302.274 91.444C303.123 90.5393 304.549 90.4708 305.483 91.29L308.257 93.7227C309.217 94.5654 309.289 96.0223 308.417 96.9535L307.241 98.2075L304.053 95.4662L304.053 95.4662L300.979 92.8233L302.274 91.444ZM299.279 94.6355L297.899 96.1059L304.293 101.352L305.541 100.02L302.477 97.3859L302.477 97.3859L299.279 94.6355ZM302.564 103.197L298.974 100.251L296.169 97.9497L271.239 124.517C272.39 125.233 273.476 126.067 274.484 127.007C275.614 128.06 276.441 129.06 276.989 129.804C277.089 129.94 277.181 130.068 277.263 130.187L302.564 103.197ZM275.037 131.069C274.572 130.472 273.926 129.729 273.086 128.947L273.086 128.946C272.8 128.679 272.507 128.422 272.207 128.175C271.544 127.627 270.847 127.128 270.121 126.68L268.991 130.662C269.219 130.857 269.438 131.069 269.649 131.296C270.045 131.7 270.393 132.181 270.681 132.723L275.037 131.069ZM268.176 133.674C268.166 133.663 268.155 133.652 268.145 133.642L268.131 133.69L268.176 133.674ZM307.313 89.2586C305.258 87.4566 302.12 87.6072 300.253 89.5975L268.043 123.924L264 138.17L278.795 132.555L310.439 98.799C312.359 96.7505 312.2 93.5453 310.086 91.6914L307.313 89.2586Z" fill="#2B4828"/>
<path d="M197.832 76.7705H190.938C190.635 76.7675 190.343 76.6558 190.115 76.4558C189.887 76.2559 189.739 75.9809 189.696 75.6807L188.987 70.3326C187.296 69.8811 185.669 69.2168 184.145 68.3556L179.685 71.5746C179.442 71.7472 179.147 71.8291 178.85 71.8059C178.554 71.7828 178.275 71.656 178.062 71.4479L173.247 66.6321C173.038 66.4034 172.923 66.1051 172.923 65.7957C172.923 65.4863 173.038 65.188 173.247 64.9593L176.516 60.6758C175.602 59.0883 174.912 57.3826 174.463 55.6066L169.115 54.9222C168.808 54.8797 168.527 54.7284 168.322 54.4958C168.117 54.2632 168.003 53.9648 168 53.6549V46.9382C168.003 46.6284 168.117 46.33 168.322 46.0974C168.527 45.8648 168.808 45.7134 169.115 45.6709L174.463 44.9612C174.919 43.28 175.583 41.6622 176.44 40.1455L173.12 35.6846C172.94 35.4402 172.855 35.1396 172.878 34.8373C172.901 34.5351 173.032 34.2511 173.247 34.0371L178.062 29.2213C178.294 29.0182 178.591 28.9061 178.899 28.9061C179.207 28.9061 179.504 29.0182 179.735 29.2213L183.993 32.5163C185.58 31.5945 187.286 30.8952 189.063 30.4379L189.772 25.0899C189.81 24.7875 189.957 24.5094 190.186 24.3085C190.415 24.1075 190.71 23.9977 191.014 24H197.832C198.137 23.9977 198.432 24.1075 198.661 24.3085C198.89 24.5094 199.037 24.7875 199.074 25.0899L199.784 30.4379C201.561 30.8952 203.267 31.5945 204.853 32.5163L209.111 29.2213C209.343 29.0182 209.64 28.9061 209.948 28.9061C210.256 28.9061 210.553 29.0182 210.784 29.2213L215.575 34.0371C215.776 34.2642 215.887 34.5573 215.887 34.8608C215.887 35.1644 215.776 35.4574 215.575 35.6846L212.28 39.9934C213.195 41.5799 213.886 43.2859 214.333 45.0626L219.681 45.7723C219.988 45.8148 220.269 45.9662 220.474 46.1988C220.678 46.4314 220.793 46.7298 220.796 47.0396V53.8324C220.793 54.1422 220.678 54.4406 220.474 54.6732C220.269 54.9058 219.988 55.0571 219.681 55.0997L214.333 55.784C213.892 57.4786 213.227 59.1067 212.356 60.6251L215.575 64.9846C215.759 65.227 215.848 65.5287 215.825 65.8325C215.802 66.1363 215.667 66.4209 215.448 66.6321L210.632 71.4479C210.398 71.6461 210.102 71.755 209.796 71.755C209.489 71.755 209.193 71.6461 208.959 71.4479L204.701 68.1529C203.109 69.0639 201.405 69.7627 199.632 70.2313L198.922 75.5793C198.907 75.8736 198.79 76.1535 198.592 76.3709C198.393 76.5884 198.124 76.7297 197.832 76.7705ZM192.129 74.2359H196.717L197.376 69.1667C197.417 68.9086 197.532 68.668 197.708 68.4744C197.883 68.2808 198.112 68.1427 198.365 68.0768C200.423 67.6242 202.386 66.8181 204.169 65.6943C204.383 65.5415 204.64 65.4594 204.904 65.4594C205.167 65.4594 205.424 65.5415 205.639 65.6943L209.72 68.8372L212.964 65.5676L209.897 61.3094C209.755 61.0999 209.68 60.8527 209.68 60.5998C209.68 60.3468 209.755 60.0996 209.897 59.8901C210.991 58.1558 211.772 56.2426 212.204 54.2379C212.268 54.0457 212.377 53.8717 212.523 53.7305C212.669 53.5894 212.846 53.4853 213.04 53.4268L218.109 52.7425V48.1802L213.04 47.4958C212.784 47.4567 212.546 47.3415 212.356 47.1653C212.166 46.989 212.033 46.7598 211.975 46.5073C211.515 44.4476 210.701 42.4836 209.568 40.7031C209.42 40.491 209.342 40.2389 209.342 39.9807C209.342 39.7225 209.42 39.4705 209.568 39.2584L212.685 35.1777L209.644 31.8066L205.563 34.9495C205.348 35.1024 205.091 35.1845 204.828 35.1845C204.564 35.1845 204.307 35.1024 204.093 34.9495C202.324 33.7672 200.358 32.909 198.289 32.4149C198.035 32.3602 197.803 32.2288 197.627 32.0384C197.45 31.8479 197.336 31.6078 197.3 31.3504L196.641 26.2812H192.053L191.394 31.3504C191.362 31.6091 191.249 31.8512 191.072 32.0423C190.895 32.2333 190.662 32.3637 190.406 32.4149C188.338 32.914 186.373 33.7719 184.602 34.9495C184.392 35.1039 184.139 35.1872 183.879 35.1872C183.619 35.1872 183.366 35.1039 183.157 34.9495L179.076 31.8066L175.807 35.0763L178.873 39.3344C179.016 39.5388 179.093 39.7821 179.093 40.0314C179.093 40.2808 179.016 40.5241 178.873 40.7284C177.794 42.4703 177.014 44.3808 176.567 46.3806C176.512 46.6346 176.381 46.8657 176.19 47.0425C176 47.2193 175.76 47.3334 175.502 47.3691L170.433 48.0535V52.6157L175.502 53.3001C175.758 53.3307 175.997 53.4398 176.188 53.6123C176.379 53.7848 176.511 54.0122 176.567 54.2632C177.022 56.3326 177.837 58.3058 178.975 60.0928C179.122 60.305 179.201 60.557 179.201 60.8152C179.201 61.0734 179.122 61.3254 178.975 61.5376L175.832 65.6183L179.076 68.8879L183.334 65.7957C183.546 65.6603 183.793 65.5883 184.044 65.5883C184.296 65.5883 184.542 65.6603 184.754 65.7957C186.49 66.8853 188.403 67.6657 190.406 68.1022C190.662 68.1618 190.894 68.298 191.07 68.4928C191.247 68.6875 191.36 68.9314 191.394 69.1921L192.129 74.2359Z" fill="#2B4828"/>
<path d="M192.129 74.2359H196.717L197.376 69.1667C197.417 68.9086 197.532 68.668 197.708 68.4744C197.883 68.2808 198.112 68.1427 198.365 68.0768C200.423 67.6242 202.386 66.8181 204.169 65.6943C204.383 65.5415 204.64 65.4594 204.904 65.4594C205.167 65.4594 205.424 65.5415 205.639 65.6943L209.72 68.8372L212.964 65.5676L209.897 61.3094C209.755 61.0999 209.68 60.8527 209.68 60.5998C209.68 60.3468 209.755 60.0996 209.897 59.8901C210.991 58.1558 211.772 56.2426 212.204 54.2379C212.268 54.0457 212.377 53.8717 212.523 53.7305C212.669 53.5894 212.846 53.4853 213.04 53.4268L218.109 52.7425V48.1802L213.04 47.4958C212.784 47.4567 212.546 47.3415 212.356 47.1653C212.166 46.989 212.033 46.7598 211.975 46.5073C211.515 44.4476 210.701 42.4836 209.568 40.7031C209.42 40.491 209.342 40.2389 209.342 39.9807C209.342 39.7225 209.42 39.4705 209.568 39.2584L212.685 35.1777L209.644 31.8066L205.563 34.9495C205.348 35.1024 205.091 35.1845 204.828 35.1845C204.564 35.1845 204.307 35.1024 204.093 34.9495C202.324 33.7672 200.358 32.909 198.289 32.4149C198.035 32.3602 197.803 32.2288 197.627 32.0384C197.45 31.8479 197.336 31.6078 197.3 31.3504L196.641 26.2812H192.053L191.394 31.3504C191.362 31.6091 191.249 31.8512 191.072 32.0423C190.895 32.2333 190.662 32.3637 190.406 32.4149C188.338 32.914 186.373 33.7719 184.602 34.9495C184.392 35.1039 184.139 35.1872 183.879 35.1872C183.619 35.1872 183.366 35.1039 183.157 34.9495L179.076 31.8066L175.807 35.0763L178.873 39.3344C179.016 39.5388 179.093 39.7821 179.093 40.0314C179.093 40.2808 179.016 40.5241 178.873 40.7284C177.794 42.4703 177.014 44.3808 176.567 46.3806C176.512 46.6346 176.381 46.8657 176.19 47.0425C176 47.2193 175.76 47.3334 175.502 47.3691L170.433 48.0535V52.6157L175.502 53.3001C175.758 53.3307 175.997 53.4398 176.188 53.6123C176.379 53.7848 176.511 54.0122 176.567 54.2632C177.022 56.3326 177.837 58.3058 178.975 60.0928C179.122 60.305 179.201 60.557 179.201 60.8152C179.201 61.0734 179.122 61.3254 178.975 61.5376L175.832 65.6183L179.076 68.8879L183.334 65.7957C183.546 65.6603 183.793 65.5883 184.044 65.5883C184.296 65.5883 184.542 65.6603 184.754 65.7957C186.49 66.8853 188.403 67.6657 190.406 68.1022C190.662 68.1618 190.894 68.298 191.07 68.4928C191.247 68.6875 191.36 68.9314 191.394 69.1921L192.129 74.2359Z" fill="white"/>
<g filter="url(#filter2_d_1818_14456)">
<path fill-rule="evenodd" clip-rule="evenodd" d="M194.03 57.12C197.945 57.12 201.119 53.9461 201.119 50.0309C201.119 46.1157 197.945 42.9418 194.03 42.9418C190.115 42.9418 186.941 46.1157 186.941 50.0309C186.941 53.9461 190.115 57.12 194.03 57.12ZM194.03 59.6213C199.327 59.6213 203.621 55.3275 203.621 50.0309C203.621 44.7343 199.327 40.4405 194.03 40.4405C188.733 40.4405 184.44 44.7343 184.44 50.0309C184.44 55.3275 188.733 59.6213 194.03 59.6213Z" fill="#2B4828"/>
</g>
<mask id="path-13-inside-1_1818_14456" fill="white">
<path d="M237.921 111.314H232.393C232.15 111.311 231.916 111.222 231.733 111.061C231.55 110.901 231.431 110.681 231.397 110.44L230.828 106.152C229.472 105.79 228.168 105.257 226.946 104.566L223.369 107.147C223.175 107.286 222.938 107.352 222.7 107.333C222.463 107.314 222.239 107.213 222.068 107.046L218.207 103.184C218.04 103.001 217.947 102.762 217.947 102.514C217.947 102.266 218.04 102.026 218.207 101.843L220.829 98.4083C220.096 97.1354 219.542 95.7676 219.183 94.3436L214.894 93.7948C214.648 93.7608 214.422 93.6394 214.258 93.4529C214.094 93.2664 214.003 93.0271 214 92.7787V87.3929C214.003 87.1445 214.094 86.9052 214.258 86.7187C214.422 86.5322 214.648 86.4108 214.894 86.3767L219.183 85.8077C219.548 84.4596 220.081 83.1624 220.768 81.9462L218.105 78.3692C217.961 78.1733 217.893 77.9322 217.911 77.6899C217.93 77.4475 218.035 77.2198 218.207 77.0482L222.068 73.1867C222.254 73.0238 222.492 72.9339 222.739 72.9339C222.986 72.9339 223.224 73.0238 223.41 73.1867L226.824 75.8288C228.096 75.0896 229.464 74.5289 230.889 74.1622L231.458 69.8739C231.488 69.6315 231.606 69.4085 231.789 69.2473C231.973 69.0862 232.21 68.9982 232.454 69H237.921C238.165 68.9982 238.402 69.0862 238.585 69.2473C238.769 69.4085 238.887 69.6315 238.917 69.8739L239.486 74.1622C240.911 74.5289 242.278 75.0896 243.551 75.8288L246.965 73.1867C247.15 73.0238 247.389 72.9339 247.636 72.9339C247.882 72.9339 248.121 73.0238 248.306 73.1867L252.147 77.0482C252.309 77.2303 252.398 77.4653 252.398 77.7087C252.398 77.9521 252.309 78.1871 252.147 78.3692L249.505 81.8242C250.24 83.0963 250.794 84.4643 251.152 85.889L255.44 86.458C255.686 86.4921 255.912 86.6135 256.076 86.8C256.24 86.9865 256.332 87.2258 256.334 87.4742V92.9209C256.332 93.1694 256.24 93.4086 256.076 93.5951C255.912 93.7817 255.686 93.903 255.44 93.9371L251.152 94.4858C250.799 95.8447 250.265 97.1502 249.566 98.3677L252.147 101.863C252.295 102.058 252.367 102.3 252.348 102.543C252.329 102.787 252.222 103.015 252.046 103.184L248.184 107.046C247.997 107.205 247.759 107.292 247.514 107.292C247.268 107.292 247.03 107.205 246.843 107.046L243.429 104.404C242.152 105.134 240.786 105.695 239.364 106.07L238.795 110.359C238.783 110.595 238.689 110.819 238.53 110.993C238.37 111.168 238.155 111.281 237.921 111.314ZM233.348 109.281H237.027L237.555 105.217C237.588 105.01 237.68 104.817 237.821 104.662C237.962 104.506 238.145 104.396 238.348 104.343C239.998 103.98 241.573 103.333 243.002 102.432C243.174 102.31 243.38 102.244 243.591 102.244C243.802 102.244 244.008 102.31 244.181 102.432L247.453 104.953L250.054 102.331L247.595 98.9164C247.481 98.7484 247.421 98.5502 247.421 98.3473C247.421 98.1445 247.481 97.9463 247.595 97.7783C248.472 96.3877 249.098 94.8536 249.444 93.2461C249.496 93.092 249.584 92.9524 249.701 92.8393C249.817 92.7261 249.959 92.6426 250.115 92.5958L254.18 92.047V88.3888L250.115 87.84C249.91 87.8086 249.719 87.7163 249.566 87.575C249.414 87.4336 249.308 87.2498 249.261 87.0474C248.893 85.3958 248.239 83.821 247.331 82.3933C247.213 82.2232 247.149 82.0211 247.149 81.8141C247.149 81.607 247.213 81.405 247.331 81.2348L249.831 77.9627L247.392 75.2597L244.12 77.7798C243.948 77.9024 243.741 77.9682 243.53 77.9682C243.319 77.9682 243.113 77.9024 242.941 77.7798C241.522 76.8318 239.946 76.1436 238.287 75.7475C238.083 75.7036 237.898 75.5982 237.756 75.4455C237.614 75.2928 237.523 75.1003 237.494 74.8939L236.966 70.8292H233.287L232.759 74.8939C232.733 75.1013 232.642 75.2954 232.5 75.4486C232.358 75.6019 232.171 75.7064 231.966 75.7475C230.308 76.1477 228.733 76.8356 227.312 77.7798C227.144 77.9036 226.941 77.9704 226.733 77.9704C226.524 77.9704 226.321 77.9036 226.154 77.7798L222.881 75.2597L220.26 77.8814L222.719 81.2958C222.833 81.4597 222.895 81.6548 222.895 81.8547C222.895 82.0546 222.833 82.2498 222.719 82.4136C221.853 83.8103 221.228 85.3423 220.869 86.9458C220.826 87.1495 220.72 87.3348 220.567 87.4765C220.415 87.6183 220.222 87.7097 220.016 87.7384L215.951 88.2871V91.9454L220.016 92.4941C220.221 92.5187 220.413 92.6061 220.565 92.7445C220.718 92.8828 220.825 93.0652 220.869 93.2664C221.234 94.9257 221.888 96.5079 222.8 97.9409C222.918 98.111 222.981 98.3131 222.981 98.5201C222.981 98.7271 222.918 98.9292 222.8 99.0993L220.28 102.371L222.881 104.993L226.296 102.514C226.466 102.405 226.663 102.347 226.865 102.347C227.067 102.347 227.264 102.405 227.434 102.514C228.826 103.387 230.36 104.013 231.966 104.363C232.171 104.411 232.357 104.52 232.499 104.676C232.64 104.832 232.731 105.028 232.759 105.237L233.348 109.281Z"/>
<path d="M233.348 109.281H237.027L237.555 105.217C237.588 105.01 237.68 104.817 237.821 104.662C237.962 104.506 238.145 104.396 238.348 104.343C239.998 103.98 241.573 103.333 243.002 102.432C243.174 102.31 243.38 102.244 243.591 102.244C243.802 102.244 244.008 102.31 244.181 102.432L247.453 104.953L250.054 102.331L247.595 98.9164C247.481 98.7484 247.421 98.5502 247.421 98.3473C247.421 98.1445 247.481 97.9463 247.595 97.7783C248.472 96.3877 249.098 94.8536 249.444 93.2461C249.496 93.092 249.584 92.9524 249.701 92.8393C249.817 92.7261 249.959 92.6426 250.115 92.5958L254.18 92.047V88.3888L250.115 87.84C249.91 87.8086 249.719 87.7163 249.566 87.575C249.414 87.4336 249.308 87.2498 249.261 87.0474C248.893 85.3958 248.239 83.821 247.331 82.3933C247.213 82.2232 247.149 82.0211 247.149 81.8141C247.149 81.607 247.213 81.405 247.331 81.2348L249.831 77.9627L247.392 75.2597L244.12 77.7798C243.948 77.9024 243.741 77.9682 243.53 77.9682C243.319 77.9682 243.113 77.9024 242.941 77.7798C241.522 76.8318 239.946 76.1436 238.287 75.7475C238.083 75.7036 237.898 75.5982 237.756 75.4455C237.614 75.2928 237.523 75.1003 237.494 74.8939L236.966 70.8292H233.287L232.759 74.8939C232.733 75.1013 232.642 75.2954 232.5 75.4486C232.358 75.6019 232.171 75.7064 231.966 75.7475C230.308 76.1477 228.733 76.8356 227.312 77.7798C227.144 77.9036 226.941 77.9704 226.733 77.9704C226.524 77.9704 226.321 77.9036 226.154 77.7798L222.881 75.2597L220.26 77.8814L222.719 81.2958C222.833 81.4597 222.895 81.6548 222.895 81.8547C222.895 82.0546 222.833 82.2498 222.719 82.4136C221.853 83.8103 221.228 85.3423 220.869 86.9458C220.826 87.1495 220.72 87.3348 220.567 87.4765C220.415 87.6183 220.222 87.7097 220.016 87.7384L215.951 88.2871V91.9454L220.016 92.4941C220.221 92.5187 220.413 92.6061 220.565 92.7445C220.718 92.8828 220.825 93.0652 220.869 93.2664C221.234 94.9257 221.888 96.5079 222.8 97.9409C222.918 98.111 222.981 98.3131 222.981 98.5201C222.981 98.7271 222.918 98.9292 222.8 99.0993L220.28 102.371L222.881 104.993L226.296 102.514C226.466 102.405 226.663 102.347 226.865 102.347C227.067 102.347 227.264 102.405 227.434 102.514C228.826 103.387 230.36 104.013 231.966 104.363C232.171 104.411 232.357 104.52 232.499 104.676C232.64 104.832 232.731 105.028 232.759 105.237L233.348 109.281Z"/>
</mask>
<path d="M237.921 111.314H232.393C232.15 111.311 231.916 111.222 231.733 111.061C231.55 110.901 231.431 110.681 231.397 110.44L230.828 106.152C229.472 105.79 228.168 105.257 226.946 104.566L223.369 107.147C223.175 107.286 222.938 107.352 222.7 107.333C222.463 107.314 222.239 107.213 222.068 107.046L218.207 103.184C218.04 103.001 217.947 102.762 217.947 102.514C217.947 102.266 218.04 102.026 218.207 101.843L220.829 98.4083C220.096 97.1354 219.542 95.7676 219.183 94.3436L214.894 93.7948C214.648 93.7608 214.422 93.6394 214.258 93.4529C214.094 93.2664 214.003 93.0271 214 92.7787V87.3929C214.003 87.1445 214.094 86.9052 214.258 86.7187C214.422 86.5322 214.648 86.4108 214.894 86.3767L219.183 85.8077C219.548 84.4596 220.081 83.1624 220.768 81.9462L218.105 78.3692C217.961 78.1733 217.893 77.9322 217.911 77.6899C217.93 77.4475 218.035 77.2198 218.207 77.0482L222.068 73.1867C222.254 73.0238 222.492 72.9339 222.739 72.9339C222.986 72.9339 223.224 73.0238 223.41 73.1867L226.824 75.8288C228.096 75.0896 229.464 74.5289 230.889 74.1622L231.458 69.8739C231.488 69.6315 231.606 69.4085 231.789 69.2473C231.973 69.0862 232.21 68.9982 232.454 69H237.921C238.165 68.9982 238.402 69.0862 238.585 69.2473C238.769 69.4085 238.887 69.6315 238.917 69.8739L239.486 74.1622C240.911 74.5289 242.278 75.0896 243.551 75.8288L246.965 73.1867C247.15 73.0238 247.389 72.9339 247.636 72.9339C247.882 72.9339 248.121 73.0238 248.306 73.1867L252.147 77.0482C252.309 77.2303 252.398 77.4653 252.398 77.7087C252.398 77.9521 252.309 78.1871 252.147 78.3692L249.505 81.8242C250.24 83.0963 250.794 84.4643 251.152 85.889L255.44 86.458C255.686 86.4921 255.912 86.6135 256.076 86.8C256.24 86.9865 256.332 87.2258 256.334 87.4742V92.9209C256.332 93.1694 256.24 93.4086 256.076 93.5951C255.912 93.7817 255.686 93.903 255.44 93.9371L251.152 94.4858C250.799 95.8447 250.265 97.1502 249.566 98.3677L252.147 101.863C252.295 102.058 252.367 102.3 252.348 102.543C252.329 102.787 252.222 103.015 252.046 103.184L248.184 107.046C247.997 107.205 247.759 107.292 247.514 107.292C247.268 107.292 247.03 107.205 246.843 107.046L243.429 104.404C242.152 105.134 240.786 105.695 239.364 106.07L238.795 110.359C238.783 110.595 238.689 110.819 238.53 110.993C238.37 111.168 238.155 111.281 237.921 111.314ZM233.348 109.281H237.027L237.555 105.217C237.588 105.01 237.68 104.817 237.821 104.662C237.962 104.506 238.145 104.396 238.348 104.343C239.998 103.98 241.573 103.333 243.002 102.432C243.174 102.31 243.38 102.244 243.591 102.244C243.802 102.244 244.008 102.31 244.181 102.432L247.453 104.953L250.054 102.331L247.595 98.9164C247.481 98.7484 247.421 98.5502 247.421 98.3473C247.421 98.1445 247.481 97.9463 247.595 97.7783C248.472 96.3877 249.098 94.8536 249.444 93.2461C249.496 93.092 249.584 92.9524 249.701 92.8393C249.817 92.7261 249.959 92.6426 250.115 92.5958L254.18 92.047V88.3888L250.115 87.84C249.91 87.8086 249.719 87.7163 249.566 87.575C249.414 87.4336 249.308 87.2498 249.261 87.0474C248.893 85.3958 248.239 83.821 247.331 82.3933C247.213 82.2232 247.149 82.0211 247.149 81.8141C247.149 81.607 247.213 81.405 247.331 81.2348L249.831 77.9627L247.392 75.2597L244.12 77.7798C243.948 77.9024 243.741 77.9682 243.53 77.9682C243.319 77.9682 243.113 77.9024 242.941 77.7798C241.522 76.8318 239.946 76.1436 238.287 75.7475C238.083 75.7036 237.898 75.5982 237.756 75.4455C237.614 75.2928 237.523 75.1003 237.494 74.8939L236.966 70.8292H233.287L232.759 74.8939C232.733 75.1013 232.642 75.2954 232.5 75.4486C232.358 75.6019 232.171 75.7064 231.966 75.7475C230.308 76.1477 228.733 76.8356 227.312 77.7798C227.144 77.9036 226.941 77.9704 226.733 77.9704C226.524 77.9704 226.321 77.9036 226.154 77.7798L222.881 75.2597L220.26 77.8814L222.719 81.2958C222.833 81.4597 222.895 81.6548 222.895 81.8547C222.895 82.0546 222.833 82.2498 222.719 82.4136C221.853 83.8103 221.228 85.3423 220.869 86.9458C220.826 87.1495 220.72 87.3348 220.567 87.4765C220.415 87.6183 220.222 87.7097 220.016 87.7384L215.951 88.2871V91.9454L220.016 92.4941C220.221 92.5187 220.413 92.6061 220.565 92.7445C220.718 92.8828 220.825 93.0652 220.869 93.2664C221.234 94.9257 221.888 96.5079 222.8 97.9409C222.918 98.111 222.981 98.3131 222.981 98.5201C222.981 98.7271 222.918 98.9292 222.8 99.0993L220.28 102.371L222.881 104.993L226.296 102.514C226.466 102.405 226.663 102.347 226.865 102.347C227.067 102.347 227.264 102.405 227.434 102.514C228.826 103.387 230.36 104.013 231.966 104.363C232.171 104.411 232.357 104.52 232.499 104.676C232.64 104.832 232.731 105.028 232.759 105.237L233.348 109.281Z" fill="#2B4828"/>
<path d="M233.348 109.281H237.027L237.555 105.217C237.588 105.01 237.68 104.817 237.821 104.662C237.962 104.506 238.145 104.396 238.348 104.343C239.998 103.98 241.573 103.333 243.002 102.432C243.174 102.31 243.38 102.244 243.591 102.244C243.802 102.244 244.008 102.31 244.181 102.432L247.453 104.953L250.054 102.331L247.595 98.9164C247.481 98.7484 247.421 98.5502 247.421 98.3473C247.421 98.1445 247.481 97.9463 247.595 97.7783C248.472 96.3877 249.098 94.8536 249.444 93.2461C249.496 93.092 249.584 92.9524 249.701 92.8393C249.817 92.7261 249.959 92.6426 250.115 92.5958L254.18 92.047V88.3888L250.115 87.84C249.91 87.8086 249.719 87.7163 249.566 87.575C249.414 87.4336 249.308 87.2498 249.261 87.0474C248.893 85.3958 248.239 83.821 247.331 82.3933C247.213 82.2232 247.149 82.0211 247.149 81.8141C247.149 81.607 247.213 81.405 247.331 81.2348L249.831 77.9627L247.392 75.2597L244.12 77.7798C243.948 77.9024 243.741 77.9682 243.53 77.9682C243.319 77.9682 243.113 77.9024 242.941 77.7798C241.522 76.8318 239.946 76.1436 238.287 75.7475C238.083 75.7036 237.898 75.5982 237.756 75.4455C237.614 75.2928 237.523 75.1003 237.494 74.8939L236.966 70.8292H233.287L232.759 74.8939C232.733 75.1013 232.642 75.2954 232.5 75.4486C232.358 75.6019 232.171 75.7064 231.966 75.7475C230.308 76.1477 228.733 76.8356 227.312 77.7798C227.144 77.9036 226.941 77.9704 226.733 77.9704C226.524 77.9704 226.321 77.9036 226.154 77.7798L222.881 75.2597L220.26 77.8814L222.719 81.2958C222.833 81.4597 222.895 81.6548 222.895 81.8547C222.895 82.0546 222.833 82.2498 222.719 82.4136C221.853 83.8103 221.228 85.3423 220.869 86.9458C220.826 87.1495 220.72 87.3348 220.567 87.4765C220.415 87.6183 220.222 87.7097 220.016 87.7384L215.951 88.2871V91.9454L220.016 92.4941C220.221 92.5187 220.413 92.6061 220.565 92.7445C220.718 92.8828 220.825 93.0652 220.869 93.2664C221.234 94.9257 221.888 96.5079 222.8 97.9409C222.918 98.111 222.981 98.3131 222.981 98.5201C222.981 98.7271 222.918 98.9292 222.8 99.0993L220.28 102.371L222.881 104.993L226.296 102.514C226.466 102.405 226.663 102.347 226.865 102.347C227.067 102.347 227.264 102.405 227.434 102.514C228.826 103.387 230.36 104.013 231.966 104.363C232.171 104.411 232.357 104.52 232.499 104.676C232.64 104.832 232.731 105.028 232.759 105.237L233.348 109.281Z" fill="white"/>
<path d="M237.921 111.314H232.393C232.15 111.311 231.916 111.222 231.733 111.061C231.55 110.901 231.431 110.681 231.397 110.44L230.828 106.152C229.472 105.79 228.168 105.257 226.946 104.566L223.369 107.147C223.175 107.286 222.938 107.352 222.7 107.333C222.463 107.314 222.239 107.213 222.068 107.046L218.207 103.184C218.04 103.001 217.947 102.762 217.947 102.514C217.947 102.266 218.04 102.026 218.207 101.843L220.829 98.4083C220.096 97.1354 219.542 95.7676 219.183 94.3436L214.894 93.7948C214.648 93.7608 214.422 93.6394 214.258 93.4529C214.094 93.2664 214.003 93.0271 214 92.7787V87.3929C214.003 87.1445 214.094 86.9052 214.258 86.7187C214.422 86.5322 214.648 86.4108 214.894 86.3767L219.183 85.8077C219.548 84.4596 220.081 83.1624 220.768 81.9462L218.105 78.3692C217.961 78.1733 217.893 77.9322 217.911 77.6899C217.93 77.4475 218.035 77.2198 218.207 77.0482L222.068 73.1867C222.254 73.0238 222.492 72.9339 222.739 72.9339C222.986 72.9339 223.224 73.0238 223.41 73.1867L226.824 75.8288C228.096 75.0896 229.464 74.5289 230.889 74.1622L231.458 69.8739C231.488 69.6315 231.606 69.4085 231.789 69.2473C231.973 69.0862 232.21 68.9982 232.454 69H237.921C238.165 68.9982 238.402 69.0862 238.585 69.2473C238.769 69.4085 238.887 69.6315 238.917 69.8739L239.486 74.1622C240.911 74.5289 242.278 75.0896 243.551 75.8288L246.965 73.1867C247.15 73.0238 247.389 72.9339 247.636 72.9339C247.882 72.9339 248.121 73.0238 248.306 73.1867L252.147 77.0482C252.309 77.2303 252.398 77.4653 252.398 77.7087C252.398 77.9521 252.309 78.1871 252.147 78.3692L249.505 81.8242C250.24 83.0963 250.794 84.4643 251.152 85.889L255.44 86.458C255.686 86.4921 255.912 86.6135 256.076 86.8C256.24 86.9865 256.332 87.2258 256.334 87.4742V92.9209C256.332 93.1694 256.24 93.4086 256.076 93.5951C255.912 93.7817 255.686 93.903 255.44 93.9371L251.152 94.4858C250.799 95.8447 250.265 97.1502 249.566 98.3677L252.147 101.863C252.295 102.058 252.367 102.3 252.348 102.543C252.329 102.787 252.222 103.015 252.046 103.184L248.184 107.046C247.997 107.205 247.759 107.292 247.514 107.292C247.268 107.292 247.03 107.205 246.843 107.046L243.429 104.404C242.152 105.134 240.786 105.695 239.364 106.07L238.795 110.359C238.783 110.595 238.689 110.819 238.53 110.993C238.37 111.168 238.155 111.281 237.921 111.314ZM233.348 109.281H237.027L237.555 105.217C237.588 105.01 237.68 104.817 237.821 104.662C237.962 104.506 238.145 104.396 238.348 104.343C239.998 103.98 241.573 103.333 243.002 102.432C243.174 102.31 243.38 102.244 243.591 102.244C243.802 102.244 244.008 102.31 244.181 102.432L247.453 104.953L250.054 102.331L247.595 98.9164C247.481 98.7484 247.421 98.5502 247.421 98.3473C247.421 98.1445 247.481 97.9463 247.595 97.7783C248.472 96.3877 249.098 94.8536 249.444 93.2461C249.496 93.092 249.584 92.9524 249.701 92.8393C249.817 92.7261 249.959 92.6426 250.115 92.5958L254.18 92.047V88.3888L250.115 87.84C249.91 87.8086 249.719 87.7163 249.566 87.575C249.414 87.4336 249.308 87.2498 249.261 87.0474C248.893 85.3958 248.239 83.821 247.331 82.3933C247.213 82.2232 247.149 82.0211 247.149 81.8141C247.149 81.607 247.213 81.405 247.331 81.2348L249.831 77.9627L247.392 75.2597L244.12 77.7798C243.948 77.9024 243.741 77.9682 243.53 77.9682C243.319 77.9682 243.113 77.9024 242.941 77.7798C241.522 76.8318 239.946 76.1436 238.287 75.7475C238.083 75.7036 237.898 75.5982 237.756 75.4455C237.614 75.2928 237.523 75.1003 237.494 74.8939L236.966 70.8292H233.287L232.759 74.8939C232.733 75.1013 232.642 75.2954 232.5 75.4486C232.358 75.6019 232.171 75.7064 231.966 75.7475C230.308 76.1477 228.733 76.8356 227.312 77.7798C227.144 77.9036 226.941 77.9704 226.733 77.9704C226.524 77.9704 226.321 77.9036 226.154 77.7798L222.881 75.2597L220.26 77.8814L222.719 81.2958C222.833 81.4597 222.895 81.6548 222.895 81.8547C222.895 82.0546 222.833 82.2498 222.719 82.4136C221.853 83.8103 221.228 85.3423 220.869 86.9458C220.826 87.1495 220.72 87.3348 220.567 87.4765C220.415 87.6183 220.222 87.7097 220.016 87.7384L215.951 88.2871V91.9454L220.016 92.4941C220.221 92.5187 220.413 92.6061 220.565 92.7445C220.718 92.8828 220.825 93.0652 220.869 93.2664C221.234 94.9257 221.888 96.5079 222.8 97.9409C222.918 98.111 222.981 98.3131 222.981 98.5201C222.981 98.7271 222.918 98.9292 222.8 99.0993L220.28 102.371L222.881 104.993L226.296 102.514C226.466 102.405 226.663 102.347 226.865 102.347C227.067 102.347 227.264 102.405 227.434 102.514C228.826 103.387 230.36 104.013 231.966 104.363C232.171 104.411 232.357 104.52 232.499 104.676C232.64 104.832 232.731 105.028 232.759 105.237L233.348 109.281Z" stroke="#2B4828" stroke-width="2" mask="url(#path-13-inside-1_1818_14456)"/>
<path d="M233.348 109.281H237.027L237.555 105.217C237.588 105.01 237.68 104.817 237.821 104.662C237.962 104.506 238.145 104.396 238.348 104.343C239.998 103.98 241.573 103.333 243.002 102.432C243.174 102.31 243.38 102.244 243.591 102.244C243.802 102.244 244.008 102.31 244.181 102.432L247.453 104.953L250.054 102.331L247.595 98.9164C247.481 98.7484 247.421 98.5502 247.421 98.3473C247.421 98.1445 247.481 97.9463 247.595 97.7783C248.472 96.3877 249.098 94.8536 249.444 93.2461C249.496 93.092 249.584 92.9524 249.701 92.8393C249.817 92.7261 249.959 92.6426 250.115 92.5958L254.18 92.047V88.3888L250.115 87.84C249.91 87.8086 249.719 87.7163 249.566 87.575C249.414 87.4336 249.308 87.2498 249.261 87.0474C248.893 85.3958 248.239 83.821 247.331 82.3933C247.213 82.2232 247.149 82.0211 247.149 81.8141C247.149 81.607 247.213 81.405 247.331 81.2348L249.831 77.9627L247.392 75.2597L244.12 77.7798C243.948 77.9024 243.741 77.9682 243.53 77.9682C243.319 77.9682 243.113 77.9024 242.941 77.7798C241.522 76.8318 239.946 76.1436 238.287 75.7475C238.083 75.7036 237.898 75.5982 237.756 75.4455C237.614 75.2928 237.523 75.1003 237.494 74.8939L236.966 70.8292H233.287L232.759 74.8939C232.733 75.1013 232.642 75.2954 232.5 75.4486C232.358 75.6019 232.171 75.7064 231.966 75.7475C230.308 76.1477 228.733 76.8356 227.312 77.7798C227.144 77.9036 226.941 77.9704 226.733 77.9704C226.524 77.9704 226.321 77.9036 226.154 77.7798L222.881 75.2597L220.26 77.8814L222.719 81.2958C222.833 81.4597 222.895 81.6548 222.895 81.8547C222.895 82.0546 222.833 82.2498 222.719 82.4136C221.853 83.8103 221.228 85.3423 220.869 86.9458C220.826 87.1495 220.72 87.3348 220.567 87.4765C220.415 87.6183 220.222 87.7097 220.016 87.7384L215.951 88.2871V91.9454L220.016 92.4941C220.221 92.5187 220.413 92.6061 220.565 92.7445C220.718 92.8828 220.825 93.0652 220.869 93.2664C221.234 94.9257 221.888 96.5079 222.8 97.9409C222.918 98.111 222.981 98.3131 222.981 98.5201C222.981 98.7271 222.918 98.9292 222.8 99.0993L220.28 102.371L222.881 104.993L226.296 102.514C226.466 102.405 226.663 102.347 226.865 102.347C227.067 102.347 227.264 102.405 227.434 102.514C228.826 103.387 230.36 104.013 231.966 104.363C232.171 104.411 232.357 104.52 232.499 104.676C232.64 104.832 232.731 105.028 232.759 105.237L233.348 109.281Z" stroke="#2B4828" stroke-width="2" mask="url(#path-13-inside-1_1818_14456)"/>
<g filter="url(#filter3_d_1818_14456)">
<path fill-rule="evenodd" clip-rule="evenodd" d="M234.873 95.0614C237.739 95.0614 240.062 92.7383 240.062 89.8727C240.062 87.007 237.739 84.684 234.873 84.684C232.008 84.684 229.685 87.007 229.685 89.8727C229.685 92.7383 232.008 95.0614 234.873 95.0614ZM234.873 97.5627C239.121 97.5627 242.564 94.1198 242.564 89.8727C242.564 85.6256 239.121 82.1827 234.873 82.1827C230.626 82.1827 227.183 85.6256 227.183 89.8727C227.183 94.1198 230.626 97.5627 234.873 97.5627Z" fill="#2B4828"/>
</g>
<defs>
<filter id="filter0_i_1818_14456" x="44.0629" y="58.2068" width="139.57" height="117.212" filterUnits="userSpaceOnUse" color-interpolation-filters="sRGB">
<feFlood flood-opacity="0" result="BackgroundImageFix"/>
<feBlend mode="normal" in="SourceGraphic" in2="BackgroundImageFix" result="shape"/>
<feColorMatrix in="SourceAlpha" type="matrix" values="0 0 0 0 0 0 0 0 0 0 0 0 0 0 0 0 0 0 127 0" result="hardAlpha"/>
<feOffset dx="3" dy="7"/>
<feComposite in2="hardAlpha" operator="arithmetic" k2="-1" k3="1"/>
<feColorMatrix type="matrix" values="0 0 0 0 0.827451 0 0 0 0 0.839216 0 0 0 0 0.85098 0 0 0 1 0"/>
<feBlend mode="normal" in2="shape" result="effect1_innerShadow_1818_14456"/>
</filter>
<filter id="filter1_d_1818_14456" x="207.723" y="133.198" width="57.3004" height="71.4647" filterUnits="userSpaceOnUse" color-interpolation-filters="sRGB">
<feFlood flood-opacity="0" result="BackgroundImageFix"/>
<feColorMatrix in="SourceAlpha" type="matrix" values="0 0 0 0 0 0 0 0 0 0 0 0 0 0 0 0 0 0 127 0" result="hardAlpha"/>
<feOffset dx="1" dy="1"/>
<feComposite in2="hardAlpha" operator="out"/>
<feColorMatrix type="matrix" values="0 0 0 0 0 0 0 0 0 0 0 0 0 0 0 0 0 0 0.25 0"/>
<feBlend mode="normal" in2="BackgroundImageFix" result="effect1_dropShadow_1818_14456"/>
<feBlend mode="normal" in="SourceGraphic" in2="effect1_dropShadow_1818_14456" result="shape"/>
</filter>
<filter id="filter2_d_1818_14456" x="184.44" y="40.4405" width="20.1808" height="20.1808" filterUnits="userSpaceOnUse" color-interpolation-filters="sRGB">
<feFlood flood-opacity="0" result="BackgroundImageFix"/>
<feColorMatrix in="SourceAlpha" type="matrix" values="0 0 0 0 0 0 0 0 0 0 0 0 0 0 0 0 0 0 127 0" result="hardAlpha"/>
<feOffset dx="1" dy="1"/>
<feComposite in2="hardAlpha" operator="out"/>
<feColorMatrix type="matrix" values="0 0 0 0 0.827451 0 0 0 0 0.839216 0 0 0 0 0.85098 0 0 0 1 0"/>
<feBlend mode="normal" in2="BackgroundImageFix" result="effect1_dropShadow_1818_14456"/>
<feBlend mode="normal" in="SourceGraphic" in2="effect1_dropShadow_1818_14456" result="shape"/>
</filter>
<filter id="filter3_d_1818_14456" x="227.183" y="82.1827" width="16.38" height="16.3801" filterUnits="userSpaceOnUse" color-interpolation-filters="sRGB">
<feFlood flood-opacity="0" result="BackgroundImageFix"/>
<feColorMatrix in="SourceAlpha" type="matrix" values="0 0 0 0 0 0 0 0 0 0 0 0 0 0 0 0 0 0 127 0" result="hardAlpha"/>
<feOffset dx="1" dy="1"/>
<feComposite in2="hardAlpha" operator="out"/>
<feColorMatrix type="matrix" values="0 0 0 0 0.827451 0 0 0 0 0.839216 0 0 0 0 0.85098 0 0 0 1 0"/>
<feBlend mode="normal" in2="BackgroundImageFix" result="effect1_dropShadow_1818_14456"/>
<feBlend mode="normal" in="SourceGraphic" in2="effect1_dropShadow_1818_14456" result="shape"/>
</filter>
</defs>
</svg>
