<svg width="104" height="92" viewBox="0 0 104 92" fill="none" xmlns="http://www.w3.org/2000/svg">
<g clip-path="url(#clip0_1818_7787)">
<path d="M73.2868 77.7509C52.8289 87.3927 16.4028 81.4916 5.59218 58.5539C-3 31 31.9915 37.5387 36.8797 25.9744C44.6638 7.55881 70.8159 4.83638 79.677 23.6376C95.8589 49.9647 93.7448 68.109 73.2868 77.7509Z" fill="#80C4E0" fill-opacity="0.25"/>
<path fill-rule="evenodd" clip-rule="evenodd" d="M34.8418 33.6431C34.8418 27.6396 39.8982 22.7451 46.1708 22.7451C52.4434 22.7451 57.4998 27.6396 57.4998 33.6431C57.4998 39.6467 52.4434 44.5412 46.1708 44.5412C39.8982 44.5412 34.8418 39.6467 34.8418 33.6431ZM46.1708 20.3193C38.5577 20.3193 32.3574 26.2693 32.3574 33.6431C32.3574 41.017 38.5577 46.967 46.1708 46.967C53.784 46.967 59.9842 41.017 59.9842 33.6431C59.9842 26.2693 53.784 20.3193 46.1708 20.3193ZM58.9179 51.5083H33.4223C32.6886 51.4508 31.9498 51.5429 31.2558 51.779C30.5419 52.0219 29.8922 52.4114 29.3537 52.9208C28.8151 53.4303 28.401 54.0472 28.1423 54.728C27.8909 55.3892 27.7924 56.0941 27.8535 56.7947V64.3627C27.8535 65.0293 28.4171 65.5697 29.1124 65.5697C29.8077 65.5697 30.3713 65.0293 30.3713 64.3627V56.7407C30.3713 56.702 30.3693 56.6633 30.3654 56.6247C30.329 56.2628 30.3775 55.8975 30.5078 55.5546C30.6382 55.2117 30.8475 54.8989 31.122 54.6393C31.3966 54.3795 31.7295 54.1793 32.0977 54.0541C32.4658 53.9288 32.8593 53.8819 33.2496 53.9171C33.2887 53.9206 33.328 53.9224 33.3674 53.9224H58.9728C59.0121 53.9224 59.0514 53.9206 59.0906 53.9171C59.4809 53.8819 59.8743 53.9288 60.2425 54.0541C60.6106 54.1793 60.9436 54.3795 61.2182 54.6393C61.4927 54.8989 61.702 55.2117 61.8324 55.5546C61.9627 55.8975 62.0112 56.2628 61.9747 56.6247C61.9709 56.6633 61.9689 56.702 61.9689 56.7407V64.3627C61.9689 65.0293 62.5325 65.5697 63.2278 65.5697C63.923 65.5697 64.4867 65.0293 64.4867 64.3627V56.7947C64.5477 56.0941 64.4492 55.3892 64.1979 54.728C63.9391 54.0472 63.5251 53.4304 62.9865 52.9208C62.448 52.4114 61.7983 52.0219 61.0844 51.779C60.3904 51.5429 59.6516 51.4508 58.9179 51.5083Z" fill="white"/>
<path fill-rule="evenodd" clip-rule="evenodd" d="M33.4747 33.6431C33.4747 27.6396 38.531 22.7451 44.8036 22.7451C51.0762 22.7451 56.1326 27.6396 56.1326 33.6431C56.1326 39.6467 51.0762 44.5412 44.8036 44.5412C38.531 44.5412 33.4747 39.6467 33.4747 33.6431ZM44.8036 20.3193C37.1905 20.3193 30.9902 26.2693 30.9902 33.6431C30.9902 41.017 37.1905 46.967 44.8036 46.967C52.4168 46.967 58.617 41.017 58.617 33.6431C58.617 26.2693 52.4168 20.3193 44.8036 20.3193ZM57.5526 51.5083H32.0571C31.3233 51.4508 30.5845 51.5429 29.8905 51.779C29.1766 52.0219 28.5269 52.4114 27.9884 52.9208C27.4499 53.4303 27.0358 54.0472 26.777 54.728C26.5257 55.3892 26.4272 56.0941 26.4883 56.7947V64.3627C26.4883 65.0293 27.0519 65.5697 27.7472 65.5697C28.4424 65.5697 29.006 65.0293 29.006 64.3627V56.7407C29.006 56.702 29.0041 56.6633 29.0002 56.6247C28.9638 56.2628 29.0122 55.8975 29.1426 55.5546C29.2729 55.2117 29.4822 54.8989 29.7567 54.6393C30.0313 54.3795 30.3643 54.1793 30.7324 54.0541C31.1006 53.9288 31.494 53.8819 31.8843 53.9171C31.9235 53.9206 31.9628 53.9224 32.0021 53.9224H57.6076C57.6469 53.9224 57.6862 53.9206 57.7254 53.9171C58.1157 53.8819 58.5091 53.9288 58.8773 54.0541C59.2454 54.1793 59.5784 54.3795 59.853 54.6393C60.1275 54.8989 60.3368 55.2117 60.4671 55.5546C60.5975 55.8975 60.6459 56.2628 60.6095 56.6247C60.6056 56.6633 60.6037 56.702 60.6037 56.7407V64.3627C60.6037 65.0293 61.1673 65.5697 61.8625 65.5697C62.5578 65.5697 63.1214 65.0293 63.1214 64.3627V56.7947C63.1825 56.0941 63.084 55.3892 62.8327 54.728C62.5739 54.0472 62.1599 53.4304 61.6213 52.9208C61.0828 52.4114 60.4331 52.0219 59.7192 51.779C59.0252 51.5429 58.2864 51.4508 57.5526 51.5083Z" fill="#333333"/>
<path d="M78.031 64.7796C78.031 69.3812 74.2706 73.1115 69.632 73.1115C64.9933 73.1115 61.2329 69.3812 61.2329 64.7796C61.2329 60.1781 64.9933 56.4478 69.632 56.4478C74.2706 56.4478 78.031 60.1781 78.031 64.7796Z" fill="#2055C0"/>
<path fill-rule="evenodd" clip-rule="evenodd" d="M69.6312 59.2252C69.9404 59.2252 70.1911 59.4739 70.1911 59.7807V69.7789C70.1911 70.0857 69.9404 70.3344 69.6312 70.3344C69.3219 70.3344 69.0712 70.0857 69.0712 69.7789V59.7807C69.0712 59.4739 69.3219 59.2252 69.6312 59.2252Z" fill="white"/>
<path fill-rule="evenodd" clip-rule="evenodd" d="M75.2305 64.7791C75.2305 65.0859 74.9798 65.3346 74.6705 65.3346H64.5917C64.2824 65.3346 64.0317 65.0859 64.0317 64.7791C64.0317 64.4724 64.2824 64.2237 64.5917 64.2237H74.6705C74.9798 64.2237 75.2305 64.4724 75.2305 64.7791Z" fill="white"/>
<path d="M100.002 34.0156C100.002 39.3251 95.6627 43.6292 90.3104 43.6292C84.9581 43.6292 80.6191 39.3251 80.6191 34.0156C80.6191 28.7061 84.9581 24.4019 90.3104 24.4019C95.6627 24.4019 100.002 28.7061 100.002 34.0156Z" fill="#2055C0"/>
<path fill-rule="evenodd" clip-rule="evenodd" d="M90.957 28.2474C90.957 27.8934 90.6678 27.6064 90.311 27.6064C89.9541 27.6064 89.6649 27.8934 89.6649 28.2474V33.3744H84.4964C84.1396 33.3744 83.8503 33.6614 83.8503 34.0153C83.8503 34.3693 84.1396 34.6562 84.4964 34.6562H89.6649V39.7838C89.6649 40.1378 89.9541 40.4247 90.311 40.4247C90.6678 40.4247 90.957 40.1378 90.957 39.7838V34.6562H96.1259C96.4827 34.6562 96.772 34.3693 96.772 34.0153C96.772 33.6614 96.4827 33.3744 96.1259 33.3744H90.957V28.2474Z" fill="white"/>
<path d="M25.7015 51.6407C25.7015 55.3574 22.6643 58.3703 18.9176 58.3703C15.171 58.3703 12.1338 55.3574 12.1338 51.6407C12.1338 47.9241 15.171 44.9111 18.9176 44.9111C22.6643 44.9111 25.7015 47.9241 25.7015 51.6407Z" fill="#2055C0"/>
<path fill-rule="evenodd" clip-rule="evenodd" d="M19.3691 47.6029C19.3691 47.3552 19.1666 47.1543 18.9169 47.1543C18.6671 47.1543 18.4646 47.3552 18.4646 47.6029V51.1921H14.848C14.5982 51.1921 14.3958 51.3929 14.3958 51.6407C14.3958 51.8885 14.5982 52.0894 14.848 52.0894H18.4646V55.6784C18.4646 55.9262 18.6671 56.1271 18.9169 56.1271C19.1666 56.1271 19.3691 55.9262 19.3691 55.6784V52.0894H22.9886C23.2384 52.0894 23.4409 51.8885 23.4409 51.6407C23.4409 51.3929 23.2384 51.1921 22.9886 51.1921H19.3691V47.6029Z" fill="white"/>
<path d="M71.5718 42.9885C71.5718 45.1123 69.8363 46.834 67.6953 46.834C65.5544 46.834 63.8188 45.1123 63.8188 42.9885C63.8188 40.8647 65.5544 39.1431 67.6953 39.1431C69.8363 39.1431 71.5718 40.8647 71.5718 42.9885Z" fill="#2055C0"/>
<path fill-rule="evenodd" clip-rule="evenodd" d="M67.9522 40.6812C67.9522 40.5396 67.8365 40.4248 67.6937 40.4248C67.551 40.4248 67.4353 40.5396 67.4353 40.6812V42.7319H65.3706C65.2278 42.7319 65.1121 42.8467 65.1121 42.9883C65.1121 43.1299 65.2278 43.2446 65.3706 43.2446H67.4353V45.2957C67.4353 45.4373 67.551 45.5521 67.6937 45.5521C67.8365 45.5521 67.9522 45.4373 67.9522 45.2957V43.2446H70.0223C70.1651 43.2446 70.2808 43.1299 70.2808 42.9883C70.2808 42.8467 70.1651 42.7319 70.0223 42.7319H67.9522V40.6812Z" fill="white"/>
<path d="M36.0397 20.8772C36.0397 24.2399 33.2917 26.9659 29.9019 26.9659C26.5121 26.9659 23.7642 24.2399 23.7642 20.8772C23.7642 17.5146 26.5121 14.7886 29.9019 14.7886C33.2917 14.7886 36.0397 17.5146 36.0397 20.8772Z" fill="#2055C0"/>
<path fill-rule="evenodd" clip-rule="evenodd" d="M30.31 17.2243C30.31 17.0001 30.1268 16.8184 29.9009 16.8184C29.6749 16.8184 29.4917 17.0001 29.4917 17.2243V20.4714H26.2196C25.9936 20.4714 25.8104 20.6531 25.8104 20.8773C25.8104 21.1015 25.9936 21.2832 26.2196 21.2832H29.4917V24.5307C29.4917 24.7549 29.6749 24.9366 29.9009 24.9366C30.1268 24.9366 30.31 24.7549 30.31 24.5307V21.2832H33.5849C33.8109 21.2832 33.9941 21.1015 33.9941 20.8773C33.9941 20.6531 33.8109 20.4714 33.5849 20.4714H30.31V17.2243Z" fill="white"/>
</g>
<defs>
<clipPath id="clip0_1818_7787">
<rect width="104" height="92" fill="white"/>
</clipPath>
</defs>
</svg>
