<svg width="1201" height="258" viewBox="0 0 1201 258" fill="none" xmlns="http://www.w3.org/2000/svg">
<mask id="mask0" style="mask-type:alpha" maskUnits="userSpaceOnUse" x="10" y="6" width="1204" height="238">
<rect x="10" y="6" width="1204" height="238" fill="white"/>
</mask>
<g mask="url(#mask0)">
<rect x="-13" y="-15" width="1227" height="257" rx="10" fill="#4C9E45"/>
<path d="M1055.1 117.31L975.729 71.4857C968.57 67.3525 959.416 69.8053 955.283 76.9641L935.553 111.138C931.42 118.297 933.872 127.451 941.031 131.584L1020.4 177.409C1027.56 181.542 1036.71 179.089 1040.85 171.93L1060.58 137.756C1064.71 130.597 1062.26 121.443 1055.1 117.31Z" stroke="white" stroke-width="2.7" stroke-miterlimit="10"/>
<path d="M1049.29 122.688L994.996 91.3436C989.709 88.291 982.948 90.1025 979.896 95.3897L963.815 123.242C960.763 128.53 962.574 135.29 967.861 138.343L1022.15 169.688C1027.44 172.74 1034.2 170.929 1037.25 165.641L1053.33 137.789C1056.39 132.501 1054.57 125.741 1049.29 122.688Z" stroke="white" stroke-width="1.55" stroke-miterlimit="10"/>
<path d="M981.035 106.985L987.482 110.707L998.685 103.056L998.334 116.972L1004.78 120.694L1003.56 129.074L1010.88 124.218L1025.82 132.842L1036.94 124.537L1035.66 138.52L1043.12 142.829" stroke="white" stroke-width="1.32" stroke-linecap="round" stroke-linejoin="round"/>
<path d="M969.107 80.6064L968.183 80.0728C965.965 78.7921 963.129 79.5522 961.848 81.7704L943.007 114.404C941.726 116.622 942.486 119.459 944.704 120.739L945.629 121.273C947.847 122.554 950.683 121.794 951.964 119.575L970.805 86.9418C972.086 84.7236 971.326 81.8871 969.107 80.6064Z" stroke="white" stroke-width="2.07" stroke-miterlimit="10"/>
<path d="M969.122 124.721L972.431 126.632C972.431 126.632 976.378 123.616 977.751 123.953C979.124 124.289 981.086 127.11 981.086 127.11C982.23 128.748 982.847 130.696 982.852 132.694L986.834 134.993" stroke="white" stroke-width="0.81" stroke-linecap="round" stroke-linejoin="round"/>
<path d="M983.682 133.126L986.991 135.036C986.991 135.036 990.938 132.021 992.311 132.357C993.684 132.693 995.645 135.514 995.645 135.514C996.713 137.104 997.222 139.003 997.092 140.914L1001.45 143.43" stroke="white" stroke-width="0.81" stroke-linecap="round" stroke-linejoin="round"/>
<path d="M998.96 141.948L1002.28 143.865C1002.28 143.865 1006.23 140.849 1007.6 141.186C1008.97 141.522 1010.93 144.343 1010.93 144.343C1012.08 145.981 1012.7 147.929 1012.7 149.927L1016.68 152.226" stroke="white" stroke-width="0.81" stroke-linecap="round" stroke-linejoin="round"/>
<path d="M1013.46 150.319L1016.78 152.236C1016.78 152.236 1020.73 149.221 1022.1 149.557C1023.48 149.893 1025.44 152.714 1025.44 152.714C1026.77 154.441 1026.53 156.097 1026.54 157.715L1031.27 160.449" stroke="white" stroke-width="0.81" stroke-linecap="round" stroke-linejoin="round"/>
<path d="M315.453 5.12779L277.251 -16.9281C273.621 -19.0238 268.979 -17.7802 266.884 -14.1503L244.828 24.0516C242.732 27.6815 243.976 32.3229 247.606 34.4186L285.807 56.4745C289.437 58.5702 294.079 57.3265 296.174 53.6967L318.23 15.4947C320.326 11.8649 319.082 7.22347 315.453 5.12779Z" stroke="white" stroke-width="2.32" stroke-miterlimit="10"/>
<path d="M366.032 -9.8858L354.017 -16.8227C352.517 -17.6887 350.6 -17.1748 349.734 -15.675L338.047 4.56704C337.181 6.06686 337.695 7.98469 339.195 8.85061L351.21 15.7875C352.71 16.6535 354.627 16.1396 355.493 14.6398L367.18 -5.60223C368.046 -7.10205 367.532 -9.01987 366.032 -9.8858Z" stroke="white" stroke-width="2.32" stroke-miterlimit="10"/>
<path d="M381.909 23.6962L369.894 16.7593C368.394 15.8934 366.476 16.4073 365.611 17.9071L353.924 38.1491C353.058 39.6489 353.572 41.5667 355.072 42.4326L367.087 49.3696C368.587 50.2355 370.504 49.7216 371.37 48.2218L383.057 27.9798C383.923 26.48 383.409 24.5622 381.909 23.6962Z" stroke="white" stroke-width="2.51" stroke-miterlimit="10"/>
<path d="M345.217 12.2783C345.217 12.2783 339.003 33.2915 328.445 41.3291C317.886 49.3667 299.043 48.6961 299.043 48.6961L296.191 53.6367C296.191 53.6367 318.975 71.3554 337.323 66.9021C355.67 62.4487 361.1 45.851 361.1 45.851" stroke="white" stroke-width="2.32" stroke-miterlimit="10"/>
<path d="M306.353 10.1077L277.473 -6.56594C275.154 -7.90484 272.189 -7.11028 270.85 -4.79122L260.507 13.1231C259.168 15.4421 259.963 18.4075 262.282 19.7464L291.162 36.4201C293.481 37.759 296.446 36.9644 297.785 34.6454L308.128 16.731C309.467 14.412 308.672 11.4466 306.353 10.1077Z" stroke="white" stroke-width="1.25" stroke-miterlimit="10"/>
<path d="M286.726 48.1607C288.075 48.9393 289.799 48.4772 290.578 47.1286C291.356 45.78 290.894 44.0556 289.546 43.277C288.197 42.4984 286.473 42.9604 285.694 44.309C284.916 45.6576 285.378 47.3821 286.726 48.1607Z" stroke="white" stroke-width="1.25" stroke-miterlimit="10"/>
<path d="M270.535 38.813C271.884 39.5916 273.608 39.1295 274.387 37.7809C275.165 36.4324 274.703 34.7079 273.355 33.9293C272.006 33.1507 270.282 33.6128 269.503 34.9614C268.724 36.3099 269.186 38.0344 270.535 38.813Z" stroke="white" stroke-width="1.25" stroke-miterlimit="10"/>
<path d="M254.39 29.4907C255.738 30.2693 257.463 29.8073 258.241 28.4587C259.02 27.1101 258.558 25.3857 257.209 24.6071C255.861 23.8285 254.136 24.2905 253.358 25.6391C252.579 26.9877 253.041 28.7121 254.39 29.4907Z" stroke="white" stroke-width="1.25" stroke-miterlimit="10"/>
<path d="M473.224 -35.0659L442.507 -52.8002C439.224 -54.6958 435.025 -53.5708 433.13 -50.2876L401.779 4.01434C399.883 7.29756 401.008 11.4958 404.291 13.3914L435.008 31.1257C438.291 33.0213 442.489 31.8963 444.385 28.6131L475.736 -25.6888C477.632 -28.972 476.507 -33.1703 473.224 -35.0659Z" stroke="white" stroke-width="2" stroke-linecap="round" stroke-linejoin="round"/>
<path d="M467.65 -32.8966L443.426 -46.8825C440.905 -48.3378 437.682 -47.4741 436.227 -44.9534L412.728 -4.25265C411.273 -1.73194 412.137 1.49128 414.657 2.94661L438.882 16.9325C441.402 18.3878 444.626 17.5242 446.081 15.0034L469.579 -25.6973C471.035 -28.218 470.171 -31.4413 467.65 -32.8966Z" stroke="white" stroke-width="1.31" stroke-linecap="round" stroke-linejoin="round"/>
<path d="M421.784 18.5575C423.152 19.347 424.9 18.8785 425.69 17.511C426.48 16.1435 426.011 14.3949 424.644 13.6053C423.276 12.8158 421.527 13.2844 420.738 14.6519C419.948 16.0194 420.417 17.768 421.784 18.5575Z" stroke="white" stroke-width="1.31" stroke-linecap="round" stroke-linejoin="round"/>
<path d="M229.422 3.98404L178.966 -25.1471C174.51 -27.7194 168.813 -26.1929 166.241 -21.7375L150.265 5.93261C147.693 10.388 149.22 16.085 153.675 18.6573L204.132 47.7885C208.587 50.3608 214.284 48.8343 216.856 44.3789L232.832 16.7087C235.404 12.2534 233.878 6.55635 229.422 3.98404Z" stroke="white" stroke-width="2.32" stroke-linecap="round" stroke-linejoin="round"/>
<path d="M164.866 19.6438C169.421 12.5976 175.561 9.73715 183.65 12.0644C183.65 12.0644 186.794 -10.0362 199.597 -2.64468C212.399 4.74681 194.142 18.1071 194.142 18.1071C203.913 25.4524 201.027 35.7746 198.709 39.1831" stroke="white" stroke-width="1.32" stroke-linecap="round" stroke-linejoin="round"/>
<path d="M268.654 64.7341L218.197 35.6029C213.742 33.0306 208.045 34.557 205.472 39.0124L189.497 66.6825C186.925 71.1379 188.451 76.8349 192.907 79.4072L243.363 108.538C247.819 111.111 253.516 109.584 256.088 105.129L272.063 77.4587C274.636 73.0033 273.109 67.3064 268.654 64.7341Z" stroke="white" stroke-width="2.32" stroke-linecap="round" stroke-linejoin="round"/>
<path d="M204.111 80.3938C208.666 73.3476 214.794 70.4806 222.883 72.8079C222.883 72.8079 226.027 50.7072 238.83 58.0987C251.632 65.4902 233.353 78.8374 233.353 78.8374C236.668 81.0973 238.99 84.5431 239.84 88.4645C240.69 92.3859 240.002 96.4838 237.92 99.9134" stroke="white" stroke-width="1.32" stroke-linecap="round" stroke-linejoin="round"/>
<path d="M183.877 222.481L145.675 200.425C142.045 198.33 137.403 199.573 135.308 203.203L113.252 241.405C111.156 245.035 112.4 249.676 116.03 251.772L154.232 273.828C157.861 275.924 162.503 274.68 164.599 271.05L186.654 232.848C188.75 229.218 187.506 224.577 183.877 222.481Z" stroke="white" stroke-width="2.32" stroke-miterlimit="10"/>
<path d="M234.457 207.47L222.442 200.533C220.942 199.667 219.024 200.181 218.158 201.681L206.471 221.923C205.606 223.422 206.119 225.34 207.619 226.206L219.634 233.143C221.134 234.009 223.052 233.495 223.918 231.995L235.605 211.753C236.471 210.253 235.957 208.336 234.457 207.47Z" stroke="white" stroke-width="2.32" stroke-miterlimit="10"/>
<path d="M250.332 241.054L238.317 234.117C236.817 233.251 234.899 233.765 234.033 235.265L222.346 255.506C221.481 257.006 221.994 258.924 223.494 259.79L235.509 266.727C237.009 267.593 238.927 267.079 239.793 265.579L251.48 245.337C252.346 243.837 251.832 241.92 250.332 241.054Z" stroke="white" stroke-width="2.32" stroke-miterlimit="10"/>
<path d="M213.632 229.681C213.632 229.681 207.407 250.688 196.86 258.732C186.313 266.776 167.447 266.093 167.447 266.093L164.594 271.033C164.594 271.033 187.378 288.752 205.726 284.298C224.074 279.845 229.503 263.247 229.503 263.247" stroke="white" stroke-width="2.32" stroke-miterlimit="10"/>
<path d="M174.787 227.469L145.908 210.795C143.588 209.456 140.623 210.251 139.284 212.57L128.941 230.484C127.602 232.803 128.397 235.769 130.716 237.108L159.596 253.781C161.915 255.12 164.88 254.326 166.219 252.007L176.562 234.092C177.901 231.773 177.106 228.808 174.787 227.469Z" stroke="white" stroke-width="1.25" stroke-miterlimit="10"/>
<path d="M122.812 246.848C124.161 247.627 125.885 247.165 126.664 245.816C127.442 244.468 126.98 242.743 125.632 241.964C124.283 241.186 122.559 241.648 121.78 242.997C121.002 244.345 121.464 246.07 122.812 246.848Z" stroke="white" stroke-width="1.25" stroke-miterlimit="10"/>
<path d="M277.836 253.206L280.933 247.843C281.411 247.014 282.2 246.409 283.125 246.161C284.05 245.913 285.035 246.043 285.864 246.522L293.68 251.034C294.281 251.549 293.064 252.55 292.069 254.273L288.973 259.636C287.978 261.359 287.726 262.902 286.974 262.65L279.192 258.157C278.776 257.923 278.411 257.609 278.117 257.232C277.823 256.856 277.607 256.425 277.481 255.965C277.355 255.504 277.321 255.023 277.382 254.55C277.443 254.076 277.598 253.62 277.836 253.206V253.206Z" stroke="white" stroke-width="3.19" stroke-miterlimit="10"/>
<path d="M312.68 198.942L297.62 225.026L294.505 223.227L296.452 218.327L239.343 185.355L241.774 181.144L237.218 178.575L241.934 170.405L246.491 172.975L249.066 168.513L306.061 201.419L309.234 196.952L312.68 198.942Z" stroke="white" stroke-width="1.7" stroke-linecap="round" stroke-linejoin="round"/>
<path d="M228.735 167.867L239.734 174.218" stroke="white" stroke-width="2.27" stroke-linecap="round" stroke-linejoin="round"/>
<path d="M280.729 197.629L275.868 206.05" stroke="white" stroke-width="1.13" stroke-linecap="round" stroke-linejoin="round"/>
<path d="M273.449 199.039L271.019 203.249" stroke="white" stroke-width="1.13" stroke-linecap="round" stroke-linejoin="round"/>
<path d="M270.682 192.633L266.169 200.449" stroke="white" stroke-width="1.13" stroke-linecap="round" stroke-linejoin="round"/>
<path d="M261.32 186.424L256.459 194.845" stroke="white" stroke-width="1.13" stroke-linecap="round" stroke-linejoin="round"/>
<path d="M254.041 187.834L251.61 192.044" stroke="white" stroke-width="1.13" stroke-linecap="round" stroke-linejoin="round"/>
<path d="M251.273 181.43L246.76 189.246" stroke="white" stroke-width="1.13" stroke-linecap="round" stroke-linejoin="round"/>
<path d="M263.739 193.434L261.308 197.644" stroke="white" stroke-width="1.13" stroke-linecap="round" stroke-linejoin="round"/>
<path d="M290.486 203.156L285.98 210.961" stroke="white" stroke-width="1.13" stroke-linecap="round" stroke-linejoin="round"/>
<path d="M283.55 203.941L281.119 208.152" stroke="white" stroke-width="1.13" stroke-linecap="round" stroke-linejoin="round"/>
<path d="M345.512 226.586L337.982 239.628L334.912 237.855L335.56 235.232L302.697 216.183L307.558 207.762L340.319 226.752L342.123 224.629L345.512 226.586Z" stroke="white" stroke-width="1.7" stroke-linecap="round" stroke-linejoin="round"/>
<path d="M312.68 198.942L309.234 196.952L306.061 201.419L249.066 168.513L246.491 172.975L241.934 170.405L237.218 178.575L241.774 181.144L239.343 185.355L296.452 218.327L294.505 223.227L297.62 225.026L302.719 216.194L335.559 235.231L334.912 237.854L337.981 239.626L345.511 226.584L342.122 224.627L340.318 226.75L307.581 207.773L312.68 198.942Z" stroke="white" stroke-width="2.83" stroke-linecap="round" stroke-linejoin="round"/>
<path d="M261.365 143.395L257.03 150.903C256.495 151.829 255.615 152.504 254.582 152.781C253.549 153.058 252.449 152.913 251.523 152.378L190.469 118.65C190.011 118.386 189.609 118.034 189.288 117.614C188.966 117.194 188.731 116.715 188.595 116.204C188.459 115.693 188.425 115.16 188.495 114.636C188.565 114.112 188.738 113.606 189.004 113.149L194.479 103.667C194.742 103.209 195.093 102.806 195.511 102.483C195.93 102.16 196.409 101.923 196.919 101.785C197.43 101.648 197.962 101.612 198.487 101.681C199.011 101.749 199.517 101.921 199.975 102.185L259.902 137.864C260.363 138.13 260.766 138.484 261.089 138.907C261.412 139.329 261.648 139.811 261.784 140.325C261.92 140.839 261.953 141.375 261.881 141.902C261.809 142.429 261.634 142.936 261.365 143.395V143.395Z" stroke="white" stroke-width="2.32" stroke-miterlimit="10"/>
<path d="M232.557 129.36C231.473 128.734 230.087 129.106 229.461 130.19C228.836 131.274 229.207 132.66 230.291 133.285L248.536 143.819C249.62 144.445 251.006 144.074 251.632 142.99C252.258 141.906 251.886 140.52 250.802 139.894L232.557 129.36Z" stroke="white" stroke-width="1.04" stroke-miterlimit="10"/>
<path d="M269.262 150.402L266.871 154.544C266.689 154.862 266.447 155.141 266.157 155.365C265.867 155.589 265.536 155.753 265.183 155.849C264.829 155.944 264.46 155.969 264.097 155.922C263.734 155.875 263.384 155.756 263.067 155.573L257.031 152.088C256.576 151.689 257.541 150.861 258.279 149.583L260.67 145.441C261.441 144.106 261.623 142.948 262.209 143.119L268.245 146.604C268.562 146.785 268.84 147.028 269.064 147.317C269.287 147.607 269.451 147.938 269.545 148.291C269.64 148.644 269.664 149.012 269.615 149.375C269.566 149.737 269.446 150.086 269.262 150.402V150.402Z" stroke="white" stroke-width="2.46" stroke-miterlimit="10"/>
<path d="M133.484 3.8529C125.811 8.26224 100.57 -6.49295 98.6359 -12.813C97.1383 -20.0218 107.237 -21.1747 115.075 -31.483C123.445 -42.503 118.252 -54.4316 120.606 -58.5345C126.7 -69.0891 149.792 -45.0005 150.579 -25.757C151.044 -17.7602 141.168 -0.54986 133.484 3.8529Z" stroke="white" stroke-width="2.32" stroke-linecap="round" stroke-linejoin="round"/>
<path d="M183.865 194.937C176.192 199.346 150.952 184.591 149.006 178.264C147.526 171.051 157.618 169.909 165.462 159.59C173.833 148.57 168.634 136.652 170.987 132.549C177.087 121.983 200.18 146.072 200.967 165.316C201.431 173.312 191.549 190.534 183.865 194.937Z" stroke="white" stroke-width="2.32" stroke-linecap="round" stroke-linejoin="round"/>
<path d="M170.587 133.613L165.566 130.715L164.268 136.811L170.435 140.464L170.587 133.613Z" stroke="white" stroke-width="2.32" stroke-linecap="round" stroke-linejoin="round"/>
<path d="M151.086 172.318L144.868 168.728L149.511 164.532L156.192 168.298L151.086 172.318Z" stroke="white" stroke-width="2.32" stroke-linecap="round" stroke-linejoin="round"/>
<path d="M183.961 179.565C179.854 181.91 166.398 173.989 165.341 170.656C164.528 166.794 169.942 166.192 174.139 160.688C178.6 154.805 175.835 148.447 177.089 146.25C180.343 140.613 192.693 153.479 193.103 163.757C193.338 168.015 188.057 177.214 183.961 179.565Z" stroke="white" stroke-width="0.95" stroke-linecap="round" stroke-linejoin="round"/>
<path d="M131.426 130.978L52.0557 85.1536C44.8969 81.0205 35.7429 83.4733 31.6098 90.6321L11.8794 124.806C7.74623 131.965 10.199 141.119 17.3579 145.252L96.7284 191.077C103.887 195.21 113.041 192.757 117.174 185.598L136.905 151.424C141.038 144.265 138.585 135.111 131.426 130.978Z" stroke="white" stroke-width="2.32" stroke-miterlimit="10"/>
<path d="M125.614 136.352L71.3233 105.008C66.0361 101.955 59.2754 103.767 56.2228 109.054L40.1421 136.906C37.0895 142.194 38.901 148.954 44.1882 152.007L98.4788 183.352C103.766 186.404 110.527 184.593 113.579 179.305L129.66 151.453C132.713 146.166 130.901 139.405 125.614 136.352Z" stroke="white" stroke-width="1.55" stroke-miterlimit="10"/>
<path d="M57.362 120.653L63.8089 124.375L75 116.718L74.6601 130.64L81.107 134.362L79.8832 142.753L87.2115 137.887L102.136 146.503L113.265 138.217L111.983 152.189L119.446 156.497" stroke="white" stroke-width="1.32" stroke-linecap="round" stroke-linejoin="round"/>
<path d="M45.4275 94.2861L44.5033 93.7525C42.285 92.4718 39.4486 93.2318 38.1679 95.4501L19.3269 128.084C18.0462 130.302 18.8062 133.138 21.0244 134.419L21.9486 134.953C24.1669 136.233 27.0033 135.473 28.284 133.255L47.1251 100.621C48.4057 98.4033 47.6457 95.5668 45.4275 94.2861Z" stroke="white" stroke-width="2.07" stroke-miterlimit="10"/>
<path d="M45.4299 138.398L48.7389 140.309C48.7389 140.309 52.6925 137.282 54.0703 137.636C55.448 137.99 57.4114 140.782 57.4114 140.782C58.5508 142.422 59.1666 144.369 59.1776 146.366L63.1598 148.665" stroke="white" stroke-width="0.81" stroke-linecap="round" stroke-linejoin="round"/>
<path d="M59.9895 146.801L63.2985 148.711C63.2985 148.711 67.2635 145.691 68.6298 146.038C69.9961 146.386 71.9709 149.185 71.9709 149.185C73.037 150.775 73.5458 152.674 73.4177 154.584L77.7765 157.101" stroke="white" stroke-width="0.81" stroke-linecap="round" stroke-linejoin="round"/>
<path d="M75.2109 155.592L78.5199 157.502C78.5199 157.502 82.4735 154.475 83.8513 154.829C85.229 155.184 87.1809 157.969 87.1809 157.969C88.3272 159.609 88.9473 161.559 88.9586 163.559L92.9294 165.852" stroke="white" stroke-width="0.81" stroke-linecap="round" stroke-linejoin="round"/>
<path d="M89.7822 164.004L93.0912 165.914C93.0912 165.914 97.0448 162.887 98.4225 163.242C99.8003 163.596 101.752 166.381 101.752 166.381C103.088 168.126 102.835 169.775 102.862 171.388L107.586 174.116" stroke="white" stroke-width="0.81" stroke-linecap="round" stroke-linejoin="round"/>
<path d="M397.085 144.159L382.617 135.806L376.72 137.665L373.366 135.729L372.222 129.804L357.559 121.339C355.886 120.368 354.665 118.774 354.164 116.905C353.663 115.036 353.923 113.045 354.888 111.368L393.13 45.1306C394.1 43.4568 395.695 42.2358 397.563 41.735C399.432 41.2342 401.424 41.4946 403.101 42.4589L415.527 49.6331C415.527 49.6331 419.057 42.6493 426.77 47.1026C434.484 51.556 430.851 58.4804 430.851 58.4804L442.638 65.2856C444.308 66.2579 445.525 67.8518 446.024 69.719C446.522 71.5861 446.261 73.5746 445.298 75.25L407.03 141.533C406.052 143.192 404.459 144.398 402.597 144.89C400.735 145.382 398.754 145.119 397.085 144.159Z" stroke="white" stroke-width="2.32" stroke-linecap="round" stroke-linejoin="round"/>
<path d="M423.127 53.4168C424.054 53.9516 425.238 53.6342 425.773 52.7079C426.308 51.7815 425.99 50.597 425.064 50.0622C424.138 49.5273 422.953 49.8447 422.418 50.771C421.883 51.6974 422.201 52.882 423.127 53.4168Z" stroke="white" stroke-width="1.23" stroke-linecap="round" stroke-linejoin="round"/>
<path d="M426.91 96.4016L403.484 136.977C402.256 138.763 400.737 139.575 398.554 138.086L361.824 116.88C361.389 116.725 360.997 116.469 360.68 116.133C360.363 115.797 360.129 115.391 359.999 114.948C359.869 114.505 359.846 114.038 359.932 113.584C360.017 113.13 360.209 112.703 360.491 112.337L383.996 71.625C387.526 67.3034 428.108 89.5317 426.91 96.4016Z" stroke="white" stroke-width="1.18" stroke-linecap="round" stroke-linejoin="round"/>
<path d="M176.61 48.815L145.893 31.0807C142.61 29.1851 138.412 30.31 136.516 33.5933L105.165 87.8952C103.269 91.1784 104.394 95.3767 107.677 97.2723L138.394 115.007C141.677 116.902 145.876 115.777 147.771 112.494L179.122 58.192C181.018 54.9088 179.893 50.7105 176.61 48.815Z" stroke="white" stroke-width="2.32" stroke-linecap="round" stroke-linejoin="round"/>
<path d="M171.03 50.9979L146.806 37.0121C144.285 35.5567 141.062 36.4204 139.607 38.9411L116.108 79.642C114.653 82.1627 115.516 85.3859 118.037 86.8412L142.261 100.827C144.782 102.282 148.005 101.419 149.46 98.898L172.959 58.1972C174.414 55.6765 173.551 52.4533 171.03 50.9979Z" stroke="white" stroke-width="1.31" stroke-linecap="round" stroke-linejoin="round"/>
<path d="M125.163 102.458C126.53 103.247 128.279 102.779 129.068 101.411C129.858 100.044 129.389 98.2952 128.022 97.5057C126.654 96.7162 124.906 97.1847 124.116 98.5522C123.327 99.9197 123.795 101.668 125.163 102.458Z" stroke="white" stroke-width="1.31" stroke-linecap="round" stroke-linejoin="round"/>
<path d="M302.873 137.719L283.817 126.717C282.419 125.902 281.399 124.566 280.98 123.002C280.56 121.438 280.776 119.772 281.58 118.366L297.185 81.6128C298.001 80.2139 299.336 79.1939 300.9 78.7749C302.464 78.3558 304.131 78.5715 305.537 79.3751L334.063 95.8445C335.465 96.6583 336.489 97.9939 336.91 99.5597C337.332 101.126 337.116 102.795 336.312 104.202L311.19 135.461C310.38 136.857 309.052 137.877 307.495 138.3C305.938 138.722 304.277 138.514 302.873 137.719V137.719Z" stroke="white" stroke-width="2.32" stroke-linecap="round" stroke-linejoin="round"/>
<path d="M326.871 85.7463L317.937 80.5881C316.702 79.875 315.122 80.2982 314.409 81.5333C313.696 82.7685 314.119 84.3478 315.354 85.0609L324.289 90.2192C325.524 90.9323 327.103 90.5091 327.816 89.274C328.529 88.0388 328.106 86.4594 326.871 85.7463Z" stroke="white" stroke-width="2.32" stroke-linecap="round" stroke-linejoin="round"/>
<path d="M296.243 83.8242L334.833 106.104" stroke="white" stroke-width="1.16" stroke-linecap="round" stroke-linejoin="round"/>
<path d="M81.7146 65.534L62.6478 54.5258C61.249 53.7102 60.229 52.3749 59.8099 50.8108C59.3908 49.2467 59.6066 47.5804 60.4102 46.1746L76.0092 9.43273C76.8241 8.02821 78.1622 7.00374 79.7307 6.58347C81.2992 6.16319 82.9703 6.38138 84.3783 7.19027L112.904 23.6597C114.305 24.4765 115.326 25.8142 115.744 27.381C116.162 28.9477 115.943 30.6162 115.135 32.0222L90.0315 63.2765C89.2194 64.6695 87.8918 65.6872 86.3356 66.1096C84.7795 66.532 83.1196 66.3252 81.7146 65.534V65.534Z" stroke="white" stroke-width="2.32" stroke-linecap="round" stroke-linejoin="round"/>
<path d="M105.689 13.5744L96.7543 8.41621C95.5191 7.7031 93.9397 8.12631 93.2266 9.36146C92.5135 10.5966 92.9367 12.1759 94.1719 12.8891L103.106 18.0473C104.341 18.7604 105.921 18.3373 106.634 17.1021C107.347 15.867 106.924 14.2876 105.689 13.5744Z" stroke="white" stroke-width="2.32" stroke-linecap="round" stroke-linejoin="round"/>
<path d="M75.0659 11.6719L113.656 33.9518" stroke="white" stroke-width="1.16" stroke-linecap="round" stroke-linejoin="round"/>
<path d="M9.1876 83.406L-5.28075 75.0527L-11.1772 76.9123L-14.5318 74.9755L-15.6756 69.0513L-30.3379 60.586C-31.1723 60.1083 -31.9042 59.4707 -32.4918 58.7098C-33.0795 57.949 -33.5114 57.0797 -33.7627 56.1517C-34.014 55.2238 -34.0799 54.2553 -33.9566 53.3019C-33.8332 52.3484 -33.5231 51.4286 -33.0439 50.5952L5.22455 -15.6877C6.19383 -17.3595 7.78553 -18.5798 9.65177 -19.0817C11.518 -19.5835 13.507 -19.3262 15.1841 -18.366L27.6557 -11.1656C27.6557 -11.1656 31.1857 -18.1493 38.8991 -13.696C46.6125 -9.24262 42.9798 -2.31817 42.9798 -2.31817L54.7553 4.48043C56.4292 5.45085 57.6502 7.0451 58.151 8.91399C58.6518 10.7829 58.3914 12.7741 57.427 14.4514L19.1586 80.7343C18.1882 82.4081 16.5939 83.6292 14.725 84.13C12.8561 84.6307 10.8649 84.3704 9.1876 83.406V83.406Z" stroke="white" stroke-width="2.32" stroke-linecap="round" stroke-linejoin="round"/>
<path d="M39.0495 35.6114L15.6233 76.1867C14.3832 77.9657 12.8761 78.7843 10.6814 77.289L-26.0486 56.0829C-26.4829 55.9261 -26.8739 55.6687 -27.1896 55.3318C-27.5053 54.9948 -27.7367 54.5879 -27.865 54.1444C-27.9933 53.7008 -28.0147 53.2332 -27.9275 52.7797C-27.8404 52.3263 -27.6471 51.8999 -27.3635 51.5355L-3.86492 10.8347C-0.346735 6.50658 40.2469 28.7415 39.0495 35.6114Z" stroke="white" stroke-width="1.18" stroke-linecap="round" stroke-linejoin="round"/>
<path d="M485.091 208.679L405.72 162.855C398.561 158.722 389.407 161.174 385.274 168.333L365.544 202.507C361.411 209.666 363.864 218.82 371.022 222.953L450.393 268.778C457.552 272.911 466.706 270.458 470.839 263.299L490.569 229.125C494.702 221.966 492.25 212.813 485.091 208.679Z" stroke="white" stroke-width="2.32" stroke-miterlimit="10"/>
<path d="M479.261 214.059L424.97 182.715C419.683 179.662 412.922 181.474 409.87 186.761L393.789 214.614C390.736 219.901 392.548 226.661 397.835 229.714L452.126 261.059C457.413 264.111 464.173 262.3 467.226 257.012L483.307 229.16C486.359 223.873 484.548 217.112 479.261 214.059Z" stroke="white" stroke-width="1.55" stroke-miterlimit="10"/>
<path d="M411.017 198.346L417.464 202.068L428.66 194.429L428.327 208.34L434.773 212.062L433.55 220.453L440.878 215.587L455.803 224.203L466.92 215.91L465.639 229.882L473.112 234.197" stroke="white" stroke-width="1.32" stroke-linecap="round" stroke-linejoin="round"/>
<path d="M399.081 171.983L398.157 171.45C395.938 170.169 393.102 170.929 391.821 173.147L372.98 205.781C371.699 207.999 372.46 210.836 374.678 212.116L375.602 212.65C377.82 213.931 380.657 213.171 381.937 210.952L400.778 178.319C402.059 176.1 401.299 173.264 399.081 171.983Z" stroke="white" stroke-width="2.07" stroke-miterlimit="10"/>
<path d="M399.096 216.096L402.405 218.007C402.405 218.007 406.352 214.991 407.736 215.334C409.12 215.677 411.059 218.485 411.059 218.485C412.207 220.124 412.827 222.075 412.837 224.076L416.808 226.368" stroke="white" stroke-width="0.81" stroke-linecap="round" stroke-linejoin="round"/>
<path d="M413.656 224.502L416.965 226.413C416.965 226.413 420.984 223.378 422.296 223.74C423.609 224.102 425.619 226.891 425.619 226.891C426.69 228.479 427.199 230.379 427.066 232.29L431.413 234.8" stroke="white" stroke-width="0.81" stroke-linecap="round" stroke-linejoin="round"/>
<path d="M428.934 233.323L432.243 235.233C432.243 235.233 436.19 232.218 437.574 232.561C438.958 232.904 440.897 235.712 440.897 235.712C442.046 237.347 442.663 239.297 442.663 241.295L446.646 243.595" stroke="white" stroke-width="0.81" stroke-linecap="round" stroke-linejoin="round"/>
<path d="M443.448 241.704L446.757 243.614C446.757 243.614 450.704 240.599 452.088 240.942C453.472 241.284 455.411 244.092 455.411 244.092C456.753 245.826 456.501 247.475 456.521 249.1L461.245 251.827" stroke="white" stroke-width="0.81" stroke-linecap="round" stroke-linejoin="round"/>
<path d="M698.03 193.388L647.573 164.257C643.118 161.685 637.421 163.211 634.849 167.667L618.873 195.337C616.301 199.792 617.828 205.489 622.283 208.062L672.74 237.193C677.195 239.765 682.892 238.239 685.464 233.783L701.44 206.113C704.012 201.658 702.485 195.961 698.03 193.388Z" stroke="white" stroke-width="2.32" stroke-linecap="round" stroke-linejoin="round"/>
<path d="M633.474 209.046C638.029 202 644.168 199.14 652.257 201.467C652.257 201.467 655.402 179.366 668.204 186.758C681.007 194.149 662.716 207.49 662.716 207.49C672.487 214.835 669.601 225.157 667.283 228.566" stroke="white" stroke-width="1.32" stroke-linecap="round" stroke-linejoin="round"/>
<path d="M737.268 254.125L686.812 224.994C682.356 222.421 676.659 223.948 674.087 228.403L658.111 256.073C655.539 260.529 657.066 266.226 661.521 268.798L711.978 297.929C716.433 300.501 722.13 298.975 724.702 294.52L740.678 266.849C743.25 262.394 741.724 256.697 737.268 254.125Z" stroke="white" stroke-width="2.32" stroke-linecap="round" stroke-linejoin="round"/>
<path d="M672.705 269.817C677.267 262.76 683.395 259.893 691.477 262.231C691.477 262.231 694.629 240.119 707.431 247.511C720.234 254.902 701.954 268.25 701.954 268.25C711.707 275.6 708.827 285.91 706.514 289.337" stroke="white" stroke-width="1.32" stroke-linecap="round" stroke-linejoin="round"/>
<path d="M570.68 76.6701L576.293 66.9484C577.001 65.7565 578.151 64.8917 579.492 64.5413C580.833 64.1909 582.259 64.3832 583.459 65.0765L662.447 108.718C663.658 109.417 664.541 110.568 664.903 111.918C665.265 113.268 665.075 114.706 664.376 115.917L657.288 128.195C656.589 129.405 655.438 130.288 654.088 130.65C652.738 131.012 651.299 130.822 650.089 130.124L572.504 83.9457C571.904 83.5909 571.379 83.1204 570.962 82.5613C570.544 82.0023 570.242 81.3659 570.072 80.6891C569.902 80.0123 569.869 79.3085 569.973 78.6186C570.077 77.9287 570.318 77.2664 570.68 76.6701V76.6701Z" stroke="white" stroke-width="2.32" stroke-miterlimit="10"/>
<path d="M608.007 94.8116C609.412 95.623 611.208 95.1441 612.017 93.7419C612.827 92.3398 612.344 90.5454 610.939 89.734L587.331 76.1039C585.925 75.2926 584.13 75.7715 583.32 77.1737C582.511 78.5758 582.994 80.3702 584.399 81.1815L608.007 94.8116Z" stroke="white" stroke-width="1.34" stroke-miterlimit="10"/>
<path d="M560.472 67.5499L563.568 62.187C564.046 61.3598 564.832 60.7555 565.754 60.5066C566.676 60.2577 567.659 60.3845 568.488 60.859L576.304 65.3717C576.898 65.8973 575.688 66.8871 574.693 68.6101L571.597 73.973C570.602 75.6959 570.344 77.2506 569.598 76.9874L561.782 72.4748C560.956 71.9942 560.355 71.206 560.109 70.283C559.864 69.3599 559.994 68.3771 560.472 67.5499V67.5499Z" stroke="white" stroke-width="3.19" stroke-miterlimit="10"/>
<path d="M452.026 149.926L441.756 143.997C441.409 143.798 441.104 143.533 440.86 143.216C440.616 142.899 440.437 142.537 440.333 142.15C440.23 141.763 440.203 141.36 440.257 140.964C440.31 140.567 440.441 140.185 440.642 139.839L451.086 118.773C451.923 117.324 452.601 116.148 454.039 116.979L468.872 125.543C470.321 126.379 470.168 126.671 468.818 129.01L456.126 148.779C455.731 149.471 455.079 149.979 454.311 150.194C453.544 150.408 452.723 150.312 452.026 149.926V149.926Z" stroke="white" stroke-width="2.32" stroke-linecap="round" stroke-linejoin="round"/>
<path d="M475.177 163.291L464.908 157.362C464.56 157.163 464.256 156.898 464.011 156.581C463.767 156.264 463.588 155.902 463.484 155.515C463.381 155.129 463.355 154.725 463.408 154.329C463.461 153.932 463.592 153.55 463.794 153.204L474.237 132.138C475.074 130.689 475.752 129.514 477.19 130.344L492.024 138.908C493.473 139.745 493.319 140.036 491.969 142.375L479.278 162.144C478.882 162.836 478.23 163.344 477.463 163.559C476.695 163.774 475.874 163.677 475.177 163.291V163.291Z" stroke="white" stroke-width="2.32" stroke-linecap="round" stroke-linejoin="round"/>
<path d="M454.783 113.713L471.465 123.344C471.465 123.344 475.306 116.692 466.965 111.876C458.624 107.061 454.783 113.713 454.783 113.713Z" stroke="white" stroke-width="2.32" stroke-linecap="round" stroke-linejoin="round"/>
<path d="M477.912 127.064L494.594 136.696C494.594 136.696 498.435 130.043 490.094 125.228C481.753 120.412 477.912 127.064 477.912 127.064Z" stroke="white" stroke-width="2.32" stroke-linecap="round" stroke-linejoin="round"/>
<path d="M528.76 201.423L433.951 146.685C431.96 145.536 429.414 146.218 428.264 148.209L428.093 148.506C426.943 150.497 427.625 153.044 429.617 154.193L524.425 208.931C526.417 210.081 528.963 209.399 530.113 207.407L530.284 207.111C531.434 205.119 530.752 202.573 528.76 201.423Z" stroke="white" stroke-width="2.32" stroke-linecap="round" stroke-linejoin="round"/>
<path d="M596.891 161.495L521.617 118.036C519.128 116.599 515.945 117.452 514.508 119.941L488.512 164.966C487.075 167.455 487.928 170.638 490.417 172.075L565.691 215.535C568.181 216.972 571.364 216.119 572.801 213.63L598.796 168.605C600.233 166.115 599.38 162.932 596.891 161.495Z" stroke="white" stroke-width="2.32" stroke-linecap="round" stroke-linejoin="round"/>
<path d="M539.514 137.712L524.407 128.99C523.398 128.407 522.109 128.753 521.527 129.761L500.519 166.149C499.936 167.157 500.282 168.446 501.29 169.029L516.398 177.751C517.406 178.333 518.695 177.987 519.277 176.979L540.286 140.591C540.868 139.583 540.522 138.294 539.514 137.712Z" stroke="white" stroke-width="0.9" stroke-linecap="round" stroke-linejoin="round"/>
<path d="M585.367 164.883L546.697 142.557C545.815 142.048 544.686 142.35 544.177 143.232L538.11 153.741C537.6 154.623 537.903 155.752 538.785 156.261L577.455 178.587C578.337 179.096 579.465 178.794 579.974 177.912L586.042 167.403C586.551 166.521 586.249 165.392 585.367 164.883Z" stroke="white" stroke-width="0.78" stroke-linecap="round" stroke-linejoin="round"/>
<path d="M551.585 167.818L536.695 159.22C535.97 158.802 535.043 159.05 534.625 159.775L523.459 179.116C523.04 179.84 523.289 180.767 524.013 181.185L538.904 189.782C539.628 190.201 540.555 189.953 540.974 189.228L552.14 169.887C552.558 169.163 552.31 168.236 551.585 167.818Z" stroke="white" stroke-width="0.64" stroke-linecap="round" stroke-linejoin="round"/>
<path d="M575.935 181.878L561.044 173.281C560.32 172.863 559.393 173.111 558.975 173.836L547.808 193.176C547.39 193.901 547.638 194.828 548.363 195.246L563.253 203.843C563.978 204.261 564.905 204.013 565.323 203.289L576.49 183.948C576.908 183.223 576.66 182.297 575.935 181.878Z" stroke="white" stroke-width="0.64" stroke-linecap="round" stroke-linejoin="round"/>
<path d="M622.562 140.563L618.227 148.071C617.692 148.997 616.812 149.672 615.779 149.949C614.746 150.226 613.646 150.081 612.72 149.546L551.677 115.825C550.751 115.29 550.075 114.409 549.799 113.377C549.522 112.344 549.667 111.243 550.201 110.317L555.676 100.835C556.21 99.9093 557.091 99.2336 558.124 98.9568C559.157 98.6801 560.257 98.825 561.183 99.3596L621.081 135.037C621.543 135.301 621.947 135.654 622.271 136.076C622.596 136.497 622.834 136.978 622.971 137.492C623.109 138.005 623.143 138.541 623.073 139.068C623.003 139.595 622.829 140.103 622.562 140.563V140.563Z" stroke="white" stroke-width="2.32" stroke-miterlimit="10"/>
<path d="M593.741 126.556C592.657 125.93 591.271 126.301 590.645 127.385C590.02 128.469 590.391 129.855 591.475 130.481L609.72 141.015C610.804 141.64 612.19 141.269 612.816 140.185C613.441 139.101 613.07 137.715 611.986 137.089L593.741 126.556Z" stroke="white" stroke-width="1.04" stroke-miterlimit="10"/>
<path d="M630.45 147.616L628.058 151.758C627.689 152.398 627.081 152.865 626.368 153.058C625.656 153.251 624.895 153.153 624.254 152.787L618.218 149.302C617.752 148.896 618.717 148.069 619.455 146.791L621.846 142.649C622.617 141.314 622.799 140.156 623.396 140.334L629.432 143.818C629.748 144.001 630.025 144.244 630.248 144.534C630.47 144.823 630.633 145.154 630.727 145.507C630.822 145.859 630.846 146.227 630.798 146.589C630.751 146.951 630.632 147.3 630.45 147.616Z" stroke="white" stroke-width="2.46" stroke-miterlimit="10"/>
<path d="M506.682 103.193L492.168 94.8132L486.272 96.6729L482.906 94.7295L481.899 88.8842L467.157 80.3727C465.483 79.4023 464.262 77.8081 463.761 75.9392C463.26 74.0703 463.521 72.0791 464.485 70.4018L502.753 4.11895C503.726 2.44775 505.32 1.22899 507.188 0.7285C509.056 0.228006 511.046 0.48635 512.724 1.44721L525.184 8.64108C525.184 8.64108 528.726 1.66393 536.439 6.11727C544.153 10.5706 540.52 17.4951 540.52 17.4951L552.307 24.3002C553.974 25.275 555.19 26.8688 555.688 28.735C556.186 30.6011 555.927 32.5885 554.967 34.2646L516.699 100.547C516.216 101.38 515.574 102.109 514.809 102.693C514.043 103.277 513.17 103.704 512.24 103.95C511.309 104.196 510.339 104.255 509.386 104.125C508.432 103.996 507.513 103.679 506.682 103.193Z" stroke="white" stroke-width="2.32" stroke-linecap="round" stroke-linejoin="round"/>
<path d="M532.751 12.3992C533.677 12.934 534.862 12.6166 535.396 11.6903C535.931 10.7639 535.614 9.57939 534.688 9.04456C533.761 8.50972 532.577 8.8271 532.042 9.75346C531.507 10.6798 531.824 11.8644 532.751 12.3992Z" stroke="white" stroke-width="1.23" stroke-linecap="round" stroke-linejoin="round"/>
<path d="M536.534 55.3892L513.107 95.9644C511.879 97.7501 510.36 98.5621 508.177 97.0734L471.447 75.8674C471.01 75.7147 470.616 75.46 470.297 75.1246C469.978 74.7891 469.744 74.3825 469.614 73.9384C469.483 73.4944 469.461 73.0256 469.548 72.5711C469.635 72.1165 469.829 71.6893 470.114 71.3247L493.619 30.6125C497.149 26.2909 537.731 48.5192 536.534 55.3892Z" stroke="white" stroke-width="1.18" stroke-linecap="round" stroke-linejoin="round"/>
<path d="M536.715 281.613L517.66 270.612C516.258 269.799 515.236 268.463 514.817 266.898C514.397 265.333 514.615 263.666 515.422 262.261L531.028 225.507C531.843 224.108 533.179 223.088 534.743 222.669C536.307 222.25 537.973 222.466 539.379 223.27L567.905 239.739C569.306 240.552 570.329 241.887 570.748 243.453C571.167 245.018 570.95 246.685 570.142 248.09L545.032 279.356C544.22 280.749 542.892 281.767 541.336 282.189C539.78 282.611 538.12 282.405 536.715 281.613Z" stroke="white" stroke-width="2.32" stroke-linecap="round" stroke-linejoin="round"/>
<path d="M560.701 229.633L551.766 224.475C550.531 223.762 548.952 224.185 548.239 225.42C547.526 226.655 547.949 228.235 549.184 228.948L558.118 234.106C559.354 234.819 560.933 234.396 561.646 233.161C562.359 231.925 561.936 230.346 560.701 229.633Z" stroke="white" stroke-width="2.32" stroke-linecap="round" stroke-linejoin="round"/>
<path d="M530.086 227.721L568.676 250.001" stroke="white" stroke-width="1.16" stroke-linecap="round" stroke-linejoin="round"/>
<path d="M335.785 189.281L321.875 181.251C320.71 180.574 319.86 179.463 319.511 178.161C319.162 176.859 319.343 175.472 320.014 174.303L328.921 158.877C329.598 157.711 330.708 156.861 332.01 156.512C333.312 156.163 334.699 156.344 335.868 157.015L338.96 158.8L341.641 154.156L349.766 158.847L346.799 163.326L349.754 165.032C350.917 165.712 351.765 166.822 352.113 168.123C352.462 169.424 352.283 170.81 351.616 171.98L342.709 187.406C342.032 188.565 340.927 189.412 339.631 189.762C338.335 190.113 336.954 189.94 335.785 189.281Z" stroke="white" stroke-width="2.32" stroke-linecap="round" stroke-linejoin="round"/>
<path d="M353.18 153.011L345.044 148.313C343.431 147.382 341.368 147.935 340.437 149.548L340.43 149.559C339.499 151.173 340.052 153.236 341.665 154.167L349.8 158.864C351.414 159.795 353.477 159.243 354.408 157.629L354.415 157.618C355.346 156.005 354.793 153.942 353.18 153.011Z" stroke="white" stroke-width="2.32" stroke-linecap="round" stroke-linejoin="round"/>
<path d="M867.069 -18.3167L816.612 -47.4479C812.156 -50.0202 806.459 -48.4937 803.887 -44.0383L787.912 -16.3682C785.339 -11.9128 786.866 -6.2158 791.321 -3.6435L841.778 25.4877C846.233 28.06 851.93 26.5335 854.503 22.0782L870.478 -5.592C873.05 -10.0474 871.524 -15.7444 867.069 -18.3167Z" stroke="white" stroke-width="2.32" stroke-linecap="round" stroke-linejoin="round"/>
<path d="M802.514 -2.65898C807.069 -9.70516 813.208 -12.5656 821.297 -10.2383C821.297 -10.2383 824.442 -32.3389 837.244 -24.9474C850.047 -17.5559 831.767 -4.20874 831.767 -4.20874C841.527 3.12998 838.641 13.4521 836.334 16.8672" stroke="white" stroke-width="1.32" stroke-linecap="round" stroke-linejoin="round"/>
<path d="M761.753 127.573L723.551 105.517C719.921 103.422 715.279 104.665 713.184 108.295L691.128 146.497C689.032 150.127 690.276 154.768 693.906 156.864L732.108 178.92C735.737 181.016 740.379 179.772 742.475 176.142L764.53 137.94C766.626 134.31 765.382 129.669 761.753 127.573Z" stroke="white" stroke-width="2.32" stroke-miterlimit="10"/>
<path d="M812.333 112.563L800.317 105.626C798.818 104.761 796.9 105.274 796.034 106.774L784.347 127.016C783.481 128.516 783.995 130.434 785.495 131.3L797.51 138.237C799.01 139.103 800.928 138.589 801.794 137.089L813.48 116.847C814.346 115.347 813.832 113.429 812.333 112.563Z" stroke="white" stroke-width="2.32" stroke-miterlimit="10"/>
<path d="M828.208 146.151L816.193 139.214C814.693 138.348 812.775 138.862 811.909 140.362L800.223 160.604C799.357 162.104 799.871 164.022 801.37 164.888L813.386 171.825C814.885 172.691 816.803 172.177 817.669 170.677L829.356 150.435C830.222 148.935 829.708 147.017 828.208 146.151Z" stroke="white" stroke-width="2.32" stroke-miterlimit="10"/>
<path d="M791.497 134.767C791.497 134.767 785.283 155.78 774.724 163.817C764.166 171.855 745.323 171.184 745.323 171.184L742.431 176.194C742.431 176.194 765.215 193.912 783.563 189.459C801.91 185.005 807.34 168.408 807.34 168.408" stroke="white" stroke-width="2.32" stroke-miterlimit="10"/>
<path d="M752.652 132.561L723.772 115.887C721.453 114.548 718.488 115.343 717.149 117.662L706.806 135.576C705.467 137.895 706.262 140.861 708.581 142.2L737.46 158.873C739.78 160.212 742.745 159.418 744.084 157.098L754.427 139.184C755.766 136.865 754.971 133.9 752.652 132.561Z" stroke="white" stroke-width="1.25" stroke-miterlimit="10"/>
<path d="M733.025 170.61C734.374 171.388 736.098 170.926 736.877 169.578C737.655 168.229 737.193 166.505 735.845 165.726C734.496 164.948 732.772 165.41 731.993 166.758C731.215 168.107 731.677 169.831 733.025 170.61Z" stroke="white" stroke-width="1.25" stroke-miterlimit="10"/>
<path d="M716.834 161.264C718.182 162.043 719.907 161.581 720.685 160.232C721.464 158.884 721.002 157.159 719.653 156.38C718.305 155.602 716.58 156.064 715.802 157.413C715.023 158.761 715.485 160.486 716.834 161.264Z" stroke="white" stroke-width="1.25" stroke-miterlimit="10"/>
<path d="M700.688 151.942C702.037 152.721 703.761 152.258 704.54 150.91C705.319 149.561 704.857 147.837 703.508 147.058C702.159 146.28 700.435 146.742 699.656 148.09C698.878 149.439 699.34 151.163 700.688 151.942Z" stroke="white" stroke-width="1.25" stroke-miterlimit="10"/>
<path d="M876.5 165.909L882.106 156.199C882.805 154.988 883.956 154.105 885.306 153.743C886.656 153.381 888.095 153.571 889.305 154.27L968.372 197.88C969.582 198.579 970.466 199.73 970.827 201.08C971.189 202.43 971 203.869 970.301 205.079L963.212 217.357C962.514 218.567 961.362 219.451 960.012 219.812C958.662 220.174 957.224 219.985 956.013 219.286L878.429 173.108C877.218 172.409 876.335 171.258 875.973 169.908C875.611 168.558 875.801 167.119 876.5 165.909Z" stroke="white" stroke-width="2.32" stroke-miterlimit="10"/>
<path d="M913.834 184.04C915.24 184.852 917.035 184.373 917.845 182.97C918.654 181.568 918.171 179.774 916.766 178.963L893.158 165.332C891.753 164.521 889.957 165 889.148 166.402C888.338 167.804 888.821 169.599 890.226 170.41L913.834 184.04Z" stroke="white" stroke-width="1.34" stroke-miterlimit="10"/>
<path d="M866.275 156.796L869.378 151.422C869.858 150.596 870.646 149.995 871.569 149.749C872.493 149.504 873.475 149.634 874.302 150.112L882.107 154.618C882.708 155.132 881.497 156.122 880.503 157.845L877.4 163.219C876.405 164.942 876.153 166.485 875.407 166.222L867.591 161.709C866.768 161.23 866.167 160.444 865.921 159.524C865.674 158.604 865.801 157.623 866.275 156.796V156.796Z" stroke="white" stroke-width="3.19" stroke-miterlimit="10"/>
<path d="M890.555 104.039L875.496 130.123L872.381 128.325L874.328 123.424L817.219 90.4525L819.65 86.242L815.093 83.6723L819.81 75.5025L824.366 78.0722L826.936 73.6222L883.93 106.528L887.109 102.05L890.555 104.039Z" stroke="white" stroke-width="1.7" stroke-linecap="round" stroke-linejoin="round"/>
<path d="M806.599 72.957L817.61 79.3142" stroke="white" stroke-width="2.27" stroke-linecap="round" stroke-linejoin="round"/>
<path d="M858.606 102.721L853.744 111.142" stroke="white" stroke-width="1.13" stroke-linecap="round" stroke-linejoin="round"/>
<path d="M851.326 104.133L848.895 108.343" stroke="white" stroke-width="1.13" stroke-linecap="round" stroke-linejoin="round"/>
<path d="M848.546 97.7188L844.034 105.535" stroke="white" stroke-width="1.13" stroke-linecap="round" stroke-linejoin="round"/>
<path d="M839.197 91.5156L834.335 99.9365" stroke="white" stroke-width="1.13" stroke-linecap="round" stroke-linejoin="round"/>
<path d="M831.917 92.9258L829.486 97.1362" stroke="white" stroke-width="1.13" stroke-linecap="round" stroke-linejoin="round"/>
<path d="M829.138 86.5156L824.625 94.3317" stroke="white" stroke-width="1.13" stroke-linecap="round" stroke-linejoin="round"/>
<path d="M841.615 98.5273L839.184 102.738" stroke="white" stroke-width="1.13" stroke-linecap="round" stroke-linejoin="round"/>
<path d="M868.351 108.242L863.838 116.058" stroke="white" stroke-width="1.13" stroke-linecap="round" stroke-linejoin="round"/>
<path d="M861.42 109.049L858.989 113.259" stroke="white" stroke-width="1.13" stroke-linecap="round" stroke-linejoin="round"/>
<path d="M923.388 131.679L915.858 144.721L912.788 142.949L913.436 140.326L880.573 121.276L885.434 112.855L918.184 131.839L919.987 129.716L923.388 131.679Z" stroke="white" stroke-width="1.7" stroke-linecap="round" stroke-linejoin="round"/>
<path d="M890.555 104.039L887.109 102.05L883.93 106.528L826.936 73.6222L824.366 78.0722L819.81 75.5025L815.093 83.6723L819.65 86.242L817.219 90.4525L874.328 123.424L872.381 128.325L875.496 130.123L880.595 121.292L913.435 140.328L912.788 142.952L915.857 144.724L923.387 131.682L919.986 129.718L918.183 131.841L885.456 112.871L890.555 104.039Z" stroke="white" stroke-width="2.83" stroke-linecap="round" stroke-linejoin="round"/>
<path d="M761.741 100.032C754.068 104.442 728.828 89.6865 726.882 83.3599C725.402 76.1463 735.494 75.0047 743.327 64.6785C751.732 53.6783 746.464 41.7215 748.829 37.6252C754.929 27.0592 778.015 51.1593 778.809 70.3913C779.301 78.4193 769.414 95.623 761.741 100.032Z" stroke="white" stroke-width="2.32" stroke-linecap="round" stroke-linejoin="round"/>
<path d="M748.451 38.6967L743.442 35.8047L742.143 41.9012L748.3 45.5468L748.451 38.6967Z" stroke="white" stroke-width="2.32" stroke-linecap="round" stroke-linejoin="round"/>
<path d="M728.951 77.4022L722.732 73.8119L727.376 69.6162L734.067 73.3885L728.951 77.4022Z" stroke="white" stroke-width="2.32" stroke-linecap="round" stroke-linejoin="round"/>
<path d="M761.826 84.6505C757.73 87.0019 744.274 79.0813 743.217 75.7476C742.404 71.8856 747.818 71.2838 752.014 65.7803C756.476 59.8973 753.7 53.5326 754.965 51.3418C758.219 45.7051 770.569 58.5709 770.968 68.8423C771.213 73.1071 765.922 82.2991 761.826 84.6505Z" stroke="white" stroke-width="0.95" stroke-linecap="round" stroke-linejoin="round"/>
<path d="M707.009 34.7478L627.638 -11.0768C620.479 -15.21 611.325 -12.7572 607.192 -5.59835L587.462 28.5757C583.328 35.7346 585.781 44.8885 592.94 49.0216L672.311 94.8462C679.469 98.9794 688.623 96.5266 692.757 89.3678L712.487 55.1937C716.62 48.0349 714.167 38.8809 707.009 34.7478Z" stroke="white" stroke-width="2.32" stroke-miterlimit="10"/>
<path d="M701.196 40.1257L646.906 8.78106C641.618 5.7285 634.858 7.54004 631.805 12.8272L615.724 40.68C612.672 45.9671 614.483 52.7279 619.77 55.7804L674.061 87.1251C679.348 90.1776 686.109 88.3661 689.161 83.0789L705.242 55.2262C708.295 49.939 706.483 43.1783 701.196 40.1257Z" stroke="white" stroke-width="1.55" stroke-miterlimit="10"/>
<path d="M632.945 24.4245L639.391 28.1465L650.594 20.4959L650.254 34.4181L656.701 38.1402L655.466 46.5249L662.805 41.6647L677.73 50.2815L688.847 41.9882L687.566 55.9602L695.028 60.2686" stroke="white" stroke-width="1.32" stroke-linecap="round" stroke-linejoin="round"/>
<path d="M621.01 -1.94437L620.086 -2.47798C617.868 -3.75868 615.031 -2.99863 613.75 -0.780401L594.909 31.8532C593.629 34.0715 594.389 36.9079 596.607 38.1886L597.531 38.7222C599.749 40.0029 602.586 39.2429 603.867 37.0247L622.708 4.39101C623.988 2.17279 623.228 -0.663682 621.01 -1.94437Z" stroke="white" stroke-width="2.07" stroke-miterlimit="10"/>
<path d="M621.011 42.1933L624.32 44.1038C624.32 44.1038 628.273 41.0768 629.651 41.431C631.029 41.7852 632.981 44.5705 632.981 44.5705C634.129 46.2064 634.745 48.156 634.747 50.1544L638.729 52.4536" stroke="white" stroke-width="0.81" stroke-linecap="round" stroke-linejoin="round"/>
<path d="M635.571 50.6015L638.88 52.512C638.88 52.512 642.833 49.485 644.211 49.8392C645.589 50.1935 647.541 52.9787 647.541 52.9787C648.605 54.5698 649.113 56.4681 648.987 58.3782L653.266 60.8486" stroke="white" stroke-width="0.81" stroke-linecap="round" stroke-linejoin="round"/>
<path d="M650.803 59.3945L654.112 61.305C654.112 61.305 658.066 58.278 659.444 58.6322C660.822 58.9864 662.774 61.7717 662.774 61.7717C663.917 63.4099 664.533 65.3579 664.54 67.3556L668.522 69.6547" stroke="white" stroke-width="0.81" stroke-linecap="round" stroke-linejoin="round"/>
<path d="M665.363 67.7988L668.672 69.7093C668.672 69.7093 672.626 66.6823 674.003 67.0365C675.381 67.3907 677.333 70.176 677.333 70.176C678.669 71.9208 678.416 73.5703 678.443 75.1834L683.167 77.9107" stroke="white" stroke-width="0.81" stroke-linecap="round" stroke-linejoin="round"/>
<path d="M995.416 61.1247L980.994 52.7978L975.109 54.6641L971.686 52.6877L970.542 46.7634L955.948 38.3376C954.274 37.3672 953.053 35.773 952.552 33.9041C952.052 32.0352 952.312 30.044 953.276 28.3667L991.545 -37.9162C992.517 -39.5863 994.111 -40.8037 995.978 -41.3022C997.845 -41.8007 999.834 -41.5398 1001.51 -40.5765L1013.92 -33.409C1013.92 -33.409 1017.47 -40.3976 1025.17 -35.9508C1032.88 -31.5041 1029.25 -24.5616 1029.25 -24.5616L1040.98 -17.7894C1042.65 -16.8201 1043.87 -15.2284 1044.37 -13.3622C1044.87 -11.4959 1044.62 -9.50691 1043.66 -7.82981L1005.39 58.453C1004.42 60.1269 1002.82 61.3479 1000.95 61.8487C999.085 62.3495 997.094 62.0891 995.416 61.1247V61.1247Z" stroke="white" stroke-width="2.32" stroke-linecap="round" stroke-linejoin="round"/>
<path d="M1025.33 13.354L1001.9 53.9293C1000.66 55.7084 999.152 56.527 996.957 55.0317L960.238 33.8322C959.802 33.6795 959.407 33.4249 959.089 33.0894C958.77 32.754 958.535 32.3473 958.405 31.9032C958.275 31.4592 958.252 30.9905 958.339 30.5359C958.426 30.0814 958.62 29.6541 958.905 29.2896L982.411 -11.4227C985.94 -15.7442 1026.52 6.48409 1025.33 13.354Z" stroke="white" stroke-width="1.18" stroke-linecap="round" stroke-linejoin="round"/>
<path d="M752.197 -47.396L721.481 -65.1303C718.197 -67.0259 713.999 -65.9009 712.104 -62.6177L680.752 -8.31574C678.857 -5.03252 679.982 -0.834312 683.265 1.06126L713.982 18.7956C717.265 20.6911 721.463 19.5662 723.359 16.283L754.71 -38.0189C756.606 -41.3022 755.481 -45.5004 752.197 -47.396Z" stroke="white" stroke-width="2.32" stroke-linecap="round" stroke-linejoin="round"/>
<path d="M746.624 -45.2228L722.4 -59.2086C719.879 -60.664 716.656 -59.8003 715.2 -57.2796L691.702 -16.5788C690.246 -14.0581 691.11 -10.8349 693.631 -9.37952L717.855 4.60633C720.376 6.06166 723.599 5.198 725.054 2.67729L748.553 -38.0235C750.008 -40.5442 749.145 -43.7675 746.624 -45.2228Z" stroke="white" stroke-width="1.31" stroke-linecap="round" stroke-linejoin="round"/>
<path d="M700.757 6.23515C702.124 7.02467 703.873 6.55611 704.662 5.18862C705.452 3.82114 704.983 2.07257 703.616 1.28305C702.248 0.493535 700.5 0.962062 699.71 2.32955C698.921 3.69703 699.389 5.44563 700.757 6.23515Z" stroke="white" stroke-width="1.31" stroke-linecap="round" stroke-linejoin="round"/>
<path d="M901.287 54.6732L882.255 43.6847C880.852 42.871 879.829 41.5354 879.407 39.9696C878.986 38.4037 879.201 36.7348 880.006 35.327L895.605 -1.41489C896.42 -2.81941 897.758 -3.84392 899.326 -4.26419C900.895 -4.68447 902.566 -4.46626 903.974 -3.65737L932.5 12.8121C933.901 13.6289 934.922 14.9666 935.34 16.5334C935.758 18.1001 935.539 19.7686 934.731 21.1746L909.627 52.4289C908.813 53.8258 907.48 54.845 905.919 55.2652C904.357 55.6854 902.693 55.4726 901.287 54.6732V54.6732Z" stroke="white" stroke-width="2.32" stroke-linecap="round" stroke-linejoin="round"/>
<path d="M925.274 2.69161L916.34 -2.46663C915.105 -3.17975 913.525 -2.75654 912.812 -1.52139C912.099 -0.286241 912.522 1.2931 913.758 2.00621L922.692 7.16446C923.927 7.87757 925.506 7.4544 926.22 6.21926C926.933 4.98411 926.509 3.40473 925.274 2.69161Z" stroke="white" stroke-width="2.32" stroke-linecap="round" stroke-linejoin="round"/>
<path d="M894.651 0.789062L933.241 23.0689" stroke="white" stroke-width="1.16" stroke-linecap="round" stroke-linejoin="round"/>
<path d="M746.511 243.149L732.601 235.118C731.438 234.443 730.589 233.334 730.239 232.035C729.889 230.736 730.066 229.351 730.733 228.182L739.646 212.744C740.325 211.582 741.436 210.736 742.736 210.389C744.036 210.043 745.42 210.224 746.587 210.894L749.691 212.686L752.372 208.042L760.485 212.726L757.53 217.212L760.474 218.911C761.64 219.585 762.491 220.693 762.841 221.993C763.192 223.293 763.012 224.679 762.342 225.847L753.428 241.285C752.754 242.446 751.649 243.293 750.353 243.642C749.057 243.991 747.676 243.814 746.511 243.149V243.149Z" stroke="white" stroke-width="2.32" stroke-linecap="round" stroke-linejoin="round"/>
<path d="M763.909 206.899L755.774 202.202C754.16 201.271 752.097 201.823 751.166 203.437L751.16 203.448C750.228 205.061 750.781 207.124 752.394 208.056L760.53 212.753C762.143 213.684 764.206 213.131 765.137 211.518L765.144 211.507C766.075 209.893 765.522 207.831 763.909 206.899Z" stroke="white" stroke-width="2.32" stroke-linecap="round" stroke-linejoin="round"/>
<path d="M820.888 244.314L808.964 237.43C808.152 236.961 807.559 236.19 807.315 235.284C807.07 234.379 807.195 233.414 807.66 232.6L819.816 208.095C820.797 206.395 821.588 205.025 823.254 205.987L840.586 215.994C842.275 216.969 842.095 217.307 840.514 220.045L825.723 243.029C825.491 243.431 825.181 243.784 824.812 244.066C824.443 244.349 824.022 244.556 823.573 244.675C823.123 244.795 822.655 244.825 822.194 244.763C821.734 244.701 821.29 244.548 820.888 244.314V244.314Z" stroke="white" stroke-width="2.32" stroke-linecap="round" stroke-linejoin="round"/>
<path d="M847.827 259.867L835.949 253.009C835.545 252.778 835.192 252.47 834.908 252.102C834.624 251.734 834.415 251.313 834.294 250.864C834.173 250.416 834.141 249.947 834.202 249.487C834.262 249.026 834.413 248.581 834.645 248.179L846.833 223.616C847.815 221.916 848.605 220.547 850.271 221.509L867.558 231.489C869.247 232.464 869.067 232.802 867.486 235.54L852.695 258.524C852.467 258.935 852.16 259.297 851.79 259.589C851.421 259.88 850.997 260.094 850.544 260.219C850.09 260.345 849.616 260.378 849.15 260.317C848.683 260.257 848.234 260.103 847.827 259.867Z" stroke="white" stroke-width="2.32" stroke-linecap="round" stroke-linejoin="round"/>
<path d="M824.143 202.07L843.541 213.269C843.541 213.269 848.014 205.522 838.304 199.915C828.593 194.309 824.143 202.07 824.143 202.07Z" stroke="white" stroke-width="2.32" stroke-linecap="round" stroke-linejoin="round"/>
<path d="M851.06 217.611L870.458 228.81C870.458 228.81 874.931 221.063 865.221 215.456C855.51 209.85 851.06 217.611 851.06 217.611Z" stroke="white" stroke-width="2.32" stroke-linecap="round" stroke-linejoin="round"/>
<path d="M910.212 304.176L799.896 240.485C797.577 239.146 794.612 239.941 793.273 242.26L793.075 242.602C791.736 244.921 792.531 247.886 794.85 249.225L905.166 312.916C907.485 314.255 910.45 313.46 911.789 311.141L911.986 310.799C913.325 308.48 912.531 305.514 910.212 304.176Z" stroke="white" stroke-width="2.32" stroke-linecap="round" stroke-linejoin="round"/>
<path d="M989.471 257.727L901.885 207.159C898.986 205.486 895.28 206.479 893.606 209.378L863.362 261.763C861.688 264.661 862.681 268.368 865.58 270.042L953.166 320.61C956.065 322.283 959.772 321.29 961.445 318.391L991.69 266.006C993.363 263.107 992.37 259.401 989.471 257.727Z" stroke="white" stroke-width="2.32" stroke-linecap="round" stroke-linejoin="round"/>
<path d="M922.707 230.038L905.147 219.9C903.968 219.22 902.462 219.623 901.781 220.802L877.341 263.134C876.66 264.313 877.064 265.82 878.242 266.5L895.803 276.638C896.981 277.319 898.488 276.915 899.169 275.737L923.609 233.404C924.29 232.226 923.886 230.719 922.707 230.038Z" stroke="white" stroke-width="1.04" stroke-linecap="round" stroke-linejoin="round"/>
<path d="M976.071 261.674L931.08 235.699C930.053 235.106 928.739 235.458 928.146 236.485L921.084 248.717C920.491 249.744 920.843 251.057 921.87 251.65L966.861 277.626C967.889 278.219 969.202 277.867 969.795 276.84L976.857 264.608C977.45 263.581 977.098 262.267 976.071 261.674Z" stroke="white" stroke-width="0.91" stroke-linecap="round" stroke-linejoin="round"/>
<path d="M1121.68 17.2432C1111.41 23.1313 1077.64 3.3962 1075.07 -5.10518C1073.04 -14.7661 1086.58 -16.291 1097.09 -30.0748C1108.28 -44.8214 1101.34 -60.7568 1104.49 -66.2583C1112.64 -80.3844 1143.54 -48.1535 1144.59 -22.4128C1145.18 -11.6813 1131.95 11.337 1121.68 17.2432Z" stroke="white" stroke-width="3.1" stroke-linecap="round" stroke-linejoin="round"/>
<path d="M837.914 51.5255L833.579 59.0335C833.045 59.9575 832.167 60.6324 831.137 60.9102C830.107 61.1881 829.009 61.0463 828.083 60.5158L767.029 26.7877C766.103 26.253 765.427 25.3725 765.15 24.3396C764.874 23.3068 765.019 22.2063 765.553 21.2802L771.028 11.7982C771.562 10.8722 772.443 10.1965 773.476 9.91975C774.509 9.643 775.609 9.78786 776.535 10.3225L836.469 45.9904C836.929 46.2577 837.331 46.6133 837.652 47.0367C837.974 47.4601 838.209 47.9429 838.343 48.4573C838.477 48.9718 838.508 49.5078 838.435 50.0343C838.361 50.5609 838.184 51.0677 837.914 51.5255V51.5255Z" stroke="white" stroke-width="2.32" stroke-miterlimit="10"/>
<path d="M809.093 37.5185C808.009 36.8927 806.623 37.2641 805.997 38.348C805.371 39.4319 805.743 40.8179 806.827 41.4436L825.072 51.9775C826.156 52.6033 827.542 52.232 828.167 51.1481C828.793 50.0641 828.422 48.6781 827.338 48.0523L809.093 37.5185Z" stroke="white" stroke-width="1.04" stroke-miterlimit="10"/>
<path d="M845.801 58.5723L843.41 62.7143C843.228 63.0317 842.986 63.3101 842.697 63.5334C842.407 63.7566 842.076 63.9203 841.723 64.0149C841.37 64.1095 841.002 64.1332 840.639 64.0846C840.277 64.036 839.928 63.9162 839.612 63.7319L833.576 60.2469C833.104 59.8526 834.047 59.0887 834.818 57.7536L837.209 53.6117C837.98 52.2767 838.15 51.1122 838.754 51.2783L844.79 54.7633C845.107 54.9464 845.385 55.1903 845.608 55.4811C845.83 55.7719 845.993 56.1038 846.087 56.4577C846.181 56.8117 846.204 57.1807 846.155 57.5436C846.106 57.9064 845.986 58.256 845.801 58.5723V58.5723Z" stroke="white" stroke-width="2.46" stroke-miterlimit="10"/>
<path d="M1062.4 218.191L1011.94 189.06C1007.48 186.488 1001.79 188.014 999.215 192.469L983.239 220.14C980.667 224.595 982.194 230.292 986.649 232.864L1037.11 261.996C1041.56 264.568 1047.26 263.041 1049.83 258.586L1065.81 230.916C1068.38 226.46 1066.85 220.763 1062.4 218.191Z" stroke="white" stroke-width="2.32" stroke-linecap="round" stroke-linejoin="round"/>
<path d="M997.833 233.888C1002.39 226.842 1008.52 223.975 1016.61 226.302C1016.61 226.302 1019.75 204.201 1032.56 211.599C1045.38 218.998 1027.08 232.332 1027.08 232.332C1030.39 234.591 1032.71 238.037 1033.56 241.959C1034.41 245.88 1033.72 249.978 1031.64 253.407" stroke="white" stroke-width="1.32" stroke-linecap="round" stroke-linejoin="round"/>
<path d="M1101.64 278.927L1051.18 249.796C1046.72 247.224 1041.03 248.75 1038.45 253.206L1022.48 280.876C1019.91 285.331 1021.43 291.028 1025.89 293.601L1076.34 322.732C1080.8 325.304 1086.5 323.778 1089.07 319.322L1105.04 291.652C1107.62 287.197 1106.09 281.5 1101.64 278.927Z" stroke="white" stroke-width="2.32" stroke-linecap="round" stroke-linejoin="round"/>
<path d="M1118.67 103.592L1128.39 109.205C1129.6 109.904 1130.49 111.055 1130.85 112.405C1131.21 113.755 1131.02 115.194 1130.32 116.404L1086.67 195.415C1085.96 196.607 1084.81 197.472 1083.47 197.822C1082.13 198.173 1080.7 197.98 1079.5 197.287L1067.27 190.225C1066.07 189.532 1065.19 188.393 1064.82 187.057C1064.45 185.72 1064.63 184.292 1065.31 183.083L1111.49 105.487C1112.2 104.288 1113.35 103.415 1114.69 103.06C1116.04 102.705 1117.47 102.897 1118.67 103.592Z" stroke="white" stroke-width="2.32" stroke-miterlimit="10"/>
<path d="M1100.54 140.926C1099.73 142.332 1100.21 144.127 1101.61 144.937C1103.01 145.746 1104.81 145.263 1105.62 143.858L1119.25 120.25C1120.06 118.844 1119.58 117.049 1118.18 116.239C1116.78 115.43 1114.98 115.913 1114.17 117.318L1100.54 140.926Z" stroke="white" stroke-width="1.34" stroke-miterlimit="10"/>
<path d="M1127.79 93.3847L1133.21 96.5139C1133.62 96.7491 1133.98 97.0632 1134.27 97.438C1134.56 97.8128 1134.77 98.2411 1134.9 98.6982C1135.02 99.1553 1135.05 99.6323 1134.99 100.102C1134.93 100.571 1134.77 101.024 1134.54 101.434L1130.02 109.25C1129.51 109.851 1128.51 108.652 1126.78 107.65L1121.42 104.554C1119.69 103.559 1118.16 103.296 1118.42 102.55L1122.93 94.7342C1123.4 93.9178 1124.18 93.3189 1125.09 93.0666C1125.99 92.8142 1126.96 92.9284 1127.79 93.3847V93.3847Z" stroke="white" stroke-width="3.19" stroke-miterlimit="10"/>
<path d="M1057.38 77.4424L1043.46 69.4053C1042.29 68.7284 1041.44 67.6176 1041.09 66.3158C1040.75 65.0139 1040.93 63.6269 1041.6 62.458L1050.5 47.0312C1051.18 45.8684 1052.29 45.0206 1053.6 44.672C1054.9 44.3235 1056.28 44.5023 1057.45 45.1696L1060.56 46.9615L1063.23 42.3289L1071.35 47.0194L1068.39 51.4873L1071.35 53.1936C1072.51 53.8729 1073.36 54.9836 1073.71 56.2845C1074.06 57.5853 1073.88 58.9711 1073.21 60.1409L1064.3 75.5677C1063.63 76.7292 1062.52 77.5777 1061.23 77.9287C1059.93 78.2797 1058.55 78.105 1057.38 77.4424Z" stroke="white" stroke-width="2.32" stroke-linecap="round" stroke-linejoin="round"/>
<path d="M1074.77 41.1843L1066.63 36.4873C1065.02 35.5558 1062.96 36.1086 1062.03 37.7218L1062.02 37.7332C1061.09 39.3465 1061.64 41.4094 1063.25 42.3408L1071.39 47.0379C1073 47.9693 1075.06 47.4165 1076 45.8033L1076 45.7919C1076.93 44.1786 1076.38 42.1158 1074.77 41.1843Z" stroke="white" stroke-width="2.32" stroke-linecap="round" stroke-linejoin="round"/>
<path d="M1201.98 16.3658L1171.27 -1.36853C1167.98 -3.2641 1163.79 -2.13921 1161.89 1.14401L1130.54 55.446C1128.64 58.7292 1129.77 62.9274 1133.05 64.823L1163.77 82.5573C1167.05 84.4529 1171.25 83.328 1173.14 80.0448L1204.5 25.7428C1206.39 22.4596 1205.27 18.2613 1201.98 16.3658Z" stroke="white" stroke-width="2" stroke-linecap="round" stroke-linejoin="round"/>
<path d="M1196.4 18.5448L1172.18 4.55894C1169.66 3.10361 1166.44 3.96727 1164.98 6.48798L1141.48 47.1888C1140.03 49.7095 1140.89 52.9327 1143.41 54.3881L1167.63 68.3739C1170.16 69.8292 1173.38 68.9656 1174.83 66.4449L1198.33 25.7441C1199.79 23.2233 1198.92 20.0001 1196.4 18.5448Z" stroke="white" stroke-width="1.31" stroke-linecap="round" stroke-linejoin="round"/>
<path d="M1150.54 70.0047C1151.91 70.7942 1153.65 70.3257 1154.44 68.9582C1155.23 67.5907 1154.76 65.8421 1153.4 65.0526C1152.03 64.2631 1150.28 64.7316 1149.49 66.0991C1148.7 67.4666 1149.17 69.2152 1150.54 70.0047Z" stroke="white" stroke-width="1.31" stroke-linecap="round" stroke-linejoin="round"/>
<path d="M1267.99 156.939L1252.93 183.023L1249.81 181.225L1251.76 176.324L1194.66 143.359L1197.09 139.148L1192.54 136.579L1197.25 128.409L1201.81 130.978L1204.38 126.528L1261.37 159.434L1264.54 154.949L1267.99 156.939Z" stroke="white" stroke-width="1.7" stroke-linecap="round" stroke-linejoin="round"/>
<path d="M1184.04 125.861L1195.05 132.219" stroke="white" stroke-width="2.27" stroke-linecap="round" stroke-linejoin="round"/>
<path d="M1267.99 156.939L1264.54 154.949L1261.37 159.434L1204.38 126.528L1201.81 130.978L1197.25 128.409L1192.54 136.579L1197.09 139.148L1194.66 143.359L1251.76 176.324L1249.81 181.225L1252.93 183.023L1258.03 174.191L1290.88 193.234L1290.23 195.858L1293.29 197.623L1300.82 184.581L1297.43 182.625L1295.63 184.748L1262.89 165.771L1267.99 156.939Z" stroke="white" stroke-width="2.32" stroke-linecap="round" stroke-linejoin="round"/>
<path d="M1143.28 264.237L1128.81 255.884L1122.93 257.75L1119.56 255.807L1118.42 249.882L1103.76 241.417C1102.09 240.446 1100.87 238.855 1100.37 236.99C1099.87 235.126 1100.13 233.139 1101.09 231.464L1139.36 165.181C1140.33 163.509 1141.92 162.289 1143.79 161.787C1145.65 161.285 1147.64 161.543 1149.32 162.503L1161.74 169.677C1161.74 169.677 1165.28 162.682 1172.99 167.135C1180.71 171.588 1177.07 178.524 1177.07 178.524L1188.84 185.323C1190.52 186.293 1191.74 187.888 1192.24 189.756C1192.74 191.625 1192.48 193.617 1191.52 195.294L1153.25 261.577C1152.28 263.247 1150.68 264.464 1148.81 264.963C1146.95 265.461 1144.96 265.2 1143.28 264.237V264.237Z" stroke="white" stroke-width="2.32" stroke-linecap="round" stroke-linejoin="round"/>
<path d="M1169.36 173.46C1170.28 173.995 1171.47 173.677 1172 172.751C1172.54 171.824 1172.22 170.64 1171.29 170.105C1170.37 169.57 1169.18 169.888 1168.65 170.814C1168.11 171.74 1168.43 172.925 1169.36 173.46Z" stroke="white" stroke-width="1.23" stroke-linecap="round" stroke-linejoin="round"/>
<path d="M1173.15 216.437L1149.71 257.024C1148.48 258.791 1146.97 259.621 1144.77 258.126L1108.04 236.92C1107.61 236.763 1107.22 236.506 1106.9 236.169C1106.58 235.832 1106.35 235.425 1106.22 234.981C1106.1 234.538 1106.08 234.07 1106.16 233.617C1106.25 233.163 1106.44 232.737 1106.73 232.373L1130.23 191.66C1133.75 187.35 1174.36 209.533 1173.15 216.437Z" stroke="white" stroke-width="1.18" stroke-linecap="round" stroke-linejoin="round"/>
<path d="M1209.63 250.983L1197.71 244.098C1196.89 243.63 1196.3 242.859 1196.06 241.954C1195.82 241.05 1195.95 240.086 1196.41 239.275L1208.56 214.763C1209.53 213.074 1210.32 211.705 1211.99 212.667L1229.26 222.641C1230.95 223.616 1230.79 223.948 1229.21 226.687L1214.42 249.67C1213.95 250.476 1213.19 251.065 1212.29 251.311C1211.4 251.556 1210.44 251.438 1209.63 250.983V250.983Z" stroke="white" stroke-width="2.32" stroke-linecap="round" stroke-linejoin="round"/>
<path d="M1298.92 310.902L1188.61 247.211C1186.29 245.873 1183.32 246.667 1181.98 248.986L1181.78 249.328C1180.45 251.647 1181.24 254.613 1183.56 255.952L1293.87 319.642C1296.19 320.981 1299.16 320.187 1300.5 317.868L1300.7 317.525C1302.03 315.206 1301.24 312.241 1298.92 310.902Z" stroke="white" stroke-width="2.32" stroke-linecap="round" stroke-linejoin="round"/>
<rect x="10" y="-22" width="1191" height="267" fill="url(#paint0_linear)"/>
</g>
<defs>
<linearGradient id="paint0_linear" x1="1201" y1="57.5" x2="560.437" y2="199.87" gradientUnits="userSpaceOnUse">
<stop offset="0.385528" stop-color="#4C9E45" stop-opacity="0.94"/>
<stop offset="0.620713" stop-color="#4C9E45" stop-opacity="0.7"/>
<stop offset="0.881764" stop-color="#4C9E45" stop-opacity="0.9"/>
</linearGradient>
</defs>
</svg>
