<svg width="24" height="24" viewBox="0 0 24 24" fill="none" xmlns="http://www.w3.org/2000/svg">
<path fill-rule="evenodd" clip-rule="evenodd" d="M7.20945 5.99998C7.20945 3.34985 9.35634 1.20526 12 1.20526C14.6437 1.20526 16.7906 3.34985 16.7906 5.99998C16.7906 8.65012 14.6437 10.7947 12 10.7947C9.35634 10.7947 7.20945 8.65012 7.20945 5.99998ZM12 0.599983C9.01557 0.599983 6.6 3.01973 6.6 5.99998C6.6 8.98024 9.01557 11.4 12 11.4C14.9844 11.4 17.4 8.98024 17.4 5.99998C17.4 3.01973 14.9844 0.599983 12 0.599983ZM5.69076 13.2747C5.87802 13.2068 6.07772 13.1814 6.2757 13.2004L6.28973 13.2017H17.1103L17.1243 13.2004C17.3223 13.1814 17.522 13.2068 17.7092 13.2747C17.8965 13.3427 18.0668 13.4515 18.208 13.5936C18.3492 13.7358 18.4577 13.9078 18.5258 14.0974C18.5939 14.287 18.6198 14.4896 18.6016 14.6906L18.6004 14.704V22.5028C18.6004 22.667 18.7331 22.8 18.8968 22.8C19.0604 22.8 19.1931 22.667 19.1931 22.5028V14.7304C19.2167 14.4476 19.1794 14.163 19.0835 13.8961C18.9861 13.6248 18.8307 13.3783 18.628 13.1743C18.4254 12.9703 18.1805 12.8137 17.9109 12.7159C17.6458 12.6198 17.3633 12.5828 17.0827 12.6074H6.31731C6.03674 12.5828 5.75419 12.6198 5.48912 12.7159C5.21946 12.8137 4.97463 12.9703 4.77198 13.1743C4.56935 13.3783 4.41386 13.6248 4.31645 13.8961C4.22062 14.163 4.18327 14.4476 4.20687 14.7304V22.5028C4.20687 22.667 4.33956 22.8 4.50325 22.8C4.66693 22.8 4.79962 22.667 4.79962 22.5028V14.704L4.79841 14.6906C4.7802 14.4896 4.80608 14.287 4.87417 14.0974C4.94225 13.9078 5.05082 13.7358 5.19201 13.5936C5.33318 13.4515 5.5035 13.3427 5.69076 13.2747Z" fill="#333333"/>
<path fill-rule="evenodd" clip-rule="evenodd" d="M14.4 16.4879C14.4 16.3289 14.2657 16.2 14.1 16.2C13.9343 16.2 13.8 16.3289 13.8 16.4879V17.4H12.8896C12.7296 17.4 12.6 17.5343 12.6 17.7C12.6 17.8657 12.7296 18 12.8896 18H13.8V18.9121C13.8 19.0711 13.9343 19.2 14.1 19.2C14.2657 19.2 14.4 19.0711 14.4 18.9121V18H15.3104C15.4704 18 15.6 17.8657 15.6 17.7C15.6 17.5343 15.4704 17.4 15.3104 17.4H14.4V16.4879Z" fill="#333333"/>
</svg>
