<svg width="24" height="24" viewBox="0 0 24 24" fill="none" xmlns="http://www.w3.org/2000/svg">
<path fill-rule="evenodd" clip-rule="evenodd" d="M11.5606 1.7518C11.5856 1.5979 11.7244 1.48884 11.8798 1.50089L14.7965 1.72695C14.9527 1.73906 15.0733 1.86936 15.0733 2.02605V4.53973C15.8701 4.82343 16.6182 5.22888 17.2912 5.74165L19.2231 4.31796C19.3498 4.22464 19.527 4.24497 19.6292 4.36454L21.5347 6.59394C21.6351 6.71144 21.6299 6.88603 21.5225 6.99723L19.8084 8.77262C20.163 9.53782 20.3961 10.3538 20.4991 11.1911L22.8484 11.5752C23.0024 11.6004 23.1114 11.7395 23.0991 11.8951L22.8657 14.826C22.8533 14.982 22.7231 15.1022 22.5667 15.1022H20.0126C19.7305 15.8975 19.3283 16.6447 18.8201 17.3178L20.2422 19.2633C20.3349 19.39 20.3141 19.5668 20.1946 19.6687L17.9623 21.5707C17.8434 21.672 17.6665 21.6651 17.5558 21.5546L15.8003 19.8024C15.0373 20.1549 14.2247 20.3878 13.3911 20.4928L13.0004 22.8491C12.975 23.0026 12.8364 23.1111 12.6813 23.0991L9.76459 22.873C9.60837 22.8609 9.48778 22.7306 9.48778 22.5739V20.0914C8.69105 19.8077 7.94292 19.4023 7.2699 18.8895L5.33797 20.3132C5.21135 20.4065 5.03415 20.3862 4.93195 20.2666L3.0264 18.0372C2.92504 17.9186 2.93148 17.7422 3.04121 17.6313L4.79103 15.8632C4.44007 15.0979 4.20765 14.2835 4.10178 13.448L1.75159 13.0638C1.59755 13.0386 1.48856 12.8995 1.50095 12.7439L1.73428 9.81294C1.7467 9.65698 1.87688 9.53674 2.03333 9.53674H4.54117C4.82537 8.74085 5.22993 7.99343 5.74066 7.3207L4.31892 5.3757C4.22625 5.24893 4.24702 5.07215 4.36654 4.97031L6.59876 3.06831C6.71775 2.96693 6.89463 2.9739 7.00527 3.08433L8.75862 4.83441C9.52244 4.46907 10.3382 4.22464 11.1767 4.10984L11.5606 1.7518ZM12.1085 2.12041L11.7328 4.42837C11.7111 4.56156 11.6032 4.66388 11.469 4.67843C10.5507 4.77799 9.65824 5.04479 8.83554 5.46573C8.71976 5.52497 8.579 5.50286 8.48695 5.41099L6.77726 3.70448L4.96762 5.24642L6.35886 7.14969C6.43896 7.25927 6.4355 7.40898 6.35043 7.51475C5.77194 8.23399 5.32818 9.05232 5.04065 9.93013C5.00028 10.0534 4.88526 10.1367 4.75556 10.1367H2.3104L2.12097 12.5162L4.42285 12.8926C4.55703 12.9145 4.65968 13.0239 4.673 13.1592C4.76318 14.0749 5.01674 14.9669 5.42159 15.7927C5.4778 15.9073 5.45528 16.045 5.36545 16.1357L3.66181 17.8572L5.20671 19.6646L7.09758 18.2712C7.20738 18.1903 7.35794 18.1936 7.46405 18.2793C8.18342 18.8603 9.0024 19.305 9.88083 19.5916C10.0043 19.6319 10.0878 19.747 10.0878 19.8768V22.2963L12.4535 22.4796L12.8363 20.1707C12.8585 20.0367 12.968 19.9344 13.1032 19.9212C14.0165 19.8324 14.9063 19.5783 15.7293 19.1714C15.8445 19.1144 15.9832 19.1372 16.0742 19.228L17.7838 20.9345L19.5935 19.3926L18.2022 17.4893C18.1223 17.3799 18.1256 17.2306 18.2102 17.1248C18.786 16.405 19.2272 15.5867 19.5125 14.7095C19.5527 14.5859 19.6678 14.5022 19.7978 14.5022H22.2896L22.479 12.1228L20.1771 11.7464C20.0425 11.7244 19.9397 11.6143 19.9269 11.4784C19.8407 10.5629 19.5872 9.67104 19.179 8.84748C19.1227 8.73386 19.1439 8.59711 19.2319 8.50588L20.9015 6.77658L19.3544 4.96654L17.4635 6.35999C17.3537 6.4409 17.2032 6.43757 17.0971 6.35187C16.3777 5.77086 15.5587 5.32616 14.6803 5.03954C14.5568 4.99927 14.4733 4.88417 14.4733 4.75434V2.3037L12.1085 2.12041Z" fill="#231F20"/>
<path fill-rule="evenodd" clip-rule="evenodd" d="M12.5799 8.7109C11.6284 8.63671 10.6864 8.94336 9.9609 9.56347C9.41959 10.0262 9.02767 10.639 8.8347 11.3245C8.64173 12.0099 8.65639 12.7372 8.87682 13.4144C9.09725 14.0915 9.51355 14.688 10.0731 15.1286C10.6326 15.5691 11.3102 15.8337 12.0201 15.8891C12.7301 15.9445 13.4405 15.788 14.0615 15.4396C14.6826 15.0911 15.1863 14.5663 15.509 13.9316C15.8318 13.2968 15.959 12.5805 15.8746 11.8735C15.7903 11.1664 15.4981 10.5002 15.035 9.95916C14.4145 9.23409 13.5314 8.7851 12.5799 8.7109ZM9.57105 9.10738C10.4174 8.38392 11.5165 8.02616 12.6265 8.11272C13.7366 8.19929 14.7669 8.7231 15.4909 9.56902C16.0311 10.2002 16.372 10.9774 16.4704 11.8024C16.5688 12.6273 16.4204 13.4629 16.0439 14.2035C15.6674 14.9441 15.0797 15.5563 14.3551 15.9628C13.6306 16.3694 12.8017 16.5519 11.9735 16.4873C11.1452 16.4227 10.3547 16.1139 9.7019 15.6C9.04914 15.0861 8.56345 14.3901 8.30629 13.6001C8.04912 12.8101 8.03202 11.9616 8.25715 11.1619C8.48228 10.3622 8.93953 9.64719 9.57105 9.10738Z" fill="#231F20"/>
</svg>
