<?xml version="1.0" standalone="no"?>
<!DOCTYPE svg PUBLIC "-//W3C//DTD SVG 1.1//EN" "http://www.w3.org/Graphics/SVG/1.1/DTD/svg11.dtd">

<svg width="22" height="24" viewBox="0 0 22 24" fill="none" xmlns="http://www.w3.org/2000/svg">
<path fill-rule="evenodd" clip-rule="evenodd" d="M3.20792 22.0001C2.74959 22.0001 2.29126 21.9001 1.83292 21.6001C0.549592 20.8001 0.091258 18.9001 0.824591 17.5001L8.61626 3.30015C8.89126 2.90015 9.16626 2.50015 9.53292 2.30015C10.1746 1.90015 10.9079 1.80015 11.6413 2.00015C12.3746 2.20015 12.9246 2.70015 13.3829 3.40015L21.0829 17.5001C21.3579 18.0001 21.4496 18.5001 21.4496 19.0001C21.4496 19.8001 21.1746 20.6001 20.6246 21.1001C20.1663 21.7001 19.5246 22.0001 18.7913 22.0001H3.20792ZM10.9741 15.0201C10.1353 15.0201 9.57605 14.3875 9.57605 13.4385V7.11246C9.57605 6.16355 10.3933 5.64697 10.9741 5.64697C11.5549 5.64697 12.3721 6.16355 12.3721 7.11246V13.4385C12.3721 14.3875 11.8129 15.0201 10.9741 15.0201ZM12.5795 18.5C12.5795 19.3284 11.9079 20 11.0795 20C10.251 20 9.57947 19.3284 9.57947 18.5C9.57947 17.6716 10.251 17 11.0795 17C11.9079 17 12.5795 17.6716 12.5795 18.5Z" fill="#B00505"/>
</svg>
