<svg width="24" height="24" viewBox="0 0 24 24" fill="none" xmlns="http://www.w3.org/2000/svg">
<g clip-path="url(#clip0)">
<path d="M7.95605 20.5176H3.96312C2.25569 20.5176 1.19036 19.7482 1.02313 18.4165C0.83938 16.9372 1.66522 15.9339 3.50065 15.5009C3.50065 13.9169 3.48413 12.3124 3.50065 10.7099C3.53162 7.31831 5.12755 4.88487 8.09851 3.25983C8.46763 3.02809 8.74031 2.67187 8.86654 2.2565C9.2423 0.943342 10.351 0.00976978 11.7054 -0.000489255C13.1196 -0.0128001 14.2448 0.914617 14.6247 2.29138C14.735 2.67894 14.9848 3.01267 15.3267 3.22906C18.3864 4.86845 19.9927 7.3655 19.9927 10.8433C19.9927 12.3801 19.9927 13.921 19.9927 15.0475C20.9073 15.8497 21.7951 16.3278 22.2224 17.0685C23.0916 18.5745 21.8756 20.4273 20.1041 20.5012C19.3485 20.534 18.5908 20.5012 17.8331 20.5012H15.5951C14.8002 23.0434 13.5924 24.0713 11.5278 24.0057C9.71922 23.9277 8.45775 22.7171 7.95605 20.5176ZM9.76257 20.5422C10.0929 21.7733 10.8692 22.4258 11.8519 22.3622C12.8347 22.2986 13.5532 21.5886 13.6316 20.5422H9.76257Z" fill="white"/>
</g>
<defs>
<clipPath id="clip0">
<path d="M0 0H24V24H0V0Z" fill="white"/>
</clipPath>
</defs>
</svg>
