<?xml version="1.0" standalone="no"?>
<!DOCTYPE svg PUBLIC "-//W3C//DTD SVG 1.1//EN" "http://www.w3.org/Graphics/SVG/1.1/DTD/svg11.dtd">   
<svg width="18" height="18" viewBox="0 0 18 18" fill="none" xmlns="http://www.w3.org/2000/svg">
<circle cx="9" cy="9" r="9" fill="#B00505"/>
<path d="M12.459 14H5.7666V12.8584L9.08203 9.24219C9.56055 8.70898 9.90007 8.26465 10.1006 7.90918C10.3057 7.54915 10.4082 7.18913 10.4082 6.8291C10.4082 6.35514 10.2738 5.97233 10.0049 5.68066C9.74056 5.389 9.38281 5.24316 8.93164 5.24316C8.39388 5.24316 7.97689 5.40723 7.68066 5.73535C7.38444 6.06348 7.23633 6.51237 7.23633 7.08203H5.5752C5.5752 6.47591 5.71191 5.93132 5.98535 5.44824C6.26335 4.96061 6.65755 4.58236 7.16797 4.31348C7.68294 4.0446 8.27539 3.91016 8.94531 3.91016C9.91146 3.91016 10.6725 4.15397 11.2285 4.6416C11.7891 5.12467 12.0693 5.7946 12.0693 6.65137C12.0693 7.14811 11.9281 7.66992 11.6455 8.2168C11.3675 8.75911 10.9095 9.37663 10.2715 10.0693L7.83789 12.6738H12.459V14Z" fill="white"/>
</svg>
