<?xml version="1.0" encoding="UTF-8"?>
<svg xmlns="http://www.w3.org/2000/svg" xmlns:xlink="http://www.w3.org/1999/xlink" width="50px" height="50px" viewBox="0 0 50 50" version="1.1">
<g id="surface1">
<path style=" stroke:none;fill-rule:nonzero;fill:rgb(100%,100%,100%);fill-opacity:1;" d="M 12.5 35.980469 C 12.5 35.300781 13.058594 34.746094 13.75 34.746094 L 21.246094 34.746094 C 21.941406 34.746094 22.503906 35.300781 22.503906 35.980469 L 22.503906 39.066406 L 12.5 39.066406 Z M 12.5 35.980469 "/>
<path style=" stroke:none;fill-rule:nonzero;fill:rgb(100%,100%,100%);fill-opacity:1;" d="M 26.875 35.980469 C 26.875 35.300781 27.4375 34.746094 28.125 34.746094 L 35.625 34.746094 C 36.316406 34.746094 36.871094 35.300781 36.871094 35.980469 L 36.871094 39.066406 L 26.875 39.066406 Z M 26.875 35.980469 "/>
<path style=" stroke:none;fill-rule:evenodd;fill:rgb(100%,100%,100%);fill-opacity:1;" d="M 21.191406 15.5625 C 21.191406 15.246094 21.453125 14.984375 21.777344 14.984375 L 22.480469 14.984375 C 22.804688 14.984375 23.066406 15.246094 23.066406 15.5625 C 23.066406 15.882812 22.804688 16.144531 22.480469 16.144531 L 21.777344 16.144531 C 21.453125 16.144531 21.191406 15.882812 21.191406 15.5625 Z M 21.191406 15.5625 "/>
<path style=" stroke:none;fill-rule:evenodd;fill:rgb(100%,100%,100%);fill-opacity:1;" d="M 24.554688 15.5625 C 24.554688 15.246094 24.816406 14.984375 25.140625 14.984375 L 25.84375 14.984375 C 26.167969 14.984375 26.429688 15.246094 26.429688 15.5625 C 26.429688 15.882812 26.167969 16.144531 25.84375 16.144531 L 25.140625 16.144531 C 24.816406 16.144531 24.554688 15.882812 24.554688 15.5625 Z M 24.554688 15.5625 "/>
<path style=" stroke:none;fill-rule:evenodd;fill:rgb(100%,100%,100%);fill-opacity:1;" d="M 27.910156 15.5625 C 27.910156 15.246094 28.175781 14.984375 28.496094 14.984375 L 29.199219 14.984375 C 29.523438 14.984375 29.785156 15.246094 29.785156 15.5625 C 29.785156 15.882812 29.523438 16.144531 29.199219 16.144531 L 28.496094 16.144531 C 28.175781 16.144531 27.910156 15.882812 27.910156 15.5625 Z M 27.910156 15.5625 "/>
<path style=" stroke:none;fill-rule:evenodd;fill:rgb(100%,100%,100%);fill-opacity:1;" d="M 27.105469 28.582031 C 27.105469 26.105469 29.136719 24.09375 31.644531 24.09375 C 34.152344 24.09375 36.183594 26.105469 36.183594 28.582031 C 36.183594 31.054688 34.152344 33.0625 31.644531 33.0625 C 29.136719 33.0625 27.105469 31.054688 27.105469 28.582031 Z M 27.105469 28.582031 "/>
<path style=" stroke:none;fill-rule:evenodd;fill:rgb(100%,100%,100%);fill-opacity:1;" d="M 13.042969 28.582031 C 13.042969 26.105469 15.074219 24.09375 17.582031 24.09375 C 20.089844 24.09375 22.121094 26.105469 22.121094 28.582031 C 22.121094 31.054688 20.089844 33.0625 17.582031 33.0625 C 15.074219 33.0625 13.042969 31.054688 13.042969 28.582031 Z M 13.042969 28.582031 "/>
<path style=" stroke:none;fill-rule:evenodd;fill:rgb(100%,100%,100%);fill-opacity:1;" d="M 13.65625 34.210938 L 21.550781 34.210938 C 21.804688 34.195312 22.058594 34.226562 22.296875 34.3125 C 22.546875 34.402344 22.773438 34.542969 22.960938 34.730469 C 23.148438 34.910156 23.292969 35.136719 23.382812 35.382812 C 23.46875 35.617188 23.503906 35.871094 23.484375 36.121094 L 23.484375 38.5625 C 23.484375 38.882812 23.222656 39.144531 22.898438 39.144531 C 22.574219 39.144531 22.3125 38.882812 22.3125 38.5625 L 22.3125 36.097656 C 22.3125 36.078125 22.3125 36.0625 22.3125 36.039062 C 22.320312 35.949219 22.3125 35.859375 22.28125 35.773438 C 22.246094 35.6875 22.199219 35.609375 22.132812 35.546875 C 22.066406 35.480469 21.988281 35.433594 21.902344 35.402344 C 21.8125 35.371094 21.722656 35.355469 21.632812 35.367188 C 21.613281 35.367188 21.59375 35.371094 21.578125 35.371094 L 13.628906 35.371094 C 13.609375 35.371094 13.59375 35.367188 13.574219 35.367188 C 13.480469 35.355469 13.390625 35.371094 13.300781 35.402344 C 13.21875 35.433594 13.136719 35.480469 13.074219 35.546875 C 13.007812 35.609375 12.957031 35.6875 12.925781 35.773438 C 12.894531 35.859375 12.886719 35.949219 12.894531 36.039062 C 12.894531 36.0625 12.894531 36.078125 12.894531 36.097656 L 12.894531 38.5625 C 12.894531 38.882812 12.632812 39.144531 12.308594 39.144531 C 11.984375 39.144531 11.722656 38.882812 11.722656 38.5625 L 11.722656 36.121094 C 11.703125 35.871094 11.738281 35.617188 11.828125 35.382812 C 11.914062 35.136719 12.058594 34.910156 12.242188 34.730469 C 12.433594 34.542969 12.660156 34.402344 12.90625 34.3125 C 13.148438 34.226562 13.40625 34.195312 13.65625 34.210938 Z M 13.65625 34.210938 "/>
<path style=" stroke:none;fill-rule:evenodd;fill:rgb(100%,100%,100%);fill-opacity:1;" d="M 27.71875 34.210938 L 35.613281 34.210938 C 35.867188 34.195312 36.121094 34.226562 36.359375 34.3125 C 36.609375 34.402344 36.835938 34.542969 37.023438 34.730469 C 37.210938 34.910156 37.355469 35.136719 37.445312 35.382812 C 37.53125 35.617188 37.566406 35.871094 37.546875 36.121094 L 37.546875 38.5625 C 37.546875 38.882812 37.285156 39.144531 36.960938 39.144531 C 36.636719 39.144531 36.375 38.882812 36.375 38.5625 L 36.375 36.097656 C 36.375 36.078125 36.375 36.0625 36.375 36.039062 C 36.382812 35.949219 36.375 35.859375 36.34375 35.773438 C 36.308594 35.6875 36.261719 35.609375 36.195312 35.546875 C 36.128906 35.480469 36.050781 35.433594 35.964844 35.402344 C 35.875 35.371094 35.785156 35.355469 35.695312 35.367188 C 35.675781 35.367188 35.65625 35.371094 35.640625 35.371094 L 27.691406 35.371094 C 27.671875 35.371094 27.65625 35.367188 27.636719 35.367188 C 27.542969 35.355469 27.453125 35.371094 27.363281 35.402344 C 27.28125 35.433594 27.199219 35.480469 27.136719 35.546875 C 27.070312 35.609375 27.019531 35.6875 26.988281 35.773438 C 26.957031 35.859375 26.949219 35.949219 26.957031 36.039062 C 26.957031 36.0625 26.957031 36.078125 26.957031 36.097656 L 26.957031 38.5625 C 26.957031 38.882812 26.695312 39.144531 26.371094 39.144531 C 26.046875 39.144531 25.785156 38.882812 25.785156 38.5625 L 25.785156 36.121094 C 25.765625 35.871094 25.800781 35.617188 25.890625 35.382812 C 25.976562 35.136719 26.121094 34.910156 26.304688 34.730469 C 26.496094 34.542969 26.722656 34.402344 26.96875 34.3125 C 27.210938 34.226562 27.46875 34.195312 27.71875 34.210938 Z M 27.71875 34.210938 "/>
<path style=" stroke:none;fill-rule:evenodd;fill:rgb(100%,100%,100%);fill-opacity:1;" d="M 25.714844 20.910156 L 22.804688 23.417969 C 22.628906 23.566406 22.382812 23.597656 22.179688 23.503906 C 21.96875 23.410156 21.832031 23.207031 21.832031 22.980469 L 21.832031 20.910156 L 18.6875 20.910156 C 18.46875 20.914062 18.246094 20.871094 18.046875 20.789062 C 17.835938 20.707031 17.648438 20.585938 17.492188 20.429688 C 17.332031 20.277344 17.207031 20.089844 17.125 19.886719 C 17.039062 19.683594 16.996094 19.46875 16.996094 19.25 L 16.996094 11.878906 C 16.996094 11.65625 17.039062 11.441406 17.121094 11.234375 C 17.207031 11.035156 17.332031 10.851562 17.492188 10.695312 C 17.644531 10.535156 17.835938 10.414062 18.039062 10.332031 C 18.246094 10.25 18.46875 10.207031 18.6875 10.207031 L 32.269531 10.207031 C 32.488281 10.207031 32.710938 10.25 32.914062 10.332031 C 33.121094 10.414062 33.3125 10.535156 33.464844 10.695312 C 33.625 10.851562 33.746094 11.035156 33.835938 11.234375 L 33.957031 19.25 C 33.957031 19.46875 33.917969 19.683594 33.832031 19.886719 C 33.746094 20.089844 33.625 20.277344 33.464844 20.429688 C 33.304688 20.585938 33.121094 20.707031 32.910156 20.789062 Z M 25.714844 20.910156 "/>
<path style=" stroke:none;fill-rule:evenodd;fill:rgb(4.313725%,23.529412%,38.039216%);fill-opacity:1;" d="M 21.191406 15.5625 C 21.191406 15.246094 21.453125 14.984375 21.777344 14.984375 L 22.480469 14.984375 C 22.804688 14.984375 23.066406 15.246094 23.066406 15.5625 C 23.066406 15.882812 22.804688 16.144531 22.480469 16.144531 L 21.777344 16.144531 C 21.453125 16.144531 21.191406 15.882812 21.191406 15.5625 Z M 21.191406 15.5625 "/>
<path style=" stroke:none;fill-rule:evenodd;fill:rgb(4.313725%,23.529412%,38.039216%);fill-opacity:1;" d="M 24.554688 15.5625 C 24.554688 15.246094 24.816406 14.984375 25.140625 14.984375 L 25.84375 14.984375 C 26.167969 14.984375 26.429688 15.246094 26.429688 15.5625 C 26.429688 15.882812 26.167969 16.144531 25.84375 16.144531 L 25.140625 16.144531 C 24.816406 16.144531 24.554688 15.882812 24.554688 15.5625 Z M 24.554688 15.5625 "/>
<path style=" stroke:none;fill-rule:evenodd;fill:rgb(4.313725%,23.529412%,38.039216%);fill-opacity:1;" d="M 27.910156 15.5625 C 27.910156 15.246094 28.175781 14.984375 28.496094 14.984375 L 29.199219 14.984375 C 29.523438 14.984375 29.785156 15.246094 29.785156 15.5625 C 29.785156 15.882812 29.523438 16.144531 29.199219 16.144531 L 28.496094 16.144531 C 28.175781 16.144531 27.910156 15.882812 27.910156 15.5625 Z M 27.910156 15.5625 "/>
<path style=" stroke:none;fill-rule:evenodd;fill:rgb(4.313725%,23.529412%,38.039216%);fill-opacity:1;" d="M 31.644531 25.25 C 29.785156 25.25 28.277344 26.742188 28.277344 28.582031 C 28.277344 30.417969 29.785156 31.90625 31.644531 31.90625 C 33.507812 31.90625 35.011719 30.417969 35.011719 28.582031 C 35.011719 26.742188 33.507812 25.25 31.644531 25.25 Z M 27.105469 28.582031 C 27.105469 26.105469 29.136719 24.09375 31.644531 24.09375 C 34.152344 24.09375 36.183594 26.105469 36.183594 28.582031 C 36.183594 31.054688 34.152344 33.0625 31.644531 33.0625 C 29.136719 33.0625 27.105469 31.054688 27.105469 28.582031 Z M 27.105469 28.582031 "/>
<path style=" stroke:none;fill-rule:evenodd;fill:rgb(4.313725%,23.529412%,38.039216%);fill-opacity:1;" d="M 17.582031 25.25 C 15.722656 25.25 14.214844 26.742188 14.214844 28.582031 C 14.214844 30.417969 15.722656 31.90625 17.582031 31.90625 C 19.445312 31.90625 20.949219 30.417969 20.949219 28.582031 C 20.949219 26.742188 19.445312 25.25 17.582031 25.25 Z M 13.042969 28.582031 C 13.042969 26.105469 15.074219 24.09375 17.582031 24.09375 C 20.089844 24.09375 22.121094 26.105469 22.121094 28.582031 C 22.121094 31.054688 20.089844 33.0625 17.582031 33.0625 C 15.074219 33.0625 13.042969 31.054688 13.042969 28.582031 Z M 13.042969 28.582031 "/>
<path style=" stroke:none;fill-rule:evenodd;fill:rgb(4.313725%,23.529412%,38.039216%);fill-opacity:1;" d="M 13.65625 34.210938 L 21.550781 34.210938 C 21.804688 34.195312 22.058594 34.226562 22.296875 34.3125 C 22.546875 34.402344 22.773438 34.542969 22.960938 34.722656 C 23.148438 34.910156 23.292969 35.136719 23.382812 35.382812 C 23.46875 35.617188 23.503906 35.871094 23.484375 36.121094 L 23.484375 38.5625 C 23.484375 38.882812 23.222656 39.144531 22.898438 39.144531 C 22.574219 39.144531 22.3125 38.882812 22.3125 38.5625 L 22.3125 36.097656 C 22.3125 36.078125 22.3125 36.0625 22.3125 36.039062 C 22.320312 35.949219 22.3125 35.859375 22.28125 35.773438 C 22.246094 35.6875 22.199219 35.609375 22.132812 35.546875 C 22.066406 35.480469 21.988281 35.433594 21.902344 35.402344 C 21.8125 35.371094 21.722656 35.355469 21.632812 35.367188 C 21.613281 35.367188 21.59375 35.371094 21.578125 35.371094 L 13.628906 35.371094 C 13.609375 35.371094 13.59375 35.367188 13.574219 35.367188 C 13.480469 35.355469 13.390625 35.371094 13.300781 35.402344 C 13.21875 35.433594 13.136719 35.480469 13.074219 35.546875 C 13.007812 35.609375 12.957031 35.6875 12.925781 35.773438 C 12.894531 35.859375 12.886719 35.949219 12.894531 36.039062 C 12.894531 36.0625 12.894531 36.078125 12.894531 36.097656 L 12.894531 38.5625 C 12.894531 38.882812 12.632812 39.144531 12.308594 39.144531 C 11.984375 39.144531 11.722656 38.882812 11.722656 38.5625 L 11.722656 36.121094 C 11.703125 35.871094 11.738281 35.617188 11.828125 35.382812 C 11.914062 35.136719 12.058594 34.910156 12.242188 34.722656 C 12.433594 34.542969 12.660156 34.402344 12.90625 34.3125 C 13.148438 34.226562 13.40625 34.195312 13.65625 34.210938 Z M 13.65625 34.210938 "/>
<path style=" stroke:none;fill-rule:evenodd;fill:rgb(4.313725%,23.529412%,38.039216%);fill-opacity:1;" d="M 27.71875 34.210938 L 35.613281 34.210938 C 35.867188 34.195312 36.121094 34.226562 36.359375 34.3125 C 36.609375 34.402344 36.835938 34.542969 37.023438 34.722656 C 37.210938 34.910156 37.355469 35.136719 37.445312 35.382812 C 37.53125 35.617188 37.566406 35.871094 37.546875 36.121094 L 37.546875 38.5625 C 37.546875 38.882812 37.285156 39.144531 36.960938 39.144531 C 36.636719 39.144531 36.375 38.882812 36.375 38.5625 L 36.375 36.097656 C 36.375 36.078125 36.375 36.0625 36.375 36.039062 C 36.382812 35.949219 36.375 35.859375 36.34375 35.773438 C 36.308594 35.6875 36.261719 35.609375 36.195312 35.546875 C 36.128906 35.480469 36.050781 35.433594 35.964844 35.402344 C 35.875 35.371094 35.785156 35.355469 35.695312 35.367188 C 35.675781 35.367188 35.65625 35.371094 35.640625 35.371094 L 27.691406 35.371094 C 27.671875 35.371094 27.65625 35.367188 27.636719 35.367188 C 27.542969 35.355469 27.453125 35.371094 27.363281 35.402344 C 27.28125 35.433594 27.199219 35.480469 27.136719 35.546875 C 27.070312 35.609375 27.019531 35.6875 26.988281 35.773438 C 26.957031 35.859375 26.949219 35.949219 26.957031 36.039062 C 26.957031 36.0625 26.957031 36.078125 26.957031 36.097656 L 26.957031 38.5625 C 26.957031 38.882812 26.695312 39.144531 26.371094 39.144531 C 26.046875 39.144531 25.785156 38.882812 25.785156 38.5625 L 25.785156 36.121094 C 25.765625 35.871094 25.800781 35.617188 25.890625 35.382812 C 25.976562 35.136719 26.121094 34.910156 26.304688 34.722656 C 26.496094 34.542969 26.722656 34.402344 26.96875 34.3125 C 27.210938 34.226562 27.46875 34.195312 27.71875 34.210938 Z M 27.71875 34.210938 "/>
<path style=" stroke:none;fill-rule:evenodd;fill:rgb(4.313725%,23.529412%,38.039216%);fill-opacity:1;" d="M 25.714844 20.910156 L 22.804688 23.417969 C 22.628906 23.566406 22.382812 23.597656 22.179688 23.503906 C 21.96875 23.410156 21.832031 23.207031 21.832031 22.980469 L 21.832031 20.910156 L 18.6875 20.910156 C 18.46875 20.914062 18.246094 20.871094 18.046875 20.789062 C 17.835938 20.707031 17.648438 20.585938 17.492188 20.429688 C 17.332031 20.277344 17.207031 20.089844 17.125 19.886719 C 17.039062 19.683594 16.996094 19.46875 16.996094 19.25 L 16.996094 11.878906 C 16.996094 11.65625 17.039062 11.441406 17.121094 11.234375 C 17.207031 11.035156 17.332031 10.851562 17.492188 10.695312 C 17.644531 10.535156 17.835938 10.414062 18.039062 10.332031 C 18.246094 10.25 18.46875 10.207031 18.6875 10.207031 L 32.269531 10.207031 C 32.488281 10.207031 32.710938 10.25 32.914062 10.332031 C 33.121094 10.414062 33.3125 10.535156 33.464844 10.695312 C 33.625 10.851562 33.746094 11.035156 33.835938 11.234375 L 33.957031 19.25 C 33.957031 19.46875 33.917969 19.683594 33.832031 19.886719 C 33.746094 20.089844 33.625 20.277344 33.464844 20.429688 C 33.304688 20.585938 33.121094 20.707031 32.910156 20.789062 Z M 18.601562 10.980469 C 18.257812 10.980469 17.972656 11.257812 17.972656 11.59375 L 17.972656 19.238281 C 17.972656 19.578125 18.257812 19.855469 18.601562 19.855469 L 22.035156 19.855469 C 22.378906 19.855469 22.660156 20.132812 22.660156 20.472656 L 22.65625 22.167969 L 24.867188 20.296875 C 25.207031 20.007812 25.636719 19.855469 26.085938 19.855469 L 32.191406 19.855469 C 32.539062 19.855469 32.816406 19.578125 32.816406 19.238281 L 32.816406 11.59375 C 32.816406 11.257812 32.539062 10.980469 32.191406 10.980469 Z M 18.601562 10.980469 "/>
</g>
</svg>
