<svg width="202" height="202" viewBox="0 0 202 202" fill="none" xmlns="http://www.w3.org/2000/svg">
<g opacity="0.25">
<path fill-rule="evenodd" clip-rule="evenodd" d="M77.6184 39.0671C77.6184 37.7365 78.7489 36.6578 80.1434 36.6578H84.6884C86.0829 36.6578 87.2134 37.7365 87.2134 39.0671C87.2134 40.3978 86.0829 41.4765 84.6884 41.4765H80.1434C78.7489 41.4765 77.6184 40.3978 77.6184 39.0671Z" fill="#333333"/>
<path fill-rule="evenodd" clip-rule="evenodd" d="M99.3335 39.0671C99.3335 37.7365 100.464 36.6578 101.858 36.6578H106.403C107.798 36.6578 108.928 37.7365 108.928 39.0671C108.928 40.3978 107.798 41.4765 106.403 41.4765H101.858C100.464 41.4765 99.3335 40.3978 99.3335 39.0671Z" fill="#333333"/>
<path fill-rule="evenodd" clip-rule="evenodd" d="M121.048 39.0671C121.048 37.7365 122.179 36.6578 123.573 36.6578H128.118C129.513 36.6578 130.643 37.7365 130.643 39.0671C130.643 40.3978 129.513 41.4765 128.118 41.4765H123.573C122.179 41.4765 121.048 40.3978 121.048 39.0671Z" fill="#333333"/>
<path fill-rule="evenodd" clip-rule="evenodd" d="M143.925 106.011C131.175 106.011 120.897 115.734 120.897 127.659C120.897 139.585 131.175 149.307 143.925 149.307C156.675 149.307 166.953 139.585 166.953 127.659C166.953 115.734 156.675 106.011 143.925 106.011ZM115.847 127.659C115.847 113.012 128.45 101.192 143.925 101.192C159.4 101.192 172.003 113.012 172.003 127.659C172.003 142.307 159.4 154.126 143.925 154.126C128.45 154.126 115.847 142.307 115.847 127.659Z" fill="#333333"/>
<path fill-rule="evenodd" clip-rule="evenodd" d="M53.025 106.011C40.2749 106.011 29.997 115.734 29.997 127.659C29.997 139.585 40.2749 149.307 53.025 149.307C65.7751 149.307 76.053 139.585 76.053 127.659C76.053 115.734 65.7751 106.011 53.025 106.011ZM24.947 127.659C24.947 113.012 37.55 101.192 53.025 101.192C68.5 101.192 81.103 113.012 81.103 127.659C81.103 142.307 68.5 154.126 53.025 154.126C37.55 154.126 24.947 142.307 24.947 127.659Z" fill="#333333"/>
<path fill-rule="evenodd" clip-rule="evenodd" d="M27.5824 163.523H78.7205C80.1923 163.408 81.6741 163.592 83.0661 164.064C84.498 164.548 85.8012 165.326 86.8813 166.343C87.9615 167.36 88.792 168.591 89.311 169.95C89.8152 171.27 90.0127 172.677 89.8902 174.075V189.182C89.8902 190.512 88.7597 191.591 87.3652 191.591C85.9707 191.591 84.8402 190.512 84.8402 189.182V173.968C84.8402 173.89 84.8441 173.813 84.8519 173.736C84.925 173.014 84.8278 172.284 84.5664 171.6C84.3049 170.916 83.885 170.291 83.3344 169.773C82.7837 169.254 82.1158 168.855 81.3774 168.605C80.639 168.355 79.8498 168.261 79.067 168.331C78.9884 168.338 78.9096 168.342 78.8307 168.342H27.4722C27.3933 168.342 27.3145 168.338 27.2359 168.331C26.4531 168.261 25.6639 168.355 24.9255 168.605C24.1871 168.855 23.5192 169.254 22.9685 169.773C22.4179 170.291 21.998 170.916 21.7366 171.6C21.4752 172.284 21.3779 173.014 21.451 173.736C21.4588 173.813 21.4627 173.89 21.4627 173.968V189.182C21.4627 190.512 20.3322 191.591 18.9377 191.591C17.5432 191.591 16.4127 190.512 16.4127 189.182V174.075C16.2902 172.677 16.4877 171.27 16.9919 169.95C17.5109 168.591 18.3414 167.36 19.4216 166.343C20.5018 165.326 21.8049 164.548 23.2368 164.064C24.6289 163.592 26.1107 163.408 27.5824 163.523Z" fill="#333333"/>
<path fill-rule="evenodd" clip-rule="evenodd" d="M118.482 163.523H169.62C171.092 163.408 172.574 163.592 173.966 164.064C175.398 164.548 176.701 165.326 177.781 166.343C178.861 167.36 179.692 168.591 180.211 169.95C180.715 171.27 180.913 172.677 180.79 174.075V189.182C180.79 190.512 179.66 191.591 178.265 191.591C176.871 191.591 175.74 190.512 175.74 189.182V173.968C175.74 173.89 175.744 173.813 175.752 173.736C175.825 173.014 175.728 172.284 175.466 171.6C175.205 170.916 174.785 170.291 174.234 169.773C173.684 169.254 173.016 168.855 172.277 168.605C171.539 168.355 170.75 168.261 169.967 168.331C169.888 168.338 169.81 168.342 169.731 168.342H118.372C118.293 168.342 118.214 168.338 118.136 168.331C117.353 168.261 116.564 168.355 115.825 168.605C115.087 168.855 114.419 169.254 113.868 169.773C113.318 170.291 112.898 170.916 112.636 171.6C112.375 172.284 112.278 173.014 112.351 173.736C112.359 173.813 112.363 173.89 112.363 173.968V189.182C112.363 190.512 111.232 191.591 109.838 191.591C108.443 191.591 107.313 190.512 107.313 189.182V174.075C107.19 172.677 107.388 171.27 107.892 169.95C108.411 168.591 109.241 167.36 110.322 166.343C111.402 165.326 112.705 164.548 114.137 164.064C115.529 163.592 117.011 163.408 118.482 163.523Z" fill="#333333"/>
<path fill-rule="evenodd" clip-rule="evenodd" d="M47.9751 16.8654C47.9751 10.2122 53.6275 4.81866 60.6001 4.81866H146.45C153.423 4.81866 159.075 10.2122 159.075 16.8654V62.6429C159.075 69.2961 153.423 74.6896 146.45 74.6896H104.575L88.3882 90.2251C85.2111 93.2743 79.757 91.1274 79.757 86.8277V74.6896H60.6001C53.6275 74.6896 47.9751 69.2961 47.9751 62.6429V16.8654ZM60.6001 9.63735C56.4165 9.63735 53.0251 12.8734 53.0251 16.8654V62.6429C53.0251 66.6348 56.4165 69.8709 60.6001 69.8709H84.807V86.8277L102.475 69.8709H146.45C150.634 69.8709 154.025 66.6348 154.025 62.6429V16.8654C154.025 12.8734 150.634 9.63735 146.45 9.63735H60.6001Z" fill="#333333"/>
</g>
</svg>
