<svg width="18" height="18" viewBox="0 0 18 18" fill="none" xmlns="http://www.w3.org/2000/svg">
<path fill-rule="evenodd" clip-rule="evenodd" d="M9.5821 2.06304C10.4308 1.24333 11.5675 0.789752 12.7474 0.800005C13.9273 0.810258 15.056 1.28352 15.8903 2.11785C16.7246 2.95219 17.1979 4.08085 17.2081 5.26073C17.2184 6.44062 16.7648 7.57733 15.9451 8.42604L15.936 8.43533L13.6861 10.6852C13.2299 11.1416 12.6809 11.4945 12.0763 11.72C11.4717 11.9456 10.8257 12.0384 10.182 11.9923C9.53842 11.9462 8.91223 11.7623 8.34596 11.4529C7.77969 11.1435 7.28657 10.716 6.90006 10.1992C6.65196 9.86755 6.71972 9.39754 7.0514 9.14943C7.38309 8.90133 7.85311 8.96908 8.10121 9.30077C8.35888 9.64525 8.68763 9.93028 9.06514 10.1365C9.44266 10.3428 9.86012 10.4654 10.2892 10.4962C10.7183 10.5269 11.149 10.465 11.552 10.3146C11.9551 10.1643 12.3211 9.92901 12.6252 9.62477L14.8704 7.37954C15.4142 6.81421 15.715 6.05831 15.7082 5.27377C15.7014 4.48718 15.3859 3.73474 14.8296 3.17851C14.2734 2.62229 13.521 2.30678 12.7344 2.29995C11.9495 2.29313 11.1933 2.59418 10.6279 3.13841L9.34192 4.41688C9.04817 4.70892 8.5733 4.70753 8.28126 4.41379C7.98923 4.12004 7.99061 3.64517 8.28436 3.35313L9.57436 2.07063L9.5821 2.06304Z" fill="#0B3C61"/>
<path fill-rule="evenodd" clip-rule="evenodd" d="M5.925 6.27997C6.52958 6.05444 7.1756 5.96157 7.81923 6.00767C8.46286 6.05377 9.08904 6.23774 9.65532 6.54712C10.2216 6.85651 10.7147 7.28405 11.1012 7.80077C11.3493 8.13246 11.2816 8.60247 10.9499 8.85058C10.6182 9.09868 10.1482 9.03093 9.90006 8.69924C9.64239 8.35476 9.31365 8.06973 8.93613 7.86347C8.55862 7.65722 8.14116 7.53457 7.71207 7.50384C7.28299 7.47311 6.85231 7.53502 6.44926 7.68537C6.0462 7.83572 5.6802 8.071 5.37606 8.37524L3.13083 10.6205C2.58705 11.1858 2.28626 11.9417 2.29308 12.7262C2.29992 13.5128 2.61542 14.2653 3.17165 14.8215C3.72787 15.3777 4.48031 15.6932 5.2669 15.7001C6.05143 15.7069 6.80734 15.4061 7.37266 14.8623L8.65031 13.5847C8.9432 13.2918 9.41807 13.2918 9.71097 13.5847C10.0039 13.8776 10.0039 14.3524 9.71097 14.6453L8.42847 15.9278L8.41917 15.937C7.57046 16.7567 6.43375 17.2103 5.25387 17.2C4.07398 17.1898 2.94533 16.7165 2.11099 15.8822C1.27665 15.0478 0.803392 13.9192 0.793139 12.7393C0.782886 11.5594 1.23646 10.4227 2.05617 9.57397L2.06531 9.56467L4.31521 7.31477C4.31518 7.3148 4.31524 7.31474 4.31521 7.31477C4.77139 6.85845 5.32046 6.50548 5.925 6.27997Z" fill="#0B3C61"/>
</svg>
