<svg width="24" height="24" viewBox="0 0 24 24" fill="none" xmlns="http://www.w3.org/2000/svg">
<path fill-rule="evenodd" clip-rule="evenodd" d="M19 2.5H5C3.61929 2.5 2.5 3.61929 2.5 5V19C2.5 20.3807 3.61929 21.5 5 21.5H19C20.3807 21.5 21.5 20.3807 21.5 19V5C21.5 3.61929 20.3807 2.5 19 2.5ZM5 2C3.34315 2 2 3.34315 2 5V19C2 20.6569 3.34315 22 5 22H19C20.6569 22 22 20.6569 22 19V5C22 3.34315 20.6569 2 19 2H5Z" fill="#333333"/>
<path fill-rule="evenodd" clip-rule="evenodd" d="M22 8H2V7.5H22V8Z" fill="#333333"/>
<path fill-rule="evenodd" clip-rule="evenodd" d="M9 8L9 22L8.5 22L8.5 8L9 8Z" fill="#333333"/>
</svg>
