<?xml version="1.0" standalone="no"?>
<!DOCTYPE svg PUBLIC "-//W3C//DTD SVG 1.1//EN" "http://www.w3.org/Graphics/SVG/1.1/DTD/svg11.dtd">
<svg width="19" height="19" viewBox="0 0 19 19" fill="none" xmlns="http://www.w3.org/2000/svg">
<g clip-path="url(#clip0)">
<path fill-rule="evenodd" clip-rule="evenodd" d="M1.53804 4.6414C1.53448 4.2272 1.86737 3.88855 2.28157 3.88499L15.7811 3.76916C16.1953 3.76561 16.5339 4.0985 16.5375 4.5127C16.541 4.9269 16.2081 5.26555 15.7939 5.2691L2.29444 5.38494C1.88024 5.38849 1.54159 5.0556 1.53804 4.6414Z" fill="#B00505"/>
<path fill-rule="evenodd" clip-rule="evenodd" d="M7.51851 2.34C7.3196 2.34171 7.12952 2.42236 6.99008 2.56422C6.85064 2.70607 6.77327 2.89751 6.77497 3.09641L6.78141 3.84638L11.2812 3.80777L11.2748 3.0578C11.2731 2.85889 11.1924 2.66881 11.0506 2.52937C10.9087 2.38993 10.7173 2.31256 10.5184 2.31426L7.51851 2.34ZM12.7812 3.7949L12.7748 3.04493C12.7696 2.44821 12.5277 1.87797 12.1021 1.45965C11.6766 1.04133 11.1022 0.809197 10.5055 0.814317L7.50564 0.840058C6.90892 0.845179 6.33868 1.08713 5.92036 1.5127C5.50204 1.93826 5.26991 2.51257 5.27503 3.10928L5.28146 3.85925L3.78152 3.87212C3.36732 3.87568 3.03443 4.21433 3.03798 4.62853L3.12807 15.1281C3.13319 15.7249 3.37515 16.2951 3.80071 16.7134C4.22627 17.1317 4.80058 17.3639 5.3973 17.3588L12.897 17.2944C13.4937 17.2893 14.064 17.0473 14.4823 16.6218C14.9006 16.1962 15.1328 15.6219 15.1276 15.0252L15.0375 4.52557C15.034 4.11137 14.6953 3.77848 14.2811 3.78203L12.7812 3.7949ZM4.54436 5.36563L4.62802 15.1153C4.62973 15.3142 4.71038 15.5043 4.85223 15.6437C4.99409 15.7831 5.18552 15.8605 5.38443 15.8588L12.8842 15.7945C13.0831 15.7928 13.2731 15.7121 13.4126 15.5702C13.552 15.4284 13.6294 15.237 13.6277 15.0381L13.544 5.28841L4.54436 5.36563Z" fill="#B00505"/>
<path fill-rule="evenodd" clip-rule="evenodd" d="M7.56356 7.58981C7.97775 7.58626 8.31641 7.91915 8.31996 8.33335L8.35857 12.8332C8.36213 13.2474 8.02924 13.586 7.61504 13.5896C7.20084 13.5931 6.86218 13.2602 6.85863 12.8461L6.82002 8.34622C6.81646 7.93202 7.14936 7.59336 7.56356 7.58981Z" fill="#B00505"/>
<path fill-rule="evenodd" clip-rule="evenodd" d="M10.5634 7.56407C10.9776 7.56051 11.3163 7.89341 11.3199 8.30761L11.3585 12.8074C11.362 13.2216 11.0291 13.5603 10.6149 13.5638C10.2007 13.5674 9.86207 13.2345 9.85852 12.8203L9.81991 8.32048C9.81635 7.90628 10.1492 7.56762 10.5634 7.56407Z" fill="#B00505"/>
</g>
<defs>
<clipPath id="clip0">
<rect width="18" height="18" fill="white" transform="translate(0 0.154419) rotate(-0.491624)"/>
</clipPath>
</defs>
</svg>
