<svg width="24" height="24" viewBox="0 0 24 24" fill="none" xmlns="http://www.w3.org/2000/svg">
<path d="M12 22.9744L14.5 19H15L18 19.3846L15.3333 24L14 22.8462L12 22.9744Z" fill="white"/>
<path d="M22 22.8571L19.9167 18L19.7778 18.8571L17 19.5L19.2222 24L20.3333 22.7143L22 22.8571Z" fill="white"/>
<path fill-rule="evenodd" clip-rule="evenodd" d="M3.75886 0.75886C4.24475 0.27297 4.90376 0 5.59091 0L12.5 0.00105424C12.7291 0.00105424 12.9487 0.09099 13.1107 0.252953L18.2925 5.43477C18.3705 5.5128 18.4321 5.60447 18.4749 5.70414C18.5203 5.80911 18.5455 5.92488 18.5455 6.04651V8.88671C17.9982 8.72383 17.4184 8.63636 16.8182 8.63636V6.91015H12.5C12.023 6.91015 11.6364 6.52348 11.6364 6.04651V1.72727H5.59091C5.36186 1.72727 5.14219 1.81826 4.98023 1.98023C4.81826 2.14219 4.72727 2.36186 4.72727 2.59091V16.4091C4.72727 16.6381 4.81826 16.8578 4.98023 17.0198C5.14219 17.1817 5.36186 17.2727 5.59091 17.2727H11.3545C11.662 17.9201 12.0813 18.5042 12.5872 19H5.59091C4.90376 19 4.24475 18.727 3.75886 18.2411C3.27297 17.7552 3 17.0962 3 16.4091V2.59091C3 1.90376 3.27297 1.24475 3.75886 0.75886ZM11.0231 12.9545C10.8602 13.5018 10.7727 14.0816 10.7727 14.6818L7.31818 14.6818C6.84121 14.6818 6.45455 14.2952 6.45455 13.8182C6.45455 13.3412 6.84121 12.9545 7.31818 12.9545H11.0231ZM13.7025 9.5C12.9723 9.93999 12.3427 10.53 11.8563 11.2273H7.31818C6.84121 11.2273 6.45455 10.8406 6.45455 10.3636C6.45455 9.88666 6.84121 9.5 7.31818 9.5H13.7025ZM13.3636 5.18287H15.5979L13.3636 2.94864V5.18287ZM7.31818 6.04545C6.84121 6.04545 6.45455 6.43212 6.45455 6.90909C6.45455 7.38607 6.84121 7.77273 7.31818 7.77273H9.04545C9.52243 7.77273 9.90909 7.38607 9.90909 6.90909C9.90909 6.43212 9.52243 6.04545 9.04545 6.04545H7.31818Z" fill="white"/>
<path fill-rule="evenodd" clip-rule="evenodd" d="M17.25 19.8647C19.8734 19.8647 22 17.738 22 15.1147C22 12.4913 19.8734 10.3647 17.25 10.3647C14.6266 10.3647 12.5 12.4913 12.5 15.1147C12.5 17.738 14.6266 19.8647 17.25 19.8647ZM17.25 19.001C19.3964 19.001 21.1364 17.2611 21.1364 15.1147C21.1364 12.9683 19.3964 11.2283 17.25 11.2283C15.1036 11.2283 13.3636 12.9683 13.3636 15.1147C13.3636 17.2611 15.1036 19.001 17.25 19.001Z" fill="white"/>
</svg>
