<svg width="32" height="36" viewBox="0 0 32 36" fill="none" xmlns="http://www.w3.org/2000/svg">
<path fill-rule="evenodd" clip-rule="evenodd" d="M1.17869 1.21248C1.93339 0.43614 2.95698 0 4.02429 0L14.7557 0.00168443C15.1115 0.00168443 15.4527 0.14538 15.7043 0.404159L23.7528 8.68346C24.0044 8.94224 24.1457 9.2949 24.1457 9.66087V26.2178C24.1457 27.3157 23.7218 28.3686 22.9671 29.145C22.2124 29.9213 21.1888 30.3574 20.1214 30.3574H4.02429C2.95698 30.3574 1.93339 29.9213 1.17869 29.145C0.423987 28.3686 0 27.3157 0 26.2178V4.13965C0 3.04175 0.423986 1.98881 1.17869 1.21248ZM4.02429 2.75977C3.66852 2.75977 3.32732 2.90515 3.07576 3.16393C2.82419 3.4227 2.68286 3.77368 2.68286 4.13965V26.2178C2.68286 26.5838 2.82419 26.9347 3.07576 27.1935C3.32732 27.4523 3.66852 27.5977 4.02429 27.5977H20.1214C20.4772 27.5977 20.8184 27.4523 21.07 27.1935C21.3216 26.9347 21.4629 26.5838 21.4629 26.2178V10.2308L14.2001 2.75977H4.02429Z" fill="white"/>
<path fill-rule="evenodd" clip-rule="evenodd" d="M14.7557 0.00168443C15.4966 0.00168443 16.0972 0.619479 16.0972 1.38157V8.28099H22.8043C23.5452 8.28099 24.1457 8.89878 24.1457 9.66087C24.1457 10.423 23.5452 11.0408 22.8043 11.0408H14.7557C14.0149 11.0408 13.4143 10.423 13.4143 9.66087V1.38157C13.4143 0.619479 14.0149 0.00168443 14.7557 0.00168443Z" fill="white"/>
<path d="M27.5902 6.72705C28.505 6.72705 29.3824 7.14761 30.0293 7.89622C30.6762 8.64483 31.0396 9.66017 31.0396 10.7189V32.0085C31.0396 33.0672 30.6762 34.0825 30.0293 34.8311C29.3824 35.5797 28.505 36.0003 27.5902 36.0003H13.7926C12.8778 36.0003 12.0004 35.5797 11.3536 34.8311C10.7067 34.0825 10.3433 33.0672 10.3433 32.0085H12.6429C12.6429 32.3614 12.764 32.6998 12.9796 32.9494C13.1953 33.1989 13.4877 33.3391 13.7926 33.3391H27.5902C27.8951 33.3391 28.1876 33.1989 28.4032 32.9494C28.6189 32.6998 28.74 32.3614 28.74 32.0085V10.7189C28.74 10.366 28.6189 10.0275 28.4032 9.77798C28.1876 9.52844 27.8951 9.38826 27.5902 9.38826H27.0153L24.7157 6.72705H27.5902Z" fill="white"/>
</svg>
