<svg width="24" height="24" viewBox="0 0 24 24" fill="none" xmlns="http://www.w3.org/2000/svg">
<path fill-rule="evenodd" clip-rule="evenodd" d="M11.6572 1.79999C11.8465 1.79999 12 1.96399 12 2.1663L12 17.076L16.202 12.874C16.3388 12.7372 16.5606 12.7372 16.6974 12.874C16.8342 13.0108 16.8342 13.2327 16.6974 13.3695L11.9124 18.1545C11.843 18.2239 11.7517 18.2581 11.6608 18.2571L11.6572 18.2571L11.6535 18.2571C11.5626 18.2581 11.4713 18.2239 11.402 18.1545L6.61692 13.3695C6.4801 13.2327 6.4801 13.0108 6.61692 12.874C6.75373 12.7372 6.97555 12.7372 7.11236 12.874L11.3143 17.076V2.1663C11.3143 1.96399 11.4678 1.79999 11.6572 1.79999ZM21.6 17.9207C21.6 17.7278 21.434 17.5714 21.2292 17.5714C21.0244 17.5714 20.8584 17.7278 20.8584 17.9207V20.9871H3.14166V17.9207H2.40002V21.6857H21.6V17.9207Z" fill="white"/>
</svg>
