<svg width="24" height="24" viewBox="0 0 24 24" fill="none" xmlns="http://www.w3.org/2000/svg">
<path fill-rule="evenodd" clip-rule="evenodd" d="M3.08264 3.72793C2.99839 3.81499 2.93336 3.9687 2.93336 4.23981V20.7038C2.93336 20.9491 2.99487 21.0964 3.07721 21.1823C3.15763 21.2662 3.29785 21.3331 3.54669 21.3331H18.8214C19.1157 21.3331 19.2562 21.271 19.3297 21.1966C19.404 21.1215 19.4667 20.9767 19.4667 20.6745V9.41315C19.4667 9.26587 19.5861 9.14648 19.7334 9.14648C19.8806 9.14648 20 9.26587 20 9.41315V20.6745C20 21.031 19.9294 21.3488 19.709 21.5716C19.4878 21.7953 19.1724 21.8665 18.8214 21.8665H3.54669C3.20353 21.8665 2.90375 21.7721 2.69217 21.5513C2.48252 21.3326 2.40002 21.0319 2.40002 20.7038V4.23981C2.40002 3.89226 2.483 3.58063 2.6994 3.35703C2.91741 3.13177 3.22543 3.04248 3.57336 3.04248H16.08C16.2273 3.04248 16.3467 3.16187 16.3467 3.30915C16.3467 3.45642 16.2273 3.57581 16.08 3.57581H3.57336C3.31062 3.57581 3.16531 3.64252 3.08264 3.72793Z" fill="#00518A"/>
<path fill-rule="evenodd" clip-rule="evenodd" d="M19.168 2.68958C19.1042 2.68958 19.041 2.70237 18.9823 2.7272C18.9235 2.75202 18.8703 2.78837 18.8258 2.8341L18.8232 2.83676L7.83113 13.8288L6.73476 17.5331L10.4684 16.4667L21.4754 5.48367C21.5211 5.43919 21.5575 5.386 21.5823 5.32723C21.6071 5.26846 21.6199 5.20531 21.6199 5.14151C21.6199 5.07771 21.6071 5.01456 21.5823 4.95579C21.5575 4.89702 21.5211 4.84382 21.4754 4.79934L21.4727 4.79676L19.5101 2.83412C19.4657 2.78839 19.4125 2.75202 19.3537 2.7272C19.2949 2.70237 19.2318 2.68958 19.168 2.68958ZM18.7748 2.23589C18.8992 2.18333 19.0329 2.15625 19.168 2.15625C19.3031 2.15625 19.4368 2.18333 19.5612 2.23589C19.685 2.28819 19.7972 2.36466 19.8911 2.46082L21.8487 4.41842C21.9448 4.51232 22.0213 4.62446 22.0736 4.74828C22.1262 4.87272 22.1532 5.00643 22.1532 5.14151C22.1532 5.27659 22.1262 5.4103 22.0736 5.53474C22.0213 5.65861 21.9448 5.77079 21.8486 5.86472L10.7963 16.8929C10.7643 16.9249 10.7247 16.9482 10.6812 16.9606L6.41456 18.1793C6.32101 18.206 6.22033 18.1796 6.15186 18.1105C6.08339 18.0414 6.05801 17.9405 6.08562 17.8472L7.33895 13.6125C7.35157 13.5699 7.37465 13.5311 7.40609 13.4996L18.4449 2.46082C18.5388 2.36466 18.6509 2.28819 18.7748 2.23589Z" fill="#333333"/>
</svg>
