<svg width="40" height="40" viewBox="0 0 40 40" fill="none" xmlns="http://www.w3.org/2000/svg">
<path d="M17.9298 38.9991C16.6476 39.0203 15.3899 38.6473 14.3266 37.9305C12.2082 36.4835 5.45578 30.8943 5.17206 30.6579C5.11265 30.6071 5.06622 30.5428 5.03661 30.4704C5.00701 30.3981 4.99509 30.3197 5.00184 30.2418C5.07196 29.6479 5.36627 29.1033 5.82461 28.7192C6.05031 28.5651 6.30551 28.4595 6.5741 28.409C6.84268 28.3586 7.11881 28.3643 7.38505 28.426C8.64841 28.6689 9.86277 29.1195 10.9788 29.7595L14.4023 31.7266L13.9389 32.5493C13.9389 32.5493 10.9315 30.8376 10.5059 30.5822C9.4889 29.9949 8.37908 29.5855 7.22427 29.3717C7.08566 29.3335 6.94044 29.3255 6.79848 29.3484C6.65651 29.3712 6.52112 29.4243 6.4015 29.5041C6.20443 29.6689 6.06252 29.89 5.99484 30.1378C7.20536 31.0835 12.9932 35.8972 14.8657 37.1834C16.7382 38.4695 19.112 38.1291 20.6535 37.6468L27.9639 35.5283C28.0076 35.5197 28.0526 35.5197 28.0963 35.5283H35.5107C35.6361 35.5283 35.7564 35.5782 35.8451 35.6668C35.9338 35.7555 35.9836 35.8758 35.9836 36.0012C35.9811 36.1259 35.9306 36.2447 35.8424 36.3329C35.7542 36.4211 35.6354 36.4716 35.5107 36.4741H28.1625L20.9183 38.5736C19.9471 38.8552 18.941 38.9985 17.9298 38.9991Z" fill="#333333"/>
<path d="M16.2559 34.1003C15.6894 34.0848 15.1439 33.8819 14.7049 33.5234C14.398 33.3045 14.1413 33.0224 13.9521 32.6962C13.7629 32.37 13.6456 32.0072 13.6079 31.632C13.6079 30.3174 14.4591 29.3717 15.1683 29.3717H17.665C18.1773 29.411 18.6859 29.2595 19.0931 28.9462L19.1593 28.861C19.707 28.1405 20.4133 27.5558 21.2236 27.1523C22.0338 26.7488 22.926 26.5375 23.8311 26.5346C25.718 26.6163 27.5339 27.2767 29.0326 28.426H35.5107C35.6362 28.426 35.7564 28.4758 35.8451 28.5645C35.9338 28.6532 35.9836 28.7735 35.9836 28.8989C35.9812 29.0235 35.9306 29.1424 35.8424 29.2306C35.7543 29.3187 35.6354 29.3693 35.5107 29.3717H28.8907C28.7795 29.3714 28.6721 29.3312 28.5881 29.2582C27.235 28.1803 25.5855 27.5404 23.8595 27.4236C23.0927 27.4327 22.3385 27.6193 21.6559 27.9688C20.9733 28.3183 20.381 28.8212 19.9253 29.4379L19.8307 29.542C19.5427 29.8033 19.2051 30.0041 18.8379 30.1325C18.4707 30.2608 18.0816 30.3141 17.6934 30.2891H15.1683C14.9718 30.429 14.8129 30.6154 14.7057 30.8315C14.5985 31.0476 14.5462 31.2868 14.5536 31.528C14.5918 31.7629 14.6768 31.9877 14.8035 32.1891C14.9302 32.3906 15.0961 32.5645 15.2913 32.7007C15.4507 32.8449 15.6407 32.9513 15.8471 33.0119C16.0534 33.0725 16.2707 33.0857 16.4829 33.0506C18.0812 32.6534 20.3414 32.0008 20.3698 32.0008C20.4294 31.9821 20.4921 31.9756 20.5543 31.9818C20.6165 31.9879 20.6767 32.0066 20.7315 32.0366C20.7863 32.0666 20.8344 32.1074 20.873 32.1565C20.9116 32.2057 20.9399 32.2621 20.9561 32.3224C20.9887 32.4427 20.9734 32.571 20.9135 32.6803C20.8535 32.7896 20.7536 32.8715 20.6346 32.9087C20.6346 32.9087 18.327 33.5707 16.7193 33.9774C16.5692 34.0332 16.414 34.0744 16.2559 34.1003Z" fill="#333333"/>
<path d="M18.4405 24.5107C17.8051 24.5082 17.1965 24.2541 16.7481 23.8038C16.2996 23.3536 16.0478 22.7441 16.0479 22.1086C16.0479 21.9832 16.0977 21.8629 16.1863 21.7743C16.275 21.6856 16.3953 21.6358 16.5207 21.6358C16.6454 21.6382 16.7642 21.6888 16.8524 21.7769C16.9406 21.8651 16.9911 21.984 16.9936 22.1086C16.9774 22.3091 17.0029 22.5108 17.0685 22.7009C17.1341 22.8911 17.2384 23.0655 17.3748 23.2134C17.5111 23.3612 17.6767 23.4792 17.8609 23.5599C18.0451 23.6406 18.2441 23.6823 18.4452 23.6823C18.6464 23.6823 18.8453 23.6406 19.0296 23.5599C19.2138 23.4792 19.3794 23.3612 19.5157 23.2134C19.6521 23.0655 19.7564 22.8911 19.822 22.7009C19.8876 22.5108 19.9131 22.3091 19.8969 22.1086C19.8969 21.9832 19.9467 21.8629 20.0354 21.7743C20.1241 21.6856 20.2444 21.6358 20.3698 21.6358C20.4944 21.6382 20.6133 21.6888 20.7015 21.7769C20.7896 21.8651 20.8402 21.984 20.8426 22.1086C20.8426 22.7457 20.5896 23.3567 20.1391 23.8072C19.6886 24.2577 19.0776 24.5107 18.4405 24.5107Z" fill="#333333"/>
<path d="M20.5022 22.5815H16.4545C16.0357 22.5815 15.634 22.4151 15.3378 22.1189C15.0416 21.8227 14.8752 21.421 14.8752 21.0021V16.4248C14.8742 16.2001 14.9208 15.9776 15.0121 15.7722C15.1034 15.5668 15.2373 15.3831 15.4048 15.2332C15.4048 15.1576 15.4048 15.0914 15.4048 15.0157C15.3978 14.5767 15.2818 14.1464 15.0672 13.7634C14.8526 13.3804 14.5461 13.0568 14.1754 12.8216C13.1654 11.9528 12.4456 10.7955 12.1127 9.50552C11.7797 8.21549 11.8497 6.85446 12.313 5.60534C12.7764 4.35622 13.611 3.27887 14.7047 2.51806C15.7984 1.75725 17.0988 1.34944 18.4311 1.34944C19.7634 1.34944 21.0638 1.75725 22.1575 2.51806C23.2512 3.27887 24.0858 4.35622 24.5492 5.60534C25.0125 6.85446 25.0825 8.21549 24.7495 9.50552C24.4166 10.7955 23.6968 11.9528 22.6868 12.8216C22.3073 13.0596 21.9928 13.3881 21.7716 13.7777C21.5504 14.1673 21.4294 14.6057 21.4196 15.0535V15.1859C21.6118 15.3342 21.7673 15.5249 21.8739 15.743C21.9805 15.9612 22.0354 16.2009 22.0343 16.4438V21.021C22.0296 21.4286 21.8675 21.8185 21.582 22.1093C21.2965 22.4001 20.9096 22.5693 20.5022 22.5815ZM16.0479 15.9614C15.9771 16.0224 15.9201 16.0978 15.881 16.1827C15.8418 16.2675 15.8213 16.3598 15.8209 16.4532V21.0305C15.8209 21.1137 15.8373 21.1961 15.8691 21.273C15.901 21.3498 15.9477 21.4197 16.0065 21.4785C16.0653 21.5374 16.1352 21.584 16.2121 21.6159C16.2889 21.6477 16.3713 21.6641 16.4545 21.6641H20.5022C20.5854 21.6641 20.6678 21.6477 20.7447 21.6159C20.8216 21.584 20.8914 21.5374 20.9503 21.4785C21.0091 21.4197 21.0558 21.3498 21.0876 21.273C21.1195 21.1961 21.1359 21.1137 21.1359 21.0305V16.4248C21.1348 16.3085 21.1027 16.1945 21.0429 16.0948C20.983 15.995 20.8976 15.913 20.7954 15.8574C20.7314 15.8229 20.676 15.7743 20.6334 15.7153C20.5909 15.6564 20.5622 15.5886 20.5495 15.5169C20.5401 15.35 20.5401 15.1827 20.5495 15.0157C20.5561 14.4229 20.7088 13.8408 20.9942 13.3212C21.2796 12.8015 21.6889 12.3603 22.1856 12.0367C23.0319 11.2872 23.6301 10.298 23.9008 9.20041C24.1715 8.10283 24.1018 6.94888 23.7011 5.89184C23.3003 4.83481 22.5874 3.92473 21.6571 3.28251C20.7267 2.6403 19.623 2.29634 18.4926 2.29634C17.3621 2.29634 16.2584 2.6403 15.3281 3.28251C14.3978 3.92473 13.6849 4.83481 13.2841 5.89184C12.8833 6.94888 12.8136 8.10283 13.0843 9.20041C13.355 10.298 13.9532 11.2872 14.7995 12.0367C15.2853 12.3652 15.6815 12.8096 15.9523 13.3298C16.2231 13.8499 16.36 14.4294 16.3505 15.0157C16.3647 15.2046 16.3647 15.3943 16.3505 15.5831C16.324 15.7077 16.2535 15.8185 16.1519 15.8952L16.0479 15.9614Z" fill="#333333"/>
<path d="M18.4405 16.491C18.0821 16.4928 17.7243 16.4612 17.3718 16.3965C17.2464 16.3764 17.1341 16.3073 17.0596 16.2045C16.9852 16.1016 16.9546 15.9734 16.9746 15.848C16.9947 15.7225 17.0638 15.6102 17.1666 15.5357C17.2695 15.4613 17.3978 15.4307 17.5232 15.4508C18.644 15.6331 19.7937 15.475 20.8237 14.9968C20.9337 14.9604 21.0532 14.9656 21.1596 15.0115C21.266 15.0574 21.3518 15.1407 21.4008 15.2457C21.4498 15.3507 21.4586 15.4701 21.4254 15.5811C21.3923 15.6921 21.3195 15.787 21.2209 15.848C20.3544 16.2691 19.4039 16.4889 18.4405 16.491Z" fill="#333333"/>
<path d="M14.2605 8.49972C14.135 8.49972 14.0148 8.4499 13.9261 8.36123C13.8374 8.27255 13.7876 8.15227 13.7876 8.02686C13.7876 4.4615 17.2016 3.36447 18.4405 3.36447C18.5659 3.36447 18.6862 3.41429 18.7749 3.50297C18.8636 3.59165 18.9134 3.71192 18.9134 3.83733C18.9134 3.96274 18.8636 4.08301 18.7749 4.17169C18.6862 4.26037 18.5659 4.31019 18.4405 4.31019C17.8353 4.31019 14.7333 4.95328 14.7333 8.02686C14.7333 8.15227 14.6835 8.27255 14.5948 8.36123C14.5061 8.4499 14.3859 8.49972 14.2605 8.49972Z" fill="#333333"/>
<path d="M30.1674 7.96066H27.056C26.9313 7.95824 26.8125 7.90764 26.7243 7.81948C26.6361 7.73132 26.5856 7.61245 26.5831 7.4878C26.5831 7.36239 26.6329 7.24211 26.7216 7.15344C26.8103 7.06476 26.9306 7.01494 27.056 7.01494H30.1674C30.2928 7.01494 30.4131 7.06476 30.5018 7.15344C30.5904 7.24211 30.6403 7.36239 30.6403 7.4878C30.6378 7.61245 30.5872 7.73132 30.4991 7.81948C30.4109 7.90764 30.2921 7.95824 30.1674 7.96066Z" fill="#333333"/>
<path d="M25.8644 3.49687C25.7612 3.49582 25.6612 3.46103 25.5796 3.39782C25.498 3.33462 25.4394 3.24645 25.4126 3.14679C25.3858 3.04713 25.3923 2.94144 25.4312 2.84585C25.4701 2.75025 25.5392 2.67001 25.628 2.61735L28.3233 1.06638C28.3764 1.03438 28.4355 1.01338 28.4969 1.00463C28.5583 0.995882 28.6208 0.999553 28.6808 1.01543C28.7408 1.0313 28.797 1.05906 28.846 1.09705C28.8951 1.13505 28.936 1.1825 28.9664 1.2366C28.9983 1.28976 29.0193 1.3488 29.0281 1.41022C29.0368 1.47164 29.0332 1.53419 29.0173 1.59416C29.0014 1.65414 28.9737 1.71032 28.9357 1.75936C28.8977 1.80841 28.8502 1.84933 28.7961 1.87969L26.1008 3.44013C26.0274 3.4768 25.9465 3.49621 25.8644 3.49687Z" fill="#333333"/>
<path d="M28.7488 13.6255C28.6697 13.6248 28.592 13.6053 28.5219 13.5688L25.8076 12.1029C25.7532 12.0741 25.7051 12.0348 25.666 11.9872C25.6269 11.9397 25.5978 11.8848 25.5802 11.8258C25.5625 11.7668 25.5569 11.7049 25.5634 11.6437C25.57 11.5825 25.5887 11.5232 25.6185 11.4693C25.6464 11.414 25.6852 11.365 25.7324 11.325C25.7796 11.2849 25.8343 11.2548 25.8934 11.2363C25.9525 11.2178 26.0146 11.2113 26.0762 11.2172C26.1379 11.2231 26.1977 11.2413 26.2521 11.2707L28.9947 12.7365C29.0503 12.7654 29.0995 12.805 29.1397 12.8531C29.1798 12.9012 29.2099 12.9568 29.2284 13.0166C29.2469 13.0764 29.2533 13.1393 29.2473 13.2016C29.2413 13.2639 29.2229 13.3245 29.1933 13.3796C29.1494 13.4579 29.0846 13.5224 29.0061 13.5658C28.9275 13.6093 28.8385 13.6299 28.7488 13.6255Z" fill="#333333"/>
<path d="M9.82506 7.96066H6.7231C6.59769 7.96066 6.47742 7.91084 6.38874 7.82216C6.30006 7.73348 6.25024 7.61321 6.25024 7.4878C6.25024 7.36239 6.30006 7.24211 6.38874 7.15344C6.47742 7.06476 6.59769 7.01494 6.7231 7.01494H9.82506C9.95047 7.01494 10.0707 7.06476 10.1594 7.15344C10.2481 7.24211 10.2979 7.36239 10.2979 7.4878C10.2979 7.61321 10.2481 7.73348 10.1594 7.82216C10.0707 7.91084 9.95047 7.96066 9.82506 7.96066Z" fill="#333333"/>
<path d="M11.0166 3.49687C10.9345 3.49621 10.8536 3.4768 10.7802 3.44013L8.09432 1.87969C7.98535 1.81811 7.90525 1.71583 7.87157 1.59528C7.83789 1.47474 7.85337 1.34575 7.91463 1.23661C7.97959 1.12859 8.08425 1.0503 8.20621 1.01849C8.32817 0.986673 8.45773 1.00386 8.56718 1.06638L11.253 2.61735C11.362 2.67894 11.4421 2.78122 11.4758 2.90176C11.5094 3.02231 11.494 3.15129 11.4327 3.26044C11.3899 3.33265 11.329 3.39245 11.256 3.43391C11.1831 3.47538 11.1005 3.49708 11.0166 3.49687Z" fill="#333333"/>
<path d="M8.14167 13.6255C8.0554 13.6255 7.97066 13.6027 7.89596 13.5596C7.82126 13.5164 7.75923 13.4544 7.7161 13.3796C7.65886 13.2677 7.64759 13.1378 7.68468 13.0177C7.72178 12.8976 7.80431 12.7967 7.9147 12.7365L10.6762 11.2707C10.7312 11.2363 10.7926 11.2136 10.8567 11.2039C10.9208 11.1943 10.9862 11.1979 11.0488 11.2146C11.1115 11.2313 11.17 11.2607 11.2208 11.301C11.2716 11.3413 11.3136 11.3916 11.3441 11.4488C11.3747 11.5059 11.3931 11.5688 11.3984 11.6334C11.4036 11.698 11.3955 11.763 11.3745 11.8244C11.3536 11.8857 11.3202 11.9421 11.2765 11.99C11.2329 12.0379 11.1798 12.0764 11.1207 12.1029L8.3781 13.5688C8.30575 13.6084 8.22413 13.628 8.14167 13.6255Z" fill="#333333"/>
</svg>
