<svg width="24" height="26" viewBox="0 0 24 26" fill="none" xmlns="http://www.w3.org/2000/svg">
<path fill-rule="evenodd" clip-rule="evenodd" d="M19.75 4.5H5C3.61929 4.5 2.5 5.61929 2.5 7V17.2C2.5 18.5807 3.61929 19.7 5 19.7H19.75C21.1307 19.7 22.25 18.5807 22.25 17.2V7C22.25 5.61929 21.1307 4.5 19.75 4.5ZM5 3C2.79086 3 1 4.79086 1 7V17.2C1 19.4091 2.79086 21.2 5 21.2H19.75C21.9591 21.2 23.75 19.4091 23.75 17.2V7C23.75 4.79086 21.9591 3 19.75 3H5Z" fill="#333333"/>
<path fill-rule="evenodd" clip-rule="evenodd" d="M0.96875 5.67733L1.84239 4.45801L12.3743 12.0041L22.9062 4.45801L23.7799 5.67733L12.3743 13.8494L0.96875 5.67733Z" fill="#333333"/>
</svg>
