<?xml version="1.0" standalone="no"?>
<!DOCTYPE svg PUBLIC "-//W3C//DTD SVG 1.1//EN" "http://www.w3.org/Graphics/SVG/1.1/DTD/svg11.dtd">
<!--Generator: Xara Designer (www.xara.com), SVG filter version: 6.1.0.18-->
<svg stroke-width="0.501" stroke-linejoin="bevel" fill-rule="evenodd" xmlns:xlink="http://www.w3.org/1999/xlink" xmlns="http://www.w3.org/2000/svg" version="1.1" overflow="visible" width="37.44pt" height="37.44pt" viewBox="0 0 37.44 37.44">
 <defs>
	</defs>
 <g id="Document" fill="none" stroke="black" font-family="Times New Roman" font-size="16" transform="scale(1 -1)">
  <g id="Spread" transform="translate(0 -37.44)">
   <g id="Layer 1">
    <path d="M 26.921,21.849 C 23.892,16.435 17.772,13.145 11.25,14.026 C 10.791,14.088 10.36,14.177 9.91,14.276 L 11.553,20.685 C 11.669,20.668 11.769,20.653 11.883,20.636 C 18.225,19.778 24.104,22.645 27.012,27.464 L 26.921,21.849 Z M 27.151,35.317 L 27.074,30.731 C 23.78,26.503 18.409,24.106 12.718,24.876 C 12.685,24.878 12.668,24.887 12.632,24.891 L 14.126,30.712 C 19.138,30.292 23.763,32.188 26.785,35.494 C 24.342,36.672 21.614,37.35 18.72,37.35 C 8.432,37.35 0.091,29.01 0.091,18.722 C 0.091,12.753 2.909,7.453 7.275,4.043 L 8.853,10.195 C 9.538,10.008 10.22,9.867 10.942,9.772 C 17.876,8.84 24.299,12.371 26.839,18.017 L 26.751,12.651 C 24.127,6.258 17.475,2.193 10.31,3.165 C 9.375,3.289 8.492,3.495 7.631,3.777 C 10.732,1.472 14.56,0.09 18.72,0.09 C 29.008,0.09 37.349,8.434 37.349,18.722 C 37.349,25.971 33.198,32.239 27.151,35.317 Z" stroke="none" fill="#000000" stroke-width="0.25" fill-rule="nonzero" stroke-linejoin="miter" marker-start="none" marker-end="none"/>
   </g>
  </g>
 </g>
</svg>
