<?xml version="1.0" standalone="no"?>
<!DOCTYPE svg PUBLIC "-//W3C//DTD SVG 1.1//EN" "http://www.w3.org/Graphics/SVG/1.1/DTD/svg11.dtd"> 
<svg width="24" height="24" viewBox="0 0 24 24" fill="none" xmlns="http://www.w3.org/2000/svg">
<path fill-rule="evenodd" clip-rule="evenodd" d="M11.7839 0.24101C12.1052 -0.0803365 12.6262 -0.0803365 12.9476 0.24101L18.7076 6.00102C19.0289 6.32236 19.0289 6.84337 18.7076 7.16472C18.3862 7.48606 17.8652 7.48606 17.5439 7.16472L13.1886 2.80943V16.4572C13.1886 17.0631 12.8202 17.2801 12.3658 17.2801C11.9113 17.2801 11.5429 17.0631 11.5429 16.4572V2.8094L7.18759 7.16472C6.86625 7.48606 6.34524 7.48606 6.0239 7.16472C5.70255 6.84337 5.70255 6.32236 6.0239 6.00102L11.7839 0.24101ZM5.92 9.73712C4.85961 9.73712 4 10.5967 4 11.6571V22.08C4 23.1404 4.85961 24 5.92 24H18.8114C19.8718 24 20.7314 23.1404 20.7314 22.08V11.6571C20.7314 10.5967 19.8718 9.73712 18.8114 9.73712H16.0686V11.6571H18.8114V22.08H5.92V11.6571H8.66285V9.73712H5.92Z" fill="#0B3C61"/>
</svg>
