<svg width="24" height="24" viewBox="0 0 24 24" fill="none" xmlns="http://www.w3.org/2000/svg">
<path fill-rule="evenodd" clip-rule="evenodd" d="M3.875 2.5C4.49998 2.25001 5.49997 2 7 2C8.5 2 9.75054 2.50022 10.9984 2.99936L11.0558 3.02233C12.2859 3.51452 13.5231 4 15 4C16.202 4 17.0826 3.83942 17.7056 3.6475C18.009 3.55407 18.3386 3.61019 18.594 3.79872C18.8493 3.98725 19 4.2858 19 4.6032V14.4619C19 14.8419 18.7846 15.1891 18.4442 15.3579C18.3508 15.4042 18.2447 15.4521 18.125 15.5C17.5 15.75 16.5 16 15 16C13.5 16 12.2495 15.4998 11.0016 15.0006L10.9442 14.9777C9.71415 14.4855 8.47695 14 7 14C5.79796 14 4.91744 14.1606 4.29437 14.3525C3.99103 14.4459 3.66135 14.3898 3.40602 14.2013C3.15068 14.0128 3 13.7142 3 13.3968V3.53805C3 3.15805 3.21538 2.81089 3.55583 2.64211C3.64918 2.59583 3.75528 2.54789 3.875 2.5Z" fill="#B00505"/>
<path fill-rule="evenodd" clip-rule="evenodd" d="M4 10C4.55228 10 5 10.4477 5 11V22C5 22.5523 4.55228 23 4 23C3.44772 23 3 22.5523 3 22V11C3 10.4477 3.44772 10 4 10Z" fill="#B00505"/>
</svg>
