<svg width="24" height="24" viewBox="0 0 24 24" fill="none" xmlns="http://www.w3.org/2000/svg">
<path fill-rule="evenodd" clip-rule="evenodd" d="M21.6 11.7C21.6 6.23239 17.1676 1.80001 11.7 1.80001C6.23233 1.80001 1.79995 6.23239 1.79995 11.7C1.79995 17.1676 6.23233 21.6 11.7 21.6C17.1676 21.6 21.6 17.1676 21.6 11.7ZM22.2 11.7C22.2 5.90102 17.4989 1.20001 11.7 1.20001C5.90096 1.20001 1.19995 5.90102 1.19995 11.7C1.19995 17.499 5.90096 22.2 11.7 22.2C17.4989 22.2 22.2 17.499 22.2 11.7Z" fill="#0B3C61"/>
<path fill-rule="evenodd" clip-rule="evenodd" d="M14.2684 7.19271C14.3856 7.07555 14.5755 7.07555 14.6927 7.19271L18.7902 11.2903C18.9074 11.4074 18.9074 11.5974 18.7902 11.7145C18.6731 11.8317 18.4831 11.8317 18.366 11.7145L14.2684 7.61697C14.1513 7.49981 14.1513 7.30986 14.2684 7.19271Z" fill="#0B3C61"/>
<path fill-rule="evenodd" clip-rule="evenodd" d="M14.2684 15.8121C14.1513 15.695 14.1513 15.505 14.2684 15.3879L18.366 11.2903C18.4831 11.1731 18.6731 11.1731 18.7902 11.2903C18.9074 11.4075 18.9074 11.5974 18.7902 11.7146L14.6927 15.8121C14.5755 15.9293 14.3856 15.9293 14.2684 15.8121Z" fill="#0B3C61"/>
<path fill-rule="evenodd" clip-rule="evenodd" d="M5.40002 11.5024C5.40002 11.3367 5.53434 11.2024 5.70002 11.2024L18.5781 11.2024C18.7438 11.2024 18.8781 11.3367 18.8781 11.5024C18.8781 11.6681 18.7438 11.8024 18.5781 11.8024L5.70002 11.8024C5.53434 11.8024 5.40002 11.6681 5.40002 11.5024Z" fill="#0B3C61"/>
</svg>
