<svg width="24" height="24" viewBox="0 0 24 24" fill="none" xmlns="http://www.w3.org/2000/svg">
<path fill-rule="evenodd" clip-rule="evenodd" d="M8.63297 19.029C4.31654 18.552 0.959184 14.8926 0.959184 10.449C0.959184 5.68133 4.82415 1.81636 9.59184 1.81636C12.2543 1.81636 14.6353 3.0217 16.2189 4.91647C16.5593 4.81375 16.9143 4.74451 17.28 4.71259C15.531 2.3722 12.7383 0.857147 9.59184 0.857147C4.29441 0.857147 0 5.15156 0 10.449C0 15.4586 3.84045 19.5712 8.7378 20.0033C8.66875 19.7144 8.63265 19.4074 8.63265 19.0817C8.63265 19.0714 8.63269 19.0611 8.63276 19.0508C8.63281 19.0435 8.63288 19.0363 8.63297 19.029ZM9.34475 16.4033C9.11248 16.8573 8.93175 17.3193 8.81048 17.7785C7.94051 17.2249 6.83801 16.1813 6.1256 14.5636C6.99816 14.3311 8.06906 14.1644 9.34475 14.1497V16.4033ZM10.9395 14.2075C10.7244 14.4287 10.5213 14.6581 10.3313 14.8939V14.1672C10.541 14.177 10.7437 14.1906 10.9395 14.2075ZM13.1214 12.5105C12.6984 12.7524 12.2941 13.0273 11.9136 13.3282C11.4299 13.2566 10.903 13.2048 10.3313 13.1795V10.6956H12.5192C12.6089 11.3459 12.8172 11.9584 13.1214 12.5105ZM13.3676 7.02243C12.8456 7.79667 12.5236 8.71691 12.4756 9.70905H10.3313V7.20104C11.4354 7.12097 12.3883 6.93159 13.1898 6.68899C13.2509 6.79767 13.3102 6.90882 13.3676 7.02243ZM9.34475 9.70905V7.24163C9.28466 7.24227 9.22418 7.2426 9.16332 7.2426C8.075 7.2426 7.13019 7.14969 6.32023 7.00065C5.92147 7.78494 5.61633 8.68735 5.47879 9.70905H9.34475ZM12.6328 5.82303C11.9801 6.00147 11.2139 6.14357 10.3313 6.21183V3.6373C11.0474 4.09512 11.9022 4.82231 12.6328 5.82303ZM9.34475 6.25498V3.63774C8.56649 4.13546 7.62452 4.95129 6.85612 6.09058C7.5238 6.19306 8.29081 6.25601 9.16332 6.25601C9.22425 6.25601 9.28472 6.25566 9.34475 6.25498ZM5.40136 10.6956H9.34475V13.1631C7.94985 13.1782 6.76241 13.3655 5.78272 13.6346C5.54356 12.843 5.39866 11.9408 5.39866 10.9212C5.39866 10.8454 5.39957 10.7703 5.40136 10.6956ZM4.41449 10.6956C4.41288 10.7703 4.41207 10.8455 4.41207 10.9212C4.41207 12.0504 4.57395 13.0542 4.84295 13.9386C4.18572 14.186 3.65684 14.4648 3.25643 14.7311C2.47208 13.573 1.99697 12.1883 1.94968 10.6956H4.41449ZM4.48366 9.70905C4.61561 8.60994 4.92147 7.63235 5.33001 6.77483C5.08212 6.70643 4.85099 6.63291 4.63622 6.55597C4.03987 6.34232 3.63716 6.19742 3.34171 6.04358C2.59617 7.09936 2.11139 8.35243 1.98112 9.70905H4.48366ZM5.18029 14.8658C4.62425 15.0762 4.18622 15.3054 3.86317 15.5132C4.7312 16.4944 5.84741 17.2509 7.11351 17.6845C6.39656 16.9943 5.69063 16.0616 5.18029 14.8658ZM14.8371 4.88576C13.8096 3.91659 12.5136 3.22896 11.0725 2.94619C11.8951 3.50882 12.8329 4.35813 13.6127 5.49973C14.1257 5.29835 14.533 5.08223 14.8371 4.88576ZM5.81568 5.88254C6.68267 4.47449 7.80598 3.46621 8.74996 2.84877C6.89462 3.05197 5.23891 3.91895 4.02538 5.20715C4.27326 5.34474 4.5855 5.48981 4.96897 5.62719C5.2219 5.7178 5.50378 5.80429 5.81568 5.88254ZM17.4328 6.31672C16.5352 6.31914 15.6747 6.67535 15.038 7.30808C14.4014 7.94081 14.0398 8.79904 14.0318 9.6966C14.0295 10.3675 14.2262 11.024 14.5971 11.5831C14.9679 12.1421 15.4963 12.5787 16.1152 12.8374C16.7342 13.0962 17.416 13.1656 18.0744 13.0368C18.7328 12.908 19.3383 12.5868 19.8141 12.1139C20.29 11.641 20.6149 11.0376 20.7478 10.38C20.8806 9.72238 20.8155 9.04014 20.5606 8.41957C20.3057 7.79901 19.8724 7.26798 19.3157 6.89367C18.7589 6.51935 18.1036 6.31857 17.4328 6.31672ZM14.148 15.2449C13.194 15.2449 12.2791 15.6239 11.6045 16.2984C10.93 16.973 10.551 17.8879 10.551 18.8418V20.2806C10.551 20.6779 10.8731 21 11.2704 21H22.7806C23.1779 21 23.5 20.6779 23.5 20.2806V18.8418C23.5 17.8879 23.121 16.973 22.4465 16.2984C21.7719 15.6239 20.857 15.2449 19.9031 15.2449H14.148Z" fill="white"/>
</svg>
