<svg width="24" height="24" viewBox="0 0 24 24" fill="none" xmlns="http://www.w3.org/2000/svg">
<path fill-rule="evenodd" clip-rule="evenodd" d="M3 3C3 2.44772 3.44772 2 4 2H7C7.55228 2 8 2.44772 8 3V6C8 6.55228 7.55228 7 7 7H4C3.44772 7 3 6.55228 3 6V3ZM10 3C10 2.44772 10.4477 2 11 2H14C14.5523 2 15 2.44772 15 3V6C15 6.55228 14.5523 7 14 7H11C10.4477 7 10 6.55228 10 6V3ZM18 2C17.4477 2 17 2.44772 17 3V6C17 6.55228 17.4477 7 18 7H21C21.5523 7 22 6.55228 22 6V3C22 2.44772 21.5523 2 21 2H18ZM3 10C3 9.44772 3.44772 9 4 9H7C7.55228 9 8 9.44772 8 10V13C8 13.5523 7.55228 14 7 14H4C3.44772 14 3 13.5523 3 13V10ZM11 9C10.4477 9 10 9.44772 10 10V13C10 13.5523 10.4477 14 11 14H14C14.5523 14 15 13.5523 15 13V10C15 9.44772 14.5523 9 14 9H11ZM17 10C17 9.44772 17.4477 9 18 9H21C21.5523 9 22 9.44772 22 10V13C22 13.5523 21.5523 14 21 14H18C17.4477 14 17 13.5523 17 13V10ZM4 16C3.44772 16 3 16.4477 3 17V20C3 20.5523 3.44772 21 4 21H7C7.55228 21 8 20.5523 8 20V17C8 16.4477 7.55228 16 7 16H4ZM10 17C10 16.4477 10.4477 16 11 16H14C14.5523 16 15 16.4477 15 17V20C15 20.5523 14.5523 21 14 21H11C10.4477 21 10 20.5523 10 20V17ZM18 16C17.4477 16 17 16.4477 17 17V20C17 20.5523 17.4477 21 18 21H21C21.5523 21 22 20.5523 22 20V17C22 16.4477 21.5523 16 21 16H18Z" fill="#0B3C61"/>
</svg>
