<?xml version="1.0" standalone="no"?>
<!DOCTYPE svg PUBLIC "-//W3C//DTD SVG 1.1//EN" "http://www.w3.org/Graphics/SVG/1.1/DTD/svg11.dtd">   
<svg width="24" height="25" viewBox="0 0 24 25" fill="none" xmlns="http://www.w3.org/2000/svg">
<path fill-rule="evenodd" clip-rule="evenodd" d="M9 3.31494C9.43043 3.31494 9.81257 3.55784 9.94868 3.91795L15 17.2821L17.0513 11.855C17.1874 11.4948 17.5696 11.2519 18 11.2519H22C22.5523 11.2519 23 11.6468 23 12.1338C23 12.6209 22.5523 13.0157 22 13.0157H18.7208L15.9487 20.3497C15.8126 20.7098 15.4304 20.9527 15 20.9527C14.5696 20.9527 14.1874 20.7098 14.0513 20.3497L9 6.98561L6.94868 12.4127C6.81257 12.7728 6.43043 13.0157 6 13.0157H2C1.44772 13.0157 1 12.6209 1 12.1338C1 11.6468 1.44772 11.2519 2 11.2519H5.27924L8.05132 3.91795C8.18743 3.55784 8.56957 3.31494 9 3.31494Z" fill="#0B3C61"/>
</svg>