<svg width="32" height="32" viewBox="0 0 32 32" fill="none" xmlns="http://www.w3.org/2000/svg">
<path fill-rule="evenodd" clip-rule="evenodd" d="M21.8763 8.19004H29.3L26.033 4.50017H20.4004L21.8763 8.19004ZM18.7848 4.50017L20.2608 8.19004H13.4768L14.8186 4.50017H18.7848ZM19.2762 3.00017H14.3079C14.2981 2.99998 14.2884 2.99998 14.2787 3.00017H7.15427C6.86795 3.00017 6.59536 3.12291 6.40556 3.33728L2.25324 8.02714C1.79071 8.54955 2.00285 9.3159 2.5577 9.58889C2.63386 10.4396 2.99414 11.2086 3.54297 11.8001V26.2502C3.54297 27.2167 4.32647 28.0002 5.29297 28.0002H28.293C29.2595 28.0002 30.043 27.2167 30.043 26.2502V11.7993C30.6162 11.1811 30.9836 10.3694 31.0361 9.47299C31.4502 9.13862 31.5672 8.48797 31.1592 8.02714L27.0069 3.33728C26.8171 3.12291 26.5445 3.00017 26.2581 3.00017H19.3085C19.2978 2.99994 19.287 2.99994 19.2762 3.00017ZM4.11246 8.19004H11.8807L13.2225 4.50017H7.37939L4.11246 8.19004ZM28.543 12.7867C28.1519 12.9249 27.731 13.0002 27.2926 13.0002H24.2926C23.0659 13.0002 21.9768 12.4112 21.2926 11.5005C20.6084 12.4112 19.5193 13.0002 18.2926 13.0002H15.2926C14.0659 13.0002 12.9768 12.4112 12.2926 11.5005C11.6084 12.4112 10.5193 13.0002 9.29261 13.0002H6.29261C5.85445 13.0002 5.43384 12.925 5.04297 12.7869V26.2502C5.04297 26.3882 5.1549 26.5002 5.29297 26.5002H7L7 16C7 15.4477 7.44772 15 8 15H14C14.5523 15 15 15.4477 15 16L15 26.5002H28.293C28.431 26.5002 28.543 26.3882 28.543 26.2502V12.7867ZM8 26.5002H14L14 16H8L8 26.5002ZM22.0856 9.69004C22.2901 10.7221 23.2005 11.5002 24.2926 11.5002H27.2926C28.3847 11.5002 29.2951 10.7221 29.4996 9.69004H22.0856ZM13.0856 9.69004H20.4996C20.2951 10.7221 19.3847 11.5002 18.2926 11.5002H15.2926C14.2005 11.5002 13.2901 10.7221 13.0856 9.69004ZM4.08558 9.69004C4.29012 10.7221 5.2005 11.5002 6.29261 11.5002H9.29261C10.3847 11.5002 11.2951 10.7221 11.4996 9.69004H4.08558ZM25.7647 17.3799H17.7067V21.2335H25.7647V17.3799ZM17.7067 16.3799C17.1544 16.3799 16.7067 16.8276 16.7067 17.3799V21.2335C16.7067 21.7858 17.1544 22.2335 17.7067 22.2335H25.7647C26.317 22.2335 26.7647 21.7858 26.7647 21.2335V17.3799C26.7647 16.8276 26.317 16.3799 25.7647 16.3799H17.7067ZM13.0153 19.7248C13.0153 19.4487 12.7914 19.2248 12.5153 19.2248C12.2391 19.2248 12.0153 19.4487 12.0153 19.7248V21.3973C12.0153 21.6734 12.2391 21.8973 12.5153 21.8973C12.7914 21.8973 13.0153 21.6734 13.0153 21.3973V19.7248Z" fill="#0B3C61"/>
</svg>
