<?xml version="1.0" standalone="no"?>
<!DOCTYPE svg PUBLIC "-//W3C//DTD SVG 1.1//EN" "http://www.w3.org/Graphics/SVG/1.1/DTD/svg11.dtd">
<svg width="20" height="20" viewBox="0 0 20 20" fill="none" xmlns="http://www.w3.org/2000/svg">
<path fill-rule="evenodd" clip-rule="evenodd" d="M3.33333 9.16665C3.79357 9.16665 4.16667 9.53974 4.16667 9.99998V16.6666C4.16667 16.8877 4.25446 17.0996 4.41074 17.2559C4.56702 17.4122 4.77899 17.5 5 17.5H15C15.221 17.5 15.433 17.4122 15.5893 17.2559C15.7455 17.0996 15.8333 16.8877 15.8333 16.6666V9.99998C15.8333 9.53974 16.2064 9.16665 16.6667 9.16665C17.1269 9.16665 17.5 9.53974 17.5 9.99998V16.6666C17.5 17.3297 17.2366 17.9656 16.7678 18.4344C16.2989 18.9033 15.663 19.1666 15 19.1666H5C4.33696 19.1666 3.70107 18.9033 3.23223 18.4344C2.76339 17.9656 2.5 17.3297 2.5 16.6666V9.99998C2.5 9.53974 2.8731 9.16665 3.33333 9.16665Z" fill="#0B3C61"/>
<path fill-rule="evenodd" clip-rule="evenodd" d="M9.41074 1.07739C9.73618 0.751954 10.2638 0.751954 10.5893 1.07739L13.9226 4.41072C14.248 4.73616 14.248 5.2638 13.9226 5.58923C13.5972 5.91467 13.0695 5.91467 12.7441 5.58923L10 2.84516L7.25592 5.58923C6.93049 5.91467 6.40285 5.91467 6.07741 5.58923C5.75197 5.2638 5.75197 4.73616 6.07741 4.41072L9.41074 1.07739Z" fill="#0B3C61"/>
<path fill-rule="evenodd" clip-rule="evenodd" d="M10 0.833313C10.4602 0.833313 10.8333 1.20641 10.8333 1.66665V12.5C10.8333 12.9602 10.4602 13.3333 10 13.3333C9.53976 13.3333 9.16667 12.9602 9.16667 12.5V1.66665C9.16667 1.20641 9.53976 0.833313 10 0.833313Z" fill="#0B3C61"/>
</svg>

