<svg width="24" height="24" viewBox="0 0 24 24" fill="none" xmlns="http://www.w3.org/2000/svg">
<path fill-rule="evenodd" clip-rule="evenodd" d="M5.99935 19V16.74L7.99935 18.58V19C7.99935 19.2652 8.10471 19.5196 8.29224 19.7071C8.47978 19.8946 8.73414 20 8.99935 20H20.9994C21.2646 20 21.5189 19.8946 21.7065 19.7071C21.894 19.5196 21.9994 19.2652 21.9994 19V9.29289H15.7065C15.1542 9.29289 14.7065 8.84518 14.7065 8.29289V2H8.99935C8.73413 2 8.47978 2.10536 8.29224 2.29289C8.10471 2.48043 7.99935 2.73478 7.99935 3V3.6087L6.20958 1.89674C6.35903 1.51885 6.58512 1.17159 6.87803 0.87868C7.44064 0.31607 8.2037 0 8.99935 0L15.7065 0.079561C15.9717 0.079561 16.5189 0.105357 16.7065 0.292893L23.7065 7.29289C23.8361 7.42251 23.7865 7.72397 23.7435 7.98537C23.7243 8.10218 23.7065 8.21099 23.7065 8.29289L23.9994 19C23.9994 19.7957 23.6833 20.5587 23.1207 21.1213C22.5581 21.6839 21.795 22 20.9994 22H8.99935C8.2037 22 7.44064 21.6839 6.87803 21.1213C6.31542 20.5587 5.99935 19.7957 5.99935 19ZM16.7065 7.29289H20.878L16.7065 3.12132V7.29289ZM3.93515 3.26849C4.29313 2.9105 4.87354 2.9105 5.23152 3.26849L15.3149 13.3518C15.4868 13.5237 15.5833 13.7569 15.5833 14V17.6667C15.5833 18.1729 15.1729 18.5833 14.6667 18.5833H11C10.7569 18.5833 10.5237 18.4868 10.3518 18.3148L0.268486 8.23151C-0.0894953 7.87353 -0.0894953 7.29313 0.268486 6.93515L3.93515 3.26849ZM13.75 16.75V14.3797L4.58333 5.21303L2.21303 7.58333L11.3797 16.75H13.75Z" fill="#0B3C61"/>
</svg>
