<svg width="20" height="18" viewBox="0 0 24 24" fill="none" xmlns="http://www.w3.org/2000/svg">
<path fill-rule="evenodd" clip-rule="evenodd" d="M10.888 3.11114C6.59247 3.11114 3.11025 6.59337 3.11025 10.8889C3.11025 15.1845 6.59247 18.6667 10.888 18.6667C15.1836 18.6667 18.6658 15.1845 18.6658 10.8889C18.6658 6.59337 15.1836 3.11114 10.888 3.11114ZM0.888023 10.8889C0.888023 5.36607 5.36518 0.888916 10.888 0.888916C16.4109 0.888916 20.888 5.36607 20.888 10.8889C20.888 16.4118 16.4109 20.8889 10.888 20.8889C5.36518 20.8889 0.888023 16.4118 0.888023 10.8889Z" fill="#828282"/>
<path fill-rule="evenodd" clip-rule="evenodd" d="M16.3801 16.381C16.814 15.9471 17.5176 15.9471 17.9515 16.381L22.7848 21.2144C23.2187 21.6483 23.2187 22.3518 22.7848 22.7857C22.3509 23.2196 21.6474 23.2196 21.2135 22.7857L16.3801 17.9524C15.9462 17.5185 15.9462 16.8149 16.3801 16.381Z" fill="#828282"/>
</svg>
