<svg width="11" height="3" viewBox="0 0 11 3" fill="none" xmlns="http://www.w3.org/2000/svg">
<path d="M0.314453 1.36719C0.314453 1.16211 0.378906 0.989258 0.507812 0.848633C0.642578 0.702148 0.827148 0.628906 1.06152 0.628906C1.2959 0.628906 1.48047 0.702148 1.61523 0.848633C1.75 0.989258 1.81738 1.16211 1.81738 1.36719C1.81738 1.57227 1.75 1.74219 1.61523 1.87695C1.48047 2.00586 1.2959 2.07031 1.06152 2.07031C0.827148 2.07031 0.642578 2.00586 0.507812 1.87695C0.378906 1.74219 0.314453 1.57227 0.314453 1.36719ZM4.62109 1.36719C4.62109 1.16211 4.68555 0.989258 4.81445 0.848633C4.94922 0.702148 5.13379 0.628906 5.36816 0.628906C5.60254 0.628906 5.78711 0.702148 5.92188 0.848633C6.05664 0.989258 6.12402 1.16211 6.12402 1.36719C6.12402 1.57227 6.05664 1.74219 5.92188 1.87695C5.78711 2.00586 5.60254 2.07031 5.36816 2.07031C5.13379 2.07031 4.94922 2.00586 4.81445 1.87695C4.68555 1.74219 4.62109 1.57227 4.62109 1.36719ZM8.92773 1.36719C8.92773 1.16211 8.99219 0.989258 9.12109 0.848633C9.25586 0.702148 9.44043 0.628906 9.6748 0.628906C9.90918 0.628906 10.0938 0.702148 10.2285 0.848633C10.3633 0.989258 10.4307 1.16211 10.4307 1.36719C10.4307 1.57227 10.3633 1.74219 10.2285 1.87695C10.0938 2.00586 9.90918 2.07031 9.6748 2.07031C9.44043 2.07031 9.25586 2.00586 9.12109 1.87695C8.99219 1.74219 8.92773 1.57227 8.92773 1.36719Z" fill="#0B3C61"/>
</svg>
