<svg width="39" height="40" viewBox="0 0 39 40" fill="none" xmlns="http://www.w3.org/2000/svg">
<path fill-rule="evenodd" clip-rule="evenodd" d="M19.5 2.00879C15.2041 2.00879 11.7154 5.58311 11.7154 10C11.7154 14.4169 15.2041 17.9912 19.5 17.9912C23.796 17.9912 27.2847 14.4169 27.2847 10C27.2847 5.58311 23.796 2.00879 19.5 2.00879ZM10.725 10C10.725 5.03291 14.6503 1 19.5 1C24.3497 1 28.275 5.03291 28.275 10C28.275 14.9671 24.3497 19 19.5 19C14.6503 19 10.725 14.9671 10.725 10Z" fill="#333333"/>
<path fill-rule="evenodd" clip-rule="evenodd" d="M10.198 22.0006C9.87631 21.9691 9.55179 22.0114 9.2475 22.1246C8.9432 22.2378 8.66643 22.4192 8.43702 22.6561C8.2076 22.893 8.03117 23.1796 7.92054 23.4957C7.8099 23.8117 7.76784 24.1493 7.79742 24.4843L7.7994 24.5066V37.5048C7.7994 37.7783 7.58377 38 7.31779 38C7.0518 38 6.83618 37.7783 6.83618 37.5048V24.5506C6.79783 24.0794 6.85852 23.6051 7.01424 23.1602C7.17254 22.708 7.4252 22.2972 7.75449 21.9572C8.08379 21.6171 8.48163 21.3562 8.91983 21.1932C9.35057 21.0329 9.80972 20.9713 10.2656 21.0124H27.7594C28.2153 20.9713 28.6745 21.0329 29.1052 21.1932C29.5434 21.3562 29.9412 21.6171 30.2705 21.9572C30.5998 22.2972 30.8525 22.708 31.0108 23.1602C31.1665 23.6051 31.2272 24.0794 31.1888 24.5506V37.5048C31.1888 37.7783 30.9732 38 30.7072 38C30.4412 38 30.2256 37.7783 30.2256 37.5048V24.5066L30.2276 24.4843C30.2572 24.1493 30.2151 23.8117 30.1045 23.4957C29.9938 23.1796 29.8174 22.893 29.588 22.6561C29.3586 22.4192 29.0818 22.2378 28.7775 22.1246C28.4732 22.0114 28.1487 21.9691 27.827 22.0006L27.8042 22.0028H10.2208L10.198 22.0006Z" fill="#333333"/>
</svg>
