<svg width="34" height="32" viewBox="0 0 34 32" fill="none" xmlns="http://www.w3.org/2000/svg">
<path d="M26.7991 5.07031L26.7991 1.41163C26.7991 1.02187 26.4748 0.705895 26.0748 0.705895L7.24281 0.705893C6.84279 0.705893 6.5185 1.02186 6.5185 1.41163L6.5185 5.07031L5.79419 5.07031L5.79419 1.41163C5.79419 0.632095 6.44276 0.000155036 7.24281 0.000155106L26.0748 0.000156753C26.8749 0.000156823 27.5234 0.632099 27.5234 1.41163L27.5234 5.07031L26.7991 5.07031Z" fill="#333333"/>
<path fill-rule="evenodd" clip-rule="evenodd" d="M2.22121 6.72826H31.097C31.7103 6.72826 32.2076 7.14613 32.2076 7.66161V23.5284C32.2076 24.0439 31.7103 24.4618 31.097 24.4618H28.9723V25.3951H31.097C32.3237 25.3951 33.3182 24.5594 33.3182 23.5284V7.66161C33.3182 6.63066 32.3237 5.79492 31.097 5.79492H2.22121C0.99447 5.79492 0 6.63066 0 7.66161V23.5284C0 24.5594 0.99447 25.3951 2.22121 25.3951H4.34585V24.4618H2.22121C1.60784 24.4618 1.11061 24.0439 1.11061 23.5284V7.66161C1.11061 7.14613 1.60784 6.72826 2.22121 6.72826Z" fill="#333333"/>
<path fill-rule="evenodd" clip-rule="evenodd" d="M26.6037 30.2319L26.6037 17.572C26.6037 17.1198 26.1919 16.7533 25.6839 16.7533L7.63371 16.7533C7.12574 16.7533 6.71395 17.1198 6.71395 17.572L6.71395 30.2319C6.71395 30.6841 7.12574 31.0506 7.63371 31.0506L25.6839 31.0506C26.1919 31.0506 26.6037 30.6841 26.6037 30.2319ZM27.5234 17.572C27.5234 16.6677 26.6999 15.9346 25.6839 15.9346L7.63371 15.9346C6.61777 15.9346 5.79419 16.6677 5.79419 17.572L5.79419 30.2319C5.79419 31.1363 6.61777 31.8694 7.63371 31.8694L25.6839 31.8694C26.6999 31.8694 27.5234 31.1363 27.5234 30.2319L27.5234 17.572Z" fill="#333333"/>
<path fill-rule="evenodd" clip-rule="evenodd" d="M8.69141 24.2645C8.69141 24.0645 8.85355 23.9023 9.05356 23.9023H24.264C24.464 23.9023 24.6262 24.0645 24.6262 24.2645C24.6262 24.4645 24.464 24.6267 24.264 24.6267H9.05356C8.85355 24.6267 8.69141 24.4645 8.69141 24.2645Z" fill="#333333"/>
<path fill-rule="evenodd" clip-rule="evenodd" d="M8.69141 19.9188C8.69141 19.7188 8.85355 19.5566 9.05356 19.5566H24.264C24.464 19.5566 24.6262 19.7188 24.6262 19.9188C24.6262 20.1188 24.464 20.2809 24.264 20.2809H9.05356C8.85355 20.2809 8.69141 20.1188 8.69141 19.9188Z" fill="#333333"/>
<path fill-rule="evenodd" clip-rule="evenodd" d="M8.69141 28.6102C8.69141 28.4102 8.85355 28.248 9.05356 28.248H24.264C24.464 28.248 24.6262 28.4102 24.6262 28.6102C24.6262 28.8102 24.464 28.9724 24.264 28.9724H9.05356C8.85355 28.9724 8.69141 28.8102 8.69141 28.6102Z" fill="#333333"/>
</svg>
