<svg width="24" height="24" viewBox="0 0 24 24" fill="none" xmlns="http://www.w3.org/2000/svg">
<path fill-rule="evenodd" clip-rule="evenodd" d="M2.78618 1.58959C2.70733 1.67147 2.64606 1.81635 2.64606 2.07192V18.8007C2.64606 19.033 2.70406 19.1713 2.7809 19.2515C2.85585 19.3297 2.98731 19.3929 3.22291 19.3929H17.675C17.9554 19.3929 18.0878 19.3359 18.1565 19.2677C18.2248 19.1998 18.2852 19.0659 18.2852 18.7751V7.21491H12.7731C12.6315 7.21491 12.5167 7.10012 12.5167 6.95853V1.44635H3.24599C2.99912 1.44635 2.86329 1.50952 2.78618 1.58959ZM13.0294 1.80951L17.9156 6.70215H13.0294V1.80951ZM2.41685 1.2339C2.62368 1.01913 2.916 0.933594 3.24599 0.933594H12.7731C12.8411 0.933594 12.9064 0.960652 12.9545 1.00881L18.723 6.78504C18.771 6.83311 18.798 6.89827 18.798 6.96621V18.7751C18.798 19.1175 18.7302 19.4207 18.5178 19.6316C18.3057 19.8422 18.0049 19.9057 17.675 19.9057H3.22291C2.89705 19.9057 2.61189 19.8163 2.41059 19.6062C2.21118 19.398 2.1333 19.1119 2.1333 18.8007V2.07192C2.1333 1.74294 2.21176 1.44685 2.41685 1.2339ZM4.69703 21.3799V20.2262H5.27389V21.4898C5.27389 21.8084 5.53215 22.0666 5.85074 22.0666H20.3999C20.7185 22.0666 20.9768 21.8084 20.9768 21.4898V5.10027C20.9768 4.78168 20.7185 4.52341 20.3999 4.52341H16.9717L16.5226 4.07426H20.2721C20.9093 4.07426 21.4258 4.59079 21.4258 5.22796V21.3799C21.4258 22.0171 20.9093 22.5336 20.2721 22.5336H5.85074C5.21357 22.5336 4.69703 22.0171 4.69703 21.3799Z" fill="#0B3C61"/>
</svg>
