<svg width="100" height="100" viewBox="0 0 100 100" fill="none" xmlns="http://www.w3.org/2000/svg">
<path fill-rule="evenodd" clip-rule="evenodd" d="M13.5057 50.9722C13.5057 30.0586 30.5643 13 51.4779 13C72.3915 13 89.4501 30.0586 89.4501 50.9722C89.4501 71.8858 72.3915 88.9444 51.4779 88.9444C44.362 88.9444 37.843 87.0191 32.2115 83.6134C32.0996 83.4393 31.8861 83.3466 31.6736 83.3979L10.7851 88.4399L17.8321 68.881C17.8405 68.8585 17.8473 68.8354 17.8524 68.8118C17.8616 68.7698 17.8654 68.7265 17.8635 68.683C17.8604 68.6132 17.8426 68.543 17.8085 68.4768C15.137 63.2821 13.5057 57.1985 13.5057 50.9722ZM16.82 68.7398C14.1402 63.4576 12.5057 57.2919 12.5057 50.9722C12.5057 29.5063 30.012 12 51.4779 12C72.9438 12 90.4501 29.5063 90.4501 50.9722C90.4501 72.4381 72.9438 89.9444 51.4779 89.9444C44.1714 89.9444 37.4697 87.9649 31.6823 84.462C31.6681 84.4533 31.6544 84.4441 31.6414 84.4344L10.1173 89.6298L9.21497 89.8476L9.52962 88.9743L16.82 68.7398Z" fill="#828282"/>
<path fill-rule="evenodd" clip-rule="evenodd" d="M38.09 38.5769C38.09 31.4032 44.8295 26.7632 51.1387 26.7632C55.0407 26.7632 58.5635 27.9035 61.1295 30.1431C63.7152 32.3999 65.2275 35.6865 65.2275 39.7469C65.2275 43.0053 64.3785 45.3676 63.0588 47.2624C61.8369 49.0168 60.2354 50.3241 58.7685 51.5214C58.692 51.5839 58.6159 51.646 58.5402 51.7079C56.972 52.9903 55.5555 54.1903 54.5022 55.8197C53.4714 57.4143 52.7475 59.4917 52.7475 62.5619V63.7807H46.345V57.4269C46.345 53.3986 48.7201 50.2777 50.7949 47.5514C50.8246 47.5124 50.8542 47.4735 50.8838 47.4346C53.082 44.5453 54.925 42.0615 54.925 38.9669C54.925 37.4724 54.4421 36.2146 53.6609 35.3453C52.8907 34.4881 51.7771 33.9457 50.3587 33.9457C48.9715 33.9457 47.7854 34.3793 47.0541 35.2927C47.723 35.5406 48.332 35.8944 48.8393 36.3824C49.7573 37.2655 50.2125 38.4635 50.2125 39.8769C50.2125 41.5716 49.6131 43.0277 48.5206 44.0553C47.4376 45.074 45.9678 45.5807 44.3787 45.5807C42.3394 45.5807 40.7246 44.7043 39.6468 43.3494C38.5923 42.0237 38.09 40.2955 38.09 38.5769ZM51.1387 29.2007C45.7479 29.2007 40.5275 33.1407 40.5275 38.5769C40.5275 39.8484 40.9026 41.0126 41.5544 41.832C42.1829 42.6221 43.1031 43.1432 44.3787 43.1432C45.4546 43.1432 46.2923 42.8049 46.8506 42.2798C47.3993 41.7637 47.775 40.9772 47.775 39.8769C47.775 39.0153 47.5152 38.4909 47.1494 38.139C46.7545 37.7591 46.1033 37.4544 45.1164 37.3134L43.7179 37.1137L44.1205 35.7596C45.0419 32.6603 47.8204 31.5082 50.3587 31.5082C52.4503 31.5082 54.2292 32.3308 55.474 33.7161C56.7079 35.0893 57.3625 36.9514 57.3625 38.9669C57.3625 42.9478 55.0046 46.0453 52.9394 48.7585C52.9007 48.8093 52.8621 48.86 52.8237 48.9105C50.6289 51.7953 48.7825 54.2979 48.7825 57.4269V61.3432H50.3455C50.5176 58.4633 51.3033 56.2783 52.4552 54.4964C53.7419 52.506 55.4455 51.0898 56.9972 49.821C57.0457 49.7813 57.094 49.7418 57.1422 49.7024C58.6759 48.4489 60.0364 47.337 61.0586 45.8693C62.0789 44.4044 62.79 42.5336 62.79 39.7469C62.79 36.3324 61.5398 33.7365 59.5267 31.9795C57.494 30.2054 54.5817 29.2007 51.1387 29.2007ZM43.94 70.6869C43.94 67.4901 46.5544 64.8532 49.7087 64.8532C52.863 64.8532 55.4775 67.4901 55.4775 70.6869C55.4775 73.83 52.8518 76.4557 49.7087 76.4557C46.5656 76.4557 43.94 73.83 43.94 70.6869ZM49.7087 67.2907C47.923 67.2907 46.3775 68.8138 46.3775 70.6869C46.3775 72.4838 47.9118 74.0182 49.7087 74.0182C51.5056 74.0182 53.04 72.4838 53.04 70.6869C53.04 68.8138 51.4944 67.2907 49.7087 67.2907Z" fill="#828282"/>
</svg>
