<svg width="24" height="25" viewBox="0 0 24 25" fill="none" xmlns="http://www.w3.org/2000/svg">
<path fill-rule="evenodd" clip-rule="evenodd" d="M3.96507 20.5182H7.958C8.4597 22.7177 9.72117 23.9283 11.5298 24.0063C11.9245 24.0188 12.288 23.9914 12.6232 23.921C10.4526 22.6069 9.00195 20.2232 9.00195 17.5006C9.00195 13.3585 12.3598 10.0006 16.502 10.0006C17.7631 10.0006 18.9515 10.3119 19.9946 10.8618V10.8439C19.9946 7.36611 18.3884 4.86906 15.3286 3.22967C14.9868 3.01328 14.737 2.67955 14.6267 2.29199C14.2468 0.915227 13.1216 -0.0121898 11.7073 0.000121096C10.3529 0.0103801 9.24425 0.943953 8.86849 2.25711C8.74226 2.67248 8.46958 3.0287 8.10046 3.26044C5.1295 4.88548 3.53357 7.31892 3.5026 10.7106C3.49157 11.7803 3.49527 12.851 3.49894 13.9159C3.50078 14.4461 3.5026 14.975 3.5026 15.5015C1.66717 15.9345 0.841333 16.9378 1.02508 18.4171C1.19231 19.7488 2.25765 20.5182 3.96507 20.5182Z" fill="white"/>
<path fill-rule="evenodd" clip-rule="evenodd" d="M11 17.5C11 20.55 13.45 23 16.5 23C19.55 23 22 20.55 22 17.5C22 14.45 19.55 12 16.5 12C13.45 12 11 14.45 11 17.5ZM12 17.5C12 15 14 13 16.5 13C19 13 21 15 21 17.5C21 20 19 22 16.5 22C14 22 12 20 12 17.5ZM15.7854 18C15.7854 18.3 16.2 18.5 16.5 18.5C16.8 18.5 17.2854 18.3 17.2854 18V15C17.2854 14.7 16.8 14.5 16.5 14.5C16.2 14.5 15.7854 14.7 15.7854 15V18ZM16.5 21C16.9142 21 17.25 20.6642 17.25 20.25C17.25 19.8358 16.9142 19.5 16.5 19.5C16.0858 19.5 15.75 19.8358 15.75 20.25C15.75 20.6642 16.0858 21 16.5 21Z" fill="white"/>
</svg>
