<svg width="14" height="17" viewBox="0 0 14 17" fill="none" xmlns="http://www.w3.org/2000/svg">
<path fill-rule="evenodd" clip-rule="evenodd" d="M11.2573 0.192782C11.3051 0.236715 11.3323 0.299114 11.3323 0.364565V16.3842C11.3323 16.4496 11.3051 16.512 11.2573 16.556C11.2096 16.5999 11.1458 16.6213 11.0818 16.6148L1.1693 15.6136C1.0527 15.6018 0.963867 15.5021 0.963867 15.383V1.36579C0.963867 1.24667 1.0527 1.14695 1.1693 1.13517L11.0818 0.133949C11.1458 0.127478 11.2096 0.148848 11.2573 0.192782ZM1.41981 1.57566V15.1731L10.8763 16.1283V0.620485L1.41981 1.57566Z" fill="#333333"/>
<path fill-rule="evenodd" clip-rule="evenodd" d="M10.9263 1.42708C10.9263 1.29962 11.0297 1.19629 11.1572 1.19629H12.9622C13.0897 1.19629 13.1931 1.29962 13.1931 1.42708V15.3218C13.1931 15.4492 13.0897 15.5526 12.9622 15.5526H11.1712C11.0437 15.5526 10.9403 15.4492 10.9403 15.3218C10.9403 15.1943 11.0437 15.091 11.1712 15.091H12.7313V1.65787H11.1572C11.0297 1.65787 10.9263 1.55454 10.9263 1.42708Z" fill="#333333"/>
<path fill-rule="evenodd" clip-rule="evenodd" d="M5.48327 4.59143C4.2739 4.59143 3.28341 5.62485 3.28341 6.91259C3.28341 8.20033 4.2739 9.23375 5.48327 9.23375C6.69264 9.23375 7.68313 8.20033 7.68313 6.91259C7.68313 5.62485 6.69264 4.59143 5.48327 4.59143ZM2.82471 6.91259C2.82471 5.37668 4.00941 4.12109 5.48327 4.12109C6.95714 4.12109 8.14184 5.37668 8.14184 6.91259C8.14184 8.44849 6.95714 9.70408 5.48327 9.70408C4.00941 9.70408 2.82471 8.44849 2.82471 6.91259Z" fill="#333333"/>
<path fill-rule="evenodd" clip-rule="evenodd" d="M6.88013 8.70826C6.97031 8.61808 7.11652 8.61808 7.2067 8.70826L9.13758 10.6391C9.22775 10.7293 9.22775 10.8755 9.13758 10.9657C9.0474 11.0559 8.90119 11.0559 8.81101 10.9657L6.88013 9.03482C6.78996 8.94465 6.78996 8.79844 6.88013 8.70826Z" fill="#333333"/>
<path fill-rule="evenodd" clip-rule="evenodd" d="M2.82559 12.3263C2.83663 12.188 2.94854 12.0856 3.07554 12.0976L8.99443 12.6582C9.12143 12.6703 9.21543 12.7921 9.20439 12.9305C9.19334 13.0688 9.08144 13.1712 8.95444 13.1591L3.03555 12.5986C2.90855 12.5865 2.81455 12.4646 2.82559 12.3263Z" fill="#333333"/>
</svg>
