<svg width="24" height="24" viewBox="0 0 24 24" fill="none" xmlns="http://www.w3.org/2000/svg">
<path fill-rule="evenodd" clip-rule="evenodd" d="M12 20C16.4183 20 20 16.4183 20 12C20 7.58172 16.4183 4 12 4C7.58172 4 4 7.58172 4 12C4 16.4183 7.58172 20 12 20ZM22 12C22 17.5228 17.5228 22 12 22C6.47715 22 2 17.5228 2 12C2 6.47715 6.47715 2 12 2C17.5228 2 22 6.47715 22 12Z" fill="white"/>
<path d="M13 17V10C13 9.44772 12.5523 9 12 9C11.4477 9 11 9.44772 11 10V17C11 17.5523 11.4477 18 12 18C12.5523 18 13 17.5523 13 17Z" fill="white"/>
<path d="M11.0898 7.07578C11.0898 7.57785 11.4969 7.98487 11.9989 7.98487C12.501 7.98487 12.908 7.57785 12.908 7.07578C12.908 6.5737 12.501 6.16669 11.9989 6.16669C11.4969 6.16669 11.0898 6.5737 11.0898 7.07578Z" fill="white"/>
</svg>
