<svg width="24" height="24" viewBox="0 0 24 24" fill="none" xmlns="http://www.w3.org/2000/svg">
<path fill-rule="evenodd" clip-rule="evenodd" d="M22 12C22 17.5228 17.5228 22 12 22C6.47715 22 2 17.5228 2 12C2 6.47715 6.47715 2 12 2C17.5228 2 22 6.47715 22 12ZM13 17V10C13 9.44772 12.5523 9 12 9C11.4477 9 11 9.44772 11 10V17C11 17.5523 11.4477 18 12 18C12.5523 18 13 17.5523 13 17ZM11.9989 7.98484C11.4969 7.98484 11.0898 7.57782 11.0898 7.07575C11.0898 6.57367 11.4969 6.16666 11.9989 6.16666C12.501 6.16666 12.908 6.57367 12.908 7.07575C12.908 7.57782 12.501 7.98484 11.9989 7.98484Z" fill="white"/>
</svg>
