<?xml version="1.0" standalone="no"?>
<!DOCTYPE svg PUBLIC "-//W3C//DTD SVG 1.1//EN" "http://www.w3.org/Graphics/SVG/1.1/DTD/svg11.dtd">
<!--Generator: Xara Designer (www.xara.com), SVG filter version: 6.1.0.18-->
<svg width="25" height="24" viewBox="0 0 25 24" fill="none" xmlns="http://www.w3.org/2000/svg">
<path fill-rule="evenodd" clip-rule="evenodd" d="M11.3633 4C7.49729 4 4.36328 7.13401 4.36328 11C4.36328 14.866 7.49729 18 11.3633 18C15.2293 18 18.3633 14.866 18.3633 11C18.3633 7.13401 15.2293 4 11.3633 4ZM2.36328 11C2.36328 6.02944 6.39272 2 11.3633 2C16.3338 2 20.3633 6.02944 20.3633 11C20.3633 15.9706 16.3338 20 11.3633 20C6.39272 20 2.36328 15.9706 2.36328 11Z" fill="#828282"/>
<path fill-rule="evenodd" clip-rule="evenodd" d="M16.3062 15.9428C16.6967 15.5523 17.3299 15.5523 17.7204 15.9428L22.0704 20.2928C22.4609 20.6833 22.4609 21.3165 22.0704 21.707C21.6799 22.0975 21.0467 22.0975 20.6562 21.707L16.3062 17.357C15.9156 16.9665 15.9156 16.3333 16.3062 15.9428Z" fill="#828282"/>
</svg>