<svg width="19" height="19" viewBox="0 0 19 19" fill="none" xmlns="http://www.w3.org/2000/svg">
<path fill-rule="evenodd" clip-rule="evenodd" d="M9.5 7.67518C8.67157 7.67518 8 8.34866 8 9.17945C8 10.0102 8.67157 10.6837 9.5 10.6837C10.3284 10.6837 11 10.0102 11 9.17945C11 8.34866 10.3284 7.67518 9.5 7.67518ZM6.5 9.17945C6.5 7.51788 7.84315 6.1709 9.5 6.1709C11.1569 6.1709 12.5 7.51788 12.5 9.17945C12.5 10.841 11.1569 12.188 9.5 12.188C7.84315 12.188 6.5 10.841 6.5 9.17945Z" fill="#0B3C61"/>
<path fill-rule="evenodd" clip-rule="evenodd" d="M9.5 1.65808C9.30109 1.65808 9.11032 1.73732 8.96967 1.87838C8.82902 2.01943 8.75 2.21074 8.75 2.41022V2.54108C8.74845 2.92979 8.6336 3.30957 8.41958 3.63366C8.20556 3.95774 7.90172 4.212 7.54545 4.36513C7.48203 4.39238 7.41531 4.41067 7.34721 4.4196C7.02348 4.53329 6.67499 4.56131 6.33575 4.49963C5.945 4.42857 5.58444 4.24176 5.30055 3.96328L5.29464 3.95748L5.24967 3.91232C5.18002 3.84239 5.097 3.78661 5.00596 3.74876C4.91491 3.71091 4.81731 3.69143 4.71875 3.69143C4.62019 3.69143 4.52259 3.71091 4.43154 3.74876C4.3405 3.78661 4.25778 3.84209 4.18813 3.91202L4.18754 3.91261C4.1178 3.98247 4.06248 4.06542 4.02474 4.15673C3.987 4.24803 3.96757 4.34591 3.96757 4.44475C3.96757 4.54359 3.987 4.64146 4.02474 4.73277C4.06248 4.82408 4.1178 4.90703 4.18754 4.97689L4.23868 5.02818C4.51637 5.31287 4.70262 5.6745 4.77347 6.06636C4.84291 6.45042 4.79835 6.8463 4.64559 7.20492C4.50642 7.57088 4.26273 7.88778 3.94479 8.11584C3.62041 8.3485 3.23374 8.47793 2.83504 8.48728L2.8175 8.48748H2.75C2.55109 8.48748 2.36032 8.56673 2.21967 8.70778C2.07902 8.84883 2 9.04014 2 9.23962C2 9.4391 2.07902 9.63041 2.21967 9.77146C2.36032 9.91251 2.55109 9.99176 2.75 9.99176H2.88049C3.2681 9.99331 3.64679 10.1085 3.96996 10.3231C4.29201 10.537 4.5449 10.8403 4.69776 11.196C4.85681 11.5594 4.90408 11.9622 4.83347 12.3527C4.76262 12.7446 4.57634 13.1062 4.29865 13.3909L4.29286 13.3968L4.24783 13.4419C4.1781 13.5117 4.12248 13.595 4.08474 13.6863C4.047 13.7776 4.02757 13.8755 4.02757 13.9743C4.02757 14.0732 4.047 14.171 4.08474 14.2623C4.12248 14.3537 4.1778 14.4366 4.24754 14.5065L4.24813 14.507C4.31778 14.577 4.40049 14.6325 4.49154 14.6703C4.58259 14.7082 4.68019 14.7276 4.77875 14.7276C4.87731 14.7276 4.97491 14.7082 5.06596 14.6703C5.15701 14.6325 5.23972 14.577 5.30937 14.5071L5.36052 14.4558C5.64441 14.1773 6.005 13.9905 6.39575 13.9194C6.77872 13.8498 7.17347 13.8945 7.53108 14.0477C7.89599 14.1873 8.212 14.4316 8.43941 14.7505C8.67142 15.0758 8.80047 15.4636 8.80979 15.8634L8.81 15.881V15.9487C8.81 16.1482 8.88902 16.3395 9.02967 16.4805C9.17032 16.6216 9.36109 16.7008 9.56 16.7008C9.75891 16.7008 9.94968 16.6216 10.0903 16.4805C10.231 16.3395 10.31 16.1482 10.31 15.9487V15.8208L10.31 15.8178C10.3116 15.4291 10.4264 15.0493 10.6404 14.7252C10.8537 14.4023 11.1562 14.1486 11.5109 13.9953C11.8733 13.8359 12.2748 13.7885 12.6642 13.8593C13.055 13.9303 13.4156 14.1171 13.6994 14.3956L13.7054 14.4014L13.7503 14.4466C13.82 14.5165 13.903 14.5723 13.994 14.6101C14.0851 14.648 14.1827 14.6675 14.2812 14.6675C14.3798 14.6675 14.4774 14.648 14.5685 14.6101C14.6595 14.5723 14.7422 14.5168 14.8119 14.4469L14.8125 14.4463C14.8822 14.3764 14.9375 14.2935 14.9753 14.2022C15.013 14.1109 15.0324 14.013 15.0324 13.9142C15.0324 13.8153 15.013 13.7174 14.9753 13.6261C14.9375 13.5348 14.8822 13.4519 14.8125 13.382L14.7613 13.3307C14.4836 13.046 14.2974 12.6844 14.2265 12.2925C14.1559 11.902 14.2032 11.4993 14.3622 11.1359C14.5151 10.7802 14.768 10.4768 15.09 10.2629C15.4132 10.0483 15.7919 9.93314 16.1795 9.93159L16.1825 9.93158L16.25 9.93159C16.4489 9.93159 16.6397 9.85234 16.7803 9.71129C16.921 9.57024 17 9.37893 17 9.17945C17 8.97997 16.921 8.78866 16.7803 8.64761C16.6397 8.50656 16.4489 8.42731 16.25 8.42731H16.1225L16.1195 8.42731C15.7319 8.42576 15.3532 8.31058 15.03 8.09595C14.7069 7.88132 14.4533 7.57661 14.3006 7.21933C14.2735 7.15573 14.2552 7.08882 14.2463 7.02052C14.133 6.69588 14.105 6.34639 14.1665 6.00619C14.2374 5.61432 14.4237 5.25273 14.7014 4.96804L14.7071 4.96211L14.7522 4.91701C14.8219 4.84716 14.8775 4.76391 14.9153 4.6726C14.953 4.58129 14.9724 4.48342 14.9724 4.38458C14.9724 4.28574 14.953 4.18786 14.9153 4.09655C14.8775 4.00525 14.8222 3.9223 14.7525 3.85244L14.7519 3.85185C14.6822 3.78192 14.5995 3.72644 14.5085 3.68859C14.4174 3.65074 14.3198 3.63126 14.2213 3.63126C14.1227 3.63126 14.0251 3.65074 13.934 3.68859C13.843 3.72644 13.7603 3.78192 13.6906 3.85185L13.6395 3.90314C13.3556 4.18162 12.995 4.3684 12.6042 4.43945C12.2148 4.51027 11.8132 4.46286 11.4508 4.30336C11.0962 4.15006 10.7937 3.89645 10.5804 3.57348C10.3664 3.2494 10.2516 2.86962 10.25 2.48091L10.25 2.47791V2.41022C10.25 2.21074 10.171 2.01943 10.0303 1.87838C9.88968 1.73732 9.69891 1.65808 9.5 1.65808ZM15.05 11.4359L15.7361 11.7395C15.6968 11.8289 15.6851 11.928 15.7025 12.0242C15.7197 12.1192 15.7645 12.207 15.8314 12.2765L15.8725 12.3177C15.8724 12.3176 15.8726 12.3178 15.8725 12.3177C16.0816 12.5272 16.2477 12.7763 16.3609 13.0501C16.4741 13.324 16.5324 13.6176 16.5324 13.9142C16.5324 14.2107 16.4741 14.5043 16.3609 14.7782C16.2477 15.0521 16.0817 15.301 15.8725 15.5106L15.3425 14.9784L15.8731 15.51C15.6642 15.7198 15.416 15.8862 15.1429 15.9997C14.8697 16.1133 14.5769 16.1717 14.2812 16.1717C13.9856 16.1717 13.6928 16.1133 13.4196 15.9997C13.1466 15.8862 12.8986 15.7199 12.6897 15.5103C12.6898 15.5104 12.6896 15.5102 12.6897 15.5103L12.6482 15.4687C12.579 15.4017 12.4914 15.3566 12.3966 15.3394C12.3008 15.322 12.2019 15.3338 12.1128 15.3732L12.1055 15.3764C12.0181 15.414 11.9435 15.4763 11.891 15.5558C11.8387 15.635 11.8106 15.7277 11.81 15.8227V15.9487C11.81 16.5471 11.5729 17.121 11.151 17.5442C10.729 17.9674 10.1567 18.2051 9.56 18.2051C8.96326 18.2051 8.39097 17.9674 7.96901 17.5442C7.54705 17.121 7.31 16.5471 7.31 15.9487V15.8918C7.30644 15.7961 7.27495 15.7035 7.21936 15.6256C7.16245 15.5458 7.08292 15.485 6.99111 15.4512C6.97628 15.4457 6.96163 15.4398 6.94718 15.4334C6.85806 15.3939 6.75921 15.3822 6.66337 15.3996C6.56856 15.4168 6.481 15.4618 6.41172 15.5289L6.37063 15.5701C6.37072 15.57 6.37053 15.5702 6.37063 15.5701C6.16172 15.7798 5.91338 15.9464 5.64037 16.0599C5.36722 16.1735 5.07444 16.2319 4.77875 16.2319C4.48306 16.2319 4.19028 16.1735 3.91713 16.0599C3.64425 15.9465 3.39631 15.7803 3.18746 15.5707C2.97827 15.3612 2.81231 15.1123 2.69908 14.8384C2.58585 14.5645 2.52757 14.2708 2.52757 13.9743C2.52757 13.6778 2.58585 13.3842 2.69908 13.1103C2.81231 12.8363 2.97827 12.5875 3.18746 12.3779L3.22858 12.3367C3.29546 12.2672 3.34035 12.1794 3.35754 12.0843C3.37491 11.9882 3.36318 11.8891 3.32385 11.7997L3.32061 11.7923C3.28315 11.7047 3.221 11.6299 3.14174 11.5773C3.06278 11.5249 2.97031 11.4966 2.87562 11.496H2.75C2.15326 11.496 1.58097 11.2583 1.15901 10.8351C0.737053 10.412 0.5 9.83806 0.5 9.23962C0.5 8.64118 0.737053 8.06726 1.15901 7.6441C1.58097 7.22094 2.15326 6.98321 2.75 6.98321H2.80673C2.90213 6.97964 2.99444 6.94806 3.07216 6.89231C3.15173 6.83524 3.21233 6.75549 3.2461 6.66342C3.25155 6.64854 3.25747 6.63385 3.26385 6.61935C3.30318 6.52999 3.31491 6.43085 3.29754 6.33473C3.28035 6.23966 3.23546 6.15186 3.16857 6.08238L3.12747 6.04116C2.91827 5.8316 2.75231 5.58274 2.63908 5.30882C2.52585 5.0349 2.46757 4.74128 2.46757 4.44475C2.46757 4.14822 2.52585 3.8546 2.63908 3.58068C2.75226 3.30688 2.91811 3.05813 3.12717 2.84863C3.33607 2.63898 3.58412 2.47265 3.85713 2.35915C4.13028 2.2456 4.42307 2.18716 4.71875 2.18716C5.01443 2.18716 5.30722 2.2456 5.58037 2.35915C5.85351 2.47271 6.10166 2.63914 6.31063 2.84893L6.35173 2.89015C6.42101 2.95723 6.50857 3.00225 6.60337 3.01949C6.69921 3.03691 6.79806 3.02515 6.88718 2.98571C6.93521 2.96445 6.98519 2.94837 7.0363 2.93763C7.08859 2.90204 7.13374 2.85641 7.16896 2.80307C7.22125 2.72389 7.24941 2.63115 7.25 2.5362V2.41022C7.25 1.81178 7.48705 1.23785 7.90901 0.814696C8.33097 0.391537 8.90326 0.153809 9.5 0.153809C10.0967 0.153809 10.669 0.391537 11.091 0.814696C11.5129 1.23785 11.75 1.81178 11.75 2.41022V2.47603C11.7506 2.57098 11.7787 2.66372 11.831 2.7429C11.8835 2.82239 11.9581 2.88476 12.0454 2.92232L12.0528 2.9255C12.142 2.96494 12.2408 2.97674 12.3366 2.95932C12.4314 2.94208 12.519 2.89707 12.5883 2.82999L12.6294 2.78876C12.8383 2.57897 13.0865 2.41254 13.3596 2.29898C13.6328 2.18543 13.9256 2.12698 14.2213 2.12698C14.5169 2.12698 14.8097 2.18543 15.0829 2.29898C15.356 2.41254 15.6042 2.57897 15.8131 2.78876C16.022 2.99819 16.1878 3.24684 16.3009 3.52051C16.4141 3.79443 16.4724 4.08805 16.4724 4.38458C16.4724 4.68111 16.4141 4.97473 16.3009 5.24865C16.1877 5.52244 16.0219 5.77119 15.8128 5.98069C15.8129 5.98059 15.8127 5.98079 15.8128 5.98069L15.7714 6.02221C15.7045 6.09169 15.6597 6.17949 15.6425 6.27456C15.6251 6.37068 15.6368 6.46981 15.6761 6.55918C15.6973 6.60735 15.7134 6.65748 15.7241 6.70873C15.7596 6.76117 15.8051 6.80644 15.8583 6.84177C15.9372 6.89421 16.0297 6.92244 16.1244 6.92304H16.25C16.8467 6.92304 17.419 7.16077 17.841 7.58393C18.2629 8.00709 18.5 8.58101 18.5 9.17945C18.5 9.77789 18.2629 10.3518 17.841 10.775C17.419 11.1981 16.8467 11.4359 16.25 11.4359H16.1844C16.0897 11.4365 15.9972 11.4647 15.9183 11.5171C15.839 11.5698 15.7768 11.6445 15.7394 11.7322L15.05 11.4359Z" fill="#0B3C61"/>
</svg>
