<?xml version="1.0" standalone="no"?>
<!DOCTYPE svg PUBLIC "-//W3C//DTD SVG 1.1//EN" "http://www.w3.org/Graphics/SVG/1.1/DTD/svg11.dtd">

<svg width="33" height="23" viewBox="0 0 33 23" fill="none" xmlns="http://www.w3.org/2000/svg">
<path d="M30.6529 14.8196C30.9666 14.8196 31.1327 14.8196 31.2987 14.8196C32.5653 14.8372 33.0115 15.2348 32.9998 16.3309C32.988 17.38 32.5418 17.7674 31.3088 17.7747C30.3644 17.7747 29.4199 17.7747 28.3765 17.7747V19.5149C28.3765 20.7914 27.9571 21.1553 26.4741 21.1568C23.7347 21.1568 20.9953 21.1568 18.2542 21.1568C17.7811 21.1568 17.4876 21.2316 17.1722 21.6263C17.0037 21.8077 16.7956 21.958 16.56 22.0683C16.3244 22.1787 16.066 22.2469 15.8 22.269C14.0419 22.3438 12.2771 22.3071 10.5174 22.2954C9.41021 22.2954 8.80797 21.7701 8.78617 20.8017C8.76436 19.8333 8.78617 18.8473 8.78617 17.7585H7.86352C5.76659 17.7585 3.66967 17.7585 1.57442 17.7585C0.452148 17.7585 0.0193424 17.3697 0.000889427 16.3822C-0.0209186 15.2378 0.35485 14.8445 1.51068 14.8005C1.72708 14.7917 1.94516 14.7785 2.28402 14.7609V13.8805C2.28402 9.91884 2.28402 5.95718 2.28402 1.99551C2.28234 0.384429 2.73025 0 4.56883 0H28.6365C30.1127 0 30.6495 0.462195 30.6495 1.77248C30.6562 5.80751 30.6562 9.84206 30.6495 13.8761L30.6529 14.8196ZM29.5675 14.7535V2.86854H3.40965V14.777H8.77778C8.77778 13.8849 8.77778 13.0339 8.77778 12.1829C8.77778 10.9327 9.33304 10.4485 10.7506 10.4427C11.8024 10.4427 12.8542 10.4427 13.9782 10.4427C13.9782 9.20428 13.9681 8.05979 13.9782 6.92118C13.9899 5.89408 14.5133 5.43922 15.6658 5.43776C19.3284 5.43776 22.9905 5.43776 26.652 5.43776C27.8833 5.43776 28.3647 5.86474 28.3664 6.94613C28.3664 9.29378 28.3664 11.6414 28.3664 13.9891V14.7624L29.5675 14.7535ZM27.2911 8.09354H15.0451V10.3986C15.2631 10.4148 15.4275 10.4339 15.5936 10.4397C16.9105 10.4926 17.4389 10.9709 17.4389 12.1447C17.4389 12.6084 17.4389 13.0735 17.4389 13.5372V17.8392H27.2861L27.2911 8.09354ZM16.3871 19.1994V12.8901H9.91347V19.1994H16.3871ZM3.42139 1.87812H29.5206C29.6715 1.0271 29.5491 0.880371 28.6466 0.880371C20.5474 0.880371 12.4471 0.880371 4.34572 0.880371C3.42475 0.880371 3.32074 0.997754 3.42139 1.87812ZM27.3045 18.8209H17.5043V20.2559C20.4937 20.2559 23.4227 20.2295 26.3483 20.272C27.1871 20.2852 27.4639 20.0372 27.3431 19.352C27.3129 19.1891 27.3179 19.0219 27.3045 18.8209ZM8.74087 15.6999C6.31012 15.6999 3.91794 15.6999 1.52745 15.6999C0.957087 15.6999 1.04432 16.0477 1.02419 16.3617C0.997348 16.7241 1.13826 16.8943 1.58784 16.8914C3.3459 16.8782 5.11068 16.8914 6.86035 16.8914H8.74087V15.6999ZM15.035 7.02976H27.2039C27.3498 6.48687 27.12 6.29612 26.5329 6.29612C22.9351 6.3059 19.3368 6.3059 15.7379 6.29612C15.2128 6.29905 14.936 6.45605 15.035 7.02976ZM9.85308 20.1605C9.7172 21.3343 9.80108 21.4224 11.0508 21.4224H15.2346C16.3938 21.4224 16.5616 21.2111 16.221 20.1605H9.85308ZM28.4167 16.8224H32.0184C32.27 16.4776 32.3891 15.7762 31.4397 15.7117C30.4499 15.6442 29.4501 15.6955 28.4201 15.6955L28.4167 16.8224ZM9.83295 11.6048L9.96212 11.8381H16.4207C16.0382 11.2614 14.5905 11.1514 10.665 11.3318C10.3832 11.3465 10.1097 11.5094 9.83295 11.6048Z" fill="#0B3C61"/>
</svg>






