<?xml version="1.0" standalone="no"?>
<!DOCTYPE svg PUBLIC "-//W3C//DTD SVG 1.1//EN" "http://www.w3.org/Graphics/SVG/1.1/DTD/svg11.dtd">

<svg width="27" height="28" viewBox="0 0 27 28" fill="none" xmlns="http://www.w3.org/2000/svg">
<path d="M12.3497 23.709C11.2404 23.709 10.0976 23.7218 8.95645 23.709C6.59712 23.6787 5.28004 22.4238 5.26999 20.1967C5.25993 18.8189 5.26999 17.4411 5.26999 15.9531C4.70864 15.9531 4.216 15.9531 3.72503 15.9531C1.41429 15.9531 0.0385653 14.6536 0.015106 12.4408C-0.00332632 9.82254 -0.00332632 7.21543 0.00672766 4.60993C-0.0110199 3.9731 0.0141669 3.33585 0.0821325 2.7021C0.171185 1.96725 0.539001 1.28874 1.11639 0.794195C1.69377 0.299653 2.44093 0.0231719 3.2173 0.0167634C9.85963 -0.00558779 16.502 -0.00558779 23.1443 0.0167634C25.1048 0.0247459 26.6816 1.45362 26.9347 3.31196C26.975 3.57638 26.9968 3.84305 27 4.11022C27 9.45534 27 14.7999 27 20.144C27 21.5952 26.4638 22.767 25.0311 23.3785C24.4697 23.618 23.7928 23.6723 23.1627 23.6978C22.0568 23.7473 20.9458 23.7106 19.8633 23.7106C19.8633 24.8936 19.8868 25.976 19.8483 27.0633C19.8365 27.3746 19.7343 27.8152 19.5131 27.9461C19.2919 28.077 18.8429 27.9461 18.5547 27.8008C17.7034 27.3618 16.8907 26.4949 16.0596 26.4901C15.262 26.4901 14.4727 27.3714 13.6483 27.8168C13.3936 27.9541 12.9429 28.0675 12.7602 27.9477C12.5273 27.7881 12.3765 27.3937 12.3631 27.0936C12.3212 26.0016 12.3497 24.9175 12.3497 23.709ZM19.5399 22.17L19.793 22.3727C20.9324 22.3727 22.0735 22.3727 23.2147 22.3727C24.9239 22.3727 25.5991 21.7341 25.5991 20.1089C25.5991 14.8404 25.5438 9.57188 25.6276 4.3034C25.6611 2.23591 24.2871 1.25885 22.4439 1.27801C17.2795 1.33229 12.1117 1.29717 6.94565 1.29717H6.34241C6.43122 2.53925 6.5569 3.71109 6.59209 4.88453C6.63398 6.32139 6.60214 7.75825 6.60214 9.19511C6.60214 12.9203 6.60214 16.6455 6.60214 20.3707C6.60214 21.3956 7.17354 22.2482 8.09013 22.3073C9.5798 22.4046 11.0829 22.3344 12.8272 22.3344C12.5675 21.8028 12.4619 21.3637 12.1888 21.0572C10.302 18.9626 10.3925 15.9483 12.4368 14.0549C13.4147 13.1416 14.726 12.625 16.0953 12.6137C17.4646 12.6023 18.7852 13.0972 19.7796 13.9942C20.7736 14.8916 21.3683 16.1181 21.4413 17.4209C21.5143 18.7237 21.0598 20.0035 20.1717 20.9965C19.8902 21.3318 19.7477 21.7772 19.5399 22.17ZM5.20296 14.636C5.20296 14.2704 5.20296 13.9862 5.20296 13.7021C5.22084 10.3813 5.23983 7.0611 5.25993 3.74142C5.25993 3.55463 5.26831 3.36784 5.25993 3.18265C5.16777 2.07467 4.32659 1.27641 3.2793 1.31473C2.17839 1.35304 1.41931 2.11298 1.41429 3.26247C1.402 6.39695 1.402 9.53144 1.41429 12.6659C1.41429 13.7835 2.11639 14.5227 3.28098 14.6264C3.88086 14.6871 4.4908 14.636 5.20296 14.636ZM16.083 21.4451C16.8565 21.4448 17.6126 21.2263 18.256 20.8172C18.8994 20.4082 19.4012 19.8268 19.6984 19.1464C19.9955 18.466 20.0746 17.717 19.9257 16.9938C19.7767 16.2707 19.4065 15.6057 18.8615 15.0827C18.3165 14.5597 17.6213 14.2021 16.8634 14.055C16.1055 13.9079 15.3188 13.9778 14.6025 14.256C13.8863 14.5341 13.2724 15.0081 12.8384 15.6181C12.4044 16.2281 12.1696 16.9468 12.1637 17.6838C12.1574 18.1771 12.2543 18.6666 12.4488 19.1239C12.6432 19.5811 12.9312 19.9969 13.296 20.3471C13.6608 20.6972 14.0951 20.9746 14.5736 21.1631C15.0521 21.3516 15.5652 21.4475 16.083 21.4451ZM13.9399 22.312V26.1117C14.4794 25.7924 14.9939 25.5226 15.4614 25.1937C15.9289 24.8649 16.3512 24.8856 16.827 25.2049C17.3398 25.5498 17.8978 25.8307 18.5178 26.1884C18.4524 24.8393 18.3921 23.6212 18.3301 22.3392C17.6345 22.6157 16.8875 22.7558 16.1338 22.7511C15.38 22.7464 14.635 22.5971 13.9432 22.312H13.9399Z" fill="#0B3C61"/>
<path d="M15.6525 5.39436C13.9197 5.39436 12.187 5.39436 10.4526 5.39436C9.98751 5.39436 9.50094 5.37599 9.48108 4.86704C9.46122 4.3581 9.92627 4.24359 10.4443 4.24359C13.9396 4.25019 17.4338 4.25019 20.9269 4.24359C21.4466 4.24359 21.9199 4.32276 21.905 4.85291C21.8885 5.34488 21.4085 5.39436 20.9352 5.39295C19.1743 5.39012 17.4134 5.39436 15.6525 5.39436Z" fill="#0B3C61"/>
<path d="M13.0916 7.79913C13.9985 7.79913 14.9121 7.79913 15.8141 7.79913C16.3106 7.79913 16.7442 7.9405 16.7458 8.39713C16.7475 8.85376 16.294 8.98382 15.8074 8.98382C13.9869 8.98382 12.1764 9.00785 10.3625 8.95696C10.058 8.94847 9.55985 8.64594 9.5102 8.41975C9.40925 7.96454 9.86603 7.80055 10.3691 7.80196L13.0916 7.79913Z" fill="#0B3C61"/>
</svg>




