<svg width="202" height="203" viewBox="0 0 202 203" fill="none" xmlns="http://www.w3.org/2000/svg">
<g opacity="0.25">
<path fill-rule="evenodd" clip-rule="evenodd" d="M53.733 33.1974C54.6529 33.1021 55.5779 33.0555 56.5042 33.0579L56.5112 33.0579C60.7194 33.0589 64.8758 33.9855 68.6859 35.7718C71.7117 37.2355 74.4704 39.1963 76.8473 41.5724L77.1105 41.8684L77.167 41.9302C80.3267 45.2916 82.6893 49.321 84.0797 53.7198C85.4701 58.1186 85.8527 62.7739 85.199 67.3407C85.1788 67.4818 85.1687 67.6241 85.1687 67.7666C85.1688 67.7643 85.1687 67.7655 85.1687 67.7666C85.168 67.7794 85.1639 67.8503 85.1433 68.0296C85.1392 68.065 85.1338 68.1103 85.1275 68.1624C85.1075 68.3286 85.0793 68.564 85.0608 68.767C85.0355 69.0449 85.0076 69.4574 85.043 69.9001C85.0751 70.3018 85.1806 71.0593 85.6735 71.7987C85.7842 71.9647 85.911 72.1192 86.0523 72.26L166.692 152.659L166.736 152.702C167.761 153.683 168.576 154.86 169.133 156.164C169.69 157.468 169.978 158.872 169.978 160.29C169.978 161.708 169.69 163.111 169.133 164.415C168.576 165.719 167.761 166.897 166.736 167.877L166.689 167.924C164.713 169.899 162.779 170.677 161.022 170.877C159.206 171.083 157.354 170.694 155.598 169.977C153.844 169.26 152.308 168.266 151.194 167.428C150.643 167.013 150.211 166.648 149.923 166.394C149.78 166.267 149.673 166.168 149.607 166.106L149.539 166.041L149.532 166.035L149.529 166.031L71.0626 87.525C69.9089 86.3713 68.4171 86.3033 67.8093 86.3033C67.1144 86.3033 66.4342 86.4178 66.0976 86.4745C66.0902 86.4757 66.0831 86.4769 66.0761 86.4781C61.5307 87.1079 56.9018 86.7122 52.5291 85.3197C48.1437 83.9232 44.1279 81.5598 40.7779 78.404C40.7511 78.3788 40.7238 78.3541 40.6961 78.3298L40.4627 78.1256C38.1268 75.731 36.2073 72.9626 34.7839 69.9346L34.7719 69.9095C32.9145 66.0514 31.9478 61.8252 31.9433 57.5432L31.9433 57.5367C31.9406 56.7078 31.9772 55.8798 32.0527 55.0556L46.5892 70.0269C47.2726 70.8806 48.1135 71.5963 49.0667 72.1348C50.0774 72.7057 51.1934 73.0655 52.3472 73.1924C53.5011 73.3193 54.6686 73.2107 55.7792 72.8732C56.8898 72.5356 57.9204 71.9761 58.8084 71.2286C58.8727 71.1745 58.9347 71.1177 58.9942 71.0584L69.7355 60.3572C69.7967 60.2963 69.8553 60.2326 69.911 60.1666C70.6552 59.2849 71.2148 58.2627 71.5565 57.1607C71.8982 56.0586 72.0152 54.8992 71.9004 53.7511C71.7856 52.603 71.4414 51.4897 70.8882 50.4771C70.3628 49.5155 69.6591 48.6633 68.8152 47.9659L53.733 33.1974ZM26.6755 50.5619L27.1502 48.1487C27.3661 47.0515 28.1731 46.1648 29.2452 45.847C30.3174 45.5291 31.4773 45.8327 32.2563 46.635L51.0134 65.9532C51.0963 66.0385 51.174 66.1287 51.2461 66.2233C51.4568 66.4992 51.7212 66.7295 52.0235 66.9002C52.3258 67.071 52.6595 67.1786 53.0046 67.2165C53.3496 67.2545 53.6988 67.222 54.031 67.1211C54.3306 67.03 54.6107 66.8849 54.8576 66.6933L65.3831 56.2072C65.5752 55.9599 65.7214 55.6798 65.8143 55.3801C65.9177 55.0469 65.953 54.6964 65.9183 54.3493C65.8836 54.0022 65.7795 53.6656 65.6123 53.3595C65.445 53.0534 65.218 52.7839 64.9447 52.5672C64.8627 52.5022 64.7841 52.4329 64.7093 52.3596L45.4311 33.4822C44.6458 32.7133 44.3428 31.5771 44.6409 30.5193C44.9389 29.4614 45.7906 28.6506 46.8618 28.4047L49.3156 27.8415C51.6783 27.3069 54.0937 27.04 56.5162 27.046C61.6115 27.0477 66.644 28.1713 71.2562 30.337L71.2862 30.3511C74.9538 32.1228 78.2948 34.5031 81.1675 37.3906C81.2072 37.4305 81.2458 37.4716 81.2832 37.5136L81.5767 37.8438C85.3396 41.8562 88.154 46.6624 89.8121 51.9079C91.4565 57.1103 91.9218 62.6128 91.1751 68.016C91.1634 68.2912 91.1357 68.5434 91.1158 68.7161L91.1049 68.8081L170.916 148.381C172.516 149.918 173.79 151.762 174.662 153.803C175.538 155.853 175.99 158.06 175.99 160.29C175.99 162.52 175.538 164.726 174.662 166.777C173.79 168.817 172.517 170.661 170.917 172.197C168.029 175.076 164.861 176.491 161.701 176.85C158.591 177.204 155.701 176.513 153.324 175.542C150.945 174.57 148.956 173.267 147.579 172.231C146.884 171.708 146.329 171.241 145.941 170.898C145.747 170.726 145.593 170.584 145.484 170.481C145.429 170.429 145.385 170.387 145.353 170.356L145.313 170.317L145.299 170.304L145.294 170.299C145.293 170.298 145.29 170.295 147.412 168.165L145.29 170.295L67.3913 92.356C67.2813 92.3721 67.1653 92.3914 67.026 92.4146L66.9482 92.4265C61.4989 93.1888 55.9479 92.7177 50.7049 91.0481C45.4798 89.3842 40.6935 86.5723 36.6966 82.8187L36.4166 82.5737C36.3599 82.524 36.305 82.4722 36.2521 82.4184C33.4096 79.5259 31.0758 76.1742 29.349 72.5048C27.1053 67.8394 25.9373 62.7298 25.9314 57.5528M67.8324 92.3158C67.8324 92.3159 67.83 92.3158 67.8254 92.3155Z" fill="#333333"/>
<path fill-rule="evenodd" clip-rule="evenodd" d="M161.352 27.1973C162.518 26.5772 163.953 26.7919 164.888 27.7262L174.908 37.746C175.845 38.6831 176.057 40.1234 175.431 41.2915L163.768 63.0546C163.317 63.8966 162.492 64.474 161.547 64.61L150.832 66.1512L117.592 99.3131C117.525 99.3794 117.456 99.4422 117.384 99.5015L117.434 99.5511L115.488 101.497L111.237 97.2456L111.274 97.2085L103.386 89.1935C102.23 88.0189 102.236 86.1326 103.398 84.9646L136.522 51.6835L138.064 40.9666C138.2 40.0173 138.782 39.1901 139.629 38.7401L161.352 27.1973ZM143.797 43.333L142.331 53.5257C142.239 54.1661 141.943 54.7597 141.486 55.2183L109.758 87.097L115.488 92.9195L147.293 61.19C147.752 60.7322 148.346 60.435 148.988 60.3427L159.187 58.8756L169.078 40.4189L162.209 33.5496L143.797 43.333ZM83.2127 101.75C84.2115 101.521 85.2583 101.816 85.9902 102.533L100.178 116.441C100.934 117.182 101.245 118.266 100.996 119.295L96.9877 135.848C96.8577 136.384 96.5823 136.875 96.1917 137.266L59.3988 174.059C59.1747 174.283 58.9165 174.47 58.6339 174.613L57.2733 171.933C58.6339 174.613 58.6339 174.613 58.6339 174.613L58.6218 174.62L58.6049 174.628L58.5564 174.652C58.5176 174.671 58.4661 174.696 58.4022 174.726C58.2744 174.786 58.0972 174.867 57.8745 174.963C57.4297 175.154 56.8003 175.406 56.0192 175.67C54.4642 176.196 52.2683 176.783 49.7047 177.02C44.5434 177.498 37.7575 176.548 31.9418 170.732C25.958 164.748 25.6586 157.237 26.6488 151.659C27.147 148.852 27.9855 146.415 28.6926 144.687C29.048 143.818 29.3749 143.117 29.6178 142.625C29.7394 142.378 29.8403 142.183 29.9137 142.044C29.9504 141.975 29.9802 141.92 30.0024 141.879L30.0298 141.829L30.039 141.813L30.0424 141.807C30.0424 141.807 30.045 141.802 32.6646 143.276L30.045 141.802C30.1793 141.563 30.3455 141.344 30.539 141.151L65.368 106.322C65.767 105.923 66.2703 105.644 66.8202 105.518L83.2127 101.75ZM35.111 145.081C35.0806 145.141 35.0468 145.208 35.0099 145.283C34.8207 145.667 34.5527 146.24 34.2568 146.963C33.6614 148.419 32.9718 150.436 32.5682 152.709C31.7548 157.291 32.1569 162.445 36.1929 166.481C40.397 170.685 45.2141 171.398 49.1509 171.034C51.1363 170.85 52.8631 170.391 54.0936 169.975C54.7052 169.768 55.1843 169.575 55.4997 169.44C55.5092 169.436 55.5278 169.428 55.5278 169.428L91.3434 133.612L94.7508 119.539L82.9564 107.978L69.0084 111.184L35.111 145.081Z" fill="#333333"/>
<path fill-rule="evenodd" clip-rule="evenodd" d="M71.2624 121.351C72.4363 122.525 72.4363 124.428 71.2624 125.602L44.5294 152.335C43.3555 153.509 41.4523 153.509 40.2784 152.335C39.1045 151.161 39.1045 149.258 40.2784 148.084L67.0113 121.351C68.1852 120.177 70.0885 120.177 71.2624 121.351Z" fill="#333333"/>
<path fill-rule="evenodd" clip-rule="evenodd" d="M81.3225 131.371C82.4964 132.545 82.4964 134.448 81.3225 135.622L54.5495 162.395C53.3756 163.569 51.4723 163.569 50.2984 162.395C49.1245 161.221 49.1245 159.318 50.2984 158.144L77.0714 131.371C78.2453 130.197 80.1486 130.197 81.3225 131.371Z" fill="#333333"/>
</g>
</svg>
