<svg width="117" height="117" viewBox="0 0 117 117" fill="none" xmlns="http://www.w3.org/2000/svg">
<path fill-rule="evenodd" clip-rule="evenodd" d="M20.6706 20.9301H96.3258V97.4205H20.6706V20.9301ZM24.6706 24.9301V93.4205H92.3258V24.9301H24.6706Z" fill="#82B237"/>
<path fill-rule="evenodd" clip-rule="evenodd" d="M4 6.47727V4H6.47729V0H0V6.47727H4ZM4 11.4318H0V16.3864H4V11.4318ZM4 21.3409H0V26.2955H4V21.3409ZM4 31.25H0V36.2045H4V31.25ZM4 41.1591H0V46.1136H4V41.1591ZM4 51.0682H0V56.0227H4V51.0682ZM4 60.9773H0V65.9318H4V60.9773ZM4 70.8864H0V75.8409H4V70.8864ZM4 80.7954H0V85.75H4V80.7954ZM4 90.7045H0V95.6591H4V90.7045ZM4 100.614H0V105.568H4V100.614ZM4 110.523H0V117H6.47727V113H4V110.523ZM11.4318 113V117H16.3864V113H11.4318ZM21.3409 113V117H26.2955V113H21.3409ZM31.25 113V117H36.2045V113H31.25ZM41.1591 113V117H46.1136V113H41.1591ZM51.0682 113V117H56.0227V113H51.0682ZM60.9773 113V117H65.9318V113H60.9773ZM70.8864 113V117H75.8409V113H70.8864ZM80.7954 113V117H85.75V113H80.7954ZM90.7045 113V117H95.6591V113H90.7045ZM100.614 113V117H105.568V113H100.614ZM110.523 113V117H117V110.523H113V113H110.523ZM113 105.568H117V100.614H113V105.568ZM113 95.6591H117V90.7045H113V95.6591ZM113 85.75H117V80.7955H113V85.75ZM113 75.8409H117V70.8864H113V75.8409ZM113 65.9318H117V60.9773H113V65.9318ZM113 56.0227H117V51.0682H113V56.0227ZM113 46.1136H117V41.1591H113V46.1136ZM113 36.2046H117V31.25H113V36.2046ZM113 26.2955H117V21.3409H113V26.2955ZM113 16.3864H117V11.4318H113V16.3864ZM113 6.47729V4H110.523V0H117V6.47729H113ZM105.568 4V0H100.614V4H105.568ZM95.6591 4V0H90.7045V4H95.6591ZM85.75 4V0H80.7955V4H85.75ZM75.8409 4V0H70.8864V4H75.8409ZM65.9318 4V0H60.9773V4H65.9318ZM56.0227 4V0H51.0682V4H56.0227ZM46.1136 4V0H41.1591V4H46.1136ZM36.2046 4V0H31.25V4H36.2046ZM26.2955 4V0H21.3409V4H26.2955ZM16.3864 4V0H11.4318V4H16.3864Z" fill="#007584"/>
</svg>
