<?xml version="1.0" standalone="no"?>
<!DOCTYPE svg PUBLIC "-//W3C//DTD SVG 1.1//EN" "http://www.w3.org/Graphics/SVG/1.1/DTD/svg11.dtd">

<svg width="24" height="27" viewBox="0 0 24 27" fill="none" xmlns="http://www.w3.org/2000/svg">
<path fill-rule="evenodd" clip-rule="evenodd" d="M10.0386 0.857178H5.14369C4.46171 0.857178 3.80766 1.1281 3.32542 1.61033C2.84318 2.09257 2.57227 2.74662 2.57227 3.42861V17.1429C2.57227 17.8249 2.84318 18.4789 3.32542 18.9612C3.80766 19.4434 4.46171 19.7143 5.14369 19.7143H10.2114C10.0733 19.1657 10 18.5914 10 18C10 14.134 13.134 11 17 11C17.3398 11 17.674 11.0242 18.0008 11.071V7.71432C18.0008 7.70166 18.0006 7.68902 18 7.67642V9H12C10.8954 9 10 8.10457 10 7V1.12132C10 1.02732 10.0136 0.93895 10.0386 0.857178ZM10.8957 21.4286H8.57059C8.34326 21.4286 8.12525 21.3383 7.9645 21.1775C7.80375 21.0168 7.71345 20.7987 7.71345 20.5714H5.99916C5.99916 21.2534 6.27008 21.9075 6.75232 22.3897C7.23455 22.8719 7.88861 23.1428 8.57059 23.1428H12.2511C11.7149 22.6475 11.2563 22.0693 10.8957 21.4286ZM21.4277 12.578C20.9124 12.1566 20.3358 11.8073 19.7134 11.5453V6.85713C19.7134 6.62981 19.6231 6.41179 19.4624 6.25104C19.3017 6.0903 19.0836 5.99999 18.8563 5.99999H18.4277L16.7134 4.28571H18.8563C19.5383 4.28571 20.1923 4.55662 20.6746 5.03886C21.1568 5.5211 21.4277 6.17515 21.4277 6.85713V12.578ZM17.6416 7H12.5C12.2239 7 12 6.77614 12 6.5V1.35844L17.6416 7Z" fill="white"/>
<path fill-rule="evenodd" clip-rule="evenodd" d="M17 13.5C14.5147 13.5 12.5 15.5147 12.5 18C12.5 20.4853 14.5147 22.5 17 22.5C19.4853 22.5 21.5 20.4853 21.5 18C21.5 15.5147 19.4853 13.5 17 13.5ZM11.5 18C11.5 14.9624 13.9624 12.5 17 12.5C20.0376 12.5 22.5 14.9624 22.5 18C22.5 21.0376 20.0376 23.5 17 23.5C13.9624 23.5 11.5 21.0376 11.5 18Z" fill="white"/>
<path fill-rule="evenodd" clip-rule="evenodd" d="M17 15.5C17.2761 15.5 17.5 15.7239 17.5 16V20C17.5 20.2761 17.2761 20.5 17 20.5C16.7239 20.5 16.5 20.2761 16.5 20V16C16.5 15.7239 16.7239 15.5 17 15.5Z" fill="white"/>
<path fill-rule="evenodd" clip-rule="evenodd" d="M14.5 18C14.5 17.7239 14.7239 17.5 15 17.5H19C19.2761 17.5 19.5 17.7239 19.5 18C19.5 18.2761 19.2761 18.5 19 18.5H15C14.7239 18.5 14.5 18.2761 14.5 18Z" fill="white"/>
</svg>
