<?xml version="1.0" standalone="no"?>
<!DOCTYPE svg PUBLIC "-//W3C//DTD SVG 1.1//EN" "http://www.w3.org/Graphics/SVG/1.1/DTD/svg11.dtd">

<svg width="21" height="24" viewBox="0 0 21 24" fill="none" xmlns="http://www.w3.org/2000/svg">
<path fill-rule="evenodd" clip-rule="evenodd" d="M18.1032 5.03892C17.6209 4.55668 16.9669 4.28577 16.2849 4.28577H14.142L15.8563 6.00005H16.2849C16.5122 6.00005 16.7302 6.09036 16.891 6.2511C17.0517 6.41185 17.142 6.62987 17.142 6.85719V11.5454C17.7644 11.8073 18.3409 12.1567 18.8563 12.578V6.85719C18.8563 6.17521 18.5854 5.52116 18.1032 5.03892ZM9.67975 23.1429C9.14352 22.6475 8.68493 22.0693 8.3243 21.4286H5.99916C5.77184 21.4286 5.55382 21.3383 5.39307 21.1776C5.23233 21.0168 5.14202 20.7988 5.14202 20.5715H3.42773C3.42773 21.2535 3.69865 21.9075 4.18089 22.3898C4.66312 22.872 5.31718 23.1429 5.99916 23.1429H9.67975Z" fill="white"/>
<path fill-rule="evenodd" clip-rule="evenodd" d="M2.57143 0.857178C1.88944 0.857178 1.23539 1.1281 0.753154 1.61033C0.270917 2.09257 0 2.74662 0 3.42861V17.1429C0 17.8249 0.270918 18.4789 0.753154 18.9612C1.23539 19.4434 1.88944 19.7143 2.57143 19.7143H7.63917C7.50108 19.1658 7.42773 18.5915 7.42773 18L2.57143 18C2.3441 18 2.12608 17.9097 1.96534 17.749C1.80459 17.5882 1.71429 17.3702 1.71429 17.1429V3.42861C1.71429 3.20128 1.80459 2.98326 1.96534 2.82251C2.12608 2.66177 2.3441 2.57146 2.57143 2.57146H7.96534V7.96534C7.96534 8.43873 8.34909 8.82248 8.82248 8.82248H13.7143V11.0359C13.9489 11.0122 14.1869 11 14.4277 11C14.8251 11 15.2147 11.0331 15.594 11.0967L15.6783 8.01304C15.6792 7.99725 15.6796 7.98135 15.6796 7.96534C15.6796 7.67294 15.5332 7.41473 15.3097 7.26003C15.2604 7.19772 15.2142 7.14494 15.1775 7.10823L9.43286 1.36357L9.42425 1.35496L9.17752 1.10823C9.08372 1.01443 9.0559 1.03009 9.00383 1.0594C8.96667 1.08032 8.91716 1.1082 8.82248 1.1082L2.57143 0.857178ZM12.7531 7.1082L9.67962 4.0347V7.1082H12.7531Z" fill="white"/>
<g clip-path="url(#clip0)">
<path fill-rule="evenodd" clip-rule="evenodd" d="M14.4277 13.5C11.9425 13.5 9.92773 15.5147 9.92773 18C9.92773 20.4853 11.9425 22.5 14.4277 22.5C16.913 22.5 18.9277 20.4853 18.9277 18C18.9277 15.5147 16.913 13.5 14.4277 13.5ZM8.92773 18C8.92773 14.9624 11.3902 12.5 14.4277 12.5C17.4653 12.5 19.9277 14.9624 19.9277 18C19.9277 21.0376 17.4653 23.5 14.4277 23.5C11.3902 23.5 8.92773 21.0376 8.92773 18Z" fill="white"/>
<path fill-rule="evenodd" clip-rule="evenodd" d="M14.4277 15.5C14.7039 15.5 14.9277 15.7239 14.9277 16V20C14.9277 20.2761 14.7039 20.5 14.4277 20.5C14.1516 20.5 13.9277 20.2761 13.9277 20V16C13.9277 15.7239 14.1516 15.5 14.4277 15.5Z" fill="white"/>
<path fill-rule="evenodd" clip-rule="evenodd" d="M11.9277 18C11.9277 17.7239 12.1516 17.5 12.4277 17.5H16.4277C16.7039 17.5 16.9277 17.7239 16.9277 18C16.9277 18.2761 16.7039 18.5 16.4277 18.5H12.4277C12.1516 18.5 11.9277 18.2761 11.9277 18Z" fill="white"/>
</g>
<defs>
<clipPath id="clip0">
<rect width="12" height="12" fill="white" transform="translate(8.42773 12)"/>
</clipPath>
</defs>
</svg>
