<?xml version="1.0" standalone="no"?>
<!DOCTYPE svg PUBLIC "-//W3C//DTD SVG 1.1//EN" "http://www.w3.org/Graphics/SVG/1.1/DTD/svg11.dtd">
<svg width="24" height="24" viewBox="0 0 24 24" fill="none" xmlns="http://www.w3.org/2000/svg">
<g clip-path="url(#clip0)">
<path fill-rule="evenodd" clip-rule="evenodd" d="M9 7.5H8H3.75C3.33579 7.5 3 7.83579 3 8.25V12C3 12.4142 3.33579 12.75 3.75 12.75H4.5V21.75C4.5 22.1642 4.83579 22.5 5.25 22.5H18.75C19.1642 22.5 19.5 22.1642 19.5 21.75V12.75H20.25C20.6642 12.75 21 12.4142 21 12V8.25C21 7.83579 20.6642 7.5 20.25 7.5H16.5H15V9H16.5H19.5V11.25H18.75H15V12.75H18V21H6V12.75H9V11.25H5.25H4.5V9H6.25H8H9V7.5ZM10.5 14.25C10.0858 14.25 9.75 14.5858 9.75 15C9.75 15.4142 10.0858 15.75 10.5 15.75H13.5C13.9142 15.75 14.25 15.4142 14.25 15C14.25 14.5858 13.9142 14.25 13.5 14.25H10.5Z" fill="black"/>
<path fill-rule="evenodd" clip-rule="evenodd" d="M12.3735 0.180757C12.1325 -0.0602524 11.7418 -0.0602524 11.5008 0.180757L7.18076 4.50075C6.93975 4.74176 6.93975 5.13252 7.18076 5.37352C7.42177 5.61453 7.81252 5.61453 8.05353 5.37352L11.32 2.10705V12.3429C11.32 12.7973 11.5963 12.96 11.9371 12.96C12.278 12.96 12.5543 12.7973 12.5543 12.3429V2.10706L15.8208 5.37352C16.0618 5.61453 16.4525 5.61453 16.6935 5.37352C16.9345 5.13252 16.9345 4.74176 16.6935 4.50075L12.3735 0.180757Z" fill="black"/>
</g>
<defs>
<clipPath id="clip0">
<rect width="24" height="24" fill="white"/>
</clipPath>
</defs>
</svg>
