<svg width="24" height="24" viewBox="0 0 24 24" fill="none" xmlns="http://www.w3.org/2000/svg">
<path fill-rule="evenodd" clip-rule="evenodd" d="M12.343 21.6858C12.1536 21.6858 12.0001 21.5218 12.0001 21.3195L12.0001 6.40981L7.79816 10.6118C7.66135 10.7486 7.43953 10.7486 7.30271 10.6118C7.1659 10.4749 7.1659 10.2531 7.30271 10.1163L12.0878 5.33126C12.1571 5.26189 12.2483 5.2277 12.3393 5.22867L12.343 5.22865L12.3467 5.22867C12.4376 5.2277 12.5288 5.26189 12.5982 5.33126L17.3832 10.1163C17.52 10.2531 17.52 10.4749 17.3832 10.6118C17.2464 10.7486 17.0246 10.7486 16.8878 10.6118L12.6858 6.40981L12.6858 21.3195C12.6858 21.5218 12.5323 21.6858 12.343 21.6858ZM2.4001 5.56504C2.4001 5.75796 2.56612 5.91436 2.77091 5.91436C2.97571 5.91436 3.14173 5.75796 3.14173 5.56504L3.14173 2.49873L20.8585 2.49873L20.8585 5.56504L21.6001 5.56504L21.6001 1.80008L2.4001 1.80008L2.4001 5.56504Z" fill="#0B3C61"/>
</svg>
