<?xml version="1.0" standalone="no"?>
<!DOCTYPE svg PUBLIC "-//W3C//DTD SVG 1.1//EN" "http://www.w3.org/Graphics/SVG/1.1/DTD/svg11.dtd">   
<svg width="28" height="24" viewBox="0 0 28 26" fill="none" xmlns="http://www.w3.org/2000/svg">
<path fill-rule="evenodd" clip-rule="evenodd" d="M5.20854 16.2259C6.30251 15.2611 7.78624 14.7191 9.33333 14.7191H18.6667C20.2138 14.7191 21.6975 15.2611 22.7915 16.2259C23.8854 17.1906 24.5 18.4991 24.5 19.8635V21.9212C24.5 22.4894 23.9777 22.9501 23.3333 22.9501C22.689 22.9501 22.1667 22.4894 22.1667 21.9212V19.8635C22.1667 19.0449 21.7979 18.2598 21.1415 17.6809C20.4852 17.1021 19.5949 16.7769 18.6667 16.7769H9.33333C8.40508 16.7769 7.51484 17.1021 6.85846 17.6809C6.20208 18.2598 5.83333 19.0449 5.83333 19.8635V21.9212C5.83333 22.4894 5.311 22.9501 4.66667 22.9501C4.02233 22.9501 3.5 22.4894 3.5 21.9212V19.8635C3.5 18.4991 4.11458 17.1906 5.20854 16.2259Z" fill="white"/>
<path fill-rule="evenodd" clip-rule="evenodd" d="M14 4.43042C12.067 4.43042 10.5 5.81235 10.5 7.51704C10.5 9.22173 12.067 10.6037 14 10.6037C15.933 10.6037 17.5 9.22173 17.5 7.51704C17.5 5.81235 15.933 4.43042 14 4.43042ZM8.16667 7.51704C8.16667 4.67589 10.7783 2.37268 14 2.37268C17.2217 2.37268 19.8333 4.67589 19.8333 7.51704C19.8333 10.3582 17.2217 12.6614 14 12.6614C10.7783 12.6614 8.16667 10.3582 8.16667 7.51704Z" fill="white"/>
</svg>

