<svg width="235" height="136" viewBox="0 0 235 136" fill="none" xmlns="http://www.w3.org/2000/svg">
<rect width="235" height="136" rx="5" fill="#4C9E45"/>
<ellipse cx="118.142" cy="120.604" rx="41.0929" ry="3.84905" fill="#41883B"/>
<rect x="69.9617" y="25.9757" width="95.0767" height="64.5951" rx="3" fill="white"/>
<rect x="102.732" y="92.3774" width="29.5355" height="11.5472" fill="white"/>
<path fill-rule="evenodd" clip-rule="evenodd" d="M76.9411 24.3802H158.059C159.227 24.3503 160.389 24.5569 161.475 24.9877C162.567 25.4208 163.56 26.0716 164.392 26.9002C165.225 27.7289 165.879 28.7182 166.317 29.8078C166.752 30.8922 166.963 32.0533 166.937 33.2212V84.2333C166.967 85.4031 166.759 86.5668 166.326 87.6542C165.891 88.7476 165.237 89.7407 164.404 90.5729C163.571 91.405 162.577 92.0586 161.483 92.4936C160.394 92.9263 159.23 93.1338 158.059 93.1038H76.941C75.773 93.1337 74.6109 92.9271 73.5248 92.4963C72.4327 92.0632 71.4402 91.4125 70.6078 90.5838C69.7754 89.7551 69.1205 88.7658 68.6831 87.6762C68.2478 86.5918 68.0368 85.4306 68.0629 84.2626V33.2506C68.0328 32.0809 68.2405 30.9171 68.6736 29.8298C69.1091 28.7364 69.7632 27.7433 70.5961 26.9112C71.4289 26.0791 72.4229 25.4255 73.5173 24.9904C74.6056 24.5577 75.7704 24.3502 76.9411 24.3802ZM158.077 25.7235V27.0669H76.9231C76.9106 27.0669 76.8981 27.0667 76.8855 27.0663C76.0738 27.0436 75.266 27.1867 74.5115 27.4866C73.757 27.7866 73.0717 28.2372 72.4975 28.8109C71.9233 29.3846 71.4723 30.0693 71.172 30.8231C70.8718 31.577 70.7287 32.3841 70.7514 33.1951C70.7517 33.2076 70.7519 33.2201 70.7519 33.2326V84.2783L70.7515 84.3109C70.7318 85.1201 70.8772 85.9248 71.1788 86.676C71.4804 87.4273 71.9319 88.1093 72.5058 88.6807C73.0796 89.252 73.7639 89.7006 74.5169 89.9992C75.2699 90.2979 76.0758 90.4403 76.8857 90.4177C76.8982 90.4173 76.9106 90.4172 76.9231 90.4172H158.077C158.082 90.4172 158.088 90.4172 158.094 90.4173C158.101 90.4174 158.108 90.4175 158.114 90.4177C158.926 90.4404 159.734 90.2974 160.488 89.9974C161.243 89.6974 161.928 89.2468 162.502 88.6731C163.077 88.0994 163.528 87.4147 163.828 86.6609C164.128 85.9071 164.271 85.1 164.249 84.289C164.248 84.2764 164.248 84.2639 164.248 84.2514V33.2058L164.248 33.1731C164.268 32.3639 164.123 31.5592 163.821 30.808C163.52 30.0567 163.068 29.3747 162.494 28.8034C161.92 28.232 161.236 27.7834 160.483 27.4848C159.73 27.1861 158.924 27.0438 158.114 27.0663L158.077 25.7235Z" fill="#0B3C61"/>
<path d="M136.762 57.4061C138.01 56.55 139.526 56.2546 140.979 56.5848C142.432 56.9149 143.701 57.8436 144.508 59.1666C145.315 60.4895 145.594 62.0983 145.282 63.6391C144.975 65.1618 143.765 66.5012 142.541 67.3585L123.279 81.4717C122.712 81.9294 120.815 82.0932 120.068 82.0932L93.7431 82.1133C93.0305 82.1133 92.4528 81.5005 92.4528 80.7446L92.4603 72.9513C92.4456 72.2942 92.5565 71.6408 92.7862 71.0302C93.0183 70.4133 93.367 69.8532 93.8106 69.3844C94.2543 68.9156 94.7837 68.548 95.3662 68.3041C95.9419 68.0631 96.5575 67.948 97.176 67.9656L121.995 67.98L135.478 58.3574C135.803 58.026 136.753 57.4124 136.762 57.4061Z" fill="#CEDBE7"/>
<path d="M135.478 56.1431C136.725 55.287 138.242 54.9916 139.695 55.3218C141.147 55.6519 142.417 56.5806 143.224 57.9036C144.031 59.2265 144.31 60.8353 143.998 62.3761C143.691 63.8988 142.481 64.5767 141.257 65.434L120.71 80.8302C120.143 81.2879 119.111 82.1752 118.679 81.5736L92.4665 82.0726C91.7538 82.0726 91.1761 81.4598 91.1761 80.7039V71.6883C91.1615 71.0312 91.2723 70.3778 91.502 69.7672C91.7342 69.1503 92.0828 68.5902 92.5265 68.1214C92.9701 67.6526 93.4995 67.285 94.082 67.0411C94.6577 66.8001 95.2733 66.685 95.8918 66.7026L120.71 66.717L134.194 57.0944C134.519 56.763 135.469 56.1494 135.478 56.1431Z" fill="white"/>
<ellipse cx="109.795" cy="51.9623" rx="13.4836" ry="13.4717" fill="#CEDBE7"/>
<ellipse cx="108.511" cy="49.3963" rx="12.1995" ry="12.1887" fill="white"/>
<path fill-rule="evenodd" clip-rule="evenodd" d="M97.0637 49.8895C97.0637 43.7838 102.018 38.8341 108.129 38.8341C114.24 38.8341 119.194 43.7838 119.194 49.8895C119.194 55.9953 114.24 60.9449 108.129 60.9449C102.018 60.9449 97.0637 55.9953 97.0637 49.8895ZM108.129 36.1475C100.533 36.1475 94.3747 42.3 94.3747 49.8895C94.3747 57.479 100.533 63.6316 108.129 63.6316C115.725 63.6316 121.883 57.479 121.883 49.8895C121.883 42.3 115.725 36.1475 108.129 36.1475ZM68.0629 81.2693C68.0629 80.5274 68.6648 79.926 69.4074 79.926H90.8253V71.1313C90.8101 70.4864 90.9256 69.845 91.1649 69.2458C91.4068 68.6403 91.77 68.0906 92.2323 67.6304C92.6946 67.1703 93.2462 66.8095 93.8531 66.5701C94.4529 66.3336 95.0943 66.2206 95.7388 66.2379H120.136L135.309 55.8736L135.32 55.8661L135.337 55.8547C136.637 55.0146 138.217 54.7246 139.731 55.0487C140.774 55.2719 141.726 55.7741 142.492 56.4897L148.139 52.3525C148.738 51.9138 149.579 52.0431 150.018 52.6414C150.457 53.2396 150.328 54.0803 149.729 54.519L143.982 58.7295C144.363 59.7585 144.448 60.8827 144.215 61.9723C143.894 63.4668 142.999 64.7751 141.724 65.6165L122.897 79.926H165.592C166.335 79.926 166.937 80.5274 166.937 81.2693C166.937 82.0112 166.335 82.6126 165.592 82.6126H69.4074C68.6648 82.6126 68.0629 82.0112 68.0629 81.2693ZM141.144 59.0326C141.148 59.0384 141.152 59.0442 141.155 59.05C141.605 59.7487 141.76 60.5969 141.585 61.4094C141.41 62.2249 140.918 62.9376 140.218 63.3907C140.189 63.4092 140.161 63.4287 140.134 63.4494L119.738 78.9511C119.418 79.1947 119.237 79.554 119.211 79.926H93.5143V71.1141C93.5143 71.1016 93.5141 71.0892 93.5138 71.0767C93.5058 70.7911 93.5564 70.5069 93.6624 70.2416C93.7684 69.9763 93.9275 69.7354 94.1301 69.5338C94.3327 69.3321 94.5744 69.174 94.8403 69.0691C95.1063 68.9642 95.3909 68.9148 95.6767 68.9239L95.7013 68.9244L95.7193 68.9245H120.552C120.823 68.9245 121.087 68.8428 121.311 68.6901L136.811 58.1019C137.509 57.6553 138.356 57.502 139.167 57.6756C139.98 57.8496 140.69 58.3375 141.144 59.0326ZM132.531 90.4441C133.274 90.4441 133.876 91.0455 133.876 91.7874V102.722H141.54C142.282 102.722 142.884 103.323 142.884 104.065C142.884 104.807 142.282 105.408 141.54 105.408H132.555L132.531 105.409L132.508 105.408H102.492L102.468 105.409L102.445 105.408H93.4604C92.7179 105.408 92.1159 104.807 92.1159 104.065C92.1159 103.323 92.7179 102.722 93.4604 102.722H101.124V91.7874C101.124 91.0455 101.726 90.4441 102.468 90.4441C103.211 90.4441 103.813 91.0455 103.813 91.7874V102.722H131.187V91.7874C131.187 91.0455 131.789 90.4441 132.531 90.4441ZM127.637 39.6939C126.895 39.6939 126.293 40.2953 126.293 41.0372C126.293 41.7791 126.895 42.3805 127.637 42.3805H148.934C149.677 42.3805 150.279 41.7791 150.279 41.0372C150.279 40.2953 149.677 39.6939 148.934 39.6939H127.637ZM126.293 48.1162C126.293 47.3743 126.895 46.7729 127.637 46.7729H143.61C144.353 46.7729 144.955 47.3743 144.955 48.1162C144.955 48.8581 144.353 49.4595 143.61 49.4595H127.637C126.895 49.4595 126.293 48.8581 126.293 48.1162Z" fill="#0B3C61"/>
</svg>
