<svg width="38" height="41" viewBox="0 0 38 41" fill="none" xmlns="http://www.w3.org/2000/svg">
<path fill-rule="evenodd" clip-rule="evenodd" d="M3.19361 18.4502C3.19361 10.5215 9.6211 4.094 17.5498 4.094C25.4785 4.094 31.906 10.5215 31.906 18.4502C31.906 26.3789 25.4785 32.8064 17.5498 32.8064C9.6211 32.8064 3.19361 26.3789 3.19361 18.4502ZM17.5498 2.7002C8.85132 2.7002 1.7998 9.75171 1.7998 18.4502C1.7998 27.1487 8.85132 34.2002 17.5498 34.2002C26.2483 34.2002 33.2998 27.1487 33.2998 18.4502C33.2998 9.75171 26.2483 2.7002 17.5498 2.7002ZM11.4886 18.0002C11.1082 18.0002 10.7998 18.2017 10.7998 18.4502C10.7998 18.6987 11.1082 18.9002 11.4886 18.9002H23.611C23.9914 18.9002 24.2998 18.6987 24.2998 18.4502C24.2998 18.2017 23.9914 18.0002 23.611 18.0002H11.4886Z" fill="#333333"/>
<path fill-rule="evenodd" clip-rule="evenodd" d="M37.0007 41.0003L27.0007 31.0003L27.9199 30.0811L37.9199 40.0811L37.0007 41.0003Z" fill="#333333"/>
</svg>
