<svg width="24" height="24" viewBox="0 0 24 24" fill="none" xmlns="http://www.w3.org/2000/svg">
<path fill-rule="evenodd" clip-rule="evenodd" d="M3.02147 9.67903C3.02147 8.65163 3.85434 7.81876 4.88174 7.81876C5.90914 7.81876 6.74201 8.65163 6.74201 9.67903C6.74201 10.7064 5.90914 11.5393 4.88174 11.5393C3.85434 11.5393 3.02147 10.7064 3.02147 9.67903ZM4.88174 7.20001C3.51262 7.20001 2.40272 8.30991 2.40272 9.67903C2.40272 11.0482 3.51262 12.158 4.88174 12.158C6.25086 12.158 7.36076 11.0482 7.36076 9.67903C7.36076 8.30991 6.25086 7.20001 4.88174 7.20001ZM2.60844 13.0246C2.64513 13.0092 2.68425 13.0015 2.72358 13.0018L7.03791 13.0018L7.03991 13.0018C7.07924 13.0015 7.11837 13.0092 7.15506 13.0246C7.19176 13.0399 7.22546 13.0626 7.25407 13.0917C7.28269 13.1209 7.30563 13.1558 7.32129 13.1946C7.33695 13.2334 7.34494 13.2752 7.34468 13.3175V16.7906C7.34468 16.9615 7.48319 17.1 7.65405 17.1C7.82492 17.1 7.96343 16.9615 7.96343 16.7906V13.3203C7.96406 13.198 7.94088 13.0766 7.89511 12.9631C7.84921 12.8493 7.78141 12.7456 7.6954 12.6581C7.60938 12.5705 7.50683 12.5009 7.39356 12.4536C7.28062 12.4064 7.15942 12.3824 7.03702 12.383H2.72647C2.60407 12.3824 2.48287 12.4064 2.36993 12.4536C2.25666 12.5009 2.15411 12.5705 2.06809 12.6581C1.98208 12.7456 1.91428 12.8493 1.86838 12.9631C1.82261 13.0766 1.79944 13.198 1.80006 13.3203V16.7906C1.80006 16.9615 1.93857 17.1 2.10944 17.1C2.2803 17.1 2.41881 16.9615 2.41881 16.7906L2.41882 13.3194L2.41881 13.3175C2.41854 13.2752 2.42654 13.2334 2.4422 13.1946C2.45786 13.1558 2.4808 13.1209 2.50942 13.0917C2.53803 13.0626 2.57173 13.0399 2.60844 13.0246ZM11.9934 7.81876C10.966 7.81876 10.1331 8.65163 10.1331 9.67903C10.1331 10.7064 10.966 11.5393 11.9934 11.5393C13.0208 11.5393 13.8536 10.7064 13.8536 9.67903C13.8536 8.65163 13.0208 7.81876 11.9934 7.81876ZM9.51434 9.67903C9.51434 8.30991 10.6242 7.20001 11.9934 7.20001C13.3625 7.20001 14.4724 8.30991 14.4724 9.67903C14.4724 11.0482 13.3625 12.158 11.9934 12.158C10.6242 12.158 9.51434 11.0482 9.51434 9.67903ZM9.72003 13.0246C9.75672 13.0092 9.79584 13.0015 9.83518 13.0018L14.1495 13.0018L14.1515 13.0018C14.1908 13.0015 14.23 13.0092 14.2667 13.0246C14.3034 13.0399 14.3371 13.0626 14.3657 13.0917C14.3943 13.1209 14.4172 13.1558 14.4329 13.1946C14.4485 13.2334 14.4565 13.2752 14.4563 13.3175V16.7906C14.4563 16.9615 14.5948 17.1 14.7657 17.1C14.9365 17.1 15.075 16.9615 15.075 16.7906V13.3203C15.0757 13.198 15.0525 13.0766 15.0067 12.9631C14.9608 12.8493 14.893 12.7456 14.807 12.6581C14.721 12.5705 14.6184 12.5009 14.5052 12.4536C14.3922 12.4064 14.271 12.3824 14.1486 12.383H9.83807C9.71566 12.3824 9.59447 12.4064 9.48153 12.4536C9.36826 12.5009 9.26571 12.5705 9.17968 12.6581C9.09367 12.7456 9.02588 12.8493 8.97998 12.9631C8.93421 13.0766 8.91103 13.198 8.91166 13.3203V16.7906C8.91166 16.9615 9.05017 17.1 9.22103 17.1C9.3919 17.1 9.53041 16.9615 9.53041 16.7906L9.53041 13.3194L9.5304 13.3175C9.53014 13.2752 9.53813 13.2334 9.5538 13.1946C9.56946 13.1558 9.59239 13.1209 9.62101 13.0917C9.64962 13.0626 9.68333 13.0399 9.72003 13.0246ZM18.9844 7.81876C17.957 7.81876 17.1242 8.65163 17.1242 9.67903C17.1242 10.7064 17.957 11.5393 18.9844 11.5393C20.0118 11.5393 20.8447 10.7064 20.8447 9.67903C20.8447 8.65163 20.0118 7.81876 18.9844 7.81876ZM16.5054 9.67903C16.5054 8.30991 17.6153 7.20001 18.9844 7.20001C20.3536 7.20001 21.4635 8.30991 21.4635 9.67903C21.4635 11.0482 20.3536 12.158 18.9844 12.158C17.6153 12.158 16.5054 11.0482 16.5054 9.67903ZM16.7121 13.0241C16.7489 13.0089 16.7881 13.0013 16.8275 13.0018L16.8312 13.0018L21.1409 13.0018L21.1429 13.0018C21.1821 13.0016 21.2212 13.0092 21.2579 13.0246C21.2945 13.0399 21.3282 13.0626 21.3568 13.0917C21.3854 13.1208 21.4083 13.1558 21.424 13.1946C21.4396 13.2334 21.4476 13.2752 21.4474 13.3175V16.7906C21.4474 16.9615 21.5859 17.1 21.7567 17.1C21.9276 17.1 22.0661 16.9615 22.0661 16.7906V13.3203C22.0667 13.198 22.0436 13.0767 21.9978 12.9632C21.9519 12.8494 21.8842 12.7457 21.7982 12.6581C21.7122 12.5706 21.6097 12.501 21.4965 12.4537C21.3835 12.4065 21.2624 12.3824 21.14 12.3831H16.8328C16.7103 12.3819 16.589 12.4054 16.4758 12.4522C16.3619 12.4993 16.2588 12.5688 16.1723 12.6564C16.0858 12.744 16.0176 12.848 15.9715 12.9621C15.9254 13.0758 15.9021 13.1976 15.9027 13.3203V16.7906C15.9027 16.9615 16.0412 17.1 16.2121 17.1C16.383 17.1 16.5215 16.9615 16.5215 16.7906L16.5215 13.3195L16.5215 13.3175C16.5212 13.2751 16.5293 13.2331 16.545 13.1942C16.5608 13.1552 16.5839 13.1203 16.6126 13.0911C16.6414 13.062 16.6752 13.0393 16.7121 13.0241Z" fill="white"/>
<path d="M2.72358 13.0018L2.72197 13.2518H2.72358L2.72358 13.0018ZM2.60844 13.0246L2.7048 13.2552L2.60844 13.0246ZM7.03791 13.0018L7.03791 13.2518L7.03953 13.2518L7.03791 13.0018ZM7.03991 13.0018L7.04152 13.2518H7.04152L7.03991 13.0018ZM7.15506 13.0246L7.05869 13.2552H7.05869L7.15506 13.0246ZM7.25407 13.0917L7.07576 13.267L7.07576 13.267L7.25407 13.0917ZM7.32129 13.1946L7.55314 13.1011V13.1011L7.32129 13.1946ZM7.34468 13.3175L7.09468 13.3159V13.3175H7.34468ZM7.96343 13.3203L7.71343 13.319V13.3203H7.96343ZM7.89511 12.9631L7.66326 13.0567L7.66326 13.0567L7.89511 12.9631ZM7.6954 12.6581L7.87372 12.4828L7.6954 12.6581ZM7.39356 12.4536L7.48993 12.2229L7.48993 12.2229L7.39356 12.4536ZM7.03702 12.383V12.633L7.03833 12.633L7.03702 12.383ZM2.72647 12.383L2.72516 12.633H2.72647V12.383ZM2.36993 12.4536L2.27357 12.2229H2.27357L2.36993 12.4536ZM2.06809 12.6581L1.88977 12.4828H1.88977L2.06809 12.6581ZM1.86838 12.9631L1.63653 12.8696L1.86838 12.9631ZM1.80006 13.3203H2.05006L2.05006 13.319L1.80006 13.3203ZM2.41881 16.7906L2.16881 16.7906V16.7906H2.41881ZM2.41882 13.3194L2.66882 13.3194L2.66881 13.3179L2.41882 13.3194ZM2.41881 13.3175L2.6688 13.3159L2.6688 13.3159L2.41881 13.3175ZM2.4422 13.1946L2.21035 13.1011H2.21035L2.4422 13.1946ZM2.50942 13.0917L2.3311 12.9165H2.3311L2.50942 13.0917ZM9.83518 13.0018L9.83356 13.2518H9.83518L9.83518 13.0018ZM9.72003 13.0246L9.62367 12.7939L9.62367 12.7939L9.72003 13.0246ZM14.1495 13.0018V13.2518L14.1511 13.2518L14.1495 13.0018ZM14.1515 13.0018L14.1531 13.2518H14.1531L14.1515 13.0018ZM14.2667 13.0246L14.363 12.7939L14.2667 13.0246ZM14.3657 13.0917L14.1874 13.267L14.1874 13.267L14.3657 13.0917ZM14.4329 13.1946L14.6647 13.1011L14.6647 13.1011L14.4329 13.1946ZM14.4563 13.3175L14.2063 13.3159V13.3175H14.4563ZM15.075 13.3203L14.825 13.319V13.3203H15.075ZM15.0067 12.9631L14.7749 13.0567L14.7749 13.0567L15.0067 12.9631ZM14.807 12.6581L14.6287 12.8333L14.6287 12.8333L14.807 12.6581ZM14.5052 12.4536L14.6015 12.2229V12.2229L14.5052 12.4536ZM14.1486 12.383V12.633L14.1499 12.633L14.1486 12.383ZM9.83807 12.383L9.83676 12.633H9.83807V12.383ZM9.48153 12.4536L9.38516 12.2229L9.38516 12.2229L9.48153 12.4536ZM9.17968 12.6581L9.00137 12.4828L9.17968 12.6581ZM8.97998 12.9631L8.74813 12.8696L8.97998 12.9631ZM8.91166 13.3203H9.16166L9.16165 13.319L8.91166 13.3203ZM9.53041 16.7906L9.28041 16.7906V16.7906H9.53041ZM9.53041 13.3194L9.78042 13.3194L9.78041 13.3179L9.53041 13.3194ZM9.5304 13.3175L9.7804 13.316L9.7804 13.3159L9.5304 13.3175ZM9.5538 13.1946L9.78564 13.2881L9.78565 13.2881L9.5538 13.1946ZM9.62101 13.0917L9.79933 13.267L9.79933 13.267L9.62101 13.0917ZM16.8275 13.0018L16.8246 13.2518L16.8261 13.2518L16.8275 13.0018ZM16.7121 13.0241L16.6166 12.793V12.793L16.7121 13.0241ZM16.8312 13.0018L16.8297 13.2518H16.8312V13.0018ZM21.1409 13.0018L21.1409 13.2518L21.1425 13.2518L21.1409 13.0018ZM21.1429 13.0018L21.1445 13.2518H21.1445L21.1429 13.0018ZM21.2579 13.0246L21.1615 13.2552L21.1615 13.2552L21.2579 13.0246ZM21.3568 13.0917L21.1784 13.2669L21.1784 13.2669L21.3568 13.0917ZM21.424 13.1946L21.6558 13.1011L21.6558 13.1011L21.424 13.1946ZM21.4474 13.3175L21.1974 13.316V13.3175H21.4474ZM22.0661 13.3203L21.8161 13.3191V13.3203H22.0661ZM21.9978 12.9632L22.2297 12.8697V12.8697L21.9978 12.9632ZM21.7982 12.6581L21.9766 12.483V12.483L21.7982 12.6581ZM21.4965 12.4537L21.5929 12.223H21.5929L21.4965 12.4537ZM21.14 12.3831V12.6331L21.1413 12.6331L21.14 12.3831ZM16.8328 12.3831L16.8304 12.6331H16.8328V12.3831ZM16.4758 12.4522L16.3803 12.2212H16.3803L16.4758 12.4522ZM16.1723 12.6564L16.3502 12.832L16.3502 12.832L16.1723 12.6564ZM15.9715 12.9621L15.7397 12.8683V12.8683L15.9715 12.9621ZM15.9027 13.3203H16.1527L16.1527 13.319L15.9027 13.3203ZM16.5215 16.7906L16.2715 16.7906V16.7906H16.5215ZM16.5215 13.3195L16.7715 13.3195L16.7715 13.3179L16.5215 13.3195ZM16.5215 13.3175L16.2715 13.3191L16.2715 13.3191L16.5215 13.3175ZM16.545 13.1942L16.7768 13.288L16.7768 13.288L16.545 13.1942ZM16.6126 13.0911L16.7905 13.2668V13.2668L16.6126 13.0911ZM4.88174 7.56876C3.71627 7.56876 2.77147 8.51356 2.77147 9.67903H3.27147C3.27147 8.7897 3.99241 8.06876 4.88174 8.06876V7.56876ZM6.99201 9.67903C6.99201 8.51356 6.04721 7.56876 4.88174 7.56876V8.06876C5.77107 8.06876 6.49201 8.7897 6.49201 9.67903H6.99201ZM4.88174 11.7893C6.04721 11.7893 6.99201 10.8445 6.99201 9.67903H6.49201C6.49201 10.5684 5.77107 11.2893 4.88174 11.2893V11.7893ZM2.77147 9.67903C2.77147 10.8445 3.71627 11.7893 4.88174 11.7893V11.2893C3.99241 11.2893 3.27147 10.5684 3.27147 9.67903H2.77147ZM2.65272 9.67903C2.65272 8.44798 3.65069 7.45001 4.88174 7.45001V6.95001C3.37455 6.95001 2.15272 8.17184 2.15272 9.67903H2.65272ZM4.88174 11.908C3.65069 11.908 2.65272 10.9101 2.65272 9.67903H2.15272C2.15272 11.1862 3.37455 12.408 4.88174 12.408V11.908ZM7.11076 9.67903C7.11076 10.9101 6.11279 11.908 4.88174 11.908V12.408C6.38894 12.408 7.61076 11.1862 7.61076 9.67903H7.11076ZM4.88174 7.45001C6.11279 7.45001 7.11076 8.44798 7.11076 9.67903H7.61076C7.61076 8.17184 6.38894 6.95001 4.88174 6.95001V7.45001ZM2.72519 12.7518C2.65215 12.7513 2.57971 12.7656 2.51207 12.7939L2.7048 13.2552C2.71054 13.2528 2.71635 13.2517 2.72197 13.2518L2.72519 12.7518ZM7.03792 12.7518L2.72358 12.7518L2.72358 13.2518L7.03791 13.2518L7.03792 12.7518ZM7.0383 12.7518L7.0363 12.7518L7.03953 13.2518L7.04152 13.2518L7.0383 12.7518ZM7.25142 12.7939C7.18378 12.7656 7.11134 12.7513 7.0383 12.7518L7.04152 13.2518C7.04714 13.2517 7.05295 13.2528 7.05869 13.2552L7.25142 12.7939ZM7.43239 12.9165C7.38058 12.8638 7.31906 12.8221 7.25142 12.7939L7.05869 13.2552C7.06446 13.2576 7.07035 13.2615 7.07576 13.267L7.43239 12.9165ZM7.55314 13.1011C7.52526 13.032 7.48419 12.9692 7.43239 12.9165L7.07576 13.267C7.08119 13.2725 7.08601 13.2796 7.08944 13.2881L7.55314 13.1011ZM7.59467 13.3191C7.59514 13.2443 7.58103 13.1702 7.55314 13.1011L7.08944 13.2881C7.09288 13.2966 7.09475 13.3061 7.09468 13.3159L7.59467 13.3191ZM7.59468 16.7906V13.3175H7.09468V16.7906H7.59468ZM7.65405 16.85C7.62126 16.85 7.59468 16.8234 7.59468 16.7906H7.09468C7.09468 17.0996 7.34512 17.35 7.65405 17.35V16.85ZM7.71343 16.7906C7.71343 16.8234 7.68685 16.85 7.65405 16.85V17.35C7.96299 17.35 8.21343 17.0996 8.21343 16.7906H7.71343ZM7.71343 13.3203V16.7906H8.21343V13.3203H7.71343ZM7.66326 13.0567C7.69685 13.1399 7.71389 13.2291 7.71343 13.319L8.21343 13.3216C8.21422 13.1669 8.18491 13.0133 8.12696 12.8696L7.66326 13.0567ZM7.51709 12.8333C7.57991 12.8972 7.62958 12.9731 7.66326 13.0567L8.12696 12.8696C8.06883 12.7255 7.98292 12.594 7.87372 12.4828L7.51709 12.8333ZM7.29719 12.6843C7.37953 12.7187 7.45426 12.7693 7.51709 12.8333L7.87372 12.4828C7.7645 12.3717 7.63413 12.2832 7.48993 12.2229L7.29719 12.6843ZM7.03833 12.633C7.12712 12.6326 7.21511 12.65 7.29719 12.6843L7.48993 12.2229C7.34613 12.1629 7.19173 12.1322 7.03571 12.133L7.03833 12.633ZM2.72647 12.633H7.03702V12.133H2.72647V12.633ZM2.4663 12.6843C2.54839 12.65 2.63637 12.6326 2.72516 12.633L2.72778 12.133C2.57177 12.1322 2.41736 12.1629 2.27357 12.2229L2.4663 12.6843ZM2.2464 12.8333C2.30923 12.7693 2.38396 12.7187 2.4663 12.6843L2.27357 12.2229C2.12936 12.2832 1.99899 12.3717 1.88977 12.4828L2.2464 12.8333ZM2.10023 13.0567C2.13391 12.9731 2.18358 12.8972 2.2464 12.8333L1.88977 12.4828C1.78057 12.594 1.69466 12.7255 1.63653 12.8696L2.10023 13.0567ZM2.05006 13.319C2.0496 13.2291 2.06664 13.1399 2.10023 13.0567L1.63653 12.8696C1.57858 13.0133 1.54927 13.1668 1.55006 13.3216L2.05006 13.319ZM2.05006 16.7906V13.3203H1.55006V16.7906H2.05006ZM2.10944 16.85C2.07664 16.85 2.05006 16.8234 2.05006 16.7906H1.55006C1.55006 17.0996 1.8005 17.35 2.10944 17.35V16.85ZM2.16881 16.7906C2.16881 16.8234 2.14223 16.85 2.10944 16.85V17.35C2.41837 17.35 2.66881 17.0996 2.66881 16.7906H2.16881ZM2.16882 13.3194L2.16881 16.7906L2.66881 16.7906L2.66882 13.3194L2.16882 13.3194ZM2.16881 13.3191L2.16882 13.321L2.66881 13.3179L2.6688 13.3159L2.16881 13.3191ZM2.21035 13.1011C2.18247 13.1702 2.16834 13.2443 2.16881 13.3191L2.6688 13.3159C2.66874 13.3062 2.6706 13.2967 2.67405 13.2881L2.21035 13.1011ZM2.3311 12.9165C2.2793 12.9692 2.23823 13.032 2.21035 13.1011L2.67405 13.2881C2.67749 13.2796 2.6823 13.2725 2.68773 13.267L2.3311 12.9165ZM2.51207 12.7939C2.44443 12.8221 2.38291 12.8638 2.3311 12.9165L2.68773 13.267C2.69314 13.2615 2.69903 13.2576 2.7048 13.2552L2.51207 12.7939ZM10.3831 9.67903C10.3831 8.7897 11.104 8.06876 11.9934 8.06876V7.56876C10.8279 7.56876 9.88309 8.51356 9.88309 9.67903H10.3831ZM11.9934 11.2893C11.104 11.2893 10.3831 10.5684 10.3831 9.67903H9.88309C9.88309 10.8445 10.8279 11.7893 11.9934 11.7893V11.2893ZM13.6036 9.67903C13.6036 10.5684 12.8827 11.2893 11.9934 11.2893V11.7893C13.1588 11.7893 14.1036 10.8445 14.1036 9.67903H13.6036ZM11.9934 8.06876C12.8827 8.06876 13.6036 8.7897 13.6036 9.67903H14.1036C14.1036 8.51356 13.1588 7.56876 11.9934 7.56876V8.06876ZM11.9934 6.95001C10.4862 6.95001 9.26434 8.17184 9.26434 9.67903H9.76434C9.76434 8.44798 10.7623 7.45001 11.9934 7.45001V6.95001ZM14.7224 9.67903C14.7224 8.17184 13.5006 6.95001 11.9934 6.95001V7.45001C13.2244 7.45001 14.2224 8.44798 14.2224 9.67903H14.7224ZM11.9934 12.408C13.5006 12.408 14.7224 11.1862 14.7224 9.67903H14.2224C14.2224 10.9101 13.2244 11.908 11.9934 11.908V12.408ZM9.26434 9.67903C9.26434 11.1862 10.4862 12.408 11.9934 12.408V11.908C10.7623 11.908 9.76434 10.9101 9.76434 9.67903H9.26434ZM9.83679 12.7518C9.76374 12.7513 9.6913 12.7656 9.62367 12.7939L9.8164 13.2552C9.82214 13.2528 9.82794 13.2517 9.83356 13.2518L9.83679 12.7518ZM14.1495 12.7518L9.83518 12.7518L9.83518 13.2518L14.1495 13.2518L14.1495 12.7518ZM14.1499 12.7518L14.1479 12.7518L14.1511 13.2518L14.1531 13.2518L14.1499 12.7518ZM14.363 12.7939C14.2954 12.7656 14.2229 12.7513 14.1499 12.7518L14.1531 13.2518C14.1587 13.2517 14.1645 13.2528 14.1703 13.2552L14.363 12.7939ZM14.544 12.9165C14.4922 12.8638 14.4307 12.8221 14.363 12.7939L14.1703 13.2552C14.1761 13.2576 14.1819 13.2615 14.1874 13.267L14.544 12.9165ZM14.6647 13.1011C14.6369 13.032 14.5958 12.9692 14.544 12.9165L14.1874 13.267C14.1928 13.2725 14.1976 13.2796 14.201 13.2881L14.6647 13.1011ZM14.7063 13.3191C14.7067 13.2443 14.6926 13.1702 14.6647 13.1011L14.201 13.2881C14.2045 13.2966 14.2063 13.3061 14.2063 13.3159L14.7063 13.3191ZM14.7063 16.7906V13.3175H14.2063V16.7906H14.7063ZM14.7657 16.85C14.7329 16.85 14.7063 16.8234 14.7063 16.7906H14.2063C14.2063 17.0996 14.4567 17.35 14.7657 17.35V16.85ZM14.825 16.7906C14.825 16.8234 14.7984 16.85 14.7657 16.85V17.35C15.0746 17.35 15.325 17.0996 15.325 16.7906H14.825ZM14.825 13.3203V16.7906H15.325V13.3203H14.825ZM14.7749 13.0567C14.8084 13.1399 14.8255 13.2291 14.825 13.319L15.325 13.3216C15.3258 13.1669 15.2965 13.0133 15.2386 12.8696L14.7749 13.0567ZM14.6287 12.8333C14.6915 12.8972 14.7412 12.9731 14.7749 13.0567L15.2386 12.8696C15.1804 12.7255 15.0945 12.594 14.9853 12.4828L14.6287 12.8333ZM14.4088 12.6843C14.4911 12.7187 14.5659 12.7693 14.6287 12.8333L14.9853 12.4828C14.8761 12.3717 14.7457 12.2832 14.6015 12.2229L14.4088 12.6843ZM14.1499 12.633C14.2387 12.6326 14.3267 12.65 14.4088 12.6843L14.6015 12.2229C14.4577 12.1629 14.3033 12.1322 14.1473 12.133L14.1499 12.633ZM9.83807 12.633H14.1486V12.133H9.83807V12.633ZM9.57789 12.6843C9.65998 12.65 9.74797 12.6326 9.83676 12.633L9.83938 12.133C9.68336 12.1322 9.52896 12.1629 9.38516 12.2229L9.57789 12.6843ZM9.358 12.8333C9.42083 12.7693 9.49556 12.7187 9.57789 12.6843L9.38516 12.2229C9.24096 12.2832 9.11059 12.3717 9.00137 12.4828L9.358 12.8333ZM9.21182 13.0567C9.24551 12.9731 9.29518 12.8972 9.358 12.8333L9.00137 12.4828C8.89217 12.594 8.80625 12.7255 8.74813 12.8696L9.21182 13.0567ZM9.16165 13.319C9.16119 13.2291 9.17824 13.1399 9.21182 13.0567L8.74813 12.8696C8.69018 13.0133 8.66087 13.1668 8.66166 13.3216L9.16165 13.319ZM9.16166 16.7906V13.3203H8.66166V16.7906H9.16166ZM9.22103 16.85C9.18824 16.85 9.16166 16.8234 9.16166 16.7906H8.66166C8.66166 17.0996 8.9121 17.35 9.22103 17.35V16.85ZM9.28041 16.7906C9.28041 16.8234 9.25382 16.85 9.22103 16.85V17.35C9.52997 17.35 9.78041 17.0996 9.78041 16.7906H9.28041ZM9.28041 13.3194L9.28041 16.7906L9.78041 16.7906L9.78041 13.3194L9.28041 13.3194ZM9.28041 13.319L9.28042 13.321L9.78041 13.3179L9.7804 13.316L9.28041 13.319ZM9.32195 13.1011C9.29407 13.1702 9.27994 13.2443 9.28041 13.3191L9.7804 13.3159C9.78034 13.3062 9.7822 13.2967 9.78564 13.2881L9.32195 13.1011ZM9.4427 12.9165C9.39089 12.9692 9.34983 13.032 9.32195 13.1011L9.78565 13.2881C9.78908 13.2796 9.7939 13.2725 9.79933 13.267L9.4427 12.9165ZM9.62367 12.7939C9.55603 12.8221 9.49451 12.8638 9.4427 12.9165L9.79933 13.267C9.80474 13.2615 9.81063 13.2576 9.8164 13.2552L9.62367 12.7939ZM17.3742 9.67903C17.3742 8.7897 18.0951 8.06876 18.9844 8.06876V7.56876C17.819 7.56876 16.8742 8.51356 16.8742 9.67903H17.3742ZM18.9844 11.2893C18.0951 11.2893 17.3742 10.5684 17.3742 9.67903H16.8742C16.8742 10.8445 17.819 11.7893 18.9844 11.7893V11.2893ZM20.5947 9.67903C20.5947 10.5684 19.8738 11.2893 18.9844 11.2893V11.7893C20.1499 11.7893 21.0947 10.8445 21.0947 9.67903H20.5947ZM18.9844 8.06876C19.8738 8.06876 20.5947 8.7897 20.5947 9.67903H21.0947C21.0947 8.51356 20.1499 7.56876 18.9844 7.56876V8.06876ZM18.9844 6.95001C17.4772 6.95001 16.2554 8.17184 16.2554 9.67903H16.7554C16.7554 8.44798 17.7534 7.45001 18.9844 7.45001V6.95001ZM21.7135 9.67903C21.7135 8.17183 20.4916 6.95001 18.9844 6.95001V7.45001C20.2155 7.45001 21.2135 8.44798 21.2135 9.67903H21.7135ZM18.9844 12.408C20.4916 12.408 21.7135 11.1862 21.7135 9.67903H21.2135C21.2135 10.9101 20.2155 11.908 18.9844 11.908V12.408ZM16.2554 9.67903C16.2554 11.1862 17.4772 12.408 18.9844 12.408V11.908C17.7534 11.908 16.7554 10.9101 16.7554 9.67903H16.2554ZM16.8305 12.7518C16.7572 12.751 16.6845 12.765 16.6166 12.793L16.8076 13.2551C16.8133 13.2528 16.819 13.2517 16.8246 13.2518L16.8305 12.7518ZM16.8327 12.7518L16.829 12.7518L16.8261 13.2518L16.8297 13.2518L16.8327 12.7518ZM21.1409 12.7518L16.8312 12.7518L16.8312 13.2518L21.1409 13.2518L21.1409 12.7518ZM21.1413 12.7518L21.1393 12.7518L21.1425 13.2518L21.1445 13.2518L21.1413 12.7518ZM21.3543 12.7939C21.2867 12.7656 21.2143 12.7514 21.1413 12.7518L21.1445 13.2518C21.15 13.2518 21.1558 13.2528 21.1615 13.2552L21.3543 12.7939ZM21.5351 12.9165C21.4834 12.8638 21.4219 12.8221 21.3543 12.7939L21.1615 13.2552C21.1672 13.2576 21.173 13.2614 21.1784 13.2669L21.5351 12.9165ZM21.6558 13.1011C21.628 13.032 21.5869 12.9693 21.5351 12.9165L21.1784 13.2669C21.1838 13.2724 21.1887 13.2795 21.1921 13.2881L21.6558 13.1011ZM21.6973 13.3191C21.6978 13.2443 21.6837 13.1702 21.6558 13.1011L21.1921 13.2881C21.1955 13.2966 21.1974 13.3061 21.1974 13.316L21.6973 13.3191ZM21.6974 16.7906V13.3175H21.1974V16.7906H21.6974ZM21.7567 16.85C21.7239 16.85 21.6974 16.8234 21.6974 16.7906H21.1974C21.1974 17.0996 21.4478 17.35 21.7567 17.35V16.85ZM21.8161 16.7906C21.8161 16.8234 21.7895 16.85 21.7567 16.85V17.35C22.0657 17.35 22.3161 17.0996 22.3161 16.7906H21.8161ZM21.8161 13.3203V16.7906H22.3161V13.3203H21.8161ZM21.766 13.0567C21.7995 13.1399 21.8166 13.2291 21.8161 13.3191L22.3161 13.3216C22.3169 13.1669 22.2876 13.0134 22.2297 12.8697L21.766 13.0567ZM21.6199 12.8333C21.6826 12.8973 21.7323 12.9732 21.766 13.0567L22.2297 12.8697C22.1716 12.7256 22.0857 12.5941 21.9766 12.483L21.6199 12.8333ZM21.4001 12.6843C21.4824 12.7187 21.5571 12.7694 21.6199 12.8333L21.9766 12.483C21.8674 12.3718 21.737 12.2833 21.5929 12.223L21.4001 12.6843ZM21.1413 12.6331C21.23 12.6326 21.318 12.65 21.4001 12.6843L21.5929 12.223C21.4491 12.1629 21.2947 12.1323 21.1387 12.1331L21.1413 12.6331ZM16.8328 12.6331H21.14V12.1331H16.8328V12.6331ZM16.5712 12.6833C16.6535 12.6493 16.7416 12.6322 16.8304 12.6331L16.8352 12.1331C16.6791 12.1316 16.5244 12.1616 16.3803 12.2212L16.5712 12.6833ZM16.3502 12.832C16.4134 12.768 16.4885 12.7175 16.5712 12.6833L16.3803 12.2212C16.2354 12.2811 16.1043 12.3695 15.9944 12.4807L16.3502 12.832ZM16.2032 13.0559C16.2371 12.9721 16.2871 12.896 16.3502 12.832L15.9944 12.4807C15.8846 12.592 15.7982 12.7238 15.7397 12.8683L16.2032 13.0559ZM16.1527 13.319C16.1523 13.2288 16.1694 13.1393 16.2032 13.0559L15.7397 12.8683C15.6814 13.0123 15.6519 13.1664 15.6527 13.3216L16.1527 13.319ZM16.1527 16.7906V13.3203H15.6527V16.7906H16.1527ZM16.2121 16.85C16.1793 16.85 16.1527 16.8234 16.1527 16.7906H15.6527C15.6527 17.0996 15.9032 17.35 16.2121 17.35V16.85ZM16.2715 16.7906C16.2715 16.8234 16.2449 16.85 16.2121 16.85V17.35C16.521 17.35 16.7715 17.0996 16.7715 16.7906H16.2715ZM16.2715 13.3195L16.2715 16.7906L16.7715 16.7906L16.7715 13.3195L16.2715 13.3195ZM16.2715 13.3191L16.2715 13.321L16.7715 13.3179L16.7715 13.3159L16.2715 13.3191ZM16.3133 13.1004C16.2852 13.1697 16.271 13.2441 16.2715 13.3191L16.7715 13.3159C16.7714 13.3061 16.7733 13.2965 16.7768 13.288L16.3133 13.1004ZM16.4347 12.9155C16.3826 12.9682 16.3413 13.0311 16.3133 13.1004L16.7768 13.288C16.7802 13.2794 16.7851 13.2723 16.7905 13.2668L16.4347 12.9155ZM16.6166 12.793C16.5487 12.8211 16.4868 12.8627 16.4347 12.9155L16.7905 13.2668C16.7959 13.2613 16.8018 13.2575 16.8076 13.2551L16.6166 12.793Z" fill="white"/>
</svg>
