<svg width="22" height="17" viewBox="0 0 22 17" fill="none" xmlns="http://www.w3.org/2000/svg">
<path d="M15.1275 10.5401C15.4257 10.3336 15.7883 10.2624 16.1356 10.342C16.4828 10.4216 16.7863 10.6457 16.9792 10.9648C17.1722 11.2839 17.2388 11.672 17.1643 12.0437C17.0908 12.411 16.8016 12.7341 16.509 12.9409L11.9042 16.3454C11.7686 16.4558 11.3153 16.4953 11.1368 16.4953L4.84363 16.5002C4.67326 16.5002 4.53516 16.3524 4.53516 16.17L4.53695 14.2901C4.53345 14.1316 4.55995 13.9739 4.61487 13.8266C4.67036 13.6778 4.7537 13.5427 4.85976 13.4296C4.96582 13.3165 5.09237 13.2279 5.23163 13.169C5.36925 13.1109 5.5164 13.0831 5.66426 13.0874L11.5972 13.0908L14.8206 10.7696C14.8982 10.6896 15.1253 10.5416 15.1275 10.5401Z" fill="#828282"/>
<path d="M14.8194 10.2357C15.1176 10.0292 15.4802 9.95797 15.8274 10.0376C16.1747 10.1173 16.4782 10.3413 16.6711 10.6604C16.864 10.9796 16.9306 11.3676 16.8562 11.7393C16.7827 12.1066 16.4934 12.2702 16.2008 12.477L11.2891 16.191C11.1535 16.3014 10.9067 16.5154 10.8036 16.3703L4.53729 16.4907C4.36693 16.4907 4.22882 16.3428 4.22882 16.1605V13.9857C4.22532 13.8272 4.25182 13.6695 4.30674 13.5223C4.36223 13.3734 4.44557 13.2383 4.55163 13.1252C4.6577 13.0122 4.78424 12.9235 4.9235 12.8646C5.06112 12.8065 5.20827 12.7787 5.35613 12.783L11.2891 12.7865L14.5124 10.4652C14.5901 10.3853 14.8172 10.2373 14.8194 10.2357Z" fill="white"/>
<ellipse cx="8.68035" cy="9.22686" rx="3.22332" ry="3.24975" fill="#828282"/>
<ellipse cx="8.37337" cy="8.607" rx="2.91633" ry="2.94025" fill="white"/>
<path fill-rule="evenodd" clip-rule="evenodd" d="M8.28409 6.06038C6.8232 6.06038 5.63891 7.25438 5.63891 8.72725C5.63891 10.2001 6.8232 11.3941 8.28409 11.3941C9.74499 11.3941 10.9293 10.2001 10.9293 8.72725C10.9293 7.25438 9.74499 6.06038 8.28409 6.06038ZM4.99609 8.72725C4.99609 6.89645 6.46818 5.41229 8.28409 5.41229C10.1 5.41229 11.5721 6.89645 11.5721 8.72725C11.5721 10.5581 10.1 12.0422 8.28409 12.0422C6.46818 12.0422 4.99609 10.5581 4.99609 8.72725ZM14.7876 10.1652C15.0982 9.96256 15.476 9.89262 15.8379 9.97079C16.0874 10.0247 16.3152 10.146 16.4985 10.3188L17.8473 9.32152C17.9905 9.21569 18.1916 9.24689 18.2966 9.39121C18.4015 9.53552 18.3706 9.73831 18.2275 9.84414L16.8545 10.8593C16.9453 11.1073 16.9656 11.3783 16.9098 11.641C16.8331 12.0015 16.6192 12.3171 16.3144 12.5201L11.4477 16.2525C11.3064 16.3609 11.1048 16.3333 10.9973 16.1908C10.8898 16.0484 10.9172 15.8451 11.0585 15.7367L15.9343 11.9973C15.9408 11.9923 15.9474 11.9876 15.9543 11.9831C16.1218 11.8738 16.2394 11.7019 16.2812 11.5052C16.3215 11.3158 16.2883 11.1184 16.1891 10.9532C16.1885 10.9524 16.1879 10.9516 16.1872 10.9507C16.179 10.9394 16.1716 10.9277 16.165 10.9157C16.0562 10.7566 15.8911 10.6451 15.7032 10.6045C15.5093 10.5626 15.3068 10.5996 15.1399 10.7073L11.4345 13.2615C11.3811 13.2983 11.3179 13.318 11.2531 13.318H5.31673L5.30656 13.3179C5.23824 13.3157 5.1702 13.3276 5.10661 13.3529C5.04303 13.3782 4.98525 13.4164 4.93683 13.465C4.8884 13.5136 4.85035 13.5718 4.82501 13.6358C4.79968 13.6998 4.78759 13.7683 4.78949 13.8372L4.78962 13.8462V15.9849C4.78962 16.1639 4.64572 16.309 4.46821 16.309C4.2907 16.309 4.1468 16.1639 4.1468 15.9849V13.8504C4.14316 13.6948 4.17077 13.5401 4.22799 13.3955C4.28581 13.2495 4.37264 13.1169 4.48315 13.0059C4.59366 12.8949 4.72552 12.8078 4.87061 12.7501C5.014 12.693 5.16733 12.6658 5.32139 12.67H11.1537L14.7808 10.1698L14.7876 10.1652ZM12.9464 6.26729C12.7689 6.26729 12.625 6.41237 12.625 6.59133C12.625 6.77029 12.7689 6.91537 12.9464 6.91537H18.0375C18.215 6.91537 18.3589 6.77029 18.3589 6.59133C18.3589 6.41237 18.215 6.26729 18.0375 6.26729H12.9464ZM12.625 8.29932C12.625 8.12035 12.7689 7.97527 12.9464 7.97527H16.7647C16.9422 7.97527 17.0861 8.12035 17.0861 8.29932C17.0861 8.47828 16.9422 8.62336 16.7647 8.62336H12.9464C12.7689 8.62336 12.625 8.47828 12.625 8.29932Z" fill="#333333"/>
<rect x="0.35979" y="0.35979" width="21.2804" height="15.7559" rx="0.839511" stroke="#333333" stroke-width="0.719581"/>
<line y1="2.59163" x2="22" y2="2.59163" stroke="#333333" stroke-width="0.719581"/>
<path d="M20.4588 1.43538C20.4588 1.60418 20.3234 1.73949 20.1583 1.73949C19.9932 1.73949 19.8578 1.60418 19.8578 1.43538C19.8578 1.26659 19.9932 1.13128 20.1583 1.13128C20.3234 1.13128 20.4588 1.26659 20.4588 1.43538Z" stroke="#333333" stroke-width="0.196149"/>
<path d="M18.8651 1.43538C18.8651 1.60418 18.7297 1.73949 18.5646 1.73949C18.3995 1.73949 18.2641 1.60418 18.2641 1.43538C18.2641 1.26659 18.3995 1.13128 18.5646 1.13128C18.7297 1.13128 18.8651 1.26659 18.8651 1.43538Z" stroke="#333333" stroke-width="0.196149"/>
<path d="M17.2694 1.43538C17.2694 1.60418 17.134 1.73949 16.9689 1.73949C16.8038 1.73949 16.6684 1.60418 16.6684 1.43538C16.6684 1.26659 16.8038 1.13128 16.9689 1.13128C17.134 1.13128 17.2694 1.26659 17.2694 1.43538Z" stroke="#333333" stroke-width="0.196149"/>
</svg>
