<svg width="91" height="67" viewBox="0 0 91 67" fill="none" xmlns="http://www.w3.org/2000/svg">
<rect x="1.5" y="1.5" width="87.2797" height="64" rx="3.5" stroke="#4C9E45" stroke-width="3"/>
<line y1="10.5" x2="90.2797" y2="10.5" stroke="#4C9E45" stroke-width="3"/>
<circle cx="82.7195" cy="5.83548" r="1.22665" stroke="#4C9E45" stroke-width="0.817764"/>
<circle cx="76.1785" cy="5.83548" r="1.22665" stroke="#4C9E45" stroke-width="0.817764"/>
<circle cx="69.6355" cy="5.83548" r="1.22665" stroke="#4C9E45" stroke-width="0.817764"/>
<path d="M61.1695 36.5611C61.3051 36.6394 61.3051 36.8351 61.1695 36.9134L38.1738 50.19C38.0382 50.2683 37.8687 50.1705 37.8687 50.0139L37.8687 23.4607C37.8687 23.3041 38.0382 23.2063 38.1738 23.2845L61.1695 36.5611Z" stroke="#92C83E" stroke-width="3"/>
<path d="M60.1695 35.5611C60.3051 35.6394 60.3051 35.8351 60.1695 35.9134L37.1738 49.19C37.0382 49.2683 36.8687 49.1705 36.8687 49.0139L36.8687 22.4607C36.8687 22.3041 37.0382 22.2063 37.1738 22.2845L60.1695 35.5611Z" fill="white" stroke="#4C9E45" stroke-width="3"/>
</svg>
