<svg width="24" height="24" viewBox="0 0 24 24" fill="none" xmlns="http://www.w3.org/2000/svg">
<path d="M11.0762 15.2383C11.0762 14.459 11.1729 13.8379 11.3662 13.375C11.5596 12.9121 11.9404 12.4053 12.5088 11.8545C13.083 11.2979 13.4463 10.9023 13.5986 10.668C13.833 10.3105 13.9502 9.92383 13.9502 9.50781C13.9502 8.95703 13.8125 8.53809 13.5371 8.25098C13.2676 7.95801 12.8691 7.81152 12.3418 7.81152C11.8379 7.81152 11.4307 7.95508 11.1201 8.24219C10.8154 8.52344 10.6631 8.90723 10.6631 9.39355H8.52734C8.53906 8.35645 8.89062 7.53613 9.58203 6.93262C10.2793 6.3291 11.1992 6.02734 12.3418 6.02734C13.5195 6.02734 14.4365 6.32617 15.0928 6.92383C15.7549 7.52148 16.0859 8.35645 16.0859 9.42871C16.0859 10.3838 15.6406 11.3242 14.75 12.25L13.6689 13.3135C13.2822 13.7529 13.083 14.3945 13.0713 15.2383H11.0762ZM10.9268 17.9717C10.9268 17.626 11.0352 17.3477 11.252 17.1367C11.4688 16.9199 11.7617 16.8115 12.1309 16.8115C12.5059 16.8115 12.8018 16.9229 13.0186 17.1455C13.2354 17.3623 13.3438 17.6377 13.3438 17.9717C13.3438 18.2939 13.2383 18.5635 13.0273 18.7803C12.8164 18.9971 12.5176 19.1055 12.1309 19.1055C11.7441 19.1055 11.4453 18.9971 11.2344 18.7803C11.0293 18.5635 10.9268 18.2939 10.9268 17.9717Z" fill="white"/>
<circle cx="12" cy="12" r="11.25" stroke="white" stroke-width="1.5"/>
</svg>
