<svg width="40" height="40" viewBox="0 0 24 24" fill="none" xmlns="http://www.w3.org/2000/svg">
<path fill-rule="evenodd" clip-rule="evenodd" d="M4 21.25H17C17.8284 21.25 18.5 20.5784 18.5 19.75V9.57843C18.5 9.1806 18.342 8.79907 18.0607 8.51777L15.2322 5.68934C14.9509 5.40804 14.5694 5.25 14.1716 5.25H4C3.17157 5.25 2.5 5.92157 2.5 6.75V19.75C2.5 20.5784 3.17157 21.25 4 21.25ZM4 4.75C2.89543 4.75 2 5.64543 2 6.75V19.75C2 20.8546 2.89543 21.75 4 21.75H17C18.1046 21.75 19 20.8546 19 19.75V9.57843C19 9.04799 18.7893 8.53929 18.4142 8.16421L15.5858 5.33579C15.2107 4.96071 14.702 4.75 14.1716 4.75H4Z" fill="#333333"/>
<path fill-rule="evenodd" clip-rule="evenodd" d="M3.75 5.25C3.75 4.2835 4.5335 3.5 5.5 3.5H18.5C19.7426 3.5 20.75 4.50736 20.75 5.75V18.25C20.75 19.2165 19.9665 20 19 20V19.5C19.6904 19.5 20.25 18.9404 20.25 18.25V5.75C20.25 4.7835 19.4665 4 18.5 4H5.5C4.80964 4 4.25 4.55964 4.25 5.25H3.75Z" fill="#333333"/>
<path fill-rule="evenodd" clip-rule="evenodd" d="M5.75 3.75C5.75 2.7835 6.5335 2 7.5 2H20C21.2426 2 22.25 3.00736 22.25 4.25V16.75C22.25 17.7165 21.4665 18.5 20.5 18.5V18C21.1904 18 21.75 17.4404 21.75 16.75V4.25C21.75 3.2835 20.9665 2.5 20 2.5H7.5C6.80964 2.5 6.25 3.05964 6.25 3.75H5.75Z" fill="#333333"/>
<path fill-rule="evenodd" clip-rule="evenodd" d="M4 7.5C4 7.36193 4.11193 7.25 4.25 7.25L12.75 7.25C12.8881 7.25 13 7.36193 13 7.5C13 7.63807 12.8881 7.75 12.75 7.75L4.25 7.75C4.11193 7.75 4 7.63807 4 7.5Z" fill="#333333"/>
<path fill-rule="evenodd" clip-rule="evenodd" d="M4 9.5C4 9.36193 4.11193 9.25 4.25 9.25L12.75 9.25C12.8881 9.25 13 9.36193 13 9.5C13 9.63807 12.8881 9.75 12.75 9.75L4.25 9.75C4.11193 9.75 4 9.63807 4 9.5Z" fill="#333333"/>
<path fill-rule="evenodd" clip-rule="evenodd" d="M4 11.5C4 11.3619 4.11193 11.25 4.25 11.25L16.75 11.25C16.8881 11.25 17 11.3619 17 11.5C17 11.6381 16.8881 11.75 16.75 11.75L4.25 11.75C4.11193 11.75 4 11.6381 4 11.5Z" fill="#333333"/>
<path fill-rule="evenodd" clip-rule="evenodd" d="M4 13.5C4 13.3619 4.11193 13.25 4.25 13.25L16.75 13.25C16.8881 13.25 17 13.3619 17 13.5C17 13.6381 16.8881 13.75 16.75 13.75L4.25 13.75C4.11193 13.75 4 13.6381 4 13.5Z" fill="#333333"/>
<path fill-rule="evenodd" clip-rule="evenodd" d="M4 15.5C4 15.3619 4.11193 15.25 4.25 15.25L16.75 15.25C16.8881 15.25 17 15.3619 17 15.5C17 15.6381 16.8881 15.75 16.75 15.75L4.25 15.75C4.11193 15.75 4 15.6381 4 15.5Z" fill="#333333"/>
<path fill-rule="evenodd" clip-rule="evenodd" d="M4 17.5C4 17.3619 4.11193 17.25 4.25 17.25L16.75 17.25C16.8881 17.25 17 17.3619 17 17.5C17 17.6381 16.8881 17.75 16.75 17.75L4.25 17.75C4.11193 17.75 4 17.6381 4 17.5Z" fill="#333333"/>
<path fill-rule="evenodd" clip-rule="evenodd" d="M4 19.5C4 19.3619 4.11193 19.25 4.25 19.25L16.75 19.25C16.8881 19.25 17 19.3619 17 19.5C17 19.6381 16.8881 19.75 16.75 19.75L4.25 19.75C4.11193 19.75 4 19.6381 4 19.5Z" fill="#333333"/>
<path fill-rule="evenodd" clip-rule="evenodd" d="M14.75 7.75V5.25H15.25V7.75C15.25 8.16421 15.5858 8.5 16 8.5H18.5V9H16C15.3096 9 14.75 8.44036 14.75 7.75Z" fill="#333333"/>
</svg>
