<svg width="40" height="40" viewBox="0 0 24 24" fill="none" xmlns="http://www.w3.org/2000/svg">
<path fill-rule="evenodd" clip-rule="evenodd" d="M4.80005 5.10078C4.80005 4.9351 4.94716 4.80078 5.12862 4.80078H18.2715C18.4529 4.80078 18.6 4.9351 18.6 5.10078C18.6 5.26647 18.4529 5.40078 18.2715 5.40078H5.12862C4.94716 5.40078 4.80005 5.26647 4.80005 5.10078Z" fill="#333333"/>
<path fill-rule="evenodd" clip-rule="evenodd" d="M16.4799 10.1992C16.6567 10.1992 16.7999 10.3527 16.7999 10.5421L16.7999 11.5706C16.7999 12.1387 16.3701 12.5992 15.84 12.5992L8.15995 12.5992C7.62976 12.5992 7.19995 12.1387 7.19995 11.5706L7.19995 10.5421C7.19995 10.3527 7.34322 10.1992 7.51995 10.1992C7.69668 10.1992 7.83995 10.3527 7.83995 10.5421L7.83995 11.5706C7.83995 11.76 7.98322 11.9135 8.15995 11.9135L15.84 11.9135C16.0167 11.9135 16.16 11.76 16.16 11.5706L16.16 10.5421C16.16 10.3527 16.3032 10.1992 16.4799 10.1992Z" fill="#333333"/>
<path fill-rule="evenodd" clip-rule="evenodd" d="M6.6001 3.3C6.6001 3.13431 6.7512 3 6.9376 3L17.0626 3C17.249 3 17.4001 3.13432 17.4001 3.3C17.4001 3.46569 17.249 3.6 17.0626 3.6L6.9376 3.6C6.7512 3.6 6.6001 3.46568 6.6001 3.3Z" fill="#333333"/>
<path fill-rule="evenodd" clip-rule="evenodd" d="M20.28 7.85636H3.12005C2.75554 7.85636 2.46005 8.15057 2.46005 8.5135V19.6849C2.46005 20.0479 2.75554 20.3421 3.12005 20.3421H20.28C20.6446 20.3421 20.94 20.0479 20.94 19.6849V8.5135C20.94 8.15057 20.6446 7.85636 20.28 7.85636ZM3.12005 7.19922C2.39103 7.19922 1.80005 7.78764 1.80005 8.5135V19.6849C1.80005 20.4108 2.39103 20.9992 3.12005 20.9992H20.28C21.0091 20.9992 21.6 20.4108 21.6 19.6849V8.5135C21.6 7.78764 21.0091 7.19922 20.28 7.19922H3.12005Z" fill="#333333"/>
</svg>
