<!-- <svg width="39" height="39" viewBox="0 0 39 39" fill="none" xmlns="http://www.w3.org/2000/svg">
<path fill-rule="evenodd" clip-rule="evenodd" d="M10.805 6.21696C10.9784 6.19857 11.1527 6.18957 11.3274 6.19003L11.3287 6.19003C12.122 6.19023 12.9055 6.36911 13.6238 6.71399C14.1942 6.99659 14.7142 7.37516 15.1623 7.83391L15.2119 7.89107L15.2226 7.903C15.8182 8.55198 16.2636 9.32994 16.5257 10.1792C16.7878 11.0285 16.8599 11.9273 16.7367 12.809C16.7329 12.8362 16.731 12.8637 16.731 12.8912C16.731 12.8908 16.731 12.891 16.731 12.8912C16.7309 12.8937 16.7301 12.9074 16.7262 12.942C16.7254 12.9488 16.7244 12.9576 16.7232 12.9676C16.7195 12.9997 16.7141 13.0452 16.7107 13.0844C16.7059 13.138 16.7006 13.2177 16.7073 13.3031C16.7134 13.3807 16.7333 13.5269 16.8262 13.6697C16.847 13.7017 16.8709 13.7316 16.8976 13.7588L32.0993 29.2814L32.1076 29.2897C32.3008 29.479 32.4545 29.7064 32.5595 29.9581C32.6645 30.2099 32.7187 30.4808 32.7187 30.7546C32.7187 31.0284 32.6645 31.2993 32.5595 31.5511C32.4545 31.8029 32.3008 32.0302 32.1076 32.2195L32.0987 32.2285C31.7262 32.6099 31.3617 32.7601 31.0304 32.7986C30.688 32.8385 30.3389 32.7634 30.0078 32.6249C29.6772 32.4865 29.3877 32.2946 29.1777 32.1327C29.0739 32.0527 28.9924 31.9822 28.9381 31.9331C28.9111 31.9086 28.891 31.8896 28.8785 31.8776L28.8656 31.865L28.8644 31.8638L28.8638 31.8631L14.0718 16.706C13.8543 16.4832 13.5731 16.4701 13.4585 16.4701C13.3275 16.4701 13.1993 16.4922 13.1358 16.5031C13.1345 16.5034 13.1331 16.5036 13.1318 16.5038C12.2749 16.6254 11.4023 16.549 10.578 16.2802C9.75129 16.0106 8.99425 15.5543 8.36273 14.945C8.35768 14.9401 8.35254 14.9353 8.34732 14.9306L8.30332 14.8912C7.86296 14.4289 7.50111 13.8944 7.23278 13.3098L7.23053 13.3049C6.88037 12.5601 6.69814 11.7441 6.69729 10.9174L6.69729 10.9161C6.69678 10.7561 6.70368 10.5962 6.71792 10.4371L9.45824 13.3276C9.58708 13.4924 9.74558 13.6306 9.92529 13.7346C10.1158 13.8448 10.3262 13.9143 10.5437 13.9388C10.7612 13.9633 10.9813 13.9423 11.1907 13.8771C11.4001 13.812 11.5943 13.7039 11.7617 13.5596C11.7738 13.5492 11.7855 13.5382 11.7968 13.5268L13.8216 11.4607C13.8332 11.4489 13.8442 11.4366 13.8547 11.4239C13.995 11.2537 14.1005 11.0563 14.1649 10.8435C14.2293 10.6308 14.2514 10.4069 14.2297 10.1852C14.2081 9.96359 14.1432 9.74864 14.0389 9.55314C13.9399 9.36748 13.8072 9.20295 13.6481 9.06831L10.805 6.21696ZM5.70424 9.56951L5.79373 9.1036C5.83442 8.89177 5.98656 8.72057 6.18867 8.65921C6.39078 8.59784 6.60944 8.65645 6.75629 8.81134L10.2923 12.5411C10.3079 12.5576 10.3225 12.575 10.3361 12.5932C10.3758 12.6465 10.4257 12.691 10.4827 12.7239C10.5397 12.7569 10.6026 12.7777 10.6676 12.785C10.7327 12.7923 10.7985 12.7861 10.8611 12.7666C10.9176 12.749 10.9704 12.721 11.0169 12.684L13.0011 10.6594C13.0374 10.6117 13.0649 10.5576 13.0824 10.4998C13.1019 10.4354 13.1086 10.3678 13.102 10.3007C13.0955 10.2337 13.0759 10.1687 13.0444 10.1096C13.0128 10.0505 12.97 9.99852 12.9185 9.95668C12.903 9.94412 12.8882 9.93074 12.8741 9.9166L9.23992 6.27195C9.09189 6.1235 9.03477 5.90413 9.09096 5.6999C9.14715 5.49566 9.30769 5.33911 9.50962 5.29164L9.9722 5.18291C10.4176 5.07968 10.8729 5.02816 11.3296 5.02932C12.2902 5.02965 13.2388 5.24658 14.1083 5.6647L14.114 5.66742C14.8054 6.00949 15.4352 6.46905 15.9767 7.02654C15.9842 7.03425 15.9915 7.04217 15.9985 7.0503L16.0539 7.11403C16.7632 7.88872 17.2938 8.81664 17.6063 9.82938C17.9163 10.8338 18.0041 11.8962 17.8633 12.9394C17.8611 12.9925 17.8559 13.0412 17.8521 13.0745L17.8501 13.0923L32.8955 28.4554C33.1972 28.7522 33.4374 29.1082 33.6017 29.5021C33.7668 29.898 33.852 30.3241 33.852 30.7546C33.852 31.1851 33.7668 31.6112 33.6017 32.0071C33.4374 32.401 33.1973 32.7569 32.8957 33.0536C32.3513 33.6094 31.7541 33.8826 31.1584 33.9519C30.5722 34.0202 30.0273 33.8868 29.5792 33.6994C29.1307 33.5118 28.7558 33.2602 28.4962 33.0601C28.3652 32.9591 28.2606 32.8689 28.1874 32.8027C28.1508 32.7695 28.1218 32.7421 28.1012 32.7222C28.0909 32.7123 28.0826 32.7042 28.0765 32.6981L28.069 32.6906L28.0664 32.688L28.0655 32.687C28.0653 32.6868 28.0647 32.6862 28.4647 32.2751L28.0647 32.6862L13.3797 17.6387C13.359 17.6418 13.3371 17.6455 13.3109 17.65L13.2962 17.6523C12.2689 17.7995 11.2225 17.7085 10.2341 17.3862C9.2491 17.0649 8.34682 16.522 7.59335 15.7973L7.54058 15.75C7.52987 15.7404 7.51953 15.7304 7.50956 15.72C6.9737 15.1616 6.53375 14.5145 6.20824 13.806C5.78525 12.9053 5.56508 11.9188 5.56396 10.9192M13.4629 17.6309C13.4629 17.6309 13.4624 17.6309 13.4616 17.6308L13.4629 17.6309Z" fill="#333333"/>
<path fill-rule="evenodd" clip-rule="evenodd" d="M31.0928 5.05811C31.3127 4.9384 31.5832 4.97984 31.7594 5.16023L33.6482 7.09476C33.8249 7.27568 33.865 7.55374 33.747 7.77927L31.5483 11.9811C31.4633 12.1436 31.3078 12.2551 31.1296 12.2814L29.1097 12.5789L22.8434 18.9815C22.8309 18.9943 22.8178 19.0064 22.8043 19.0178L22.8136 19.0274L22.4469 19.4031L21.6455 18.5823L21.6525 18.5751L20.1655 17.0277C19.9476 16.8009 19.9486 16.4367 20.1678 16.2112L26.4121 9.78566L26.7027 7.71655C26.7284 7.53327 26.838 7.37357 26.9977 7.28668L31.0928 5.05811ZM27.7835 8.17343L27.5071 10.1413C27.4898 10.265 27.4339 10.3796 27.3479 10.4681L21.3667 16.6229L22.4469 17.7471L28.4425 11.6211C28.529 11.5327 28.6411 11.4753 28.762 11.4575L30.6847 11.1742L32.5493 7.6108L31.2544 6.28456L27.7835 8.17343ZM16.3625 19.452C16.5508 19.4077 16.7481 19.4647 16.8861 19.6032L19.5607 22.2883C19.7033 22.4314 19.7618 22.6407 19.7148 22.8393L18.9593 26.0352C18.9348 26.1388 18.8828 26.2335 18.8092 26.309L11.8733 33.4125C11.831 33.4558 11.7823 33.492 11.7291 33.5197L11.4726 33.0022C11.7291 33.5197 11.7291 33.5197 11.7291 33.5197L11.7268 33.5208L11.7236 33.5225L11.7145 33.5271C11.7071 33.5308 11.6974 33.5356 11.6854 33.5414C11.6613 33.553 11.6279 33.5686 11.5859 33.5871C11.5021 33.624 11.3834 33.6726 11.2362 33.7236C10.943 33.8251 10.5291 33.9386 10.0458 33.9844C9.07282 34.0765 7.79358 33.8931 6.69724 32.7703C5.56921 31.615 5.51278 30.1647 5.69944 29.0878C5.79335 28.546 5.95142 28.0754 6.08472 27.7418C6.15171 27.5741 6.21335 27.4387 6.25913 27.3436C6.28205 27.296 6.30107 27.2583 6.31491 27.2315C6.32183 27.2181 6.32746 27.2075 6.33164 27.1996L6.3368 27.19L6.33853 27.1868L6.33917 27.1857C6.33917 27.1857 6.33967 27.1848 6.83349 27.4694L6.33967 27.1848C6.36498 27.1387 6.39631 27.0964 6.4328 27.059L12.9985 20.3346C13.0738 20.2576 13.1686 20.2038 13.2723 20.1794L16.3625 19.452ZM7.29468 27.8178C7.28895 27.8294 7.28258 27.8424 7.27563 27.8568C7.23995 27.9309 7.18944 28.0416 7.13365 28.1813C7.0214 28.4623 6.89141 28.8516 6.81532 29.2906C6.66199 30.1753 6.73778 31.1703 7.49862 31.9495C8.29116 32.7612 9.19924 32.8989 9.94138 32.8286C10.3157 32.7931 10.6412 32.7044 10.8731 32.6241C10.9885 32.5841 11.0788 32.5469 11.1382 32.5207C11.14 32.52 11.1435 32.5184 11.1435 32.5184L17.8952 25.6035L18.5376 22.8865L16.3142 20.6544L13.6848 21.2733L7.29468 27.8178Z" fill="#333333"/>
<path fill-rule="evenodd" clip-rule="evenodd" d="M14.1099 23.2364C14.3312 23.463 14.3312 23.8305 14.1099 24.0571L9.07038 29.2184C8.84909 29.4451 8.49029 29.4451 8.269 29.2184C8.0477 28.9918 8.0477 28.6243 8.269 28.3977L13.3085 23.2364C13.5298 23.0097 13.8886 23.0097 14.1099 23.2364Z" fill="#333333"/>
<path fill-rule="evenodd" clip-rule="evenodd" d="M16.0061 25.1719C16.2274 25.3986 16.2274 25.766 16.0061 25.9927L10.9591 31.1617C10.7378 31.3884 10.379 31.3884 10.1577 31.1617C9.93638 30.9351 9.93638 30.5676 10.1577 30.341L15.2047 25.1719C15.426 24.9453 15.7848 24.9453 16.0061 25.1719Z" fill="#333333"/>
</svg> -->

<svg width="40" height="40" viewBox="0 0 24 24" fill="none" xmlns="http://www.w3.org/2000/svg">
<path d="M9.62626 21.8175H9.56626C9.48712 21.807 9.41522 21.766 9.3659 21.7032C9.31658 21.6404 9.29374 21.5608 9.30226 21.4815L9.50626 19.7955C9.55236 19.5499 9.58044 19.3012 9.59026 19.0515C9.1224 19.1601 8.66473 19.3086 8.22226 19.4955H8.14426C7.22626 19.8315 6.53026 19.7955 6.02626 19.4475C5.52226 19.0995 5.25826 18.2115 5.36626 16.9575C5.42626 16.3215 5.36626 15.9375 5.27026 15.8175C5.17426 15.6975 4.82626 15.7335 4.40626 15.7755C4.18129 15.8183 3.94875 15.7959 3.73612 15.7108C3.52348 15.6258 3.33962 15.4816 3.20626 15.2955C3.06542 15.0615 2.99402 14.7923 3.00039 14.5192C3.00677 14.2462 3.09065 13.9806 3.24226 13.7535C3.77626 12.6975 5.40226 9.27747 5.64226 8.19747C5.93626 6.92547 6.32626 6.09147 8.00026 4.24947C9.67426 2.40747 13.8263 1.79547 17.0543 3.08547C20.2823 4.37547 20.8883 8.04147 20.9843 11.1015C21.1043 14.7915 18.0383 17.4255 17.3843 17.9295L17.1683 20.3295L18.6623 20.1555C18.7017 20.1511 18.7415 20.1546 18.7796 20.1657C18.8176 20.1768 18.8531 20.1952 18.8841 20.22C18.915 20.2448 18.9407 20.2754 18.9598 20.3102C18.9789 20.3449 18.9909 20.3831 18.9953 20.4225C18.9996 20.4619 18.9961 20.5017 18.9851 20.5398C18.974 20.5778 18.9555 20.6133 18.9307 20.6443C18.9059 20.6752 18.8753 20.7009 18.8406 20.72C18.8058 20.7391 18.7677 20.7511 18.7283 20.7555L16.8683 20.9655C16.8244 20.9717 16.7798 20.9674 16.738 20.9528C16.6962 20.9381 16.6586 20.9137 16.6283 20.8815C16.595 20.8517 16.5694 20.8144 16.5537 20.7726C16.538 20.7308 16.5327 20.6858 16.5383 20.6415L16.7963 17.7615C16.8079 17.677 16.8507 17.6 16.9163 17.5455C16.9523 17.5455 20.4803 14.8455 20.3663 11.1375C20.2523 6.85347 19.1543 4.54947 16.8263 3.64347C13.8263 2.48547 10.0103 2.94147 8.46826 4.65147C6.81226 6.47547 6.51226 7.19547 6.25426 8.33547C5.96626 9.59547 4.14226 13.3395 3.79426 14.0235C3.70215 14.1586 3.64656 14.3152 3.63289 14.4782C3.61922 14.6412 3.64794 14.8049 3.71626 14.9535C3.79163 15.0437 3.88991 15.1119 4.00078 15.151C4.11164 15.19 4.23099 15.1985 4.34626 15.1755C4.88026 15.1215 5.38426 15.0735 5.70826 15.3915C6.03226 15.7095 6.06226 16.1175 5.98426 17.0115C5.89426 18.0135 6.04426 18.6915 6.41026 18.9675C6.77626 19.2435 7.22626 19.1955 7.94026 18.9375L8.01226 18.9075C9.26026 18.4455 9.68626 18.3075 9.99226 18.5415C10.2983 18.7755 10.2083 19.1415 10.1003 19.8675V20.0535L9.93226 21.5535C9.92205 21.6271 9.88536 21.6946 9.82904 21.7432C9.77272 21.7918 9.70064 21.8182 9.62626 21.8175Z" fill="#333333"/>
<path d="M7.94002 22.0566C7.86881 22.0573 7.79975 22.0322 7.74568 21.9858C7.6916 21.9395 7.65619 21.8751 7.64602 21.8046C7.64006 21.7656 7.64185 21.7258 7.6513 21.6875C7.66074 21.6491 7.67765 21.6131 7.70106 21.5813C7.72447 21.5495 7.75392 21.5227 7.78772 21.5023C7.82151 21.482 7.859 21.4685 7.89802 21.4626L11.216 20.9946C11.2551 20.9878 11.2952 20.989 11.3339 20.9981C11.3725 21.0072 11.4089 21.024 11.4408 21.0475C11.4728 21.0711 11.4997 21.1009 11.5198 21.1351C11.5399 21.1693 11.5529 21.2072 11.558 21.2466C11.5685 21.3251 11.548 21.4047 11.501 21.4684C11.454 21.5322 11.3841 21.5753 11.306 21.5886L7.98802 22.0746L7.94002 22.0566Z" fill="#333333"/>
<path d="M13.0044 12.2653C12.4944 12.268 11.9992 12.0945 11.6023 11.7742C11.2055 11.4539 10.9314 11.0064 10.8264 10.5073C10.8185 10.4687 10.8183 10.4289 10.8258 10.3902C10.8333 10.3516 10.8483 10.3147 10.87 10.2819C10.8918 10.249 10.9198 10.2207 10.9524 10.1987C10.9851 10.1766 11.0218 10.1612 11.0604 10.1533C11.099 10.1446 11.1391 10.1438 11.1781 10.1509C11.2171 10.158 11.2542 10.173 11.2873 10.1948C11.3203 10.2167 11.3487 10.245 11.3705 10.2781C11.3923 10.3112 11.4073 10.3483 11.4144 10.3873C11.4756 10.6839 11.6197 10.957 11.8298 11.1751C12.04 11.3931 12.3077 11.5471 12.6018 11.6192C12.8959 11.6914 13.2044 11.6786 13.4916 11.5825C13.7788 11.4864 14.0329 11.3109 14.2244 11.0763C14.4158 10.8417 14.5369 10.5576 14.5735 10.257C14.6101 9.95639 14.5608 9.65155 14.4312 9.37784C14.3016 9.10413 14.0971 8.87276 13.8414 8.71054C13.5857 8.54833 13.2892 8.46192 12.9864 8.46133C12.6673 8.46046 12.3555 8.55672 12.0924 8.73733C12.0253 8.78107 11.9438 8.79677 11.8652 8.78106C11.7867 8.76536 11.7175 8.7195 11.6724 8.65333C11.629 8.58719 11.6134 8.50657 11.6292 8.42904C11.6449 8.3515 11.6906 8.28331 11.7564 8.23933C12.1103 7.9977 12.5279 7.86618 12.9564 7.86133C13.5404 7.86133 14.1005 8.09332 14.5134 8.50628C14.9264 8.91923 15.1584 9.47932 15.1584 10.0633C15.1584 10.6473 14.9264 11.2074 14.5134 11.6204C14.1005 12.0333 13.5404 12.2653 12.9564 12.2653H13.0044Z" fill="#333333"/>
<path d="M13.8262 16.3221H12.1942C12.1224 16.3214 12.0533 16.2949 11.9993 16.2476C11.9454 16.2003 11.9102 16.1351 11.9002 16.0641L11.7322 14.7981C11.3319 14.6912 10.9468 14.5339 10.5862 14.3301L9.53016 15.0921C9.47281 15.1329 9.40291 15.1523 9.33271 15.1468C9.26251 15.1414 9.19647 15.1114 9.14616 15.0621L8.00616 13.9221C7.95683 13.8679 7.92949 13.7973 7.92949 13.7241C7.92949 13.6508 7.95683 13.5802 8.00616 13.5261L8.78016 12.5121C8.56383 12.1363 8.4003 11.7325 8.29416 11.3121L7.02816 11.1501C6.95551 11.14 6.88888 11.1042 6.84043 11.0491C6.79197 10.9941 6.7649 10.9234 6.76416 10.8501V9.26009C6.7649 9.18674 6.79197 9.1161 6.84043 9.06104C6.88888 9.00598 6.95551 8.97015 7.02816 8.96009L8.29416 8.79209C8.40212 8.39409 8.55934 8.01114 8.76216 7.65209L7.97616 6.59609C7.93369 6.53824 7.91336 6.46708 7.91886 6.39552C7.92436 6.32397 7.95534 6.25676 8.00616 6.20609L9.14616 5.06609C9.20091 5.01799 9.27129 4.99147 9.34416 4.99147C9.41703 4.99147 9.48741 5.01799 9.54216 5.06609L10.5502 5.84609C10.9257 5.62788 11.3295 5.46233 11.7502 5.35409L11.9182 4.08809C11.927 4.01651 11.9618 3.95067 12.016 3.9031C12.0702 3.85553 12.14 3.82954 12.2122 3.83009H13.8262C13.8983 3.82954 13.9681 3.85553 14.0223 3.9031C14.0765 3.95067 14.1113 4.01651 14.1202 4.08809L14.2882 5.35409C14.7088 5.46233 15.1126 5.62788 15.4882 5.84609L16.4962 5.06609C16.5509 5.01799 16.6213 4.99147 16.6942 4.99147C16.767 4.99147 16.8374 5.01799 16.8922 5.06609L18.0262 6.20609C18.0738 6.25986 18.1001 6.32923 18.1001 6.40109C18.1001 6.47294 18.0738 6.54231 18.0262 6.59609L17.2462 7.61609C17.463 7.99164 17.6265 8.3955 17.7322 8.81609L18.9982 8.98409C19.0708 8.99415 19.1374 9.02998 19.1859 9.08504C19.2344 9.1401 19.2614 9.21074 19.2622 9.28409V10.8921C19.2614 10.9654 19.2344 11.0361 19.1859 11.0911C19.1374 11.1462 19.0708 11.182 18.9982 11.1921L17.7322 11.3541C17.6279 11.7552 17.4705 12.1406 17.2642 12.5001L18.0262 13.5321C18.0699 13.5895 18.091 13.6609 18.0854 13.7328C18.0799 13.8047 18.0481 13.8721 17.9962 13.9221L16.8562 15.0621C16.8009 15.109 16.7307 15.1348 16.6582 15.1348C16.5856 15.1348 16.5155 15.109 16.4602 15.0621L15.4522 14.2821C15.0753 14.4978 14.6719 14.6632 14.2522 14.7741L14.0842 16.0401C14.0806 16.1098 14.053 16.176 14.0059 16.2275C13.9588 16.279 13.8952 16.3124 13.8262 16.3221ZM12.4762 15.7221H13.5622L13.7182 14.5221C13.7278 14.461 13.7551 14.404 13.7967 14.3582C13.8383 14.3124 13.8923 14.2797 13.9522 14.2641C14.4393 14.1569 14.9042 13.9661 15.3262 13.7001C15.377 13.6639 15.4378 13.6445 15.5002 13.6445C15.5625 13.6445 15.6234 13.6639 15.6742 13.7001L16.6402 14.4441L17.4082 13.6701L16.6822 12.6621C16.6486 12.6125 16.6307 12.554 16.6307 12.4941C16.6307 12.4342 16.6486 12.3757 16.6822 12.3261C16.9412 11.9155 17.126 11.4626 17.2282 10.9881C17.2434 10.9426 17.2693 10.9014 17.3038 10.868C17.3382 10.8346 17.3802 10.8099 17.4262 10.7961L18.6262 10.6341V9.55409L17.4262 9.39209C17.3655 9.38282 17.3091 9.35556 17.2642 9.31383C17.2192 9.27211 17.1879 9.21785 17.1742 9.15809C17.0653 8.6705 16.8724 8.20557 16.6042 7.78409C16.5693 7.73387 16.5507 7.67421 16.5507 7.61309C16.5507 7.55197 16.5693 7.4923 16.6042 7.44209L17.3422 6.47609L16.6222 5.67809L15.6562 6.42209C15.6054 6.45826 15.5445 6.4777 15.4822 6.4777C15.4198 6.4777 15.359 6.45826 15.3082 6.42209C14.8894 6.14221 14.4241 5.93904 13.9342 5.82209C13.874 5.80914 13.8193 5.77802 13.7775 5.73294C13.7356 5.68787 13.7086 5.63101 13.7002 5.57009L13.5442 4.37009H12.4582L12.3022 5.57009C12.2945 5.63134 12.2678 5.68864 12.2258 5.73387C12.1838 5.7791 12.1287 5.80996 12.0682 5.82209C11.5786 5.94024 11.1136 6.14331 10.6942 6.42209C10.6446 6.45863 10.5847 6.47835 10.5232 6.47835C10.4616 6.47835 10.4017 6.45863 10.3522 6.42209L9.38616 5.67809L8.61216 6.45209L9.33816 7.46009C9.37198 7.50846 9.39011 7.56606 9.39011 7.62509C9.39011 7.68411 9.37198 7.74171 9.33816 7.79009C9.08263 8.20242 8.89807 8.6547 8.79216 9.12809C8.77921 9.18822 8.74809 9.24292 8.70302 9.28478C8.65794 9.32663 8.60109 9.35362 8.54016 9.36209L7.34016 9.52409V10.6041L8.54016 10.7661C8.6006 10.7733 8.6573 10.7991 8.70244 10.84C8.74758 10.8808 8.77893 10.9347 8.79216 10.9941C8.8998 11.4839 9.09274 11.9511 9.36216 12.3741C9.397 12.4243 9.41567 12.484 9.41567 12.5451C9.41567 12.6062 9.397 12.6659 9.36216 12.7161L8.61816 13.6821L9.38616 14.4561L10.3942 13.7241C10.4443 13.692 10.5026 13.675 10.5622 13.675C10.6217 13.675 10.68 13.692 10.7302 13.7241C11.1413 13.982 11.594 14.1668 12.0682 14.2701C12.1288 14.2842 12.1836 14.3164 12.2255 14.3625C12.2673 14.4086 12.294 14.4664 12.3022 14.5281L12.4762 15.7221Z" fill="#333333"/>
</svg>
