<svg width="1440" height="1024" fill="none" xmlns="http://www.w3.org/2000/svg"><path fill="#fff" d="M0 0h1440v1024H0z"/><mask id="a" style="mask-type:alpha" maskUnits="userSpaceOnUse" x="-537" y="-393" width="1186" height="1795"><ellipse cx="56.221" cy="504.302" rx="894.144" ry="588.201" transform="rotate(90.283 56.221 504.302)" fill="#C4C4C4"/></mask><g mask="url(#a)"><path fill="#4C9E45" d="M1026 1378H-420V-9h1446z"/><path d="M681.765 56.383 584.162 9.228c-8.803-4.253-19.458-.502-23.798 8.377l-20.717 42.389c-4.34 8.88-.722 19.526 8.081 23.779l97.603 47.154c8.803 4.254 19.458.503 23.798-8.376l20.717-42.39c4.34-8.879.722-19.525-8.081-23.778Z" stroke="#fff" stroke-width="2.32" stroke-miterlimit="10"/><path d="m675.269 63.435-66.765-32.23c-6.502-3.139-14.371-.372-17.576 6.18l-16.886 34.518c-3.205 6.552-.532 14.408 5.97 17.547l66.764 32.231c6.502 3.139 14.371.371 17.577-6.181l16.885-34.517c3.205-6.552.533-14.409-5.969-17.548Z" stroke="#fff" stroke-width="1.55" stroke-miterlimit="10"/><path d="m593.182 51.053 7.925 3.848 12.674-10.174.664 16.65 7.924 3.848-.792 10.12 8.295-6.476 18.359 8.914 12.531-10.947-.441 16.818 9.173 4.454" stroke="#fff" stroke-width="1.32" stroke-linecap="round" stroke-linejoin="round"/><path d="m577.094 20.489-1.135-.544c-2.723-1.303-6.02-.15-7.363 2.577l-19.761 40.116c-1.343 2.727-.224 5.995 2.499 7.299l1.135.543c2.723 1.304 6.019.15 7.363-2.576l19.761-40.117c1.343-2.727.224-5.994-2.499-7.298Z" stroke="#fff" stroke-width="2.07" stroke-miterlimit="10"/><path d="m580.51 72.788 4.081 1.983s4.426-3.979 6.036-3.725c1.61.255 4.194 3.466 4.194 3.466a11.665 11.665 0 0 1 2.525 6.512l4.894 2.38" stroke="#fff" stroke-width=".81" stroke-linecap="round" stroke-linejoin="round"/><path d="m598.383 81.586 4.081 1.984s4.44-3.973 6.092-3.698c1.652.274 4.194 3.465 4.194 3.465a10.306 10.306 0 0 1 2.062 6.288l5.413 2.631" stroke="#fff" stroke-width=".81" stroke-linecap="round" stroke-linejoin="round"/><path d="m617.081 90.786 4.067 1.977s4.441-3.972 6.107-3.691c1.666.281 4.193 3.465 4.193 3.465a11.76 11.76 0 0 1 2.525 6.513l4.894 2.379" stroke="#fff" stroke-width=".81" stroke-linecap="round" stroke-linejoin="round"/><path d="m634.955 99.586 4.067 1.977s4.455-3.965 6.107-3.69c1.651.274 4.193 3.465 4.193 3.465 1.71 1.941 1.553 3.944 1.689 5.878l5.82 2.829" stroke="#fff" stroke-width=".81" stroke-linecap="round" stroke-linejoin="round"/><path d="M84.981 40.617 38 17.999c-4.464-2.149-9.867-.255-12.067 4.23l-23.159 47.2c-2.2 4.485-.365 9.862 4.099 12.012l46.981 22.617c4.464 2.149 9.867.256 12.067-4.229l23.159-47.2c2.2-4.485.365-9.863-4.099-12.012ZM143.561 19.198 128.787 12.1c-1.844-.887-4.076-.106-4.985 1.744l-12.269 24.96c-.909 1.85-.151 4.067 1.693 4.953L128 50.856c1.844.886 4.076.105 4.985-1.745l12.269-24.96c.909-1.85.151-4.067-1.693-4.953Z" stroke="#fff" stroke-width="2.32" stroke-miterlimit="10"/><path d="m164.965 57.657-14.774-7.098c-1.844-.886-4.076-.105-4.985 1.744l-12.27 24.96c-.909 1.85-.151 4.068 1.693 4.954l14.774 7.098c1.844.886 4.076.105 4.985-1.744l12.27-24.96c.909-1.85.151-4.067-1.693-4.954Z" stroke="#fff" stroke-width="2.51" stroke-miterlimit="10"/><path d="M120.675 47.1s-5.741 25.398-17.611 35.866c-11.87 10.467-34.262 11.38-34.262 11.38l-2.995 6.1s28.36 18.867 49.753 11.935c21.392-6.932 26.546-27.039 26.546-27.039" stroke="#fff" stroke-width="2.32" stroke-miterlimit="10"/><path d="M74.592 47.365 39.076 30.23c-2.852-1.375-6.304-.163-7.71 2.71l-10.86 22.184c-1.406 2.872-.233 6.315 2.619 7.691L58.64 79.95c2.852 1.376 6.303.163 7.71-2.71l10.86-22.184c1.406-2.872.233-6.315-2.619-7.691ZM54.284 94.22c1.658.8 3.665.096 4.483-1.57.817-1.667.136-3.665-1.523-4.463-1.658-.799-3.666-.095-4.483 1.571-.818 1.666-.136 3.664 1.523 4.463ZM34.408 84.438c1.658.799 3.666.095 4.483-1.571.818-1.666.136-3.664-1.523-4.463-1.658-.798-3.666-.095-4.483 1.572-.818 1.666-.136 3.664 1.523 4.462ZM14.603 74.69c1.659.799 3.666.095 4.483-1.571.818-1.666.136-3.664-1.522-4.463-1.659-.798-3.666-.095-4.484 1.571-.817 1.667-.136 3.665 1.523 4.463Z" stroke="#fff" stroke-width="1.25" stroke-miterlimit="10"/><path d="m-18.197-34.48 5.893-12.146a6.386 6.386 0 0 1 3.6-3.233 6.182 6.182 0 0 1 4.776.258L93.02-4.797a6.192 6.192 0 0 1 3.156 3.599 6.395 6.395 0 0 1-.313 4.83l-7.443 15.34a6.386 6.386 0 0 1-3.6 3.234 6.182 6.182 0 0 1-4.776-.258l-95.46-48.011a6.194 6.194 0 0 1-3.113-3.609 6.397 6.397 0 0 1 .333-4.808Z" stroke="#fff" stroke-width="2.32" stroke-miterlimit="10"/><path d="m20.336 107.787-62.05-29.95c-5.48-2.644-12.11-.313-14.811 5.208L-73.3 117.329c-2.701 5.52-.449 12.139 5.03 14.783l62.05 29.95c5.48 2.644 12.11.313 14.812-5.207l16.774-34.284c2.701-5.52.45-12.139-5.03-14.784Z" stroke="#fff" stroke-width="2.32" stroke-linecap="round" stroke-linejoin="round"/><path d="M-54.916 132.222c4.835-8.76 11.887-12.704 21.652-10.686 0 0 2.005-26.442 17.75-18.859 15.745 7.582-4.91 25.112-4.91 25.112 12.136 7.797 9.52 20.276 7.053 24.527" stroke="#fff" stroke-width="1.32" stroke-linecap="round" stroke-linejoin="round"/><path d="m-43.594-25.235-4.25-2.065-3.403 5.655-70.05-34.044-2.705 5.572-5.588-2.663-4.952 10.203 5.588 2.663-2.553 5.259L-61.33-.55l-1.92 6.025 3.843 1.867 5.354-11.03 40.369 19.707-.57 3.21 3.758 1.827L-2.59 4.767l-4.165-2.024-1.965 2.69-40.228-19.638 5.354-11.03Z" stroke="#fff" stroke-width="2.32" stroke-linecap="round" stroke-linejoin="round"/><path d="m575.489 888.841-46.981-22.618c-4.464-2.149-9.867-.255-12.067 4.23l-23.159 47.2c-2.2 4.485-.365 9.863 4.099 12.012l46.981 22.617c4.464 2.149 9.867.256 12.067-4.229l23.159-47.2c2.2-4.485.365-9.863-4.099-12.012ZM634.055 867.418l-14.773-7.098c-1.845-.886-4.077-.105-4.986 1.744l-12.269 24.96c-.909 1.85-.151 4.067 1.693 4.954l14.774 7.098c1.844.886 4.076.105 4.985-1.744l12.27-24.961c.909-1.849.151-4.067-1.694-4.953ZM655.458 905.88l-14.774-7.099c-1.844-.886-4.076-.105-4.985 1.745l-12.27 24.96c-.909 1.85-.151 4.067 1.693 4.953l14.774 7.099c1.844.886 4.076.105 4.986-1.745l12.269-24.96c.909-1.849.151-4.067-1.693-4.953Z" stroke="#fff" stroke-width="2.32" stroke-miterlimit="10"/><path d="M611.195 895.329s-5.726 25.404-17.61 35.864c-11.884 10.461-34.262 11.381-34.262 11.381l-2.988 6.086s28.374 18.874 49.759 11.956c21.386-6.918 26.533-27.046 26.533-27.046" stroke="#fff" stroke-width="2.32" stroke-miterlimit="10"/><path d="m565.085 895.588-35.516-17.135c-2.852-1.375-6.303-.163-7.709 2.709l-10.861 22.185c-1.406 2.872-.233 6.315 2.619 7.691l35.516 17.134c2.852 1.376 6.304.164 7.709-2.708l10.861-22.185c1.406-2.872.233-6.315-2.619-7.691ZM544.798 942.434c1.659.799 3.666.095 4.484-1.571.817-1.666.135-3.664-1.523-4.462-1.659-.799-3.666-.095-4.483 1.571-.818 1.666-.136 3.664 1.522 4.462ZM524.923 932.652c1.659.798 3.666.095 4.484-1.572.817-1.666.135-3.664-1.523-4.462-1.659-.799-3.666-.095-4.483 1.571-.818 1.666-.136 3.664 1.522 4.463ZM505.103 922.895c1.659.798 3.666.095 4.483-1.571.818-1.667.136-3.665-1.522-4.463-1.659-.798-3.666-.095-4.484 1.571-.817 1.666-.135 3.664 1.523 4.463Z" stroke="#fff" stroke-width="1.25" stroke-miterlimit="10"/><path d="m607.15 1010.37 5.893-12.151a6.385 6.385 0 0 1 3.602-3.175 6.178 6.178 0 0 1 4.74.271l97.016 44.805a6.191 6.191 0 0 1 3.157 3.6c.533 1.58.42 3.32-.314 4.83l-7.442 15.34a6.396 6.396 0 0 1-3.6 3.23 6.144 6.144 0 0 1-4.777-.26l-95.46-48.01a6.044 6.044 0 0 1-1.946-1.49 6.206 6.206 0 0 1-1.22-2.14 6.33 6.33 0 0 1-.305-2.46 6.4 6.4 0 0 1 .656-2.39Z" stroke="#fff" stroke-width="2.32" stroke-miterlimit="10"/><path d="M652.788 1028.48c1.726.85 3.815.1 4.665-1.65.85-1.76.139-3.87-1.587-4.71l-29.008-14.13c-1.727-.84-3.816-.1-4.666 1.66-.85 1.75-.139 3.86 1.588 4.7l29.008 14.13Z" stroke="#fff" stroke-width="1.34" stroke-miterlimit="10"/><path d="m594.478 1000.1 3.251-6.628a4.353 4.353 0 0 1 2.459-2.187 4.283 4.283 0 0 1 3.267.168l9.612 4.627c.745.568-.612 1.849-1.656 3.98l-3.251 6.62c-1.045 2.13-1.23 3.99-2.134 3.75l-9.613-4.63a4.207 4.207 0 0 1-2.152-2.44 4.27 4.27 0 0 1 .217-3.26Z" stroke="#fff" stroke-width="3.19" stroke-miterlimit="10"/><path d="m634.557 598.385-97.603-47.155c-8.803-4.253-19.458-.503-23.798 8.377l-20.717 42.388c-4.34 8.88-.722 19.526 8.081 23.779l97.603 47.155c8.803 4.253 19.458.503 23.798-8.377l20.717-42.389c4.34-8.879.722-19.525-8.081-23.778Z" stroke="#fff" stroke-width="2.7" stroke-miterlimit="10"/><path d="m628.067 605.424-66.765-32.231c-6.502-3.139-14.371-.372-17.576 6.181l-16.886 34.517c-3.205 6.552-.533 14.409 5.969 17.547l66.765 32.231c6.502 3.139 14.371.372 17.577-6.181l16.885-34.517c3.205-6.552.533-14.408-5.969-17.547Z" stroke="#fff" stroke-width="1.55" stroke-miterlimit="10"/><path d="m545.981 593.039 7.924 3.848 12.675-10.174.663 16.65 7.925 3.848-.792 10.12 8.295-6.476 18.359 8.914 12.53-10.947-.44 16.818 9.172 4.454" stroke="#fff" stroke-width="1.32" stroke-linecap="round" stroke-linejoin="round"/><path d="m529.892 562.472-1.135-.543c-2.723-1.304-6.02-.151-7.363 2.576l-19.761 40.117c-1.343 2.727-.224 5.994 2.499 7.298l1.135.544c2.723 1.303 6.019.15 7.363-2.577l19.76-40.116c1.344-2.727.225-5.995-2.498-7.299Z" stroke="#fff" stroke-width="2.07" stroke-miterlimit="10"/><path d="m533.322 614.78 4.067 1.977s4.441-3.972 6.093-3.698c1.652.275 4.194 3.466 4.194 3.466a11.67 11.67 0 0 1 2.524 6.512l4.895 2.379" stroke="#fff" stroke-width=".81" stroke-linecap="round" stroke-linejoin="round"/><path d="m551.196 623.575 4.066 1.977s4.441-3.972 6.093-3.697c1.652.274 4.194 3.465 4.194 3.465a10.311 10.311 0 0 1 2.132 6.322l5.357 2.604" stroke="#fff" stroke-width=".81" stroke-linecap="round" stroke-linejoin="round"/><path d="m569.95 632.809 4.081 1.984s4.441-3.972 6.093-3.698c1.652.275 4.194 3.466 4.194 3.466a11.67 11.67 0 0 1 2.524 6.512l4.895 2.379" stroke="#fff" stroke-width=".81" stroke-linecap="round" stroke-linejoin="round"/><path d="m587.753 641.569 4.081 1.984s4.44-3.972 6.092-3.698c1.652.275 4.194 3.466 4.194 3.466 1.71 1.941 1.553 3.944 1.689 5.877l5.82 2.83" stroke="#fff" stroke-width=".81" stroke-linecap="round" stroke-linejoin="round"/><path d="m518.131 193.791-62.05-29.949c-5.479-2.644-12.11-.313-14.811 5.207l-16.775 34.284c-2.701 5.52-.449 12.139 5.03 14.784l62.05 29.949c5.479 2.645 12.111.313 14.812-5.207l16.774-34.284c2.701-5.52.449-12.139-5.03-14.784Z" stroke="#fff" stroke-width="2.64" stroke-linecap="round" stroke-linejoin="round"/><path d="M442.876 218.226c4.835-8.76 11.887-12.704 21.652-10.686 0 0 2.005-26.441 17.75-18.859 15.745 7.583-4.875 25.042-4.875 25.042a18.31 18.31 0 0 1 8.436 10.803 18.646 18.646 0 0 1-1.383 13.725" stroke="#fff" stroke-width="1.32" stroke-linecap="round" stroke-linejoin="round"/><path d="m569.284 262.521-62.051-29.949c-5.479-2.645-12.11-.313-14.811 5.207l-16.775 34.284c-2.701 5.52-.449 12.139 5.03 14.784l62.051 29.949c5.479 2.645 12.11.313 14.811-5.207l16.775-34.284c2.701-5.52.449-12.139-5.03-14.784Z" stroke="#fff" stroke-width="2.32" stroke-linecap="round" stroke-linejoin="round"/><path d="M494.023 286.971c4.855-8.768 11.893-12.719 21.652-10.687 0 0 2.012-26.455 17.77-18.866 15.759 7.589-4.895 25.049-4.895 25.049 12.135 7.797 9.519 20.276 7.052 24.528" stroke="#fff" stroke-width="1.32" stroke-linecap="round" stroke-linejoin="round"/><path d="m695.776-11.507-15.813 32.451-3.844-1.862 1.919-6.001-70.199-34.004 2.553-5.238-5.59-2.655 4.953-10.164 5.597 2.641 2.697-5.536 70.073 33.942 3.404-5.633 4.25 2.06Z" stroke="#fff" stroke-width="1.7" stroke-linecap="round" stroke-linejoin="round"/><path d="m695.735-11.385-4.25-2.065-3.403 5.655-70.05-34.044-2.698 5.558-5.595-2.65-4.952 10.204 5.588 2.664-2.552 5.258 70.176 34.106-1.919 6.024 3.843 1.867 5.353-11.03 40.369 19.707-.57 3.21 3.758 1.827 7.906-16.289-4.165-2.024-1.965 2.691L690.381-.355l5.354-11.03Z" stroke="#fff" stroke-width="2.83" stroke-linecap="round" stroke-linejoin="round"/><path d="m17.84 201.532-4.544 9.367a4.888 4.888 0 0 1-2.71 2.459 4.732 4.732 0 0 1-3.614-.142l-74.918-34.661a4.736 4.736 0 0 1-2.412-2.745 4.893 4.893 0 0 1 .23-3.689l5.748-11.848a4.868 4.868 0 0 1 2.754-2.41 4.716 4.716 0 0 1 3.612.219l73.743 37.085a4.74 4.74 0 0 1 2.338 2.734 4.892 4.892 0 0 1-.227 3.631Z" stroke="#fff" stroke-width="2.32" stroke-miterlimit="10"/><path d="M-17.397 187.545c-1.332-.649-2.944-.075-3.6 1.283-.658 1.358-.11 2.985 1.221 3.634l22.419 10.924c1.331.649 2.944.074 3.6-1.284.658-1.358.11-2.985-1.221-3.634l-22.419-10.923Z" stroke="#fff" stroke-width="1.04" stroke-miterlimit="10"/><path d="m27.682 209.475-2.518 5.131a3.354 3.354 0 0 1-1.9 1.686 3.3 3.3 0 0 1-2.52-.137l-7.424-3.573c-.583-.438.475-1.427 1.277-3.062l2.518-5.131c.803-1.635.92-3.042 1.642-2.886l7.424 3.573a3.248 3.248 0 0 1 1.666 1.879 3.3 3.3 0 0 1-.165 2.52Z" stroke="#fff" stroke-width="2.46" stroke-miterlimit="10"/><path d="m622.935 268.002-17.787-8.541-6.84 2.73-4.209-2.021-1.745-6.852-18.013-8.649a8.528 8.528 0 0 1-4.367-4.922 8.647 8.647 0 0 1 .427-6.599l40.152-81.639a8.808 8.808 0 0 1 4.988-4.409 8.684 8.684 0 0 1 6.615.351l15.263 7.328s3.659-8.568 13.142-4.014c9.483 4.553 5.712 13.067 5.712 13.067l14.491 6.958a8.524 8.524 0 0 1 4.356 4.923 8.648 8.648 0 0 1-.43 6.592l-40.172 81.681a8.814 8.814 0 0 1-4.989 4.375 8.691 8.691 0 0 1-6.594-.359v0Z" stroke="#fff" stroke-width="2.32" stroke-linecap="round" stroke-linejoin="round"/><path d="M646.676 158.712a2.32 2.32 0 0 0 3.079-1.08 2.277 2.277 0 0 0-1.046-3.065c-1.139-.549-2.518-.065-3.079 1.079a2.278 2.278 0 0 0 1.046 3.066Z" stroke="#fff" stroke-width="1.23" stroke-linecap="round" stroke-linejoin="round"/><path d="m654.614 208.795-24.603 50.118c-1.317 2.223-3.053 3.321-5.756 1.759l-45.17-21.733a3.426 3.426 0 0 1-2.499-3.738 3.5 3.5 0 0 1 .573-1.526l24.68-50.273c3.838-5.417 53.68 17.189 52.775 25.393Z" stroke="#fff" stroke-width="1.18" stroke-linecap="round" stroke-linejoin="round"/><path d="m630.229 390.594-4.551 9.381a4.885 4.885 0 0 1-2.754 2.474 4.734 4.734 0 0 1-3.654-.198l-74.904-34.653a4.742 4.742 0 0 1-2.415-2.753 4.899 4.899 0 0 1 .24-3.696l5.748-11.847a4.885 4.885 0 0 1 2.754-2.474 4.725 4.725 0 0 1 3.654.198l73.721 37.091a4.716 4.716 0 0 1 2.42 2.768c.201.602.281 1.239.237 1.876a4.923 4.923 0 0 1-.496 1.833Z" stroke="#fff" stroke-width="2.32" stroke-miterlimit="10"/><path d="M594.977 376.594c-1.331-.649-2.944-.074-3.601 1.284s-.11 2.985 1.222 3.633l22.419 10.924c1.331.649 2.944.075 3.601-1.283.657-1.358.11-2.985-1.222-3.634l-22.419-10.924Z" stroke="#fff" stroke-width="1.04" stroke-miterlimit="10"/><path d="m640.063 398.553-2.511 5.117a3.366 3.366 0 0 1-1.901 1.691 3.312 3.312 0 0 1-2.526-.128l-7.423-3.573c-.584-.437.46-1.433 1.27-3.083l2.511-5.116c.809-1.65.934-3.036 1.655-2.88l7.494 3.607a3.25 3.25 0 0 1 1.609 1.881 3.301 3.301 0 0 1-.178 2.484Z" stroke="#fff" stroke-width="2.32" stroke-miterlimit="10"/><path d="M-21.355 353.705c4.841-8.774 11.893-12.718 21.652-10.686 0 0 2.012-26.456 17.756-18.873 15.745 7.582-4.881 25.056-4.881 25.056 12.135 7.797 9.519 20.276 7.052 24.527" stroke="#fff" stroke-width="1.32" stroke-linecap="round" stroke-linejoin="round"/><path d="M105.05 397.999 43 368.05c-5.48-2.644-12.11-.313-14.811 5.207l-16.775 34.284c-2.701 5.52-.45 12.139 5.03 14.784l62.05 29.949c5.48 2.645 12.11.313 14.812-5.207l16.774-34.284c2.701-5.52.449-12.139-5.03-14.784Z" stroke="#fff" stroke-width="2.32" stroke-linecap="round" stroke-linejoin="round"/><path d="M29.755 422.412c4.849-8.753 11.887-12.704 21.652-10.686 0 0 2.005-26.441 17.764-18.852 15.759 7.589-4.889 25.035-4.889 25.035a18.313 18.313 0 0 1 8.436 10.803 18.647 18.647 0 0 1-1.383 13.725" stroke="#fff" stroke-width="1.32" stroke-linecap="round" stroke-linejoin="round"/><path d="m49.742 474.204-7.907 16.242-3.773-1.829.57-3.202-40.407-19.676 5.105-10.487 40.28 19.616 1.965-2.683 4.166 2.019Z" stroke="#fff" stroke-width="1.7" stroke-linecap="round" stroke-linejoin="round"/><path d="m131.713 897.274-14.774-7.098c-1.844-.886-4.076-.105-4.985 1.744l-12.27 24.961c-.909 1.849-.15 4.067 1.693 4.953l14.774 7.098c1.844.886 4.076.105 4.985-1.744l12.27-24.961c.909-1.849.151-4.067-1.693-4.953ZM153.109 935.747l-14.774-7.099c-1.844-.886-4.076-.105-4.985 1.744l-12.269 24.961c-.909 1.849-.151 4.067 1.693 4.953l14.774 7.098c1.844.886 4.076.105 4.985-1.744l12.269-24.96c.909-1.85.151-4.067-1.693-4.953Z" stroke="#fff" stroke-width="2.32" stroke-miterlimit="10"/><path d="M108.825 925.174s-5.74 25.397-17.61 35.865c-11.87 10.468-34.262 11.381-34.262 11.381l-2.989 6.086s28.375 18.873 49.753 11.934c21.378-6.938 26.547-27.038 26.547-27.038" stroke="#fff" stroke-width="2.32" stroke-miterlimit="10"/><path d="M42.45 972.301c1.66.799 3.666.095 4.484-1.571.818-1.666.136-3.664-1.523-4.463-1.658-.798-3.666-.095-4.483 1.572-.818 1.666-.136 3.664 1.523 4.462ZM22.56 962.509c1.659.799 3.666.095 4.483-1.571.818-1.666.136-3.664-1.523-4.463-1.658-.798-3.665-.095-4.483 1.572-.817 1.666-.136 3.664 1.523 4.462Z" stroke="#fff" stroke-width="1.25" stroke-miterlimit="10"/><path d="m228.016 854.753-37.767-18.142c-4.037-1.939-8.923-.23-10.913 3.817l-32.913 66.945c-1.99 4.047-.331 8.9 3.706 10.84l37.768 18.142c4.037 1.939 8.922.23 10.912-3.818l32.914-66.944c1.99-4.048.33-8.901-3.707-10.84Z" stroke="#fff" stroke-width="2.32" stroke-linecap="round" stroke-linejoin="round"/><path d="m221.57 857.852-29.786-14.311c-3.1-1.489-6.851-.176-8.379 2.932l-24.669 50.185c-1.528 3.108-.254 6.835 2.845 8.324l29.786 14.31c3.099 1.489 6.85.177 8.378-2.932l24.67-50.184c1.528-3.108.254-6.835-2.845-8.324ZM171.298 922.603c1.682.81 3.717.097 4.546-1.593.829-1.69.138-3.716-1.544-4.525-1.682-.81-3.717-.096-4.546 1.593-.829 1.69-.138 3.716 1.544 4.525Z" stroke="#fff" stroke-width="1.31" stroke-linecap="round" stroke-linejoin="round"/><path d="m164.081 1053.42-97.602-47.15c-8.803-4.25-19.458-.5-23.798 8.38l-20.718 42.38c-4.34 8.88-.722 19.53 8.082 23.78l97.602 47.16c8.803 4.25 19.458.5 23.798-8.38l20.718-42.39c4.34-8.88.721-19.52-8.082-23.78Z" stroke="#fff" stroke-width="2.32" stroke-miterlimit="10"/><path d="m157.591 1060.46-66.764-32.23c-6.502-3.14-14.372-.37-17.577 6.18l-16.885 34.52c-3.206 6.55-.533 14.41 5.969 17.55l66.764 32.23c6.502 3.14 14.372.37 17.577-6.18l16.885-34.52c3.206-6.55.533-14.41-5.969-17.55Z" stroke="#fff" stroke-width="1.55" stroke-miterlimit="10"/><path d="m59.408 1017.53-1.134-.54c-2.724-1.3-6.02-.15-7.363 2.58l-19.761 40.11c-1.343 2.73-.225 6 2.498 7.3l1.135.55c2.723 1.3 6.02.15 7.363-2.58l19.761-40.12c1.343-2.72.225-5.99-2.499-7.3Z" stroke="#fff" stroke-width="2.07" stroke-miterlimit="10"/><path d="m218.31 716.583-62.05-29.949c-5.479-2.645-12.111-.314-14.812 5.207l-16.774 34.283c-2.701 5.521-.449 12.14 5.03 14.784l62.05 29.949c5.479 2.645 12.11.314 14.811-5.206l16.775-34.284c2.701-5.521.449-12.14-5.03-14.784Z" stroke="#fff" stroke-width="2.32" stroke-linecap="round" stroke-linejoin="round"/><path d="M143.041 741.012c4.849-8.754 11.901-12.698 21.666-10.68 0 0 2.005-26.442 17.75-18.859 15.745 7.583-4.889 25.036-4.889 25.036 12.15 7.803 9.534 20.282 7.053 24.527" stroke="#fff" stroke-width="1.32" stroke-linecap="round" stroke-linejoin="round"/><path d="m269.461 785.315-62.05-29.949c-5.479-2.645-12.11-.313-14.811 5.207l-16.775 34.284c-2.701 5.52-.449 12.139 5.03 14.784l62.05 29.949c5.479 2.645 12.111.313 14.812-5.207l16.775-34.284c2.701-5.52.448-12.139-5.031-14.784Z" stroke="#fff" stroke-width="2.32" stroke-linecap="round" stroke-linejoin="round"/><path d="M194.189 809.788c4.855-8.768 11.893-12.718 21.651-10.686 0 0 2.013-26.456 17.757-18.874 15.745 7.583-4.874 25.043-4.874 25.043 12.128 7.811 9.519 20.275 7.045 24.541" stroke="#fff" stroke-width="1.32" stroke-linecap="round" stroke-linejoin="round"/><path d="m413.358 839.723-15.813 32.451-3.83-1.856 1.926-6.015-70.199-34.003 2.553-5.239-5.597-2.641 4.952-10.163 5.597 2.641 2.705-5.551 70.072 33.942 3.397-5.618 4.237 2.052Z" stroke="#fff" stroke-width="1.7" stroke-linecap="round" stroke-linejoin="round"/><path d="m311.587 810.062 13.516 6.654" stroke="#fff" stroke-width="2.27" stroke-linecap="round" stroke-linejoin="round"/><path d="m375.392 841.174-5.089 10.337M366.894 843.415l-2.544 5.167M363.119 836.055l-4.722 9.594M351.565 829.442l-5.088 10.337M343.068 831.687l-2.543 5.168M339.295 824.327l-4.723 9.595M354.988 837.553l-2.543 5.167M387.36 846.94l-4.715 9.58M379.235 848.425l-2.543 5.167" stroke="#fff" stroke-width="1.13" stroke-linecap="round" stroke-linejoin="round"/><path d="m454.298 870.066-7.906 16.241-3.76-1.823.57-3.201-40.427-19.669 5.105-10.487 40.287 19.602 1.965-2.683 4.166 2.02Z" stroke="#fff" stroke-width="1.7" stroke-linecap="round" stroke-linejoin="round"/><path d="m413.317 839.844-4.235-2.058-3.396 5.641-70.05-34.044-2.705 5.572-5.595-2.649-4.953 10.204 5.596 2.648-2.553 5.259 70.176 34.105-1.925 6.039 3.828 1.861 5.354-11.031 40.389 19.7-.57 3.21 3.759 1.827 7.906-16.289-4.165-2.024-1.965 2.691-40.249-19.632 5.353-11.03Z" stroke="#fff" stroke-width="2.32" stroke-linecap="round" stroke-linejoin="round"/><path d="m58.422 589.491 5.894-12.146a6.386 6.386 0 0 1 3.601-3.176 6.182 6.182 0 0 1 4.74.272l96.926 44.847a6.191 6.191 0 0 1 3.156 3.598 6.4 6.4 0 0 1-.313 4.831l-7.443 15.34a6.389 6.389 0 0 1-3.599 3.233 6.184 6.184 0 0 1-4.777-.258l-95.46-48.011a6.145 6.145 0 0 1-1.935-1.512 6.232 6.232 0 0 1-1.199-2.156 6.355 6.355 0 0 1-.277-2.466c.07-.835.303-1.649.686-2.396Z" stroke="#fff" stroke-width="2.32" stroke-miterlimit="10"/><path d="M104.058 607.612c1.727.841 3.816.099 4.666-1.657.85-1.757.139-3.863-1.588-4.705l-29.008-14.134c-1.727-.842-3.816-.1-4.665 1.657-.85 1.757-.14 3.863 1.587 4.704l29.008 14.135Z" stroke="#fff" stroke-width="1.34" stroke-miterlimit="10"/><path d="m45.694 579.195 3.25-6.625a4.356 4.356 0 0 1 2.46-2.187 4.288 4.288 0 0 1 3.267.168l9.612 4.627c.745.568-.612 1.849-1.657 3.977l-3.25 6.625c-1.045 2.129-1.23 3.991-2.134 3.748l-9.613-4.627a4.217 4.217 0 0 1-2.152-2.44 4.289 4.289 0 0 1 .217-3.266Z" stroke="#fff" stroke-width="3.19" stroke-miterlimit="10"/><path d="m577.666 1022-62.05-29.946c-5.479-2.645-12.11-.314-14.811 5.207l-16.775 34.279c-2.701 5.52-.449 12.14 5.03 14.79l62.05 29.95c5.48 2.64 12.111.31 14.812-5.21l16.775-34.28c2.701-5.52.448-12.14-5.031-14.79Z" stroke="#fff" stroke-width="2.64" stroke-linecap="round" stroke-linejoin="round"/><path d="M502.414 1046.44c4.849-8.76 11.887-12.71 21.652-10.69 0 0 2.005-26.44 17.764-18.85s-4.889 25.03-4.889 25.03c12.129 7.82 9.52 20.28 7.053 24.53" stroke="#fff" stroke-width="1.32" stroke-linecap="round" stroke-linejoin="round"/><path d="m82.82 691.95-47.536-23.06c-1.085-.527-2.397-.062-2.932 1.038l-6.37 13.096c-.536 1.1-.09 2.418.995 2.944l47.535 23.06c1.085.526 2.398.061 2.933-1.038l6.37-13.097c.535-1.1.09-2.417-.995-2.943Z" stroke="#fff" stroke-width=".78" stroke-linecap="round" stroke-linejoin="round"/><path d="m43.1 698.181-18.31-8.805a1.817 1.817 0 0 0-2.41.844l-11.723 23.867a1.78 1.78 0 0 0 .818 2.395l18.311 8.805c.891.428 1.97.051 2.409-.844l11.724-23.867a1.78 1.78 0 0 0-.818-2.395ZM72.991 712.896l-18.31-8.805a1.815 1.815 0 0 0-2.41.843l-11.724 23.867a1.779 1.779 0 0 0 .819 2.395l18.31 8.805c.892.429 1.97.051 2.41-.843l11.724-23.867a1.779 1.779 0 0 0-.819-2.395Z" stroke="#fff" stroke-width=".64" stroke-linecap="round" stroke-linejoin="round"/><path d="m161.64 1007.87-14.69-7.06a4.127 4.127 0 0 1-2.115-2.386 4.177 4.177 0 0 1 .209-3.196l12.485-30.06c1.024-2.082 1.854-3.771 3.916-2.78l21.256 10.214c2.077.998 1.89 1.413.237 4.776l-15.74 28.492a4.255 4.255 0 0 1-2.383 2.13c-1.039.37-2.18.32-3.175-.13ZM194.711 1024.14l-14.662-7.04a4.138 4.138 0 0 1-2.116-2.38 4.195 4.195 0 0 1 .209-3.2l12.486-30.059c1.023-2.082 1.853-3.771 3.916-2.78l21.256 10.214c2.076.998 1.89 1.413.237 4.776l-15.741 28.499a4.266 4.266 0 0 1-2.397 2.13 4.194 4.194 0 0 1-3.188-.16v0ZM162.121 957.952l23.848 11.552s4.697-9.639-7.241-15.421c-11.939-5.783-16.607 3.869-16.607 3.869ZM195.162 974.214l23.848 11.552s4.697-9.639-7.241-15.422c-11.939-5.782-16.607 3.87-16.607 3.87ZM271.976 1071.42l-135.483-66.34c-2.848-1.4-6.297-.16-7.702 2.76l-.208.43c-1.405 2.93-.236 6.43 2.612 7.82l135.483 66.34c2.848 1.4 6.296.16 7.702-2.76l.208-.44c1.405-2.92.236-6.42-2.612-7.81ZM362.17 1009.74l-107.71-51.995c-3.565-1.721-7.88-.204-9.637 3.388l-31.758 64.917c-1.757 3.59-.292 7.9 3.273 9.62l107.71 52c3.565 1.72 7.879.2 9.637-3.39l31.758-64.92c1.757-3.59.292-7.9-3.273-9.62Z" stroke="#fff" stroke-width="2.32" stroke-linecap="round" stroke-linejoin="round"/><path d="m280.96 982.861-21.584-10.355c-1.449-.695-3.202-.082-3.916 1.369L229.807 1026a2.89 2.89 0 0 0 1.329 3.89l21.585 10.35c1.448.7 3.201.08 3.915-1.37l25.653-52.123a2.883 2.883 0 0 0-1.329-3.886Z" stroke="#fff" stroke-width="1.04" stroke-linecap="round" stroke-linejoin="round"/><path d="m346.517 1015.96-55.307-26.831c-1.263-.613-2.791-.072-3.414 1.208l-7.415 15.243c-.623 1.28-.104 2.82 1.159 3.43l55.307 26.83c1.263.61 2.791.07 3.414-1.21l7.415-15.24c.622-1.29.104-2.82-1.159-3.43Z" stroke="#fff" stroke-width=".91" stroke-linecap="round" stroke-linejoin="round"/><path d="m300.295 1023.22-21.3-10.24a2.116 2.116 0 0 0-2.807.98l-13.639 27.77a2.073 2.073 0 0 0 .953 2.79l21.3 10.24c1.038.5 2.295.06 2.807-.98l13.64-27.77a2.073 2.073 0 0 0-.954-2.79Z" stroke="#fff" stroke-width=".75" stroke-linecap="round" stroke-linejoin="round"/><path d="m124.9 660.251-4.551 9.381a4.886 4.886 0 0 1-2.754 2.473 4.73 4.73 0 0 1-3.654-.197l-74.904-34.654a4.734 4.734 0 0 1-2.415-2.753 4.89 4.89 0 0 1 .24-3.695l5.748-11.847a4.886 4.886 0 0 1 2.754-2.474 4.73 4.73 0 0 1 3.654.197l73.7 37.099a4.713 4.713 0 0 1 1.49 1.131c.417.474.736 1.027.939 1.629.203.601.285 1.238.243 1.875a4.935 4.935 0 0 1-.49 1.835Z" stroke="#fff" stroke-width="2.32" stroke-miterlimit="10"/><path d="M89.664 646.262c-1.332-.649-2.944-.074-3.601 1.284s-.11 2.985 1.221 3.634l22.419 10.924c1.332.649 2.944.074 3.601-1.284s.11-2.985-1.222-3.634l-22.418-10.924Z" stroke="#fff" stroke-width="1.04" stroke-miterlimit="10"/><path d="m134.735 668.213-2.511 5.117a3.369 3.369 0 0 1-1.901 1.691 3.312 3.312 0 0 1-2.526-.128l-7.423-3.573c-.584-.438.495-1.504 1.269-3.083l2.511-5.117c.81-1.649.935-3.035 1.656-2.88l7.424 3.574a3.26 3.26 0 0 1 1.022.771 3.28 3.28 0 0 1 .479 3.628Z" stroke="#fff" stroke-width="2.46" stroke-miterlimit="10"/><path d="M122.351 865.755c-8.762 5.899-39.814-9.238-42.598-16.529-2.322-8.373 9.538-10.659 18.022-23.549 9.059-13.78 1.992-27.393 4.461-32.454 6.398-13.022 35.633 13.337 38.063 35.998 1.173 9.405-9.201 30.628-17.948 36.534Z" stroke="#fff" stroke-width="2.32" stroke-linecap="round" stroke-linejoin="round"/><path d="m101.836 794.347-6.174-2.98-1.064 7.351 7.599 3.755-.361-8.126ZM81.813 841.675l-7.647-3.693 5.175-5.403 8.215 3.879-5.743 5.217Z" stroke="#fff" stroke-width="2.32" stroke-linecap="round" stroke-linejoin="round"/><path d="M121.248 847.608c-4.67 3.15-21.228-4.984-22.74-8.826-1.263-4.489 5.083-5.684 9.64-12.56 4.849-7.363 1.065-14.63 2.379-17.34 3.416-6.954 19.043 7.137 20.336 19.227.588 5.017-4.945 16.349-9.615 19.499Z" stroke="#fff" stroke-width=".95" stroke-linecap="round" stroke-linejoin="round"/><path d="M8.611 516.086c1.14.549 2.518.065 3.08-1.079a2.279 2.279 0 0 0-1.046-3.066 2.32 2.32 0 0 0-3.08 1.08 2.278 2.278 0 0 0 1.046 3.065Z" stroke="#fff" stroke-width="1.23" stroke-linecap="round" stroke-linejoin="round"/><path d="m394.256 896.494-97.602-47.154c-8.804-4.254-19.458-.503-23.798 8.377l-20.718 42.388c-4.34 8.88-.722 19.526 8.082 23.779l97.602 47.155c8.803 4.253 19.458.502 23.798-8.377l20.717-42.389c4.34-8.879.722-19.526-8.081-23.779Z" stroke="#fff" stroke-width="2.32" stroke-miterlimit="10"/><path d="m387.768 903.534-66.765-32.231c-6.502-3.139-14.371-.371-17.576 6.181l-16.886 34.517c-3.205 6.552-.532 14.409 5.97 17.547l66.764 32.231c6.502 3.139 14.371.372 17.577-6.181l16.885-34.517c3.205-6.552.533-14.408-5.969-17.547Z" stroke="#fff" stroke-width="1.55" stroke-miterlimit="10"/><path d="m305.682 891.153 7.925 3.847 12.674-10.173.678 16.657 7.924 3.848-.812 10.127 8.315-6.484 18.345 8.908 12.524-10.933-.434 16.803 9.173 4.454" stroke="#fff" stroke-width="1.32" stroke-linecap="round" stroke-linejoin="round"/><path d="m289.585 860.598-1.135-.543c-2.723-1.304-6.019-.151-7.363 2.576l-19.761 40.116c-1.343 2.727-.224 5.995 2.499 7.299l1.135.543c2.723 1.304 6.02.151 7.363-2.576l19.761-40.117c1.343-2.727.224-5.994-2.499-7.298Z" stroke="#fff" stroke-width="2.07" stroke-miterlimit="10"/><path d="m293.016 912.905 4.095 1.991s4.448-3.987 6.107-3.691c1.659.295 4.187 3.444 4.187 3.444a11.61 11.61 0 0 1 2.524 6.513l4.895 2.379" stroke="#fff" stroke-width=".81" stroke-linecap="round" stroke-linejoin="round"/><path d="m310.889 921.698 4.066 1.977s4.448-3.987 6.107-3.691c1.659.295 4.187 3.444 4.187 3.444a10.38 10.38 0 0 1 2.132 6.322l5.343 2.598" stroke="#fff" stroke-width=".81" stroke-linecap="round" stroke-linejoin="round"/><path d="m329.588 930.905 4.067 1.977s4.447-3.986 6.106-3.691c1.659.296 4.187 3.445 4.187 3.445a11.698 11.698 0 0 1 2.524 6.512l4.895 2.38" stroke="#fff" stroke-width=".81" stroke-linecap="round" stroke-linejoin="round"/><path d="m347.531 939.736 4.067 1.977s4.447-3.987 6.106-3.691c1.66.295 4.187 3.445 4.187 3.445 1.703 1.955 1.546 3.958 1.703 5.884l5.806 2.822" stroke="#fff" stroke-width=".81" stroke-linecap="round" stroke-linejoin="round"/><path d="m34.377 834.1-23.434-11.273a7.153 7.153 0 0 1-3.657-4.131 7.267 7.267 0 0 1 .356-5.537l15.628-44.865a7.403 7.403 0 0 1 4.18-3.693 7.29 7.29 0 0 1 5.54.288l35.08 16.876a7.153 7.153 0 0 1 3.659 4.131 7.27 7.27 0 0 1-.357 5.538l-27.317 39.242a7.405 7.405 0 0 1-4.158 3.685 7.29 7.29 0 0 1-5.52-.261Z" stroke="#fff" stroke-width="2.32" stroke-linecap="round" stroke-linejoin="round"/><path d="m58.698 770.643-10.983-5.327c-1.518-.737-3.356-.086-4.105 1.453-.749 1.539-.125 3.384 1.394 4.12l10.983 5.327c1.518.737 3.356.086 4.105-1.453.748-1.539.124-3.384-1.394-4.12Z" stroke="#fff" stroke-width="2.32" stroke-linecap="round" stroke-linejoin="round"/><path d="m22.34 770.857 47.37 23.317" stroke="#fff" stroke-width="1.16" stroke-linecap="round" stroke-linejoin="round"/><path d="m438.478 1051.68-17.746-8.52-6.826 2.74-4.208-2.02-1.816-6.89-17.956-8.62a8.498 8.498 0 0 1-4.356-4.92 8.64 8.64 0 0 1 .43-6.59l40.172-81.684a8.814 8.814 0 0 1 4.981-4.395 8.69 8.69 0 0 1 6.601.344l15.277 7.335s3.645-8.574 13.128-4.021 5.712 13.067 5.712 13.067l14.435 6.931a8.528 8.528 0 0 1 4.365 4.915 8.649 8.649 0 0 1-.418 6.593l-40.172 81.685a8.806 8.806 0 0 1-4.988 4.4 8.625 8.625 0 0 1-6.615-.35v0Z" stroke="#fff" stroke-width="2.32" stroke-linecap="round" stroke-linejoin="round"/><path d="M462.274 942.419a2.32 2.32 0 0 0 3.08-1.079 2.279 2.279 0 0 0-1.046-3.066 2.321 2.321 0 0 0-3.08 1.079 2.28 2.28 0 0 0 1.046 3.066Z" stroke="#fff" stroke-width="1.23" stroke-linecap="round" stroke-linejoin="round"/><path d="m470.207 992.517-24.617 50.143c-1.331 2.22-3.053 3.32-5.77 1.76l-45.17-21.74a3.46 3.46 0 0 1-1.413-.77 3.446 3.446 0 0 1-.896-1.34 3.471 3.471 0 0 1 .39-3.13l24.701-50.316c3.831-5.437 53.659 17.162 52.775 25.393Z" stroke="#fff" stroke-width="1.18" stroke-linecap="round" stroke-linejoin="round"/><path d="m293.016-38.33-37.768-18.142c-4.037-1.939-8.923-.23-10.913 3.818L211.422 14.29c-1.99 4.048-.331 8.9 3.706 10.84l37.768 18.142c4.037 1.94 8.922.23 10.912-3.818l32.914-66.944c1.99-4.047.33-8.9-3.706-10.84Z" stroke="#fff" stroke-width="2.32" stroke-linecap="round" stroke-linejoin="round"/><path d="m286.556-35.242-29.786-14.31c-3.099-1.49-6.85-.177-8.378 2.93l-24.67 50.185c-1.528 3.109-.254 6.835 2.845 8.324l29.786 14.31c3.1 1.49 6.851.177 8.379-2.93l24.669-50.186c1.528-3.108.254-6.834-2.845-8.323ZM236.297 29.523c1.682.81 3.717.097 4.546-1.593.829-1.69.138-3.715-1.544-4.525-1.682-.81-3.717-.096-4.546 1.593-.829 1.69-.138 3.716 1.544 4.525Z" stroke="#fff" stroke-width="1.31" stroke-linecap="round" stroke-linejoin="round"/><path d="m452.213 378.971-46.982-22.618c-4.464-2.149-9.866-.255-12.067 4.229l-23.158 47.201c-2.201 4.485-.366 9.863 4.098 12.012l46.982 22.617c4.464 2.149 9.866.256 12.067-4.229l23.158-47.201c2.201-4.484.366-9.862-4.098-12.011ZM510.792 357.554l-14.774-7.098c-1.844-.886-4.076-.105-4.985 1.744l-12.27 24.961c-.909 1.849-.151 4.067 1.693 4.953l14.774 7.098c1.844.886 4.076.105 4.986-1.744l12.269-24.961c.909-1.849.151-4.067-1.693-4.953Z" stroke="#fff" stroke-width="2.32" stroke-miterlimit="10"/><path d="m532.195 396.013-14.774-7.098c-1.844-.886-4.076-.105-4.985 1.744l-12.269 24.961c-.909 1.849-.151 4.067 1.693 4.953l14.774 7.098c1.844.886 4.076.105 4.985-1.744l12.269-24.961c.909-1.849.151-4.067-1.693-4.953Z" stroke="#fff" stroke-width="2.51" stroke-miterlimit="10"/><path d="M487.904 385.454s-5.74 25.397-17.61 35.865c-11.871 10.468-34.262 11.381-34.262 11.381l-2.995 6.1s28.36 18.866 49.752 11.934c21.392-6.932 26.547-27.038 26.547-27.038" stroke="#fff" stroke-width="2.32" stroke-miterlimit="10"/><path d="m441.822 385.721-35.516-17.134c-2.852-1.376-6.304-.163-7.71 2.709l-10.86 22.184c-1.406 2.872-.234 6.316 2.618 7.692l35.516 17.134c2.852 1.376 6.304.163 7.71-2.709l10.86-22.184c1.406-2.872.234-6.316-2.618-7.692ZM421.514 432.572c1.659.799 3.666.095 4.483-1.571.818-1.666.136-3.664-1.522-4.463-1.659-.798-3.666-.094-4.484 1.572-.817 1.666-.135 3.664 1.523 4.462ZM401.639 422.792c1.659.798 3.666.095 4.483-1.572.818-1.666.136-3.664-1.522-4.462-1.659-.799-3.666-.095-4.484 1.571-.817 1.666-.135 3.664 1.523 4.463ZM381.834 413.042c1.658.798 3.665.095 4.483-1.572.817-1.666.136-3.664-1.523-4.462-1.658-.799-3.666-.095-4.483 1.571-.818 1.666-.136 3.664 1.523 4.463Z" stroke="#fff" stroke-width="1.25" stroke-miterlimit="10"/><path d="m397.867 53.545 5.893-12.147a6.383 6.383 0 0 1 3.565-3.162 6.184 6.184 0 0 1 4.707.224l97.03 44.81a6.19 6.19 0 0 1 3.156 3.599 6.395 6.395 0 0 1-.313 4.83l-7.443 15.34a6.384 6.384 0 0 1-3.599 3.234 6.184 6.184 0 0 1-4.777-.258l-95.474-48.018a6.197 6.197 0 0 1-3.109-3.631 6.398 6.398 0 0 1 .364-4.821Z" stroke="#fff" stroke-width="2.32" stroke-miterlimit="10"/><path d="M443.496 71.64c1.726.841 3.815.1 4.665-1.657.85-1.757.139-3.863-1.587-4.704l-29.008-14.135c-1.727-.841-3.816-.1-4.666 1.657-.85 1.757-.139 3.863 1.588 4.704l29.008 14.135Z" stroke="#fff" stroke-width="1.34" stroke-miterlimit="10"/><path d="m385.111 43.232 3.251-6.625a4.35 4.35 0 0 1 2.466-2.19 4.283 4.283 0 0 1 3.274.178l9.612 4.627c.745.568-.612 1.849-1.657 3.977l-3.251 6.625c-1.044 2.129-1.229 3.991-2.133 3.748l-9.613-4.627a4.213 4.213 0 0 1-2.163-2.44 4.284 4.284 0 0 1 .214-3.273ZM341.301 215.579l-97.603-47.154c-8.803-4.254-19.457-.503-23.797 8.377l-20.718 42.388c-4.34 8.88-.722 19.526 8.082 23.779l97.602 47.155c8.803 4.253 19.458.502 23.798-8.377l20.717-42.389c4.34-8.879.722-19.526-8.081-23.779Z" stroke="#fff" stroke-width="2.32" stroke-miterlimit="10"/><path d="m334.812 222.619-66.765-32.231c-6.502-3.139-14.371-.372-17.576 6.181l-16.886 34.517c-3.205 6.552-.533 14.408 5.969 17.547l66.765 32.231c6.502 3.139 14.371.372 17.577-6.181l16.885-34.517c3.205-6.552.533-14.409-5.969-17.547Z" stroke="#fff" stroke-width="1.55" stroke-miterlimit="10"/><path d="m252.727 210.235 7.925 3.848 12.674-10.174.664 16.651 7.924 3.847-.799 10.134 8.316-6.483 18.345 8.908 12.524-10.934-.434 16.804 9.173 4.454" stroke="#fff" stroke-width="1.32" stroke-linecap="round" stroke-linejoin="round"/><path d="m236.63 179.688-1.135-.543c-2.723-1.304-6.019-.151-7.363 2.576l-19.761 40.117c-1.343 2.726-.224 5.994 2.499 7.298l1.135.543c2.723 1.304 6.02.151 7.363-2.576l19.761-40.117c1.343-2.726.224-5.994-2.499-7.298Z" stroke="#fff" stroke-width="2.07" stroke-miterlimit="10"/><path d="m240.02 231.973 4.067 1.977s4.44-3.972 6.106-3.691c1.666.282 4.18 3.459 4.18 3.459a11.5 11.5 0 0 1 2.525 6.512l4.894 2.38" stroke="#fff" stroke-width=".81" stroke-linecap="round" stroke-linejoin="round"/><path d="m257.934 240.791 4.067 1.977s4.44-3.973 6.106-3.691c1.666.281 4.18 3.459 4.18 3.459 1.39 1.8 2.14 4.024 2.132 6.321l5.343 2.597" stroke="#fff" stroke-width=".81" stroke-linecap="round" stroke-linejoin="round"/><path d="m276.633 249.991 4.011 1.949s4.44-3.972 6.092-3.697c1.652.274 4.194 3.465 4.194 3.465a11.577 11.577 0 0 1 2.525 6.512l4.894 2.38" stroke="#fff" stroke-width=".81" stroke-linecap="round" stroke-linejoin="round"/><path d="m294.505 258.789 4.067 1.977s4.44-3.972 6.106-3.691c1.666.281 4.18 3.459 4.18 3.459 1.71 1.941 1.553 3.944 1.71 5.87l5.806 2.822" stroke="#fff" stroke-width=".81" stroke-linecap="round" stroke-linejoin="round"/><path d="m443.74 248.007-37.768-18.142c-4.036-1.94-8.922-.23-10.912 3.817l-32.913 66.944c-1.99 4.048-.331 8.901 3.706 10.84l37.767 18.142c4.037 1.94 8.923.23 10.913-3.817l32.913-66.944c1.99-4.048.331-8.901-3.706-10.84Z" stroke="#fff" stroke-width="2" stroke-linecap="round" stroke-linejoin="round"/><path d="m437.294 251.103-29.786-14.311c-3.099-1.489-6.85-.176-8.378 2.932l-24.67 50.185c-1.528 3.108-.254 6.835 2.846 8.324l29.785 14.31c3.1 1.489 6.851.177 8.379-2.931l24.67-50.185c1.528-3.108.254-6.835-2.846-8.324ZM387.022 315.859c1.681.81 3.717.097 4.546-1.593.829-1.69.137-3.716-1.544-4.525-1.682-.81-3.717-.096-4.546 1.593-.829 1.69-.138 3.716 1.544 4.525Z" stroke="#fff" stroke-width="1.31" stroke-linecap="round" stroke-linejoin="round"/><path d="m350.413 384.284-62.05-29.95c-5.479-2.644-12.11-.313-14.811 5.207l-16.775 34.284c-2.701 5.52-.449 12.139 5.03 14.784l62.051 29.949c5.479 2.645 12.11.314 14.811-5.207l16.775-34.284c2.701-5.52.449-12.139-5.031-14.783Z" stroke="#fff" stroke-width="2.32" stroke-linecap="round" stroke-linejoin="round"/><path d="M275.16 408.722c4.848-8.754 11.886-12.705 21.651-10.687 0 0 2.005-26.441 17.764-18.852 15.759 7.589-4.889 25.036-4.889 25.036 12.129 7.811 9.52 20.275 7.053 24.527" stroke="#fff" stroke-width="1.32" stroke-linecap="round" stroke-linejoin="round"/><path d="m401.572 453.036-62.051-29.95c-5.479-2.644-12.11-.313-14.811 5.207l-16.775 34.284c-2.701 5.52-.449 12.139 5.03 14.784l62.051 29.949c5.479 2.645 12.11.314 14.811-5.207l16.775-34.284c2.701-5.52.449-12.139-5.03-14.783Z" stroke="#fff" stroke-width="2.32" stroke-linecap="round" stroke-linejoin="round"/><path d="M326.306 477.464c4.848-8.753 11.9-12.697 21.666-10.679 0 0 2.005-26.442 17.75-18.859 15.745 7.582-4.875 25.042-4.875 25.042 12.135 7.797 9.519 20.276 7.052 24.527" stroke="#fff" stroke-width="1.32" stroke-linecap="round" stroke-linejoin="round"/><path d="m337.669 319.886-15.813 32.45-3.829-1.855 1.918-6.001-70.198-34.003 2.552-5.238-5.59-2.655 4.953-10.164 5.597 2.641 2.698-5.537 70.072 33.942 3.404-5.632 4.236 2.052Z" stroke="#fff" stroke-width="1.7" stroke-linecap="round" stroke-linejoin="round"/><path d="m235.897 290.22 13.517 6.653" stroke="#fff" stroke-width="2.27" stroke-linecap="round" stroke-linejoin="round"/><path d="m299.704 321.334-5.088 10.338M291.206 323.575l-2.544 5.167M287.432 316.22l-4.723 9.595M275.878 309.607l-5.088 10.337M267.38 311.845l-2.544 5.168M263.605 304.488l-4.722 9.594M279.3 317.713l-2.544 5.167M311.673 327.103l-4.723 9.594M303.54 328.598l-2.544 5.168" stroke="#fff" stroke-width="1.13" stroke-linecap="round" stroke-linejoin="round"/><path d="m378.604 350.242-7.906 16.241-3.76-1.823.57-3.201-40.42-19.683 5.105-10.487 40.28 19.616 1.965-2.683 4.166 2.02Z" stroke="#fff" stroke-width="1.7" stroke-linecap="round" stroke-linejoin="round"/><path d="m337.629 320.007-4.235-2.058-3.404 5.655-70.05-34.044-2.697 5.558-5.596-2.649-4.952 10.203 5.588 2.664-2.552 5.258 70.176 34.105-1.919 6.025 3.829 1.86 5.353-11.03 40.383 19.714-.57 3.21 3.758 1.827 7.906-16.289-4.165-2.024-1.964 2.691-40.243-19.646 5.354-11.03Z" stroke="#fff" stroke-width="2.32" stroke-linecap="round" stroke-linejoin="round"/><path d="m288.485 633.859-46.981-22.618c-4.464-2.149-9.867-.255-12.067 4.23l-23.159 47.2c-2.2 4.485-.365 9.863 4.099 12.012l46.981 22.618c4.464 2.149 9.867.255 12.067-4.23l23.159-47.2c2.2-4.485.365-9.863-4.099-12.012ZM347.052 612.434l-14.773-7.099c-1.845-.886-4.077-.105-4.986 1.745l-12.269 24.96c-.909 1.85-.151 4.067 1.693 4.953l14.774 7.099c1.844.886 4.076.105 4.985-1.745l12.27-24.96c.909-1.85.151-4.067-1.694-4.953ZM368.454 650.901l-14.774-7.099c-1.844-.886-4.076-.105-4.985 1.744l-12.27 24.961c-.909 1.849-.151 4.067 1.694 4.953l14.773 7.098c1.845.886 4.077.106 4.986-1.744l12.269-24.96c.909-1.85.151-4.067-1.693-4.953Z" stroke="#fff" stroke-width="2.32" stroke-miterlimit="10"/><path d="M324.164 640.336s-5.726 25.404-17.611 35.865c-11.884 10.46-34.262 11.38-34.262 11.38l-3.036 6.185s28.375 18.873 49.767 11.941c21.392-6.932 26.532-27.045 26.532-27.045" stroke="#fff" stroke-width="2.32" stroke-miterlimit="10"/><path d="m278.081 640.606-35.517-17.135c-2.852-1.376-6.303-.163-7.709 2.709l-10.861 22.185c-1.405 2.872-.233 6.315 2.619 7.691l35.516 17.134c2.852 1.376 6.304.163 7.71-2.708l10.86-22.185c1.406-2.872.234-6.315-2.618-7.691ZM257.794 687.45c1.659.799 3.666.095 4.484-1.571.817-1.666.135-3.664-1.523-4.463-1.659-.798-3.666-.095-4.483 1.572-.818 1.666-.136 3.664 1.522 4.462ZM237.919 677.67c1.659.798 3.666.095 4.484-1.572.817-1.666.135-3.664-1.523-4.462-1.659-.799-3.666-.095-4.483 1.571-.818 1.666-.136 3.664 1.522 4.463ZM218.099 667.913c1.659.798 3.666.095 4.483-1.571.818-1.667.136-3.665-1.522-4.463-1.659-.799-3.666-.095-4.484 1.571-.817 1.666-.135 3.664 1.523 4.463Z" stroke="#fff" stroke-width="1.25" stroke-miterlimit="10"/><path d="m426.987 671.033 5.886-12.132a6.384 6.384 0 0 1 3.599-3.234 6.184 6.184 0 0 1 4.777.258l97.016 44.804a6.193 6.193 0 0 1 3.157 3.598 6.395 6.395 0 0 1-.314 4.831l-7.442 15.34a6.388 6.388 0 0 1-3.6 3.233 6.184 6.184 0 0 1-4.777-.258l-95.46-48.011a6.191 6.191 0 0 1-3.156-3.598 6.395 6.395 0 0 1 .314-4.831Z" stroke="#fff" stroke-width="2.32" stroke-miterlimit="10"/><path d="M472.632 689.136c1.726.842 3.815.1 4.665-1.657.85-1.757.139-3.863-1.588-4.704l-29.008-14.135c-1.726-.841-3.815-.099-4.665 1.657-.85 1.757-.139 3.863 1.587 4.705l29.009 14.134Z" stroke="#fff" stroke-width="1.34" stroke-miterlimit="10"/><path d="m414.239 660.743 3.258-6.639a4.356 4.356 0 0 1 2.467-2.177 4.28 4.28 0 0 1 3.267.18l9.598 4.62c.752.553-.605 1.834-1.65 3.963l-3.258 6.639c-1.044 2.128-1.223 3.977-2.127 3.733l-9.612-4.627a4.215 4.215 0 0 1-2.15-2.433 4.29 4.29 0 0 1 .207-3.259Z" stroke="#fff" stroke-width="3.19" stroke-miterlimit="10"/><path d="m438.919 595.878-15.813 32.45-3.83-1.855 1.926-6.015-70.213-34.01 2.552-5.239-5.597-2.641 4.953-10.163 5.597 2.64 2.698-5.536 70.072 33.942 3.418-5.626 4.237 2.053Z" stroke="#fff" stroke-width="1.7" stroke-linecap="round" stroke-linejoin="round"/><path d="m337.133 566.208 13.516 6.653" stroke="#fff" stroke-width="2.27" stroke-linecap="round" stroke-linejoin="round"/><path d="m400.952 597.323-5.088 10.337M392.456 599.563l-2.544 5.168M388.668 592.197l-4.723 9.594M377.126 585.596l-5.088 10.337M368.631 587.833l-2.544 5.168M364.842 580.472l-4.723 9.595M380.535 593.695l-2.543 5.168M412.906 603.087l-4.722 9.595M404.775 604.583l-2.543 5.168" stroke="#fff" stroke-width="1.13" stroke-linecap="round" stroke-linejoin="round"/><path d="m479.86 626.217-7.907 16.242-3.773-1.83.563-3.187-40.406-19.676 5.105-10.487 40.266 19.609 1.971-2.697 4.181 2.026Z" stroke="#fff" stroke-width="1.7" stroke-linecap="round" stroke-linejoin="round"/><path d="m438.877 595.999-4.235-2.059-3.418 5.649-70.049-34.044-2.698 5.558-5.595-2.649-4.953 10.203 5.595 2.649-2.552 5.259 70.19 34.112-1.925 6.039 3.828 1.86 5.354-11.03 40.368 19.707-.563 3.196 3.773 1.833 7.906-16.288-4.18-2.031-1.971 2.705-40.228-19.639 5.353-11.03Z" stroke="#fff" stroke-width="2.83" stroke-linecap="round" stroke-linejoin="round"/><path d="m26.888 279.19-12.627-6.067a3.543 3.543 0 0 1-2.013-3.445c.032-.474.157-.937.37-1.363l10.732-25.823c.878-1.787 1.59-3.237 3.358-2.387l18.24 8.764c1.782.856 1.623 1.215.205 4.1l-13.496 24.494a3.652 3.652 0 0 1-2.04 1.836 3.602 3.602 0 0 1-2.729-.109v0ZM55.308 293.18l-12.627-6.068a3.544 3.544 0 0 1-2.013-3.445c.032-.473.157-.936.37-1.363l10.732-25.823c.878-1.787 1.59-3.236 3.358-2.387l18.24 8.765c1.782.856 1.623 1.214.205 4.099l-13.497 24.495a3.65 3.65 0 0 1-2.04 1.835 3.602 3.602 0 0 1-2.728-.108v0ZM27.345 236.305l20.51 9.934s4.033-8.276-6.222-13.243c-10.255-4.967-14.288 3.309-14.288 3.309ZM55.695 250.259l20.51 9.934s4.032-8.275-6.223-13.243c-10.255-4.967-14.287 3.309-14.287 3.309ZM121.696 333.804 5.257 276.788c-2.445-1.198-5.406-.134-6.613 2.375l-.18.374c-1.207 2.51-.203 5.515 2.242 6.712l116.439 57.016c2.446 1.197 5.407.134 6.614-2.375l.18-.374c1.207-2.51.202-5.515-2.243-6.712ZM199.221 280.802l-92.57-44.688c-3.061-1.478-6.766-.175-8.275 2.91L71.08 294.822c-1.51 3.085-.25 6.783 2.81 8.261l92.57 44.688c3.061 1.478 6.766.175 8.275-2.91l27.296-55.798c1.509-3.085.251-6.784-2.81-8.261Z" stroke="#fff" stroke-width="2.32" stroke-linecap="round" stroke-linejoin="round"/><path d="m129.429 257.705-18.569-8.908c-1.239-.595-2.739-.07-3.35 1.171l-22.05 44.807a2.468 2.468 0 0 0 1.137 3.325l18.569 8.908c1.239.595 2.739.07 3.35-1.171l22.051-44.807a2.468 2.468 0 0 0-1.138-3.325Z" stroke="#fff" stroke-width=".9" stroke-linecap="round" stroke-linejoin="round"/><path d="m185.77 286.143-47.536-23.06c-1.084-.526-2.397-.061-2.932 1.038l-6.371 13.097c-.534 1.099-.089 2.417.996 2.943l47.536 23.06c1.084.526 2.397.061 2.932-1.038l6.371-13.097c.534-1.099.089-2.417-.996-2.943Z" stroke="#fff" stroke-width=".78" stroke-linecap="round" stroke-linejoin="round"/><path d="m146.051 292.372-18.311-8.805a1.815 1.815 0 0 0-2.409.844l-11.724 23.867a1.78 1.78 0 0 0 .818 2.395l18.311 8.805c.891.428 1.97.05 2.409-.844l11.724-23.867a1.78 1.78 0 0 0-.818-2.395ZM175.94 307.087l-18.311-8.805a1.816 1.816 0 0 0-2.409.843l-11.724 23.867a1.779 1.779 0 0 0 .819 2.395l18.311 8.805c.891.428 1.97.051 2.409-.844l11.724-23.866a1.779 1.779 0 0 0-.819-2.395Z" stroke="#fff" stroke-width=".64" stroke-linecap="round" stroke-linejoin="round"/><path d="m226.639 114.79-14.662-7.045a4.12 4.12 0 0 1-2.116-2.383 4.179 4.179 0 0 1 .209-3.195l12.479-30.046c1.03-2.097 1.86-3.785 3.909-2.801l21.27 10.22c2.076.998 1.89 1.413.23 4.79l-15.734 28.482a4.254 4.254 0 0 1-2.397 2.132 4.193 4.193 0 0 1-3.188-.154ZM259.709 131.067l-14.662-7.045a4.121 4.121 0 0 1-2.116-2.382 4.181 4.181 0 0 1 .21-3.196l12.478-30.046c1.031-2.097 1.86-3.786 3.909-2.801l21.312 10.24c2.077.998 1.89 1.413.23 4.79l-15.733 28.483a4.256 4.256 0 0 1-4.046 2.368 4.175 4.175 0 0 1-1.582-.411ZM227.119 64.87l23.848 11.551s4.697-9.638-7.241-15.421c-11.939-5.783-16.607 3.87-16.607 3.87ZM260.161 81.134l23.848 11.551s4.697-9.638-7.241-15.42c-11.939-5.784-16.607 3.869-16.607 3.869ZM336.96 178.33l-135.483-66.34c-2.848-1.395-6.296-.157-7.702 2.766l-.207.431c-1.406 2.922-.237 6.422 2.611 7.817l135.483 66.341c2.848 1.394 6.297.156 7.702-2.767l.208-.431c1.406-2.922.236-6.422-2.612-7.817ZM427.164 116.674l-107.71-51.997c-3.565-1.72-7.88-.203-9.637 3.39l-31.758 64.918c-1.757 3.592-.292 7.899 3.273 9.62l107.71 51.997c3.565 1.721 7.879.204 9.637-3.389l31.758-64.918c1.757-3.593.292-7.9-3.273-9.621Z" stroke="#fff" stroke-width="2.32" stroke-linecap="round" stroke-linejoin="round"/><path d="m345.952 89.789-21.584-10.355c-1.449-.695-3.202-.082-3.916 1.369l-25.653 52.127a2.884 2.884 0 0 0 1.33 3.886l21.584 10.355c1.448.695 3.201.082 3.916-1.369l25.653-52.127a2.884 2.884 0 0 0-1.33-3.886Z" stroke="#fff" stroke-width="1.04" stroke-linecap="round" stroke-linejoin="round"/><path d="m411.508 122.888-55.307-26.83c-1.262-.612-2.791-.07-3.413 1.21l-7.416 15.243c-.622 1.28-.103 2.815 1.159 3.427l55.307 26.83c1.263.612 2.791.071 3.414-1.209l7.415-15.244c.623-1.28.104-2.814-1.159-3.427Z" stroke="#fff" stroke-width=".91" stroke-linecap="round" stroke-linejoin="round"/><path d="m365.294 130.14-21.299-10.242a2.117 2.117 0 0 0-2.808.983l-13.639 27.767a2.073 2.073 0 0 0 .953 2.791l21.3 10.242a2.116 2.116 0 0 0 2.807-.983l13.64-27.767a2.073 2.073 0 0 0-.954-2.791ZM400.074 147.26l-21.3-10.242a2.116 2.116 0 0 0-2.807.983l-13.64 27.767a2.073 2.073 0 0 0 .953 2.791l21.3 10.242a2.116 2.116 0 0 0 2.807-.983l13.64-27.767a2.074 2.074 0 0 0-.953-2.791Z" stroke="#fff" stroke-width=".75" stroke-linecap="round" stroke-linejoin="round"/><path d="m153.493 191.376-5.755 11.861a6.165 6.165 0 0 1-3.473 3.121 5.969 5.969 0 0 1-4.61-.25L44.98 162.372a5.975 5.975 0 0 1-3.045-3.473 6.173 6.173 0 0 1 .302-4.662l7.263-14.969a6.206 6.206 0 0 1 1.432-1.912 6.125 6.125 0 0 1 2.04-1.22 6.014 6.014 0 0 1 2.34-.342 5.913 5.913 0 0 1 2.278.589l93.16 46.858a5.975 5.975 0 0 1 3.045 3.473 6.17 6.17 0 0 1-.302 4.662Z" stroke="#fff" stroke-width="2.93" stroke-miterlimit="10"/><path d="M108.963 173.72c-1.68-.818-3.714-.093-4.543 1.62-.829 1.713-.139 3.766 1.541 4.584l28.321 13.8c1.681.819 3.715.094 4.544-1.619.829-1.713.138-3.766-1.542-4.585l-28.321-13.8Z" stroke="#fff" stroke-width="1.31" stroke-miterlimit="10"/><path d="m165.919 201.427-3.174 6.47a4.224 4.224 0 0 1-4.019 2.369 4.138 4.138 0 0 1-1.575-.409l-9.374-4.512c-.738-.547.585-1.792 1.609-3.878l3.174-6.47c1.017-2.072 1.196-3.886 2.086-3.649l9.374 4.512a4.11 4.11 0 0 1 2.108 2.378 4.177 4.177 0 0 1-.209 3.189Z" stroke="#fff" stroke-width="2.93" stroke-miterlimit="10"/><path d="M236.887 392.082c-8.747 5.906-39.8-9.231-42.598-16.528-2.321-8.374 9.553-10.653 18.022-23.55 9.059-13.779 1.993-27.392 4.462-32.453 6.397-13.023 35.632 13.336 38.062 35.998 1.173 9.405-9.201 30.627-17.948 36.533Z" stroke="#fff" stroke-width="2.32" stroke-linecap="round" stroke-linejoin="round"/><path d="m216.385 320.684-6.174-2.98-1.064 7.35 7.599 3.755-.361-8.125ZM196.348 367.997l-7.648-3.692 5.175-5.403 8.216 3.879-5.743 5.216Z" stroke="#fff" stroke-width="2.32" stroke-linecap="round" stroke-linejoin="round"/><path d="M235.777 373.949c-4.67 3.15-21.228-4.984-22.74-8.827-1.271-4.474 5.096-5.677 9.64-12.56 4.834-7.369 1.064-14.629 2.378-17.339 3.417-6.955 19.043 7.136 20.322 19.22.623 5.016-4.924 16.342-9.6 19.506Z" stroke="#fff" stroke-width=".95" stroke-linecap="round" stroke-linejoin="round"/><path d="M286.215 601.642c-8.747 5.906-39.799-9.231-42.597-16.529-2.315-8.387 9.553-10.653 18.029-23.563 9.101-13.759 1.929-27.406 4.412-32.46 6.405-13.036 35.632 13.337 38.07 35.984 1.208 9.44-9.166 30.662-17.914 36.568Z" stroke="#fff" stroke-width="2.32" stroke-linecap="round" stroke-linejoin="round"/><path d="m265.706 530.219-6.16-2.973-1.064 7.351 7.578 3.762-.354-8.14ZM245.677 577.559l-7.648-3.693 5.175-5.403 8.223 3.865-5.75 5.231Z" stroke="#fff" stroke-width="2.32" stroke-linecap="round" stroke-linejoin="round"/><path d="M285.111 583.494c-4.67 3.15-21.228-4.984-22.74-8.826-1.264-4.489 5.103-5.692 9.647-12.575 4.828-7.355 1.043-14.622 2.371-17.325 3.417-6.954 19.05 7.123 20.322 19.22.624 5.016-4.93 16.356-9.6 19.506Z" stroke="#fff" stroke-width=".95" stroke-linecap="round" stroke-linejoin="round"/><path d="m216.538 528.053-97.602-47.155c-8.803-4.253-19.458-.502-23.798 8.377L74.42 531.664c-4.34 8.879-.721 19.526 8.082 23.779l97.602 47.154c8.804 4.254 19.458.503 23.798-8.377l20.718-42.388c4.34-8.88.721-19.526-8.082-23.779Z" stroke="#fff" stroke-width="2.32" stroke-miterlimit="10"/><path d="m210.048 535.09-66.764-32.23c-6.502-3.139-14.372-.372-17.577 6.18l-16.885 34.518c-3.206 6.552-.533 14.408 5.969 17.547l66.764 32.231c6.502 3.138 14.372.371 17.577-6.181l16.885-34.517c3.206-6.553.533-14.409-5.969-17.548Z" stroke="#fff" stroke-width="1.55" stroke-miterlimit="10"/><path d="m127.963 522.709 7.924 3.848 12.674-10.174.678 16.657 7.924 3.848-.812 10.127 8.316-6.484 18.345 8.908 12.523-10.933-.434 16.804 9.173 4.453" stroke="#fff" stroke-width="1.32" stroke-linecap="round" stroke-linejoin="round"/><path d="m111.867 492.154-1.134-.543c-2.724-1.304-6.02-.151-7.363 2.576l-19.761 40.116c-1.344 2.727-.225 5.995 2.498 7.299l1.135.543c2.723 1.304 6.02.151 7.363-2.576l19.761-40.117c1.343-2.727.225-5.994-2.499-7.298Z" stroke="#fff" stroke-width="2.07" stroke-miterlimit="10"/><path d="m115.282 544.49 4.067 1.976s4.447-3.986 6.106-3.69c1.66.295 4.187 3.444 4.187 3.444a11.609 11.609 0 0 1 2.525 6.513l4.894 2.379" stroke="#fff" stroke-width=".81" stroke-linecap="round" stroke-linejoin="round"/><path d="m133.155 553.29 4.067 1.977s4.447-3.987 6.107-3.691c1.659.295 4.186 3.444 4.186 3.444a10.372 10.372 0 0 1 2.132 6.322l5.259 2.556" stroke="#fff" stroke-width=".81" stroke-linecap="round" stroke-linejoin="round"/><path d="m151.855 562.492 4.067 1.977s4.448-3.986 6.107-3.69c1.659.295 4.186 3.444 4.186 3.444a11.703 11.703 0 0 1 2.525 6.513l4.894 2.379" stroke="#fff" stroke-width=".81" stroke-linecap="round" stroke-linejoin="round"/><path d="m169.726 571.288 4.067 1.977s4.448-3.987 6.107-3.691c1.659.295 4.186 3.444 4.186 3.444 1.717 1.962 1.546 3.958 1.703 5.885l5.806 2.822" stroke="#fff" stroke-width=".81" stroke-linecap="round" stroke-linejoin="round"/><path d="m559.406 537.342-17.732-8.514-6.825 2.737-4.209-2.021-1.815-6.886-17.943-8.615a8.528 8.528 0 0 1-4.367-4.922 8.646 8.646 0 0 1 .427-6.599l40.173-81.681a8.809 8.809 0 0 1 4.988-4.398 8.685 8.685 0 0 1 6.608.354l15.262 7.328s3.659-8.568 13.128-4.021c9.47 4.547 5.712 13.067 5.712 13.067l14.421 6.925a8.518 8.518 0 0 1 4.365 4.915 8.642 8.642 0 0 1-.417 6.592l-40.173 81.681a8.812 8.812 0 0 1-4.987 4.409 8.691 8.691 0 0 1-6.616-.351v0Z" stroke="#fff" stroke-width="2.32" stroke-linecap="round" stroke-linejoin="round"/><path d="M583.216 428.084a2.32 2.32 0 0 0 3.079-1.08 2.277 2.277 0 0 0-1.046-3.065c-1.139-.549-2.518-.065-3.079 1.079a2.278 2.278 0 0 0 1.046 3.066Z" stroke="#fff" stroke-width="1.23" stroke-linecap="round" stroke-linejoin="round"/><path d="m591.148 478.185-24.597 50.104c-1.33 2.216-3.052 3.321-5.769 1.753l-45.156-21.727a3.41 3.41 0 0 1-2.323-2.114 3.434 3.434 0 0 1-.184-1.611 3.485 3.485 0 0 1 .574-1.525l24.679-50.273c3.846-5.431 53.66 17.161 52.776 25.393Z" stroke="#fff" stroke-width="1.18" stroke-linecap="round" stroke-linejoin="round"/><path d="m263.473 427.796-37.767-18.142c-4.037-1.939-8.923-.23-10.913 3.817l-32.913 66.945c-1.99 4.047-.331 8.9 3.706 10.839l37.768 18.142c4.037 1.94 8.922.23 10.912-3.817l32.914-66.944c1.99-4.048.33-8.901-3.707-10.84Z" stroke="#fff" stroke-width="2.32" stroke-linecap="round" stroke-linejoin="round"/><path d="m257.033 430.884-29.785-14.31c-3.1-1.489-6.851-.177-8.379 2.931l-24.67 50.185c-1.527 3.108-.253 6.835 2.846 8.324l29.786 14.31c3.099 1.489 6.85.177 8.378-2.931l24.67-50.185c1.528-3.108.254-6.835-2.846-8.324ZM206.76 495.638c1.682.81 3.717.096 4.546-1.593.829-1.69.138-3.716-1.544-4.525-1.682-.81-3.717-.097-4.546 1.593-.829 1.69-.138 3.716 1.544 4.525Z" stroke="#fff" stroke-width="1.31" stroke-linecap="round" stroke-linejoin="round"/><path d="m447.626 537.216-23.406-11.26a7.167 7.167 0 0 1-3.663-4.133 7.282 7.282 0 0 1 .348-5.542l15.621-44.851a7.407 7.407 0 0 1 4.187-3.707 7.29 7.29 0 0 1 5.554.295l35.081 16.876a7.169 7.169 0 0 1 3.654 4.141 7.283 7.283 0 0 1-.36 5.542l-27.31 39.228a7.405 7.405 0 0 1-4.173 3.69 7.292 7.292 0 0 1-5.533-.279v0Z" stroke="#fff" stroke-width="2.32" stroke-linecap="round" stroke-linejoin="round"/><path d="m471.948 473.756-10.983-5.327c-1.518-.737-3.356-.086-4.105 1.453-.749 1.539-.125 3.383 1.394 4.12l10.982 5.327c1.519.737 3.357.086 4.105-1.453.749-1.539.125-3.384-1.393-4.12Z" stroke="#fff" stroke-width="2.32" stroke-linecap="round" stroke-linejoin="round"/><path d="m435.58 473.983 47.371 23.317" stroke="#fff" stroke-width="1.16" stroke-linecap="round" stroke-linejoin="round"/><path d="m152.451 455.433-23.433-11.272a7.156 7.156 0 0 1-3.658-4.132 7.266 7.266 0 0 1 .356-5.537l15.621-44.851a7.405 7.405 0 0 1 4.181-3.693 7.287 7.287 0 0 1 5.54.289l35.08 16.875a7.168 7.168 0 0 1 3.652 4.134 7.288 7.288 0 0 1-.35 5.535l-27.31 39.228a7.39 7.39 0 0 1-4.157 3.691 7.273 7.273 0 0 1-5.522-.267v0Z" stroke="#fff" stroke-width="2.32" stroke-linecap="round" stroke-linejoin="round"/><path d="m176.788 391.981-10.983-5.327c-1.518-.736-3.356-.086-4.105 1.453-.749 1.539-.125 3.384 1.393 4.121l10.983 5.327c1.519.736 3.357.086 4.105-1.453.749-1.54.125-3.384-1.393-4.121Z" stroke="#fff" stroke-width="2.32" stroke-linecap="round" stroke-linejoin="round"/><path d="m140.421 392.213 47.357 23.31" stroke="#fff" stroke-width="1.16" stroke-linecap="round" stroke-linejoin="round"/><path d="m343.498 56.272-23.448-11.28a7.172 7.172 0 0 1-3.652-4.133 7.288 7.288 0 0 1 .35-5.535l15.629-44.865a7.401 7.401 0 0 1 4.18-3.693 7.288 7.288 0 0 1 5.54.289l35.08 16.875a7.168 7.168 0 0 1 3.652 4.134c.618 1.81.492 3.8-.35 5.535L353.162 52.84a7.403 7.403 0 0 1-4.151 3.682 7.288 7.288 0 0 1-5.513-.25Z" stroke="#fff" stroke-width="2.32" stroke-linecap="round" stroke-linejoin="round"/><path d="m367.826-7.195-10.983-5.328c-1.518-.736-3.356-.085-4.105 1.454-.749 1.539-.125 3.383 1.393 4.12l10.983 5.327c1.519.736 3.357.086 4.105-1.453.749-1.54.125-3.384-1.393-4.12Z" stroke="#fff" stroke-width="2.32" stroke-linecap="round" stroke-linejoin="round"/><path d="m331.462-6.971 47.357 23.31" stroke="#fff" stroke-width="1.16" stroke-linecap="round" stroke-linejoin="round"/><path d="m463.026-20.764-15.813 32.451-3.844-1.862 1.919-6.001-70.199-34.003 2.553-5.238-5.59-2.656 4.953-10.164 5.59 2.656 2.704-5.55 70.073 33.941 3.403-5.633 4.251 2.06ZM503.945 9.585l-7.906 16.242-3.759-1.823.57-3.201-40.407-19.677 5.105-10.486 40.266 19.608 1.965-2.682 4.166 2.02Z" stroke="#fff" stroke-width="1.7" stroke-linecap="round" stroke-linejoin="round"/><path d="m462.986-20.642-4.25-2.065-3.403 5.655-70.05-34.044-2.705 5.572-5.588-2.663-4.952 10.204 5.588 2.663-2.552 5.258L445.25 4.044l-1.919 6.024 3.843 1.867 5.353-11.03 40.369 19.707-.57 3.21 3.758 1.827 7.906-16.288-4.165-2.025-1.965 2.691-40.228-19.639 5.354-11.03ZM152.805 159.164 135.7 150.94a5.965 5.965 0 0 1-3.035-3.438 6.051 6.051 0 0 1 .289-4.601l9.337-19.008a6.147 6.147 0 0 1 3.477-3.074 6.052 6.052 0 0 1 4.609.243l3.803 1.829 2.815-5.731 10.061 4.837-3.152 5.569 3.62 1.74a5.939 5.939 0 0 1 3.048 3.434 6.026 6.026 0 0 1-.302 4.605l-9.351 19.037a6.149 6.149 0 0 1-3.499 3.059 6.055 6.055 0 0 1-4.615-.277v0Z" stroke="#fff" stroke-width="2.32" stroke-linecap="round" stroke-linejoin="round"/><path d="m170.556 114.87-10.003-4.844c-1.983-.96-4.384-.113-5.362 1.894l-.007.014c-.978 2.006-.163 4.411 1.821 5.371l10.002 4.844c1.984.96 4.385.112 5.363-1.894l.007-.014c.978-2.006.162-4.411-1.821-5.371ZM279.416 772.137l-17.104-8.224a5.955 5.955 0 0 1-3.04-3.428 6.046 6.046 0 0 1 .286-4.597l9.359-19.05a6.146 6.146 0 0 1 3.476-3.063 6.055 6.055 0 0 1 4.603.247l3.816 1.835 2.815-5.731 9.977 4.797-3.152 5.568 3.62 1.741a5.935 5.935 0 0 1 3.045 3.426 6.028 6.028 0 0 1-.292 4.599l-9.358 19.05a6.13 6.13 0 0 1-3.46 3.063 6.042 6.042 0 0 1-4.591-.233v0Z" stroke="#fff" stroke-width="2.32" stroke-linecap="round" stroke-linejoin="round"/><path d="m297.171 727.831-10.002-4.843c-1.984-.96-4.385-.113-5.363 1.894l-.007.014c-.978 2.006-.162 4.411 1.821 5.371l10.003 4.844c1.983.96 4.384.112 5.362-1.894l.007-.014c.978-2.006.163-4.411-1.821-5.372ZM367.439 767.686l-14.661-7.046a4.13 4.13 0 0 1-2.122-2.383 4.193 4.193 0 0 1 .201-3.201l12.493-30.04c1.03-2.096 1.86-3.785 3.908-2.801l21.313 10.241c2.076.998 1.89 1.413.23 4.79l-15.734 28.482a4.24 4.24 0 0 1-2.419 2.14 4.207 4.207 0 0 1-3.209-.182v0ZM400.509 783.963l-14.606-7.019a4.116 4.116 0 0 1-2.127-2.381 4.154 4.154 0 0 1-.217-1.619c.036-.549.18-1.088.424-1.584l12.527-30.109c1.03-2.097 1.86-3.786 3.909-2.801l21.256 10.213c2.076.998 1.889 1.413.23 4.79l-15.734 28.482a4.247 4.247 0 0 1-.989 1.339 4.245 4.245 0 0 1-3.071 1.101 4.191 4.191 0 0 1-1.602-.412ZM367.967 717.633l23.849 11.552s4.697-9.639-7.242-15.421c-11.938-5.783-16.607 3.869-16.607 3.869ZM401.009 733.897l23.849 11.552s4.697-9.638-7.242-15.421c-11.938-5.783-16.607 3.869-16.607 3.869ZM477.796 831.157l-135.483-66.341c-2.848-1.394-6.296-.156-7.702 2.766l-.207.432c-1.406 2.922-.237 6.422 2.611 7.816l135.483 66.341c2.848 1.395 6.297.156 7.702-2.766l.208-.431c1.405-2.923.236-6.422-2.612-7.817ZM567.983 769.499l-107.71-51.996c-3.565-1.721-7.879-.204-9.637 3.388l-31.757 64.919c-1.758 3.592-.293 7.9 3.272 9.621l107.71 51.996c3.565 1.721 7.88.204 9.637-3.388l31.758-64.919c1.757-3.592.292-7.9-3.273-9.621Z" stroke="#fff" stroke-width="2.32" stroke-linecap="round" stroke-linejoin="round"/><path d="m486.773 742.609-21.584-10.355c-1.448-.695-3.201-.082-3.916 1.369L435.62 785.75a2.884 2.884 0 0 0 1.33 3.886l21.584 10.355c1.449.695 3.202.082 3.916-1.369l25.653-52.127a2.884 2.884 0 0 0-1.33-3.886Z" stroke="#fff" stroke-width="1.04" stroke-linecap="round" stroke-linejoin="round"/><path d="m552.345 775.72-55.307-26.83c-1.262-.612-2.791-.071-3.414 1.209l-7.415 15.244c-.622 1.28-.104 2.814 1.159 3.427l55.307 26.829c1.263.613 2.791.072 3.414-1.209l7.415-15.243c.623-1.28.104-2.815-1.159-3.427Z" stroke="#fff" stroke-width=".91" stroke-linecap="round" stroke-linejoin="round"/><path d="m506.129 782.969-21.3-10.242a2.116 2.116 0 0 0-2.807.983l-13.639 27.767a2.073 2.073 0 0 0 .953 2.791l21.3 10.242a2.116 2.116 0 0 0 2.807-.983l13.64-27.767a2.073 2.073 0 0 0-.954-2.791ZM540.894 800.083l-21.3-10.242a2.116 2.116 0 0 0-2.807.983l-13.64 27.767a2.073 2.073 0 0 0 .954 2.791l21.3 10.242a2.116 2.116 0 0 0 2.807-.983l13.639-27.767a2.072 2.072 0 0 0-.953-2.791Z" stroke="#fff" stroke-width=".75" stroke-linecap="round" stroke-linejoin="round"/><path d="m545.999 175.216-17.118-8.23a5.951 5.951 0 0 1-3.042-3.436 6.043 6.043 0 0 1 .296-4.603l9.351-19.036a6.159 6.159 0 0 1 3.478-3.068 6.072 6.072 0 0 1 4.608.237l3.802 1.829 2.809-5.717 9.976 4.797-3.145 5.554 3.634 1.748a5.947 5.947 0 0 1 3.03 3.436 6.04 6.04 0 0 1-.298 4.596l-9.351 19.035a6.134 6.134 0 0 1-3.444 3.071 6.043 6.043 0 0 1-4.586-.213v0Z" stroke="#fff" stroke-width="2.32" stroke-linecap="round" stroke-linejoin="round"/><path d="m563.743 130.902-10.002-4.844c-1.984-.96-4.384-.112-5.362 1.894l-.007.014c-.978 2.006-.163 4.411 1.82 5.372l10.003 4.843c1.983.96 4.384.113 5.362-1.894l.007-.014c.978-2.006.163-4.411-1.821-5.371Z" stroke="#fff" stroke-width="2.32" stroke-linecap="round" stroke-linejoin="round"/><path d="M705.284 475.518c-11.716 7.89-53.25-12.356-56.965-22.165-3.156-11.229 12.764-14.26 24.148-31.499 12.111-18.438 2.646-36.633 5.945-43.418 8.563-17.429 47.678 17.84 50.928 48.153 1.534 12.624-12.346 41.019-24.056 48.929Z" stroke="#fff" stroke-width="3.1" stroke-linecap="round" stroke-linejoin="round"/><path d="m651.038 443.3-10.215-4.932 6.921-7.236 11.001 5.172-7.707 6.996Z" stroke="#fff" stroke-width="3.1" stroke-linecap="round" stroke-linejoin="round"/><path d="m372.533 538.102-4.551 9.381a4.886 4.886 0 0 1-2.747 2.471 4.725 4.725 0 0 1-3.647-.188l-74.918-34.66a4.736 4.736 0 0 1-2.415-2.753 4.894 4.894 0 0 1 .24-3.696l5.748-11.847a4.881 4.881 0 0 1 2.753-2.473 4.732 4.732 0 0 1 3.655.197l73.742 37.084a4.719 4.719 0 0 1 1.483 1.141c.413.476.729 1.032.928 1.635a4.901 4.901 0 0 1-.271 3.708Z" stroke="#fff" stroke-width="2.32" stroke-miterlimit="10"/><path d="M337.296 524.114c-1.332-.649-2.944-.074-3.601 1.284-.658 1.358-.11 2.985 1.221 3.633l22.419 10.924c1.332.649 2.944.074 3.601-1.283.657-1.358.11-2.985-1.222-3.634l-22.418-10.924Z" stroke="#fff" stroke-width="1.04" stroke-miterlimit="10"/><path d="m382.368 546.061-2.51 5.116a3.343 3.343 0 0 1-1.898 1.692 3.29 3.29 0 0 1-2.523-.143l-7.423-3.573c-.59-.423.468-1.413 1.277-3.062l2.511-5.117c.809-1.649.92-3.042 1.649-2.9l7.423 3.573a3.258 3.258 0 0 1 1.834 3.165c-.03.433-.145.858-.34 1.249Z" stroke="#fff" stroke-width="2.46" stroke-miterlimit="10"/><path d="m629.519 359.49-23.434-11.272a7.173 7.173 0 0 1-3.663-4.133 7.285 7.285 0 0 1 .348-5.543l15.642-44.858a7.386 7.386 0 0 1 4.178-3.699 7.27 7.27 0 0 1 5.542.295l35.08 16.875a7.168 7.168 0 0 1 3.652 4.134 7.283 7.283 0 0 1-.35 5.535l-27.317 39.242a7.405 7.405 0 0 1-4.158 3.685 7.286 7.286 0 0 1-5.52-.261v0Z" stroke="#fff" stroke-width="2.32" stroke-linecap="round" stroke-linejoin="round"/><path d="m653.847 296.02-10.983-5.327c-1.518-.736-3.356-.086-4.105 1.454-.748 1.539-.124 3.383 1.394 4.12l10.983 5.327c1.518.736 3.356.086 4.105-1.453.749-1.539.125-3.384-1.394-4.121Z" stroke="#fff" stroke-width="2.32" stroke-linecap="round" stroke-linejoin="round"/><path d="m617.479 296.25 47.371 23.317" stroke="#fff" stroke-width="1.16" stroke-linecap="round" stroke-linejoin="round"/><path d="m651.044 717.351-62.05-29.95c-5.479-2.644-12.11-.313-14.811 5.207l-16.775 34.284c-2.701 5.52-.449 12.139 5.03 14.784l62.05 29.949c5.48 2.645 12.111.313 14.812-5.207l16.774-34.284c2.701-5.52.449-12.139-5.03-14.783Z" stroke="#fff" stroke-width="2.32" stroke-linecap="round" stroke-linejoin="round"/><path d="M575.771 741.826c4.848-8.753 11.886-12.704 21.652-10.686 0 0 2.005-26.441 17.764-18.852 15.758 7.589-4.889 25.035-4.889 25.035a18.314 18.314 0 0 1 8.436 10.803 18.646 18.646 0 0 1-1.384 13.725" stroke="#fff" stroke-width="1.32" stroke-linecap="round" stroke-linejoin="round"/><path d="m702.197 786.083-62.051-29.949c-5.479-2.645-12.11-.314-14.811 5.207l-16.775 34.284c-2.701 5.52-.449 12.139 5.03 14.783l62.051 29.95c5.479 2.644 12.11.313 14.811-5.207l16.775-34.284c2.701-5.521.449-12.14-5.03-14.784Z" stroke="#fff" stroke-width="2.32" stroke-linecap="round" stroke-linejoin="round"/><path d="M626.958 810.521c4.856-8.768 11.893-12.718 21.666-10.679 0 0 2.012-26.456 17.757-18.874 15.745 7.583-4.896 25.05-4.896 25.05 12.15 7.804 9.534 20.282 7.053 24.527" stroke="#fff" stroke-width="1.32" stroke-linecap="round" stroke-linejoin="round"/><path d="m708.555 577.967 11.937 5.717a6.126 6.126 0 0 1 3.154 3.541 6.209 6.209 0 0 1-.314 4.755l-45.527 96.964a6.352 6.352 0 0 1-3.599 3.125 6.26 6.26 0 0 1-4.735-.267l-15.02-7.193a6.128 6.128 0 0 1-3.141-3.505 6.205 6.205 0 0 1 .267-4.721l48.63-95.53a6.346 6.346 0 0 1 3.598-3.148 6.261 6.261 0 0 1 4.75.262Z" stroke="#fff" stroke-width="2.32" stroke-miterlimit="10"/><path d="m633.969 551.858-17.118-8.23a5.951 5.951 0 0 1-3.042-3.436 6.043 6.043 0 0 1 .295-4.603l9.352-19.036a6.159 6.159 0 0 1 3.478-3.068 6.072 6.072 0 0 1 4.608.237l3.816 1.835 2.808-5.716 9.991 4.803-3.159 5.548 3.634 1.748a5.968 5.968 0 0 1 3.036 3.437 6.056 6.056 0 0 1-.29 4.601l-9.351 19.036a6.145 6.145 0 0 1-3.461 3.069 6.053 6.053 0 0 1-4.597-.225Z" stroke="#fff" stroke-width="2.32" stroke-linecap="round" stroke-linejoin="round"/><path d="m651.713 507.543-10.002-4.843c-1.984-.96-4.385-.113-5.363 1.893l-.007.015c-.978 2.006-.163 4.411 1.821 5.371l10.003 4.844c1.983.96 4.384.112 5.362-1.894l.007-.014c.978-2.006.163-4.411-1.821-5.372Z" stroke="#fff" stroke-width="2.32" stroke-linecap="round" stroke-linejoin="round"/><path d="M53.912 329.08-8.1 299.281c-5.476-2.632-12.109-.273-14.815 5.267l-16.807 34.409c-2.707 5.54-.462 12.165 5.014 14.796l62.011 29.8c5.476 2.631 12.108.272 14.815-5.268l16.807-34.409c2.706-5.54.461-12.165-5.014-14.796Z" stroke="#fff" stroke-width="2.64" stroke-linecap="round" stroke-linejoin="round"/><path d="m8.81 443.695-15.848 32.604-3.828-1.847 1.925-6.027-70.183-33.875 2.558-5.263-5.594-2.63 4.97-10.227 5.588 2.644 2.71-5.576 70.043 33.808 3.423-5.655 4.235 2.044Z" stroke="#fff" stroke-width="1.7" stroke-linecap="round" stroke-linejoin="round"/><path d="M8.78 443.852 4.548 441.8l-3.424 5.682-70.03-33.94-2.71 5.604-5.587-2.655-4.971 10.276 5.594 2.64-2.558 5.289 70.17 34.008-1.926 6.055 3.828 1.855 5.366-11.093 40.356 19.648-.573 3.225 3.771 1.828 7.924-16.381-4.164-2.018-1.967 2.708-40.231-19.586 5.366-11.093Z" stroke="#fff" stroke-width="2.32" stroke-linecap="round" stroke-linejoin="round"/><path d="m73.15 918.553-46.942-22.486c-4.46-2.136-9.863-.222-12.067 4.275l-23.199 47.333c-2.204 4.497-.375 9.875 4.085 12.011l46.941 22.486c4.46 2.136 9.863.222 12.067-4.275l23.199-47.333c2.204-4.497.375-9.875-4.085-12.011Z" stroke="#fff" stroke-width="2.32" stroke-miterlimit="10"/><path d="m62.748 925.338-35.493-17.046c-2.85-1.369-6.302-.142-7.71 2.74L8.662 933.294c-1.409 2.882-.24 6.328 2.61 7.697l35.493 17.046c2.85 1.368 6.302.142 7.71-2.74l10.882-22.262c1.408-2.882.24-6.328-2.61-7.697ZM2.754 952.77c1.657.793 3.664.082 4.483-1.589.819-1.67.14-3.668-1.518-4.462-1.657-.794-3.664-.083-4.483 1.588-.819 1.671-.14 3.669 1.518 4.463Z" stroke="#fff" stroke-width="1.25" stroke-miterlimit="10"/><path d="m-16.03 850.605 5.908-12.216a6.434 6.434 0 0 1 3.603-3.259 6.157 6.157 0 0 1 4.778.242l96.908 44.684a6.17 6.17 0 0 1 3.153 3.603A6.448 6.448 0 0 1 98 888.51l-7.46 15.429a6.438 6.438 0 0 1-3.603 3.259 6.161 6.161 0 0 1-4.777-.243l-95.432-47.88a6.176 6.176 0 0 1-3.115-3.627 6.453 6.453 0 0 1 .357-4.843Z" stroke="#fff" stroke-width="2.32" stroke-miterlimit="10"/><path d="M29.6 868.603c1.726.839 3.816.087 4.668-1.681.852-1.768.143-3.882-1.583-4.721L3.683 848.1c-1.727-.84-3.817-.087-4.669 1.681-.852 1.768-.143 3.881 1.583 4.721L29.6 868.603Z" stroke="#fff" stroke-width="1.34" stroke-miterlimit="10"/><path d="m1.409 886.091-7.924 16.322-3.772-1.822.573-3.214-40.39-19.604 5.109-10.525 40.257 19.522 1.968-2.698 4.179 2.019Z" stroke="#fff" stroke-width="1.7" stroke-linecap="round" stroke-linejoin="round"/><path d="m-39.561 855.835-4.248-2.059-3.403 5.675-70.03-33.94-2.71 5.604-5.587-2.655-4.971 10.276 5.594 2.64-2.558 5.289 70.17 34.008-1.947 6.063 3.842 1.862 5.373-11.108 40.357 19.648-.574 3.225 3.771 1.828 7.925-16.381-4.178-2.025-1.968 2.708-40.224-19.565 5.366-11.093ZM18.747 739.54-97.68 682.592c-2.446-1.196-5.409-.116-6.619 2.413l-.181.377c-1.21 2.528-.208 5.548 2.237 6.744l116.428 56.948c2.446 1.196 5.41.116 6.62-2.413l.18-.376c1.21-2.529.208-5.548-2.238-6.745ZM96.275 686.374 3.763 641.908c-3.06-1.47-6.765-.152-8.277 2.944l-27.35 56.004c-1.512 3.097-.258 6.799 2.802 8.269l92.512 44.466c3.059 1.471 6.765.153 8.277-2.944l27.35-56.004c1.511-3.096.257-6.798-2.802-8.269Z" stroke="#fff" stroke-width="2.32" stroke-linecap="round" stroke-linejoin="round"/><path d="m26.484 663.444-18.545-8.845c-1.237-.591-2.737-.061-3.348 1.182l-22.079 44.878a2.46 2.46 0 0 0 1.133 3.321l18.545 8.845c1.238.591 2.737.061 3.349-1.182l22.078-44.878a2.46 2.46 0 0 0-1.133-3.321Z" stroke="#fff" stroke-width=".9" stroke-linecap="round" stroke-linejoin="round"/><path d="m-15.191 625.398-17.823-8.51-6.838 2.753-4.134-1.973-1.639-6.801-18.103-8.644a8.473 8.473 0 0 1-4.359-4.909 8.66 8.66 0 0 1 .433-6.602l40.23-81.836a8.88 8.88 0 0 1 4.99-4.421 8.692 8.692 0 0 1 6.608.323l15.301 7.306s3.658-8.568 13.13-4.046c9.472 4.523 5.702 13.038 5.702 13.038l14.474 6.911a8.487 8.487 0 0 1 4.341 4.911 8.678 8.678 0 0 1-.43 6.593l-40.228 81.835a8.838 8.838 0 0 1-2.074 2.711 8.844 8.844 0 0 1-2.945 1.727 8.748 8.748 0 0 1-3.365.478 8.6 8.6 0 0 1-3.271-.844Z" stroke="#fff" stroke-width="2.32" stroke-linecap="round" stroke-linejoin="round"/><path d="m16.541 566.049-24.638 50.235c-1.318 2.23-3.055 3.335-5.755 1.781l-45.129-21.603a3.385 3.385 0 0 1-2.319-2.108 3.44 3.44 0 0 1-.183-1.612c.069-.546.266-1.07.576-1.528l24.72-50.405c3.85-5.448 53.62 16.998 52.728 25.24Z" stroke="#fff" stroke-width="1.18" stroke-linecap="round" stroke-linejoin="round"/><path transform="rotate(-180 1042 1388)" fill="url(#b)" d="M1042 1388h1452v1391H1042z"/></g><defs><linearGradient id="b" x1="1997.5" y1="2817" x2="2052.76" y2="1891.5" gradientUnits="userSpaceOnUse"><stop offset=".021" stop-color="#4C9E45" stop-opacity=".8"/><stop offset=".428" stop-color="#4C9E45" stop-opacity=".9"/><stop offset=".679" stop-color="#4C9E45" stop-opacity=".95"/><stop offset="1" stop-color="#4C9E45" stop-opacity=".7"/></linearGradient></defs></svg>