<svg width="24" height="25" viewBox="0 0 24 25" fill="none" xmlns="http://www.w3.org/2000/svg">
<path fill-rule="evenodd" clip-rule="evenodd" d="M3.08252 4.04068C2.99826 4.12774 2.93324 4.28144 2.93324 4.55256V21.0166C2.93324 21.2618 2.99474 21.4091 3.07709 21.495C3.15751 21.5789 3.29773 21.6459 3.54657 21.6459H18.8212C19.1155 21.6459 19.2561 21.5837 19.3296 21.5094C19.4039 21.4343 19.4666 21.2894 19.4666 20.9872V9.72589C19.4666 9.57861 19.586 9.45922 19.7332 9.45922C19.8805 9.45922 19.9999 9.57861 19.9999 9.72589V20.9872C19.9999 21.3437 19.9293 21.6615 19.7089 21.8844C19.4877 22.108 19.1723 22.1792 18.8212 22.1792H3.54657C3.20341 22.1792 2.90363 22.0848 2.69205 21.8641C2.48239 21.6453 2.3999 21.3446 2.3999 21.0166V4.55256C2.3999 4.20501 2.48287 3.89338 2.69928 3.66977C2.91728 3.44452 3.22531 3.35522 3.57324 3.35522H16.0799C16.2272 3.35522 16.3466 3.47462 16.3466 3.62189C16.3466 3.76917 16.2272 3.88856 16.0799 3.88856H3.57324C3.31049 3.88856 3.16519 3.95526 3.08252 4.04068Z" fill="#00518A" stroke="#0B3C61" stroke-width="0.4" stroke-linecap="round" stroke-linejoin="round"/>
<path fill-rule="evenodd" clip-rule="evenodd" d="M19.168 3.00184C19.1042 3.00184 19.0411 3.01463 18.9823 3.03945C18.9236 3.06427 18.8704 3.10063 18.8259 3.14636L18.8233 3.14901L7.83119 14.1411L6.73482 17.8454L10.4685 16.779L21.4754 5.79592C21.5212 5.75144 21.5575 5.69826 21.5824 5.63949C21.6072 5.58072 21.62 5.51756 21.62 5.45377C21.62 5.38997 21.6072 5.32681 21.5824 5.26804C21.5575 5.20927 21.5212 5.15607 21.4755 5.11159L21.4728 5.10901L19.5102 3.14638C19.4657 3.10064 19.4125 3.06427 19.3538 3.03945C19.295 3.01463 19.2318 3.00184 19.168 3.00184ZM18.7748 2.54814C18.8993 2.49558 19.033 2.46851 19.168 2.46851C19.3031 2.46851 19.4368 2.49558 19.5613 2.54814C19.6851 2.60044 19.7972 2.67691 19.8911 2.77307L21.8488 4.73068C21.9449 4.82458 22.0214 4.93671 22.0737 5.06053C22.1262 5.18497 22.1533 5.31868 22.1533 5.45377C22.1533 5.58885 22.1262 5.72256 22.0737 5.847C22.0214 5.97087 21.9448 6.08305 21.8486 6.17697L10.7964 17.2052C10.7644 17.2371 10.7248 17.2604 10.6813 17.2728L6.41462 18.4915C6.32107 18.5182 6.22039 18.4919 6.15192 18.4228C6.08345 18.3536 6.05807 18.2527 6.08568 18.1594L7.33901 13.9248C7.35163 13.8821 7.37471 13.8433 7.40615 13.8119L18.4449 2.77308C18.5388 2.67691 18.651 2.60044 18.7748 2.54814Z" fill="#333333" stroke="#0B3C61" stroke-width="0.4" stroke-linecap="round" stroke-linejoin="round"/>
</svg>
