<svg width="26" height="29" viewBox="0 0 26 29" fill="none" xmlns="http://www.w3.org/2000/svg">
<path fill-rule="evenodd" clip-rule="evenodd" d="M1.40332 4.32783C1.40332 4.04592 1.61323 3.81738 1.87216 3.81738H6.71213L7.82122 9.16493H22.9114C23.6442 9.16493 24.1698 9.93403 23.9592 10.6982L21.6552 19.0598C21.5164 19.5636 21.0904 19.9086 20.6073 19.9086H9.96268C9.45134 19.9086 9.00821 19.523 8.89558 18.9799L5.96257 4.83828H1.87216C1.61323 4.83828 1.40332 4.60974 1.40332 4.32783ZM8.03296 10.1858L9.81024 18.7551C9.82633 18.8327 9.88963 18.8877 9.96268 18.8877H20.6073C20.6764 18.8877 20.7372 18.8385 20.757 18.7665L23.0611 10.4049C23.0911 10.2957 23.0161 10.1858 22.9114 10.1858H8.03296Z" fill="#333333"/>
<path fill-rule="evenodd" clip-rule="evenodd" d="M10.8027 23.7247C11.2712 23.7247 11.6511 23.3111 11.6511 22.801C11.6511 22.2909 11.2712 21.8773 10.8027 21.8773C10.3341 21.8773 9.95429 22.2909 9.95429 22.801C9.95429 23.3111 10.3341 23.7247 10.8027 23.7247ZM10.8027 24.7456C11.7891 24.7456 12.5887 23.875 12.5887 22.801C12.5887 21.7271 11.7891 20.8564 10.8027 20.8564C9.81625 20.8564 9.0166 21.7271 9.0166 22.801C9.0166 23.875 9.81625 24.7456 10.8027 24.7456Z" fill="#333333"/>
<path fill-rule="evenodd" clip-rule="evenodd" d="M19.7324 23.7247C20.2009 23.7247 20.5807 23.3111 20.5807 22.801C20.5807 22.2909 20.2009 21.8773 19.7324 21.8773C19.2638 21.8773 18.884 22.2909 18.884 22.801C18.884 23.3111 19.2638 23.7247 19.7324 23.7247ZM19.7324 24.7456C20.7188 24.7456 21.5184 23.875 21.5184 22.801C21.5184 21.7271 20.7188 20.8564 19.7324 20.8564C18.7459 20.8564 17.9463 21.7271 17.9463 22.801C17.9463 23.875 18.7459 24.7456 19.7324 24.7456Z" fill="#333333"/>
</svg>
