<svg width="24" height="24" viewBox="0 0 24 24" fill="none" xmlns="http://www.w3.org/2000/svg">
<path fill-rule="evenodd" clip-rule="evenodd" d="M21.6 11.7002C21.6 6.23257 17.1676 1.80019 11.7 1.80019C6.23233 1.80019 1.79995 6.23257 1.79995 11.7002C1.79995 17.1678 6.23233 21.6002 11.7 21.6002C17.1676 21.6002 21.6 17.1678 21.6 11.7002ZM22.2 11.7002C22.2 5.9012 17.4989 1.20019 11.7 1.20019C5.90096 1.20019 1.19995 5.9012 1.19995 11.7002C1.19995 17.4992 5.90096 22.2002 11.7 22.2002C17.4989 22.2002 22.2 17.4992 22.2 11.7002Z" fill="white"/>
<path fill-rule="evenodd" clip-rule="evenodd" d="M14.2684 7.19255C14.3856 7.0754 14.5755 7.0754 14.6927 7.19255L18.7902 11.2901C18.9074 11.4073 18.9074 11.5972 18.7902 11.7144C18.6731 11.8315 18.4831 11.8315 18.366 11.7144L14.2684 7.61682C14.1513 7.49966 14.1513 7.30971 14.2684 7.19255Z" fill="white"/>
<path fill-rule="evenodd" clip-rule="evenodd" d="M14.2684 15.812C14.1513 15.6949 14.1513 15.5049 14.2684 15.3878L18.366 11.2902C18.4831 11.1731 18.6731 11.1731 18.7902 11.2902C18.9074 11.4074 18.9074 11.5973 18.7902 11.7145L14.6927 15.812C14.5755 15.9292 14.3856 15.9292 14.2684 15.812Z" fill="white"/>
<path fill-rule="evenodd" clip-rule="evenodd" d="M5.40002 11.5022C5.40002 11.3366 5.53434 11.2022 5.70002 11.2022L18.5781 11.2022C18.7438 11.2022 18.8781 11.3366 18.8781 11.5022C18.8781 11.6679 18.7438 11.8022 18.5781 11.8022L5.70002 11.8022C5.53434 11.8022 5.40002 11.6679 5.40002 11.5022Z" fill="white"/>
</svg>
