<svg width="1193" height="259" viewBox="0 0 1193 259" fill="none" xmlns="http://www.w3.org/2000/svg">
<mask id="mask0_369_293301" style="mask-type:alpha" maskUnits="userSpaceOnUse" x="10" y="6" width="1191" height="239">
<rect x="10" y="6.99414" width="1191" height="238" fill="white"/>
</mask>
<g mask="url(#mask0_369_293301)">
<rect x="10" y="6.99414" width="1191" height="238" fill="#007584"/>
<path d="M1016.1 154.304L936.729 108.48C929.57 104.347 920.416 106.799 916.283 113.958L896.552 148.132C892.419 155.291 894.872 164.445 902.031 168.578L981.401 214.403C988.56 218.536 997.714 216.083 1001.85 208.924L1021.58 174.75C1025.71 167.591 1023.26 158.438 1016.1 154.304Z" stroke="white" stroke-width="2.7" stroke-miterlimit="10"/>
<path d="M1010.29 159.682L955.996 128.338C950.708 125.285 943.948 127.097 940.895 132.384L924.814 160.237C921.762 165.524 923.573 172.284 928.861 175.337L983.151 206.682C988.438 209.734 995.199 207.923 998.252 202.636L1014.33 174.783C1017.38 169.496 1015.57 162.735 1010.29 159.682Z" stroke="white" stroke-width="1.55" stroke-miterlimit="10"/>
<path d="M942.035 143.978L948.482 147.7L959.684 140.049L959.333 153.965L965.78 157.687L964.562 166.067L971.884 161.212L986.82 169.835L997.944 161.53L996.656 175.514L1004.12 179.822" stroke="white" stroke-width="1.32" stroke-linecap="round" stroke-linejoin="round"/>
<path d="M930.107 117.601L929.182 117.067C926.964 115.786 924.128 116.546 922.847 118.765L904.006 151.398C902.725 153.616 903.485 156.453 905.704 157.734L906.628 158.267C908.846 159.548 911.683 158.788 912.963 156.57L931.804 123.936C933.085 121.718 932.325 118.881 930.107 117.601Z" stroke="white" stroke-width="2.07" stroke-miterlimit="10"/>
<path d="M930.122 161.717L933.431 163.627C933.431 163.627 937.378 160.611 938.751 160.948C940.124 161.284 942.085 164.105 942.085 164.105C943.23 165.743 943.847 167.691 943.852 169.689L947.834 171.988" stroke="white" stroke-width="0.81" stroke-linecap="round" stroke-linejoin="round"/>
<path d="M944.681 170.12L947.99 172.03C947.99 172.03 951.937 169.015 953.31 169.351C954.683 169.687 956.644 172.509 956.644 172.509C957.712 174.098 958.221 175.997 958.091 177.908L962.45 180.425" stroke="white" stroke-width="0.81" stroke-linecap="round" stroke-linejoin="round"/>
<path d="M959.959 178.943L963.28 180.86C963.28 180.86 967.227 177.845 968.6 178.181C969.973 178.517 971.934 181.338 971.934 181.338C973.079 182.976 973.695 184.924 973.7 186.922L977.683 189.221" stroke="white" stroke-width="0.81" stroke-linecap="round" stroke-linejoin="round"/>
<path d="M974.462 187.314L977.783 189.231C977.783 189.231 981.73 186.216 983.103 186.552C984.475 186.888 986.437 189.709 986.437 189.709C987.768 191.436 987.527 193.092 987.536 194.71L992.271 197.444" stroke="white" stroke-width="0.81" stroke-linecap="round" stroke-linejoin="round"/>
<path d="M276.452 42.1219L238.25 20.0661C234.62 17.9704 229.979 19.214 227.883 22.8438L205.827 61.0458C203.732 64.6756 204.975 69.3171 208.605 71.4127L246.807 93.4686C250.437 95.5643 255.078 94.3206 257.174 90.6908L279.23 52.4888C281.326 48.859 280.082 44.2176 276.452 42.1219Z" stroke="white" stroke-width="2.32" stroke-miterlimit="10"/>
<path d="M327.032 27.1083L315.017 20.1714C313.517 19.3055 311.599 19.8194 310.733 21.3192L299.047 41.5612C298.181 43.061 298.695 44.9788 300.194 45.8448L312.21 52.7817C313.709 53.6476 315.627 53.1337 316.493 51.6339L328.18 31.3919C329.046 29.8921 328.532 27.9743 327.032 27.1083Z" stroke="white" stroke-width="2.32" stroke-miterlimit="10"/>
<path d="M342.909 60.6904L330.893 53.7534C329.394 52.8875 327.476 53.4014 326.61 54.9012L314.923 75.1432C314.057 76.643 314.571 78.5609 316.071 79.4268L328.086 86.3637C329.586 87.2296 331.504 86.7158 332.37 85.2159L344.056 64.9739C344.922 63.4741 344.408 61.5563 342.909 60.6904Z" stroke="white" stroke-width="2.51" stroke-miterlimit="10"/>
<path d="M306.217 49.2734C306.217 49.2734 300.003 70.2866 289.444 78.3242C278.886 86.3618 260.043 85.6912 260.043 85.6912L257.19 90.6319C257.19 90.6319 279.974 108.351 298.322 103.897C316.67 99.4439 322.099 82.8461 322.099 82.8461" stroke="white" stroke-width="2.32" stroke-miterlimit="10"/>
<path d="M267.353 47.1019L238.473 30.4282C236.154 29.0893 233.189 29.8839 231.85 32.2029L221.507 50.1172C220.168 52.4363 220.962 55.4016 223.282 56.7405L252.161 73.4142C254.48 74.7531 257.446 73.9585 258.784 71.6395L269.127 53.7252C270.466 51.4061 269.672 48.4408 267.353 47.1019Z" stroke="white" stroke-width="1.25" stroke-miterlimit="10"/>
<path d="M247.726 85.1538C249.074 85.9324 250.799 85.4703 251.577 84.1218C252.356 82.7732 251.894 81.0487 250.545 80.2701C249.197 79.4915 247.472 79.9536 246.694 81.3022C245.915 82.6508 246.377 84.3752 247.726 85.1538Z" stroke="white" stroke-width="1.25" stroke-miterlimit="10"/>
<path d="M231.534 75.8061C232.883 76.5847 234.607 76.1227 235.386 74.7741C236.165 73.4255 235.702 71.7011 234.354 70.9225C233.005 70.1439 231.281 70.606 230.502 71.9545C229.724 73.3031 230.186 75.0275 231.534 75.8061Z" stroke="white" stroke-width="1.25" stroke-miterlimit="10"/>
<path d="M215.389 66.4859C216.737 67.2645 218.462 66.8024 219.24 65.4538C220.019 64.1052 219.557 62.3808 218.208 61.6022C216.86 60.8236 215.135 61.2856 214.357 62.6342C213.578 63.9828 214.04 65.7072 215.389 66.4859Z" stroke="white" stroke-width="1.25" stroke-miterlimit="10"/>
<path d="M205.345 -20.9954L210.958 -30.7171C211.657 -31.9276 212.808 -32.8108 214.158 -33.1726C215.508 -33.5344 216.947 -33.345 218.157 -32.6461L297.217 10.9758C298.428 11.6746 299.311 12.8258 299.673 14.1759C300.035 15.526 299.845 16.9645 299.146 18.175L292.058 30.4526C291.359 31.6631 290.208 32.5464 288.858 32.9081C287.508 33.2699 286.069 33.0805 284.859 32.3816L207.288 -13.9252C206.11 -14.6209 205.248 -15.7476 204.885 -17.0671C204.523 -18.3866 204.688 -19.7953 205.345 -20.9954V-20.9954Z" stroke="white" stroke-width="2.32" stroke-miterlimit="10"/>
<path d="M434.223 1.92729L403.506 -15.807C400.223 -17.7026 396.025 -16.5777 394.129 -13.2944L362.778 41.0075C360.882 44.2907 362.007 48.489 365.291 50.3846L396.007 68.1189C399.291 70.0144 403.489 68.8895 405.384 65.6063L436.736 11.3043C438.631 8.02112 437.506 3.82286 434.223 1.92729Z" stroke="white" stroke-width="2" stroke-linecap="round" stroke-linejoin="round"/>
<path d="M428.65 4.09754L404.426 -9.88832C401.905 -11.3437 398.682 -10.48 397.227 -7.95929L373.728 32.7415C372.273 35.2622 373.136 38.4854 375.657 39.9408L399.881 53.9266C402.402 55.382 405.625 54.5183 407.081 51.9976L430.579 11.2968C432.035 8.7761 431.171 5.55288 428.65 4.09754Z" stroke="white" stroke-width="1.31" stroke-linecap="round" stroke-linejoin="round"/>
<path d="M382.784 55.5526C384.151 56.3421 385.9 55.8736 386.69 54.5061C387.479 53.1386 387.011 51.39 385.643 50.6005C384.276 49.8109 382.527 50.2795 381.737 51.647C380.948 53.0145 381.416 54.7631 382.784 55.5526Z" stroke="white" stroke-width="1.31" stroke-linecap="round" stroke-linejoin="round"/>
<path d="M190.422 40.9782L139.965 11.847C135.51 9.27472 129.813 10.8012 127.24 15.2566L111.265 42.9268C108.693 47.3821 110.219 53.0792 114.675 55.6515L165.131 84.7826C169.587 87.3549 175.284 85.8284 177.856 81.373L193.831 53.7029C196.404 49.2475 194.877 43.5505 190.422 40.9782Z" stroke="white" stroke-width="2.32" stroke-linecap="round" stroke-linejoin="round"/>
<path d="M125.866 56.6379C130.421 49.5917 136.56 46.7313 144.649 49.0585C144.649 49.0585 147.794 26.958 160.596 34.3495C173.399 41.741 155.142 55.1013 155.142 55.1013C164.913 62.4466 162.027 72.7687 159.709 76.1773" stroke="white" stroke-width="1.32" stroke-linecap="round" stroke-linejoin="round"/>
<path d="M229.653 101.728L179.197 72.597C174.741 70.0247 169.044 71.5512 166.472 76.0065L150.496 103.677C147.924 108.132 149.451 113.829 153.906 116.401L204.363 145.533C208.818 148.105 214.515 146.578 217.087 142.123L233.063 114.453C235.635 109.997 234.109 104.3 229.653 101.728Z" stroke="white" stroke-width="2.32" stroke-linecap="round" stroke-linejoin="round"/>
<path d="M165.11 117.388C169.665 110.342 175.793 107.475 183.882 109.802C183.882 109.802 187.027 87.7014 199.829 95.0929C212.632 102.484 194.352 115.832 194.352 115.832C197.667 118.091 199.989 121.537 200.839 125.459C201.689 129.38 201.002 133.478 198.919 136.908" stroke="white" stroke-width="1.32" stroke-linecap="round" stroke-linejoin="round"/>
<path d="M183.296 -13.9793L168.236 12.1048L165.11 10.2997L167.062 5.41712L109.953 -27.5547L112.384 -31.7652L107.834 -34.3463L112.551 -42.516L117.107 -39.9464L119.676 -44.3964L176.671 -11.4904L179.839 -15.9754L183.296 -13.9793Z" stroke="white" stroke-width="1.7" stroke-linecap="round" stroke-linejoin="round"/>
<path d="M216.127 13.6607L208.59 26.7142L205.521 24.9421L206.175 22.3073L173.312 3.25764L178.173 -5.16322L210.934 13.8271L212.726 11.6975L216.127 13.6607Z" stroke="white" stroke-width="1.7" stroke-linecap="round" stroke-linejoin="round"/>
<path d="M183.296 -13.9793L179.839 -15.9754L176.671 -11.4904L119.676 -44.3964L117.107 -39.9464L112.551 -42.516L107.834 -34.3463L112.384 -31.7652L109.953 -27.5547L167.062 5.41712L165.11 10.2997L168.236 12.1048L173.335 3.27317L206.176 22.3096L205.522 24.9444L208.591 26.7165L216.127 13.6631L212.727 11.6999L210.935 13.8295L178.197 -5.14769L183.296 -13.9793Z" stroke="white" stroke-width="2.32" stroke-linecap="round" stroke-linejoin="round"/>
<path d="M144.876 259.475L106.674 237.42C103.044 235.324 98.4027 236.568 96.307 240.197L74.2511 278.399C72.1554 282.029 73.3991 286.671 77.0289 288.766L115.231 310.822C118.861 312.918 123.502 311.674 125.598 308.044L147.654 269.842C149.749 266.213 148.506 261.571 144.876 259.475Z" stroke="white" stroke-width="2.32" stroke-miterlimit="10"/>
<path d="M195.456 244.464L183.441 237.527C181.941 236.661 180.024 237.175 179.158 238.675L167.471 258.917C166.605 260.416 167.119 262.334 168.619 263.2L180.634 270.137C182.134 271.003 184.052 270.489 184.917 268.989L196.604 248.747C197.47 247.248 196.956 245.33 195.456 244.464Z" stroke="white" stroke-width="2.32" stroke-miterlimit="10"/>
<path d="M135.787 264.463L106.907 247.79C104.588 246.451 101.623 247.245 100.284 249.564L89.9409 267.479C88.602 269.798 89.3965 272.763 91.7156 274.102L120.595 290.776C122.914 292.114 125.88 291.32 127.219 289.001L137.561 271.087C138.9 268.767 138.106 265.802 135.787 264.463Z" stroke="white" stroke-width="1.25" stroke-miterlimit="10"/>
<path d="M273.679 235.936L258.619 262.02L255.504 260.221L257.451 255.321L200.342 222.349L202.773 218.139L198.217 215.569L202.934 207.399L207.49 209.969L210.066 205.507L267.061 238.413L270.233 233.946L273.679 235.936Z" stroke="white" stroke-width="1.7" stroke-linecap="round" stroke-linejoin="round"/>
<path d="M189.734 204.861L200.734 211.212" stroke="white" stroke-width="2.27" stroke-linecap="round" stroke-linejoin="round"/>
<path d="M241.729 234.623L236.867 243.044" stroke="white" stroke-width="1.13" stroke-linecap="round" stroke-linejoin="round"/>
<path d="M234.449 236.033L232.018 240.244" stroke="white" stroke-width="1.13" stroke-linecap="round" stroke-linejoin="round"/>
<path d="M231.681 229.627L227.169 237.443" stroke="white" stroke-width="1.13" stroke-linecap="round" stroke-linejoin="round"/>
<path d="M222.32 223.418L217.458 231.839" stroke="white" stroke-width="1.13" stroke-linecap="round" stroke-linejoin="round"/>
<path d="M215.04 224.828L212.609 229.039" stroke="white" stroke-width="1.13" stroke-linecap="round" stroke-linejoin="round"/>
<path d="M212.272 218.424L207.76 226.24" stroke="white" stroke-width="1.13" stroke-linecap="round" stroke-linejoin="round"/>
<path d="M224.739 230.428L222.308 234.638" stroke="white" stroke-width="1.13" stroke-linecap="round" stroke-linejoin="round"/>
<path d="M251.486 240.15L246.98 247.955" stroke="white" stroke-width="1.13" stroke-linecap="round" stroke-linejoin="round"/>
<path d="M244.549 240.936L242.118 245.146" stroke="white" stroke-width="1.13" stroke-linecap="round" stroke-linejoin="round"/>
<path d="M306.511 263.58L298.981 276.622L295.912 274.85L296.559 272.226L263.696 253.177L268.558 244.756L301.318 263.746L303.122 261.623L306.511 263.58Z" stroke="white" stroke-width="1.7" stroke-linecap="round" stroke-linejoin="round"/>
<path d="M273.679 235.936L270.233 233.946L267.061 238.413L210.066 205.507L207.49 209.969L202.934 207.399L198.217 215.569L202.773 218.139L200.342 222.349L257.451 255.321L255.504 260.221L258.619 262.02L263.718 253.188L296.558 272.225L295.911 274.848L298.98 276.62L306.51 263.578L303.121 261.622L301.318 263.745L268.58 244.767L273.679 235.936Z" stroke="white" stroke-width="2.83" stroke-linecap="round" stroke-linejoin="round"/>
<path d="M62.2364 -43.0388L-13.0378 -86.4984C-15.527 -87.9356 -18.7099 -87.0827 -20.1471 -84.5935L-46.1425 -39.5682C-47.5796 -37.079 -46.7268 -33.896 -44.2376 -32.4589L31.0367 11.0007C33.5259 12.4378 36.7088 11.585 38.146 9.09576L64.1414 -35.9296C65.5785 -38.4188 64.7256 -41.6017 62.2364 -43.0388Z" stroke="white" stroke-width="2.32" stroke-linecap="round" stroke-linejoin="round"/>
<path d="M222.364 180.389L218.029 187.897C217.495 188.823 216.614 189.498 215.581 189.775C214.549 190.052 213.448 189.907 212.522 189.372L151.468 155.644C151.01 155.38 150.609 155.028 150.287 154.608C149.966 154.188 149.73 153.709 149.594 153.198C149.458 152.687 149.424 152.154 149.495 151.63C149.565 151.106 149.738 150.601 150.004 150.144L155.478 140.662C155.741 140.203 156.092 139.8 156.511 139.477C156.93 139.154 157.408 138.917 157.919 138.779C158.429 138.642 158.962 138.606 159.486 138.675C160.011 138.743 160.516 138.915 160.974 139.179L220.902 174.858C221.362 175.124 221.765 175.479 222.088 175.901C222.411 176.323 222.648 176.805 222.784 177.319C222.92 177.833 222.952 178.369 222.881 178.896C222.809 179.423 222.633 179.93 222.364 180.389V180.389Z" stroke="white" stroke-width="2.32" stroke-miterlimit="10"/>
<path d="M193.557 166.354C192.473 165.729 191.087 166.1 190.461 167.184C189.835 168.268 190.207 169.654 191.291 170.28L209.536 180.813C210.62 181.439 212.006 181.068 212.632 179.984C213.257 178.9 212.886 177.514 211.802 176.888L193.557 166.354Z" stroke="white" stroke-width="1.04" stroke-miterlimit="10"/>
<path d="M230.261 187.395L227.87 191.537C227.689 191.855 227.446 192.134 227.156 192.358C226.866 192.582 226.535 192.746 226.182 192.842C225.828 192.938 225.459 192.962 225.096 192.915C224.733 192.868 224.383 192.749 224.066 192.566L218.03 189.081C217.576 188.682 218.54 187.854 219.278 186.576L221.669 182.434C222.44 181.099 222.622 179.942 223.208 180.112L229.244 183.597C229.561 183.779 229.84 184.021 230.063 184.311C230.286 184.6 230.45 184.931 230.544 185.284C230.639 185.637 230.663 186.005 230.614 186.368C230.566 186.73 230.446 187.079 230.261 187.395V187.395Z" stroke="white" stroke-width="2.46" stroke-miterlimit="10"/>
<path d="M94.4833 40.847C86.8105 45.2564 61.57 30.5012 59.6354 24.1811C58.1378 16.9723 68.2361 15.8194 76.074 5.51117C84.4447 -5.50885 79.2519 -17.4374 81.6055 -21.5404C87.6992 -32.095 110.792 -8.00635 111.579 11.2371C112.043 19.2339 102.168 36.4443 94.4833 40.847Z" stroke="white" stroke-width="2.32" stroke-linecap="round" stroke-linejoin="round"/>
<path d="M61.7049 18.2255L55.4862 14.6352L60.1298 10.4394L66.8216 14.2117L61.7049 18.2255Z" stroke="white" stroke-width="2.32" stroke-linecap="round" stroke-linejoin="round"/>
<path d="M94.6372 25.5082C90.5297 27.853 77.0743 19.9324 76.0171 16.5988C75.2041 12.7367 80.6111 12.1463 84.8079 6.64287C89.276 0.748437 86.5114 -5.60964 87.7648 -7.80702C91.0192 -13.4437 103.362 -0.566508 103.779 9.70003C103.95 13.9368 98.6762 23.1239 94.6372 25.5082Z" stroke="white" stroke-width="0.95" stroke-linecap="round" stroke-linejoin="round"/>
<path d="M144.865 231.931C137.192 236.34 111.951 221.585 110.005 215.258C108.526 208.045 118.617 206.903 126.462 196.584C134.833 185.564 129.633 173.646 131.987 169.544C138.087 158.978 161.179 183.066 161.966 202.31C162.431 210.306 152.549 227.528 144.865 231.931Z" stroke="white" stroke-width="2.32" stroke-linecap="round" stroke-linejoin="round"/>
<path d="M131.586 170.608L126.565 167.709L125.267 173.805L131.435 177.458L131.586 170.608Z" stroke="white" stroke-width="2.32" stroke-linecap="round" stroke-linejoin="round"/>
<path d="M112.086 209.312L105.867 205.722L110.511 201.526L117.191 205.292L112.086 209.312Z" stroke="white" stroke-width="2.32" stroke-linecap="round" stroke-linejoin="round"/>
<path d="M144.961 216.559C140.853 218.904 127.398 210.984 126.34 207.65C125.527 203.788 130.941 203.186 135.138 197.683C139.599 191.8 136.835 185.442 138.088 183.244C141.343 177.607 153.692 190.473 154.103 200.751C154.337 205.009 149.057 214.208 144.961 216.559Z" stroke="white" stroke-width="0.95" stroke-linecap="round" stroke-linejoin="round"/>
<path d="M92.426 167.972L13.0554 122.148C5.89663 118.015 -3.2573 120.467 -7.39045 127.626L-27.1209 161.8C-31.254 168.959 -28.8012 178.113 -21.6424 182.246L57.7282 228.071C64.887 232.204 74.0409 229.751 78.174 222.592L97.9045 188.418C102.038 181.259 99.5848 172.106 92.426 167.972Z" stroke="white" stroke-width="2.32" stroke-miterlimit="10"/>
<path d="M86.6134 173.346L32.3228 142.002C27.0356 138.949 20.2749 140.761 17.2224 146.048L1.14159 173.901C-1.91097 179.188 -0.0994535 185.949 5.18774 189.001L59.4783 220.346C64.7655 223.398 71.5262 221.587 74.5787 216.3L90.6595 188.447C93.7121 183.16 91.9005 176.399 86.6134 173.346Z" stroke="white" stroke-width="1.55" stroke-miterlimit="10"/>
<path d="M18.3615 157.647L24.8084 161.369L35.9995 153.712L35.6596 167.634L42.1065 171.356L40.8827 179.748L48.2111 174.881L63.1358 183.498L74.2644 175.211L72.983 189.183L80.4454 193.491" stroke="white" stroke-width="1.32" stroke-linecap="round" stroke-linejoin="round"/>
<path d="M6.42702 131.281L5.50278 130.748C3.28456 129.467 0.448109 130.227 -0.832584 132.445L-19.6736 165.079C-20.9543 167.297 -20.1943 170.134 -17.9761 171.414L-17.0518 171.948C-14.8336 173.229 -11.9972 172.468 -10.7165 170.25L8.12457 137.617C9.40526 135.398 8.64525 132.562 6.42702 131.281Z" stroke="white" stroke-width="2.07" stroke-miterlimit="10"/>
<path d="M6.42917 175.392L9.73818 177.302C9.73818 177.302 13.6918 174.275 15.0695 174.629C16.4472 174.983 18.4106 177.775 18.4106 177.775C19.5501 179.415 20.1659 181.362 20.1769 183.359L24.1591 185.658" stroke="white" stroke-width="0.81" stroke-linecap="round" stroke-linejoin="round"/>
<path d="M20.9892 183.794L24.2982 185.704C24.2982 185.704 28.2633 182.684 29.6296 183.032C30.9959 183.379 32.9707 186.178 32.9707 186.178C34.0368 187.768 34.5456 189.667 34.4175 191.577L38.7762 194.094" stroke="white" stroke-width="0.81" stroke-linecap="round" stroke-linejoin="round"/>
<path d="M36.2104 192.585L39.5194 194.495C39.5194 194.495 43.473 191.468 44.8508 191.823C46.2285 192.177 48.1805 194.962 48.1805 194.962C49.3268 196.602 49.9468 198.552 49.9581 200.553L53.9289 202.845" stroke="white" stroke-width="0.81" stroke-linecap="round" stroke-linejoin="round"/>
<path d="M50.7817 200.998L54.0907 202.908C54.0907 202.908 58.0443 199.881 59.4221 200.236C60.7998 200.59 62.7517 203.375 62.7517 203.375C64.0873 205.12 63.8348 206.769 63.862 208.383L68.5859 211.11" stroke="white" stroke-width="0.81" stroke-linecap="round" stroke-linejoin="round"/>
<path d="M358.085 181.154L343.616 172.801L337.72 174.66L334.365 172.724L333.221 166.799L318.559 158.334C316.885 157.364 315.664 155.769 315.163 153.9C314.663 152.032 314.923 150.04 315.887 148.363L354.129 82.1258C355.1 80.4519 356.694 79.2309 358.563 78.7301C360.432 78.2294 362.423 78.4897 364.1 79.4541L376.526 86.6282C376.526 86.6282 380.056 79.6444 387.77 84.0978C395.483 88.5511 391.85 95.4756 391.85 95.4756L403.637 102.281C405.307 103.253 406.525 104.847 407.023 106.714C407.522 108.581 407.261 110.57 406.298 112.245L368.029 178.528C367.051 180.187 365.459 181.393 363.597 181.885C361.735 182.377 359.754 182.114 358.085 181.154Z" stroke="white" stroke-width="2.32" stroke-linecap="round" stroke-linejoin="round"/>
<path d="M384.127 90.41C385.053 90.9448 386.238 90.6274 386.772 89.701C387.307 88.7747 386.99 87.5902 386.064 87.0553C385.137 86.5205 383.953 86.8378 383.418 87.7642C382.883 88.6906 383.2 89.8751 384.127 90.41Z" stroke="white" stroke-width="1.23" stroke-linecap="round" stroke-linejoin="round"/>
<path d="M387.91 133.397L364.484 173.972C363.255 175.758 361.736 176.57 359.553 175.081L322.823 153.875C322.388 153.72 321.996 153.464 321.679 153.128C321.362 152.793 321.129 152.387 320.999 151.943C320.869 151.5 320.845 151.033 320.931 150.579C321.016 150.125 321.208 149.698 321.49 149.332L344.995 108.62C348.525 104.299 389.107 126.527 387.91 133.397Z" stroke="white" stroke-width="1.18" stroke-linecap="round" stroke-linejoin="round"/>
<path d="M137.609 85.8091L106.893 68.0748C103.609 66.1792 99.4111 67.3042 97.5155 70.5874L66.1643 124.889C64.2687 128.173 65.3936 132.371 68.6768 134.266L99.3935 152.001C102.677 153.896 106.875 152.771 108.771 149.488L140.122 95.1862C142.017 91.903 140.892 87.7047 137.609 85.8091Z" stroke="white" stroke-width="2.32" stroke-linecap="round" stroke-linejoin="round"/>
<path d="M132.03 87.9921L107.805 74.0062C105.285 72.5509 102.061 73.4145 100.606 75.9352L77.1075 116.636C75.6521 119.157 76.5158 122.38 79.0365 123.835L103.261 137.821C105.781 139.277 109.005 138.413 110.46 135.892L133.959 95.1913C135.414 92.6706 134.55 89.4474 132.03 87.9921Z" stroke="white" stroke-width="1.31" stroke-linecap="round" stroke-linejoin="round"/>
<path d="M86.1623 139.453C87.5298 140.242 89.2785 139.774 90.068 138.406C90.8575 137.039 90.3889 135.29 89.0215 134.501C87.654 133.711 85.9054 134.18 85.1159 135.547C84.3264 136.915 84.7949 138.663 86.1623 139.453Z" stroke="white" stroke-width="1.31" stroke-linecap="round" stroke-linejoin="round"/>
<path d="M263.872 174.713L244.817 163.711C243.418 162.896 242.398 161.561 241.979 159.996C241.56 158.432 241.776 156.766 242.579 155.36L258.185 118.607C259.001 117.208 260.336 116.188 261.9 115.769C263.464 115.35 265.13 115.566 266.536 116.369L295.062 132.839C296.465 133.652 297.488 134.988 297.91 136.554C298.331 138.12 298.116 139.789 297.311 141.196L272.189 172.456C271.38 173.851 270.052 174.871 268.495 175.294C266.938 175.716 265.277 175.508 263.872 174.713V174.713Z" stroke="white" stroke-width="2.32" stroke-linecap="round" stroke-linejoin="round"/>
<path d="M287.87 122.741L278.936 117.583C277.701 116.87 276.122 117.293 275.408 118.528C274.695 119.764 275.119 121.343 276.354 122.056L285.288 127.214C286.523 127.927 288.103 127.504 288.816 126.269C289.529 125.034 289.106 123.455 287.87 122.741Z" stroke="white" stroke-width="2.32" stroke-linecap="round" stroke-linejoin="round"/>
<path d="M257.243 120.819L295.833 143.099" stroke="white" stroke-width="1.16" stroke-linecap="round" stroke-linejoin="round"/>
<path d="M42.7143 102.529L23.6476 91.5209C22.2488 90.7053 21.2288 89.37 20.8097 87.8059C20.3906 86.2418 20.6063 84.5755 21.4099 83.1697L37.009 46.4279C37.8239 45.0233 39.162 43.9989 40.7305 43.5786C42.299 43.1583 43.9701 43.3765 45.3781 44.1854L73.904 60.6548C75.3048 61.4716 76.3257 62.8094 76.7437 64.3761C77.1617 65.9428 76.9429 67.6113 76.1351 69.0174L51.0313 100.272C50.2191 101.665 48.8916 102.682 47.3354 103.105C45.7792 103.527 44.1193 103.32 42.7143 102.529V102.529Z" stroke="white" stroke-width="2.32" stroke-linecap="round" stroke-linejoin="round"/>
<path d="M66.6879 50.5696L57.7535 45.4113C56.5184 44.6982 54.939 45.1214 54.2259 46.3566C53.5128 47.5917 53.936 49.1711 55.1711 49.8842L64.1055 55.0424C65.3406 55.7555 66.9199 55.3324 67.6331 54.0972C68.3462 52.8621 67.923 51.2827 66.6879 50.5696Z" stroke="white" stroke-width="2.32" stroke-linecap="round" stroke-linejoin="round"/>
<path d="M36.0654 48.666L74.6553 70.9459" stroke="white" stroke-width="1.16" stroke-linecap="round" stroke-linejoin="round"/>
<path d="M303.814 1.97401L284.759 -9.02759C283.357 -9.84076 282.335 -11.176 281.915 -12.7411C281.496 -14.3062 281.714 -15.9738 282.521 -17.3787L298.12 -54.1206C298.933 -55.5221 300.268 -56.5444 301.834 -56.9638C303.399 -57.3832 305.066 -57.1655 306.471 -56.3583L334.997 -39.8889C336.399 -39.0757 337.421 -37.7404 337.84 -36.1753C338.26 -34.6102 338.042 -32.9427 337.235 -31.5377L312.131 -0.283454C311.321 1.11218 309.994 2.13204 308.436 2.55471C306.879 2.97737 305.218 2.76872 303.814 1.97401Z" stroke="white" stroke-width="2.32" stroke-linecap="round" stroke-linejoin="round"/>
<path d="M497.842 -11.0008L482.782 15.0833L479.667 13.2849L481.608 8.39568L424.499 -24.5762L426.93 -28.7866L422.373 -31.3563L427.097 -39.5376L431.646 -36.9564L434.222 -41.4179L491.217 -8.51192L494.396 -12.9903L497.842 -11.0008Z" stroke="white" stroke-width="1.7" stroke-linecap="round" stroke-linejoin="round"/>
<path d="M530.666 16.6529L523.136 29.695L520.067 27.9228L520.721 25.2881L487.858 6.23844L492.72 -2.18242L525.48 16.808L527.277 14.6963L530.666 16.6529Z" stroke="white" stroke-width="1.7" stroke-linecap="round" stroke-linejoin="round"/>
<path d="M497.842 -11.0008L494.396 -12.9903L491.217 -8.51193L434.222 -41.4179L431.646 -36.9564L427.097 -39.5376L422.373 -31.3563L426.93 -28.7866L424.499 -24.5762L481.608 8.39568L479.667 13.2849L482.782 15.0833L487.881 6.25169L520.722 25.2882L520.068 27.9229L523.137 29.695L530.667 16.653L527.278 14.6964L525.481 16.808L492.743 -2.16917L497.842 -11.0008Z" stroke="white" stroke-width="2.32" stroke-linecap="round" stroke-linejoin="round"/>
<path d="M-29.8129 120.4L-44.2812 112.047L-50.1777 113.906L-53.5323 111.97L-54.6761 106.045L-69.3384 97.5801C-70.1727 97.1024 -70.9047 96.4649 -71.4923 95.704C-72.08 94.9431 -72.5119 94.0738 -72.7632 93.1459C-73.0145 92.2179 -73.0804 91.2495 -72.9571 90.296C-72.8337 89.3426 -72.5235 88.4228 -72.0443 87.5893L-33.7759 21.3065C-32.8067 19.6346 -31.215 18.4144 -29.3487 17.9125C-27.4825 17.4106 -25.4934 17.6679 -23.8163 18.6281L-11.3448 25.8286C-11.3448 25.8286 -7.81479 18.8448 -0.101382 23.2982C7.61203 27.7515 3.97933 34.676 3.97933 34.676L15.7548 41.4746C17.4287 42.445 18.6497 44.0392 19.1505 45.9081C19.6513 47.777 19.3909 49.7682 18.4265 51.4456L-19.8419 117.728C-20.8123 119.402 -22.4066 120.623 -24.2755 121.124C-26.1444 121.625 -28.1355 121.365 -29.8129 120.4V120.4Z" stroke="white" stroke-width="2.32" stroke-linecap="round" stroke-linejoin="round"/>
<path d="M387.16 -71.3435L396.836 -65.7571C398.047 -65.0582 398.93 -63.9071 399.292 -62.557C399.654 -61.2068 399.464 -59.7683 398.765 -58.5578L355.155 20.5089C354.456 21.7193 353.305 22.6026 351.955 22.9644C350.605 23.3262 349.166 23.1368 347.956 22.4379L335.701 15.3626C334.509 14.6545 333.644 13.5051 333.294 12.1637C332.943 10.8223 333.136 9.3969 333.829 8.19629L380.007 -69.3881C380.701 -70.5908 381.842 -71.4708 383.181 -71.837C384.521 -72.2031 385.951 -72.0258 387.16 -71.3435Z" stroke="white" stroke-width="2.32" stroke-miterlimit="10"/>
<path d="M446.09 245.674L366.719 199.849C359.561 195.716 350.407 198.169 346.274 205.327L326.543 239.501C322.41 246.66 324.863 255.814 332.022 259.947L411.392 305.772C418.551 309.905 427.705 307.452 431.838 300.294L451.569 266.119C455.702 258.961 453.249 249.807 446.09 245.674Z" stroke="white" stroke-width="2.32" stroke-miterlimit="10"/>
<path d="M440.26 251.053L385.969 219.709C380.682 216.656 373.921 218.468 370.869 223.755L354.788 251.608C351.736 256.895 353.547 263.656 358.834 266.708L413.125 298.053C418.412 301.105 425.173 299.294 428.225 294.007L444.306 266.154C447.359 260.867 445.547 254.106 440.26 251.053Z" stroke="white" stroke-width="1.55" stroke-miterlimit="10"/>
<path d="M372.016 235.34L378.463 239.063L389.659 231.423L389.326 245.334L395.773 249.056L394.549 257.447L401.877 252.581L416.802 261.197L427.919 252.904L426.638 266.876L434.112 271.191" stroke="white" stroke-width="1.32" stroke-linecap="round" stroke-linejoin="round"/>
<path d="M360.08 208.978L359.156 208.444C356.938 207.163 354.101 207.923 352.821 210.141L333.98 242.775C332.699 244.993 333.459 247.83 335.677 249.11L336.601 249.644C338.82 250.925 341.656 250.165 342.937 247.947L361.778 215.313C363.059 213.095 362.299 210.258 360.08 208.978Z" stroke="white" stroke-width="2.07" stroke-miterlimit="10"/>
<path d="M659.03 230.382L608.573 201.251C604.118 198.679 598.421 200.206 595.848 204.661L579.873 232.331C577.301 236.786 578.827 242.483 583.283 245.056L633.739 274.187C638.195 276.759 643.892 275.233 646.464 270.777L662.439 243.107C665.012 238.652 663.485 232.955 659.03 230.382Z" stroke="white" stroke-width="2.32" stroke-linecap="round" stroke-linejoin="round"/>
<path d="M594.473 246.04C599.028 238.994 605.168 236.134 613.257 238.461C613.257 238.461 616.401 216.36 629.204 223.752C642.006 231.143 623.715 244.484 623.715 244.484C633.486 251.829 630.6 262.151 628.282 265.56" stroke="white" stroke-width="1.32" stroke-linecap="round" stroke-linejoin="round"/>
<path d="M531.68 113.663L537.292 103.942C538 102.75 539.15 101.885 540.491 101.534C541.833 101.184 543.258 101.376 544.459 102.07L623.447 145.711C624.657 146.41 625.54 147.561 625.902 148.911C626.264 150.261 626.075 151.7 625.376 152.91L618.287 165.188C617.588 166.398 616.437 167.281 615.087 167.643C613.737 168.005 612.299 167.816 611.088 167.117L533.504 120.939C532.903 120.584 532.378 120.114 531.961 119.555C531.543 118.995 531.241 118.359 531.071 117.682C530.901 117.005 530.868 116.302 530.972 115.612C531.077 114.922 531.317 114.26 531.68 113.663V113.663Z" stroke="white" stroke-width="2.32" stroke-miterlimit="10"/>
<path d="M569.007 131.807C570.412 132.618 572.208 132.139 573.017 130.737C573.827 129.335 573.344 127.541 571.938 126.729L548.33 113.099C546.925 112.288 545.13 112.767 544.32 114.169C543.511 115.571 543.993 117.365 545.399 118.177L569.007 131.807Z" stroke="white" stroke-width="1.34" stroke-miterlimit="10"/>
<path d="M521.471 104.543L524.568 99.1801C525.045 98.3529 525.831 97.7487 526.753 97.4998C527.675 97.2509 528.659 97.3776 529.488 97.8522L537.304 102.365C537.898 102.89 536.687 103.88 535.693 105.603L532.596 110.966C531.602 112.689 531.343 114.244 530.597 113.981L522.781 109.468C521.956 108.987 521.354 108.199 521.109 107.276C520.863 106.353 520.994 105.37 521.471 104.543V104.543Z" stroke="white" stroke-width="3.19" stroke-miterlimit="10"/>
<path d="M413.025 186.921L402.756 180.992C402.409 180.793 402.104 180.528 401.86 180.211C401.615 179.894 401.436 179.532 401.333 179.145C401.229 178.759 401.203 178.355 401.256 177.959C401.309 177.562 401.44 177.18 401.642 176.834L412.085 155.768C412.922 154.319 413.601 153.144 415.038 153.974L429.872 162.538C431.321 163.374 431.168 163.666 429.817 166.005L417.126 185.774C416.73 186.466 416.078 186.974 415.311 187.189C414.543 187.403 413.722 187.307 413.025 186.921V186.921Z" stroke="white" stroke-width="2.32" stroke-linecap="round" stroke-linejoin="round"/>
<path d="M436.177 200.285L425.907 194.356C425.56 194.157 425.255 193.892 425.011 193.575C424.767 193.258 424.588 192.896 424.484 192.509C424.38 192.123 424.354 191.72 424.407 191.323C424.461 190.926 424.592 190.544 424.793 190.198L435.237 169.132C436.073 167.683 436.752 166.508 438.19 167.338L453.023 175.902C454.472 176.739 454.319 177.03 452.969 179.37L440.277 199.138C439.882 199.83 439.23 200.338 438.462 200.553C437.695 200.768 436.874 200.671 436.177 200.285V200.285Z" stroke="white" stroke-width="2.32" stroke-linecap="round" stroke-linejoin="round"/>
<path d="M415.783 150.707L432.465 160.338C432.465 160.338 436.306 153.686 427.965 148.87C419.624 144.055 415.783 150.707 415.783 150.707Z" stroke="white" stroke-width="2.32" stroke-linecap="round" stroke-linejoin="round"/>
<path d="M438.912 164.059L455.594 173.691C455.594 173.691 459.434 167.039 451.093 162.223C442.752 157.407 438.912 164.059 438.912 164.059Z" stroke="white" stroke-width="2.32" stroke-linecap="round" stroke-linejoin="round"/>
<path d="M489.76 238.416L394.951 183.678C392.96 182.529 390.413 183.211 389.263 185.202L389.092 185.499C387.942 187.49 388.625 190.037 390.616 191.186L485.425 245.924C487.416 247.074 489.963 246.392 491.112 244.4L491.284 244.104C492.433 242.112 491.751 239.566 489.76 238.416Z" stroke="white" stroke-width="2.32" stroke-linecap="round" stroke-linejoin="round"/>
<path d="M557.891 198.489L482.616 155.03C480.127 153.593 476.944 154.446 475.507 156.935L449.512 201.96C448.075 204.449 448.928 207.632 451.417 209.069L526.691 252.529C529.18 253.966 532.363 253.113 533.8 250.624L559.796 205.599C561.233 203.11 560.38 199.927 557.891 198.489Z" stroke="white" stroke-width="2.32" stroke-linecap="round" stroke-linejoin="round"/>
<path d="M500.514 174.707L485.406 165.985C484.398 165.403 483.109 165.748 482.527 166.756L461.518 203.144C460.936 204.152 461.281 205.442 462.29 206.024L477.397 214.746C478.405 215.328 479.695 214.983 480.277 213.974L501.285 177.587C501.867 176.578 501.522 175.289 500.514 174.707Z" stroke="white" stroke-width="0.9" stroke-linecap="round" stroke-linejoin="round"/>
<path d="M546.366 201.876L507.696 179.55C506.814 179.041 505.686 179.343 505.176 180.225L499.109 190.734C498.6 191.617 498.902 192.745 499.784 193.254L538.454 215.58C539.336 216.089 540.464 215.787 540.974 214.905L547.041 204.396C547.55 203.514 547.248 202.386 546.366 201.876Z" stroke="white" stroke-width="0.78" stroke-linecap="round" stroke-linejoin="round"/>
<path d="M512.585 204.812L497.694 196.215C496.969 195.796 496.043 196.045 495.624 196.769L484.458 216.11C484.04 216.835 484.288 217.761 485.013 218.18L499.903 226.777C500.628 227.195 501.554 226.947 501.973 226.222L513.139 206.881C513.558 206.157 513.309 205.23 512.585 204.812Z" stroke="white" stroke-width="0.64" stroke-linecap="round" stroke-linejoin="round"/>
<path d="M536.935 218.872L522.044 210.275C521.319 209.857 520.393 210.105 519.974 210.83L508.808 230.17C508.39 230.895 508.638 231.822 509.363 232.24L524.253 240.837C524.978 241.256 525.905 241.007 526.323 240.283L537.489 220.942C537.908 220.217 537.659 219.291 536.935 218.872Z" stroke="white" stroke-width="0.64" stroke-linecap="round" stroke-linejoin="round"/>
<path d="M583.561 177.558L579.226 185.066C578.692 185.992 577.811 186.667 576.778 186.944C575.745 187.221 574.645 187.076 573.719 186.541L512.676 152.82C511.75 152.285 511.075 151.405 510.798 150.372C510.521 149.339 510.666 148.238 511.201 147.312L516.675 137.83C517.21 136.904 518.09 136.229 519.123 135.952C520.156 135.675 521.256 135.82 522.182 136.355L582.08 172.032C582.542 172.297 582.946 172.65 583.271 173.071C583.595 173.492 583.833 173.973 583.97 174.487C584.108 175 584.143 175.536 584.072 176.063C584.002 176.59 583.828 177.098 583.561 177.558V177.558Z" stroke="white" stroke-width="2.32" stroke-miterlimit="10"/>
<path d="M554.74 163.551C553.657 162.925 552.271 163.296 551.645 164.38C551.019 165.464 551.39 166.85 552.474 167.476L570.72 178.01C571.803 178.636 573.189 178.264 573.815 177.18C574.441 176.096 574.07 174.71 572.986 174.085L554.74 163.551Z" stroke="white" stroke-width="1.04" stroke-miterlimit="10"/>
<path d="M591.449 184.609L589.057 188.751C588.688 189.391 588.081 189.858 587.368 190.051C586.655 190.244 585.895 190.146 585.253 189.78L579.217 186.295C578.752 185.89 579.716 185.062 580.454 183.784L582.845 179.642C583.616 178.307 583.798 177.149 584.395 177.327L590.431 180.812C590.747 180.994 591.025 181.237 591.247 181.527C591.469 181.816 591.632 182.147 591.726 182.5C591.821 182.852 591.845 183.22 591.797 183.582C591.75 183.944 591.631 184.293 591.449 184.609Z" stroke="white" stroke-width="2.46" stroke-miterlimit="10"/>
<path d="M467.682 140.187L453.168 131.807L447.271 133.667L443.905 131.724L442.898 125.878L428.156 117.367C426.482 116.396 425.261 114.802 424.761 112.933C424.26 111.064 424.52 109.073 425.484 107.396L463.753 41.1131C464.726 39.4419 466.32 38.2231 468.188 37.7226C470.056 37.2221 472.046 37.4805 473.724 38.4414L486.184 45.6352C486.184 45.6352 489.725 38.6581 497.439 43.1114C505.152 47.5647 501.52 54.4892 501.52 54.4892L513.306 61.2944C514.974 62.2691 516.189 63.863 516.687 65.7291C517.185 67.5952 516.926 69.5826 515.967 71.2588L477.698 137.542C477.216 138.374 476.573 139.104 475.808 139.687C475.043 140.271 474.17 140.698 473.239 140.944C472.309 141.19 471.339 141.25 470.385 141.12C469.431 140.99 468.513 140.673 467.682 140.187Z" stroke="white" stroke-width="2.32" stroke-linecap="round" stroke-linejoin="round"/>
<path d="M493.75 49.3933C494.677 49.9282 495.861 49.6108 496.396 48.6844C496.931 47.758 496.613 46.5735 495.687 46.0387C494.761 45.5039 493.576 45.8212 493.041 46.7476C492.507 47.674 492.824 48.8585 493.75 49.3933Z" stroke="white" stroke-width="1.23" stroke-linecap="round" stroke-linejoin="round"/>
<path d="M497.533 92.3823L474.107 132.958C472.879 134.743 471.36 135.555 469.177 134.067L432.447 112.861C432.01 112.708 431.616 112.453 431.297 112.118C430.978 111.782 430.744 111.376 430.613 110.932C430.483 110.488 430.461 110.019 430.548 109.564C430.635 109.11 430.829 108.682 431.114 108.318L454.619 67.6057C458.149 63.2841 498.731 85.5124 497.533 92.3823Z" stroke="white" stroke-width="1.18" stroke-linecap="round" stroke-linejoin="round"/>
<path d="M296.784 226.276L282.875 218.246C281.71 217.569 280.86 216.458 280.511 215.156C280.162 213.854 280.343 212.467 281.014 211.299L289.92 195.872C290.597 194.706 291.708 193.856 293.01 193.507C294.312 193.159 295.699 193.339 296.868 194.01L299.96 195.795L302.641 191.151L310.765 195.842L307.799 200.321L310.754 202.027C311.917 202.707 312.765 203.818 313.113 205.118C313.462 206.419 313.283 207.805 312.616 208.975L303.709 224.402C303.032 225.561 301.926 226.407 300.631 226.757C299.335 227.108 297.954 226.935 296.784 226.276Z" stroke="white" stroke-width="2.32" stroke-linecap="round" stroke-linejoin="round"/>
<path d="M314.18 190.006L306.044 185.309C304.431 184.377 302.368 184.93 301.437 186.543L301.43 186.555C300.499 188.168 301.051 190.231 302.665 191.162L310.8 195.859C312.413 196.791 314.476 196.238 315.408 194.625L315.414 194.613C316.346 193 315.793 190.937 314.18 190.006Z" stroke="white" stroke-width="2.32" stroke-linecap="round" stroke-linejoin="round"/>
<path d="M874.856 -40.9357L836.654 -62.9916C833.025 -65.0873 828.383 -63.8436 826.287 -60.2137L804.232 -22.0118C802.136 -18.382 803.38 -13.7406 807.009 -11.6449L845.211 10.411C848.841 12.5067 853.483 11.263 855.578 7.63318L877.634 -30.5687C879.73 -34.1985 878.486 -38.84 874.856 -40.9357Z" stroke="white" stroke-width="2.32" stroke-miterlimit="10"/>
<path d="M904.611 -33.7364C904.611 -33.7364 898.386 -12.7298 887.838 -4.68559C877.291 3.35859 858.437 2.68142 858.437 2.68142L855.584 7.62213C855.584 7.62213 878.357 25.3341 896.705 20.8808C915.053 16.4275 920.493 -0.163631 920.493 -0.163631" stroke="white" stroke-width="2.32" stroke-miterlimit="10"/>
<path d="M788.825 -42.0755L738.368 -71.2067C733.913 -73.779 728.216 -72.2525 725.643 -67.7971L709.668 -40.127C707.096 -35.6716 708.622 -29.9746 713.077 -27.4022L763.534 1.72891C767.989 4.30121 773.686 2.77469 776.259 -1.68067L792.234 -29.3508C794.806 -33.8062 793.28 -39.5032 788.825 -42.0755Z" stroke="white" stroke-width="2.32" stroke-linecap="round" stroke-linejoin="round"/>
<path d="M828.068 18.6774L777.611 -10.4538C773.156 -13.0261 767.459 -11.4995 764.886 -7.04419L748.911 20.626C746.339 25.0813 747.865 30.7783 752.321 33.3506L802.777 62.4818C807.233 65.0541 812.93 63.5277 815.502 59.0723L831.477 31.4021C834.05 26.9468 832.523 21.2497 828.068 18.6774Z" stroke="white" stroke-width="2.32" stroke-linecap="round" stroke-linejoin="round"/>
<path d="M763.513 34.3352C768.068 27.289 774.208 24.4286 782.297 26.7558C782.297 26.7558 785.441 4.65523 798.244 12.0467C811.046 19.4382 792.767 32.7854 792.767 32.7854C802.526 40.1241 799.64 50.4463 797.334 53.8614" stroke="white" stroke-width="1.32" stroke-linecap="round" stroke-linejoin="round"/>
<path d="M722.752 164.568L684.55 142.512C680.921 140.417 676.279 141.66 674.183 145.29L652.128 183.492C650.032 187.122 651.276 191.763 654.905 193.859L693.107 215.915C696.737 218.011 701.379 216.767 703.474 213.137L725.53 174.935C727.626 171.305 726.382 166.664 722.752 164.568Z" stroke="white" stroke-width="2.32" stroke-miterlimit="10"/>
<path d="M773.332 149.558L761.317 142.621C759.817 141.755 757.899 142.269 757.033 143.768L745.346 164.01C744.481 165.51 744.994 167.428 746.494 168.294L758.509 175.231C760.009 176.097 761.927 175.583 762.793 174.083L774.48 153.841C775.346 152.341 774.832 150.424 773.332 149.558Z" stroke="white" stroke-width="2.32" stroke-miterlimit="10"/>
<path d="M789.207 183.145L777.192 176.209C775.692 175.343 773.775 175.856 772.909 177.356L761.222 197.598C760.356 199.098 760.87 201.016 762.37 201.882L774.385 208.819C775.885 209.685 777.803 209.171 778.668 207.671L790.355 187.429C791.221 185.929 790.707 184.011 789.207 183.145Z" stroke="white" stroke-width="2.32" stroke-miterlimit="10"/>
<path d="M752.497 171.762C752.497 171.762 746.283 192.775 735.724 200.812C725.165 208.85 706.322 208.179 706.322 208.179L703.43 213.189C703.43 213.189 726.214 230.907 744.562 226.454C762.91 222.001 768.34 205.403 768.34 205.403" stroke="white" stroke-width="2.32" stroke-miterlimit="10"/>
<path d="M713.651 169.555L684.772 152.881C682.453 151.542 679.487 152.337 678.148 154.656L667.806 172.57C666.467 174.889 667.261 177.855 669.58 179.194L698.46 195.867C700.779 197.206 703.744 196.412 705.083 194.093L715.426 176.178C716.765 173.859 715.97 170.894 713.651 169.555Z" stroke="white" stroke-width="1.25" stroke-miterlimit="10"/>
<path d="M694.025 207.604C695.374 208.383 697.098 207.921 697.877 206.572C698.655 205.223 698.193 203.499 696.845 202.72C695.496 201.942 693.772 202.404 692.993 203.752C692.214 205.101 692.676 206.825 694.025 207.604Z" stroke="white" stroke-width="1.25" stroke-miterlimit="10"/>
<path d="M677.833 198.259C679.182 199.038 680.906 198.576 681.685 197.227C682.463 195.879 682.001 194.154 680.653 193.376C679.304 192.597 677.58 193.059 676.801 194.408C676.023 195.756 676.485 197.481 677.833 198.259Z" stroke="white" stroke-width="1.25" stroke-miterlimit="10"/>
<path d="M661.688 188.936C663.036 189.715 664.761 189.253 665.539 187.904C666.318 186.555 665.856 184.831 664.507 184.052C663.159 183.274 661.434 183.736 660.656 185.084C659.877 186.433 660.339 188.157 661.688 188.936Z" stroke="white" stroke-width="1.25" stroke-miterlimit="10"/>
<path d="M837.499 202.903L843.106 193.193C843.805 191.982 844.956 191.099 846.306 190.737C847.656 190.375 849.094 190.565 850.305 191.264L929.372 234.874C930.582 235.573 931.465 236.724 931.827 238.074C932.189 239.424 931.999 240.863 931.301 242.073L924.212 254.351C923.513 255.562 922.362 256.445 921.012 256.807C919.662 257.168 918.223 256.979 917.013 256.28L839.429 210.102C838.218 209.403 837.335 208.252 836.973 206.902C836.611 205.552 836.801 204.113 837.499 202.903Z" stroke="white" stroke-width="2.32" stroke-miterlimit="10"/>
<path d="M874.834 221.034C876.239 221.846 878.035 221.367 878.844 219.965C879.654 218.562 879.171 216.768 877.766 215.957L854.157 202.327C852.752 201.515 850.957 201.994 850.147 203.396C849.338 204.798 849.821 206.593 851.226 207.404L874.834 221.034Z" stroke="white" stroke-width="1.34" stroke-miterlimit="10"/>
<path d="M827.274 193.789L830.377 188.415C830.858 187.589 831.646 186.988 832.569 186.743C833.492 186.497 834.475 186.627 835.302 187.105L843.107 191.611C843.708 192.125 842.497 193.115 841.502 194.838L838.4 200.212C837.405 201.935 837.153 203.478 836.407 203.215L828.591 198.703C827.768 198.223 827.167 197.438 826.92 196.517C826.674 195.597 826.801 194.616 827.274 193.789V193.789Z" stroke="white" stroke-width="3.19" stroke-miterlimit="10"/>
<path d="M851.555 141.033L836.495 167.117L833.38 165.319L835.327 160.418L778.218 127.447L780.649 123.236L776.093 120.666L780.81 112.497L785.366 115.066L787.935 110.616L844.93 143.522L848.109 139.044L851.555 141.033Z" stroke="white" stroke-width="1.7" stroke-linecap="round" stroke-linejoin="round"/>
<path d="M767.599 109.95L778.61 116.307" stroke="white" stroke-width="2.27" stroke-linecap="round" stroke-linejoin="round"/>
<path d="M819.605 139.716L814.743 148.137" stroke="white" stroke-width="1.13" stroke-linecap="round" stroke-linejoin="round"/>
<path d="M812.325 141.128L809.894 145.338" stroke="white" stroke-width="1.13" stroke-linecap="round" stroke-linejoin="round"/>
<path d="M809.546 134.713L805.033 142.529" stroke="white" stroke-width="1.13" stroke-linecap="round" stroke-linejoin="round"/>
<path d="M800.196 128.51L795.334 136.931" stroke="white" stroke-width="1.13" stroke-linecap="round" stroke-linejoin="round"/>
<path d="M792.916 129.92L790.485 134.13" stroke="white" stroke-width="1.13" stroke-linecap="round" stroke-linejoin="round"/>
<path d="M790.137 123.51L785.625 131.326" stroke="white" stroke-width="1.13" stroke-linecap="round" stroke-linejoin="round"/>
<path d="M802.615 135.521L800.184 139.731" stroke="white" stroke-width="1.13" stroke-linecap="round" stroke-linejoin="round"/>
<path d="M829.35 145.237L824.837 153.053" stroke="white" stroke-width="1.13" stroke-linecap="round" stroke-linejoin="round"/>
<path d="M822.419 146.042L819.988 150.252" stroke="white" stroke-width="1.13" stroke-linecap="round" stroke-linejoin="round"/>
<path d="M884.387 168.674L876.857 181.716L873.788 179.944L874.435 177.321L841.572 158.271L846.434 149.85L879.183 168.834L880.987 166.711L884.387 168.674Z" stroke="white" stroke-width="1.7" stroke-linecap="round" stroke-linejoin="round"/>
<path d="M851.555 141.033L848.109 139.044L844.93 143.522L787.935 110.616L785.366 115.066L780.81 112.497L776.093 120.666L780.649 123.236L778.218 127.447L835.327 160.418L833.38 165.319L836.495 167.117L841.594 158.286L874.434 177.322L873.787 179.946L876.856 181.718L884.386 168.676L880.986 166.713L879.182 168.836L846.456 149.865L851.555 141.033Z" stroke="white" stroke-width="2.83" stroke-linecap="round" stroke-linejoin="round"/>
<path d="M722.74 137.027C715.068 141.436 689.827 126.681 687.881 120.354C686.402 113.14 696.493 111.999 704.326 101.673C712.731 90.6724 707.463 78.7157 709.828 74.6194C715.929 64.0534 739.015 88.1534 739.808 107.385C740.3 115.413 730.413 132.617 722.74 137.027Z" stroke="white" stroke-width="2.32" stroke-linecap="round" stroke-linejoin="round"/>
<path d="M709.451 75.6919L704.441 72.7998L703.143 78.8963L709.299 82.5419L709.451 75.6919Z" stroke="white" stroke-width="2.32" stroke-linecap="round" stroke-linejoin="round"/>
<path d="M689.95 114.396L683.731 110.806L688.375 106.61L695.067 110.383L689.95 114.396Z" stroke="white" stroke-width="2.32" stroke-linecap="round" stroke-linejoin="round"/>
<path d="M722.825 121.646C718.729 123.997 705.274 116.076 704.216 112.743C703.403 108.881 708.817 108.279 713.014 102.775C717.475 96.8924 714.699 90.5277 715.964 88.3369C719.219 82.7002 731.568 95.5661 731.967 105.837C732.213 110.102 726.921 119.294 722.825 121.646Z" stroke="white" stroke-width="0.95" stroke-linecap="round" stroke-linejoin="round"/>
<path d="M668.008 71.7429L588.637 25.9183C581.479 21.7852 572.325 24.238 568.192 31.3968L548.461 65.5709C544.328 72.7297 546.781 81.8836 553.94 86.0168L633.31 131.841C640.469 135.975 649.623 133.522 653.756 126.363L673.486 92.1888C677.62 85.03 675.167 75.8761 668.008 71.7429Z" stroke="white" stroke-width="2.32" stroke-miterlimit="10"/>
<path d="M662.195 77.1189L607.905 45.7742C602.618 42.7217 595.857 44.5332 592.804 49.8204L576.724 77.6731C573.671 82.9603 575.483 89.721 580.77 92.7736L635.06 124.118C640.347 127.171 647.108 125.359 650.161 120.072L666.242 92.2193C669.294 86.9322 667.483 80.1714 662.195 77.1189Z" stroke="white" stroke-width="1.55" stroke-miterlimit="10"/>
<path d="M593.944 61.4176L600.391 65.1397L611.593 57.489L611.254 71.4113L617.7 75.1334L616.465 83.5181L623.805 78.6578L638.73 87.2747L649.847 78.9813L648.566 92.9533L656.028 97.2617" stroke="white" stroke-width="1.32" stroke-linecap="round" stroke-linejoin="round"/>
<path d="M582.01 35.0498L581.085 34.5162C578.867 33.2355 576.031 33.9955 574.75 36.2137L555.909 68.8474C554.628 71.0656 555.388 73.9021 557.606 75.1827L558.531 75.7164C560.749 76.997 563.585 76.237 564.866 74.0188L583.707 41.3852C584.988 39.1669 584.228 36.3305 582.01 35.0498Z" stroke="white" stroke-width="2.07" stroke-miterlimit="10"/>
<path d="M582.01 79.1875L585.319 81.0979C585.319 81.0979 589.273 78.0709 590.651 78.4252C592.028 78.7794 593.98 81.5646 593.98 81.5646C595.128 83.2006 595.745 85.1501 595.747 87.1486L599.729 89.4477" stroke="white" stroke-width="0.81" stroke-linecap="round" stroke-linejoin="round"/>
<path d="M596.57 87.5957L599.879 89.5061C599.879 89.5061 603.832 86.4791 605.21 86.8334C606.588 87.1876 608.54 89.9729 608.54 89.9729C609.604 91.564 610.113 93.4622 609.987 95.3723L614.265 97.8427" stroke="white" stroke-width="0.81" stroke-linecap="round" stroke-linejoin="round"/>
<path d="M611.803 96.3896L615.112 98.3001C615.112 98.3001 619.065 95.2731 620.443 95.6273C621.821 95.9816 623.773 98.7668 623.773 98.7668C624.916 100.405 625.532 102.353 625.539 104.351L629.521 106.65" stroke="white" stroke-width="0.81" stroke-linecap="round" stroke-linejoin="round"/>
<path d="M626.363 104.794L629.672 106.704C629.672 106.704 633.625 103.677 635.003 104.032C636.381 104.386 638.333 107.171 638.333 107.171C639.668 108.916 639.416 110.565 639.443 112.178L644.167 114.906" stroke="white" stroke-width="0.81" stroke-linecap="round" stroke-linejoin="round"/>
<path d="M956.416 98.1199L941.993 89.7929L936.108 91.6592L932.685 89.6829L931.542 83.7585L916.948 75.3327C915.274 74.3623 914.053 72.7681 913.552 70.8992C913.051 69.0303 913.312 67.0391 914.276 65.3618L952.544 -0.921089C953.517 -2.59123 955.111 -3.80858 956.978 -4.30708C958.845 -4.80557 960.833 -4.54467 962.509 -3.58141L974.923 3.5861C974.923 3.5861 978.471 -3.40248 986.173 1.04428C993.875 5.49103 990.247 12.4335 990.247 12.4335L1001.98 19.2058C1003.65 20.175 1004.87 21.7667 1005.37 23.6329C1005.87 25.4992 1005.62 27.4882 1004.66 29.1653L966.387 95.4482C965.417 97.122 963.822 98.3431 961.954 98.8438C960.085 99.3446 958.094 99.0843 956.416 98.1199V98.1199Z" stroke="white" stroke-width="2.32" stroke-linecap="round" stroke-linejoin="round"/>
<path d="M982.541 7.36116C983.468 7.896 984.652 7.57858 985.187 6.65222C985.722 5.72586 985.405 4.54135 984.478 4.00651C983.552 3.47168 982.367 3.78905 981.832 4.71541C981.298 5.64177 981.615 6.82633 982.541 7.36116Z" stroke="white" stroke-width="1.23" stroke-linecap="round" stroke-linejoin="round"/>
<path d="M986.324 50.3491L962.898 90.9245C961.658 92.7035 960.151 93.5221 957.956 92.0268L921.238 70.8273C920.801 70.6746 920.407 70.42 920.088 70.0845C919.769 69.7491 919.535 69.3424 919.404 68.8984C919.274 68.4543 919.252 67.9856 919.339 67.5311C919.426 67.0765 919.62 66.6492 919.905 66.2847L943.41 25.5725C946.94 21.2509 987.522 43.4792 986.324 50.3491Z" stroke="white" stroke-width="1.18" stroke-linecap="round" stroke-linejoin="round"/>
<path d="M713.197 -10.4018L682.48 -28.1362C679.197 -30.0317 674.998 -28.9068 673.103 -25.6236L641.752 28.6784C639.856 31.9616 640.981 36.1598 644.264 38.0554L674.981 55.7897C678.264 57.6853 682.462 56.5604 684.358 53.2772L715.709 -1.02481C717.605 -4.30803 716.48 -8.50628 713.197 -10.4018Z" stroke="white" stroke-width="2.32" stroke-linecap="round" stroke-linejoin="round"/>
<path d="M707.623 -8.22962L683.399 -22.2155C680.878 -23.6708 677.655 -22.8071 676.2 -20.2864L652.701 20.4144C651.246 22.9351 652.11 26.1583 654.63 27.6136L678.854 41.5995C681.375 43.0548 684.598 42.1912 686.054 39.6705L709.552 -1.03036C711.008 -3.55107 710.144 -6.77429 707.623 -8.22962Z" stroke="white" stroke-width="1.31" stroke-linecap="round" stroke-linejoin="round"/>
<path d="M661.756 43.2293C663.124 44.0188 664.872 43.5502 665.662 42.1828C666.451 40.8153 665.983 39.0667 664.615 38.2772C663.248 37.4877 661.499 37.9562 660.71 39.3237C659.92 40.6912 660.389 42.4398 661.756 43.2293Z" stroke="white" stroke-width="1.31" stroke-linecap="round" stroke-linejoin="round"/>
<path d="M862.287 91.6683L843.254 80.6799C841.852 79.8661 840.828 78.5305 840.407 76.9647C839.985 75.3988 840.2 73.7299 841.005 72.3221L856.604 35.5802C857.419 34.1757 858.757 33.1512 860.326 32.7309C861.894 32.3106 863.565 32.5289 864.973 33.3377L893.499 49.8072C894.9 50.624 895.921 51.9618 896.339 53.5285C896.757 55.0952 896.538 56.7637 895.73 58.1698L870.626 89.424C869.812 90.8209 868.479 91.8401 866.918 92.2603C865.356 92.6805 863.692 92.4678 862.287 91.6683V91.6683Z" stroke="white" stroke-width="2.32" stroke-linecap="round" stroke-linejoin="round"/>
<path d="M886.274 39.6858L877.339 34.5275C876.104 33.8144 874.525 34.2376 873.812 35.4728C873.099 36.7079 873.522 38.2872 874.757 39.0004L883.691 44.1586C884.927 44.8717 886.506 44.4485 887.219 43.2134C887.932 41.9782 887.509 40.3989 886.274 39.6858Z" stroke="white" stroke-width="2.32" stroke-linecap="round" stroke-linejoin="round"/>
<path d="M855.651 37.7832L894.241 60.0631" stroke="white" stroke-width="1.16" stroke-linecap="round" stroke-linejoin="round"/>
<path d="M618.284 6.32166L599.228 -4.67994C597.827 -5.49312 596.805 -6.82835 596.385 -8.39347C595.966 -9.95858 596.184 -11.6261 596.991 -13.0311L612.59 -49.773C613.405 -51.1718 614.741 -52.1918 616.305 -52.6109C617.869 -53.03 619.535 -52.8143 620.941 -52.0107L649.467 -35.5412C650.866 -34.7256 651.886 -33.3904 652.305 -31.8263C652.724 -30.2622 652.508 -28.5958 651.705 -27.19L626.601 4.06423C625.791 5.45986 624.463 6.47973 622.906 6.90239C621.349 7.32505 619.688 7.11637 618.284 6.32166V6.32166Z" stroke="white" stroke-width="2.32" stroke-linecap="round" stroke-linejoin="round"/>
<path d="M707.51 280.143L693.601 272.112C692.438 271.437 691.588 270.328 691.238 269.029C690.888 267.73 691.066 266.345 691.733 265.176L700.646 249.738C701.325 248.576 702.435 247.73 703.736 247.384C705.036 247.037 706.42 247.218 707.587 247.888L710.691 249.68L713.372 245.036L721.485 249.72L718.53 254.206L721.473 255.905C722.64 256.579 723.491 257.687 723.841 258.987C724.191 260.287 724.012 261.673 723.341 262.841L714.428 278.28C713.754 279.44 712.649 280.287 711.353 280.636C710.057 280.985 708.676 280.808 707.51 280.143V280.143Z" stroke="white" stroke-width="2.32" stroke-linecap="round" stroke-linejoin="round"/>
<path d="M724.909 243.893L716.773 239.196C715.16 238.265 713.097 238.818 712.166 240.431L712.159 240.442C711.228 242.055 711.78 244.118 713.394 245.05L721.529 249.747C723.142 250.678 725.205 250.125 726.137 248.512L726.143 248.501C727.075 246.888 726.522 244.825 724.909 243.893Z" stroke="white" stroke-width="2.32" stroke-linecap="round" stroke-linejoin="round"/>
<path d="M781.888 281.309L769.964 274.424C769.152 273.955 768.559 273.184 768.314 272.279C768.07 271.373 768.194 270.408 768.66 269.594L780.815 245.089C781.797 243.389 782.587 242.02 784.253 242.981L801.586 252.988C803.274 253.963 803.095 254.301 801.514 257.039L786.723 280.023C786.49 280.425 786.181 280.778 785.812 281.061C785.443 281.343 785.022 281.55 784.572 281.67C784.123 281.789 783.655 281.819 783.194 281.757C782.733 281.695 782.29 281.542 781.888 281.309V281.309Z" stroke="white" stroke-width="2.32" stroke-linecap="round" stroke-linejoin="round"/>
<path d="M785.143 239.064L804.54 250.263C804.54 250.263 809.013 242.516 799.303 236.909C789.593 231.303 785.143 239.064 785.143 239.064Z" stroke="white" stroke-width="2.32" stroke-linecap="round" stroke-linejoin="round"/>
<path d="M950.471 294.721L862.885 244.153C859.986 242.48 856.279 243.473 854.606 246.372L824.361 298.757C822.688 301.656 823.681 305.362 826.58 307.036L914.166 357.604C917.065 359.277 920.771 358.284 922.445 355.385L952.689 303C954.363 300.102 953.37 296.395 950.471 294.721Z" stroke="white" stroke-width="2.32" stroke-linecap="round" stroke-linejoin="round"/>
<path d="M1082.68 54.2363C1072.41 60.1245 1038.64 40.3894 1036.07 31.888C1034.04 22.2271 1047.58 20.7022 1058.09 6.91838C1069.28 -7.82823 1062.34 -23.7636 1065.49 -29.2652C1073.64 -43.3912 1104.54 -11.1604 1105.59 14.5804C1106.18 25.3118 1092.95 48.3301 1082.68 54.2363Z" stroke="white" stroke-width="3.1" stroke-linecap="round" stroke-linejoin="round"/>
<path d="M1038.8 23.9613L1030.5 19.1655L1036.71 13.5468L1045.66 18.594L1038.8 23.9613Z" stroke="white" stroke-width="3.1" stroke-linecap="round" stroke-linejoin="round"/>
<path d="M1082.82 33.6262C1077.34 36.7739 1059.3 26.223 1057.92 21.7128C1056.86 16.5374 1064.06 15.736 1069.67 8.36928C1075.64 0.499213 1071.93 -8.017 1073.61 -10.956C1077.97 -18.4983 1094.47 -1.2865 1095.07 12.4912C1095.35 18.2221 1088.26 30.4996 1082.82 33.6262Z" stroke="white" stroke-width="1.27" stroke-linecap="round" stroke-linejoin="round"/>
<path d="M798.913 88.5186L794.578 96.0267C794.045 96.9507 793.167 97.6256 792.137 97.9034C791.106 98.1813 790.008 98.0394 789.082 97.509L728.028 63.7808C727.102 63.2462 726.427 62.3656 726.15 61.3328C725.873 60.2999 726.018 59.1994 726.553 58.2734L732.027 48.7914C732.562 47.8654 733.442 47.1897 734.475 46.9129C735.508 46.6362 736.609 46.781 737.535 47.3157L797.469 82.9836C797.928 83.2509 798.33 83.6065 798.652 84.0299C798.974 84.4532 799.208 84.9361 799.342 85.4505C799.477 85.965 799.508 86.5009 799.434 87.0275C799.361 87.554 799.183 88.0608 798.913 88.5186V88.5186Z" stroke="white" stroke-width="2.32" stroke-miterlimit="10"/>
<path d="M770.092 74.5116C769.008 73.8858 767.622 74.2573 766.996 75.3412C766.371 76.4251 766.742 77.811 767.826 78.4368L786.071 88.9707C787.155 89.5965 788.541 89.2251 789.167 88.1412C789.792 87.0573 789.421 85.6713 788.337 85.0455L770.092 74.5116Z" stroke="white" stroke-width="1.04" stroke-miterlimit="10"/>
<path d="M806.801 95.5674L804.409 99.7094C804.228 100.027 803.986 100.305 803.696 100.528C803.407 100.752 803.076 100.915 802.723 101.01C802.37 101.105 802.001 101.128 801.639 101.08C801.277 101.031 800.928 100.911 800.612 100.727L794.576 97.242C794.104 96.8477 795.047 96.0838 795.817 94.7488L798.209 90.6068C798.98 89.2718 799.15 88.1073 799.754 88.2734L805.79 91.7584C806.107 91.9415 806.385 92.1854 806.607 92.4762C806.83 92.767 806.993 93.0989 807.087 93.4528C807.181 93.8068 807.204 94.1758 807.155 94.5387C807.106 94.9016 806.985 95.2511 806.801 95.5674V95.5674Z" stroke="white" stroke-width="2.46" stroke-miterlimit="10"/>
<path d="M1023.4 255.185L972.939 226.054C968.483 223.482 962.786 225.008 960.214 229.464L944.239 257.134C941.666 261.589 943.193 267.286 947.648 269.858L998.105 298.99C1002.56 301.562 1008.26 300.035 1010.83 295.58L1026.8 267.91C1029.38 263.455 1027.85 257.758 1023.4 255.185Z" stroke="white" stroke-width="2.32" stroke-linecap="round" stroke-linejoin="round"/>
<path d="M958.833 270.882C963.388 263.836 969.516 260.969 977.605 263.296C977.605 263.296 980.749 241.196 993.563 248.594C1006.38 255.992 988.075 269.326 988.075 269.326C991.39 271.586 993.712 275.031 994.562 278.953C995.412 282.874 994.724 286.972 992.642 290.402" stroke="white" stroke-width="1.32" stroke-linecap="round" stroke-linejoin="round"/>
<path d="M1079.67 140.586L1089.39 146.199C1090.6 146.898 1091.49 148.049 1091.85 149.399C1092.21 150.749 1092.02 152.188 1091.32 153.398L1047.67 232.409C1046.96 233.601 1045.81 234.466 1044.47 234.816C1043.13 235.167 1041.7 234.974 1040.5 234.281L1028.27 227.219C1027.07 226.526 1026.19 225.388 1025.82 224.051C1025.45 222.714 1025.63 221.286 1026.31 220.077L1072.49 142.481C1073.2 141.282 1074.35 140.409 1075.69 140.055C1077.04 139.7 1078.47 139.891 1079.67 140.586Z" stroke="white" stroke-width="2.32" stroke-miterlimit="10"/>
<path d="M1061.54 177.919C1060.73 179.325 1061.21 181.12 1062.61 181.93C1064.01 182.739 1065.81 182.256 1066.62 180.851L1080.25 157.243C1081.06 155.838 1080.58 154.042 1079.18 153.233C1077.77 152.423 1075.98 152.906 1075.17 154.311L1061.54 177.919Z" stroke="white" stroke-width="1.34" stroke-miterlimit="10"/>
<path d="M1088.79 130.378L1094.21 133.507C1094.62 133.742 1094.98 134.056 1095.27 134.431C1095.56 134.806 1095.77 135.234 1095.89 135.691C1096.02 136.148 1096.05 136.625 1095.99 137.095C1095.93 137.564 1095.77 138.017 1095.54 138.427L1091.02 146.243C1090.51 146.844 1089.51 145.645 1087.78 144.644L1082.42 141.547C1080.69 140.553 1079.16 140.289 1079.42 139.543L1083.93 131.727C1084.4 130.911 1085.18 130.312 1086.09 130.06C1086.99 129.807 1087.96 129.922 1088.79 130.378V130.378Z" stroke="white" stroke-width="3.19" stroke-miterlimit="10"/>
<path d="M1018.38 114.437L1004.46 106.399C1003.29 105.723 1002.44 104.612 1002.09 103.31C1001.75 102.008 1001.93 100.621 1002.6 99.4521L1011.5 84.0253C1012.18 82.8625 1013.29 82.0147 1014.59 81.6662C1015.9 81.3176 1017.28 81.4964 1018.45 82.1638L1021.55 83.9557L1024.23 79.3231L1032.35 84.0136L1029.39 88.4815L1032.35 90.1877C1033.51 90.8671 1034.36 91.9778 1034.71 93.2786C1035.06 94.5794 1034.88 95.9653 1034.21 97.135L1025.3 112.562C1024.63 113.723 1023.52 114.572 1022.23 114.923C1020.93 115.274 1019.55 115.099 1018.38 114.437Z" stroke="white" stroke-width="2.32" stroke-linecap="round" stroke-linejoin="round"/>
<path d="M1035.77 78.1785L1027.63 73.4814C1026.02 72.55 1023.96 73.1027 1023.02 74.716L1023.02 74.7274C1022.09 76.3406 1022.64 78.4035 1024.25 79.3349L1032.39 84.032C1034 84.9634 1036.06 84.4107 1037 82.7974L1037 82.786C1037.93 81.1728 1037.38 79.1099 1035.77 78.1785Z" stroke="white" stroke-width="2.32" stroke-linecap="round" stroke-linejoin="round"/>
<path d="M1239.87 106.255L1201.67 84.1989C1198.04 82.1032 1193.4 83.3468 1191.3 86.9766L1169.24 125.179C1167.15 128.808 1168.39 133.45 1172.02 135.546L1210.22 157.601C1213.85 159.697 1218.5 158.453 1220.59 154.824L1242.65 116.622C1244.74 112.992 1243.5 108.35 1239.87 106.255Z" stroke="white" stroke-width="2.32" stroke-miterlimit="10"/>
<path d="M1230.79 111.236L1201.91 94.562C1199.59 93.2231 1196.62 94.0177 1195.28 96.3367L1184.94 114.251C1183.6 116.57 1184.4 119.535 1186.72 120.874L1215.59 137.548C1217.91 138.887 1220.88 138.092 1222.22 135.773L1232.56 117.859C1233.9 115.54 1233.11 112.575 1230.79 111.236Z" stroke="white" stroke-width="1.25" stroke-miterlimit="10"/>
<path d="M1194.95 139.944C1196.3 140.722 1198.02 140.26 1198.8 138.912C1199.58 137.563 1199.12 135.839 1197.77 135.06C1196.42 134.282 1194.7 134.744 1193.92 136.092C1193.14 137.441 1193.6 139.165 1194.95 139.944Z" stroke="white" stroke-width="1.25" stroke-miterlimit="10"/>
<path d="M1178.82 130.629C1180.17 131.408 1181.89 130.946 1182.67 129.597C1183.45 128.249 1182.98 126.524 1181.64 125.746C1180.29 124.967 1178.56 125.429 1177.78 126.778C1177.01 128.126 1177.47 129.851 1178.82 130.629Z" stroke="white" stroke-width="1.25" stroke-miterlimit="10"/>
<path d="M1162.98 53.3589L1132.27 35.6246C1128.98 33.7291 1124.78 34.854 1122.89 38.1372L1091.54 92.4391C1089.64 95.7224 1090.77 99.9206 1094.05 101.816L1124.77 119.55C1128.05 121.446 1132.25 120.321 1134.14 117.038L1165.5 62.736C1167.39 59.4527 1166.27 55.2545 1162.98 53.3589Z" stroke="white" stroke-width="2" stroke-linecap="round" stroke-linejoin="round"/>
<path d="M1157.4 55.5399L1133.18 41.5541C1130.66 40.0987 1127.44 40.9624 1125.98 43.4831L1102.48 84.1839C1101.03 86.7046 1101.89 89.9278 1104.41 91.3832L1128.63 105.369C1131.16 106.824 1134.38 105.961 1135.83 103.44L1159.33 62.7392C1160.79 60.2185 1159.92 56.9952 1157.4 55.5399Z" stroke="white" stroke-width="1.31" stroke-linecap="round" stroke-linejoin="round"/>
<path d="M1111.54 106.999C1112.9 107.788 1114.65 107.32 1115.44 105.952C1116.23 104.585 1115.76 102.836 1114.4 102.047C1113.03 101.257 1111.28 101.726 1110.49 103.093C1109.7 104.461 1110.17 106.209 1111.54 106.999Z" stroke="white" stroke-width="1.31" stroke-linecap="round" stroke-linejoin="round"/>
<path d="M1228.99 193.934L1213.93 220.018L1210.81 218.22L1212.76 213.319L1155.66 180.354L1158.09 176.143L1153.54 173.574L1158.25 165.404L1162.81 167.974L1165.38 163.524L1222.37 196.43L1225.54 191.945L1228.99 193.934Z" stroke="white" stroke-width="1.7" stroke-linecap="round" stroke-linejoin="round"/>
<path d="M1145.04 162.855L1156.05 169.213" stroke="white" stroke-width="2.27" stroke-linecap="round" stroke-linejoin="round"/>
<path d="M1197.04 192.616L1192.18 201.037" stroke="white" stroke-width="1.13" stroke-linecap="round" stroke-linejoin="round"/>
<path d="M1189.76 194.029L1187.32 198.24" stroke="white" stroke-width="1.13" stroke-linecap="round" stroke-linejoin="round"/>
<path d="M1186.99 187.624L1182.48 195.44" stroke="white" stroke-width="1.13" stroke-linecap="round" stroke-linejoin="round"/>
<path d="M1177.63 181.412L1172.77 189.833" stroke="white" stroke-width="1.13" stroke-linecap="round" stroke-linejoin="round"/>
<path d="M1170.35 182.822L1167.92 187.033" stroke="white" stroke-width="1.13" stroke-linecap="round" stroke-linejoin="round"/>
<path d="M1167.58 176.419L1163.07 184.235" stroke="white" stroke-width="1.13" stroke-linecap="round" stroke-linejoin="round"/>
<path d="M1180.06 188.43L1177.63 192.64" stroke="white" stroke-width="1.13" stroke-linecap="round" stroke-linejoin="round"/>
<path d="M1228.99 193.934L1225.54 191.945L1222.37 196.43L1165.38 163.524L1162.81 167.974L1158.25 165.404L1153.54 173.574L1158.09 176.143L1155.66 180.354L1212.76 213.319L1210.81 218.22L1213.93 220.018L1219.03 211.187L1251.88 230.23L1251.23 232.853L1254.29 234.618L1261.82 221.576L1258.43 219.62L1256.63 221.743L1223.89 202.766L1228.99 193.934Z" stroke="white" stroke-width="2.32" stroke-linecap="round" stroke-linejoin="round"/>
<path d="M1215.82 -18.9378L1165.36 -48.069C1160.9 -50.6413 1155.21 -49.1148 1152.63 -44.6594L1136.66 -16.9893C1134.09 -12.5339 1135.61 -6.83687 1140.07 -4.26457L1190.52 24.8666C1194.98 27.4389 1200.68 25.9124 1203.25 21.457L1219.22 -6.21315C1221.8 -10.6685 1220.27 -16.3655 1215.82 -18.9378Z" stroke="white" stroke-width="2.32" stroke-linecap="round" stroke-linejoin="round"/>
<path d="M1151.27 -3.27061C1155.83 -10.3282 1161.95 -13.1837 1170.04 -10.8565C1170.04 -10.8565 1173.19 -32.9685 1186.01 -25.5705C1198.82 -18.1724 1180.51 -4.82696 1180.51 -4.82696C1190.27 2.51177 1187.39 12.8339 1185.08 16.249" stroke="white" stroke-width="1.32" stroke-linecap="round" stroke-linejoin="round"/>
<path d="M1255.05 41.7995L1204.6 12.6683C1200.14 10.096 1194.44 11.6225 1191.87 16.0779L1175.9 43.748C1173.32 48.2034 1174.85 53.9004 1179.31 56.4727L1229.76 85.6039C1234.22 88.1762 1239.92 86.6497 1242.49 82.1943L1258.46 54.5242C1261.04 50.0688 1259.51 44.3718 1255.05 41.7995Z" stroke="white" stroke-width="2.32" stroke-linecap="round" stroke-linejoin="round"/>
<path d="M1190.51 57.4641C1195.06 50.4179 1201.2 47.5575 1209.29 49.8847C1209.29 49.8847 1212.44 27.7841 1225.24 35.1756C1238.04 42.5671 1219.75 55.9077 1219.75 55.9077C1229.52 63.2644 1226.64 73.5751 1224.32 76.9837" stroke="white" stroke-width="1.32" stroke-linecap="round" stroke-linejoin="round"/>
<path d="M1104.28 301.231L1089.81 292.878L1083.93 294.744L1080.56 292.801L1079.42 286.876L1064.76 278.411C1063.09 277.44 1061.87 275.849 1061.37 273.984C1060.87 272.12 1061.13 270.133 1062.09 268.458L1100.36 202.175C1101.33 200.503 1102.92 199.283 1104.79 198.781C1106.65 198.279 1108.64 198.537 1110.32 199.497L1122.74 206.671C1122.74 206.671 1126.28 199.676 1133.99 204.129C1141.71 208.583 1138.07 215.518 1138.07 215.518L1149.84 222.317C1151.52 223.288 1152.74 224.882 1153.24 226.751C1153.74 228.62 1153.48 230.611 1152.52 232.288L1114.25 298.571C1113.27 300.241 1111.68 301.458 1109.81 301.957C1107.95 302.455 1105.96 302.194 1104.28 301.231V301.231Z" stroke="white" stroke-width="2.32" stroke-linecap="round" stroke-linejoin="round"/>
<path d="M1130.36 210.454C1131.28 210.989 1132.47 210.671 1133 209.745C1133.54 208.819 1133.22 207.634 1132.29 207.099C1131.37 206.564 1130.18 206.882 1129.65 207.808C1129.11 208.735 1129.43 209.919 1130.36 210.454Z" stroke="white" stroke-width="1.23" stroke-linecap="round" stroke-linejoin="round"/>
<path d="M1134.15 253.431L1110.71 294.018C1109.48 295.786 1107.97 296.616 1105.77 295.12L1069.04 273.914C1068.61 273.757 1068.22 273.5 1067.9 273.163C1067.58 272.826 1067.35 272.419 1067.22 271.976C1067.1 271.532 1067.07 271.064 1067.16 270.611C1067.25 270.158 1067.44 269.731 1067.73 269.367L1091.23 228.655C1094.75 224.344 1135.36 246.527 1134.15 253.431Z" stroke="white" stroke-width="1.18" stroke-linecap="round" stroke-linejoin="round"/>
<path d="M1173.84 245.923L1193.24 257.123C1193.24 257.123 1197.71 249.375 1188 243.769C1178.29 238.163 1173.84 245.923 1173.84 245.923Z" stroke="white" stroke-width="2.32" stroke-linecap="round" stroke-linejoin="round"/>
<rect x="10" y="6.99414" width="1191" height="238" fill="url(#paint0_linear_369_293301)"/>
</g>
<defs>
<linearGradient id="paint0_linear_369_293301" x1="1102.5" y1="24.4416" x2="-139.097" y2="270.14" gradientUnits="userSpaceOnUse">
<stop offset="0.0950845" stop-color="#007786" stop-opacity="0.95"/>
<stop offset="0.246308" stop-color="#007786" stop-opacity="0.6"/>
<stop offset="0.556845" stop-color="#007786" stop-opacity="0.95"/>
</linearGradient>
</defs>
</svg>
